<?xml version="1.0" standalone="no"?>
<!DOCTYPE svg PUBLIC "-//W3C//DTD SVG 20010904//EN"
 "http://www.w3.org/TR/2001/REC-SVG-20010904/DTD/svg10.dtd">
<svg version="1.0" xmlns="http://www.w3.org/2000/svg"
 width="254.000000pt" height="208.000000pt" viewBox="0 0 254.000000 208.000000"
 preserveAspectRatio="xMidYMid meet">
<metadata>
Created by potrace 1.16, written by Peter Selinger 2001-2019
</metadata>
<g transform="translate(0.000000,208.000000) scale(0.100000,-0.100000)"
fill="#000000" stroke="none">
<path d="M564 2066 c-99 -32 -163 -115 -172 -221 -4 -56 -1 -72 22 -119 64
-131 204 -182 331 -122 97 46 148 126 148 232 -1 91 -51 172 -135 215 -50 25
-142 33 -194 15z m205 -74 c59 -48 75 -76 79 -145 3 -50 0 -72 -16 -104 -72
-140 -254 -164 -351 -47 -55 67 -64 141 -27 221 54 116 217 154 315 75z"/>
<path d="M1865 2071 c-127 -31 -211 -163 -184 -290 17 -81 57 -134 130 -170
100 -50 194 -40 274 31 58 52 85 109 85 184 0 164 -149 283 -305 245z m160
-64 c53 -30 94 -94 102 -157 18 -150 -138 -272 -275 -214 -167 69 -177 293
-17 377 46 25 141 22 190 -6z"/>
<path d="M445 1526 c-22 -7 -54 -21 -71 -32 -45 -28 -343 -314 -360 -346 -23
-45 -17 -120 21 -236 42 -131 65 -169 111 -188 46 -19 93 -5 129 37 33 40 32
75 -5 184 -17 49 -28 97 -24 107 3 10 38 45 78 77 l73 60 7 -91 c3 -50 6 -198
6 -329 l0 -238 -52 -68 c-29 -37 -82 -107 -119 -154 -81 -104 -89 -119 -89
-161 0 -99 129 -166 204 -107 39 31 275 346 299 399 13 28 22 75 25 133 l5 89
109 -109 c74 -74 113 -120 123 -148 7 -22 19 -101 25 -175 12 -151 24 -181 80
-212 63 -35 143 -10 176 54 16 31 16 45 -1 228 -22 249 -24 254 -189 430
l-126 135 0 158 0 159 38 -31 c86 -73 113 -86 168 -85 71 2 96 19 247 172 117
118 127 132 127 166 0 77 -50 126 -129 126 -44 0 -55 -8 -184 -128 l-68 -63
-37 30 c-20 16 -64 52 -97 80 -91 78 -136 91 -313 90 -89 0 -163 -5 -187 -13z
m395 -54 c25 -12 85 -58 135 -102 49 -44 95 -80 103 -80 7 0 52 37 100 83 103
99 128 117 161 117 32 0 81 -47 81 -78 0 -27 -85 -121 -213 -233 -70 -62 -81
-69 -120 -69 -46 0 -59 7 -156 87 -36 29 -71 53 -78 53 -10 0 -13 -42 -13
-200 l0 -200 37 -42 c21 -24 78 -86 126 -138 49 -52 98 -112 108 -133 22 -43
64 -369 54 -423 -6 -34 -28 -58 -62 -68 -30 -9 -87 19 -101 49 -6 13 -16 81
-22 152 -18 200 -12 188 -170 347 -78 78 -144 136 -152 134 -9 -3 -15 -36 -19
-119 -3 -63 -11 -127 -18 -144 -16 -39 -256 -360 -289 -385 -29 -24 -53 -25
-91 -6 -27 15 -51 53 -51 84 0 9 21 44 47 77 26 33 85 110 131 170 l84 110 -4
362 c-3 253 -7 366 -15 374 -15 15 -214 -145 -227 -183 -7 -20 -2 -49 22 -126
38 -118 38 -122 11 -156 -26 -34 -71 -35 -103 -2 -26 25 -96 226 -96 274 0 61
22 90 185 245 208 197 210 198 420 194 132 -2 155 -5 195 -25z"/>
<path d="M1932 1529 c-84 -16 -150 -76 -233 -211 -67 -108 -97 -128 -211 -138
-89 -7 -93 -8 -125 -43 -62 -68 -36 -157 52 -177 76 -18 239 7 297 45 l36 24
6 -47 c14 -112 11 -138 -20 -175 -16 -19 -56 -68 -90 -109 -74 -88 -102 -141
-115 -216 -5 -31 -23 -128 -40 -214 -32 -171 -31 -186 19 -231 47 -43 150 -27
186 29 9 13 31 97 50 187 18 89 43 181 55 202 11 22 48 69 81 105 l60 65 0
-88 c0 -54 6 -101 15 -123 29 -71 220 -357 250 -376 65 -41 161 -7 185 66 15
47 2 79 -104 241 l-96 148 0 328 c0 181 2 329 4 329 2 0 19 -18 36 -41 23 -29
40 -70 60 -143 15 -57 33 -113 39 -124 18 -34 53 -52 99 -52 37 0 50 6 78 34
22 22 34 44 34 61 0 29 -59 240 -82 295 -19 42 -223 262 -285 307 -66 47 -146
61 -241 42z m183 -58 c43 -19 274 -251 299 -300 8 -15 31 -85 51 -156 l37
-127 -20 -27 c-21 -29 -41 -36 -78 -27 -30 8 -47 42 -74 147 -12 46 -32 102
-45 124 -30 52 -110 129 -124 121 -8 -5 -11 -119 -11 -374 0 -422 -15 -350
124 -566 86 -135 95 -170 50 -205 -64 -50 -100 -21 -235 191 l-103 161 -4 128
c-3 95 -8 129 -18 133 -16 6 -164 -149 -199 -209 -16 -27 -36 -99 -59 -210
-33 -158 -37 -172 -67 -198 -25 -23 -38 -28 -62 -23 -72 14 -79 44 -48 202 11
55 27 141 37 192 18 105 45 152 155 277 93 106 88 93 77 233 l-10 123 42 55
c38 50 46 84 21 84 -5 0 -39 -38 -76 -85 -37 -47 -77 -92 -90 -101 -27 -18
-113 -32 -209 -36 -61 -2 -70 0 -87 21 -25 31 -24 54 4 87 21 24 33 28 115 34
122 10 156 35 242 175 84 138 138 175 255 175 47 0 83 -7 110 -19z"/>
</g>
</svg>
