<?xml version="1.0" standalone="no"?>
<!DOCTYPE svg PUBLIC "-//W3C//DTD SVG 20010904//EN"
 "http://www.w3.org/TR/2001/REC-SVG-20010904/DTD/svg10.dtd">
<svg version="1.0" xmlns="http://www.w3.org/2000/svg"
 width="175.000000pt" height="172.000000pt" viewBox="0 0 175.000000 172.000000"
 preserveAspectRatio="xMidYMid meet">
<metadata>
Created by potrace 1.16, written by Peter Selinger 2001-2019
</metadata>
<g transform="translate(0.000000,172.000000) scale(0.100000,-0.100000)"
fill="#000000" stroke="none">
<path d="M1112 1247 c-438 -438 -473 -476 -463 -496 7 -11 17 -21 24 -21 7 0
219 207 472 460 443 443 460 459 481 445 12 -8 31 -27 42 -43 l21 -28 -460
-460 c-464 -463 -490 -494 -434 -502 27 -4 955 923 955 954 0 22 -47 101 -72
121 -8 7 -32 20 -53 29 l-38 16 -475 -475z"/>
<path d="M716 1354 c-3 -9 -6 -24 -6 -35 0 -33 -52 -81 -96 -88 -30 -5 -40
-11 -42 -28 -3 -18 3 -22 38 -28 59 -10 92 -42 99 -96 5 -36 10 -45 28 -47 20
-3 23 3 29 40 9 56 47 93 103 103 36 6 42 10 39 28 -2 15 -11 23 -28 25 -66 8
-99 41 -115 115 -6 30 -39 38 -49 11z m44 -139 c10 -12 9 -18 -5 -31 -15 -15
-18 -15 -32 -1 -13 13 -14 19 -3 31 16 20 24 20 40 1z"/>
<path d="M395 816 c-8 -19 -15 -40 -15 -45 0 -28 -53 -172 -72 -196 -25 -32
-71 -53 -198 -89 -52 -15 -99 -31 -104 -36 -5 -5 -6 -20 -2 -33 5 -20 16 -27
58 -37 86 -20 191 -60 225 -86 32 -24 41 -47 93 -222 21 -72 21 -73 53 -70 31
3 32 5 64 110 36 120 51 154 83 183 12 11 79 39 148 61 109 35 127 44 130 64
2 12 0 26 -5 31 -5 5 -51 21 -101 34 -51 14 -114 36 -141 49 -57 29 -70 53
-117 206 -29 96 -34 105 -58 108 -22 3 -29 -3 -41 -32z m100 -257 c23 -43 77
-79 165 -109 l80 -26 -57 -18 c-140 -44 -183 -86 -226 -222 -14 -43 -28 -72
-30 -64 -3 8 -15 47 -27 87 -30 99 -71 144 -158 177 -37 14 -80 28 -96 32 -26
6 -22 9 42 29 142 45 176 79 222 218 l22 69 24 -72 c14 -40 31 -85 39 -101z"/>
<path d="M1167 534 c-4 -4 -7 -27 -7 -50 l0 -43 -52 -3 c-49 -3 -53 -5 -53
-28 0 -23 4 -25 52 -28 l52 -3 3 -47 c2 -36 7 -48 22 -50 24 -5 36 14 36 61 0
37 0 37 43 37 51 0 70 11 65 36 -2 15 -14 20 -55 22 l-52 3 -3 47 c-2 38 -7
48 -23 50 -12 2 -24 0 -28 -4z"/>
</g>
</svg>
