<?xml version="1.0" standalone="no"?>
<!DOCTYPE svg PUBLIC "-//W3C//DTD SVG 20010904//EN"
 "http://www.w3.org/TR/2001/REC-SVG-20010904/DTD/svg10.dtd">
<svg version="1.0" xmlns="http://www.w3.org/2000/svg"
 width="207.000000pt" height="320.000000pt" viewBox="0 0 207.000000 320.000000"
 preserveAspectRatio="xMidYMid meet">
<metadata>
Created by potrace 1.16, written by Peter Selinger 2001-2019
</metadata>
<g transform="translate(0.000000,320.000000) scale(0.100000,-0.100000)"
fill="#000000" stroke="none">
<path d="M390 3174 c-90 -31 -195 -99 -250 -162 -53 -61 -107 -173 -125 -259
-22 -100 -21 -645 0 -728 22 -81 60 -148 117 -201 62 -58 134 -90 231 -105
l77 -11 -5 -32 c-2 -17 -6 -96 -7 -176 l-3 -145 26 0 c21 0 75 42 226 177
l199 178 370 3 c310 3 379 6 429 21 191 54 329 195 380 386 20 76 21 710 1
785 -35 134 -132 234 -262 275 -64 19 -91 20 -698 20 l-631 -1 -75 -25z m1415
-44 c82 -33 164 -115 196 -195 23 -58 24 -69 27 -385 4 -362 -1 -406 -53 -515
-58 -120 -138 -194 -270 -246 -59 -23 -69 -24 -453 -29 l-392 -5 -191 -170
c-105 -93 -195 -172 -200 -173 -6 -2 -8 7 -5 20 3 12 7 91 8 173 l3 150 -81 6
c-144 11 -247 77 -306 197 l-33 67 -3 335 c-4 370 -1 402 53 515 58 121 165
211 307 260 l73 25 630 -3 630 -2 60 -25z"/>
<path d="M621 14 c0 -11 3 -14 6 -6 3 7 2 16 -1 19 -3 4 -6 -2 -5 -13z"/>
</g>
</svg>
