<?xml version="1.0" standalone="no"?>
<!DOCTYPE svg PUBLIC "-//W3C//DTD SVG 20010904//EN"
 "http://www.w3.org/TR/2001/REC-SVG-20010904/DTD/svg10.dtd">
<svg version="1.0" xmlns="http://www.w3.org/2000/svg"
 width="199.000000pt" height="172.000000pt" viewBox="0 0 199.000000 172.000000"
 preserveAspectRatio="xMidYMid meet">
<metadata>
Created by potrace 1.16, written by Peter Selinger 2001-2019
</metadata>
<g transform="translate(0.000000,172.000000) scale(0.100000,-0.100000)"
fill="#000000" stroke="none">
<path d="M95 1706 c-37 -17 -70 -52 -84 -89 -7 -18 -11 -166 -11 -416 0 -381
0 -387 23 -431 29 -57 73 -80 154 -80 l63 0 0 -139 c0 -77 4 -142 9 -145 5 -4
77 59 160 139 l150 145 85 0 86 0 0 -147 c0 -172 13 -215 74 -252 36 -23 41
-23 358 -22 l322 2 137 -137 c79 -79 141 -134 148 -130 7 5 11 51 11 132 l0
124 28 0 c86 0 155 53 173 134 7 34 10 171 7 421 -3 422 -3 419 -88 463 -42
21 -56 22 -271 22 l-228 0 -3 159 c-3 174 -7 187 -72 235 -27 21 -39 21 -614
23 -475 2 -593 0 -617 -11z m1200 -42 c64 -30 65 -39 65 -459 0 -412 -1 -423
-58 -462 -25 -16 -58 -18 -395 -20 l-369 -2 -120 -117 c-91 -88 -122 -113
-129 -103 -5 8 -9 60 -9 117 l0 102 -65 0 c-77 0 -123 17 -153 55 -22 27 -22
33 -22 422 0 437 0 436 64 467 47 24 1142 23 1191 0z m605 -429 c48 -43 50
-60 50 -452 0 -349 -1 -369 -20 -409 -25 -51 -68 -74 -139 -74 l-51 0 0 -117
0 -118 -119 119 -119 118 -310 -1 c-346 -2 -365 1 -402 61 -18 29 -20 50 -20
181 l0 147 259 0 c251 0 259 1 291 23 74 50 75 52 78 313 l3 235 238 -3 c222
-3 240 -4 261 -23z"/>
</g>
</svg>
