<?xml version="1.0" standalone="no"?>
<!DOCTYPE svg PUBLIC "-//W3C//DTD SVG 20010904//EN"
 "http://www.w3.org/TR/2001/REC-SVG-20010904/DTD/svg10.dtd">
<svg version="1.0" xmlns="http://www.w3.org/2000/svg"
 width="208.000000pt" height="174.000000pt" viewBox="0 0 208.000000 174.000000"
 preserveAspectRatio="xMidYMid meet">
<metadata>
Created by potrace 1.16, written by Peter Selinger 2001-2019
</metadata>
<g transform="translate(0.000000,174.000000) scale(0.100000,-0.100000)"
fill="#000000" stroke="none">
<path d="M1805 1721 c-24 -10 -69 -50 -110 -96 -88 -97 -249 -266 -631 -660
-165 -171 -323 -335 -350 -365 -37 -42 -80 -119 -174 -308 l-124 -252 -206 -2
c-174 -3 -205 -5 -205 -18 0 -13 83 -15 678 -18 643 -2 678 -1 675 15 -3 17
-34 18 -448 23 l-445 5 50 31 c28 17 133 76 235 132 l185 101 400 412 c757
780 723 743 734 786 21 77 -32 169 -123 212 -52 26 -89 26 -141 2z m153 -61
c47 -34 72 -75 72 -119 0 -22 -16 -48 -62 -101 -34 -39 -65 -69 -69 -68 -4 2
-51 46 -104 98 l-97 94 65 63 c60 58 68 63 109 63 34 0 55 -7 86 -30z m-351
-592 c-144 -148 -356 -368 -472 -488 l-210 -218 -95 91 c-52 51 -95 95 -95 99
0 4 182 195 405 426 223 230 432 447 465 483 l60 64 102 -94 103 -93 -263
-270z m-809 -646 l93 -87 -181 -100 c-100 -55 -185 -101 -190 -103 -5 -2 32
82 83 187 50 105 94 190 97 190 3 0 47 -39 98 -87z"/>
</g>
</svg>
