<?xml version="1.0" standalone="no"?>
<!DOCTYPE svg PUBLIC "-//W3C//DTD SVG 20010904//EN"
 "http://www.w3.org/TR/2001/REC-SVG-20010904/DTD/svg10.dtd">
<svg version="1.0" xmlns="http://www.w3.org/2000/svg"
 width="164.000000pt" height="179.000000pt" viewBox="0 0 164.000000 179.000000"
 preserveAspectRatio="xMidYMid meet">
<metadata>
Created by potrace 1.16, written by Peter Selinger 2001-2019
</metadata>
<g transform="translate(0.000000,179.000000) scale(0.100000,-0.100000)"
fill="#000000" stroke="none">
<path d="M352 1780 c-56 -12 -142 -51 -187 -86 -48 -37 -111 -134 -134 -208
-54 -177 -38 -301 84 -643 14 -39 36 -144 50 -231 31 -195 62 -309 120 -428
85 -175 180 -227 274 -149 40 35 58 88 76 235 19 149 38 228 72 295 30 62 46
80 84 95 97 41 179 -102 214 -375 21 -170 30 -199 70 -243 30 -34 38 -37 87
-37 67 0 106 26 159 108 74 115 120 262 163 521 15 87 36 184 47 215 66 180
80 226 95 311 46 268 -44 496 -233 585 -91 43 -189 52 -334 30 -174 -27 -293
-30 -408 -10 -121 21 -244 27 -299 15z m293 -57 c105 -21 238 -20 355 2 136
26 270 24 342 -4 166 -64 250 -206 250 -421 0 -125 -18 -211 -77 -370 -30 -79
-53 -168 -75 -285 -35 -191 -48 -248 -84 -353 -50 -147 -127 -246 -190 -246
-70 0 -89 39 -117 242 -39 282 -115 422 -228 422 -111 0 -192 -146 -227 -413
-9 -67 -21 -140 -26 -161 -11 -44 -57 -96 -85 -96 -34 0 -84 40 -122 100 -70
108 -117 264 -160 532 -14 83 -34 163 -60 230 -70 184 -83 236 -88 354 -9 180
29 301 120 386 111 102 244 126 472 81z"/>
</g>
</svg>
