<?xml version="1.0" standalone="no"?>
<!DOCTYPE svg PUBLIC "-//W3C//DTD SVG 20010904//EN"
 "http://www.w3.org/TR/2001/REC-SVG-20010904/DTD/svg10.dtd">
<svg version="1.0" xmlns="http://www.w3.org/2000/svg"
 width="163.000000pt" height="190.000000pt" viewBox="0 0 163.000000 190.000000"
 preserveAspectRatio="xMidYMid meet">
<metadata>
Created by potrace 1.16, written by Peter Selinger 2001-2019
</metadata>
<g transform="translate(0.000000,190.000000) scale(0.100000,-0.100000)"
fill="#000000" stroke="none">
<path d="M445 1889 c-22 -5 -77 -28 -123 -50 -133 -66 -240 -199 -298 -369
-15 -43 -19 -83 -19 -180 1 -107 4 -133 24 -185 77 -194 240 -340 436 -390 76
-19 212 -19 295 1 36 8 98 33 137 54 l73 39 60 -81 60 -82 -22 -23 c-34 -36
-27 -73 27 -149 180 -254 329 -444 360 -458 88 -42 175 1 175 87 0 49 -1 50
-115 187 -39 47 -122 151 -184 233 -114 148 -135 165 -183 154 -19 -5 -33 7
-86 78 l-62 84 50 53 c57 60 110 156 135 242 27 94 23 260 -9 361 -44 138
-129 244 -259 323 -98 60 -158 75 -302 78 -71 2 -148 -1 -170 -7z m270 -39
c91 -15 215 -80 289 -153 112 -111 158 -225 159 -397 1 -160 -48 -281 -159
-393 -275 -276 -730 -200 -908 151 -85 167 -70 372 40 549 122 197 328 284
579 243z m548 -1305 c37 -49 114 -148 170 -218 154 -194 157 -198 157 -228 0
-49 -58 -73 -115 -47 -36 16 -385 486 -385 518 0 25 58 72 84 68 13 -2 47 -38
89 -93z"/>
</g>
</svg>
