<?xml version="1.0" standalone="no"?>
<!DOCTYPE svg PUBLIC "-//W3C//DTD SVG 20010904//EN"
 "http://www.w3.org/TR/2001/REC-SVG-20010904/DTD/svg10.dtd">
<svg version="1.0" xmlns="http://www.w3.org/2000/svg"
 width="108.000000pt" height="261.000000pt" viewBox="0 0 108.000000 261.000000"
 preserveAspectRatio="xMidYMid meet">
<metadata>
Created by potrace 1.16, written by Peter Selinger 2001-2019
</metadata>
<g transform="translate(0.000000,261.000000) scale(0.100000,-0.100000)"
fill="#000000" stroke="none">
<path d="M333 2603 c-10 -3 -13 -72 -13 -294 0 -315 -4 -295 59 -283 l31 7 0
206 0 206 38 -60 c21 -33 74 -118 117 -188 113 -181 112 -179 160 -172 l40 7
0 281 c0 308 1 301 -58 290 l-27 -5 -2 -207 -3 -206 -135 212 c-128 201 -137
213 -165 212 -16 0 -36 -3 -42 -6z"/>
<path d="M521 1751 c-8 -5 -17 -29 -21 -52 -4 -24 -49 -177 -99 -339 -290
-929 -402 -1303 -399 -1327 2 -15 10 -29 19 -31 8 -1 56 32 106 75 334 288
405 348 411 350 4 1 120 -90 257 -202 138 -113 258 -205 268 -205 11 0 17 8
17 23 0 12 -112 385 -249 827 -137 443 -254 824 -260 848 -12 42 -23 50 -50
33z m39 -723 c0 -416 -3 -528 -12 -528 -7 0 -38 -22 -68 -49 -137 -122 -404
-350 -407 -348 -2 3 314 1044 414 1361 45 143 48 148 60 120 9 -22 12 -160 13
-556z"/>
</g>
</svg>
