<?xml version="1.0" standalone="no"?>
<!DOCTYPE svg PUBLIC "-//W3C//DTD SVG 20010904//EN"
 "http://www.w3.org/TR/2001/REC-SVG-20010904/DTD/svg10.dtd">
<svg version="1.0" xmlns="http://www.w3.org/2000/svg"
 width="205.000000pt" height="244.000000pt" viewBox="0 0 205.000000 244.000000"
 preserveAspectRatio="xMidYMid meet">
<metadata>
Created by potrace 1.16, written by Peter Selinger 2001-2019
</metadata>
<g transform="translate(0.000000,244.000000) scale(0.100000,-0.100000)"
fill="#000000" stroke="none">
<path d="M925 2424 c-165 -37 -327 -124 -440 -239 -164 -166 -248 -350 -264
-580 l-7 -103 -108 -224 c-68 -142 -107 -234 -104 -249 3 -23 7 -24 89 -27
125 -4 123 0 129 -221 6 -201 13 -226 86 -290 58 -51 99 -61 252 -61 72 0 138
-3 147 -6 37 -15 45 -56 45 -244 l0 -181 23 3 c22 3 22 5 25 191 4 276 1 279
-239 287 -155 5 -158 5 -200 35 -73 52 -83 84 -89 285 -3 115 -9 183 -18 197
-20 35 -65 53 -132 53 -33 0 -60 2 -60 5 0 3 46 101 102 216 l101 211 9 106
c9 126 36 227 83 324 97 197 251 340 450 418 119 47 169 55 325 54 127 -1 156
-4 235 -28 282 -85 489 -286 588 -571 30 -86 32 -97 32 -250 0 -138 -3 -171
-23 -240 -33 -114 -80 -205 -167 -325 -41 -58 -88 -130 -103 -160 l-27 -55 -3
-378 -3 -379 23 4 23 3 5 365 5 365 26 55 c15 30 59 98 98 150 143 192 203
363 204 585 1 234 -65 410 -223 601 -103 125 -276 234 -450 285 -101 29 -342
36 -445 13z"/>
<path d="M1045 2049 c-209 -35 -365 -217 -365 -427 0 -115 36 -199 152 -352
l63 -84 5 -175 c5 -190 11 -210 60 -236 43 -22 271 -21 310 1 53 32 60 57 60
226 0 176 0 176 93 298 93 122 120 186 125 295 4 77 0 105 -18 159 -67 201
-278 330 -485 295z m186 -69 c214 -67 326 -310 237 -510 -14 -30 -54 -94 -90
-141 -88 -115 -98 -136 -98 -209 l0 -60 -35 0 -35 0 0 165 0 165 41 0 c104 0
142 151 47 191 -63 26 -138 -33 -138 -107 0 -32 -2 -34 -34 -34 -36 0 -38 2
-51 66 -15 74 -106 105 -159 55 -20 -19 -26 -34 -26 -69 0 -60 40 -102 99
-102 l41 0 0 -165 0 -165 -40 0 -40 0 0 60 c0 77 -12 103 -99 220 -39 52 -81
122 -93 155 -62 163 2 349 152 445 98 63 207 76 321 40z m-217 -472 c9 -12 16
-33 16 -45 0 -18 -6 -23 -27 -23 -14 0 -35 7 -45 17 -18 16 -24 53 -11 66 14
15 53 6 67 -15z m284 -9 c4 -34 -21 -59 -59 -59 -24 0 -29 4 -29 23 0 62 81
95 88 36z m-140 -271 l-3 -163 -33 0 -33 0 0 158 c0 86 1 159 1 162 0 3 16 5
35 5 l35 0 -2 -162z m122 -293 c0 -67 -3 -79 -25 -100 -23 -24 -30 -25 -140
-25 -110 0 -117 1 -140 25 -22 21 -25 33 -25 100 l0 75 165 0 165 0 0 -75z"/>
</g>
</svg>
