<?xml version="1.0" standalone="no"?>
<!DOCTYPE svg PUBLIC "-//W3C//DTD SVG 20010904//EN"
 "http://www.w3.org/TR/2001/REC-SVG-20010904/DTD/svg10.dtd">
<svg version="1.0" xmlns="http://www.w3.org/2000/svg"
 width="150.000000pt" height="159.000000pt" viewBox="0 0 150.000000 159.000000"
 preserveAspectRatio="xMidYMid meet">
<metadata>
Created by potrace 1.16, written by Peter Selinger 2001-2019
</metadata>
<g transform="translate(0.000000,159.000000) scale(0.100000,-0.100000)"
fill="#000000" stroke="none">
<path d="M317 1583 c-4 -3 -7 -35 -7 -70 l0 -63 -100 0 c-118 0 -160 -14 -190
-62 -20 -32 -20 -45 -18 -670 l3 -636 25 -27 c51 -56 37 -55 720 -55 690 0
672 -2 723 59 l27 33 0 631 c0 680 1 661 -53 701 -24 18 -46 22 -142 24 l-114
4 -3 66 c-3 65 -4 67 -31 70 l-27 3 0 -70 0 -71 -380 0 -380 0 0 70 c0 67 -1
70 -23 70 -13 0 -27 -3 -30 -7z m-5 -270 c3 -65 4 -68 28 -68 24 0 25 3 28 68
l3 67 379 0 379 0 3 -67 c3 -65 4 -68 28 -68 24 0 25 3 28 68 l3 67 104 0
c100 0 104 -1 124 -26 18 -23 21 -41 21 -115 l0 -89 -690 0 -690 0 0 90 c0 83
2 93 25 115 22 23 31 25 124 25 l100 0 3 -67z m1128 -708 l0 -486 -25 -24 -24
-25 -641 0 -641 0 -24 25 -25 24 0 486 0 485 690 0 690 0 0 -485z"/>
<path d="M1082 680 c0 -14 2 -19 5 -12 2 6 2 18 0 25 -3 6 -5 1 -5 -13z"/>
</g>
</svg>
