<?xml version="1.0" standalone="no"?>
<!DOCTYPE svg PUBLIC "-//W3C//DTD SVG 20010904//EN"
 "http://www.w3.org/TR/2001/REC-SVG-20010904/DTD/svg10.dtd">
<svg version="1.0" xmlns="http://www.w3.org/2000/svg"
 width="143.000000pt" height="161.000000pt" viewBox="0 0 143.000000 161.000000"
 preserveAspectRatio="xMidYMid meet">
<metadata>
Created by potrace 1.16, written by Peter Selinger 2001-2019
</metadata>
<g transform="translate(0.000000,161.000000) scale(0.100000,-0.100000)"
fill="#000000" stroke="none">
<path d="M365 1430 c-186 -98 -345 -187 -352 -196 -10 -14 -13 -109 -13 -430
l0 -412 313 -173 c171 -95 329 -183 351 -197 27 -16 47 -22 66 -18 22 4 363
191 640 350 l55 32 3 425 2 425 -217 114 c-120 62 -281 147 -357 187 -77 40
-142 73 -145 72 -4 0 -159 -81 -346 -179z m590 5 c132 -69 277 -144 323 -168
45 -23 82 -44 82 -47 0 -3 -30 -22 -67 -42 -38 -20 -182 -97 -321 -172 -139
-75 -257 -136 -261 -136 -5 0 -44 19 -87 43 -44 24 -188 101 -321 172 -133 71
-240 132 -237 135 7 6 637 339 644 339 3 0 113 -56 245 -124z m435 -638 l0
-382 -157 -87 c-87 -48 -233 -130 -326 -182 l-167 -95 2 392 3 391 320 173
c176 95 321 173 323 173 1 0 2 -172 2 -383z m-1020 203 l315 -169 3 -386 2
-386 -22 14 c-13 8 -159 90 -325 181 l-303 167 0 375 c0 206 3 374 8 374 4 -1
149 -77 322 -170z"/>
</g>
</svg>
