<?xml version="1.0" standalone="no"?>
<!DOCTYPE svg PUBLIC "-//W3C//DTD SVG 20010904//EN"
 "http://www.w3.org/TR/2001/REC-SVG-20010904/DTD/svg10.dtd">
<svg version="1.0" xmlns="http://www.w3.org/2000/svg"
 width="204.000000pt" height="166.000000pt" viewBox="0 0 204.000000 166.000000"
 preserveAspectRatio="xMidYMid meet">
<metadata>
Created by potrace 1.16, written by Peter Selinger 2001-2019
</metadata>
<g transform="translate(0.000000,166.000000) scale(0.100000,-0.100000)"
fill="#000000" stroke="none">
<path d="M543 1238 c-106 -233 -264 -583 -353 -778 -89 -195 -167 -368 -175
-385 -15 -33 -12 -45 14 -45 13 0 30 26 60 93 315 684 682 1502 679 1515 -2 9
-10 18 -18 19 -11 2 -69 -115 -207 -419z"/>
<path d="M1261 1641 c-11 -7 -11 -15 -3 -37 12 -33 371 -811 695 -1506 44 -93
69 -120 82 -85 3 6 -45 120 -106 252 -61 132 -164 355 -229 495 -182 393 -410
874 -418 882 -4 4 -13 3 -21 -1z"/>
<path d="M985 1508 c-3 -8 -4 -79 -3 -158 3 -137 4 -145 23 -145 19 0 20 7 20
155 0 140 -2 155 -18 158 -9 2 -19 -3 -22 -10z"/>
<path d="M987 983 c-4 -3 -7 -70 -7 -148 0 -113 3 -145 15 -155 8 -6 19 -9 25
-5 11 7 15 271 4 299 -6 16 -26 21 -37 9z"/>
<path d="M990 376 c-7 -9 -10 -64 -8 -157 3 -136 4 -144 23 -144 19 0 20 8 23
151 2 125 0 153 -12 157 -8 3 -19 0 -26 -7z"/>
</g>
</svg>
