<?xml version="1.0" standalone="no"?>
<!DOCTYPE svg PUBLIC "-//W3C//DTD SVG 20010904//EN"
 "http://www.w3.org/TR/2001/REC-SVG-20010904/DTD/svg10.dtd">
<svg version="1.0" xmlns="http://www.w3.org/2000/svg"
 width="202.000000pt" height="149.000000pt" viewBox="0 0 202.000000 149.000000"
 preserveAspectRatio="xMidYMid meet">
<metadata>
Created by potrace 1.16, written by Peter Selinger 2001-2019
</metadata>
<g transform="translate(0.000000,149.000000) scale(0.100000,-0.100000)"
fill="#000000" stroke="none">
<path d="M170 1475 c-41 -8 -95 -21 -120 -28 l-45 -14 -3 -644 c-1 -358 2
-647 7 -652 5 -5 38 0 77 12 96 29 234 51 315 51 176 0 379 -56 526 -146 85
-52 88 -53 113 -37 119 78 213 119 359 156 70 17 114 21 236 20 130 0 162 -4
245 -27 52 -15 104 -28 115 -29 20 -2 20 4 20 648 l0 649 -90 24 c-123 33
-335 41 -456 18 -156 -29 -294 -86 -408 -166 l-53 -38 -67 45 c-90 63 -195
110 -310 140 -122 32 -344 41 -461 18z m407 -49 c135 -29 293 -101 381 -174
l32 -27 -2 -577 -3 -577 -50 31 c-74 46 -207 96 -320 119 -128 27 -344 22
-473 -10 -46 -12 -85 -21 -88 -21 -2 0 -4 272 -4 605 l0 604 43 12 c152 41
335 47 484 15z m1239 9 c49 -9 106 -21 127 -27 l37 -11 0 -604 c0 -331 -4
-603 -8 -603 -5 0 -44 10 -88 22 -67 18 -105 22 -254 22 -239 0 -313 -21 -593
-162 -4 -2 -6 259 -5 579 l3 583 50 39 c182 140 479 205 731 162z"/>
</g>
</svg>
