<?xml version="1.0" standalone="no"?>
<!DOCTYPE svg PUBLIC "-//W3C//DTD SVG 20010904//EN"
 "http://www.w3.org/TR/2001/REC-SVG-20010904/DTD/svg10.dtd">
<svg version="1.0" xmlns="http://www.w3.org/2000/svg"
 width="160.000000pt" height="159.000000pt" viewBox="0 0 160.000000 159.000000"
 preserveAspectRatio="xMidYMid meet">
<metadata>
Created by potrace 1.16, written by Peter Selinger 2001-2019
</metadata>
<g transform="translate(0.000000,159.000000) scale(0.100000,-0.100000)"
fill="#000000" stroke="none">
<path d="M233 1576 c-141 -46 -233 -174 -233 -326 0 -349 465 -465 636 -158
27 49 29 61 29 158 0 90 -3 112 -23 152 -32 66 -94 125 -160 156 -68 31 -184
39 -249 18z m210 -42 c63 -21 130 -83 164 -152 37 -75 39 -183 6 -252 -51
-104 -137 -166 -246 -177 -154 -16 -284 76 -323 228 -60 232 166 432 399 353z"/>
<path d="M1165 1577 c-63 -21 -97 -42 -142 -89 -64 -66 -93 -137 -93 -230 0
-106 27 -177 94 -244 129 -128 338 -132 474 -9 92 83 129 245 82 367 -28 74
-96 150 -167 184 -66 33 -183 42 -248 21z m246 -64 c173 -97 205 -336 64 -478
-59 -58 -115 -80 -210 -80 -94 1 -156 26 -216 87 -131 135 -108 357 46 459 62
41 94 49 181 46 68 -3 89 -8 135 -34z"/>
<path d="M218 655 c-100 -37 -185 -130 -209 -228 -16 -65 -7 -181 19 -239 26
-60 93 -127 157 -158 72 -35 199 -40 276 -11 72 27 136 84 174 152 28 50 30
61 30 159 0 90 -3 112 -23 152 -32 65 -94 125 -160 156 -69 32 -202 41 -264
17z m262 -57 c103 -60 155 -149 154 -263 0 -171 -129 -299 -299 -299 -172 1
-299 128 -299 299 0 120 62 220 169 272 44 21 61 24 140 21 77 -3 98 -8 135
-30z"/>
<path d="M1170 661 c-90 -28 -171 -96 -211 -177 -35 -72 -39 -197 -8 -279 48
-127 167 -205 314 -205 100 0 170 27 236 91 75 73 94 122 94 244 0 89 -3 106
-27 150 -36 70 -112 137 -181 164 -59 22 -165 27 -217 12z m203 -47 c152 -52
235 -248 168 -400 -83 -190 -335 -240 -484 -96 -64 61 -91 124 -91 212 -1 109
39 189 128 253 67 48 189 62 279 31z"/>
</g>
</svg>
