<?xml version="1.0" standalone="no"?>
<!DOCTYPE svg PUBLIC "-//W3C//DTD SVG 20010904//EN"
 "http://www.w3.org/TR/2001/REC-SVG-20010904/DTD/svg10.dtd">
<svg version="1.0" xmlns="http://www.w3.org/2000/svg"
 width="146.000000pt" height="226.000000pt" viewBox="0 0 146.000000 226.000000"
 preserveAspectRatio="xMidYMid meet">
<metadata>
Created by potrace 1.16, written by Peter Selinger 2001-2019
</metadata>
<g transform="translate(0.000000,226.000000) scale(0.100000,-0.100000)"
fill="#000000" stroke="none">
<path d="M685 2241 c-47 -28 -242 -236 -327 -347 -181 -237 -314 -508 -349
-711 -16 -89 -7 -225 19 -296 78 -218 277 -339 596 -363 l86 -7 0 -233 0 -234
-199 0 c-163 0 -200 -3 -204 -14 -13 -34 15 -36 429 -34 401 3 409 3 409 23 0
19 -8 20 -197 23 l-198 2 0 233 0 233 113 12 c144 14 212 32 316 83 272 133
349 414 214 779 -100 272 -353 630 -582 824 -60 51 -81 55 -126 27z m107 -65
c65 -53 182 -182 270 -296 293 -381 415 -750 327 -985 -73 -194 -258 -304
-561 -331 l-78 -7 0 189 0 189 131 131 c120 121 143 154 105 154 -7 0 -61 -49
-121 -110 -59 -60 -109 -110 -111 -110 -2 0 -5 141 -6 313 -3 269 -5 312 -18
312 -13 0 -15 -34 -18 -234 l-2 -235 -120 118 c-107 107 -140 128 -140 93 0
-7 58 -71 130 -142 l130 -130 0 -267 0 -268 -37 0 c-63 0 -228 28 -290 49
-176 59 -293 183 -333 350 -50 209 81 560 335 900 80 107 320 361 342 361 6 0
35 -20 65 -44z"/>
</g>
</svg>
