<?xml version="1.0" standalone="no"?>
<!DOCTYPE svg PUBLIC "-//W3C//DTD SVG 20010904//EN"
 "http://www.w3.org/TR/2001/REC-SVG-20010904/DTD/svg10.dtd">
<svg version="1.0" xmlns="http://www.w3.org/2000/svg"
 width="186.000000pt" height="180.000000pt" viewBox="0 0 186.000000 180.000000"
 preserveAspectRatio="xMidYMid meet">
<metadata>
Created by potrace 1.16, written by Peter Selinger 2001-2019
</metadata>
<g transform="translate(0.000000,180.000000) scale(0.100000,-0.100000)"
fill="#000000" stroke="none">
<path d="M900 1785 c-7 -8 -64 -131 -127 -272 -111 -250 -130 -286 -164 -303
-8 -5 -143 -21 -300 -35 -156 -15 -290 -32 -296 -37 -7 -6 -13 -23 -13 -38 0
-22 36 -60 215 -224 173 -159 217 -204 225 -234 10 -32 3 -72 -54 -317 -60
-256 -64 -281 -50 -302 8 -13 24 -23 36 -23 12 0 121 58 242 129 275 159 278
161 318 161 39 0 23 8 308 -159 123 -72 235 -131 247 -131 12 0 29 10 37 23
14 20 10 45 -44 282 -33 143 -60 282 -60 310 0 57 -6 50 285 319 77 71 144
136 148 143 14 23 -1 62 -26 68 -12 3 -141 16 -287 30 -146 14 -272 28 -281
31 -34 10 -61 57 -169 299 -61 138 -118 260 -126 273 -17 25 -46 29 -64 7z
m149 -291 c63 -140 123 -266 133 -280 38 -47 68 -54 351 -80 150 -14 275 -29
278 -32 3 -4 -87 -94 -202 -200 -173 -160 -210 -200 -225 -238 l-18 -46 64
-284 c35 -156 61 -286 58 -289 -3 -3 -114 58 -248 136 -133 77 -256 145 -272
150 -17 4 -47 5 -68 0 -20 -4 -144 -71 -275 -147 -131 -76 -242 -141 -247
-142 -15 -6 -8 29 52 289 33 142 60 270 60 284 0 14 -6 40 -13 58 -12 27 -188
197 -394 381 -24 21 -43 41 -43 45 0 4 116 18 258 30 141 13 275 28 296 33 69
17 94 54 216 330 63 142 117 258 120 258 3 0 56 -115 119 -256z"/>
</g>
</svg>
