<?xml version="1.0" standalone="no"?>
<!DOCTYPE svg PUBLIC "-//W3C//DTD SVG 20010904//EN"
 "http://www.w3.org/TR/2001/REC-SVG-20010904/DTD/svg10.dtd">
<svg version="1.0" xmlns="http://www.w3.org/2000/svg"
 width="111.000000pt" height="198.000000pt" viewBox="0 0 111.000000 198.000000"
 preserveAspectRatio="xMidYMid meet">
<metadata>
Created by potrace 1.16, written by Peter Selinger 2001-2019
</metadata>
<g transform="translate(0.000000,198.000000) scale(0.100000,-0.100000)"
fill="#000000" stroke="none">
<path d="M430 1966 c-199 -56 -340 -241 -340 -446 0 -163 101 -324 247 -395
l60 -29 -86 -42 c-192 -94 -311 -284 -311 -496 0 -162 51 -289 158 -397 113
-113 232 -161 399 -161 257 0 473 165 538 411 19 71 19 210 0 283 -39 149
-147 286 -277 350 -40 19 -82 38 -92 41 -15 4 -6 12 40 34 177 83 288 289 255
472 -32 186 -179 340 -359 378 -68 14 -174 13 -232 -3z m196 -57 c135 -25 246
-108 303 -229 22 -47 26 -69 26 -155 0 -91 -3 -106 -29 -160 -39 -79 -110
-149 -194 -188 -63 -30 -74 -32 -177 -32 -99 0 -116 3 -168 27 -75 35 -156
113 -193 185 -27 54 -29 66 -29 168 0 102 2 114 29 164 61 116 177 204 291
221 74 11 76 11 141 -1z m37 -874 c219 -46 387 -253 387 -477 0 -223 -135
-407 -347 -475 -323 -102 -643 135 -643 475 0 222 167 430 383 477 82 18 137
18 220 0z"/>
</g>
</svg>
