<?xml version="1.0" standalone="no"?>
<!DOCTYPE svg PUBLIC "-//W3C//DTD SVG 20010904//EN"
 "http://www.w3.org/TR/2001/REC-SVG-20010904/DTD/svg10.dtd">
<svg version="1.0" xmlns="http://www.w3.org/2000/svg"
 width="195.000000pt" height="165.000000pt" viewBox="0 0 195.000000 165.000000"
 preserveAspectRatio="xMidYMid meet">
<metadata>
Created by potrace 1.16, written by Peter Selinger 2001-2019
</metadata>
<g transform="translate(0.000000,165.000000) scale(0.100000,-0.100000)"
fill="#000000" stroke="none">
<path d="M286 1634 c-14 -14 -16 -100 -16 -800 l0 -784 -124 0 c-96 0 -126 -3
-136 -15 -6 -8 -9 -19 -5 -25 4 -7 159 -10 471 -10 l464 0 -2 218 c-3 209 -4
217 -23 217 -19 0 -20 -8 -23 -192 l-2 -193 -285 0 -285 0 0 770 0 770 660 0
660 0 2 -792 3 -793 144 -3 c148 -3 176 3 151 33 -10 12 -36 15 -126 15 l-114
0 0 790 c0 770 0 790 -19 800 -13 6 -250 10 -700 10 -604 0 -681 -2 -695 -16z"/>
<path d="M883 1104 c-6 -15 6 -30 127 -156 l54 -58 -232 0 c-202 0 -233 -2
-239 -16 -3 -8 -1 -20 4 -25 6 -6 104 -10 237 -11 l228 -1 -97 -97 c-68 -69
-96 -103 -92 -114 4 -9 14 -16 24 -16 24 0 253 230 253 254 0 22 -227 256
-247 256 -8 0 -16 -7 -20 -16z"/>
</g>
</svg>
