<?xml version="1.0" standalone="no"?>
<!DOCTYPE svg PUBLIC "-//W3C//DTD SVG 20010904//EN"
 "http://www.w3.org/TR/2001/REC-SVG-20010904/DTD/svg10.dtd">
<svg version="1.0" xmlns="http://www.w3.org/2000/svg"
 width="213.000000pt" height="170.000000pt" viewBox="0 0 213.000000 170.000000"
 preserveAspectRatio="xMidYMid meet">
<metadata>
Created by potrace 1.16, written by Peter Selinger 2001-2019
</metadata>
<g transform="translate(0.000000,170.000000) scale(0.100000,-0.100000)"
fill="#000000" stroke="none">
<path d="M111 1674 c-34 -17 -62 -41 -79 -67 l-27 -41 -3 -372 c-3 -353 -2
-375 17 -411 37 -74 102 -113 184 -113 l54 0 0 -32 c-1 -18 0 -75 1 -125 l2
-93 28 0 c22 0 52 25 152 125 l125 125 62 0 63 0 0 -140 c0 -96 4 -151 14
-173 17 -43 76 -93 123 -106 23 -7 181 -11 408 -11 l370 0 120 -120 c156 -157
159 -157 163 3 l3 117 37 0 c48 0 132 41 158 77 42 57 44 82 44 447 0 318 -2
355 -19 391 -23 51 -79 101 -128 114 -22 6 -147 11 -295 11 l-258 0 0 135 c0
146 -10 184 -62 232 -57 53 -54 53 -651 53 l-553 0 -53 -26z m1206 -40 c15
-11 38 -36 51 -54 20 -30 22 -44 22 -166 l0 -134 -257 0 c-274 0 -316 -5 -371
-47 -66 -49 -72 -77 -72 -313 l0 -210 -73 0 -72 0 -120 -120 c-66 -66 -122
-120 -125 -120 -3 0 -5 53 -5 117 l0 118 -77 5 c-86 7 -116 22 -156 80 -22 33
-22 36 -22 387 0 330 1 356 19 392 48 92 35 91 678 88 542 -2 552 -2 580 -23z
m635 -403 c49 -1 113 -57 128 -109 6 -22 10 -176 10 -371 0 -318 -1 -337 -21
-377 -27 -57 -70 -82 -155 -91 l-69 -8 1 -108 c1 -59 1 -107 -1 -107 -1 0 -51
49 -110 110 l-109 110 -370 0 c-388 0 -432 4 -474 43 -52 47 -52 50 -52 439 0
342 1 365 20 395 26 43 64 66 119 73 36 4 896 5 1083 1z"/>
</g>
</svg>
