<?xml version="1.0" standalone="no"?>
<!DOCTYPE svg PUBLIC "-//W3C//DTD SVG 20010904//EN"
 "http://www.w3.org/TR/2001/REC-SVG-20010904/DTD/svg10.dtd">
<svg version="1.0" xmlns="http://www.w3.org/2000/svg"
 width="167.000000pt" height="170.000000pt" viewBox="0 0 167.000000 170.000000"
 preserveAspectRatio="xMidYMid meet">
<metadata>
Created by potrace 1.16, written by Peter Selinger 2001-2019
</metadata>
<g transform="translate(0.000000,170.000000) scale(0.100000,-0.100000)"
fill="#000000" stroke="none">
<path d="M158 1567 l-157 -132 0 -182 c-1 -142 2 -183 12 -183 7 0 71 47 142
105 l130 105 3 -640 2 -640 144 0 c109 0 146 3 155 14 8 10 10 239 9 847 l-3
834 -140 2 -140 2 -157 -132z m402 -717 l0 -810 -115 0 -115 0 0 660 c0 521
-3 660 -12 660 -7 0 -39 -23 -72 -51 -32 -27 -92 -77 -132 -110 l-74 -60 0
133 0 133 151 128 151 127 109 0 109 0 0 -810z"/>
<path d="M694 1687 c-2 -7 -3 -76 -2 -152 l3 -140 303 -3 c166 -1 302 -6 302
-10 0 -4 -101 -310 -225 -681 -124 -371 -225 -681 -225 -688 0 -11 34 -13 176
-11 l175 3 85 265 c47 146 153 468 235 716 l149 450 0 132 0 132 -485 0 c-389
0 -487 -3 -491 -13z m936 -128 l0 -101 -199 -602 c-109 -330 -213 -649 -231
-708 l-33 -108 -129 0 c-96 0 -128 3 -128 13 0 7 101 315 225 686 123 371 222
678 219 682 -3 5 -142 9 -310 9 l-304 0 0 115 0 115 445 0 445 0 0 -101z"/>
</g>
</svg>
