<?xml version="1.0" standalone="no"?>
<!DOCTYPE svg PUBLIC "-//W3C//DTD SVG 20010904//EN"
 "http://www.w3.org/TR/2001/REC-SVG-20010904/DTD/svg10.dtd">
<svg version="1.0" xmlns="http://www.w3.org/2000/svg"
 width="242.000000pt" height="283.000000pt" viewBox="0 0 242.000000 283.000000"
 preserveAspectRatio="xMidYMid meet">
<metadata>
Created by potrace 1.16, written by Peter Selinger 2001-2019
</metadata>
<g transform="translate(0.000000,283.000000) scale(0.100000,-0.100000)"
fill="#000000" stroke="none">
<path d="M723 2821 c-283 -45 -498 -241 -563 -513 -40 -167 -20 -343 57 -498
54 -109 188 -242 300 -297 115 -58 209 -77 342 -71 186 9 328 73 462 208 130
132 192 289 192 485 0 266 -124 478 -358 610 -112 63 -301 96 -432 76z m270
-67 c189 -49 358 -197 427 -376 143 -368 -52 -763 -430 -867 -145 -41 -327
-20 -463 51 -87 46 -222 183 -265 268 -96 194 -96 432 1 615 39 72 139 181
212 230 144 95 340 125 518 79z"/>
<path d="M2415 2300 c0 -294 1 -415 2 -267 2 147 2 387 0 535 -1 147 -2 26 -2
-268z"/>
<path d="M2 360 c0 -14 2 -19 5 -12 2 6 2 18 0 25 -3 6 -5 1 -5 -13z"/>
<path d="M1 14 c0 -11 3 -14 6 -6 3 7 2 16 -1 19 -3 4 -6 -2 -5 -13z"/>
</g>
</svg>
