<?xml version="1.0" standalone="no"?>
<!DOCTYPE svg PUBLIC "-//W3C//DTD SVG 20010904//EN"
 "http://www.w3.org/TR/2001/REC-SVG-20010904/DTD/svg10.dtd">
<svg version="1.0" xmlns="http://www.w3.org/2000/svg"
 width="210.000000pt" height="197.000000pt" viewBox="0 0 210.000000 197.000000"
 preserveAspectRatio="xMidYMid meet">
<metadata>
Created by potrace 1.16, written by Peter Selinger 2001-2019
</metadata>
<g transform="translate(0.000000,197.000000) scale(0.100000,-0.100000)"
fill="#000000" stroke="none">
<path d="M12 1958 c-16 -16 -17 -1119 -2 -1149 10 -19 33 -19 1035 -19 917 0
1025 2 1039 16 14 14 16 80 16 578 0 424 -3 565 -12 574 -17 17 -2059 17
-2076 0z m2046 -575 l2 -553 -1010 0 -1010 0 0 548 c0 302 3 551 6 555 4 3
457 5 1008 4 l1001 -2 3 -552z"/>
<path d="M358 606 c-98 -36 -141 -95 -146 -201 -5 -83 15 -134 69 -179 17 -15
30 -28 28 -30 -2 -2 -24 -14 -49 -26 -81 -41 -187 -170 -139 -170 6 0 37 27
69 60 81 84 140 110 245 106 102 -3 158 -29 237 -108 32 -32 65 -58 73 -58 9
0 38 24 65 53 72 79 137 110 235 114 71 2 86 0 141 -27 37 -18 81 -51 113 -85
60 -64 88 -70 114 -26 21 35 63 72 125 108 38 23 60 28 130 30 73 2 91 -1 140
-24 32 -15 80 -51 114 -85 37 -38 64 -58 73 -54 8 3 15 10 15 15 0 21 -117
128 -167 153 l-52 25 29 21 c40 30 80 116 80 173 0 113 -83 206 -199 225 -133
21 -262 -106 -248 -244 6 -61 43 -131 83 -157 l26 -17 -52 -30 c-29 -16 -72
-50 -97 -75 l-45 -45 -52 50 c-28 28 -72 61 -97 75 l-45 24 37 37 c140 138 41
381 -156 380 -137 0 -240 -116 -222 -249 8 -57 26 -91 70 -135 l35 -35 -41
-20 c-23 -11 -67 -45 -98 -75 l-55 -55 -51 51 c-28 28 -75 63 -103 77 l-51 26
26 17 c61 40 99 157 76 239 -31 115 -175 192 -283 151z m169 -62 c69 -51 98
-140 68 -210 -57 -138 -215 -165 -308 -54 -67 78 -37 227 54 274 47 23 148 18
186 -10z m631 -3 c66 -46 95 -158 59 -227 -58 -111 -193 -138 -281 -56 -31 30
-65 95 -66 127 0 67 43 139 102 169 48 24 144 18 186 -13z m595 15 c68 -28
116 -120 102 -195 -21 -114 -143 -181 -248 -137 -43 18 -94 77 -107 125 -19
73 17 161 84 202 37 23 121 25 169 5z"/>
</g>
</svg>
