<?xml version="1.0" standalone="no"?>
<!DOCTYPE svg PUBLIC "-//W3C//DTD SVG 20010904//EN"
 "http://www.w3.org/TR/2001/REC-SVG-20010904/DTD/svg10.dtd">
<svg version="1.0" xmlns="http://www.w3.org/2000/svg"
 width="151.000000pt" height="217.000000pt" viewBox="0 0 151.000000 217.000000"
 preserveAspectRatio="xMidYMid meet">
<metadata>
Created by potrace 1.16, written by Peter Selinger 2001-2019
</metadata>
<g transform="translate(0.000000,217.000000) scale(0.100000,-0.100000)"
fill="#000000" stroke="none">
<path d="M785 2156 c-17 -7 -43 -28 -58 -45 -23 -27 -27 -42 -27 -92 l0 -60
-30 23 c-42 31 -116 30 -163 -2 -69 -48 -67 -30 -67 -521 0 -244 -4 -439 -8
-434 -5 6 -15 26 -22 45 -46 120 -147 251 -205 266 -73 18 -155 -21 -186 -90
-35 -77 -28 -101 121 -421 211 -455 212 -459 316 -561 l93 -92 7 -87 c5 -66
10 -85 21 -83 8 2 14 6 14 11 -1 4 -1 44 -1 88 l0 82 -90 89 c-50 49 -102 110
-116 134 -31 53 -275 571 -315 669 -32 80 -35 114 -14 155 36 70 112 90 175
47 43 -29 125 -166 174 -292 22 -55 44 -105 50 -112 6 -7 49 -17 95 -22 93
-12 145 -37 217 -103 61 -56 104 -129 130 -217 13 -47 27 -76 35 -76 19 0 13
63 -12 131 -62 166 -228 304 -365 304 -18 0 -44 4 -59 10 l-26 10 3 489 c3
479 3 490 24 518 11 15 39 34 61 42 51 18 96 2 124 -43 18 -29 19 -57 19 -413
0 -377 0 -383 20 -383 20 0 20 5 20 470 -1 315 3 476 10 490 13 25 61 50 95
50 39 0 83 -27 102 -63 16 -29 18 -70 18 -477 0 -416 1 -445 18 -448 16 -3 17
20 17 373 0 415 2 430 61 460 36 19 63 19 99 0 54 -28 55 -29 60 -455 4 -342
7 -395 20 -395 13 0 16 40 20 277 l5 278 28 27 c22 22 37 28 71 28 53 0 91
-30 107 -84 7 -24 9 -210 7 -561 -5 -583 -2 -554 -77 -732 -47 -111 -63 -189
-59 -283 2 -57 6 -70 21 -73 15 -3 17 6 17 77 0 104 14 166 62 275 68 156 68
149 68 765 0 550 0 554 -22 589 -42 68 -141 89 -201 42 l-25 -20 -4 99 c-3
107 -13 132 -72 175 -39 30 -114 29 -155 -2 l-31 -23 0 39 c0 43 -29 93 -71
125 -34 25 -105 31 -144 13z"/>
<path d="M721 1006 c-18 -21 -11 -23 119 -30 111 -6 260 -39 364 -81 60 -24
76 -25 76 0 0 16 -145 70 -260 96 -47 10 -130 22 -185 25 -86 6 -102 4 -114
-10z"/>
</g>
</svg>
