<?xml version="1.0" standalone="no"?>
<!DOCTYPE svg PUBLIC "-//W3C//DTD SVG 20010904//EN"
 "http://www.w3.org/TR/2001/REC-SVG-20010904/DTD/svg10.dtd">
<svg version="1.0" xmlns="http://www.w3.org/2000/svg"
 width="161.000000pt" height="115.000000pt" viewBox="0 0 161.000000 115.000000"
 preserveAspectRatio="xMidYMid meet">
<metadata>
Created by potrace 1.16, written by Peter Selinger 2001-2019
</metadata>
<g transform="translate(0.000000,115.000000) scale(0.100000,-0.100000)"
fill="#000000" stroke="none">
<path d="M1175 1141 c-124 -32 -204 -128 -252 -301 -26 -94 -26 -445 0 -540
37 -138 104 -231 195 -273 66 -31 207 -31 272 -1 92 43 157 133 196 274 27 94
27 455 1 549 -54 191 -156 288 -311 296 -39 3 -84 1 -101 -4z m167 -53 c58
-17 123 -80 157 -152 79 -165 82 -548 5 -716 -52 -115 -133 -169 -250 -170
-159 0 -254 103 -291 318 -20 112 -13 378 12 467 35 127 106 222 186 251 44
16 131 17 181 2z"/>
<path d="M362 903 c-280 -419 -363 -553 -360 -576 3 -22 5 -22 266 -25 l262
-2 0 -145 0 -145 25 0 25 0 0 145 0 145 100 0 100 0 0 25 0 25 -100 0 -100 0
0 395 0 395 -30 0 c-28 0 -40 -16 -188 -237z m168 -198 l0 -355 -235 0 c-129
0 -235 2 -235 4 0 5 7 16 269 414 107 160 195 292 197 292 2 0 4 -160 4 -355z"/>
</g>
</svg>
