<?xml version="1.0" standalone="no"?>
<!DOCTYPE svg PUBLIC "-//W3C//DTD SVG 20010904//EN"
 "http://www.w3.org/TR/2001/REC-SVG-20010904/DTD/svg10.dtd">
<svg version="1.0" xmlns="http://www.w3.org/2000/svg"
 width="243.000000pt" height="210.000000pt" viewBox="0 0 243.000000 210.000000"
 preserveAspectRatio="xMidYMid meet">
<metadata>
Created by potrace 1.16, written by Peter Selinger 2001-2019
</metadata>
<g transform="translate(0.000000,210.000000) scale(0.100000,-0.100000)"
fill="#000000" stroke="none">
<path d="M830 2085 c-375 -95 -577 -496 -430 -849 55 -131 167 -253 291 -317
l44 -23 -45 -9 c-91 -16 -240 -70 -315 -112 -191 -109 -295 -228 -346 -395
-20 -64 -24 -97 -24 -225 0 -138 1 -150 19 -153 10 -2 23 1 28 6 6 6 12 70 14
144 5 150 21 225 65 307 86 163 275 295 514 357 90 24 119 27 305 29 239 2
348 -14 495 -72 50 -19 92 -37 94 -39 2 -2 -8 -27 -23 -54 -27 -50 -36 -113
-22 -157 4 -14 -14 -38 -69 -93 -66 -65 -75 -79 -75 -111 0 -45 36 -82 81 -82
26 0 45 13 109 79 l78 79 55 0 c53 0 59 3 102 45 51 50 47 53 94 -40 38 -75
53 -144 60 -280 6 -114 6 -115 31 -115 25 0 25 0 28 110 4 158 -28 288 -97
391 l-21 30 261 280 c144 153 270 293 280 309 62 99 -38 265 -160 265 -73 0
-103 -24 -344 -278 -128 -136 -249 -265 -269 -286 l-35 -39 -84 35 c-76 33
-185 63 -249 70 -23 3 -21 6 22 31 69 40 160 128 212 205 192 280 112 677
-174 867 -106 70 -192 97 -330 101 -77 2 -133 -1 -170 -11z m318 -80 c386
-122 518 -597 252 -907 -55 -63 -176 -143 -258 -169 -244 -77 -530 50 -657
293 -114 216 -74 469 101 645 76 78 176 135 265 152 92 18 213 13 297 -14z
m1190 -735 c13 -20 22 -48 22 -72 0 -36 -12 -51 -202 -256 -484 -520 -458
-495 -502 -489 -21 3 -42 9 -46 14 -5 4 124 147 287 316 286 299 294 309 277
328 -9 10 -22 19 -29 19 -7 0 -72 -64 -146 -142 -197 -209 -432 -453 -441
-456 -11 -5 -10 61 1 91 14 35 64 91 363 404 200 211 277 285 301 291 43 12
86 -6 115 -48z m-828 -900 c-72 -83 -78 -87 -98 -66 -16 16 -13 21 51 83 56
54 70 63 82 53 13 -11 8 -21 -35 -70z"/>
<path d="M917 1206 c-42 -16 -87 -52 -87 -72 0 -6 6 -17 14 -23 12 -10 25 -7
63 13 64 34 122 34 180 0 36 -21 47 -23 59 -13 68 56 -122 135 -229 95z"/>
</g>
</svg>
