<?xml version="1.0" standalone="no"?>
<!DOCTYPE svg PUBLIC "-//W3C//DTD SVG 20010904//EN"
 "http://www.w3.org/TR/2001/REC-SVG-20010904/DTD/svg10.dtd">
<svg version="1.0" xmlns="http://www.w3.org/2000/svg"
 width="223.000000pt" height="208.000000pt" viewBox="0 0 223.000000 208.000000"
 preserveAspectRatio="xMidYMid meet">
<metadata>
Created by potrace 1.16, written by Peter Selinger 2001-2019
</metadata>
<g transform="translate(0.000000,208.000000) scale(0.100000,-0.100000)"
fill="#000000" stroke="none">
<path d="M1710 2071 c-50 -16 -87 -41 -124 -81 -51 -56 -66 -97 -66 -175 0
-113 46 -187 146 -236 55 -27 71 -31 126 -27 150 10 247 113 248 261 0 103
-53 192 -145 239 -43 22 -144 33 -185 19z m155 -50 c115 -52 167 -182 120
-299 -20 -49 -82 -106 -133 -123 -93 -31 -204 9 -259 93 -25 37 -28 51 -28
124 0 75 3 86 30 125 61 86 180 121 270 80z"/>
<path d="M1009 1610 c-48 -14 -78 -41 -182 -168 -122 -149 -127 -158 -127
-212 0 -71 51 -120 124 -120 45 0 76 27 175 149 l78 96 87 -3 87 -3 -34 -47
c-225 -313 -227 -317 -227 -383 0 -56 31 -111 89 -156 28 -21 50 -40 50 -43 1
-13 -167 -226 -192 -244 -27 -20 -42 -21 -289 -21 l-260 0 -24 28 c-41 47 -27
139 24 163 9 5 109 11 222 14 l205 5 77 100 c43 55 78 105 78 112 0 35 -42 3
-105 -80 l-70 -92 -200 -5 c-208 -6 -221 -8 -264 -54 -35 -37 -41 -127 -11
-174 35 -57 62 -62 327 -62 248 1 290 7 335 47 11 10 56 66 100 125 44 60 82
108 85 108 5 0 141 -98 201 -145 2 -2 -38 -82 -87 -178 -98 -190 -104 -212
-71 -284 35 -78 123 -106 191 -60 28 18 55 65 154 260 109 216 119 242 119
290 -1 29 -9 67 -18 85 -9 17 -65 73 -124 124 -59 50 -108 95 -110 99 -4 10
136 214 147 214 5 0 24 -20 42 -45 63 -82 74 -85 314 -85 180 0 215 3 242 18
61 33 81 113 43 175 -32 52 -69 62 -237 62 l-148 0 -65 126 c-36 68 -74 133
-85 144 -11 10 -63 44 -114 74 l-95 56 -215 -1 c-119 0 -228 -4 -242 -9z m526
-76 c44 -26 93 -58 108 -73 16 -14 58 -83 93 -153 l64 -128 166 0 166 0 29
-29 c36 -37 38 -79 5 -117 l-23 -28 -211 0 c-241 -1 -233 -4 -308 95 -23 30
-48 54 -55 54 -15 0 -199 -259 -199 -279 0 -7 49 -52 109 -101 196 -163 196
-161 45 -467 -114 -231 -141 -268 -196 -268 -40 0 -84 45 -94 96 -6 35 1 53
87 221 76 148 92 186 83 200 -6 9 -82 71 -170 138 -174 132 -204 166 -204 230
0 37 11 58 87 166 47 68 110 157 140 196 52 71 63 98 43 105 -5 2 -64 2 -129
0 l-120 -3 -91 -114 c-49 -62 -97 -116 -106 -119 -30 -11 -61 -6 -88 15 -20
16 -26 29 -26 59 0 34 10 52 67 122 123 153 167 201 198 214 22 10 89 13 240
14 l210 0 80 -46z"/>
<path d="M360 1575 c-19 -23 -1 -26 195 -23 152 3 180 5 180 18 0 23 -356 28
-375 5z"/>
<path d="M7 1284 c-4 -4 -7 -13 -7 -21 0 -11 47 -13 258 -11 221 3 257 5 257
18 0 13 -36 15 -251 18 -138 1 -253 -1 -257 -4z"/>
<path d="M205 979 c-16 -25 19 -29 216 -27 173 3 204 5 204 18 0 13 -31 15
-207 18 -143 2 -209 -1 -213 -9z"/>
</g>
</svg>
