<?xml version="1.0" standalone="no"?>
<!DOCTYPE svg PUBLIC "-//W3C//DTD SVG 20010904//EN"
 "http://www.w3.org/TR/2001/REC-SVG-20010904/DTD/svg10.dtd">
<svg version="1.0" xmlns="http://www.w3.org/2000/svg"
 width="111.000000pt" height="100.000000pt" viewBox="0 0 111.000000 100.000000"
 preserveAspectRatio="xMidYMid meet">
<metadata>
Created by potrace 1.16, written by Peter Selinger 2001-2019
</metadata>
<g transform="translate(0.000000,100.000000) scale(0.100000,-0.100000)"
fill="#000000" stroke="none">
<path d="M593 984 c-4 -11 56 -78 213 -235 l219 -219 -510 -2 c-446 -3 -510
-5 -510 -18 0 -13 65 -15 513 -18 281 -1 512 -4 512 -5 0 -2 -99 -102 -220
-223 -212 -211 -242 -249 -205 -261 6 -2 123 109 260 247 l249 250 -249 250
c-138 138 -253 250 -258 250 -4 0 -10 -7 -14 -16z"/>
</g>
</svg>
