<?xml version="1.0" standalone="no"?>
<!DOCTYPE svg PUBLIC "-//W3C//DTD SVG 20010904//EN"
 "http://www.w3.org/TR/2001/REC-SVG-20010904/DTD/svg10.dtd">
<svg version="1.0" xmlns="http://www.w3.org/2000/svg"
 width="177.000000pt" height="208.000000pt" viewBox="0 0 177.000000 208.000000"
 preserveAspectRatio="xMidYMid meet">
<metadata>
Created by potrace 1.16, written by Peter Selinger 2001-2019
</metadata>
<g transform="translate(0.000000,208.000000) scale(0.100000,-0.100000)"
fill="#000000" stroke="none">
<path d="M924 2065 c-4 -9 14 -38 42 -72 27 -32 54 -65 61 -74 13 -15 9 -16
-39 -7 -74 14 -238 3 -333 -21 -163 -43 -299 -125 -421 -254 -305 -320 -314
-818 -21 -1169 56 -68 203 -188 229 -188 38 0 15 36 -53 85 -202 144 -330 382
-346 640 -17 286 127 568 371 729 126 83 212 115 365 136 87 12 254 5 249 -10
-2 -5 -38 -36 -82 -70 -70 -56 -77 -64 -63 -77 14 -14 26 -7 119 64 71 55 103
86 103 100 0 21 -148 203 -166 203 -5 0 -12 -7 -15 -15z"/>
<path d="M1292 1808 c-19 -19 -16 -23 46 -63 182 -121 295 -272 359 -482 23
-77 26 -105 26 -223 0 -117 -4 -147 -27 -223 -76 -254 -233 -437 -468 -546
-103 -48 -207 -72 -318 -74 -92 -1 -200 10 -200 21 0 4 21 18 47 32 78 42 123
78 116 95 -3 9 -11 15 -17 13 -31 -8 -226 -133 -226 -144 0 -24 161 -214 181
-214 30 0 22 20 -36 95 -30 38 -53 70 -52 71 1 1 31 -3 67 -8 183 -27 424 32
587 143 69 47 179 155 228 224 226 317 218 746 -19 1053 -53 70 -111 123 -196
183 -85 60 -85 60 -98 47z"/>
</g>
</svg>
