<?xml version="1.0" standalone="no"?>
<!DOCTYPE svg PUBLIC "-//W3C//DTD SVG 20010904//EN"
 "http://www.w3.org/TR/2001/REC-SVG-20010904/DTD/svg10.dtd">
<svg version="1.0" xmlns="http://www.w3.org/2000/svg"
 width="188.000000pt" height="190.000000pt" viewBox="0 0 188.000000 190.000000"
 preserveAspectRatio="xMidYMid meet">
<metadata>
Created by potrace 1.16, written by Peter Selinger 2001-2019
</metadata>
<g transform="translate(0.000000,190.000000) scale(0.100000,-0.100000)"
fill="#000000" stroke="none">
<path d="M1069 1878 c-41 -27 -1037 -1036 -1056 -1070 -15 -28 -17 -87 -2
-125 11 -30 577 -605 643 -654 44 -33 99 -38 144 -15 15 8 257 245 539 528
606 608 547 518 541 826 -4 239 -2 234 -155 390 -84 85 -117 112 -148 121 -22
6 -137 13 -255 17 -213 6 -215 5 -251 -18z m461 -34 c40 -5 55 -16 144 -102
54 -54 112 -117 127 -141 l29 -45 0 -208 c0 -157 -4 -217 -14 -242 -16 -37
-959 -995 -1025 -1041 -69 -47 -74 -44 -365 244 -377 373 -405 409 -375 472
21 44 1035 1067 1062 1071 33 5 365 -2 417 -8z"/>
<path d="M1421 1630 c-18 -4 -50 -24 -69 -44 -31 -31 -36 -42 -40 -95 -4 -49
0 -66 18 -96 57 -92 203 -92 261 1 25 41 26 125 2 166 -33 55 -106 84 -172 68z
m115 -74 c28 -28 34 -42 34 -76 0 -34 -6 -48 -34 -76 -46 -46 -101 -48 -148
-5 -29 26 -33 35 -33 81 0 46 4 55 33 81 47 43 102 41 148 -5z"/>
<path d="M1135 1195 c-23 -22 -27 -23 -52 -10 -42 22 -128 19 -173 -6 -89 -50
-101 -145 -36 -280 40 -83 44 -124 20 -175 -30 -64 -136 -94 -203 -59 -68 35
-111 120 -91 180 18 55 -15 80 -38 30 -19 -41 -14 -98 12 -150 l25 -48 -24
-29 c-23 -28 -24 -58 -2 -58 6 0 23 11 37 25 l27 25 48 -21 c123 -54 254 20
263 150 4 50 -1 70 -37 154 -46 107 -47 114 -27 162 44 104 196 96 242 -12 19
-44 18 -69 -7 -121 -16 -31 -18 -47 -11 -54 8 -8 16 -7 28 3 45 37 59 150 25
205 l-19 32 24 23 c28 26 31 44 8 53 -9 3 -25 -4 -39 -19z"/>
</g>
</svg>
