<?xml version="1.0" standalone="no"?>
<!DOCTYPE svg PUBLIC "-//W3C//DTD SVG 20010904//EN"
 "http://www.w3.org/TR/2001/REC-SVG-20010904/DTD/svg10.dtd">
<svg version="1.0" xmlns="http://www.w3.org/2000/svg"
 width="195.000000pt" height="223.000000pt" viewBox="0 0 195.000000 223.000000"
 preserveAspectRatio="xMidYMid meet">
<metadata>
Created by potrace 1.16, written by Peter Selinger 2001-2019
</metadata>
<g transform="translate(0.000000,223.000000) scale(0.100000,-0.100000)"
fill="#000000" stroke="none">
<path d="M770 2212 c-63 -24 -142 -105 -163 -166 -71 -208 79 -408 294 -393
294 20 368 409 104 544 -65 34 -170 41 -235 15z m217 -50 c96 -50 156 -169
135 -270 -22 -103 -87 -171 -188 -193 -112 -25 -222 27 -276 130 -64 122 -15
267 112 334 48 25 63 28 115 24 33 -2 79 -14 102 -25z"/>
<path d="M1648 1801 c-288 -143 -428 -177 -793 -191 -351 -14 -430 -29 -553
-102 -59 -36 -181 -159 -255 -258 -37 -48 -47 -70 -47 -100 0 -48 35 -100 84
-124 32 -16 44 -17 77 -7 32 10 54 32 134 131 52 66 113 131 135 145 37 23
103 44 188 59 l33 6 -6 -43 c-3 -23 -21 -186 -40 -362 -51 -465 -30 -403 -203
-575 -81 -79 -155 -156 -164 -170 -55 -80 21 -210 123 -210 48 0 84 25 251
177 201 182 222 218 248 438 7 55 14 102 16 103 3 5 198 -151 252 -202 59 -55
68 -76 96 -213 44 -213 48 -224 87 -265 33 -35 41 -38 88 -38 81 0 141 48 141
112 0 54 -80 439 -99 475 -20 39 -92 113 -244 248 l-89 79 7 56 c9 83 45 341
51 371 5 25 11 27 107 43 117 20 223 59 422 158 210 104 255 142 255 216 0 58
-68 123 -127 122 -10 -1 -89 -36 -175 -79z m234 10 c10 -9 20 -30 24 -47 10
-50 -31 -84 -206 -172 -217 -110 -316 -147 -445 -168 -61 -10 -113 -21 -117
-24 -7 -5 -24 -118 -66 -438 l-9 -64 46 -42 c25 -24 97 -89 160 -146 138 -126
150 -148 186 -350 14 -80 31 -164 37 -187 19 -79 -13 -133 -81 -133 -80 0 -99
35 -145 267 -29 143 -43 176 -99 230 -68 66 -289 243 -303 243 -20 0 -23 -10
-44 -157 -23 -167 -30 -190 -68 -246 -31 -44 -310 -304 -349 -326 -54 -28
-127 10 -139 75 -8 46 -1 56 156 209 72 72 142 148 155 170 21 35 29 84 64
390 22 193 42 384 43 425 l3 75 -60 -3 c-75 -3 -178 -33 -228 -67 -21 -14 -80
-80 -132 -146 -90 -112 -97 -119 -131 -119 -26 0 -43 8 -65 29 -48 48 -41 76
46 179 142 170 241 243 370 271 28 6 147 16 265 21 294 14 407 26 528 55 130
31 301 98 439 170 109 58 129 61 165 26z"/>
</g>
</svg>
