<?xml version="1.0" standalone="no"?>
<!DOCTYPE svg PUBLIC "-//W3C//DTD SVG 20010904//EN"
 "http://www.w3.org/TR/2001/REC-SVG-20010904/DTD/svg10.dtd">
<svg version="1.0" xmlns="http://www.w3.org/2000/svg"
 width="150.000000pt" height="200.000000pt" viewBox="0 0 150.000000 200.000000"
 preserveAspectRatio="xMidYMid meet">
<metadata>
Created by potrace 1.16, written by Peter Selinger 2001-2019
</metadata>
<g transform="translate(0.000000,200.000000) scale(0.100000,-0.100000)"
fill="#000000" stroke="none">
<path d="M780 1986 c-94 -25 -181 -104 -202 -182 l-12 -42 -77 -4 c-134 -8
-252 -87 -307 -206 -34 -75 -36 -187 -5 -251 l21 -42 -20 -47 c-14 -31 -22
-76 -26 -137 l-5 -90 -73 -129 c-41 -71 -74 -140 -74 -152 0 -34 25 -52 89
-65 l58 -11 6 -117 c4 -64 11 -132 17 -152 25 -90 91 -128 217 -129 89 0 127
-10 136 -34 4 -9 9 -56 13 -106 6 -80 9 -90 26 -90 19 0 20 5 13 92 -9 110
-24 155 -57 162 -13 3 -64 7 -114 10 -178 9 -204 42 -212 263 -5 148 4 134
-95 149 -77 11 -77 11 39 209 50 86 53 93 53 164 1 80 14 140 39 183 15 26 15
30 -8 70 -20 35 -24 56 -24 118 1 90 18 134 79 199 65 69 122 94 229 101 l89
5 12 40 c36 121 115 182 249 192 157 12 262 -55 307 -198 l24 -74 76 0 c68 0
79 -3 113 -29 79 -59 111 -199 65 -276 -12 -19 -35 -47 -53 -61 -30 -26 -31
-28 -17 -60 35 -87 42 -134 38 -239 -6 -123 -35 -227 -103 -361 -68 -136 -84
-194 -84 -301 1 -130 40 -352 63 -356 21 -4 21 8 2 118 -47 264 -42 316 45
500 32 69 67 152 78 185 47 143 53 306 14 415 l-19 56 37 42 c84 95 78 242
-14 340 -46 50 -83 65 -152 66 l-61 0 -16 53 c-34 108 -101 176 -207 207 -63
19 -146 20 -210 2z"/>
<path d="M882 1084 c-44 -22 -79 -71 -63 -87 10 -9 17 -6 33 16 59 81 158 73
208 -16 19 -33 22 -50 18 -107 -9 -119 -62 -175 -162 -168 -28 1 -53 -2 -55
-7 -7 -19 43 -36 89 -30 102 12 163 94 163 220 1 78 -13 112 -62 159 -39 37
-117 46 -169 20z"/>
</g>
</svg>
