<?xml version="1.0" standalone="no"?>
<!DOCTYPE svg PUBLIC "-//W3C//DTD SVG 20010904//EN"
 "http://www.w3.org/TR/2001/REC-SVG-20010904/DTD/svg10.dtd">
<svg version="1.0" xmlns="http://www.w3.org/2000/svg"
 width="172.000000pt" height="169.000000pt" viewBox="0 0 172.000000 169.000000"
 preserveAspectRatio="xMidYMid meet">
<metadata>
Created by potrace 1.16, written by Peter Selinger 2001-2019
</metadata>
<g transform="translate(0.000000,169.000000) scale(0.100000,-0.100000)"
fill="#000000" stroke="none">
<path d="M680 1675 c-446 -89 -755 -550 -664 -993 58 -285 255 -518 526 -626
208 -82 471 -75 672 18 235 108 416 325 481 575 66 258 -12 559 -197 757 -138
147 -317 243 -508 274 -86 13 -230 11 -310 -5z m385 -60 c86 -24 197 -77 270
-130 l64 -45 -30 -45 c-36 -54 -71 -137 -101 -242 -30 -103 -32 -313 -4 -413
25 -93 78 -195 141 -275 100 -127 97 -108 29 -177 -254 -258 -633 -317 -965
-148 l-44 23 55 14 c184 46 317 162 411 358 93 193 91 385 -6 583 -76 154
-227 286 -389 342 -33 11 -72 20 -88 20 -41 0 -35 12 25 47 82 50 149 76 282
107 45 11 292 -3 350 -19z m-581 -203 c240 -81 425 -335 426 -583 0 -224 -134
-460 -317 -557 -76 -40 -208 -76 -232 -63 -9 6 -49 43 -88 84 -73 77 -127 159
-167 256 -113 269 -50 607 155 835 l53 58 58 -6 c32 -3 82 -14 112 -24z m988
-44 c16 -18 51 -69 78 -112 152 -244 157 -552 14 -796 l-37 -64 -39 45 c-193
220 -245 475 -154 755 31 95 86 204 103 204 3 0 19 -15 35 -32z"/>
</g>
</svg>
