<?xml version="1.0" standalone="no"?>
<!DOCTYPE svg PUBLIC "-//W3C//DTD SVG 20010904//EN"
 "http://www.w3.org/TR/2001/REC-SVG-20010904/DTD/svg10.dtd">
<svg version="1.0" xmlns="http://www.w3.org/2000/svg"
 width="209.000000pt" height="209.000000pt" viewBox="0 0 209.000000 209.000000"
 preserveAspectRatio="xMidYMid meet">
<metadata>
Created by potrace 1.16, written by Peter Selinger 2001-2019
</metadata>
<g transform="translate(0.000000,209.000000) scale(0.100000,-0.100000)"
fill="#000000" stroke="none">
<path d="M406 2079 c-112 -28 -252 -129 -316 -229 -134 -208 -115 -503 47
-747 52 -79 176 -207 247 -256 145 -98 289 -143 511 -157 84 -5 183 -18 226
-29 150 -39 174 -56 480 -359 154 -152 290 -282 302 -289 50 -28 126 -8 166
43 16 20 21 41 21 83 l0 56 -299 295 c-183 180 -311 314 -329 345 -54 90 -73
173 -82 360 -11 239 -42 345 -145 500 -103 156 -274 293 -442 355 -80 30 -100
33 -218 36 -72 2 -148 -1 -169 -7z m304 -45 c226 -51 474 -267 567 -496 42
-105 54 -170 63 -343 13 -253 49 -358 168 -486 l65 -71 -61 -60 -60 -61 -57
50 c-114 102 -252 147 -489 163 -180 11 -278 34 -401 94 -261 128 -449 404
-462 681 -8 162 30 273 132 383 141 152 304 197 535 146z m1125 -1644 c206
-206 219 -221 219 -256 0 -47 -48 -94 -96 -94 -27 0 -51 20 -172 138 -78 76
-180 176 -229 222 l-87 84 62 63 c34 35 67 63 73 63 6 0 109 -99 230 -220z"/>
<path d="M462 1960 c-132 -28 -257 -130 -303 -247 -31 -80 -38 -241 -14 -333
34 -132 140 -295 249 -384 77 -63 191 -122 279 -146 105 -29 242 -25 330 9 82
32 175 121 213 203 27 60 29 70 28 193 0 119 -3 137 -30 212 -42 112 -87 183
-169 268 -90 93 -204 168 -309 201 -89 28 -205 39 -274 24z m195 -44 c2 -2
-22 -29 -54 -59 l-58 -56 -52 52 c-29 28 -53 55 -53 59 0 4 17 9 38 11 38 5
173 -1 179 -7z m-149 -147 c-2 -4 -32 -37 -67 -74 -51 -53 -66 -64 -76 -53 -6
7 -38 41 -70 76 l-58 62 42 40 c23 22 58 49 79 60 l37 20 58 -62 c32 -34 56
-65 55 -69z m259 -67 l-68 -69 -64 66 -64 66 67 68 67 67 65 -65 65 -65 -68
-68z m86 135 c21 -14 26 -22 18 -30 -8 -8 -20 -2 -41 22 -46 49 -40 52 23 8z
m142 -108 c63 -59 65 -63 48 -81 -16 -18 -19 -17 -85 49 -52 51 -65 70 -56 80
6 7 14 13 19 13 4 0 38 -28 74 -61z m-707 -196 l-67 -67 -27 24 c-24 23 -26
29 -21 95 2 39 12 90 22 113 l18 44 71 -71 71 -71 -67 -67z m382 67 c0 -3 -29
-35 -65 -70 l-65 -65 -67 68 -68 67 70 70 70 71 62 -68 c34 -37 62 -70 63 -73z
m263 -62 l-67 -67 -35 32 c-20 18 -51 48 -70 66 l-34 33 69 69 68 69 68 -67
68 -67 -67 -68z m192 29 c19 -35 35 -67 35 -71 0 -4 -24 19 -54 51 -40 43 -51
61 -44 71 18 21 26 14 63 -51z m-675 -62 l64 -65 -69 -70 -69 -70 -68 67 -68
67 67 68 c37 38 70 68 73 68 3 0 35 -29 70 -65z m320 0 l64 -65 -69 -70 -69
-70 -63 62 c-35 34 -63 67 -63 72 0 11 120 136 130 136 3 0 35 -29 70 -65z
m328 -6 l61 -66 -64 -63 -65 -64 -70 69 -70 69 62 63 c35 35 68 62 74 61 6 -2
38 -33 72 -69z m-915 -54 c4 -8 2 -17 -3 -20 -6 -4 -10 3 -10 14 0 25 6 27 13
6z m419 -242 l-66 -74 -68 68 -68 67 33 36 c17 19 47 52 67 73 l34 37 67 -66
68 -67 -67 -74z m332 139 l65 -63 -72 -69 -72 -69 -63 62 c-34 34 -61 65 -60
69 7 17 121 139 128 136 5 -2 38 -31 74 -66z m275 -92 c0 -47 -3 -91 -7 -97
-6 -9 -29 9 -77 57 l-69 70 64 65 65 66 12 -38 c6 -21 12 -76 12 -123z m-921
87 l61 -64 -38 -37 c-43 -42 -43 -42 -84 39 -35 71 -41 94 -27 110 7 8 15 15
19 15 4 0 35 -28 69 -63z m825 -165 l77 -77 -30 -51 c-26 -46 -81 -104 -98
-104 -4 0 -45 38 -92 85 l-85 85 70 70 c38 38 72 70 75 70 3 0 40 -35 83 -78z
m-645 -109 l-42 -43 -54 52 c-80 79 -81 83 -36 129 l38 39 68 -67 68 -67 -42
-43z m299 115 l61 -63 -67 -73 -68 -73 -66 68 -66 68 67 68 c36 37 69 67 72
67 3 0 33 -28 67 -62z m-112 -241 c0 -5 -8 -15 -18 -21 -14 -9 -30 -4 -80 22
-34 18 -71 39 -81 47 -19 15 -19 16 18 54 l38 39 62 -65 c33 -36 61 -70 61
-76z m294 59 l84 -84 -68 -21 c-37 -12 -93 -21 -124 -21 -52 0 -60 3 -91 35
l-34 35 69 70 c38 39 72 70 75 70 3 0 43 -38 89 -84z m-234 -106 c18 -20 18
-20 -13 -9 -18 6 -29 15 -26 20 8 14 19 11 39 -11z"/>
<path d="M1250 970 c0 -6 -37 -48 -81 -91 -47 -46 -78 -84 -73 -89 5 -5 38
-16 73 -25 36 -9 94 -30 129 -46 103 -46 119 -37 71 39 -17 28 -44 88 -59 134
-18 53 -34 84 -44 86 -9 2 -16 -2 -16 -8z m38 -138 c25 -60 28 -72 14 -67 -9
3 -44 16 -78 28 l-61 21 46 47 c25 26 47 47 47 46 1 -1 15 -35 32 -75z"/>
<path d="M274 640 c-64 -13 -108 -35 -154 -77 -101 -90 -130 -241 -69 -361 57
-114 156 -175 284 -174 79 1 144 28 203 85 72 69 87 107 87 217 0 82 -3 102
-25 144 -60 117 -203 190 -326 166z m106 -41 c25 -5 62 -21 83 -35 l38 -25
-24 -32 c-36 -47 -46 -71 -57 -127 -13 -67 2 -133 45 -205 l34 -56 -54 -25
c-71 -33 -160 -35 -226 -6 -26 11 -50 25 -53 31 -4 6 4 26 18 43 37 50 60 130
53 192 -5 55 -43 142 -71 165 -13 11 -14 17 -4 28 16 20 60 41 105 52 51 12
61 12 113 0z m-204 -174 c33 -70 31 -127 -7 -204 -17 -34 -36 -60 -43 -59 -6
2 -23 28 -39 58 -43 85 -32 208 25 278 15 17 29 1 64 -73z m390 21 c34 -73 33
-164 -2 -234 -14 -29 -30 -52 -34 -52 -16 0 -60 86 -68 131 -5 24 -4 64 0 88
9 48 57 133 71 124 5 -3 20 -29 33 -57z"/>
</g>
</svg>
