<?xml version="1.0" standalone="no"?>
<!DOCTYPE svg PUBLIC "-//W3C//DTD SVG 20010904//EN"
 "http://www.w3.org/TR/2001/REC-SVG-20010904/DTD/svg10.dtd">
<svg version="1.0" xmlns="http://www.w3.org/2000/svg"
 width="218.000000pt" height="200.000000pt" viewBox="0 0 218.000000 200.000000"
 preserveAspectRatio="xMidYMid meet">
<metadata>
Created by potrace 1.16, written by Peter Selinger 2001-2019
</metadata>
<g transform="translate(0.000000,200.000000) scale(0.100000,-0.100000)"
fill="#000000" stroke="none">
<path d="M1930 1990 c-105 -25 -229 -103 -449 -281 -84 -68 -164 -132 -178
-143 -24 -18 -25 -18 -186 44 -89 35 -223 83 -297 107 -140 46 -555 173 -566
173 -14 0 -154 -145 -153 -159 0 -9 114 -95 272 -203 150 -103 322 -222 384
-266 l112 -79 -82 -74 c-45 -41 -145 -136 -223 -211 l-140 -138 -138 41 -138
40 -64 -41 c-34 -23 -68 -48 -75 -56 -14 -18 -3 -28 189 -174 l125 -95 76
-175 c49 -112 82 -176 92 -178 17 -3 135 66 142 83 2 6 1 44 -4 85 -4 41 -9
105 -12 141 l-5 67 102 63 c102 63 348 225 398 262 15 11 30 19 32 16 2 -2 74
-166 159 -364 194 -450 205 -475 226 -475 17 0 177 108 184 125 3 6 1 35 -4
65 -14 87 -139 960 -139 970 0 5 66 63 148 128 263 214 387 344 442 463 25 56
27 154 4 188 -36 51 -139 73 -234 51z m130 -40 c10 0 32 -12 49 -26 71 -60 22
-181 -143 -353 -92 -95 -316 -285 -486 -412 -435 -324 -650 -475 -822 -578
l-88 -53 0 -51 c0 -29 5 -97 10 -151 11 -108 13 -102 -51 -140 l-26 -16 -73
170 -72 169 -132 100 c-73 55 -138 106 -145 115 -10 12 -5 19 31 39 l43 25
142 -41 142 -41 168 165 c210 206 371 353 588 539 373 320 546 451 664 504 62
28 144 47 169 40 8 -2 22 -4 32 -4z m-1580 -174 c244 -72 434 -136 603 -202
77 -30 143 -56 148 -59 5 -4 -46 -54 -114 -112 -67 -58 -142 -125 -167 -149
l-45 -42 -105 75 c-58 41 -225 158 -372 259 -148 102 -268 189 -268 192 0 15
106 101 120 97 8 -2 98 -29 200 -59z m1054 -683 c4 -21 24 -170 47 -332 22
-162 51 -367 64 -455 20 -134 22 -162 11 -168 -8 -4 -37 -26 -66 -49 -28 -22
-53 -39 -54 -37 -7 8 -209 479 -343 795 l-13 33 167 125 c92 69 171 125 174
125 4 0 10 -17 13 -37z"/>
</g>
</svg>
