<?xml version="1.0" standalone="no"?>
<!DOCTYPE svg PUBLIC "-//W3C//DTD SVG 20010904//EN"
 "http://www.w3.org/TR/2001/REC-SVG-20010904/DTD/svg10.dtd">
<svg version="1.0" xmlns="http://www.w3.org/2000/svg"
 width="247.000000pt" height="228.000000pt" viewBox="0 0 247.000000 228.000000"
 preserveAspectRatio="xMidYMid meet">
<metadata>
Created by potrace 1.16, written by Peter Selinger 2001-2019
</metadata>
<g transform="translate(0.000000,228.000000) scale(0.100000,-0.100000)"
fill="#000000" stroke="none">
<path d="M1816 2261 c-18 -19 -136 -390 -136 -427 0 -38 18 -44 147 -44 l123
0 0 -245 0 -245 -57 0 c-76 0 -118 -25 -134 -80 l-12 -40 -394 0 -394 0 3 93
3 92 208 5 209 5 24 28 24 28 0 309 c0 206 -4 317 -11 334 -6 13 -25 32 -43
41 -28 14 -84 16 -563 13 l-531 -3 -26 -24 -26 -24 0 -329 0 -329 25 -24 c24
-25 25 -25 230 -25 l205 0 0 -95 0 -95 -323 0 c-276 0 -326 -2 -345 -16 -20
-14 -22 -24 -22 -104 0 -109 8 -120 86 -120 l54 0 0 -470 c0 -463 0 -470 20
-470 20 0 20 7 20 470 l0 470 635 0 635 0 0 -470 c0 -463 0 -470 20 -470 19 0
20 7 20 230 l0 230 400 0 400 0 0 -230 c0 -223 1 -230 20 -230 20 0 20 7 20
470 l0 470 53 0 c76 0 87 15 87 116 0 118 0 118 -161 124 l-133 5 -8 32 c-4
17 -22 43 -39 57 -25 21 -41 26 -85 26 l-54 0 0 245 0 245 123 0 c131 0 147 5
147 48 0 25 -77 299 -106 380 -9 23 -24 47 -34 52 -10 6 -79 10 -153 10 -118
0 -136 -2 -151 -19z m294 -43 c12 -29 110 -364 110 -378 0 -6 -88 -10 -250
-10 -137 0 -250 3 -250 6 0 16 114 381 123 392 7 8 46 12 133 12 120 0 125 -1
134 -22z m-734 -152 c11 -16 14 -77 14 -320 0 -265 -2 -302 -17 -318 -15 -17
-45 -18 -548 -18 -400 0 -534 3 -543 12 -9 9 -12 95 -12 324 l0 313 23 16 c19
14 82 15 545 13 505 -3 524 -4 538 -22z m-456 -791 l0 -95 -95 0 -95 0 0 95 0
95 95 0 95 0 0 -95z m1185 -40 c14 -13 25 -31 25 -40 0 -13 -23 -15 -170 -15
-93 0 -170 2 -170 5 0 14 31 64 42 68 7 3 66 6 131 6 112 1 119 0 142 -24z
m320 -175 l0 -75 -1192 -3 -1193 -2 0 73 c0 41 3 77 7 80 3 4 540 6 1192 5
l1186 -3 0 -75z m-135 -340 l0 -220 -400 0 -400 0 0 220 0 220 400 0 400 0 0
-220z"/>
<path d="M1767 733 c-4 -3 -7 -12 -7 -20 0 -10 26 -13 118 -13 65 0 122 3 125
7 4 3 2 12 -4 20 -8 9 -41 13 -119 13 -58 0 -110 -3 -113 -7z"/>
<path d="M1762 253 c3 -16 18 -18 112 -21 104 -3 144 6 130 29 -3 5 -59 9
-125 9 -109 0 -120 -2 -117 -17z"/>
</g>
</svg>
