<?xml version="1.0" standalone="no"?>
<!DOCTYPE svg PUBLIC "-//W3C//DTD SVG 20010904//EN"
 "http://www.w3.org/TR/2001/REC-SVG-20010904/DTD/svg10.dtd">
<svg version="1.0" xmlns="http://www.w3.org/2000/svg"
 width="238.000000pt" height="213.000000pt" viewBox="0 0 238.000000 213.000000"
 preserveAspectRatio="xMidYMid meet">
<metadata>
Created by potrace 1.16, written by Peter Selinger 2001-2019
</metadata>
<g transform="translate(0.000000,213.000000) scale(0.100000,-0.100000)"
fill="#000000" stroke="none">
<path d="M471 2089 c-46 -37 -51 -45 -51 -80 0 -43 18 -87 45 -109 14 -12 9
-20 -48 -79 -102 -104 -107 -118 -107 -326 l0 -175 -55 0 c-46 0 -60 -4 -80
-25 -16 -15 -25 -36 -25 -55 l0 -30 -58 0 c-78 0 -92 -15 -92 -98 0 -82 18
-102 84 -95 l46 6 0 -485 c0 -476 0 -486 21 -512 18 -23 28 -26 78 -26 102 0
96 -36 99 531 l3 489 459 0 460 0 0 -165 c0 -163 0 -166 25 -190 l24 -25 401
0 400 0 0 -22 c0 -13 3 -151 6 -308 7 -323 3 -310 89 -310 41 0 56 5 73 23 22
23 22 24 22 508 l0 485 28 2 c45 3 65 37 60 106 -3 42 -10 62 -23 72 -16 12
-174 14 -922 14 l-903 0 0 24 c0 14 -11 37 -24 53 -21 24 -32 28 -94 31 l-70
4 2 167 c2 137 6 173 21 205 21 43 121 156 139 156 7 0 10 -21 8 -64 -3 -48 1
-76 16 -109 24 -54 88 -127 111 -127 9 0 32 15 50 34 32 32 37 34 82 29 53 -6
81 9 126 70 20 26 24 41 20 79 -4 43 -1 50 30 79 18 18 33 36 33 40 0 4 -11
21 -25 38 -38 44 -138 91 -195 91 -43 0 -50 4 -79 41 -73 90 -131 101 -210 38z
m138 -23 c18 -14 39 -34 47 -44 12 -18 11 -21 -16 -32 -16 -7 -48 -32 -71 -57
-40 -44 -41 -44 -61 -26 -57 51 -62 109 -13 152 43 37 70 39 114 7z m236 -116
c23 -11 52 -32 65 -45 l24 -26 -144 -144 c-80 -80 -149 -144 -154 -142 -18 6
-76 99 -87 139 -21 80 23 178 99 218 51 26 142 26 197 0z m45 -205 c0 -17 -55
-82 -81 -95 -9 -6 -25 -7 -34 -4 -13 6 -5 18 41 65 55 56 74 64 74 34z m-419
-475 c11 -6 19 -21 19 -35 l0 -25 -155 0 -155 0 6 28 c4 15 12 30 18 34 17 12
245 9 267 -2z m1864 -160 l0 -55 -1139 -3 c-833 -1 -1142 1 -1152 9 -14 12
-20 90 -7 102 3 4 522 6 1152 5 l1146 -3 0 -55z m-2045 -567 c0 -263 -4 -484
-9 -491 -5 -9 -25 -12 -57 -10 l-49 3 -3 488 -2 487 60 0 60 0 0 -477z m1810
307 l0 -170 -402 2 -403 3 -3 168 -2 167 405 0 405 0 0 -170z m150 -207 c0
-208 3 -422 7 -475 7 -116 1 -128 -63 -128 l-43 0 -3 93 c-2 50 -5 271 -6 490
l-3 397 56 0 55 0 0 -377z"/>
<path d="M1605 849 c-13 -20 11 -24 120 -21 76 2 105 7 102 15 -5 17 -213 22
-222 6z"/>
</g>
</svg>
