<?xml version="1.0" standalone="no"?>
<!DOCTYPE svg PUBLIC "-//W3C//DTD SVG 20010904//EN"
 "http://www.w3.org/TR/2001/REC-SVG-20010904/DTD/svg10.dtd">
<svg version="1.0" xmlns="http://www.w3.org/2000/svg"
 width="186.000000pt" height="161.000000pt" viewBox="0 0 186.000000 161.000000"
 preserveAspectRatio="xMidYMid meet">
<metadata>
Created by potrace 1.16, written by Peter Selinger 2001-2019
</metadata>
<g transform="translate(0.000000,161.000000) scale(0.100000,-0.100000)"
fill="#000000" stroke="none">
<path d="M1090 1597 c-93 -26 -170 -97 -185 -170 -13 -63 -15 -67 -46 -67 -81
0 -159 -81 -162 -167 l-2 -48 179 -3 c196 -3 206 0 206 52 0 57 -39 118 -92
145 -33 16 -48 29 -48 42 0 32 36 94 74 126 102 90 265 60 341 -61 l30 -49 3
-344 3 -343 -675 0 -675 0 -20 -26 c-30 -38 -28 -98 4 -129 13 -14 29 -25 35
-25 5 0 10 -19 10 -42 0 -61 24 -166 51 -222 49 -104 184 -214 308 -250 79
-23 907 -24 995 -1 197 51 336 240 336 455 0 58 1 60 25 60 65 0 99 97 54 154
l-20 26 -195 0 -194 0 0 343 c0 339 0 342 -24 392 -56 118 -196 185 -316 152z
m-131 -295 c39 -19 66 -54 75 -94 l6 -28 -151 0 -151 0 6 32 c17 86 130 134
215 90z m849 -644 c15 -15 15 -61 0 -76 -17 -17 -1739 -17 -1756 0 -15 15 -15
61 0 76 17 17 1739 17 1756 0z m-100 -220 c-3 -75 -8 -104 -30 -151 -31 -66
-112 -156 -173 -192 -86 -50 -137 -55 -565 -55 -217 0 -422 5 -455 10 -181 29
-342 189 -360 357 -3 32 -7 73 -10 91 l-4 32 801 0 800 0 -4 -92z"/>
<path d="M734 976 c-8 -34 4 -68 24 -64 24 5 24 81 0 86 -12 2 -19 -5 -24 -22z"/>
<path d="M1030 985 c-16 -19 -5 -47 17 -43 11 2 18 12 18 27 0 29 -17 37 -35
16z"/>
<path d="M887 843 c-12 -12 -7 -41 8 -47 20 -7 38 27 23 42 -14 14 -22 15 -31
5z"/>
</g>
</svg>
