<?xml version="1.0" standalone="no"?>
<!DOCTYPE svg PUBLIC "-//W3C//DTD SVG 20010904//EN"
 "http://www.w3.org/TR/2001/REC-SVG-20010904/DTD/svg10.dtd">
<svg version="1.0" xmlns="http://www.w3.org/2000/svg"
 width="195.000000pt" height="296.000000pt" viewBox="0 0 195.000000 296.000000"
 preserveAspectRatio="xMidYMid meet">
<metadata>
Created by potrace 1.16, written by Peter Selinger 2001-2019
</metadata>
<g transform="translate(0.000000,296.000000) scale(0.100000,-0.100000)"
fill="#000000" stroke="none">
<path d="M680 2947 c-159 -46 -274 -174 -300 -332 -27 -170 69 -349 228 -423
51 -24 69 -27 167 -27 104 0 114 2 176 32 135 67 217 190 226 337 11 172 -75
314 -233 388 -76 35 -190 46 -264 25z m234 -80 c73 -34 140 -97 173 -166 24
-48 28 -68 28 -141 0 -71 -4 -94 -26 -140 -32 -69 -92 -131 -161 -167 -47 -25
-64 -28 -148 -28 -76 0 -104 4 -142 22 -63 29 -134 96 -166 158 -24 44 -27 61
-27 150 0 89 3 106 27 150 25 49 103 131 146 154 85 45 207 49 296 8z"/>
<path d="M535 2045 c-71 -12 -144 -40 -225 -84 -71 -39 -201 -176 -239 -252
-60 -122 -63 -146 -68 -482 -3 -169 -2 -319 1 -333 5 -19 12 -25 29 -22 l22 3
5 330 c5 323 6 332 31 401 68 187 222 322 425 374 100 26 377 29 469 5 168
-44 304 -185 322 -333 6 -56 23 -78 49 -68 28 11 13 115 -30 201 -62 125 -185
222 -332 260 -73 19 -357 19 -459 0z"/>
<path d="M1655 1740 c-13 -21 7 -49 100 -140 52 -51 95 -94 95 -96 0 -2 -183
-5 -407 -6 -400 -3 -408 -3 -408 -23 0 -20 8 -20 408 -23 224 -1 407 -5 407
-9 0 -4 -46 -53 -101 -109 -71 -71 -100 -107 -96 -118 4 -9 14 -16 24 -16 25
0 273 250 273 275 0 25 -248 275 -272 275 -9 0 -20 -5 -23 -10z"/>
<path d="M351 1447 c-8 -11 -11 -91 -9 -293 l3 -279 25 0 25 0 0 290 c0 257
-2 290 -16 293 -9 1 -21 -4 -28 -11z"/>
<path d="M1315 1328 c-3 -7 -4 -112 -3 -233 l3 -220 25 0 25 0 0 230 0 230
-23 3 c-12 2 -24 -3 -27 -10z"/>
<path d="M215 392 c-2 -2 -4 -91 -5 -198 l-1 -194 26 0 25 0 0 198 c0 193 -1
198 -20 198 -12 0 -23 -2 -25 -4z"/>
<path d="M376 249 c-104 -82 -53 -249 76 -249 42 0 106 43 108 73 0 15 -41 6
-60 -13 -30 -30 -83 -27 -109 6 -12 15 -21 35 -21 45 0 17 9 19 95 19 l95 0 0
25 c0 34 -24 80 -52 99 -33 23 -100 20 -132 -5z m117 -37 c9 -8 17 -23 17 -34
0 -16 -9 -18 -70 -18 -38 0 -70 2 -70 5 0 2 5 15 11 29 21 45 72 53 112 18z"/>
<path d="M639 241 c-16 -16 -29 -34 -29 -40 0 -19 41 -12 59 11 23 27 78 29
98 3 21 -30 11 -38 -58 -52 -46 -9 -70 -20 -86 -39 -66 -74 32 -159 122 -106
34 21 35 21 35 2 0 -13 7 -20 20 -20 19 0 20 7 20 110 0 104 -1 112 -25 135
-19 20 -34 25 -75 25 -44 0 -56 -5 -81 -29z m136 -133 c-8 -40 -38 -68 -74
-68 -46 0 -68 43 -36 70 15 13 64 27 98 29 16 1 18 -4 12 -31z"/>
<path d="M860 263 c1 -5 22 -64 48 -133 65 -171 73 -172 136 -8 27 68 50 129
53 136 3 8 -4 12 -20 12 -26 0 -39 -23 -77 -145 -13 -42 -30 -68 -30 -47 0 7
-14 53 -31 102 -28 79 -34 90 -55 90 -13 0 -24 -3 -24 -7z"/>
<path d="M1176 249 c-59 -46 -74 -130 -33 -190 27 -41 60 -59 107 -59 44 0
108 43 110 73 0 15 -41 6 -60 -13 -28 -28 -75 -26 -105 5 -14 13 -25 33 -25
45 0 19 6 20 95 20 l95 0 0 25 c0 34 -24 80 -52 99 -33 23 -100 20 -132 -5z
m117 -37 c8 -10 17 -25 20 -34 6 -16 -1 -18 -68 -18 -41 0 -75 2 -75 5 0 4 7
19 15 35 21 41 78 47 108 12z"/>
</g>
</svg>
