<?xml version="1.0" standalone="no"?>
<!DOCTYPE svg PUBLIC "-//W3C//DTD SVG 20010904//EN"
 "http://www.w3.org/TR/2001/REC-SVG-20010904/DTD/svg10.dtd">
<svg version="1.0" xmlns="http://www.w3.org/2000/svg"
 width="177.000000pt" height="219.000000pt" viewBox="0 0 177.000000 219.000000"
 preserveAspectRatio="xMidYMid meet">
<metadata>
Created by potrace 1.16, written by Peter Selinger 2001-2019
</metadata>
<g transform="translate(0.000000,219.000000) scale(0.100000,-0.100000)"
fill="#000000" stroke="none">
<path d="M640 2148 c-71 -161 -640 -1675 -640 -1703 0 -12 6 -27 13 -33 28
-23 1039 -412 1071 -412 13 0 28 6 33 13 6 6 106 266 223 577 117 311 262 694
321 853 60 158 109 298 109 311 0 32 -20 51 -77 72 -27 10 -136 51 -243 92
-358 136 -740 272 -765 272 -21 0 -30 -8 -45 -42z m212 -54 c84 -30 154 -57
155 -58 3 -2 -157 -436 -163 -444 -5 -7 -324 113 -324 122 0 18 164 436 171
436 5 0 77 -25 161 -56z m383 -140 c92 -35 139 -57 137 -66 -6 -25 -155 -423
-162 -431 -3 -4 -79 20 -167 54 l-162 61 29 77 c37 101 115 309 129 344 13 33
-2 36 196 -39z m331 -125 c77 -28 145 -57 153 -65 12 -11 2 -45 -69 -234 -68
-180 -86 -220 -99 -214 -9 4 -79 31 -155 60 -76 30 -141 55 -142 57 -6 5 160
447 167 447 3 0 69 -23 145 -51z m-901 -220 c137 -51 165 -64 160 -78 -4 -9
-37 -95 -73 -191 -36 -96 -67 -177 -69 -179 -2 -3 -308 126 -322 136 -3 2 132
373 136 373 1 0 77 -28 168 -61z m443 -169 c45 -17 82 -35 82 -38 0 -4 -35
-102 -79 -217 l-78 -210 -69 -6 c-38 -4 -84 -8 -103 -10 -33 -4 -35 -1 -88 83
l-54 88 62 167 c34 93 67 183 75 200 l13 33 78 -29 c43 -16 115 -43 161 -61z
m284 -107 c84 -31 154 -57 156 -59 3 -2 -134 -373 -141 -380 -2 -2 -25 5 -50
16 -62 28 -191 60 -239 60 -21 0 -38 3 -38 6 0 10 152 414 156 414 2 0 72 -26
156 -57z m-862 -158 c69 -31 132 -59 140 -61 8 -3 38 -43 65 -90 70 -120 67
-118 165 -103 125 18 278 8 377 -26 46 -15 90 -33 98 -39 14 -10 -3 -61 -134
-410 -83 -219 -153 -401 -155 -404 -7 -6 -19 -2 -580 216 -253 98 -461 183
-463 189 -2 6 53 161 122 344 69 184 137 364 151 401 l25 66 32 -13 c18 -7 88
-39 157 -70z"/>
</g>
</svg>
