<?xml version="1.0" standalone="no"?>
<!DOCTYPE svg PUBLIC "-//W3C//DTD SVG 20010904//EN"
 "http://www.w3.org/TR/2001/REC-SVG-20010904/DTD/svg10.dtd">
<svg version="1.0" xmlns="http://www.w3.org/2000/svg"
 width="140.000000pt" height="140.000000pt" viewBox="0 0 140.000000 140.000000"
 preserveAspectRatio="xMidYMid meet">
<metadata>
Created by potrace 1.16, written by Peter Selinger 2001-2019
</metadata>
<g transform="translate(0.000000,140.000000) scale(0.100000,-0.100000)"
fill="#000000" stroke="none">
<path d="M557 1382 c-15 -16 -17 -50 -17 -270 l0 -252 -253 0 c-233 0 -255 -1
-270 -18 -14 -15 -17 -41 -17 -140 0 -114 1 -122 22 -136 19 -14 62 -16 270
-16 l248 0 0 -259 c0 -228 2 -260 17 -272 26 -22 237 -26 268 -5 l25 16 0 260
0 260 255 0 c316 0 295 -11 295 153 0 170 24 157 -292 157 l-261 0 5 243 c6
239 3 270 -26 289 -6 4 -65 8 -132 8 -105 0 -123 -2 -137 -18z m243 -301 c0
-227 2 -260 16 -265 9 -3 130 -6 270 -6 l254 0 0 -100 0 -100 -258 0 c-187 0
-261 -3 -270 -12 -9 -9 -12 -84 -12 -275 l0 -263 -105 0 -105 0 0 263 c0 191
-3 266 -12 275 -9 9 -83 12 -270 12 l-259 0 3 98 3 97 254 3 c167 1 259 6 268
13 10 9 13 66 13 265 l0 254 105 0 105 0 0 -259z"/>
</g>
</svg>
