<?xml version="1.0" standalone="no"?>
<!DOCTYPE svg PUBLIC "-//W3C//DTD SVG 20010904//EN"
 "http://www.w3.org/TR/2001/REC-SVG-20010904/DTD/svg10.dtd">
<svg version="1.0" xmlns="http://www.w3.org/2000/svg"
 width="172.000000pt" height="208.000000pt" viewBox="0 0 172.000000 208.000000"
 preserveAspectRatio="xMidYMid meet">
<metadata>
Created by potrace 1.16, written by Peter Selinger 2001-2019
</metadata>
<g transform="translate(0.000000,208.000000) scale(0.100000,-0.100000)"
fill="#000000" stroke="none">
<path d="M41 2066 c-14 -8 -28 -22 -32 -32 -13 -32 -11 -1960 2 -1987 6 -14
22 -30 36 -36 17 -8 258 -11 822 -11 792 0 798 0 825 21 l26 20 0 838 0 838
-182 181 -183 182 -645 0 c-524 -1 -650 -3 -669 -14z m1287 -209 l2 -168 27
-10 c15 -5 92 -9 172 -8 l146 1 3 -797 c1 -581 -1 -801 -9 -811 -10 -12 -147
-14 -799 -14 -434 0 -795 3 -804 6 -14 6 -16 101 -16 983 0 538 3 981 7 984 3
4 290 6 637 5 l631 -3 3 -168z m184 6 c71 -70 128 -131 128 -136 0 -4 -60 -6
-132 -5 l-133 3 -3 133 c-1 72 1 132 5 132 4 0 65 -57 135 -127z"/>
<path d="M300 1545 c-6 -8 -9 -19 -5 -25 4 -7 149 -10 440 -10 291 0 436 3
440 10 4 6 1 17 -5 25 -11 13 -77 15 -435 15 -358 0 -424 -2 -435 -15z"/>
<path d="M301 1251 c-8 -5 -11 -16 -8 -25 6 -14 66 -16 572 -18 311 -2 570 -1
575 0 16 6 12 39 -6 46 -25 10 -1118 7 -1133 -3z"/>
<path d="M284 935 c-3 -8 -3 -19 1 -25 10 -17 909 -14 924 3 28 35 -3 37 -466
37 -387 0 -454 -2 -459 -15z"/>
<path d="M1268 499 l-153 -172 -75 82 c-72 77 -110 100 -110 65 0 -20 166
-204 184 -204 15 0 74 61 220 228 109 125 136 172 101 172 -8 0 -83 -77 -167
-171z"/>
</g>
</svg>
