<?xml version="1.0" standalone="no"?>
<!DOCTYPE svg PUBLIC "-//W3C//DTD SVG 20010904//EN"
 "http://www.w3.org/TR/2001/REC-SVG-20010904/DTD/svg10.dtd">
<svg version="1.0" xmlns="http://www.w3.org/2000/svg"
 width="214.000000pt" height="124.000000pt" viewBox="0 0 214.000000 124.000000"
 preserveAspectRatio="xMidYMid meet">
<metadata>
Created by potrace 1.16, written by Peter Selinger 2001-2019
</metadata>
<g transform="translate(0.000000,124.000000) scale(0.100000,-0.100000)"
fill="#000000" stroke="none">
<path d="M472 1225 c-144 -32 -283 -128 -365 -253 -85 -130 -112 -231 -105
-389 8 -169 78 -318 202 -429 227 -202 591 -206 807 -7 l56 52 49 -45 c56 -52
182 -117 269 -139 32 -8 95 -15 140 -15 332 1 594 245 612 572 8 127 -7 200
-64 317 -80 167 -224 286 -399 331 -198 51 -407 1 -547 -130 l-62 -58 -62 58
c-139 128 -335 177 -531 135z m281 -50 c32 -8 77 -24 100 -36 56 -28 142 -94
162 -125 15 -24 14 -27 -19 -82 -116 -190 -113 -435 9 -637 l36 -59 -38 -37
c-52 -52 -145 -106 -223 -130 -85 -27 -232 -29 -315 -4 -206 59 -367 229 -411
434 -62 294 121 598 408 675 70 19 220 20 291 1z m962 -13 c284 -104 448 -437
356 -721 -79 -240 -294 -395 -545 -393 -152 1 -271 46 -378 142 -42 38 -50 50
-41 61 6 8 28 47 48 87 91 181 85 394 -15 580 -39 71 -40 76 -25 99 20 29 128
110 175 131 79 34 126 41 245 38 94 -2 133 -7 180 -24z m-600 -296 c81 -178
79 -349 -6 -517 -16 -32 -33 -60 -38 -63 -13 -8 -78 120 -96 190 -32 122 -15
285 41 397 48 96 52 96 99 -7z"/>
</g>
</svg>
