<?xml version="1.0" standalone="no"?>
<!DOCTYPE svg PUBLIC "-//W3C//DTD SVG 20010904//EN"
 "http://www.w3.org/TR/2001/REC-SVG-20010904/DTD/svg10.dtd">
<svg version="1.0" xmlns="http://www.w3.org/2000/svg"
 width="128.000000pt" height="216.000000pt" viewBox="0 0 128.000000 216.000000"
 preserveAspectRatio="xMidYMid meet">
<metadata>
Created by potrace 1.16, written by Peter Selinger 2001-2019
</metadata>
<g transform="translate(0.000000,216.000000) scale(0.100000,-0.100000)"
fill="#000000" stroke="none">
<path d="M505 2145 c-240 -53 -428 -237 -490 -480 -36 -140 -10 -329 62 -468
45 -85 151 -196 235 -245 191 -112 415 -121 602 -25 99 52 228 181 280 283
l38 75 -6 -180 c-13 -459 -90 -712 -270 -890 -136 -134 -319 -192 -479 -150
-124 32 -238 112 -308 214 -34 51 -53 66 -70 55 -18 -11 -8 -38 37 -101 129
-181 370 -272 579 -218 184 48 356 203 445 399 80 176 111 361 117 708 8 390
-10 526 -89 688 -56 114 -169 229 -278 282 -132 64 -273 82 -405 53z m274 -62
c325 -89 506 -441 397 -768 -66 -195 -217 -337 -416 -390 -176 -47 -381 17
-531 165 -82 81 -134 171 -160 280 -19 79 -17 232 5 305 69 232 261 399 491
425 73 9 142 3 214 -17z"/>
</g>
</svg>
