<?xml version="1.0" standalone="no"?>
<!DOCTYPE svg PUBLIC "-//W3C//DTD SVG 20010904//EN"
 "http://www.w3.org/TR/2001/REC-SVG-20010904/DTD/svg10.dtd">
<svg version="1.0" xmlns="http://www.w3.org/2000/svg"
 width="149.000000pt" height="198.000000pt" viewBox="0 0 149.000000 198.000000"
 preserveAspectRatio="xMidYMid meet">
<metadata>
Created by potrace 1.16, written by Peter Selinger 2001-2019
</metadata>
<g transform="translate(0.000000,198.000000) scale(0.100000,-0.100000)"
fill="#000000" stroke="none">
<path d="M125 1966 c-44 -20 -83 -60 -105 -108 -19 -41 -20 -74 -20 -864 0
-588 3 -831 11 -855 17 -51 55 -97 99 -119 38 -19 60 -20 519 -20 265 0 490 4
504 9 24 10 325 329 345 368 9 16 12 213 12 735 l0 714 -22 44 c-14 26 -41 57
-66 75 l-44 30 -601 2 c-486 2 -608 0 -632 -11z m1245 -59 c19 -12 43 -38 54
-57 21 -34 21 -50 24 -722 l3 -688 -178 -2 -178 -3 -3 -198 -2 -198 -469 3
c-456 3 -470 4 -497 24 -15 11 -37 33 -48 48 -21 27 -21 37 -24 864 -2 800 -1
839 16 872 11 19 34 45 52 58 l33 22 592 0 592 0 33 -23z m58 -1516 c-4 -12
-281 -319 -288 -320 -3 -1 -4 73 -2 164 l3 165 145 0 c86 0 144 -4 142 -9z"/>
</g>
</svg>
