<?xml version="1.0" standalone="no"?>
<!DOCTYPE svg PUBLIC "-//W3C//DTD SVG 20010904//EN"
 "http://www.w3.org/TR/2001/REC-SVG-20010904/DTD/svg10.dtd">
<svg version="1.0" xmlns="http://www.w3.org/2000/svg"
 width="183.000000pt" height="161.000000pt" viewBox="0 0 183.000000 161.000000"
 preserveAspectRatio="xMidYMid meet">
<metadata>
Created by potrace 1.16, written by Peter Selinger 2001-2019
</metadata>
<g transform="translate(0.000000,161.000000) scale(0.100000,-0.100000)"
fill="#000000" stroke="none">
<path d="M650 1588 c-59 -40 -72 -67 -77 -162 l-6 -86 -211 0 c-240 0 -270 -8
-322 -76 l-29 -37 0 -552 0 -551 27 -41 c16 -24 44 -49 70 -62 44 -21 50 -21
810 -21 l765 0 44 23 c29 16 54 40 74 72 l30 48 0 533 0 532 -30 44 c-18 25
-49 52 -75 66 -42 21 -56 22 -257 22 l-213 0 0 78 c0 90 -18 134 -70 170 -32
21 -41 22 -265 22 -224 0 -233 -1 -265 -22z m512 -57 c31 -28 33 -33 36 -110
l4 -81 -286 0 -286 0 0 73 c1 140 13 146 287 147 l213 0 32 -29z m521 -255
c18 -7 43 -26 57 -41 25 -26 25 -30 25 -188 0 -182 -8 -210 -75 -254 -32 -22
-42 -23 -259 -24 -124 0 -252 -2 -283 -2 l-58 -2 0 45 c0 25 -4 51 -8 58 -7 9
-48 12 -173 10 l-164 -3 -5 -53 -5 -54 -284 1 c-252 1 -287 3 -314 18 -70 42
-86 93 -87 274 0 115 2 129 23 160 48 72 7 69 835 69 607 0 749 -3 775 -14z
m-647 -462 c-3 -9 -6 -56 -6 -105 l0 -89 -120 0 -120 0 0 105 0 105 126 0
c111 0 125 -2 120 -16z m717 -687 c-10 -16 -31 -39 -46 -51 -28 -21 -31 -21
-795 -21 l-767 0 -31 22 c-62 44 -64 58 -64 399 0 293 1 306 18 291 9 -9 38
-25 62 -36 42 -19 65 -21 328 -21 l282 0 0 -52 c0 -84 8 -88 171 -88 137 0
138 0 158 26 14 18 21 41 21 70 l0 44 268 0 c156 0 283 4 305 11 21 5 52 23
70 39 l32 28 3 -315 c2 -286 1 -318 -15 -346z"/>
</g>
</svg>
