<?xml version="1.0" standalone="no"?>
<!DOCTYPE svg PUBLIC "-//W3C//DTD SVG 20010904//EN"
 "http://www.w3.org/TR/2001/REC-SVG-20010904/DTD/svg10.dtd">
<svg version="1.0" xmlns="http://www.w3.org/2000/svg"
 width="208.000000pt" height="166.000000pt" viewBox="0 0 208.000000 166.000000"
 preserveAspectRatio="xMidYMid meet">
<metadata>
Created by potrace 1.16, written by Peter Selinger 2001-2019
</metadata>
<g transform="translate(0.000000,166.000000) scale(0.100000,-0.100000)"
fill="#000000" stroke="none">
<path d="M34 1626 l-34 -34 0 -277 0 -277 29 -29 c38 -38 75 -38 153 2 52 26
70 30 114 27 102 -9 168 -95 168 -218 -1 -105 -48 -175 -135 -202 -41 -12 -30
-14 -194 50 -37 14 -43 14 -76 -2 -20 -9 -41 -28 -48 -42 -18 -40 -15 -515 4
-560 28 -67 -1 -65 840 -62 l755 3 32 33 33 32 3 264 c2 213 6 267 17 276 11
9 28 6 79 -14 107 -43 172 -32 238 42 109 121 80 359 -53 428 -40 20 -105 17
-177 -8 -101 -37 -96 -48 -102 271 l-5 273 -33 29 -32 29 -261 0 -261 0 -29
-29 c-37 -38 -38 -86 -3 -161 52 -108 26 -198 -72 -256 -88 -52 -198 -42 -275
24 -76 65 -87 130 -39 230 38 81 39 130 4 166 l-27 26 -289 0 -290 0 -34 -34z
m617 -40 c10 -21 6 -35 -22 -93 -55 -111 -42 -210 38 -285 77 -73 222 -96 313
-49 138 71 183 186 125 318 -16 35 -25 71 -23 93 l3 35 254 3 c226 2 256 0
273 -14 17 -16 18 -37 18 -271 0 -282 3 -300 61 -324 29 -12 40 -10 111 15 92
32 121 29 166 -17 67 -69 83 -187 38 -283 -43 -93 -116 -115 -225 -69 -50 21
-64 23 -90 14 -57 -20 -61 -41 -61 -319 0 -237 -1 -251 -20 -270 -20 -20 -33
-20 -769 -20 -698 0 -750 1 -770 18 -21 17 -21 22 -19 282 l3 265 27 9 c22 8
40 3 98 -23 62 -29 80 -33 131 -29 120 9 199 105 199 243 0 122 -40 200 -129
248 -67 37 -127 36 -209 -3 -71 -33 -107 -38 -116 -14 -3 9 -6 132 -6 274 0
222 2 261 16 274 13 14 54 16 295 16 l279 0 11 -24z"/>
</g>
</svg>
