<?xml version="1.0" standalone="no"?>
<!DOCTYPE svg PUBLIC "-//W3C//DTD SVG 20010904//EN"
 "http://www.w3.org/TR/2001/REC-SVG-20010904/DTD/svg10.dtd">
<svg version="1.0" xmlns="http://www.w3.org/2000/svg"
 width="121.000000pt" height="128.000000pt" viewBox="0 0 121.000000 128.000000"
 preserveAspectRatio="xMidYMid meet">
<metadata>
Created by potrace 1.16, written by Peter Selinger 2001-2019
</metadata>
<g transform="translate(0.000000,128.000000) scale(0.100000,-0.100000)"
fill="#000000" stroke="none">
<path d="M235 1114 c-133 -96 -230 -173 -230 -182 0 -9 97 -87 230 -183 l230
-168 352 -1 353 0 2 -287 c3 -248 5 -288 18 -288 13 0 15 79 18 638 l2 637
-372 0 -373 0 -230 -166z m935 -184 l0 -310 -343 0 -343 0 -211 153 c-117 83
-211 155 -210 159 1 4 94 75 207 157 l205 150 348 0 347 1 0 -310z"/>
<path d="M530 930 c0 -20 6 -20 256 -20 238 0 255 1 252 18 -3 16 -24 17 -256
20 -247 2 -252 2 -252 -18z"/>
</g>
</svg>
