<?xml version="1.0" standalone="no"?>
<!DOCTYPE svg PUBLIC "-//W3C//DTD SVG 20010904//EN"
 "http://www.w3.org/TR/2001/REC-SVG-20010904/DTD/svg10.dtd">
<svg version="1.0" xmlns="http://www.w3.org/2000/svg"
 width="165.000000pt" height="206.000000pt" viewBox="0 0 165.000000 206.000000"
 preserveAspectRatio="xMidYMid meet">
<metadata>
Created by potrace 1.16, written by Peter Selinger 2001-2019
</metadata>
<g transform="translate(0.000000,206.000000) scale(0.100000,-0.100000)"
fill="#000000" stroke="none">
<path d="M675 2046 c-233 -54 -416 -215 -485 -427 -21 -65 -24 -93 -25 -229
l0 -155 -29 -15 c-50 -26 -70 -63 -74 -141 -3 -50 1 -83 12 -114 21 -54 76
-105 114 -105 25 0 29 -7 55 -80 37 -103 107 -210 189 -285 64 -59 65 -60 52
-90 -7 -16 -13 -53 -14 -81 l0 -51 -57 -12 c-137 -30 -292 -108 -376 -189 -35
-34 -49 -72 -27 -72 6 0 35 20 66 46 107 87 210 138 337 167 l67 15 19 -32
c102 -163 353 -217 521 -111 43 27 120 112 120 132 0 11 10 13 48 7 131 -19
292 -92 384 -174 31 -28 61 -50 67 -50 23 0 9 39 -26 74 -87 85 -225 155 -366
185 l-80 17 -2 55 c-1 30 -5 65 -9 79 -6 22 1 32 48 73 91 78 189 234 210 333
6 26 13 33 40 38 70 13 126 109 126 215 0 70 -24 121 -67 141 l-33 15 0 141
c0 107 -5 159 -20 218 -54 213 -201 369 -415 442 -98 33 -273 42 -370 20z
m295 -47 c30 -6 93 -29 140 -51 149 -72 260 -205 306 -368 14 -51 33 -330 22
-330 -8 0 -123 152 -167 219 -22 34 -52 93 -67 132 -37 95 -44 99 -96 56 -56
-45 -148 -91 -229 -114 -54 -15 -102 -18 -299 -18 l-235 0 -30 -85 c-17 -47
-47 -114 -65 -150 l-34 -65 -7 40 c-37 195 30 431 160 560 160 160 362 218
601 174z m217 -469 c24 -50 80 -138 129 -202 47 -62 94 -129 104 -149 10 -19
25 -41 33 -47 12 -10 16 -7 21 19 6 31 7 32 26 14 56 -50 42 -195 -24 -247
-39 -32 -43 -23 -29 60 16 94 14 136 -8 140 -14 2 -19 -12 -29 -85 -29 -217
-82 -352 -183 -460 -142 -152 -319 -216 -496 -179 -142 30 -260 104 -345 217
-84 111 -123 217 -152 411 l-15 102 57 116 c32 63 68 144 80 179 l23 64 68 -4
c162 -10 337 -2 426 20 86 20 185 63 236 101 14 11 28 19 31 19 3 0 24 -40 47
-89z m-1007 -447 c6 -54 15 -115 20 -135 7 -33 5 -38 -10 -38 -38 0 -90 91
-90 157 0 42 38 113 60 113 4 0 13 -44 20 -97z m505 -725 c54 -15 93 -18 170
-15 96 4 124 11 242 63 15 7 27 -65 18 -115 -15 -87 -101 -175 -200 -203 -188
-53 -400 67 -399 227 0 27 6 60 12 72 12 22 14 23 50 6 20 -9 69 -25 107 -35z"/>
<path d="M550 1150 c-25 -25 -25 -51 -1 -81 16 -21 22 -22 45 -11 22 10 26 18
26 51 0 30 -5 43 -19 51 -26 13 -28 13 -51 -10z"/>
<path d="M1042 1154 c-43 -30 -12 -115 37 -99 43 13 48 93 6 109 -21 8 -17 9
-43 -10z"/>
<path d="M630 736 c0 -51 94 -90 203 -84 86 4 187 47 187 78 0 29 -18 33 -46
11 -34 -27 -115 -51 -168 -51 -45 0 -113 27 -135 53 -20 25 -41 21 -41 -7z"/>
</g>
</svg>
