<?xml version="1.0" standalone="no"?>
<!DOCTYPE svg PUBLIC "-//W3C//DTD SVG 20010904//EN"
 "http://www.w3.org/TR/2001/REC-SVG-20010904/DTD/svg10.dtd">
<svg version="1.0" xmlns="http://www.w3.org/2000/svg"
 width="244.000000pt" height="212.000000pt" viewBox="0 0 244.000000 212.000000"
 preserveAspectRatio="xMidYMid meet">
<metadata>
Created by potrace 1.16, written by Peter Selinger 2001-2019
</metadata>
<g transform="translate(0.000000,212.000000) scale(0.100000,-0.100000)"
fill="#000000" stroke="none">
<path d="M814 2112 c-10 -2 -57 -15 -104 -28 -123 -37 -238 -95 -286 -146 -56
-59 -416 -519 -421 -538 -3 -10 30 -47 89 -100 51 -47 130 -120 175 -162 46
-44 90 -78 102 -78 13 0 37 22 68 62 26 34 54 69 60 78 10 12 13 -107 12 -584
0 -329 4 -603 8 -607 5 -5 323 -8 709 -7 l699 3 5 605 5 605 60 -77 c39 -51
67 -78 80 -78 12 0 72 49 145 116 69 64 146 134 173 157 26 22 47 49 47 60 0
10 -71 110 -159 220 -244 312 -269 339 -329 379 -57 38 -190 91 -273 109 -42
9 -817 19 -865 11z m15 -114 c27 -126 95 -219 199 -270 65 -32 70 -33 192 -33
114 0 130 2 180 26 111 53 191 154 220 276 11 50 13 53 38 46 71 -17 182 -57
234 -85 62 -33 85 -59 346 -390 l131 -167 -143 -135 -144 -136 -76 95 c-79 98
-105 114 -126 76 -6 -13 -10 -229 -10 -630 l0 -611 -652 2 -653 3 -1 613 c-1
337 -5 619 -8 627 -13 35 -45 14 -116 -75 -40 -50 -76 -90 -80 -88 -13 5 -280
250 -280 257 0 9 304 398 367 470 65 73 150 120 288 158 44 12 81 22 82 22 1
1 6 -23 12 -51z m731 22 c0 -39 -41 -120 -86 -170 -135 -149 -434 -126 -537
41 -28 47 -60 143 -49 153 3 3 155 6 339 6 l333 0 0 -30z"/>
</g>
</svg>
