<?xml version="1.0" standalone="no"?>
<!DOCTYPE svg PUBLIC "-//W3C//DTD SVG 20010904//EN"
 "http://www.w3.org/TR/2001/REC-SVG-20010904/DTD/svg10.dtd">
<svg version="1.0" xmlns="http://www.w3.org/2000/svg"
 width="164.000000pt" height="165.000000pt" viewBox="0 0 164.000000 165.000000"
 preserveAspectRatio="xMidYMid meet">
<metadata>
Created by potrace 1.16, written by Peter Selinger 2001-2019
</metadata>
<g transform="translate(0.000000,165.000000) scale(0.100000,-0.100000)"
fill="#000000" stroke="none">
<path d="M724 1639 c-233 -28 -462 -171 -588 -366 -294 -457 -89 -1056 424
-1235 92 -32 100 -33 255 -33 183 0 248 15 386 86 392 204 548 701 347 1105
-149 300 -491 484 -824 443z m201 -59 c319 -46 571 -282 637 -597 60 -291 -51
-600 -277 -770 -314 -236 -733 -208 -1005 67 -158 160 -229 350 -217 580 9
171 56 300 156 432 102 134 274 242 446 278 104 21 162 24 260 10z"/>
<path d="M650 1446 c-293 -87 -484 -358 -467 -665 15 -281 207 -516 480 -588
82 -21 233 -21 316 0 108 29 217 93 298 174 323 326 199 894 -232 1059 -62 24
-86 28 -210 30 -95 2 -154 -1 -185 -10z m341 -65 c180 -56 327 -205 385 -389
8 -26 18 -90 21 -142 10 -171 -49 -324 -171 -445 -236 -234 -600 -229 -825 10
-136 146 -191 351 -146 544 49 207 232 390 436 436 82 19 214 12 300 -14z"/>
<path d="M797 1253 c-4 -3 -7 -25 -7 -48 0 -40 -2 -42 -39 -53 -134 -41 -175
-208 -72 -295 19 -15 73 -39 133 -58 76 -23 109 -39 130 -61 71 -76 1 -188
-116 -188 -67 0 -115 26 -144 78 -25 44 -42 52 -61 28 -29 -35 52 -134 128
-157 38 -11 40 -14 43 -57 6 -85 68 -82 68 3 0 41 2 44 38 55 115 37 167 153
114 256 -24 47 -68 73 -182 108 -104 32 -126 46 -139 93 -21 75 44 143 134
143 50 0 99 -29 126 -75 23 -38 39 -44 59 -20 22 27 -35 104 -100 137 -51 25
-55 30 -52 58 2 17 -2 38 -8 46 -13 15 -42 19 -53 7z"/>
</g>
</svg>
