<?xml version="1.0" standalone="no"?>
<!DOCTYPE svg PUBLIC "-//W3C//DTD SVG 20010904//EN"
 "http://www.w3.org/TR/2001/REC-SVG-20010904/DTD/svg10.dtd">
<svg version="1.0" xmlns="http://www.w3.org/2000/svg"
 width="192.000000pt" height="146.000000pt" viewBox="0 0 192.000000 146.000000"
 preserveAspectRatio="xMidYMid meet">
<metadata>
Created by potrace 1.16, written by Peter Selinger 2001-2019
</metadata>
<g transform="translate(0.000000,146.000000) scale(0.100000,-0.100000)"
fill="#000000" stroke="none">
<path d="M332 1445 c-165 -36 -279 -167 -305 -351 -16 -107 -14 -108 115 -112
76 -2 108 1 115 10 5 7 15 42 21 77 17 98 61 131 171 131 72 0 108 -25 148
-103 21 -43 25 -60 20 -107 -10 -109 -65 -182 -390 -520 l-227 -235 3 -105 2
-105 430 0 430 0 0 115 0 115 -247 5 -248 5 113 120 c302 320 387 460 387 640
0 213 -129 378 -327 420 -83 18 -129 18 -211 0z m265 -56 c122 -46 218 -179
230 -317 16 -191 -52 -314 -343 -626 -172 -183 -188 -202 -179 -216 4 -6 100
-10 266 -10 l259 0 0 -80 0 -80 -395 0 -395 0 0 80 0 79 197 203 c351 362 412
445 421 569 4 49 0 68 -26 122 -19 42 -43 74 -68 93 -35 27 -44 29 -123 29
-69 0 -93 -4 -121 -21 -43 -25 -77 -82 -85 -145 l-7 -47 -84 2 c-95 1 -91 -4
-73 91 29 156 138 269 286 295 67 12 176 2 240 -21z"/>
<path d="M1364 1450 c-117 -25 -235 -123 -298 -247 -168 -334 -129 -880 78
-1086 78 -79 149 -109 267 -115 246 -12 405 121 480 403 33 120 39 432 11 565
-48 233 -144 380 -295 451 -69 32 -172 44 -243 29z m157 -44 c205 -48 327
-244 359 -573 11 -122 -2 -308 -30 -418 -43 -168 -122 -280 -238 -337 -63 -31
-73 -33 -177 -33 -102 0 -114 2 -168 30 -148 74 -235 249 -259 518 -19 214 15
435 92 587 38 76 128 172 187 200 83 39 149 46 234 26z"/>
<path d="M1365 1226 c-38 -17 -91 -71 -116 -118 -77 -150 -95 -498 -35 -693
29 -92 75 -154 139 -187 33 -16 53 -19 103 -15 112 9 173 67 221 211 26 77 27
91 27 281 1 165 -2 212 -18 270 -35 132 -100 228 -173 256 -35 13 -113 11
-148 -5z m182 -67 c78 -75 123 -235 123 -443 0 -247 -50 -396 -151 -449 -47
-25 -134 -19 -177 11 -39 29 -88 126 -107 217 -20 95 -20 316 0 424 40 206
104 286 223 278 44 -3 59 -10 89 -38z"/>
</g>
</svg>
