<?xml version="1.0" standalone="no"?>
<!DOCTYPE svg PUBLIC "-//W3C//DTD SVG 20010904//EN"
 "http://www.w3.org/TR/2001/REC-SVG-20010904/DTD/svg10.dtd">
<svg version="1.0" xmlns="http://www.w3.org/2000/svg"
 width="182.000000pt" height="182.000000pt" viewBox="0 0 182.000000 182.000000"
 preserveAspectRatio="xMidYMid meet">
<metadata>
Created by potrace 1.16, written by Peter Selinger 2001-2019
</metadata>
<g transform="translate(0.000000,182.000000) scale(0.100000,-0.100000)"
fill="#000000" stroke="none">
<path d="M723 1809 c-169 -33 -337 -124 -463 -250 -176 -177 -260 -385 -260
-644 0 -260 87 -474 264 -651 218 -218 524 -309 831 -245 339 70 616 334 695
664 121 507 -178 996 -682 1117 -88 21 -300 26 -385 9z m367 -45 c67 -15 162
-49 192 -69 16 -11 16 -13 -2 -43 -18 -29 -84 -72 -110 -72 -6 0 -33 -9 -60
-21 -35 -15 -53 -30 -64 -54 -31 -66 -11 -176 35 -190 12 -4 62 -4 111 0 99 7
134 -1 181 -43 34 -33 35 -66 1 -89 -25 -16 -31 -16 -108 0 -44 9 -98 17 -119
17 -147 0 -247 -100 -247 -248 0 -56 3 -67 28 -92 36 -36 87 -50 180 -50 67 0
76 -2 102 -28 44 -45 48 -101 24 -360 -8 -89 6 -112 69 -112 127 0 257 158
303 364 13 61 15 104 11 182 -6 93 -5 104 14 128 11 14 26 26 33 26 7 0 33 10
59 23 l46 24 7 -65 c46 -437 -257 -845 -697 -937 -135 -29 -357 -14 -464 30
-34 15 -35 16 -19 40 9 13 20 57 25 97 13 102 24 130 81 204 114 149 107 228
-26 288 -60 28 -83 45 -126 97 -63 77 -101 102 -188 124 -90 22 -119 39 -142
85 -61 120 -22 220 86 220 32 0 44 8 88 54 28 30 66 72 84 94 23 29 45 43 76
51 59 15 104 53 112 97 8 44 -17 113 -58 160 l-29 33 51 15 c48 14 129 31 195
40 49 7 195 -4 265 -20z m-517 -86 c85 -114 75 -163 -46 -208 -51 -19 -64 -30
-117 -100 -62 -81 -66 -84 -138 -95 -85 -13 -130 -82 -118 -178 14 -103 67
-165 163 -192 110 -30 143 -46 171 -82 65 -85 88 -105 158 -139 78 -37 94 -55
94 -102 0 -29 -10 -47 -83 -148 -45 -62 -64 -114 -73 -196 -11 -107 -49 -137
-103 -79 -24 25 -28 41 -38 139 -14 140 -36 184 -145 283 l-80 72 7 89 c3 48
4 96 0 107 -3 11 -30 38 -60 60 -30 23 -66 62 -81 87 -24 40 -26 52 -21 112
12 157 145 373 306 496 54 42 159 106 173 106 4 0 18 -15 31 -32z m831 -52
c131 -94 242 -231 310 -385 55 -123 47 -152 -48 -188 -27 -10 -58 -31 -70 -46
-19 -26 -21 -40 -18 -150 3 -136 -15 -233 -63 -327 -49 -96 -146 -180 -208
-180 -45 0 -49 19 -31 125 29 174 8 312 -54 353 -15 10 -59 18 -121 23 -53 3
-108 12 -123 19 -64 30 -56 150 14 226 61 66 133 79 270 48 112 -26 178 5 178
82 0 44 -38 86 -101 113 -46 20 -61 22 -149 16 -92 -7 -99 -6 -109 13 -16 30
-14 104 4 129 9 13 39 28 73 38 82 24 140 60 159 101 9 19 19 34 21 34 2 0 32
-20 66 -44z m-1354 -648 c1 -18 47 -69 98 -108 l43 -33 -7 -99 -7 -99 95 -92
c71 -69 99 -103 111 -137 17 -47 38 -220 26 -220 -3 0 -45 36 -92 80 -134 126
-217 266 -257 433 -23 95 -36 287 -20 287 5 0 10 -6 10 -12z"/>
</g>
</svg>
