<?xml version="1.0" standalone="no"?>
<!DOCTYPE svg PUBLIC "-//W3C//DTD SVG 20010904//EN"
 "http://www.w3.org/TR/2001/REC-SVG-20010904/DTD/svg10.dtd">
<svg version="1.0" xmlns="http://www.w3.org/2000/svg"
 width="167.000000pt" height="221.000000pt" viewBox="0 0 167.000000 221.000000"
 preserveAspectRatio="xMidYMid meet">
<metadata>
Created by potrace 1.16, written by Peter Selinger 2001-2019
</metadata>
<g transform="translate(0.000000,221.000000) scale(0.100000,-0.100000)"
fill="#000000" stroke="none">
<path d="M1170 2200 c-174 -24 -280 -48 -388 -90 -167 -64 -298 -189 -322
-307 -29 -138 18 -246 182 -420 61 -65 128 -139 149 -165 119 -150 101 -317
-51 -470 -100 -100 -364 -267 -632 -399 -60 -30 -108 -56 -108 -59 0 -4 6 -15
14 -25 13 -18 15 -18 57 7 24 14 112 60 194 103 281 145 487 287 561 387 109
147 125 265 56 412 -21 45 -65 101 -168 211 -154 166 -175 195 -198 275 -20
69 -14 125 19 190 69 136 231 223 502 270 67 11 132 23 145 26 13 2 44 7 70
11 45 5 65 23 52 44 -6 10 -53 10 -134 -1z"/>
<path d="M1430 2134 c-69 -12 -124 -29 -224 -71 -92 -39 -119 -56 -171 -107
-80 -79 -112 -156 -95 -225 28 -112 83 -168 325 -332 205 -139 312 -297 345
-511 19 -124 -20 -289 -101 -429 -85 -146 -162 -229 -326 -352 -77 -57 -98
-86 -73 -102 19 -12 202 127 292 223 124 132 207 281 248 447 28 114 24 223
-14 340 -54 169 -144 277 -361 435 -187 135 -232 176 -261 237 -31 63 -29 111
10 176 54 93 151 149 346 201 126 33 152 44 148 59 -5 13 -45 18 -88 11z"/>
</g>
</svg>
