<?xml version="1.0" standalone="no"?>
<!DOCTYPE svg PUBLIC "-//W3C//DTD SVG 20010904//EN"
 "http://www.w3.org/TR/2001/REC-SVG-20010904/DTD/svg10.dtd">
<svg version="1.0" xmlns="http://www.w3.org/2000/svg"
 width="238.000000pt" height="239.000000pt" viewBox="0 0 238.000000 239.000000"
 preserveAspectRatio="xMidYMid meet">
<metadata>
Created by potrace 1.16, written by Peter Selinger 2001-2019
</metadata>
<g transform="translate(0.000000,239.000000) scale(0.100000,-0.100000)"
fill="#000000" stroke="none">
<path d="M996 2375 c-506 -96 -893 -487 -981 -992 -61 -352 72 -767 330 -1029
219 -222 536 -354 850 -354 453 0 867 259 1065 665 92 190 124 347 117 580 -5
194 -31 303 -106 461 -68 143 -135 236 -249 346 -171 165 -354 264 -585 314
-103 23 -342 27 -441 9z m377 -50 c396 -69 731 -333 874 -690 66 -166 76 -221
77 -425 1 -195 -12 -277 -65 -420 -51 -137 -196 -365 -232 -365 -7 0 -372 361
-812 803 l-800 803 35 30 c160 135 388 239 586 268 95 14 245 12 337 -4z m570
-1994 c-229 -212 -611 -321 -929 -266 -404 71 -726 329 -877 706 -162 401 -85
858 195 1164 l50 55 804 -808 803 -807 -46 -44z"/>
</g>
</svg>
