<?xml version="1.0" standalone="no"?>
<!DOCTYPE svg PUBLIC "-//W3C//DTD SVG 20010904//EN"
 "http://www.w3.org/TR/2001/REC-SVG-20010904/DTD/svg10.dtd">
<svg version="1.0" xmlns="http://www.w3.org/2000/svg"
 width="119.000000pt" height="225.000000pt" viewBox="0 0 119.000000 225.000000"
 preserveAspectRatio="xMidYMid meet">
<metadata>
Created by potrace 1.16, written by Peter Selinger 2001-2019
</metadata>
<g transform="translate(0.000000,225.000000) scale(0.100000,-0.100000)"
fill="#000000" stroke="none">
<path d="M740 2235 c-77 -22 -138 -62 -182 -120 -52 -69 -73 -134 -72 -225 2
-143 74 -259 199 -321 62 -30 68 -31 162 -27 82 4 107 9 152 32 66 34 123 91
159 159 24 47 27 62 27 157 0 124 -17 171 -89 248 -86 92 -231 131 -356 97z
m197 -40 c131 -39 229 -182 217 -318 -7 -91 -32 -147 -93 -208 -60 -60 -114
-84 -207 -95 -118 -14 -246 63 -302 184 -36 77 -38 192 -4 268 64 142 232 215
389 169z"/>
<path d="M500 1470 c-235 -8 -302 -18 -353 -51 -68 -45 -104 -139 -132 -349
-40 -294 1 -470 128 -544 40 -24 77 -34 190 -51 l38 -6 -3 -235 c-2 -185 0
-234 10 -234 28 0 32 61 32 560 0 543 5 613 52 723 25 58 84 107 166 138 46
17 71 20 128 16 110 -8 191 -57 237 -142 22 -39 22 -49 27 -655 4 -538 7 -615
20 -615 13 0 15 75 15 615 l0 615 -30 58 c-47 94 -137 152 -250 160 -33 2
-157 1 -275 -3z m60 -35 c0 -1 -22 -16 -49 -32 -62 -39 -93 -101 -121 -242
-17 -89 -20 -142 -20 -375 l0 -273 -57 4 c-130 10 -192 46 -236 141 -26 55
-32 84 -37 160 -9 157 30 426 75 512 31 60 99 87 245 98 80 7 200 10 200 7z"/>
<path d="M710 1101 c-6 -13 -10 -147 -10 -368 0 -320 2 -351 19 -390 21 -46
45 -63 90 -63 33 0 44 10 35 34 -5 13 -9 14 -20 5 -19 -16 -41 -5 -64 33 -19
31 -20 51 -20 401 0 229 -4 367 -10 367 -5 0 -14 -9 -20 -19z"/>
<path d="M535 250 c-3 -5 2 -24 11 -42 10 -18 19 -66 22 -106 4 -60 7 -72 21
-70 26 5 21 131 -7 186 -22 42 -35 51 -47 32z"/>
</g>
</svg>
