<?xml version="1.0" standalone="no"?>
<!DOCTYPE svg PUBLIC "-//W3C//DTD SVG 20010904//EN"
 "http://www.w3.org/TR/2001/REC-SVG-20010904/DTD/svg10.dtd">
<svg version="1.0" xmlns="http://www.w3.org/2000/svg"
 width="140.000000pt" height="180.000000pt" viewBox="0 0 140.000000 180.000000"
 preserveAspectRatio="xMidYMid meet">
<metadata>
Created by potrace 1.16, written by Peter Selinger 2001-2019
</metadata>
<g transform="translate(0.000000,180.000000) scale(0.100000,-0.100000)"
fill="#000000" stroke="none">
<path d="M807 1773 c-14 -16 -38 -54 -52 -86 -26 -56 -65 -216 -65 -269 0 -38
-10 -58 -29 -58 -29 -1 -98 -37 -138 -74 l-40 -35 -29 30 c-63 66 -176 95
-269 69 -54 -15 -128 -77 -155 -130 -71 -139 4 -321 151 -364 29 -9 61 -16 70
-16 17 0 17 -3 -3 -35 -26 -45 -35 -148 -18 -201 32 -98 118 -169 219 -181
l49 -6 -24 -51 c-44 -94 -29 -205 38 -281 54 -61 108 -85 194 -85 203 0 320
190 230 372 l-23 48 36 0 c85 0 197 84 226 169 21 62 19 147 -5 200 -11 24
-20 45 -20 47 0 2 12 4 28 4 68 1 167 75 203 154 25 54 25 157 0 211 -45 100
-131 155 -240 155 -79 0 -134 -23 -182 -73 l-33 -35 -45 39 c-27 24 -65 45
-99 55 l-54 16 7 67 c15 138 59 266 112 323 25 26 24 48 -1 48 -7 0 -24 -12
-39 -27z m-440 -482 c22 -11 52 -33 65 -50 24 -28 25 -34 21 -133 -6 -140 -11
-151 -91 -190 -81 -38 -135 -40 -200 -6 -66 34 -105 92 -110 167 -8 104 32
175 123 218 60 29 129 27 192 -6z m434 3 c39 -20 90 -73 105 -111 19 -45 17
-130 -5 -178 -38 -85 -149 -138 -239 -115 -73 18 -120 54 -148 113 -41 89 -28
173 40 245 64 68 167 87 247 46z m402 15 c21 -6 57 -27 79 -47 100 -90 104
-219 9 -313 -37 -37 -57 -49 -102 -59 -54 -12 -60 -11 -115 14 -85 38 -87 40
-106 72 -14 24 -15 37 -7 77 8 33 7 63 0 98 -13 60 -4 81 51 122 60 45 120 56
191 36z m-636 -435 c101 -50 147 -142 123 -245 -28 -114 -140 -183 -257 -159
-44 10 -65 21 -103 58 -91 89 -94 207 -7 299 72 75 154 91 244 47z m462 0 c62
-31 106 -92 117 -161 22 -146 -124 -281 -262 -243 -48 14 -129 78 -140 112 -3
11 -7 62 -8 112 -2 113 11 136 98 177 77 36 126 37 195 3z m-314 -44 c-3 -5
-10 -10 -16 -10 -5 0 -9 5 -9 10 0 6 7 10 16 10 8 0 12 -4 9 -10z m5 -300 c0
-5 -7 -10 -16 -10 -8 0 -12 5 -9 10 3 6 10 10 16 10 5 0 9 -4 9 -10z m68 -76
c176 -73 176 -325 0 -398 -142 -60 -298 47 -298 204 0 76 66 169 140 199 38
15 116 13 158 -5z"/>
</g>
</svg>
