<?xml version="1.0" standalone="no"?>
<!DOCTYPE svg PUBLIC "-//W3C//DTD SVG 20010904//EN"
 "http://www.w3.org/TR/2001/REC-SVG-20010904/DTD/svg10.dtd">
<svg version="1.0" xmlns="http://www.w3.org/2000/svg"
 width="188.000000pt" height="192.000000pt" viewBox="0 0 188.000000 192.000000"
 preserveAspectRatio="xMidYMid meet">
<metadata>
Created by potrace 1.16, written by Peter Selinger 2001-2019
</metadata>
<g transform="translate(0.000000,192.000000) scale(0.100000,-0.100000)"
fill="#000000" stroke="none">
<path d="M771 1905 c-131 -37 -201 -147 -189 -299 10 -113 29 -140 271 -378
121 -120 228 -218 237 -218 27 0 430 416 465 480 27 50 30 63 30 150 0 79 -4
102 -22 136 -46 86 -118 134 -211 142 -87 7 -139 -13 -207 -83 l-61 -61 -43
48 c-75 84 -165 112 -270 83z m167 -49 c15 -8 55 -43 89 -77 l62 -63 62 66
c98 107 192 126 296 62 69 -43 98 -104 98 -209 0 -71 -3 -86 -29 -130 -26 -44
-409 -445 -426 -445 -3 0 -97 88 -208 195 -237 230 -257 261 -257 385 0 78 15
120 59 168 59 66 177 88 254 48z"/>
<path d="M1670 983 c-19 -10 -105 -86 -191 -170 -86 -84 -158 -153 -161 -153
-3 0 -8 13 -11 28 -8 39 -48 79 -93 91 -22 6 -126 11 -235 11 -188 0 -198 1
-270 27 -63 23 -90 27 -179 28 -99 0 -109 -2 -170 -32 -85 -43 -360 -259 -360
-284 0 -11 5 -19 10 -19 6 0 67 46 138 102 145 116 228 172 279 189 57 18 196
6 273 -24 60 -23 81 -25 289 -31 252 -6 265 -10 277 -73 8 -43 -7 -76 -49
-107 -27 -20 -43 -21 -258 -24 -210 -3 -230 -5 -227 -20 3 -15 25 -17 221 -20
197 -2 222 -1 260 17 26 12 118 92 245 215 112 108 216 203 232 211 49 25 94
20 124 -16 14 -17 26 -41 26 -53 0 -44 -67 -125 -284 -343 -233 -233 -309
-294 -397 -312 -30 -7 -185 -11 -389 -11 -290 0 -346 -2 -382 -16 -60 -23
-268 -163 -268 -180 0 -26 33 -14 119 45 169 115 122 105 556 111 l380 5 67
33 c36 17 103 65 149 106 113 99 409 402 449 461 55 80 49 153 -16 204 -33 26
-104 28 -154 4z"/>
</g>
</svg>
