<?xml version="1.0" standalone="no"?>
<!DOCTYPE svg PUBLIC "-//W3C//DTD SVG 20010904//EN"
 "http://www.w3.org/TR/2001/REC-SVG-20010904/DTD/svg10.dtd">
<svg version="1.0" xmlns="http://www.w3.org/2000/svg"
 width="145.000000pt" height="143.000000pt" viewBox="0 0 145.000000 143.000000"
 preserveAspectRatio="xMidYMid meet">
<metadata>
Created by potrace 1.16, written by Peter Selinger 2001-2019
</metadata>
<g transform="translate(0.000000,143.000000) scale(0.100000,-0.100000)"
fill="#000000" stroke="none">
<path d="M91 1408 c-25 -13 -54 -36 -65 -51 -21 -28 -21 -38 -21 -642 0 -604
0 -614 21 -641 11 -15 33 -37 48 -48 27 -21 37 -21 651 -21 617 0 624 0 652
21 15 11 38 36 51 54 l22 34 -2 607 c-3 596 -3 608 -24 635 -11 15 -33 37 -48
48 -27 21 -39 21 -634 24 l-607 2 -44 -22z m1263 -41 c56 -37 56 -36 56 -654
0 -635 2 -620 -70 -655 -32 -17 -83 -18 -613 -18 -637 0 -629 -1 -667 62 -19
32 -20 49 -20 606 0 461 3 579 14 605 13 33 45 60 81 70 11 3 283 4 605 3 549
-1 588 -2 614 -19z"/>
<path d="M487 1053 c-4 -3 -7 -160 -7 -349 0 -273 3 -343 13 -347 7 -3 59 25
115 62 56 36 176 115 267 174 118 76 165 112 163 124 -3 15 -511 341 -534 342
-6 1 -14 -2 -17 -6z m298 -216 c104 -65 191 -119 192 -121 4 -3 -428 -286
-449 -294 -4 -2 -8 128 -8 288 l0 292 38 -23 c20 -13 122 -77 227 -142z"/>
</g>
</svg>
