<?xml version="1.0" standalone="no"?>
<!DOCTYPE svg PUBLIC "-//W3C//DTD SVG 20010904//EN"
 "http://www.w3.org/TR/2001/REC-SVG-20010904/DTD/svg10.dtd">
<svg version="1.0" xmlns="http://www.w3.org/2000/svg"
 width="186.000000pt" height="201.000000pt" viewBox="0 0 186.000000 201.000000"
 preserveAspectRatio="xMidYMid meet">
<metadata>
Created by potrace 1.16, written by Peter Selinger 2001-2019
</metadata>
<g transform="translate(0.000000,201.000000) scale(0.100000,-0.100000)"
fill="#000000" stroke="none">
<path d="M910 1998 c-1 -7 0 -94 0 -194 l1 -181 -158 -120 c-488 -373 -718
-554 -718 -565 0 -9 21 -14 68 -16 l67 -3 0 -440 0 -440 -80 2 c-86 2 -96 -1
-87 -26 6 -13 104 -15 929 -13 895 3 923 4 923 22 0 16 -9 19 -77 19 l-78 1 0
437 0 438 68 3 c52 2 67 6 67 18 0 8 -199 164 -442 345 l-441 330 -1 60 -1 60
162 0 163 0 5 133 c3 74 3 136 1 138 -2 2 -87 4 -188 4 -139 0 -183 -3 -183
-12z m330 -123 l0 -95 -145 0 -145 0 0 95 0 95 145 0 145 0 0 -95z m110 -610
l402 -300 -46 -3 -46 -3 -2 -457 -3 -457 -232 -2 -233 -2 0 275 0 274 -22 5
c-13 3 -126 4 -253 3 l-230 -3 -3 -277 -2 -277 -233 2 -232 2 -5 455 -5 455
-42 3 -43 3 68 51 c37 29 144 111 237 183 420 325 500 383 511 377 6 -4 192
-142 414 -307z m-202 -968 l-3 -252 -210 0 -210 0 -3 245 c-1 134 -1 249 2
255 2 6 78 9 215 7 l211 -3 -2 -252z"/>
<path d="M850 1228 c-81 -41 -112 -146 -70 -232 68 -138 280 -116 320 33 40
150 -110 269 -250 199z m150 -43 c38 -20 60 -63 60 -116 0 -35 -6 -48 -39 -80
-33 -33 -45 -39 -82 -39 -114 0 -176 118 -107 205 11 15 30 31 42 35 34 14 95
11 126 -5z"/>
</g>
</svg>
