<?xml version="1.0" standalone="no"?>
<!DOCTYPE svg PUBLIC "-//W3C//DTD SVG 20010904//EN"
 "http://www.w3.org/TR/2001/REC-SVG-20010904/DTD/svg10.dtd">
<svg version="1.0" xmlns="http://www.w3.org/2000/svg"
 width="155.000000pt" height="119.000000pt" viewBox="0 0 155.000000 119.000000"
 preserveAspectRatio="xMidYMid meet">
<metadata>
Created by potrace 1.16, written by Peter Selinger 2001-2019
</metadata>
<g transform="translate(0.000000,119.000000) scale(0.100000,-0.100000)"
fill="#000000" stroke="none">
<path d="M38 1161 l-33 -29 0 -186 0 -186 28 -27 27 -28 711 -3 711 -2 34 34
35 35 -3 181 -3 182 -33 29 -32 29 -705 0 -705 0 -32 -29z m1425 -44 c16 -11
17 -31 15 -176 l-3 -165 -33 -8 c-18 -5 -329 -7 -693 -6 -573 3 -661 5 -669
18 -5 8 -10 86 -10 172 0 139 2 158 18 167 27 16 1353 15 1375 -2z"/>
<path d="M38 461 l-33 -29 -3 -174 c-4 -189 4 -224 54 -247 18 -8 231 -11 725
-11 l701 0 35 35 34 34 -3 180 -3 181 -28 27 -27 28 -710 3 -709 2 -33 -29z
m1432 -51 c5 -8 10 -86 10 -172 0 -145 -1 -158 -19 -168 -27 -14 -1345 -14
-1372 0 -18 10 -19 23 -19 168 0 159 3 174 30 185 8 3 318 5 688 4 586 -2 674
-4 682 -17z"/>
</g>
</svg>
