<?xml version="1.0" standalone="no"?>
<!DOCTYPE svg PUBLIC "-//W3C//DTD SVG 20010904//EN"
 "http://www.w3.org/TR/2001/REC-SVG-20010904/DTD/svg10.dtd">
<svg version="1.0" xmlns="http://www.w3.org/2000/svg"
 width="201.000000pt" height="204.000000pt" viewBox="0 0 201.000000 204.000000"
 preserveAspectRatio="xMidYMid meet">
<metadata>
Created by potrace 1.16, written by Peter Selinger 2001-2019
</metadata>
<g transform="translate(0.000000,204.000000) scale(0.100000,-0.100000)"
fill="#000000" stroke="none">
<path d="M498 1758 c-273 -156 -497 -289 -497 -295 -1 -10 26 -13 104 -13
l105 0 0 -100 c0 -73 3 -100 13 -101 6 0 31 -1 55 -2 l42 -2 1 -395 0 -395
-110 -3 -111 -3 0 -99 0 -99 -47 -3 -48 -3 0 -120 0 -120 1000 0 1000 0 0 120
0 120 -52 3 -53 3 0 100 0 99 -110 0 -110 0 0 400 0 400 55 0 55 0 0 100 0
100 104 0 c58 0 107 4 110 9 5 7 -967 571 -998 579 -6 1 -235 -125 -508 -280z
m946 -14 c237 -135 435 -250 441 -255 5 -6 -344 -9 -884 -9 -492 0 -891 3
-888 7 16 15 874 503 886 503 8 0 208 -111 445 -246z m306 -379 l0 -85 -750 0
-750 0 0 85 0 85 750 0 750 0 0 -85z m-888 -511 c2 -218 2 -396 1 -397 -1 -1
-60 -1 -132 1 l-131 3 0 388 c0 213 3 391 7 394 3 4 62 7 129 7 l124 0 2 -396z
m246 0 l-3 -396 -100 0 -100 0 -3 384 c-1 210 0 389 3 395 3 9 34 13 105 13
l100 0 -2 -396z m287 -2 l0 -393 -123 0 -122 0 -4 388 c-2 213 -2 392 1 396 2
4 59 6 126 5 l122 -3 0 -393z m-832 -3 l-3 -391 -97 0 -98 0 -3 391 -2 391
102 0 103 0 -2 -391z m1077 -1 l0 -393 -100 2 c-55 1 -100 4 -100 7 0 3 0 179
0 391 l0 385 100 0 100 0 0 -392z m230 -513 l0 -85 -865 0 -865 0 0 85 0 85
865 0 865 0 0 -85z m100 -210 l0 -85 -965 0 -965 0 0 85 0 85 965 0 965 0 0
-85z"/>
</g>
</svg>
