<?xml version="1.0" standalone="no"?>
<!DOCTYPE svg PUBLIC "-//W3C//DTD SVG 20010904//EN"
 "http://www.w3.org/TR/2001/REC-SVG-20010904/DTD/svg10.dtd">
<svg version="1.0" xmlns="http://www.w3.org/2000/svg"
 width="195.000000pt" height="168.000000pt" viewBox="0 0 195.000000 168.000000"
 preserveAspectRatio="xMidYMid meet">
<metadata>
Created by potrace 1.16, written by Peter Selinger 2001-2019
</metadata>
<g transform="translate(0.000000,168.000000) scale(0.100000,-0.100000)"
fill="#000000" stroke="none">
<path d="M1160 1660 c-41 -41 -15 -122 64 -209 87 -94 193 -225 261 -321 39
-55 89 -126 113 -159 l43 -61 -790 -2 -789 -3 -25 -23 c-46 -43 -43 -96 6
-124 17 -10 198 -14 811 -18 l789 -5 -62 -75 c-33 -41 -93 -118 -133 -170 -39
-52 -110 -140 -158 -195 -98 -113 -140 -175 -145 -214 -6 -58 42 -91 98 -67
30 12 67 52 267 286 30 36 100 112 154 170 117 124 253 292 272 336 28 66 -14
135 -200 334 -34 36 -99 108 -146 160 -47 52 -119 131 -161 175 -42 44 -91
100 -108 125 -56 78 -119 102 -161 60z m99 -68 c20 -21 52 -56 71 -79 19 -22
136 -152 259 -287 261 -287 301 -337 301 -377 0 -38 -79 -145 -220 -299 -113
-124 -199 -223 -270 -310 -66 -82 -172 -190 -186 -190 -21 0 -25 30 -8 63 9
17 49 65 88 106 40 42 141 168 225 281 85 113 162 214 172 226 11 11 19 30 19
42 l0 21 -820 3 c-571 2 -822 6 -830 14 -14 14 -3 42 22 50 11 3 382 6 824 5
676 0 806 2 810 14 10 25 -275 411 -437 591 -76 85 -111 164 -73 164 9 0 33
-17 53 -38z"/>
</g>
</svg>
