<?xml version="1.0" standalone="no"?>
<!DOCTYPE svg PUBLIC "-//W3C//DTD SVG 20010904//EN"
 "http://www.w3.org/TR/2001/REC-SVG-20010904/DTD/svg10.dtd">
<svg version="1.0" xmlns="http://www.w3.org/2000/svg"
 width="188.000000pt" height="221.000000pt" viewBox="0 0 188.000000 221.000000"
 preserveAspectRatio="xMidYMid meet">
<metadata>
Created by potrace 1.16, written by Peter Selinger 2001-2019
</metadata>
<g transform="translate(0.000000,221.000000) scale(0.100000,-0.100000)"
fill="#000000" stroke="none">
<path d="M792 2194 c-222 -59 -373 -232 -400 -456 l-8 -73 -151 153 c-151 154
-182 175 -191 128 -3 -13 48 -71 175 -200 177 -179 180 -182 201 -252 12 -39
39 -98 60 -130 44 -67 141 -160 201 -190 l40 -20 -69 -17 c-303 -73 -524 -263
-616 -532 -27 -76 -28 -90 -32 -308 -4 -227 -4 -229 19 -253 12 -13 39 -28 58
-34 55 -15 1676 -12 1720 3 19 7 44 25 55 40 20 27 21 41 21 215 0 219 -14
294 -76 423 -115 238 -320 388 -624 456 l-40 9 55 29 c87 44 189 154 241 259
43 87 44 92 47 200 3 94 1 121 -18 176 -30 90 -79 166 -147 231 -76 72 -126
103 -217 134 -87 29 -216 33 -304 9z m263 -49 c32 -9 81 -28 109 -43 76 -40
180 -148 215 -222 126 -265 -17 -594 -295 -680 -74 -22 -185 -26 -224 -7 -14
7 -112 101 -219 209 l-195 198 1 77 c3 217 152 410 363 469 63 17 175 17 245
-1z m-299 -943 c-9 -8 -104 49 -150 89 -48 42 -99 114 -125 174 -8 20 34 -16
133 -115 80 -79 144 -146 142 -148z m416 -116 c426 -87 658 -366 646 -776 l-3
-95 -445 450 -445 450 55 5 c30 3 60 2 67 -3 6 -4 62 -18 125 -31z m648 -964
c0 -7 -11 -24 -25 -37 l-24 -25 -841 0 -840 0 -21 21 c-21 21 -21 28 -16 218
5 218 15 271 72 386 107 219 310 355 616 414 l94 18 493 -491 c270 -270 492
-497 492 -504z"/>
</g>
</svg>
