<?xml version="1.0" standalone="no"?>
<!DOCTYPE svg PUBLIC "-//W3C//DTD SVG 20010904//EN"
 "http://www.w3.org/TR/2001/REC-SVG-20010904/DTD/svg10.dtd">
<svg version="1.0" xmlns="http://www.w3.org/2000/svg"
 width="202.000000pt" height="156.000000pt" viewBox="0 0 202.000000 156.000000"
 preserveAspectRatio="xMidYMid meet">
<metadata>
Created by potrace 1.16, written by Peter Selinger 2001-2019
</metadata>
<g transform="translate(0.000000,156.000000) scale(0.100000,-0.100000)"
fill="#000000" stroke="none">
<path d="M570 1540 c-273 -68 -481 -277 -550 -554 -27 -108 -27 -274 0 -380
54 -214 207 -400 407 -497 90 -44 233 -79 323 -79 142 0 352 72 447 154 22 20
45 36 50 36 5 0 17 -16 27 -35 29 -53 99 -113 174 -148 61 -29 75 -32 168 -32
95 0 103 2 176 37 91 45 147 103 191 196 30 63 32 74 32 177 0 101 -2 115 -28
164 -40 77 -80 124 -140 164 -82 54 -143 70 -253 65 l-94 -4 0 51 c0 29 -9 87
-20 131 -40 155 -121 290 -237 393 -75 67 -233 145 -335 166 -103 20 -244 18
-338 -5z m382 -84 c109 -36 193 -89 278 -175 119 -120 182 -259 196 -434 l7
-74 -35 -21 c-55 -34 -127 -117 -156 -180 -23 -50 -27 -71 -28 -167 l-2 -110
-43 -37 c-185 -160 -488 -194 -712 -82 -145 73 -247 175 -317 316 -197 400 37
883 475 984 90 21 244 12 337 -20z m800 -743 c65 -29 129 -92 164 -160 25 -51
29 -69 29 -143 0 -74 -4 -93 -29 -143 -102 -202 -358 -255 -519 -107 -97 88
-137 217 -103 332 31 109 118 199 225 233 62 20 173 14 233 -12z"/>
</g>
</svg>
