<?xml version="1.0" standalone="no"?>
<!DOCTYPE svg PUBLIC "-//W3C//DTD SVG 20010904//EN"
 "http://www.w3.org/TR/2001/REC-SVG-20010904/DTD/svg10.dtd">
<svg version="1.0" xmlns="http://www.w3.org/2000/svg"
 width="199.000000pt" height="194.000000pt" viewBox="0 0 199.000000 194.000000"
 preserveAspectRatio="xMidYMid meet">
<metadata>
Created by potrace 1.16, written by Peter Selinger 2001-2019
</metadata>
<g transform="translate(0.000000,194.000000) scale(0.100000,-0.100000)"
fill="#000000" stroke="none">
<path d="M795 1933 c-455 -71 -795 -434 -795 -848 0 -201 97 -433 239 -570 23
-21 41 -45 41 -52 0 -7 -20 -89 -44 -181 -62 -236 -62 -236 -36 -262 16 -16
29 -20 48 -15 15 3 126 58 246 122 l219 115 105 -17 c148 -25 353 -17 477 18
336 94 580 322 667 624 19 65 23 102 23 218 -1 132 -3 146 -33 235 -99 285
-340 500 -658 586 -88 24 -120 27 -284 29 -102 2 -198 1 -215 -2z m478 -97
c118 -31 203 -69 288 -127 368 -248 464 -691 228 -1044 -114 -169 -309 -299
-544 -361 -93 -25 -368 -26 -464 -2 -35 9 -71 13 -80 10 -9 -3 -110 -55 -224
-115 -115 -60 -211 -107 -213 -104 -3 3 18 93 47 201 l52 196 -64 68 c-36 37
-79 87 -96 112 -233 344 -138 801 216 1038 107 72 207 114 332 141 139 30 383
24 522 -13z"/>
<path d="M902 1543 c-99 -30 -179 -126 -195 -235 -4 -27 -1 -42 9 -53 30 -30
54 -11 65 51 19 103 103 174 206 174 100 0 179 -54 209 -142 31 -94 -7 -178
-116 -254 -87 -60 -111 -97 -117 -178 -6 -70 4 -96 38 -96 25 0 38 29 37 84
-1 58 17 85 91 135 76 52 115 99 136 168 68 215 -141 414 -363 346z"/>
<path d="M964 676 c-3 -8 -4 -25 -2 -38 2 -19 9 -23 38 -23 33 0 35 2 35 35 0
32 -3 35 -33 38 -21 2 -34 -2 -38 -12z"/>
</g>
</svg>
