<?xml version="1.0" standalone="no"?>
<!DOCTYPE svg PUBLIC "-//W3C//DTD SVG 20010904//EN"
 "http://www.w3.org/TR/2001/REC-SVG-20010904/DTD/svg10.dtd">
<svg version="1.0" xmlns="http://www.w3.org/2000/svg"
 width="190.000000pt" height="232.000000pt" viewBox="0 0 190.000000 232.000000"
 preserveAspectRatio="xMidYMid meet">
<metadata>
Created by potrace 1.16, written by Peter Selinger 2001-2019
</metadata>
<g transform="translate(0.000000,232.000000) scale(0.100000,-0.100000)"
fill="#000000" stroke="none">
<path d="M902 2258 c-16 -35 -41 -93 -56 -130 l-28 -67 -77 -6 c-198 -15 -210
-17 -215 -31 -3 -9 34 -49 103 -111 l108 -97 -28 -131 c-19 -92 -24 -134 -17
-143 10 -12 28 -4 218 100 l35 19 120 -65 c91 -49 123 -62 133 -54 8 7 11 21
8 34 -4 13 -17 72 -30 133 l-24 110 105 92 c65 57 103 98 101 108 -3 17 -40
23 -209 36 l-77 7 -55 126 c-33 77 -62 128 -71 130 -11 3 -25 -15 -44 -60z
m160 -240 c13 -3 67 -10 121 -13 l99 -7 -88 -82 -88 -82 17 -95 c9 -52 20
-104 23 -116 6 -20 -3 -17 -86 28 -50 28 -102 51 -114 52 -13 0 -64 -23 -114
-51 -51 -28 -92 -50 -92 -48 0 1 9 42 20 92 30 137 32 131 -67 222 l-87 80 99
6 c148 10 141 5 193 128 l46 108 47 -108 c36 -81 53 -108 71 -114z"/>
<path d="M85 1485 c-62 -32 -94 -104 -73 -166 6 -19 120 -221 252 -449 l241
-415 5 -225 c5 -224 5 -225 28 -228 l22 -3 0 224 0 224 -112 194 c-375 650
-398 693 -398 721 0 43 48 88 93 88 20 0 43 -3 52 -6 9 -4 110 -147 225 -318
114 -171 226 -332 249 -357 59 -67 121 -91 251 -97 127 -5 204 9 258 48 46 33
154 181 347 475 76 116 147 220 158 233 32 35 100 31 139 -8 54 -55 50 -66
-228 -540 l-249 -425 0 -225 c0 -218 1 -225 20 -225 19 0 20 8 25 220 4 163 9
227 19 245 8 14 118 203 245 420 126 217 234 411 240 431 13 49 -14 120 -56
150 -39 28 -104 35 -149 16 -31 -13 -64 -57 -231 -308 -236 -355 -276 -406
-343 -439 -44 -21 -63 -24 -155 -24 -143 1 -183 14 -245 77 -48 50 -211 283
-384 549 -61 94 -91 130 -116 142 -42 20 -91 20 -130 1z"/>
<path d="M857 1396 c-96 -35 -165 -108 -193 -205 -54 -183 92 -374 286 -374
205 0 350 203 283 399 -24 70 -110 154 -182 177 -63 20 -141 21 -194 3z m214
-62 c86 -43 132 -120 132 -219 -1 -167 -160 -289 -320 -246 -100 27 -183 134
-183 236 0 199 193 319 371 229z"/>
</g>
</svg>
