<?xml version="1.0" standalone="no"?>
<!DOCTYPE svg PUBLIC "-//W3C//DTD SVG 20010904//EN"
 "http://www.w3.org/TR/2001/REC-SVG-20010904/DTD/svg10.dtd">
<svg version="1.0" xmlns="http://www.w3.org/2000/svg"
 width="150.000000pt" height="215.000000pt" viewBox="0 0 150.000000 215.000000"
 preserveAspectRatio="xMidYMid meet">
<metadata>
Created by potrace 1.16, written by Peter Selinger 2001-2019
</metadata>
<g transform="translate(0.000000,215.000000) scale(0.100000,-0.100000)"
fill="#000000" stroke="none">
<path d="M661 2139 c-124 -24 -243 -115 -300 -227 -65 -129 -63 -262 6 -394
83 -159 268 -250 445 -220 284 49 441 348 319 608 -80 171 -280 270 -470 233z
m232 -69 c71 -27 162 -112 196 -183 93 -194 12 -416 -189 -515 -49 -24 -66
-27 -155 -27 -87 0 -107 4 -157 27 -150 70 -240 223 -225 382 19 203 193 354
397 343 45 -3 99 -13 133 -27z"/>
<path d="M519 1205 c-207 -43 -375 -165 -452 -327 -59 -125 -62 -148 -62 -528
0 -300 2 -345 15 -345 13 0 16 46 21 330 5 260 9 345 23 399 53 217 197 357
430 416 100 25 390 28 499 5 223 -47 392 -213 441 -432 13 -58 16 -135 16
-385 0 -317 3 -344 36 -331 20 7 19 584 0 693 -46 253 -207 426 -461 496 -83
23 -413 29 -506 9z"/>
<path d="M856 884 c-14 -13 -16 -61 -16 -373 0 -345 1 -359 20 -376 28 -25 47
-15 161 87 52 45 138 121 192 166 129 111 129 110 -5 233 -57 52 -147 136
-200 187 -99 93 -123 105 -152 76z m223 -207 c100 -92 181 -172 181 -177 0 -8
-365 -330 -375 -330 -3 0 -5 153 -5 341 0 206 4 339 9 337 5 -1 91 -79 190
-171z"/>
<path d="M307 544 c-4 -4 -7 -123 -7 -264 0 -198 3 -260 13 -268 34 -28 37 -1
35 269 -3 229 -5 264 -18 267 -9 1 -19 0 -23 -4z"/>
</g>
</svg>
