<?xml version="1.0" standalone="no"?>
<!DOCTYPE svg PUBLIC "-//W3C//DTD SVG 20010904//EN"
 "http://www.w3.org/TR/2001/REC-SVG-20010904/DTD/svg10.dtd">
<svg version="1.0" xmlns="http://www.w3.org/2000/svg"
 width="227.000000pt" height="243.000000pt" viewBox="0 0 227.000000 243.000000"
 preserveAspectRatio="xMidYMid meet">
<metadata>
Created by potrace 1.16, written by Peter Selinger 2001-2019
</metadata>
<g transform="translate(0.000000,243.000000) scale(0.100000,-0.100000)"
fill="#000000" stroke="none">
<path d="M1111 2416 c-8 -9 -11 -55 -9 -137 l3 -124 29 -3 c16 -2 32 2 37 10
14 21 11 242 -3 256 -16 16 -43 15 -57 -2z"/>
<path d="M331 2114 c-12 -9 -21 -22 -19 -29 2 -8 45 -59 97 -114 98 -105 129
-122 151 -82 5 11 10 23 10 27 0 9 -181 194 -201 204 -10 6 -24 4 -38 -6z"/>
<path d="M1819 2034 c-54 -54 -101 -106 -105 -116 -7 -22 12 -48 35 -48 9 0
63 47 120 104 107 107 114 123 71 146 -19 10 -31 2 -121 -86z"/>
<path d="M1016 1979 c-357 -59 -615 -378 -593 -734 10 -171 67 -298 204 -460
122 -145 126 -157 133 -370 5 -157 8 -186 27 -228 33 -72 75 -120 135 -153 53
-29 54 -29 218 -29 164 0 165 0 218 29 60 34 102 81 134 153 20 42 23 71 28
233 5 175 7 188 32 236 15 27 53 80 86 116 162 179 218 325 210 546 -5 131
-30 219 -90 320 -73 123 -226 253 -355 302 -115 44 -269 59 -387 39z m290 -89
c111 -29 211 -89 297 -180 190 -199 230 -476 102 -718 -19 -37 -69 -106 -110
-152 -96 -108 -145 -203 -152 -294 l-6 -66 -88 0 -89 0 0 293 0 292 80 80 c44
44 80 87 80 97 0 15 -27 38 -46 38 -3 0 -46 -39 -95 -87 l-89 -87 0 -313 0
-313 -50 0 -50 0 0 308 0 307 -95 95 c-81 80 -98 93 -113 84 -38 -24 -27 -53
52 -133 l75 -76 1 -290 1 -290 -84 -3 -84 -3 -6 63 c-9 84 -59 183 -138 273
-149 171 -199 288 -199 470 0 112 14 173 62 274 56 118 160 222 278 279 47 23
110 48 140 56 83 22 232 20 326 -4z m134 -1540 l0 -60 -300 0 -300 0 0 60 0
60 300 0 300 0 0 -60z m-26 -152 c-24 -44 -61 -81 -97 -101 -38 -20 -56 -22
-177 -22 -120 0 -140 3 -176 22 -35 19 -72 56 -98 101 -6 9 52 12 274 12 222
0 280 -3 274 -12z"/>
<path d="M17 1329 c-20 -12 -22 -40 -5 -57 17 -17 259 -17 276 0 16 16 15 33
-4 52 -12 13 -39 16 -132 16 -64 0 -125 -5 -135 -11z"/>
<path d="M1992 1328 c-6 -6 -12 -20 -12 -29 0 -34 24 -40 150 -37 104 3 125 6
134 21 8 12 8 22 0 35 -9 14 -30 17 -135 20 -88 2 -128 -1 -137 -10z"/>
</g>
</svg>
