<?xml version="1.0" standalone="no"?>
<!DOCTYPE svg PUBLIC "-//W3C//DTD SVG 20010904//EN"
 "http://www.w3.org/TR/2001/REC-SVG-20010904/DTD/svg10.dtd">
<svg version="1.0" xmlns="http://www.w3.org/2000/svg"
 width="177.000000pt" height="144.000000pt" viewBox="0 0 177.000000 144.000000"
 preserveAspectRatio="xMidYMid meet">
<metadata>
Created by potrace 1.16, written by Peter Selinger 2001-2019
</metadata>
<g transform="translate(0.000000,144.000000) scale(0.100000,-0.100000)"
fill="#000000" stroke="none">
<path d="M1555 1421 c-40 -25 -233 -231 -566 -606 -152 -171 -297 -332 -322
-360 l-47 -50 -38 45 c-20 24 -67 77 -104 117 -37 40 -106 118 -153 173 -47
55 -94 104 -105 110 -10 5 -41 10 -69 10 -42 0 -56 -5 -87 -32 -42 -37 -64
-82 -64 -131 0 -39 29 -82 117 -178 33 -35 101 -113 153 -174 273 -321 298
-345 355 -345 43 0 79 25 146 102 35 40 116 129 180 198 63 69 196 217 294
330 98 113 249 281 334 374 86 92 164 180 173 195 11 16 18 45 18 77 0 44 -5
56 -36 92 -61 72 -120 90 -179 53z m94 -36 c48 -24 81 -72 81 -115 0 -43 10
-30 -240 -300 -69 -74 -197 -218 -285 -320 -88 -102 -216 -246 -285 -320 -69
-74 -153 -167 -188 -207 -66 -75 -88 -89 -127 -79 -14 4 -84 76 -172 177 -81
95 -201 232 -265 306 -65 73 -121 144 -124 158 -15 60 50 135 116 135 35 0 44
-6 97 -67 32 -36 101 -114 153 -173 52 -59 116 -130 141 -158 33 -38 53 -52
72 -52 27 0 29 2 600 642 219 245 359 388 380 388 10 0 31 -7 46 -15z"/>
</g>
</svg>
