<?xml version="1.0" standalone="no"?>
<!DOCTYPE svg PUBLIC "-//W3C//DTD SVG 20010904//EN"
 "http://www.w3.org/TR/2001/REC-SVG-20010904/DTD/svg10.dtd">
<svg version="1.0" xmlns="http://www.w3.org/2000/svg"
 width="190.000000pt" height="183.000000pt" viewBox="0 0 190.000000 183.000000"
 preserveAspectRatio="xMidYMid meet">
<metadata>
Created by potrace 1.16, written by Peter Selinger 2001-2019
</metadata>
<g transform="translate(0.000000,183.000000) scale(0.100000,-0.100000)"
fill="#000000" stroke="none">
<path d="M1412 1820 c-30 -13 -52 -67 -52 -130 l0 -50 -404 0 -404 0 -4 65
c-5 84 -31 115 -95 115 -68 0 -93 -31 -93 -114 l0 -64 -123 -3 c-114 -4 -127
-6 -164 -31 -77 -51 -74 -10 -71 -802 3 -697 3 -705 24 -733 11 -15 38 -38 60
-50 l39 -23 820 0 821 0 44 23 c25 12 55 37 67 56 l23 34 0 707 0 707 -23 33
c-40 60 -76 74 -209 78 l-118 4 0 64 c0 51 -4 68 -22 89 -26 29 -79 40 -116
25z m77 -47 c21 -17 22 -25 19 -158 l-3 -140 -28 -9 c-56 -20 -62 -6 -65 158
-2 144 -2 147 20 156 32 12 33 12 57 -7z m-1001 -5 c5 -7 13 -72 17 -144 6
-116 5 -133 -10 -148 -11 -11 -29 -16 -49 -14 -30 3 -31 5 -37 63 -12 105 -10
230 3 243 16 16 63 15 76 0z m-128 -223 c0 -71 21 -112 66 -124 28 -8 45 -7
70 4 42 17 54 41 54 109 l0 56 410 0 410 0 0 -60 c0 -51 4 -65 25 -85 26 -27
80 -34 117 -14 30 16 49 72 42 119 l-7 40 112 0 c184 0 201 -19 201 -230 l0
-130 -910 0 -910 0 0 131 c0 209 17 228 203 229 l117 0 0 -45z m1500 -884 l0
-528 -23 -34 c-13 -19 -38 -39 -57 -46 -26 -9 -242 -12 -835 -12 -742 -1 -803
0 -835 17 -71 35 -70 25 -70 610 l0 522 910 0 910 0 0 -529z"/>
<path d="M413 881 c-53 -25 -78 -63 -77 -117 2 -75 35 -106 155 -144 79 -24
109 -52 109 -100 0 -106 -186 -122 -222 -19 -8 24 -14 28 -32 23 -30 -9 -30
-10 -17 -43 16 -38 47 -66 93 -86 67 -27 143 -12 195 40 30 30 33 39 33 90 0
52 -3 61 -34 89 -23 22 -58 39 -110 54 -93 27 -116 48 -116 101 0 31 6 44 26
60 53 41 150 20 174 -39 13 -31 25 -36 49 -21 25 16 -17 82 -69 109 -54 27
-101 28 -157 3z"/>
<path d="M770 683 c5 -195 6 -210 27 -239 25 -35 86 -64 136 -64 43 0 115 38
141 73 19 26 21 45 24 233 l3 204 -25 0 -26 0 0 -184 c0 -102 -4 -196 -10
-210 -26 -71 -139 -86 -192 -27 l-28 31 0 195 0 195 -27 0 -28 0 5 -207z"/>
<path d="M1230 640 l0 -250 25 0 25 0 2 201 3 202 109 -179 c59 -98 115 -189
122 -201 9 -14 24 -23 39 -23 l25 0 0 250 0 250 -25 0 -25 0 -2 -197 -3 -198
-120 197 c-109 179 -123 198 -147 198 l-28 0 0 -250z"/>
</g>
</svg>
