<?xml version="1.0" standalone="no"?>
<!DOCTYPE svg PUBLIC "-//W3C//DTD SVG 20010904//EN"
 "http://www.w3.org/TR/2001/REC-SVG-20010904/DTD/svg10.dtd">
<svg version="1.0" xmlns="http://www.w3.org/2000/svg"
 width="167.000000pt" height="296.000000pt" viewBox="0 0 167.000000 296.000000"
 preserveAspectRatio="xMidYMid meet">
<metadata>
Created by potrace 1.16, written by Peter Selinger 2001-2019
</metadata>
<g transform="translate(0.000000,296.000000) scale(0.100000,-0.100000)"
fill="#000000" stroke="none">
<path d="M160 2943 c-46 -24 -83 -79 -75 -113 3 -14 17 -35 30 -46 23 -21 30
-22 194 -16 l171 5 0 -97 0 -96 -68 0 c-61 0 -71 -3 -93 -26 -22 -23 -24 -35
-27 -140 l-4 -114 -28 0 c-53 0 -134 -38 -177 -82 -84 -87 -78 -34 -78 -739
l0 -625 28 -43 c20 -29 44 -50 80 -67 l52 -24 433 0 c295 0 448 4 479 12 64
16 118 71 138 142 14 47 16 127 13 623 -4 652 -1 627 -93 720 -53 52 -122 83
-187 83 l-28 0 0 115 c0 110 -1 117 -25 140 -15 16 -37 25 -57 26 -18 1 -46 2
-63 3 l-30 2 0 89 0 90 50 2 c85 5 111 12 135 38 18 20 22 31 17 62 -4 21 -15
49 -25 63 l-19 25 -354 3 c-321 2 -357 0 -389 -15z m717 -31 c16 -10 35 -61
27 -73 -3 -6 -16 -14 -29 -19 -36 -14 -724 -15 -738 -1 -19 19 5 64 43 83 31
16 70 18 360 18 179 0 330 -4 337 -8z m-177 -237 l0 -95 -85 0 -85 0 0 95 0
95 85 0 85 0 0 -95z m162 -152 c15 -14 18 -32 18 -120 l0 -103 -270 0 -270 0
0 108 c0 71 4 112 12 120 9 9 79 12 252 12 209 0 242 -2 258 -17z m127 -274
c65 -14 123 -56 158 -116 26 -44 28 -58 32 -165 l3 -118 -571 0 -571 0 0 108
c0 86 4 116 21 152 36 79 90 123 172 140 64 12 697 12 756 -1z m191 -829 l0
-380 -570 0 -570 0 0 380 0 380 570 0 570 0 0 -380z m0 -475 c0 -63 -14 -97
-60 -140 l-31 -30 -468 -3 -467 -3 -34 23 c-56 38 -74 71 -78 143 l-4 65 571
0 571 0 0 -55z"/>
<path d="M1662 25 c0 -17 2 -22 5 -12 2 9 2 23 0 30 -3 6 -5 -1 -5 -18z"/>
</g>
</svg>
