<?xml version="1.0" standalone="no"?>
<!DOCTYPE svg PUBLIC "-//W3C//DTD SVG 20010904//EN"
 "http://www.w3.org/TR/2001/REC-SVG-20010904/DTD/svg10.dtd">
<svg version="1.0" xmlns="http://www.w3.org/2000/svg"
 width="181.000000pt" height="180.000000pt" viewBox="0 0 181.000000 180.000000"
 preserveAspectRatio="xMidYMid meet">
<metadata>
Created by potrace 1.16, written by Peter Selinger 2001-2019
</metadata>
<g transform="translate(0.000000,180.000000) scale(0.100000,-0.100000)"
fill="#000000" stroke="none">
<path d="M890 1786 c0 -7 7 -30 15 -49 23 -55 19 -129 -11 -199 -25 -60 -22
-87 8 -75 20 7 61 134 61 191 1 66 -29 146 -54 146 -11 0 -19 -6 -19 -14z"/>
<path d="M286 1562 c-7 -12 6 -28 39 -45 50 -26 85 -71 113 -148 22 -58 32
-74 47 -74 12 0 19 6 18 15 -4 33 -47 137 -70 168 -46 62 -131 110 -147 84z"/>
<path d="M1491 1510 c-15 -50 -53 -96 -102 -120 -49 -26 -109 -78 -109 -96 0
-21 34 -17 56 7 10 12 43 35 72 51 29 17 65 46 81 65 30 36 56 107 46 123 -13
21 -32 8 -44 -30z"/>
<path d="M758 1331 c-190 -61 -319 -238 -318 -436 1 -126 44 -229 135 -320
144 -144 352 -176 542 -84 73 36 167 135 205 216 58 123 50 293 -19 412 -59
101 -155 178 -264 212 -79 25 -203 24 -281 0z m324 -64 c280 -138 321 -504 78
-696 -81 -64 -147 -85 -265 -85 -91 0 -106 3 -167 31 -351 163 -322 644 47
776 38 13 73 17 141 14 82 -2 100 -7 166 -40z"/>
<path d="M45 965 c-22 -8 -41 -15 -42 -15 -2 0 -3 -7 -3 -16 0 -13 7 -15 32
-10 109 20 133 19 199 -8 68 -27 94 -32 103 -18 9 14 -8 27 -69 52 -73 30
-164 36 -220 15z"/>
<path d="M1473 953 c-53 -18 71 -74 178 -81 52 -3 77 0 113 16 26 12 46 28 46
36 0 20 -18 20 -63 1 -47 -20 -128 -19 -175 1 -53 23 -85 32 -99 27z"/>
<path d="M399 480 c-37 -22 -81 -55 -97 -75 -34 -38 -58 -104 -48 -130 10 -26
30 -12 39 28 12 49 69 110 142 150 33 18 61 40 63 50 6 28 -27 20 -99 -23z"/>
<path d="M1304 506 c-9 -24 72 -171 113 -205 41 -34 96 -56 118 -47 26 10 16
25 -32 46 -67 30 -91 55 -128 136 -33 70 -60 97 -71 70z"/>
<path d="M877 293 c-30 -67 -34 -173 -10 -238 11 -29 26 -51 36 -53 22 -4 22
23 2 71 -21 52 -19 129 6 187 36 83 3 114 -34 33z"/>
</g>
</svg>
