<?xml version="1.0" standalone="no"?>
<!DOCTYPE svg PUBLIC "-//W3C//DTD SVG 20010904//EN"
 "http://www.w3.org/TR/2001/REC-SVG-20010904/DTD/svg10.dtd">
<svg version="1.0" xmlns="http://www.w3.org/2000/svg"
 width="236.000000pt" height="182.000000pt" viewBox="0 0 236.000000 182.000000"
 preserveAspectRatio="xMidYMid meet">
<metadata>
Created by potrace 1.16, written by Peter Selinger 2001-2019
</metadata>
<g transform="translate(0.000000,182.000000) scale(0.100000,-0.100000)"
fill="#000000" stroke="none">
<path d="M1579 1802 c-114 -38 -213 -136 -260 -260 -70 -186 25 -426 206 -515
206 -103 461 -16 557 189 101 216 20 458 -189 561 -68 33 -84 37 -167 40 -68
2 -105 -2 -147 -15z m283 -54 c155 -71 248 -244 219 -403 -32 -170 -142 -283
-308 -315 -134 -26 -278 31 -360 142 -153 209 -64 503 180 590 75 27 193 21
269 -14z"/>
<path d="M529 1667 c-107 -37 -182 -108 -236 -222 -25 -54 -28 -71 -28 -170 0
-105 2 -114 34 -180 71 -144 195 -226 352 -233 154 -8 270 45 354 159 131 178
108 425 -52 568 -77 69 -143 93 -263 98 -80 3 -106 0 -161 -20z m303 -49 c79
-37 142 -98 181 -177 30 -61 32 -73 32 -166 0 -89 -3 -106 -27 -155 -76 -154
-197 -227 -362 -218 -145 8 -256 80 -319 207 -30 61 -32 73 -32 166 0 87 3
107 27 157 68 146 191 220 358 215 67 -2 97 -8 142 -29z"/>
<path d="M1545 874 c-38 -9 -108 -34 -155 -56 -70 -34 -100 -56 -170 -128
l-86 -87 -34 29 c-53 44 -186 104 -273 123 -115 25 -284 17 -394 -19 -154 -50
-285 -159 -357 -296 -49 -93 -66 -167 -73 -312 -6 -123 -5 -128 14 -128 19 0
21 9 26 123 10 199 54 313 167 427 106 106 247 167 415 177 246 15 494 -108
593 -295 49 -93 64 -156 71 -297 5 -113 8 -130 24 -133 15 -3 17 7 17 110 0
171 -39 299 -126 412 l-35 46 20 29 c11 15 50 56 87 91 123 114 284 167 479
157 261 -13 459 -149 537 -369 19 -55 23 -90 27 -268 5 -185 8 -205 24 -208
16 -3 17 11 17 190 0 141 -4 210 -15 253 -56 218 -235 382 -467 429 -95 20
-240 19 -333 0z"/>
</g>
</svg>
