<?xml version="1.0" standalone="no"?>
<!DOCTYPE svg PUBLIC "-//W3C//DTD SVG 20010904//EN"
 "http://www.w3.org/TR/2001/REC-SVG-20010904/DTD/svg10.dtd">
<svg version="1.0" xmlns="http://www.w3.org/2000/svg"
 width="206.000000pt" height="233.000000pt" viewBox="0 0 206.000000 233.000000"
 preserveAspectRatio="xMidYMid meet">
<metadata>
Created by potrace 1.16, written by Peter Selinger 2001-2019
</metadata>
<g transform="translate(0.000000,233.000000) scale(0.100000,-0.100000)"
fill="#000000" stroke="none">
<path d="M697 2315 c-132 -36 -238 -122 -291 -234 -27 -57 -31 -77 -30 -146 1
-91 19 -148 109 -340 48 -102 55 -124 55 -179 0 -47 -6 -75 -26 -115 -26 -52
-27 -53 -168 -120 -176 -84 -247 -144 -303 -259 l-38 -76 0 -345 c0 -338 1
-347 22 -387 27 -51 72 -90 121 -104 25 -7 192 -10 502 -8 l465 3 3 62 c3 60
4 62 35 69 73 15 410 134 451 158 49 29 120 104 144 152 l15 32 113 4 c95 3
117 6 141 24 37 27 50 65 35 99 -10 21 -18 25 -52 25 -39 0 -40 1 -40 34 0
104 -83 250 -178 314 -57 38 -156 72 -213 72 l-39 0 0 59 c0 57 -12 83 -30 65
-5 -5 -10 -34 -12 -64 l-4 -55 -59 -7 c-179 -23 -326 -167 -358 -352 l-11 -66
-48 0 c-41 0 -48 -3 -48 -20 0 -20 7 -20 530 -20 292 0 530 -4 530 -8 0 -5 -6
-17 -14 -28 -14 -18 -33 -19 -393 -24 l-380 -5 -43 -30 c-101 -71 -65 -65
-406 -65 l-311 0 -6 97 c-4 54 -7 120 -7 146 0 41 -3 48 -17 45 -16 -3 -18
-19 -21 -143 -1 -77 0 -150 3 -162 5 -23 6 -23 225 -23 l220 0 0 -68 c0 -38 3
-117 7 -176 l6 -107 -365 3 -365 3 -35 27 c-70 54 -73 67 -76 406 -3 257 -1
311 13 360 21 73 65 141 124 193 46 42 275 162 297 157 6 -2 69 -68 140 -147
71 -79 136 -148 145 -154 11 -7 36 3 98 42 79 49 85 51 102 35 10 -9 24 -38
32 -63 17 -61 42 -63 41 -3 l-1 43 58 -7 57 -6 6 53 c3 30 4 70 1 89 -2 19 -4
54 -4 78 -1 38 -4 42 -25 42 -14 0 -35 -4 -48 -9 -13 -4 -35 -11 -50 -15 -28
-6 -28 -6 -28 43 0 26 3 63 6 80 6 31 7 31 69 31 130 0 154 25 166 179 4 58 8
107 8 109 1 1 15 2 31 2 32 0 70 30 70 55 0 8 -18 54 -39 104 -37 82 -40 97
-42 188 -1 83 2 105 20 141 31 62 29 133 -6 172 -27 30 -32 31 -173 45 -177
18 -348 18 -413 0z m383 -40 c137 -14 157 -18 174 -38 27 -32 17 -99 -20 -138
-30 -31 -54 -40 -178 -64 -48 -9 -95 -25 -119 -41 -44 -29 -76 -90 -77 -146 0
-47 -21 -50 -56 -9 -54 64 -137 79 -184 33 -42 -42 -49 -106 -21 -199 11 -40
21 -78 21 -85 -1 -15 -47 -75 -53 -68 -10 14 -110 247 -127 296 -46 131 -13
262 87 356 122 113 235 134 553 103z m148 -341 c3 -85 8 -107 39 -176 19 -44
32 -86 29 -94 -3 -8 -19 -14 -40 -14 -30 0 -36 -4 -44 -32 -6 -18 -12 -73 -15
-122 -6 -114 -18 -128 -113 -134 -54 -4 -78 0 -135 23 -38 15 -76 24 -84 21
-31 -12 -13 -34 43 -55 l58 -21 -3 -62 c-5 -87 -12 -128 -23 -128 -5 0 -69 38
-143 83 -73 46 -153 95 -176 108 l-43 24 7 54 c5 38 17 69 41 104 19 27 34 55
34 63 0 11 5 11 25 2 21 -9 29 -9 42 4 18 19 10 38 -16 38 -19 0 -51 31 -70
67 -6 12 -11 46 -11 76 0 107 61 126 140 45 30 -32 46 -41 71 -40 47 1 69 27
69 80 0 51 21 93 60 116 16 9 72 25 125 36 54 10 100 22 103 25 20 19 27 -3
30 -91z m-530 -701 l52 -34 0 -97 c0 -53 3 -108 7 -121 4 -14 2 -22 -4 -20
-10 4 -213 225 -227 248 -4 6 5 31 20 56 l26 45 37 -22 c20 -12 60 -37 89 -55z
m175 -107 c71 -43 83 -57 67 -86 -10 -18 -128 -96 -134 -89 -8 9 -16 221 -8
217 4 -1 38 -21 75 -42z m237 -71 l0 -84 -62 22 -62 22 -1 48 -1 47 46 14 c82
25 80 27 80 -69z m528 -59 c147 -40 254 -162 277 -319 l7 -47 -411 0 -410 0 5
33 c32 180 112 279 264 328 67 22 195 24 268 5z m-153 -516 l50 -1 -40 -24
c-21 -13 -52 -27 -67 -30 -30 -7 -55 -39 -38 -50 18 -11 112 30 157 69 40 35
48 38 103 38 33 0 61 -3 61 -7 3 -16 -73 -105 -113 -133 -44 -30 -416 -162
-457 -162 -20 0 -21 4 -21 110 0 61 4 110 9 110 4 0 29 16 55 36 62 47 86 54
176 49 41 -2 98 -5 125 -5z m-407 -267 l2 -173 -80 0 -80 0 0 175 0 176 78 -3
77 -3 3 -172z"/>
</g>
</svg>
