<?xml version="1.0" standalone="no"?>
<!DOCTYPE svg PUBLIC "-//W3C//DTD SVG 20010904//EN"
 "http://www.w3.org/TR/2001/REC-SVG-20010904/DTD/svg10.dtd">
<svg version="1.0" xmlns="http://www.w3.org/2000/svg"
 width="201.000000pt" height="232.000000pt" viewBox="0 0 201.000000 232.000000"
 preserveAspectRatio="xMidYMid meet">
<metadata>
Created by potrace 1.16, written by Peter Selinger 2001-2019
</metadata>
<g transform="translate(0.000000,232.000000) scale(0.100000,-0.100000)"
fill="#000000" stroke="none">
<path d="M850 2305 c-30 -9 -105 -40 -166 -70 -125 -60 -176 -108 -237 -218
-63 -113 -91 -231 -122 -502 -25 -218 -74 -434 -107 -471 -33 -37 -23 -58 55
-118 86 -66 161 -99 278 -121 141 -27 134 -24 118 -39 -8 -8 -39 -21 -69 -31
-87 -28 -268 -103 -355 -148 -184 -95 -245 -214 -245 -475 l0 -113 27 3 28 3
6 130 c14 271 72 345 369 471 36 15 84 33 107 40 l43 13 32 -47 c86 -127 137
-168 251 -198 72 -19 224 -18 284 2 90 30 205 128 259 220 10 17 17 16 130
-25 333 -121 414 -220 414 -506 l0 -105 31 0 31 0 -4 142 c-5 157 -19 211 -78
301 -62 93 -208 174 -475 267 -162 55 -169 64 -60 79 155 22 281 75 363 154
37 36 40 62 11 93 -28 30 -73 214 -94 386 -50 411 -56 442 -120 574 -34 71
-56 102 -97 138 -61 53 -177 116 -281 153 -92 32 -245 40 -327 18z m252 -64
c138 -36 299 -124 352 -194 74 -96 110 -227 146 -522 28 -229 37 -281 71 -414
l30 -114 -23 -24 c-52 -57 -206 -113 -349 -127 l-67 -7 -7 61 -7 62 37 37 c55
52 101 128 132 218 24 70 27 95 31 256 3 132 1 181 -8 192 -7 8 -44 36 -82 61
-97 65 -192 164 -229 240 -34 69 -52 89 -69 79 -5 -3 -26 -32 -46 -63 -45 -71
-74 -102 -146 -158 -68 -53 -162 -99 -235 -115 -29 -7 -59 -19 -67 -28 -25
-27 -41 -217 -27 -309 25 -161 53 -229 137 -334 53 -66 54 -68 54 -132 l0 -66
-47 6 c-151 19 -331 82 -377 133 -17 19 -17 25 18 163 23 90 45 221 61 353 31
257 56 368 103 464 64 130 172 215 342 269 115 37 168 39 272 13z m11 -373
c52 -72 105 -124 197 -194 36 -27 69 -53 73 -59 13 -15 -1 -293 -17 -352 -32
-118 -95 -206 -180 -251 -48 -25 -59 -27 -176 -27 -122 0 -127 1 -192 33 -104
51 -167 139 -204 283 -19 73 -17 310 3 330 6 6 44 22 85 36 124 42 186 81 278
174 47 48 86 88 87 88 1 1 21 -27 46 -61z m-73 -954 c52 4 107 9 121 12 25 6
27 4 33 -49 10 -81 42 -136 98 -172 26 -16 48 -36 48 -43 0 -21 -123 -136
-179 -166 -110 -59 -292 -44 -395 34 -36 28 -116 123 -116 139 0 4 18 15 40
25 22 9 48 30 59 45 22 30 51 133 51 178 l0 29 73 -19 c57 -15 91 -17 167 -13z"/>
</g>
</svg>
