<?xml version="1.0" standalone="no"?>
<!DOCTYPE svg PUBLIC "-//W3C//DTD SVG 20010904//EN"
 "http://www.w3.org/TR/2001/REC-SVG-20010904/DTD/svg10.dtd">
<svg version="1.0" xmlns="http://www.w3.org/2000/svg"
 width="155.000000pt" height="204.000000pt" viewBox="0 0 155.000000 204.000000"
 preserveAspectRatio="xMidYMid meet">
<metadata>
Created by potrace 1.16, written by Peter Selinger 2001-2019
</metadata>
<g transform="translate(0.000000,204.000000) scale(0.100000,-0.100000)"
fill="#000000" stroke="none">
<path d="M692 2023 c-37 -18 -67 -56 -77 -96 -7 -27 -7 -27 -102 -27 -52 0
-103 -5 -113 -10 -11 -6 -22 -26 -26 -45 l-6 -35 -129 0 c-143 0 -182 -10
-217 -55 l-22 -28 0 -823 0 -824 34 -38 34 -37 707 0 707 0 34 37 34 38 0 824
0 823 -22 28 c-36 46 -73 55 -223 55 l-135 0 0 25 c0 14 -9 34 -20 45 -17 17
-33 20 -120 20 -86 0 -100 2 -100 16 0 31 -42 84 -81 104 -46 24 -112 25 -157
3z m122 -37 c44 -18 76 -61 76 -102 l0 -33 116 -3 115 -3 1 -75 c0 -41 0 -83
-1 -92 -1 -17 -25 -18 -350 -18 l-350 0 -3 38 c-2 20 -1 63 0 94 l4 57 111 3
111 3 8 39 c10 47 31 74 73 92 38 17 49 17 89 0z m-444 -260 c0 -40 16 -87 33
-98 7 -4 175 -8 374 -8 l362 0 15 22 c9 13 16 43 16 70 l0 48 144 0 c130 0
146 -2 170 -21 l26 -20 0 -810 0 -811 -29 -29 -30 -29 -680 2 -679 3 -26 24
-26 24 0 809 0 809 25 24 c23 24 29 25 165 25 l140 0 0 -34z"/>
<path d="M442 1323 c-11 -16 -35 -54 -55 -86 l-34 -58 -28 46 c-18 31 -32 45
-43 43 -9 -2 -17 -10 -16 -18 2 -24 74 -130 88 -130 17 0 140 205 131 220 -10
17 -22 12 -43 -17z"/>
<path d="M615 1269 c-4 -6 -3 -15 2 -20 5 -5 146 -8 339 -7 285 3 329 5 329
18 0 13 -45 15 -332 18 -233 1 -334 -1 -338 -9z"/>
<path d="M447 919 c-9 -13 -33 -54 -55 -91 l-39 -68 -31 50 c-33 53 -46 60
-56 34 -7 -20 64 -138 86 -142 9 -2 37 36 77 104 56 94 61 108 48 121 -13 14
-17 13 -30 -8z"/>
<path d="M614 859 c-17 -29 20 -32 341 -32 180 1 329 4 332 7 3 3 3 12 0 21
-6 13 -48 15 -336 15 -227 0 -332 -3 -337 -11z"/>
<path d="M426 465 c-21 -31 -45 -72 -55 -91 l-19 -35 -26 45 c-27 46 -53 64
-62 43 -4 -12 52 -117 76 -141 14 -14 29 3 95 113 50 83 55 95 42 108 -13 14
-19 9 -51 -42z"/>
<path d="M615 440 c-17 -27 17 -30 341 -30 314 0 335 1 332 18 -3 16 -28 17
-335 20 -216 1 -334 -1 -338 -8z"/>
</g>
</svg>
