<?xml version="1.0" standalone="no"?>
<!DOCTYPE svg PUBLIC "-//W3C//DTD SVG 20010904//EN"
 "http://www.w3.org/TR/2001/REC-SVG-20010904/DTD/svg10.dtd">
<svg version="1.0" xmlns="http://www.w3.org/2000/svg"
 width="109.000000pt" height="246.000000pt" viewBox="0 0 109.000000 246.000000"
 preserveAspectRatio="xMidYMid meet">
<metadata>
Created by potrace 1.16, written by Peter Selinger 2001-2019
</metadata>
<g transform="translate(0.000000,246.000000) scale(0.100000,-0.100000)"
fill="#000000" stroke="none">
<path d="M459 2447 c-98 -37 -158 -100 -185 -196 -44 -148 43 -303 194 -347
64 -19 122 -14 190 16 102 45 162 138 162 251 0 121 -44 201 -140 253 -63 34
-163 45 -221 23z m191 -67 c128 -66 159 -244 62 -352 -74 -82 -174 -100 -273
-50 -77 39 -112 92 -117 180 -4 76 9 117 53 170 65 78 182 100 275 52z"/>
<path d="M184 1806 c-66 -31 -120 -86 -153 -155 l-26 -56 -3 -310 c-2 -281 -1
-313 15 -344 34 -65 98 -90 173 -68 l25 8 0 -368 c0 -361 0 -369 22 -410 57
-106 183 -129 271 -48 l37 33 37 -33 c67 -61 151 -65 224 -10 63 48 64 54 64
468 l0 375 31 -15 c57 -28 133 -1 166 60 16 29 18 64 18 337 0 352 -4 373 -82
460 -86 96 -81 95 -448 98 -320 2 -320 2 -371 -22z m718 -59 c26 -15 59 -42
72 -60 52 -68 56 -96 56 -417 0 -286 -1 -298 -21 -324 -27 -34 -86 -37 -115
-5 -17 19 -19 43 -24 283 -5 253 -6 261 -25 261 -20 0 -20 -8 -25 -677 l-5
-678 -30 -30 c-57 -56 -142 -50 -188 14 -22 30 -22 38 -27 421 -5 382 -5 390
-25 390 -20 0 -20 -8 -25 -390 -5 -362 -6 -392 -24 -418 -52 -76 -151 -75
-203 2 l-23 34 0 653 c0 359 -3 659 -6 668 -3 9 -14 16 -24 16 -10 0 -21 -7
-24 -16 -3 -9 -6 -130 -6 -269 0 -251 0 -254 -22 -269 -35 -24 -81 -20 -109
10 l-24 26 3 306 3 307 27 55 c15 30 43 67 63 83 69 55 87 57 409 54 l295 -2
47 -28z"/>
</g>
</svg>
