<?xml version="1.0" standalone="no"?>
<!DOCTYPE svg PUBLIC "-//W3C//DTD SVG 20010904//EN"
 "http://www.w3.org/TR/2001/REC-SVG-20010904/DTD/svg10.dtd">
<svg version="1.0" xmlns="http://www.w3.org/2000/svg"
 width="233.000000pt" height="142.000000pt" viewBox="0 0 233.000000 142.000000"
 preserveAspectRatio="xMidYMid meet">
<metadata>
Created by potrace 1.16, written by Peter Selinger 2001-2019
</metadata>
<g transform="translate(0.000000,142.000000) scale(0.100000,-0.100000)"
fill="#000000" stroke="none">
<path d="M1485 1415 c-5 -2 -29 -9 -52 -15 -41 -10 -56 -31 -33 -45 6 -4 42
-1 80 6 128 23 230 -19 230 -93 0 -67 -15 -75 -157 -83 -71 -3 -162 -8 -203
-11 -41 -2 -172 -9 -290 -14 l-215 -11 -20 23 c-11 13 -27 34 -36 48 -10 16
-21 21 -32 17 -22 -8 -21 -36 3 -67 26 -33 25 -40 -11 -101 -17 -29 -46 -83
-65 -122 l-35 -69 -37 9 c-20 4 -93 8 -162 8 -121 0 -128 -1 -190 -32 -180
-89 -284 -286 -251 -477 39 -228 220 -387 440 -386 124 1 227 41 317 123 64
58 121 166 131 245 l6 52 92 0 c101 0 122 10 110 52 -12 39 -111 306 -174 468
-34 85 -61 158 -61 161 0 3 109 9 243 13 133 4 262 9 287 11 25 3 106 9 180
15 149 10 151 11 171 84 30 110 -44 186 -186 192 -38 2 -74 2 -80 -1z m-646
-377 c24 -57 211 -554 211 -562 0 -3 -31 -6 -68 -6 l-68 0 -12 63 c-21 116
-96 233 -190 299 l-24 16 62 116 c34 64 64 116 66 116 3 0 13 -19 23 -42z
m-251 -199 c17 -6 32 -12 32 -14 0 -4 -23 -49 -143 -278 -69 -131 -76 -127
185 -127 l199 0 -6 -37 c-11 -66 -75 -181 -124 -225 -128 -113 -315 -140 -463
-66 -56 28 -142 118 -174 185 -27 54 -29 67 -29 173 0 106 2 120 29 177 49
106 142 183 266 219 49 14 171 10 228 -7z m146 -93 c63 -61 112 -152 122 -229
l7 -47 -182 0 c-101 0 -181 4 -179 8 16 41 164 322 169 322 4 0 32 -24 63 -54z"/>
<path d="M857 1314 c-1 -1 -60 -4 -132 -7 -122 -5 -130 -6 -133 -26 -3 -20 0
-21 130 -21 178 0 208 6 208 37 0 21 -4 23 -35 21 -20 -1 -37 -3 -38 -4z"/>
<path d="M1534 1106 c-3 -8 22 -68 55 -134 l60 -120 -50 -33 c-101 -68 -178
-204 -187 -329 -9 -137 31 -248 123 -348 89 -96 194 -142 327 -142 180 0 333
94 412 251 49 98 63 186 43 280 -8 41 -25 96 -37 122 -30 67 -140 175 -215
212 -58 29 -65 30 -185 28 -69 0 -139 -3 -156 -5 -31 -3 -33 -1 -92 112 -57
110 -85 140 -98 106z m451 -266 c83 -29 137 -63 185 -117 78 -88 105 -170 98
-295 -9 -169 -117 -309 -276 -358 -248 -78 -484 69 -524 326 -14 90 -3 159 39
242 27 54 132 162 158 162 8 0 43 -74 90 -195 43 -107 81 -197 85 -200 4 -2
14 1 23 8 17 13 21 1 -121 364 -9 23 -13 46 -9 49 10 11 115 32 158 33 20 1
62 -8 94 -19z"/>
<path d="M1315 750 c-102 -148 -183 -275 -180 -280 18 -28 46 -5 115 98 41 59
120 174 177 255 57 81 103 154 103 161 0 7 -6 19 -14 25 -12 10 -48 -37 -201
-259z"/>
</g>
</svg>
