<?xml version="1.0" standalone="no"?>
<!DOCTYPE svg PUBLIC "-//W3C//DTD SVG 20010904//EN"
 "http://www.w3.org/TR/2001/REC-SVG-20010904/DTD/svg10.dtd">
<svg version="1.0" xmlns="http://www.w3.org/2000/svg"
 width="232.000000pt" height="95.000000pt" viewBox="0 0 232.000000 95.000000"
 preserveAspectRatio="xMidYMid meet">
<metadata>
Created by potrace 1.16, written by Peter Selinger 2001-2019
</metadata>
<g transform="translate(0.000000,95.000000) scale(0.100000,-0.100000)"
fill="#000000" stroke="none">
<path d="M650 939 c-42 -8 -610 -279 -638 -304 -17 -15 -5 -45 18 -45 9 0 142
61 296 136 280 137 347 164 416 164 58 0 766 -128 798 -145 67 -35 82 -115 31
-166 -36 -36 -26 -35 -336 -4 -136 14 -251 22 -256 19 -12 -7 -12 -41 0 -49 6
-3 97 -15 203 -26 106 -11 230 -26 275 -35 l82 -15 283 137 c323 157 353 165
406 116 44 -42 44 -89 0 -136 -19 -20 -136 -93 -268 -167 -129 -72 -314 -176
-410 -230 -187 -104 -248 -126 -329 -115 -25 3 -188 38 -361 77 -226 50 -328
69 -360 66 -30 -3 -95 -31 -200 -85 -134 -69 -155 -83 -155 -103 0 -38 36 -28
181 50 80 44 148 73 175 77 34 5 115 -10 364 -67 259 -59 335 -73 400 -73 100
1 106 3 455 201 146 82 312 176 370 208 153 86 188 111 211 157 40 79 2 181
-80 215 -68 29 -115 15 -348 -101 -118 -58 -216 -106 -218 -106 -1 0 -1 18 2
39 8 56 -2 86 -43 131 -43 48 -56 52 -269 89 -93 17 -257 46 -363 66 -196 36
-252 40 -332 24z"/>
</g>
</svg>
