<?xml version="1.0" standalone="no"?>
<!DOCTYPE svg PUBLIC "-//W3C//DTD SVG 20010904//EN"
 "http://www.w3.org/TR/2001/REC-SVG-20010904/DTD/svg10.dtd">
<svg version="1.0" xmlns="http://www.w3.org/2000/svg"
 width="201.000000pt" height="217.000000pt" viewBox="0 0 201.000000 217.000000"
 preserveAspectRatio="xMidYMid meet">
<metadata>
Created by potrace 1.16, written by Peter Selinger 2001-2019
</metadata>
<g transform="translate(0.000000,217.000000) scale(0.100000,-0.100000)"
fill="#000000" stroke="none">
<path d="M885 2160 c-204 -29 -363 -156 -424 -338 -17 -48 -21 -87 -21 -178 0
-109 -2 -118 -25 -146 -78 -93 -44 -262 69 -339 28 -18 45 -41 61 -82 29 -70
70 -129 132 -189 l48 -47 -3 -66 -4 -66 -59 -29 c-32 -17 -65 -30 -72 -30 -22
0 -265 -98 -331 -133 -143 -76 -216 -181 -241 -348 -21 -135 -20 -169 5 -169
21 0 25 16 34 130 3 36 15 96 26 134 19 59 31 79 84 132 36 36 88 75 126 94
62 31 261 110 279 110 11 0 131 -182 186 -284 26 -47 51 -86 56 -86 5 0 43 36
85 80 42 44 80 80 84 80 4 0 7 -8 7 -17 -1 -273 4 -373 18 -373 13 0 15 29 15
197 l0 198 83 -83 c45 -45 87 -82 92 -82 6 1 20 21 32 45 30 61 205 335 214
335 3 0 51 -18 105 -41 218 -90 307 -154 361 -256 36 -69 49 -120 59 -230 6
-74 9 -83 27 -83 19 0 20 4 14 88 -16 215 -88 337 -257 430 -61 34 -290 130
-325 136 -37 7 -103 44 -119 68 -10 14 -16 44 -16 79 0 53 2 57 41 89 49 39
110 129 135 201 14 38 27 55 54 70 67 38 110 123 110 215 0 59 -12 99 -39 129
-15 16 -20 43 -24 135 -6 131 -28 214 -77 290 -63 97 -173 176 -300 214 -66
20 -222 28 -305 16z m295 -56 c176 -52 304 -185 339 -352 6 -29 11 -89 11
-132 0 -69 -2 -80 -17 -80 -10 0 -27 -3 -39 -6 -19 -5 -21 1 -32 87 -16 118
-22 129 -72 129 -42 0 -85 29 -109 74 -8 14 -19 26 -24 26 -6 0 -33 -22 -62
-49 -58 -55 -116 -88 -190 -107 -69 -19 -127 -17 -246 6 -56 11 -106 17 -111
13 -17 -10 -57 -106 -64 -151 -5 -32 -10 -42 -21 -38 -8 3 -26 6 -39 6 -24 0
-24 0 -24 108 0 168 33 255 134 350 74 70 176 118 291 136 56 8 220 -3 275
-20z m74 -335 c21 -31 56 -52 95 -59 35 -5 36 -7 48 -70 13 -70 17 -153 7
-163 -3 -3 -20 11 -37 30 -77 87 -201 84 -268 -6 -22 -29 -26 -31 -91 -31 -66
0 -70 1 -100 36 -40 45 -77 64 -128 64 -56 0 -99 -20 -137 -64 -18 -20 -35
-36 -38 -36 -16 0 -2 110 19 156 l24 51 88 -19 c114 -23 183 -23 266 1 70 19
164 70 200 108 26 28 33 29 52 2z m-414 -254 c63 -32 87 -117 52 -184 -57
-113 -225 -80 -247 49 -18 105 97 185 195 135z m466 -4 c43 -26 67 -81 59
-132 -8 -46 -58 -104 -98 -114 -105 -27 -193 74 -156 179 27 77 124 110 195
67z m255 -40 c25 -26 29 -37 29 -88 0 -82 -37 -154 -95 -188 -35 -21 -46 -36
-64 -83 -47 -123 -125 -209 -235 -261 -83 -39 -157 -55 -225 -48 -186 18 -328
128 -396 307 -15 40 -33 70 -41 70 -26 0 -82 60 -104 112 -58 135 31 254 129
172 25 -20 31 -34 31 -64 0 -21 6 -43 15 -50 8 -7 15 -17 15 -23 0 -25 53 -77
94 -92 114 -44 236 39 236 160 l0 35 55 0 55 0 0 -35 c0 -121 122 -204 236
-160 24 9 51 27 60 38 50 73 64 101 64 133 0 44 45 94 85 94 16 0 38 -12 56
-29z m-302 -703 l-1 -63 -129 -124 -129 -124 -121 118 -122 119 2 60 c2 34 4
62 5 63 1 1 32 -9 70 -23 126 -45 244 -42 360 11 28 13 54 24 59 24 4 1 6 -27
6 -61z m77 -119 c27 -12 51 -23 53 -25 3 -3 -47 -87 -134 -224 -12 -20 -32
-55 -45 -79 l-22 -44 -78 78 c-44 43 -77 82 -74 86 6 11 242 229 247 229 3 0
26 -10 53 -21z m-578 -13 c20 -13 77 -64 125 -114 l89 -89 -78 -71 c-68 -62
-80 -69 -88 -54 -5 9 -49 81 -98 159 -48 78 -88 146 -88 150 0 8 72 40 93 42
4 1 24 -10 45 -23z"/>
</g>
</svg>
