<?xml version="1.0" standalone="no"?>
<!DOCTYPE svg PUBLIC "-//W3C//DTD SVG 20010904//EN"
 "http://www.w3.org/TR/2001/REC-SVG-20010904/DTD/svg10.dtd">
<svg version="1.0" xmlns="http://www.w3.org/2000/svg"
 width="190.000000pt" height="183.000000pt" viewBox="0 0 190.000000 183.000000"
 preserveAspectRatio="xMidYMid meet">
<metadata>
Created by potrace 1.16, written by Peter Selinger 2001-2019
</metadata>
<g transform="translate(0.000000,183.000000) scale(0.100000,-0.100000)"
fill="#000000" stroke="none">
<path d="M30 1821 l-25 -7 0 -893 c0 -878 0 -894 20 -907 16 -12 170 -14 925
-14 803 0 908 2 928 16 l22 15 0 884 0 884 -22 15 c-20 14 -123 16 -923 15
-495 -1 -911 -4 -925 -8z m1823 -897 c4 -471 4 -861 1 -865 -3 -5 -410 -9
-905 -9 l-899 0 0 865 0 865 898 0 899 0 6 -856z"/>
<path d="M271 1557 c-8 -10 -11 -66 -9 -188 3 -166 4 -174 23 -174 19 0 20 8
23 139 l3 139 91 -142 c63 -99 95 -141 107 -139 14 3 16 27 19 182 3 184 -2
211 -33 186 -14 -12 -16 -33 -13 -143 2 -89 0 -124 -7 -112 -55 89 -172 260
-181 262 -6 2 -16 -3 -23 -10z"/>
<path d="M634 1557 c-2 -7 -3 -91 -2 -187 l3 -175 115 0 c108 0 115 1 115 20
0 18 -8 20 -92 23 l-93 3 0 57 0 57 55 -3 c58 -4 88 9 78 34 -4 10 -23 14 -69
14 l-64 0 0 60 0 60 85 0 c69 0 87 3 92 16 10 26 -17 34 -120 34 -70 0 -99 -4
-103 -13z"/>
<path d="M924 1556 c-3 -9 18 -95 47 -191 68 -225 72 -226 131 -39 l43 136 40
-133 c34 -113 44 -134 60 -134 17 0 28 26 72 170 29 94 53 176 53 183 0 17
-29 27 -41 15 -5 -5 -26 -68 -47 -140 l-37 -131 -40 129 c-38 127 -57 162 -75
143 -5 -5 -26 -67 -48 -138 l-40 -130 -16 60 c-52 182 -62 209 -79 212 -9 2
-20 -4 -23 -12z"/>
<path d="M1458 1541 c-27 -24 -33 -36 -32 -70 2 -50 21 -74 89 -108 65 -33 85
-51 85 -78 0 -26 -16 -42 -45 -45 -39 -4 -54 0 -84 26 -17 14 -38 23 -46 20
-44 -17 21 -86 89 -93 64 -8 94 3 116 40 41 67 16 118 -81 167 -75 38 -96 72
-63 104 22 22 70 20 103 -5 31 -23 51 -19 51 11 0 27 -60 60 -109 60 -31 0
-48 -7 -73 -29z"/>
<path d="M260 958 c0 -2 -3 -133 -5 -292 -4 -206 -2 -293 6 -302 9 -11 68 -14
290 -14 157 0 289 4 304 10 l25 10 -2 292 -3 293 -307 3 c-170 1 -308 1 -308
0z m570 -298 l0 -260 -265 0 -265 0 0 255 0 255 263 3 c144 1 263 3 265 5 1 1
2 -115 2 -258z"/>
<path d="M1047 947 c-13 -35 4 -37 304 -35 286 3 294 4 294 23 0 19 -8 20
-296 23 -242 2 -298 0 -302 -11z"/>
<path d="M1043 674 c-3 -8 -1 -20 4 -25 5 -5 128 -8 304 -7 286 3 294 4 294
23 0 19 -8 20 -298 23 -264 2 -298 0 -304 -14z"/>
<path d="M1050 380 c0 -13 7 -20 18 -20 9 1 140 -1 289 -3 219 -4 275 -2 284
9 25 31 -2 34 -297 34 -287 0 -294 0 -294 -20z"/>
</g>
</svg>
