<?xml version="1.0" standalone="no"?>
<!DOCTYPE svg PUBLIC "-//W3C//DTD SVG 20010904//EN"
 "http://www.w3.org/TR/2001/REC-SVG-20010904/DTD/svg10.dtd">
<svg version="1.0" xmlns="http://www.w3.org/2000/svg"
 width="163.000000pt" height="221.000000pt" viewBox="0 0 163.000000 221.000000"
 preserveAspectRatio="xMidYMid meet">
<metadata>
Created by potrace 1.16, written by Peter Selinger 2001-2019
</metadata>
<g transform="translate(0.000000,221.000000) scale(0.100000,-0.100000)"
fill="#000000" stroke="none">
<path d="M7 2203 c-11 -10 -8 -391 3 -463 6 -37 28 -101 50 -148 31 -66 55
-98 114 -156 59 -57 76 -80 82 -111 4 -21 -1 -262 -10 -534 -24 -726 -24 -723
36 -765 31 -22 175 -22 206 0 59 41 60 67 37 649 -17 417 -19 644 -6 677 5 13
41 56 80 96 80 82 132 179 151 277 7 36 10 143 8 270 -3 179 -5 210 -18 210
-13 0 -16 -35 -21 -235 -4 -143 -11 -251 -19 -275 -25 -80 -71 -155 -135 -219
-36 -36 -73 -83 -82 -103 -21 -48 -21 -122 3 -770 17 -494 17 -494 -3 -521
-18 -24 -27 -27 -88 -30 -81 -4 -111 12 -121 63 -3 19 -1 189 5 378 21 614 24
791 17 841 -7 43 -16 57 -84 126 -142 142 -162 203 -169 523 -5 221 -10 247
-36 220z"/>
<path d="M247 2203 c-10 -10 -8 -476 2 -492 5 -8 16 -11 25 -8 14 6 16 35 16
241 0 129 -3 241 -6 250 -6 16 -26 21 -37 9z"/>
<path d="M485 2198 c-3 -7 -4 -121 -3 -253 3 -205 5 -240 18 -240 13 0 15 34
15 249 0 191 -3 250 -12 253 -7 3 -15 -1 -18 -9z"/>
<path d="M1473 2190 c-123 -55 -225 -234 -253 -443 -13 -101 -13 -610 0 -659
15 -52 38 -76 95 -96 l50 -18 3 -54 c2 -30 -4 -218 -13 -418 -10 -199 -15
-383 -12 -408 3 -28 13 -55 28 -70 20 -22 31 -24 104 -24 56 0 87 5 102 15 48
34 48 34 46 1117 -2 1030 -3 1048 -37 1070 -20 13 -70 8 -113 -12z m96 -34 c9
-10 12 -277 14 -1032 2 -888 0 -1023 -13 -1049 -15 -29 -18 -30 -87 -33 -68
-3 -73 -1 -89 23 -18 28 -18 52 11 603 18 333 18 333 -90 372 -58 20 -60 30
-63 320 -5 382 19 531 107 667 66 102 176 170 210 129z"/>
</g>
</svg>
