<?xml version="1.0" standalone="no"?>
<!DOCTYPE svg PUBLIC "-//W3C//DTD SVG 20010904//EN"
 "http://www.w3.org/TR/2001/REC-SVG-20010904/DTD/svg10.dtd">
<svg version="1.0" xmlns="http://www.w3.org/2000/svg"
 width="242.000000pt" height="102.000000pt" viewBox="0 0 242.000000 102.000000"
 preserveAspectRatio="xMidYMid meet">
<metadata>
Created by potrace 1.16, written by Peter Selinger 2001-2019
</metadata>
<g transform="translate(0.000000,102.000000) scale(0.100000,-0.100000)"
fill="#000000" stroke="none">
<path d="M233 1002 c-197 -70 -283 -268 -204 -468 44 -111 279 -512 306 -521
21 -6 245 374 301 511 60 146 41 273 -57 381 -93 101 -228 139 -346 97z m201
-43 c64 -24 134 -87 167 -150 14 -29 24 -69 27 -114 4 -62 1 -80 -28 -150 -41
-105 -246 -465 -264 -465 -15 0 -230 373 -271 470 -105 248 124 501 369 409z"/>
<path d="M270 803 c-107 -55 -107 -212 0 -265 127 -64 258 73 192 201 -36 71
-123 100 -192 64z m110 -38 c64 -33 80 -109 34 -164 -62 -74 -184 -30 -184 67
0 44 14 69 53 92 38 24 59 25 97 5z"/>
<path d="M1980 1004 c-177 -65 -280 -258 -225 -425 20 -60 108 -242 163 -334
81 -137 144 -235 153 -235 12 0 140 195 224 343 98 172 129 255 123 337 -10
131 -87 244 -205 300 -63 30 -171 36 -233 14z m220 -54 c101 -50 169 -148 178
-255 5 -71 -20 -143 -98 -285 -85 -153 -197 -330 -210 -330 -12 0 -138 218
-211 366 -83 166 -94 222 -63 320 24 78 114 172 189 197 66 22 156 17 215 -13z"/>
<path d="M2010 801 c-42 -22 -80 -84 -80 -131 0 -47 37 -109 80 -132 94 -52
216 24 214 133 -1 111 -117 182 -214 130z m115 -37 c20 -9 40 -30 51 -52 39
-82 -39 -169 -127 -143 -43 13 -79 58 -79 99 0 38 29 83 63 97 41 18 52 18 92
-1z"/>
<path d="M492 23 c3 -17 45 -18 728 -18 638 0 725 2 725 15 0 13 -89 15 -728
18 -690 2 -728 1 -725 -15z"/>
</g>
</svg>
