<?xml version="1.0" standalone="no"?>
<!DOCTYPE svg PUBLIC "-//W3C//DTD SVG 20010904//EN"
 "http://www.w3.org/TR/2001/REC-SVG-20010904/DTD/svg10.dtd">
<svg version="1.0" xmlns="http://www.w3.org/2000/svg"
 width="231.000000pt" height="298.000000pt" viewBox="0 0 231.000000 298.000000"
 preserveAspectRatio="xMidYMid meet">
<metadata>
Created by potrace 1.16, written by Peter Selinger 2001-2019
</metadata>
<g transform="translate(0.000000,298.000000) scale(0.100000,-0.100000)"
fill="#000000" stroke="none">
<path d="M27 2973 c18 -2 48 -2 66 0 17 2 3 4 -33 4 -36 0 -50 -2 -33 -4z"/>
<path d="M143 2973 c9 -2 25 -2 35 0 9 3 1 5 -18 5 -19 0 -27 -2 -17 -5z"/>
<path d="M1712 2973 c108 -2 288 -2 400 0 112 1 23 2 -197 2 -220 0 -311 -1
-203 -2z"/>
<path d="M640 2365 c-60 -19 -123 -74 -151 -133 -34 -70 -33 -169 3 -238 49
-94 122 -134 243 -134 92 0 162 42 211 126 31 52 41 140 25 201 -36 133 -199
221 -331 178z m143 -64 c35 -14 95 -69 114 -105 20 -39 20 -123 0 -161 -20
-40 -75 -91 -110 -104 -72 -27 -166 3 -219 70 -55 68 -50 174 10 241 20 23 51
47 67 54 35 16 104 18 138 5z"/>
<path d="M462 1788 c-23 -13 -63 -43 -89 -68 -26 -24 -104 -96 -172 -160 -68
-63 -133 -133 -144 -155 -20 -37 -22 -58 -25 -256 -5 -292 6 -325 111 -336
104 -12 125 27 154 280 18 157 23 181 43 202 24 26 50 33 50 14 0 -5 -5 -40
-10 -77 -13 -86 -76 -486 -91 -577 -15 -96 -35 -135 -120 -243 -41 -51 -95
-120 -122 -153 -38 -49 -47 -68 -47 -100 0 -87 43 -139 119 -147 60 -5 93 12
169 90 65 67 207 249 231 297 10 20 28 86 40 147 27 136 27 137 36 202 11 77
12 76 131 -81 134 -178 131 -172 154 -353 30 -232 46 -271 125 -298 56 -20
113 -5 153 39 40 43 40 23 -7 345 -37 250 -47 277 -147 390 -37 41 -93 110
-125 153 -56 75 -59 82 -59 136 0 70 10 151 19 151 4 0 23 -22 43 -49 95 -127
334 -221 473 -186 68 18 115 69 115 125 0 45 -19 98 -41 117 -8 6 -37 15 -64
18 -116 15 -209 55 -248 107 -14 18 -60 92 -103 163 -159 268 -143 257 -429
279 -72 6 -86 4 -123 -16z m325 -73 c39 -16 69 -58 180 -243 47 -78 100 -156
117 -173 45 -44 143 -89 224 -102 82 -14 93 -22 94 -67 1 -36 -25 -65 -69 -77
-78 -19 -300 66 -377 145 -21 22 -62 86 -91 142 -29 57 -55 98 -59 92 -12 -20
-46 -278 -46 -354 l0 -77 63 -93 c34 -51 92 -124 128 -163 97 -103 99 -108
135 -365 9 -63 17 -122 19 -130 25 -139 13 -173 -58 -168 -69 5 -81 35 -107
268 -17 151 -39 214 -108 295 -75 90 -213 274 -231 308 -20 37 -28 34 -35 -15
-4 -24 -11 -61 -16 -83 -5 -22 -16 -83 -25 -135 -33 -192 -48 -256 -66 -291
-26 -52 -209 -280 -255 -317 -46 -38 -88 -41 -121 -10 -39 36 -29 72 41 148
78 84 199 252 207 289 17 68 130 806 136 886 l6 79 -63 -54 c-148 -127 -150
-130 -159 -195 -5 -33 -15 -120 -21 -193 -14 -153 -28 -182 -85 -182 -19 0
-37 5 -41 11 -4 6 -6 108 -5 226 2 167 6 224 17 253 16 39 111 133 299 294
l90 78 125 -7 c69 -4 139 -13 157 -20z"/>
</g>
</svg>
