<?xml version="1.0" standalone="no"?>
<!DOCTYPE svg PUBLIC "-//W3C//DTD SVG 20010904//EN"
 "http://www.w3.org/TR/2001/REC-SVG-20010904/DTD/svg10.dtd">
<svg version="1.0" xmlns="http://www.w3.org/2000/svg"
 width="86.000000pt" height="196.000000pt" viewBox="0 0 86.000000 196.000000"
 preserveAspectRatio="xMidYMid meet">
<metadata>
Created by potrace 1.16, written by Peter Selinger 2001-2019
</metadata>
<g transform="translate(0.000000,196.000000) scale(0.100000,-0.100000)"
fill="#000000" stroke="none">
<path d="M223 1953 c-9 -3 -13 -34 -13 -105 0 -91 2 -100 20 -105 19 -5 20
-14 20 -130 l0 -125 -102 -107 c-155 -162 -143 -101 -143 -721 0 -511 1 -526
20 -560 12 -19 40 -48 64 -65 l43 -30 291 0 c330 0 341 2 401 78 l31 39 0 536
0 537 -24 46 c-13 26 -68 91 -122 145 l-99 99 0 127 c0 124 1 127 22 130 22 3
23 9 26 88 5 143 26 130 -216 129 -114 0 -213 -3 -219 -6z m407 -103 l0 -80
-195 0 -195 0 0 80 0 80 195 0 195 0 0 -80z m-60 -246 l0 -137 104 -106 c57
-58 112 -122 122 -141 13 -25 19 -64 22 -142 l4 -108 -391 0 -391 0 0 93 c0
127 22 171 146 298 l96 97 -1 131 c-1 72 1 136 4 141 4 6 66 10 146 10 l139 0
0 -136z m248 -1068 c-3 -383 -4 -395 -24 -423 -12 -15 -36 -37 -55 -48 -32
-19 -52 -20 -309 -20 -316 0 -326 2 -368 85 -22 44 -22 50 -22 422 l0 378 390
0 391 0 -3 -394z"/>
</g>
</svg>
