<?xml version="1.0" standalone="no"?>
<!DOCTYPE svg PUBLIC "-//W3C//DTD SVG 20010904//EN"
 "http://www.w3.org/TR/2001/REC-SVG-20010904/DTD/svg10.dtd">
<svg version="1.0" xmlns="http://www.w3.org/2000/svg"
 width="353.000000pt" height="355.000000pt" viewBox="0 0 353.000000 355.000000"
 preserveAspectRatio="xMidYMid meet">
<metadata>
Created by potrace 1.16, written by Peter Selinger 2001-2019
</metadata>
<g transform="translate(0.000000,355.000000) scale(0.100000,-0.100000)"
fill="#000000" stroke="none">
<path d="M323 3525 c-229 -116 -239 -437 -19 -553 44 -23 63 -27 141 -27 75 0
98 4 140 25 184 90 233 330 99 480 -67 74 -110 93 -219 98 -82 3 -95 1 -142
-23z m265 -72 c67 -42 106 -117 106 -203 0 -110 -54 -191 -158 -234 -113 -47
-263 14 -310 126 -19 44 -21 125 -4 180 14 46 77 122 122 145 71 38 170 32
244 -14z"/>
<path d="M1200 3097 c-158 -66 -266 -203 -277 -351 -7 -81 20 -205 59 -278
107 -200 373 -280 585 -176 69 34 149 111 182 176 55 109 64 263 21 377 -30
78 -147 198 -235 241 -53 26 -72 29 -170 32 -97 2 -117 0 -165 -21z m305 -79
c66 -34 139 -100 170 -153 36 -61 53 -194 36 -278 -25 -119 -66 -173 -175
-228 l-81 -41 -100 4 c-115 5 -176 29 -245 98 -104 104 -140 304 -79 436 39
81 125 154 219 185 14 5 66 7 115 6 74 -3 99 -8 140 -29z"/>
<path d="M279 2456 c-77 -30 -118 -57 -171 -115 -77 -83 -103 -150 -102 -261
1 -97 18 -153 67 -216 144 -187 414 -194 580 -14 74 79 100 147 101 260 1 75
-3 92 -30 151 -40 83 -88 137 -156 174 -47 26 -64 30 -153 32 -66 2 -112 -2
-136 -11z m239 -72 c75 -31 139 -112 163 -207 14 -58 -2 -159 -36 -227 -48
-96 -159 -162 -275 -164 -58 -1 -76 4 -136 34 -303 155 -151 614 194 584 30
-2 70 -11 90 -20z"/>
<path d="M3133 3 c9 -2 23 -2 30 0 6 3 -1 5 -18 5 -16 0 -22 -2 -12 -5z"/>
<path d="M3333 3 c37 -2 97 -2 135 0 37 2 6 3 -68 3 -74 0 -105 -1 -67 -3z"/>
</g>
</svg>
