<?xml version="1.0" standalone="no"?>
<!DOCTYPE svg PUBLIC "-//W3C//DTD SVG 20010904//EN"
 "http://www.w3.org/TR/2001/REC-SVG-20010904/DTD/svg10.dtd">
<svg version="1.0" xmlns="http://www.w3.org/2000/svg"
 width="195.000000pt" height="213.000000pt" viewBox="0 0 195.000000 213.000000"
 preserveAspectRatio="xMidYMid meet">
<metadata>
Created by potrace 1.16, written by Peter Selinger 2001-2019
</metadata>
<g transform="translate(0.000000,213.000000) scale(0.100000,-0.100000)"
fill="#000000" stroke="none">
<path d="M1012 2114 c-64 -33 -82 -70 -104 -216 -10 -73 -32 -170 -48 -216
-57 -167 -194 -349 -308 -410 l-60 -32 -215 0 c-214 0 -216 0 -244 -24 l-28
-24 -3 -527 -3 -526 30 -30 29 -29 230 0 c174 0 231 3 234 12 3 9 15 4 36 -14
17 -14 58 -37 89 -50 57 -23 63 -23 513 -26 250 -2 470 0 488 3 37 7 96 55
117 94 27 53 23 136 -8 182 l-23 34 38 18 c24 12 48 35 64 63 23 39 26 53 22
114 -3 53 -9 77 -28 101 -17 23 -20 34 -11 37 7 2 27 17 45 33 71 62 74 202 6
274 -20 21 -20 21 10 43 55 41 80 127 60 203 -15 55 -72 113 -125 128 -25 7
-145 11 -313 11 l-273 0 15 28 c42 83 80 271 80 407 0 161 -52 283 -139 329
-52 27 -131 31 -173 10z m174 -59 c47 -36 83 -115 97 -210 13 -95 -11 -272
-56 -405 l-32 -95 -65 -5 c-49 -4 -65 -9 -65 -20 0 -13 50 -16 370 -20 424 -6
421 -5 457 -87 34 -77 12 -152 -55 -193 -28 -18 -51 -20 -190 -20 -146 0 -158
-1 -155 -18 3 -15 19 -17 152 -19 164 -3 180 -8 217 -66 16 -25 19 -45 16 -90
-3 -49 -8 -63 -35 -90 l-32 -32 -163 -5 c-135 -4 -162 -7 -162 -20 0 -12 24
-16 133 -20 l134 -5 34 -37 c30 -34 34 -44 34 -95 0 -41 -6 -68 -20 -91 -32
-52 -69 -62 -238 -62 -82 0 -152 -3 -155 -7 -4 -3 -2 -12 4 -20 9 -9 44 -13
136 -13 l125 0 32 -32 c46 -47 54 -96 24 -156 -16 -32 -35 -52 -63 -66 -39
-20 -56 -21 -470 -21 -370 0 -438 2 -488 17 -74 21 -140 60 -171 101 -55 72
-56 81 -56 582 l0 463 46 16 c112 38 239 175 328 352 47 95 73 185 92 322 9
64 23 127 31 140 42 67 140 80 209 27z m-746 -1318 c0 -494 3 -530 50 -590 11
-14 20 -27 20 -29 0 -1 -101 -1 -225 2 -186 4 -227 8 -235 20 -6 9 -10 221
-10 522 0 447 2 508 16 522 13 13 46 16 200 16 l184 0 0 -463z"/>
</g>
</svg>
