<?xml version="1.0" standalone="no"?>
<!DOCTYPE svg PUBLIC "-//W3C//DTD SVG 20010904//EN"
 "http://www.w3.org/TR/2001/REC-SVG-20010904/DTD/svg10.dtd">
<svg version="1.0" xmlns="http://www.w3.org/2000/svg"
 width="204.000000pt" height="118.000000pt" viewBox="0 0 204.000000 118.000000"
 preserveAspectRatio="xMidYMid meet">
<metadata>
Created by potrace 1.16, written by Peter Selinger 2001-2019
</metadata>
<g transform="translate(0.000000,118.000000) scale(0.100000,-0.100000)"
fill="#000000" stroke="none">
<path d="M1214 1165 c-12 -29 7 -35 120 -35 87 0 116 -3 126 -15 20 -24 8 -50
-25 -53 -17 -2 -38 -11 -47 -19 -21 -18 -24 -73 -6 -91 9 -9 -61 -12 -319 -12
l-330 0 -19 47 c-11 27 -20 51 -22 55 -2 5 29 8 68 8 63 0 71 2 68 18 -3 15
-20 17 -156 20 -99 2 -152 -1 -152 -8 0 -5 0 -13 0 -17 0 -5 28 -10 62 -13
l62 -5 27 -66 27 -67 -59 -89 -60 -90 -57 20 c-87 29 -207 22 -292 -19 -112
-53 -184 -142 -216 -263 -43 -169 45 -355 204 -433 62 -31 73 -33 172 -33 93
0 112 3 162 27 112 52 206 171 224 280 l7 38 79 0 80 0 240 233 c132 127 243
233 247 235 4 1 16 -16 27 -39 l18 -42 -24 -16 c-60 -39 -122 -108 -153 -170
-30 -61 -32 -73 -32 -166 0 -93 2 -105 32 -166 39 -80 111 -150 191 -187 50
-24 69 -27 162 -27 99 0 110 2 172 33 154 76 240 243 209 408 -24 133 -95 230
-209 286 -61 30 -74 33 -162 33 -52 0 -106 -3 -120 -7 -25 -7 -28 -3 -79 117
-29 68 -50 128 -47 134 3 5 14 7 24 4 30 -8 72 34 72 72 0 79 -29 95 -180 95
-87 0 -112 -3 -116 -15z m196 -288 c0 -7 -107 -117 -238 -244 l-238 -231 -73
197 c-41 108 -82 217 -92 244 l-19 47 330 0 c266 0 330 -3 330 -13z m-600
-267 c44 -116 80 -213 80 -215 0 -3 -24 -5 -53 -5 l-52 0 -11 58 c-16 80 -59
164 -111 214 -23 24 -43 46 -43 50 0 4 21 37 47 74 36 52 48 63 55 51 4 -9 44
-111 88 -227z m-288 99 l26 -14 -94 -140 c-52 -76 -94 -148 -94 -160 0 -42 15
-45 203 -45 l179 0 -7 -33 c-4 -17 -18 -54 -32 -82 -126 -256 -486 -258 -620
-3 -25 48 -28 63 -28 153 0 89 3 106 27 150 26 51 103 131 149 155 75 41 231
51 291 19z m1273 -9 c74 -36 147 -114 174 -185 19 -50 22 -75 19 -150 -3 -76
-8 -98 -33 -143 -34 -63 -85 -111 -157 -149 -47 -25 -63 -28 -148 -28 -87 0
-100 3 -156 32 -188 98 -248 326 -132 499 36 53 116 120 129 107 4 -4 36 -73
69 -153 68 -160 80 -179 98 -157 9 11 -3 49 -57 173 l-69 159 27 13 c43 20
177 10 236 -18z m-1151 -80 c44 -50 78 -121 91 -193 l7 -37 -172 0 -172 0 18
28 c94 145 168 252 175 252 4 0 28 -23 53 -50z"/>
</g>
</svg>
