<?xml version="1.0" standalone="no"?>
<!DOCTYPE svg PUBLIC "-//W3C//DTD SVG 20010904//EN"
 "http://www.w3.org/TR/2001/REC-SVG-20010904/DTD/svg10.dtd">
<svg version="1.0" xmlns="http://www.w3.org/2000/svg"
 width="193.000000pt" height="193.000000pt" viewBox="0 0 193.000000 193.000000"
 preserveAspectRatio="xMidYMid meet">
<metadata>
Created by potrace 1.16, written by Peter Selinger 2001-2019
</metadata>
<g transform="translate(0.000000,193.000000) scale(0.100000,-0.100000)"
fill="#000000" stroke="none">
<path d="M855 1920 c-356 -41 -676 -288 -794 -616 -48 -132 -64 -240 -58 -379
9 -189 62 -350 168 -506 140 -209 392 -369 643 -409 108 -18 310 -8 406 20
342 98 594 354 686 695 29 109 27 391 -4 498 -102 354 -393 620 -752 686 -82
15 -216 20 -295 11z m345 -85 c150 -40 310 -133 421 -246 163 -165 249 -383
249 -626 -1 -410 -255 -746 -657 -870 -80 -24 -102 -27 -243 -27 -139 1 -164
3 -243 27 -382 117 -639 435 -664 823 -7 117 10 233 52 352 49 135 104 223
209 328 131 131 272 208 456 249 87 20 330 14 420 -10z"/>
<path d="M1360 1398 c-30 -28 -110 -102 -176 -165 l-122 -113 -51 12 c-160 37
-288 -139 -198 -274 65 -96 186 -112 274 -35 64 57 81 138 43 212 l-21 40 68
65 c37 36 117 111 177 166 99 92 107 103 97 123 -17 31 -30 26 -91 -31z m-329
-344 c38 -19 63 -75 54 -120 -3 -20 -20 -45 -41 -63 -28 -25 -44 -31 -80 -31
-39 0 -51 5 -80 34 -29 29 -34 41 -34 81 0 40 5 52 34 81 28 28 42 34 75 34
23 0 56 -7 72 -16z"/>
</g>
</svg>
