<?xml version="1.0" standalone="no"?>
<!DOCTYPE svg PUBLIC "-//W3C//DTD SVG 20010904//EN"
 "http://www.w3.org/TR/2001/REC-SVG-20010904/DTD/svg10.dtd">
<svg version="1.0" xmlns="http://www.w3.org/2000/svg"
 width="229.000000pt" height="63.000000pt" viewBox="0 0 229.000000 63.000000"
 preserveAspectRatio="xMidYMid meet">
<metadata>
Created by potrace 1.16, written by Peter Selinger 2001-2019
</metadata>
<g transform="translate(0.000000,63.000000) scale(0.100000,-0.100000)"
fill="#000000" stroke="none">
<path d="M235 621 c-149 -39 -240 -165 -233 -321 11 -247 285 -381 485 -238
83 60 127 148 127 258 0 124 -61 222 -170 276 -58 28 -154 40 -209 25z m180
-60 c86 -39 133 -100 155 -197 27 -121 -61 -270 -181 -304 -19 -6 -59 -10 -90
-10 -207 0 -329 237 -213 416 26 40 101 98 139 107 52 12 152 6 190 -12z"/>
<path d="M1095 624 c-80 -20 -154 -70 -195 -133 -80 -121 -67 -278 32 -387
125 -136 326 -133 452 7 137 152 91 397 -92 484 -56 27 -150 41 -197 29z m160
-62 c68 -28 103 -61 136 -128 29 -58 31 -71 27 -131 -6 -84 -32 -137 -92 -190
-51 -45 -108 -65 -181 -64 -91 1 -170 51 -223 140 -23 40 -27 57 -27 126 0 67
5 88 27 131 63 121 203 170 333 116z"/>
<path d="M1900 617 c-91 -26 -163 -88 -202 -172 -31 -69 -32 -190 -1 -256 30
-66 86 -124 150 -155 45 -23 69 -28 132 -28 127 0 222 59 281 176 26 52 30 73
30 138 0 89 -25 150 -87 213 -76 79 -200 113 -303 84z m171 -49 c133 -45 206
-190 166 -329 -59 -200 -325 -257 -460 -98 -115 134 -68 345 93 418 51 23 147
28 201 9z"/>
</g>
</svg>
