<?xml version="1.0" standalone="no"?>
<!DOCTYPE svg PUBLIC "-//W3C//DTD SVG 20010904//EN"
 "http://www.w3.org/TR/2001/REC-SVG-20010904/DTD/svg10.dtd">
<svg version="1.0" xmlns="http://www.w3.org/2000/svg"
 width="146.000000pt" height="122.000000pt" viewBox="0 0 146.000000 122.000000"
 preserveAspectRatio="xMidYMid meet">
<metadata>
Created by potrace 1.16, written by Peter Selinger 2001-2019
</metadata>
<g transform="translate(0.000000,122.000000) scale(0.100000,-0.100000)"
fill="#000000" stroke="none">
<path d="M175 1117 c-146 -89 -170 -107 -173 -130 -2 -15 -1 -27 1 -27 2 0 78
45 168 99 l164 100 3 -580 2 -579 25 0 25 0 0 610 0 610 -22 0 c-13 -1 -99
-47 -193 -103z"/>
<path d="M1022 973 c-335 -520 -393 -615 -390 -636 3 -22 4 -22 281 -22 l277
0 0 -157 0 -158 30 0 30 0 0 158 0 157 103 0 c98 0 102 1 105 23 3 22 2 22
-102 22 l-106 0 -2 428 -3 427 -31 3 c-31 3 -35 -2 -192 -245z m165 -610 c-2
-2 -115 -2 -250 -1 l-246 3 135 215 c75 118 186 291 247 384 l112 170 3 -384
c1 -211 1 -385 -1 -387z"/>
</g>
</svg>
