<?xml version="1.0" standalone="no"?>
<!DOCTYPE svg PUBLIC "-//W3C//DTD SVG 20010904//EN"
 "http://www.w3.org/TR/2001/REC-SVG-20010904/DTD/svg10.dtd">
<svg version="1.0" xmlns="http://www.w3.org/2000/svg"
 width="263.000000pt" height="248.000000pt" viewBox="0 0 263.000000 248.000000"
 preserveAspectRatio="xMidYMid meet">
<metadata>
Created by potrace 1.16, written by Peter Selinger 2001-2019
</metadata>
<g transform="translate(0.000000,248.000000) scale(0.100000,-0.100000)"
fill="#000000" stroke="none">
<path d="M1273 2467 c-28 -11 -146 -118 -613 -562 -64 -60 -239 -225 -388
-365 -197 -184 -272 -260 -270 -274 7 -49 11 -46 523 439 99 94 257 242 350
330 94 88 223 210 287 272 85 82 124 113 142 113 16 0 46 -19 84 -52 138 -124
683 -631 832 -773 280 -267 381 -357 395 -351 38 14 11 49 -160 208 l-174 163
-1 256 c0 316 9 299 -152 299 -148 0 -151 -3 -158 -150 l-5 -112 -285 267
c-157 146 -294 272 -305 280 -31 21 -67 25 -102 12z m947 -570 c3 -119 3 -217
-1 -217 -3 0 -46 39 -97 86 l-92 86 0 127 c0 70 2 130 4 132 2 2 44 4 93 4
l88 0 5 -218z"/>
<path d="M206 1292 c-3 -5 -6 -275 -6 -600 -1 -654 -3 -634 63 -669 30 -17 96
-18 1054 -18 1021 0 1022 0 1050 21 55 41 54 26 53 666 0 346 -4 596 -9 601
-6 6 -17 7 -25 4 -14 -6 -16 -70 -16 -597 l0 -591 -25 -24 -24 -25 -351 0
-350 0 0 460 0 461 -25 24 -24 25 -255 0 -255 0 -28 -24 -28 -24 -5 -459 -5
-458 -346 -3 c-329 -2 -348 -1 -370 17 l-24 19 -5 598 c-5 547 -6 599 -22 602
-9 2 -19 -1 -22 -6z m1362 -780 l2 -452 -255 0 -255 0 0 448 c0 247 3 452 7
456 4 3 117 5 252 4 l246 -3 3 -453z"/>
</g>
</svg>
