<?xml version="1.0" standalone="no"?>
<!DOCTYPE svg PUBLIC "-//W3C//DTD SVG 20010904//EN"
 "http://www.w3.org/TR/2001/REC-SVG-20010904/DTD/svg10.dtd">
<svg version="1.0" xmlns="http://www.w3.org/2000/svg"
 width="178.000000pt" height="178.000000pt" viewBox="0 0 178.000000 178.000000"
 preserveAspectRatio="xMidYMid meet">
<metadata>
Created by potrace 1.16, written by Peter Selinger 2001-2019
</metadata>
<g transform="translate(0.000000,178.000000) scale(0.100000,-0.100000)"
fill="#000000" stroke="none">
<path d="M735 1765 c-248 -45 -460 -185 -593 -388 -298 -457 -106 -1086 398
-1304 133 -57 189 -68 360 -68 176 0 253 16 383 81 189 95 315 224 407 416
135 282 114 625 -55 883 -56 86 -188 214 -272 264 -190 113 -418 155 -628 116z
m374 -56 c291 -74 523 -307 602 -606 27 -102 30 -296 5 -397 -77 -319 -295
-550 -603 -638 -112 -32 -314 -32 -426 0 -397 113 -641 433 -640 837 0 228 72
403 232 568 215 222 531 312 830 236z"/>
<path d="M1303 1236 c-4 -8 -107 -121 -228 -251 -121 -131 -243 -263 -271
-294 l-51 -56 -151 143 c-82 78 -154 142 -160 142 -5 0 -12 -7 -15 -15 -4 -9
49 -67 155 -170 89 -85 165 -155 169 -155 7 0 210 216 497 526 56 61 102 118
102 128 0 20 -36 22 -47 2z"/>
</g>
</svg>
