<?xml version="1.0" standalone="no"?>
<!DOCTYPE svg PUBLIC "-//W3C//DTD SVG 20010904//EN"
 "http://www.w3.org/TR/2001/REC-SVG-20010904/DTD/svg10.dtd">
<svg version="1.0" xmlns="http://www.w3.org/2000/svg"
 width="110.000000pt" height="245.000000pt" viewBox="0 0 110.000000 245.000000"
 preserveAspectRatio="xMidYMid meet">
<metadata>
Created by potrace 1.16, written by Peter Selinger 2001-2019
</metadata>
<g transform="translate(0.000000,245.000000) scale(0.100000,-0.100000)"
fill="#000000" stroke="none">
<path d="M470 2435 c-57 -18 -124 -75 -153 -129 -16 -31 -21 -59 -22 -111 0
-93 36 -162 112 -213 103 -68 246 -51 327 38 49 55 70 117 64 193 -6 71 -23
111 -69 156 -67 68 -172 94 -259 66z m187 -61 c119 -68 137 -227 38 -330 -61
-64 -152 -81 -230 -45 -70 32 -108 79 -124 151 -40 178 154 316 316 224z"/>
<path d="M217 1866 c-73 -31 -119 -66 -155 -119 -58 -86 -57 -79 -60 -409 -4
-334 -2 -348 54 -384 33 -23 109 -21 135 2 19 17 19 11 19 -411 0 -411 1 -430
20 -471 27 -55 67 -74 155 -74 71 0 126 19 149 51 12 18 13 18 32 -2 33 -37
70 -49 146 -49 55 0 81 5 105 20 64 38 63 34 63 513 l0 434 39 -19 c72 -35
148 0 172 81 7 24 9 133 7 316 -4 266 -5 283 -27 339 -28 71 -94 141 -166 176
-49 25 -55 25 -340 27 -286 3 -291 3 -348 -21z m682 -51 c61 -34 113 -92 138
-156 15 -38 17 -83 18 -336 l0 -291 -24 -26 c-36 -38 -91 -36 -125 5 l-26 31
0 242 c0 134 -3 245 -6 249 -3 3 -12 3 -20 0 -12 -4 -14 -115 -14 -715 0 -467
-4 -716 -10 -729 -17 -31 -64 -49 -129 -49 -53 0 -65 4 -93 29 l-33 29 -5 424
c-5 394 -6 423 -22 423 -17 0 -18 -28 -21 -415 -2 -310 -6 -421 -15 -437 -19
-35 -65 -53 -131 -53 -53 0 -65 4 -93 29 l-33 29 -3 709 c-1 389 -4 714 -7
722 -4 11 -8 11 -20 1 -13 -10 -15 -53 -15 -260 l0 -249 -26 -20 c-37 -29 -89
-27 -120 4 l-25 25 3 303 3 302 30 54 c36 65 92 114 159 141 47 18 72 19 331
17 l280 -2 54 -30z"/>
</g>
</svg>
