<?xml version="1.0" standalone="no"?>
<!DOCTYPE svg PUBLIC "-//W3C//DTD SVG 20010904//EN"
 "http://www.w3.org/TR/2001/REC-SVG-20010904/DTD/svg10.dtd">
<svg version="1.0" xmlns="http://www.w3.org/2000/svg"
 width="265.000000pt" height="390.000000pt" viewBox="0 0 265.000000 390.000000"
 preserveAspectRatio="xMidYMid meet">
<metadata>
Created by potrace 1.16, written by Peter Selinger 2001-2019
</metadata>
<g transform="translate(0.000000,390.000000) scale(0.100000,-0.100000)"
fill="#000000" stroke="none">
<path d="M526 3884 c-12 -30 -7 -259 6 -272 9 -9 100 -12 350 -12 221 0 338
-3 338 -10 0 -11 -264 -820 -419 -1283 -55 -164 -97 -305 -94 -313 4 -12 31
-14 152 -12 l146 3 22 65 c12 36 83 254 158 485 75 231 204 622 286 869 82
247 149 459 147 470 -3 21 -6 21 -544 24 -488 2 -542 1 -548 -14z m1014 -59
c0 -2 -63 -194 -139 -427 -77 -233 -207 -629 -290 -881 -83 -252 -152 -461
-155 -465 -2 -4 -42 -6 -88 -4 l-83 3 202 612 c294 891 317 963 310 981 -6 14
-44 16 -357 16 l-350 0 0 85 0 85 475 0 c261 0 475 -2 475 -5z"/>
<path d="M1990 3866 c-112 -32 -248 -125 -305 -211 -21 -32 -50 -92 -64 -134
l-26 -76 0 -510 c0 -564 -2 -545 68 -678 57 -108 191 -216 317 -255 80 -24
227 -21 303 6 134 49 249 152 308 277 58 121 61 153 57 686 -4 530 -2 509 -68
639 -30 59 -131 158 -200 197 -123 70 -271 92 -390 59z m235 -60 c124 -33 254
-136 309 -245 52 -101 56 -147 56 -631 0 -369 -3 -456 -15 -505 -47 -181 -155
-302 -321 -359 -69 -23 -199 -21 -276 5 -113 38 -216 126 -268 228 -59 118
-62 145 -58 660 4 442 5 469 25 528 30 90 64 142 132 205 118 110 274 152 416
114z"/>
<path d="M2011 3623 c-55 -20 -126 -89 -154 -151 -22 -46 -22 -55 -22 -532 l0
-485 26 -56 c32 -68 87 -125 148 -152 58 -26 168 -28 224 -3 54 24 115 82 145
140 l27 51 0 500 0 500 -24 45 c-30 58 -76 107 -126 133 -54 28 -182 33 -244
10z m207 -62 c44 -23 82 -62 108 -111 18 -32 19 -69 22 -495 3 -498 2 -514
-50 -586 -33 -46 -114 -89 -167 -89 -87 0 -172 54 -213 138 -23 47 -23 49 -26
481 -2 292 1 451 8 487 15 72 64 142 119 171 57 30 146 31 199 4z"/>
<path d="M62 3 c37 -2 100 -2 140 0 40 1 10 3 -67 3 -77 0 -110 -1 -73 -3z"/>
</g>
</svg>
