<?xml version="1.0" standalone="no"?>
<!DOCTYPE svg PUBLIC "-//W3C//DTD SVG 20010904//EN"
 "http://www.w3.org/TR/2001/REC-SVG-20010904/DTD/svg10.dtd">
<svg version="1.0" xmlns="http://www.w3.org/2000/svg"
 width="221.000000pt" height="216.000000pt" viewBox="0 0 221.000000 216.000000"
 preserveAspectRatio="xMidYMid meet">
<metadata>
Created by potrace 1.16, written by Peter Selinger 2001-2019
</metadata>
<g transform="translate(0.000000,216.000000) scale(0.100000,-0.100000)"
fill="#000000" stroke="none">
<path d="M526 2144 c-32 -32 -14 -84 29 -84 14 0 73 -52 177 -157 174 -177
248 -254 248 -259 0 -2 -195 -5 -434 -6 l-434 -3 -39 -31 c-77 -61 -73 -26
-73 -701 0 -401 4 -611 11 -630 13 -34 55 -80 91 -99 15 -8 54 -14 87 -14 l60
0 3 -77 3 -78 63 0 64 0 31 77 32 78 660 0 660 0 30 -78 31 -77 64 0 65 0 3
78 3 77 55 0 c30 0 69 6 87 14 42 17 83 66 97 114 14 50 14 1174 0 1224 -14
48 -55 97 -97 114 -26 11 -127 14 -494 14 l-461 0 202 208 c160 163 209 208
232 210 40 5 57 42 34 77 -22 33 -60 33 -82 0 -8 -13 -13 -28 -10 -33 3 -5
-92 -110 -212 -233 -154 -159 -224 -225 -242 -227 -21 -2 -60 34 -242 222
-160 165 -218 231 -218 248 0 46 -51 65 -84 32z m1571 -564 c71 -43 68 -12 71
-635 2 -308 0 -584 -3 -614 -5 -41 -14 -61 -40 -90 l-33 -36 -986 0 -985 0
-31 30 c-17 16 -35 45 -41 65 -6 23 -9 240 -7 622 3 575 3 587 24 615 11 15
36 36 55 45 32 17 100 18 989 18 929 0 956 -1 987 -20z m-1697 -1425 c0 -2
-11 -29 -24 -60 -22 -49 -28 -55 -55 -55 l-31 0 0 60 0 60 55 0 c30 0 55 -2
55 -5z m1520 -61 l0 -65 -31 3 c-28 4 -34 11 -55 63 -13 32 -24 60 -24 62 0 2
25 3 55 3 l55 0 0 -66z"/>
<path d="M261 1448 c-83 -43 -81 -30 -81 -542 0 -437 1 -451 21 -493 37 -77
-3 -73 754 -73 676 0 677 0 707 21 58 41 58 46 58 541 0 499 0 496 -63 542
-28 21 -39 21 -690 24 l-662 2 -44 -22z m1354 -32 c66 -28 66 -24 63 -532 l-3
-456 -28 -24 -28 -24 -659 0 c-412 0 -668 4 -685 10 -53 20 -55 41 -55 498 0
231 3 433 6 451 7 36 46 78 77 84 12 2 305 5 650 6 522 1 633 -1 662 -13z"/>
<path d="M1904 1300 c-35 -14 -64 -59 -64 -101 0 -46 37 -95 79 -104 61 -13
131 43 131 105 0 37 -30 81 -65 96 -39 16 -51 16 -81 4z m96 -73 c31 -56 -38
-117 -89 -79 -45 33 -37 93 14 112 28 10 57 -2 75 -33z"/>
<path d="M1857 914 c-4 -4 -7 -13 -7 -21 0 -10 23 -13 96 -13 86 0 95 2 92 18
-3 14 -17 17 -89 20 -47 1 -88 0 -92 -4z"/>
<path d="M1857 734 c-4 -4 -7 -13 -7 -21 0 -10 23 -13 96 -13 86 0 95 2 92 18
-3 14 -17 17 -89 20 -47 1 -88 0 -92 -4z"/>
</g>
</svg>
