<?xml version="1.0" standalone="no"?>
<!DOCTYPE svg PUBLIC "-//W3C//DTD SVG 20010904//EN"
 "http://www.w3.org/TR/2001/REC-SVG-20010904/DTD/svg10.dtd">
<svg version="1.0" xmlns="http://www.w3.org/2000/svg"
 width="168.000000pt" height="151.000000pt" viewBox="0 0 168.000000 151.000000"
 preserveAspectRatio="xMidYMid meet">
<metadata>
Created by potrace 1.16, written by Peter Selinger 2001-2019
</metadata>
<g transform="translate(0.000000,151.000000) scale(0.100000,-0.100000)"
fill="#000000" stroke="none">
<path d="M1620 1364 l0 -147 -20 25 c-50 64 -165 78 -242 29 -69 -44 -93 -101
-93 -221 1 -105 17 -150 72 -202 70 -66 188 -64 257 5 l25 25 3 -32 c2 -26 8
-32 31 -34 l27 -3 0 350 0 351 -30 0 -30 0 0 -146z m-80 -134 c59 -30 80 -79
80 -183 0 -92 -16 -128 -72 -170 -38 -29 -117 -29 -154 -1 -55 40 -67 68 -72
157 -4 69 -1 92 16 130 36 82 119 109 202 67z"/>
<path d="M157 1472 c-116 -3 -118 -3 -115 -25 l3 -22 373 4 c204 2 372 1 372
-3 0 -6 -87 -106 -398 -455 -51 -58 -91 -112 -90 -120 3 -13 21 -16 103 -16
145 -1 216 -27 308 -114 73 -69 109 -147 115 -246 13 -232 -110 -388 -336
-427 -170 -29 -336 44 -429 189 -23 36 -38 50 -48 47 -61 -24 72 -183 204
-246 59 -28 78 -32 177 -36 123 -5 190 9 277 56 163 88 248 327 187 525 -53
170 -200 280 -398 295 l-83 7 243 274 c155 175 243 281 243 295 0 21 -1 21
-295 21 -162 0 -348 -1 -413 -3z"/>
<path d="M1150 1289 c-32 -13 -70 -49 -70 -66 0 -7 -4 -13 -10 -13 -5 0 -8 17
-7 38 2 33 0 37 -23 37 l-25 0 0 -235 0 -235 28 -3 27 -3 0 148 c0 169 10 215
53 256 25 23 38 28 71 25 39 -2 41 -1 41 27 0 26 -4 30 -30 32 -16 1 -41 -2
-55 -8z"/>
</g>
</svg>
