<?xml version="1.0" standalone="no"?>
<!DOCTYPE svg PUBLIC "-//W3C//DTD SVG 20010904//EN"
 "http://www.w3.org/TR/2001/REC-SVG-20010904/DTD/svg10.dtd">
<svg version="1.0" xmlns="http://www.w3.org/2000/svg"
 width="261.000000pt" height="224.000000pt" viewBox="0 0 261.000000 224.000000"
 preserveAspectRatio="xMidYMid meet">
<metadata>
Created by potrace 1.16, written by Peter Selinger 2001-2019
</metadata>
<g transform="translate(0.000000,224.000000) scale(0.100000,-0.100000)"
fill="#000000" stroke="none">
<path d="M1215 2216 c-52 -24 -102 -72 -132 -129 -13 -23 -18 -55 -18 -112 0
-69 4 -86 27 -127 111 -189 375 -181 472 14 109 218 -128 458 -349 354z m180
-27 c25 -7 58 -29 86 -58 70 -70 87 -155 48 -241 -41 -90 -107 -133 -204 -133
-203 0 -298 230 -155 373 64 65 136 83 225 59z"/>
<path d="M242 1600 c-209 -213 -242 -251 -233 -267 5 -10 115 -123 244 -252
169 -168 240 -232 251 -228 14 5 16 28 16 151 l0 145 138 3 c129 3 137 4 137
23 0 19 -8 20 -149 23 -89 1 -153 -1 -159 -7 -6 -6 -9 -67 -9 -143 l2 -133
-215 215 -215 215 212 212 c117 117 214 213 215 213 2 0 2 -57 2 -127 -1 -71
-1 -134 0 -141 1 -10 40 -12 178 -10 160 3 178 5 181 21 3 16 -10 17 -157 17
l-160 0 -3 157 c-3 132 -5 158 -18 159 -8 1 -124 -110 -258 -246z"/>
<path d="M2107 1833 c-4 -3 -7 -73 -7 -154 l0 -148 -142 -3 c-119 -3 -143 -5
-143 -18 0 -13 24 -15 160 -15 l160 0 5 139 5 140 207 -215 208 -214 -208
-208 -207 -207 -3 130 c-3 154 11 142 -167 138 -112 -3 -120 -4 -120 -23 0
-19 8 -20 123 -23 l122 -3 0 -140 c0 -119 2 -141 16 -146 11 -4 83 62 255 233
131 131 239 243 239 247 0 14 -472 497 -485 497 -6 0 -15 -3 -18 -7z"/>
<path d="M1115 1601 c-94 -24 -184 -108 -210 -194 -12 -39 -15 -110 -15 -317
0 -261 0 -268 23 -301 23 -35 70 -64 120 -74 l27 -5 0 -355 c0 -349 0 -355 20
-355 20 0 20 5 18 383 l-3 382 -37 -3 c-44 -3 -91 19 -113 52 -14 21 -16 63
-13 298 3 309 5 317 87 391 65 58 121 70 329 65 168 -3 180 -5 227 -30 62 -32
88 -59 117 -123 21 -48 22 -61 23 -317 l0 -268 -30 -30 c-39 -39 -91 -55 -104
-33 -5 10 -15 14 -25 10 -15 -6 -16 -43 -14 -389 3 -375 3 -383 23 -383 20 0
20 7 20 350 l0 350 48 16 c59 20 104 61 118 109 7 22 10 128 7 290 -3 250 -3
256 -29 310 -36 77 -68 111 -136 145 -58 30 -59 30 -253 32 -107 1 -208 -2
-225 -6z"/>
</g>
</svg>
