<?xml version="1.0" standalone="no"?>
<!DOCTYPE svg PUBLIC "-//W3C//DTD SVG 20010904//EN"
 "http://www.w3.org/TR/2001/REC-SVG-20010904/DTD/svg10.dtd">
<svg version="1.0" xmlns="http://www.w3.org/2000/svg"
 width="214.000000pt" height="241.000000pt" viewBox="0 0 214.000000 241.000000"
 preserveAspectRatio="xMidYMid meet">
<metadata>
Created by potrace 1.16, written by Peter Selinger 2001-2019
</metadata>
<g transform="translate(0.000000,241.000000) scale(0.100000,-0.100000)"
fill="#000000" stroke="none">
<path d="M1053 2396 c-83 -21 -159 -65 -218 -127 -97 -102 -138 -225 -138
-410 0 -63 3 -124 7 -136 5 -16 1 -22 -19 -27 -39 -10 -58 -58 -50 -123 16
-128 58 -203 114 -203 24 0 28 -6 44 -69 19 -74 68 -164 120 -221 30 -33 32
-38 29 -106 l-3 -71 -177 -56 c-97 -31 -193 -65 -212 -76 l-35 -19 -102 100
c-115 115 -133 120 -133 39 l0 -50 -137 -3 -138 -3 -3 -109 c-2 -71 1 -113 9
-122 9 -11 42 -14 140 -14 l129 0 0 -45 c0 -34 5 -48 20 -57 18 -12 20 -24 20
-141 0 -117 2 -128 17 -125 16 3 18 19 21 147 l3 144 87 88 c47 49 90 97 93
108 8 21 71 46 274 112 79 25 131 37 133 31 9 -28 66 -95 104 -122 91 -66 211
-76 314 -25 59 29 122 95 131 138 3 15 6 27 7 27 1 0 81 -27 178 -59 208 -70
265 -98 324 -164 57 -63 72 -118 81 -280 5 -97 10 -130 20 -134 8 -3 18 -2 22
3 4 5 4 71 -1 147 -10 163 -29 222 -91 293 -64 72 -112 97 -328 169 l-198 66
-3 67 c-3 66 -2 68 40 121 54 67 86 131 108 209 15 52 20 61 45 66 56 11 92
83 106 208 5 54 4 58 -25 87 -17 17 -38 31 -47 31 -12 0 -15 5 -10 18 17 39
17 226 1 295 -30 126 -102 230 -179 258 -20 7 -38 20 -40 30 -5 20 -62 57
-127 83 -59 24 -253 31 -327 12z m280 -41 c69 -18 135 -58 147 -89 5 -14 20
-26 37 -29 71 -15 143 -115 168 -234 14 -64 21 -242 10 -231 -3 3 -12 31 -21
64 -19 74 -61 140 -128 201 -82 75 -98 81 -154 58 -172 -67 -179 -69 -347 -72
l-160 -3 -34 -32 c-50 -48 -81 -124 -88 -215 -9 -112 -21 -64 -22 82 -1 185
31 286 121 381 64 68 115 99 193 118 79 19 207 20 278 1z m154 -324 c65 -51
101 -95 132 -161 22 -48 26 -72 29 -178 4 -108 6 -123 21 -120 10 2 18 17 21
43 6 46 30 57 61 29 23 -21 23 -35 3 -123 -19 -86 -31 -102 -79 -110 -38 -6
-39 -6 -57 -79 -9 -40 -29 -95 -44 -122 -36 -67 -118 -145 -184 -178 -50 -24
-66 -27 -165 -27 -98 0 -116 3 -165 26 -116 54 -193 153 -231 294 l-22 85 -38
0 c-50 0 -63 20 -85 132 -15 72 -16 89 -5 102 28 33 60 17 78 -39 5 -16 16
-30 24 -30 11 0 15 27 20 130 6 142 16 178 68 237 l32 36 132 0 c146 1 246 20
334 66 26 14 53 25 60 26 6 0 33 -17 60 -39z m-407 -1047 c112 -40 234 -30
373 30 15 7 17 1 17 -63 0 -51 -6 -83 -19 -109 -72 -140 -265 -173 -390 -65
-57 48 -81 101 -81 182 0 56 2 62 18 55 9 -4 46 -18 82 -30z m-667 -367 l-88
-88 -5 48 -5 48 -137 3 -138 3 0 84 0 85 113 1 c61 1 119 3 127 4 8 1 21 3 28
4 7 0 12 16 12 38 l0 38 90 -90 90 -90 -87 -88z"/>
<path d="M992 1668 c-17 -17 -15 -73 4 -89 23 -19 48 1 52 40 5 50 -27 78 -56
49z"/>
<path d="M1422 1668 c-13 -13 -16 -56 -6 -82 10 -25 51 -20 58 7 9 36 7 55
-10 71 -19 19 -26 20 -42 4z"/>
<path d="M1155 1285 c-22 -8 -41 -15 -42 -15 -2 0 -3 -10 -3 -21 0 -16 5 -20
18 -16 93 31 102 32 154 13 55 -19 83 -11 58 18 -28 35 -119 45 -185 21z"/>
<path d="M582 387 c-67 -67 -122 -127 -122 -132 0 -18 245 -255 263 -255 14 0
17 10 17 70 l0 70 129 0 c99 0 131 3 140 14 12 14 14 185 4 214 -4 9 -41 12
-139 12 l-134 0 0 49 c0 57 -7 81 -24 81 -6 0 -66 -55 -134 -123z m118 21 c-1
-18 -2 -38 -1 -45 1 -9 39 -13 137 -15 l136 -3 0 -80 0 -80 -133 -5 -134 -5
-3 -53 c-2 -28 -6 -51 -10 -51 -4 1 -47 44 -97 96 l-89 93 89 90 c49 50 93 90
98 90 5 0 8 -15 7 -32z"/>
</g>
</svg>
