<?xml version="1.0" standalone="no"?>
<!DOCTYPE svg PUBLIC "-//W3C//DTD SVG 20010904//EN"
 "http://www.w3.org/TR/2001/REC-SVG-20010904/DTD/svg10.dtd">
<svg version="1.0" xmlns="http://www.w3.org/2000/svg"
 width="214.000000pt" height="212.000000pt" viewBox="0 0 214.000000 212.000000"
 preserveAspectRatio="xMidYMid meet">
<metadata>
Created by potrace 1.16, written by Peter Selinger 2001-2019
</metadata>
<g transform="translate(0.000000,212.000000) scale(0.100000,-0.100000)"
fill="#000000" stroke="none">
<path d="M1047 2113 c-4 -3 -7 -100 -7 -213 0 -162 3 -210 13 -219 8 -6 17 -8
20 -4 4 3 7 105 7 225 0 175 -3 218 -13 218 -8 0 -17 -3 -20 -7z"/>
<path d="M304 1809 c-7 -12 293 -319 313 -319 6 0 15 5 18 11 8 12 -292 319
-311 319 -7 0 -16 -5 -20 -11z"/>
<path d="M1647 1666 c-81 -85 -147 -159 -147 -166 0 -31 49 8 184 147 135 140
158 173 122 173 -7 0 -79 -69 -159 -154z"/>
<path d="M1000 1584 c-191 -34 -330 -134 -409 -296 -105 -215 -63 -449 110
-612 109 -103 221 -147 379 -147 244 -2 453 171 505 416 18 88 19 142 0 228
-37 175 -181 334 -352 387 -63 19 -187 32 -233 24z m210 -61 c174 -48 317
-213 343 -398 13 -89 -7 -207 -49 -294 -41 -83 -136 -173 -230 -218 -67 -32
-90 -38 -167 -41 -143 -7 -235 20 -344 102 -257 194 -244 602 26 785 124 85
268 106 421 64z"/>
<path d="M0 1060 c0 -19 6 -20 226 -20 209 0 225 1 222 18 -3 15 -23 17 -226
20 -217 2 -222 2 -222 -18z"/>
<path d="M1676 1065 c-3 -9 0 -18 7 -21 7 -2 111 -3 232 -2 188 3 220 5 220
18 0 13 -33 15 -226 18 -198 2 -227 0 -233 -13z"/>
<path d="M453 470 c-79 -83 -143 -158 -143 -166 0 -35 42 -2 172 136 126 133
159 180 126 180 -7 0 -77 -68 -155 -150z"/>
<path d="M1496 611 c-10 -16 4 -33 156 -181 117 -114 150 -142 160 -132 10 10
-20 45 -142 167 -85 85 -158 155 -162 155 -4 0 -9 -4 -12 -9z"/>
<path d="M1047 433 c-4 -3 -7 -100 -7 -215 0 -179 2 -209 15 -215 9 -3 19 -2
23 1 9 10 16 357 8 401 -6 32 -23 44 -39 28z"/>
</g>
</svg>
