<?xml version="1.0" standalone="no"?>
<!DOCTYPE svg PUBLIC "-//W3C//DTD SVG 20010904//EN"
 "http://www.w3.org/TR/2001/REC-SVG-20010904/DTD/svg10.dtd">
<svg version="1.0" xmlns="http://www.w3.org/2000/svg"
 width="224.000000pt" height="258.000000pt" viewBox="0 0 224.000000 258.000000"
 preserveAspectRatio="xMidYMid meet">
<metadata>
Created by potrace 1.16, written by Peter Selinger 2001-2019
</metadata>
<g transform="translate(0.000000,258.000000) scale(0.100000,-0.100000)"
fill="#000000" stroke="none">
<path d="M1002 2569 c-201 -31 -373 -152 -456 -321 -47 -94 -66 -187 -66 -321
0 -106 -1 -109 -28 -137 -79 -78 -60 -275 31 -330 18 -11 42 -20 53 -20 19 0
24 -10 39 -75 20 -93 81 -217 138 -282 38 -43 42 -52 37 -86 l-5 -39 -160 -62
c-250 -97 -349 -159 -440 -274 -104 -130 -139 -244 -139 -450 -1 -131 1 -145
18 -158 17 -12 182 -14 1101 -14 1035 0 1083 1 1098 18 14 15 17 41 17 148 0
74 -7 158 -15 197 -38 181 -171 350 -349 444 -39 20 -141 63 -226 94 -152 55
-155 57 -162 90 -5 29 -2 38 26 69 47 52 94 123 121 183 21 47 30 77 50 170 4
19 12 27 26 27 11 0 32 6 47 14 92 47 110 279 28 344 -22 16 -23 27 -28 157
-5 121 -9 151 -35 227 -83 241 -279 379 -556 392 -56 3 -130 1 -165 -5z m270
-80 c87 -18 193 -76 258 -141 101 -101 150 -231 150 -397 l0 -95 -55 54 c-67
66 -129 148 -171 227 -17 32 -38 59 -47 61 -9 2 -36 -10 -59 -26 -147 -100
-310 -152 -549 -173 -68 -5 -129 -15 -136 -21 -7 -6 -22 -31 -33 -56 -22 -48
-47 -82 -62 -82 -4 0 -8 48 -8 108 0 181 40 284 154 397 72 71 138 109 238
135 84 22 237 26 320 9z m173 -477 c79 -115 200 -237 242 -247 50 -10 73 -47
73 -115 0 -101 -25 -140 -88 -140 -38 0 -51 -16 -62 -81 -35 -214 -180 -393
-364 -451 -96 -30 -212 -23 -298 20 -83 41 -164 114 -218 195 -39 60 -90 195
-90 240 0 47 -23 72 -69 77 -60 7 -84 40 -88 123 -5 92 14 120 90 132 49 8
101 55 122 109 l17 43 98 7 c179 11 331 52 475 127 50 26 92 47 95 48 3 0 32
-39 65 -87z m-477 -1101 c128 -43 274 -31 388 33 l44 25 0 -50 c0 -61 -16 -94
-71 -143 -64 -59 -121 -81 -209 -81 -61 0 -86 5 -130 26 -102 49 -145 104
-156 198 l-7 63 41 -26 c22 -14 67 -34 100 -45z m-214 -66 c11 -45 122 -152
194 -187 62 -31 73 -33 172 -33 93 0 111 3 163 27 69 33 156 112 188 173 13
25 27 45 30 45 17 0 251 -85 306 -111 130 -62 233 -160 294 -281 40 -80 56
-152 64 -291 l6 -117 -1045 0 -1046 0 0 108 c0 197 47 319 170 442 41 42 100
89 130 105 68 36 329 143 351 144 10 1 19 -10 23 -24z"/>
<path d="M856 1694 c-9 -8 -16 -31 -16 -49 0 -58 49 -85 83 -47 49 54 -17 147
-67 96z"/>
<path d="M1326 1694 c-9 -8 -16 -31 -16 -49 0 -58 49 -85 83 -47 35 38 13 112
-33 112 -10 0 -26 -7 -34 -16z"/>
<path d="M1240 1288 c-61 -23 -117 -29 -161 -17 -24 6 -60 12 -79 13 -29 1
-36 -3 -38 -21 -4 -30 58 -61 136 -69 100 -11 213 35 196 79 -8 21 -25 26 -54
15z"/>
</g>
</svg>
