<?xml version="1.0" standalone="no"?>
<!DOCTYPE svg PUBLIC "-//W3C//DTD SVG 20010904//EN"
 "http://www.w3.org/TR/2001/REC-SVG-20010904/DTD/svg10.dtd">
<svg version="1.0" xmlns="http://www.w3.org/2000/svg"
 width="191.000000pt" height="210.000000pt" viewBox="0 0 191.000000 210.000000"
 preserveAspectRatio="xMidYMid meet">
<metadata>
Created by potrace 1.16, written by Peter Selinger 2001-2019
</metadata>
<g transform="translate(0.000000,210.000000) scale(0.100000,-0.100000)"
fill="#000000" stroke="none">
<path d="M410 2072 c-25 -25 -30 -39 -30 -76 l0 -46 -137 0 c-155 0 -185 -10
-223 -72 -19 -32 -20 -53 -20 -896 0 -971 -5 -911 75 -957 l42 -25 833 0 c823
0 834 0 876 21 24 11 52 35 64 53 20 33 20 45 20 903 l0 870 -23 34 c-38 58
-74 69 -219 69 l-128 0 0 46 c0 57 -40 104 -90 104 -50 0 -90 -47 -90 -104 l0
-46 -400 0 -400 0 0 44 c0 57 -30 94 -82 103 -32 5 -41 1 -68 -25z m92 -29
c15 -14 18 -32 18 -124 0 -116 -9 -139 -54 -139 -40 0 -50 25 -54 131 -4 80
-1 104 12 124 19 29 51 32 78 8z m980 0 c15 -14 18 -32 18 -120 0 -118 -8
-143 -48 -143 -47 0 -52 14 -52 142 0 101 2 118 18 127 25 15 43 13 64 -6z
m-1102 -189 c0 -48 4 -59 29 -85 40 -39 82 -39 122 0 25 26 29 37 29 85 l0 56
400 0 400 0 0 -56 c0 -48 4 -59 29 -85 40 -39 82 -39 122 0 25 26 29 37 29 85
l0 56 130 0 130 0 38 -34 37 -34 0 -159 0 -158 -920 0 -920 0 0 151 c0 225 7
233 213 234 l132 0 0 -56z m1500 -1034 c0 -728 1 -714 -55 -758 l-28 -22 -836
0 c-644 0 -842 3 -860 13 -13 6 -34 25 -45 40 -21 28 -21 36 -24 713 l-3 684
926 0 925 0 0 -670z"/>
<path d="M526 1098 c-113 -85 -129 -104 -102 -114 9 -3 52 20 110 59 l96 65 2
-356 c3 -349 3 -357 23 -357 20 0 20 7 20 390 0 383 0 390 -20 393 -13 2 -61
-28 -129 -80z"/>
<path d="M1233 1153 c-11 -15 -88 -134 -171 -264 -113 -176 -152 -244 -152
-268 l0 -31 180 0 179 0 3 -97 c3 -90 5 -98 23 -98 18 0 20 8 23 97 l3 97 77
3 c60 2 77 6 77 18 0 12 -17 16 -77 18 l-78 3 -2 272 -3 272 -31 3 c-25 2 -36
-3 -51 -25z m37 -283 l0 -240 -155 0 c-85 0 -155 2 -155 5 0 4 85 138 266 423
19 28 36 52 39 52 3 0 5 -108 5 -240z"/>
</g>
</svg>
