<?xml version="1.0" standalone="no"?>
<!DOCTYPE svg PUBLIC "-//W3C//DTD SVG 20010904//EN"
 "http://www.w3.org/TR/2001/REC-SVG-20010904/DTD/svg10.dtd">
<svg version="1.0" xmlns="http://www.w3.org/2000/svg"
 width="157.000000pt" height="156.000000pt" viewBox="0 0 157.000000 156.000000"
 preserveAspectRatio="xMidYMid meet">
<metadata>
Created by potrace 1.16, written by Peter Selinger 2001-2019
</metadata>
<g transform="translate(0.000000,156.000000) scale(0.100000,-0.100000)"
fill="#000000" stroke="none">
<path d="M173 1546 c-78 -25 -129 -82 -157 -176 -24 -80 -24 -1119 0 -1199 21
-72 83 -134 155 -155 76 -23 1149 -24 1225 -1 64 19 113 60 144 121 l25 49 0
590 c0 580 0 591 -21 636 -12 25 -38 62 -58 82 -66 67 -71 67 -705 66 -437 0
-576 -3 -608 -13z m1200 -52 c64 -22 110 -78 132 -157 14 -55 16 -125 13 -592
-3 -495 -4 -532 -22 -565 -26 -49 -55 -79 -101 -103 -39 -22 -49 -22 -592 -25
-378 -2 -566 1 -594 8 -48 13 -117 72 -136 117 -10 26 -13 146 -13 600 0 532
2 571 19 608 10 22 32 53 49 68 57 55 70 56 658 56 470 1 547 -1 587 -15z"/>
</g>
</svg>
