<?xml version="1.0" standalone="no"?>
<!DOCTYPE svg PUBLIC "-//W3C//DTD SVG 20010904//EN"
 "http://www.w3.org/TR/2001/REC-SVG-20010904/DTD/svg10.dtd">
<svg version="1.0" xmlns="http://www.w3.org/2000/svg"
 width="229.000000pt" height="117.000000pt" viewBox="0 0 229.000000 117.000000"
 preserveAspectRatio="xMidYMid meet">
<metadata>
Created by potrace 1.16, written by Peter Selinger 2001-2019
</metadata>
<g transform="translate(0.000000,117.000000) scale(0.100000,-0.100000)"
fill="#000000" stroke="none">
<path d="M710 1155 c-83 -21 -206 -87 -295 -158 -118 -93 -231 -170 -305 -207
-79 -39 -110 -66 -110 -96 0 -38 10 -53 52 -76 22 -13 92 -82 160 -161 201
-229 381 -356 603 -424 81 -24 109 -27 276 -31 217 -4 314 9 463 62 188 67
325 167 501 367 109 124 156 172 204 207 34 25 41 65 19 95 -7 9 -51 35 -97
57 -98 48 -143 77 -266 176 -114 90 -182 133 -270 170 -60 24 -83 29 -165 29
-86 0 -107 -4 -221 -43 l-126 -43 -104 42 c-120 48 -222 59 -319 34z m292 -94
c53 -23 112 -41 131 -41 20 0 75 15 124 34 137 52 190 61 272 47 96 -17 167
-54 306 -157 194 -145 247 -180 305 -205 30 -12 64 -28 74 -36 18 -12 16 -14
-29 -34 -44 -20 -59 -21 -194 -15 -80 3 -171 10 -201 15 -97 16 -342 7 -475
-18 -135 -26 -203 -24 -389 9 -139 25 -251 25 -446 0 -222 -29 -337 -24 -399
17 l-25 16 47 18 c65 26 149 80 309 201 272 206 387 235 590 149z m-107 -460
c92 -31 287 -38 420 -16 245 40 246 40 492 15 127 -12 244 -21 262 -18 17 2
31 3 31 1 0 -2 -15 -21 -34 -41 -18 -20 -61 -68 -95 -107 -159 -180 -320 -284
-531 -341 -99 -27 -117 -28 -300 -28 -179 0 -203 2 -292 26 -112 31 -244 96
-340 168 -63 48 -308 294 -308 310 0 4 57 10 128 14 70 3 170 12 222 20 102
16 294 14 345 -3z"/>
</g>
</svg>
