<?xml version="1.0" standalone="no"?>
<!DOCTYPE svg PUBLIC "-//W3C//DTD SVG 20010904//EN"
 "http://www.w3.org/TR/2001/REC-SVG-20010904/DTD/svg10.dtd">
<svg version="1.0" xmlns="http://www.w3.org/2000/svg"
 width="185.000000pt" height="236.000000pt" viewBox="0 0 185.000000 236.000000"
 preserveAspectRatio="xMidYMid meet">
<metadata>
Created by potrace 1.16, written by Peter Selinger 2001-2019
</metadata>
<g transform="translate(0.000000,236.000000) scale(0.100000,-0.100000)"
fill="#000000" stroke="none">
<path d="M25 2335 l-25 -24 0 -1129 c0 -1127 0 -1129 21 -1156 l20 -26 889 0
889 0 15 22 c14 20 16 125 16 933 l0 910 -241 248 -241 247 -659 0 -660 0 -24
-25z m1295 -245 l0 -221 25 -24 c24 -25 24 -25 240 -25 l215 0 0 -885 0 -885
-872 2 -873 3 -3 1114 c-1 815 1 1117 9 1127 9 12 122 14 635 14 l624 0 0
-220z m258 -218 c-146 -2 -193 1 -200 10 -4 7 -8 98 -8 203 l0 190 200 -200
200 -200 -192 -3z"/>
<path d="M563 1474 c-4 -11 45 -67 173 -195 l179 -179 -178 -178 c-97 -97
-177 -183 -177 -190 0 -7 7 -15 16 -19 11 -4 67 45 194 172 l179 179 172 -178
c127 -131 177 -176 192 -174 11 2 22 9 25 16 2 8 -75 93 -174 193 l-179 179
179 179 c128 128 177 184 173 195 -4 9 -12 16 -19 16 -7 0 -93 -80 -190 -177
l-178 -178 -178 178 c-97 97 -183 177 -190 177 -7 0 -15 -7 -19 -16z"/>
</g>
</svg>
