<?xml version="1.0" standalone="no"?>
<!DOCTYPE svg PUBLIC "-//W3C//DTD SVG 20010904//EN"
 "http://www.w3.org/TR/2001/REC-SVG-20010904/DTD/svg10.dtd">
<svg version="1.0" xmlns="http://www.w3.org/2000/svg"
 width="231.000000pt" height="183.000000pt" viewBox="0 0 231.000000 183.000000"
 preserveAspectRatio="xMidYMid meet">
<metadata>
Created by potrace 1.16, written by Peter Selinger 2001-2019
</metadata>
<g transform="translate(0.000000,183.000000) scale(0.100000,-0.100000)"
fill="#000000" stroke="none">
<path d="M1209 1793 c-16 -50 -15 -158 4 -210 l15 -43 -129 0 c-117 0 -129 -2
-139 -19 -12 -24 -13 -76 -1 -118 l9 -32 -386 -3 -387 -3 -49 -25 c-85 -43
-90 -56 -97 -248 -6 -159 -13 -204 -38 -250 -8 -15 -7 -23 4 -32 11 -9 17 -6
31 15 31 47 44 125 44 258 0 173 20 215 108 233 l32 6 -23 -48 c-22 -49 -22
-52 -25 -606 -3 -545 -2 -558 18 -598 11 -22 33 -46 50 -55 63 -32 167 -10
193 42 8 15 20 54 26 85 l12 57 57 6 c173 21 262 68 329 176 l36 59 126 0
c200 0 217 -16 257 -236 14 -75 29 -145 35 -155 15 -29 63 -49 116 -49 60 0
91 16 120 59 22 33 23 40 23 281 l0 247 113 6 c62 4 135 14 163 22 58 17 110
65 124 116 6 18 10 147 10 285 l0 251 105 11 c117 12 157 28 192 82 18 25 23
47 23 94 0 35 -5 67 -12 74 -8 8 -51 12 -129 12 l-118 0 16 38 c10 24 15 66
15 117 -1 148 -39 180 -77 65 -28 -85 -46 -118 -87 -157 l-33 -31 -134 10
c-89 6 -171 6 -245 -1 -107 -9 -112 -9 -134 12 -42 39 -66 80 -92 157 -30 88
-52 101 -71 43z m107 -208 l36 -45 -40 0 c-41 0 -41 0 -57 52 -8 28 -15 68
-15 87 l0 36 20 -43 c11 -24 36 -63 56 -87z m708 9 c-16 -51 -18 -54 -50 -54
-19 0 -34 3 -34 6 0 3 16 26 35 51 19 25 40 61 47 81 l13 36 3 -33 c2 -18 -4
-57 -14 -87z m-129 -74 c53 -26 55 -40 55 -352 l0 -287 -26 24 c-47 44 -85 50
-299 50 -199 0 -200 0 -248 -27 l-48 -27 3 288 c3 326 2 321 82 340 66 16 445
8 481 -9z m-599 -42 c-3 -13 -6 -54 -6 -92 l0 -68 -97 4 c-143 6 -190 37 -201
133 l-5 45 158 0 157 0 -6 -22z m974 -22 c0 -59 -33 -107 -85 -122 -22 -7 -75
-13 -117 -13 l-78 -1 0 68 c0 37 -3 77 -6 90 l-6 22 146 0 146 0 0 -44z
m-1484 -138 c27 -43 20 -198 -11 -258 -27 -52 -76 -100 -145 -141 -53 -31 -78
-55 -123 -118 -68 -95 -101 -114 -210 -119 l-78 -4 3 263 c3 229 6 270 22 307
35 81 37 82 302 82 167 0 235 -3 240 -12z m248 -9 c30 -18 150 -37 238 -39 16
0 17 -23 20 -262 2 -210 6 -269 18 -292 25 -49 80 -85 158 -104 l72 -17 0
-247 c0 -242 0 -247 -22 -273 -16 -17 -37 -27 -69 -31 -38 -5 -49 -3 -73 17
-24 21 -29 39 -50 159 -31 178 -58 228 -137 250 -19 6 -162 10 -319 10 -276 0
-286 -1 -325 -23 -54 -30 -79 -85 -105 -227 -25 -144 -34 -166 -72 -179 -42
-15 -64 -14 -97 4 -46 23 -51 55 -51 331 l0 254 78 0 c123 0 178 35 262 163
14 22 51 53 85 74 138 83 198 178 199 318 1 44 -2 92 -7 108 l-7 27 84 0 c68
0 92 -4 120 -21z m786 -400 c53 -12 105 -58 121 -106 9 -27 7 -40 -8 -70 -28
-59 -68 -79 -184 -93 -215 -26 -377 19 -409 114 -21 63 30 137 105 155 55 12
320 13 375 0z m-970 -480 c0 -6 -28 -39 -62 -73 -70 -70 -124 -94 -236 -106
l-64 -6 6 40 c11 65 43 122 79 140 39 19 277 24 277 5z"/>
<path d="M1480 1255 c-24 -29 8 -75 44 -62 30 12 14 77 -20 77 -6 0 -17 -7
-24 -15z"/>
<path d="M1756 1255 c-19 -20 -20 -26 -3 -49 26 -36 84 4 61 42 -15 23 -38 26
-58 7z"/>
<path d="M1484 787 c-8 -23 13 -57 32 -50 21 8 14 57 -9 61 -9 2 -20 -3 -23
-11z"/>
<path d="M1754 786 c-8 -21 -1 -49 13 -53 15 -5 36 34 29 53 -7 18 -35 18 -42
0z"/>
</g>
</svg>
