<?xml version="1.0" standalone="no"?>
<!DOCTYPE svg PUBLIC "-//W3C//DTD SVG 20010904//EN"
 "http://www.w3.org/TR/2001/REC-SVG-20010904/DTD/svg10.dtd">
<svg version="1.0" xmlns="http://www.w3.org/2000/svg"
 width="283.000000pt" height="242.000000pt" viewBox="0 0 283.000000 242.000000"
 preserveAspectRatio="xMidYMid meet">
<metadata>
Created by potrace 1.16, written by Peter Selinger 2001-2019
</metadata>
<g transform="translate(0.000000,242.000000) scale(0.100000,-0.100000)"
fill="#000000" stroke="none">
<path d="M1298 2405 c-128 -35 -236 -123 -294 -240 -29 -58 -37 -88 -41 -151
-3 -44 -1 -96 5 -116 10 -38 10 -38 -54 -100 -216 -207 -181 -520 78 -688 85
-55 165 -74 288 -67 l100 5 0 -212 0 -213 -102 -6 c-388 -22 -787 -196 -1090
-473 l-67 -62 -48 9 c-54 10 -73 6 -73 -15 0 -27 41 -38 149 -43 89 -5 130 -1
256 23 210 40 341 39 520 -4 268 -65 446 -65 705 -1 86 21 161 32 240 36 111
5 121 4 290 -38 169 -42 180 -43 335 -44 205 0 335 23 335 60 0 22 -15 26 -70
15 l-52 -10 -82 78 c-279 263 -705 447 -1087 469 l-109 6 0 217 c0 119 2 219
5 222 3 3 29 -1 57 -9 67 -17 169 -17 236 1 228 61 394 358 326 587 -25 84
-52 129 -120 200 -59 60 -64 69 -64 110 -1 157 -124 348 -272 417 -108 51
-206 63 -300 37z m267 -79 c157 -78 255 -232 255 -402 0 -60 2 -64 29 -78 39
-21 104 -97 131 -153 35 -75 46 -152 31 -230 -27 -147 -119 -276 -239 -335
-60 -30 -75 -33 -157 -33 -49 0 -103 4 -120 8 l-30 9 88 84 c49 46 87 89 85
96 -11 33 -45 17 -118 -57 -41 -41 -78 -75 -82 -75 -5 0 -8 150 -8 334 0 222
-4 337 -10 341 -6 4 -17 1 -25 -5 -12 -10 -15 -52 -15 -231 l0 -219 -96 81
c-52 44 -101 78 -107 76 -7 -2 -13 -12 -15 -23 -1 -14 29 -44 108 -109 l110
-90 0 -102 0 -102 -42 -12 c-25 -7 -78 -9 -126 -6 -70 4 -96 11 -157 41 -166
82 -258 250 -225 412 18 90 65 168 141 236 l66 60 -14 46 c-21 68 -11 180 22
247 99 203 327 287 520 191z m179 -1786 c285 -61 563 -192 776 -365 36 -30 78
-67 94 -84 l29 -30 -28 -7 c-15 -4 -84 -4 -154 -1 -101 4 -154 13 -271 43
-134 35 -156 38 -285 39 -124 0 -155 -4 -278 -33 -271 -64 -419 -65 -691 -1
-196 46 -291 48 -506 11 -96 -17 -191 -32 -210 -35 l-34 -4 54 50 c236 218
571 377 907 432 133 22 466 13 597 -15z"/>
</g>
</svg>
