<?xml version="1.0" standalone="no"?>
<!DOCTYPE svg PUBLIC "-//W3C//DTD SVG 20010904//EN"
 "http://www.w3.org/TR/2001/REC-SVG-20010904/DTD/svg10.dtd">
<svg version="1.0" xmlns="http://www.w3.org/2000/svg"
 width="165.000000pt" height="177.000000pt" viewBox="0 0 165.000000 177.000000"
 preserveAspectRatio="xMidYMid meet">
<metadata>
Created by potrace 1.16, written by Peter Selinger 2001-2019
</metadata>
<g transform="translate(0.000000,177.000000) scale(0.100000,-0.100000)"
fill="#000000" stroke="none">
<path d="M43 1760 c-12 -5 -26 -18 -32 -29 -8 -13 -11 -281 -11 -849 0 -802 1
-831 19 -853 l19 -24 669 0 668 0 105 28 c58 16 116 34 130 40 51 25 49 41
-33 399 -291 1266 -288 1252 -313 1276 l-25 22 -587 -1 c-323 0 -597 -4 -609
-9z m402 -190 l0 -155 -205 0 -205 0 0 141 c0 106 3 145 14 158 12 14 36 16
205 14 l191 -3 0 -155z m400 0 l0 -155 -180 0 -180 0 -3 145 c-1 79 0 150 2
157 4 11 43 13 183 11 l178 -3 0 -155z m399 138 c16 -27 72 -265 64 -274 -3
-3 -68 -21 -144 -41 -77 -19 -145 -40 -151 -45 -7 -6 -13 -21 -13 -34 0 -13
42 -193 94 -401 82 -331 181 -743 201 -841 l7 -32 -209 2 -208 3 -3 843 -2
842 175 0 c170 0 175 -1 189 -22z m95 -375 c19 -87 201 -866 206 -883 4 -13
-23 -23 -132 -52 -76 -20 -140 -32 -143 -28 -13 22 -233 940 -227 947 8 8 242
71 268 72 11 1 19 -15 28 -56z m-891 -450 l-3 -488 -203 0 -203 0 -2 487 -2
488 208 0 207 0 -2 -487z m400 0 l-3 -488 -180 0 -180 0 -3 488 -2 487 185 0
185 0 -2 -487z m732 -590 c32 -138 35 -167 18 -181 -13 -11 -248 -75 -254 -69
-8 7 -63 271 -59 276 7 7 233 69 256 70 13 1 22 -21 39 -96z m-1132 -95 l-3
-153 -185 -3 c-138 -2 -190 1 -203 10 -14 11 -17 35 -19 156 l-3 142 208 0
208 0 -3 -152z m400 0 l-3 -153 -180 0 -180 0 -3 153 -3 152 186 0 186 0 -3
-152z"/>
</g>
</svg>
