<?xml version="1.0" standalone="no"?>
<!DOCTYPE svg PUBLIC "-//W3C//DTD SVG 20010904//EN"
 "http://www.w3.org/TR/2001/REC-SVG-20010904/DTD/svg10.dtd">
<svg version="1.0" xmlns="http://www.w3.org/2000/svg"
 width="216.000000pt" height="216.000000pt" viewBox="0 0 216.000000 216.000000"
 preserveAspectRatio="xMidYMid meet">
<metadata>
Created by potrace 1.16, written by Peter Selinger 2001-2019
</metadata>
<g transform="translate(0.000000,216.000000) scale(0.100000,-0.100000)"
fill="#000000" stroke="none">
<path d="M924 2146 c-355 -58 -652 -273 -808 -585 -88 -175 -123 -341 -113
-541 13 -261 113 -491 298 -684 146 -153 309 -250 507 -303 84 -23 118 -26
257 -26 178 -1 246 10 393 66 244 91 466 294 584 532 147 294 152 632 13 932
-139 302 -428 532 -749 598 -110 22 -283 27 -382 11z m372 -65 c309 -64 571
-272 709 -562 75 -159 90 -235 89 -439 0 -192 -12 -254 -74 -403 -62 -149
-191 -313 -329 -418 -82 -62 -242 -142 -340 -168 -235 -64 -490 -43 -707 58
-278 131 -480 374 -562 680 -22 84 -25 115 -25 251 0 134 3 168 25 250 103
387 421 685 807 754 114 21 298 19 407 -3z"/>
<path d="M617 1533 c-20 -19 11 -56 208 -253 l214 -214 -212 -213 c-117 -118
-212 -222 -212 -231 0 -43 44 -9 245 193 l215 215 216 -216 c156 -155 222
-215 233 -211 9 4 16 12 16 19 0 8 -95 112 -212 232 l-211 218 212 212 c210
210 236 245 191 254 -9 1 -109 -91 -230 -213 l-214 -215 -216 215 c-118 118
-220 215 -226 215 -6 0 -14 -3 -17 -7z"/>
</g>
</svg>
