<?xml version="1.0" standalone="no"?>
<!DOCTYPE svg PUBLIC "-//W3C//DTD SVG 20010904//EN"
 "http://www.w3.org/TR/2001/REC-SVG-20010904/DTD/svg10.dtd">
<svg version="1.0" xmlns="http://www.w3.org/2000/svg"
 width="160.000000pt" height="218.000000pt" viewBox="0 0 160.000000 218.000000"
 preserveAspectRatio="xMidYMid meet">
<metadata>
Created by potrace 1.16, written by Peter Selinger 2001-2019
</metadata>
<g transform="translate(0.000000,218.000000) scale(0.100000,-0.100000)"
fill="#000000" stroke="none">
<path d="M634 2165 c-215 -47 -405 -198 -505 -400 -49 -102 -69 -177 -76 -290
-11 -192 58 -393 185 -535 23 -26 42 -51 42 -54 0 -3 -63 -151 -140 -327 -77
-177 -140 -327 -140 -335 0 -28 32 -26 180 15 82 23 156 41 164 41 9 0 51 -61
98 -140 103 -173 111 -176 158 -62 84 204 196 462 201 462 5 0 125 -284 190
-452 48 -124 54 -122 159 57 62 105 89 143 101 140 68 -21 314 -85 325 -85 8
0 17 7 20 15 4 9 -58 163 -136 344 l-142 329 52 63 c99 123 152 247 171 400
24 200 -36 399 -168 562 -99 120 -262 221 -408 252 -86 18 -249 18 -331 0z
m404 -63 c201 -75 360 -235 428 -432 54 -156 54 -315 0 -471 -36 -103 -81
-174 -166 -259 -88 -88 -157 -131 -277 -173 -81 -29 -99 -31 -218 -32 -109 0
-142 4 -205 23 -126 40 -206 88 -301 182 -73 72 -93 100 -132 180 -102 210
-102 420 -1 628 71 145 207 276 350 337 100 43 175 55 309 52 116 -3 139 -7
213 -35z m-671 -1276 c105 -74 232 -120 369 -132 41 -4 74 -11 74 -16 0 -5 -9
-26 -19 -46 -26 -52 -192 -442 -221 -520 l-23 -63 -37 58 c-20 32 -55 90 -79
130 -23 40 -48 77 -56 83 -12 10 -46 3 -263 -60 -59 -17 -63 -17 -57 -2 13 36
260 602 262 602 2 0 24 -15 50 -34z m1045 -258 c70 -161 129 -300 133 -309 5
-13 -25 -7 -152 27 -87 24 -163 44 -170 44 -6 0 -48 -63 -94 -140 l-82 -140
-58 151 c-32 83 -83 207 -114 276 l-54 125 24 48 c23 46 25 47 79 54 81 9 215
61 287 111 35 24 67 44 70 44 3 1 62 -131 131 -291z"/>
<path d="M713 1743 c-62 -42 -93 -70 -93 -83 0 -10 4 -21 8 -24 4 -2 43 18 85
45 43 27 80 49 82 49 3 0 6 -154 7 -342 3 -331 4 -341 23 -344 11 -2 23 2 27
9 4 7 8 180 8 385 l0 372 -27 -1 c-17 -1 -65 -27 -120 -66z"/>
</g>
</svg>
