<?xml version="1.0" standalone="no"?>
<!DOCTYPE svg PUBLIC "-//W3C//DTD SVG 20010904//EN"
 "http://www.w3.org/TR/2001/REC-SVG-20010904/DTD/svg10.dtd">
<svg version="1.0" xmlns="http://www.w3.org/2000/svg"
 width="187.000000pt" height="109.000000pt" viewBox="0 0 187.000000 109.000000"
 preserveAspectRatio="xMidYMid meet">
<metadata>
Created by potrace 1.16, written by Peter Selinger 2001-2019
</metadata>
<g transform="translate(0.000000,109.000000) scale(0.100000,-0.100000)"
fill="#000000" stroke="none">
<path d="M1300 1077 c0 -6 110 -122 245 -257 l245 -245 -892 -5 c-785 -4 -893
-7 -893 -20 0 -13 109 -16 898 -20 l897 -5 -250 -250 c-137 -137 -250 -256
-250 -262 0 -38 59 11 280 234 135 137 257 261 270 276 l24 28 -269 269 c-244
244 -305 296 -305 257z"/>
</g>
</svg>
