<?xml version="1.0" standalone="no"?>
<!DOCTYPE svg PUBLIC "-//W3C//DTD SVG 20010904//EN"
 "http://www.w3.org/TR/2001/REC-SVG-20010904/DTD/svg10.dtd">
<svg version="1.0" xmlns="http://www.w3.org/2000/svg"
 width="154.000000pt" height="269.000000pt" viewBox="0 0 154.000000 269.000000"
 preserveAspectRatio="xMidYMid meet">
<metadata>
Created by potrace 1.16, written by Peter Selinger 2001-2019
</metadata>
<g transform="translate(0.000000,269.000000) scale(0.100000,-0.100000)"
fill="#000000" stroke="none">
<path d="M660 2675 c-174 -30 -309 -101 -435 -229 -97 -97 -151 -185 -195
-316 -34 -101 -40 -298 -11 -410 132 -524 712 -757 1163 -467 187 120 311 305
349 522 50 288 -85 609 -325 774 -157 108 -370 157 -546 126z m248 -61 c47 -9
118 -35 181 -65 87 -43 116 -63 186 -132 91 -91 143 -172 183 -286 24 -68 26
-90 27 -221 0 -134 -2 -152 -29 -234 -61 -184 -202 -344 -376 -425 -303 -141
-658 -61 -873 196 -57 69 -120 193 -144 283 -21 80 -23 262 -4 340 93 380 469
621 849 544z"/>
</g>
</svg>
