<?xml version="1.0" standalone="no"?>
<!DOCTYPE svg PUBLIC "-//W3C//DTD SVG 20010904//EN"
 "http://www.w3.org/TR/2001/REC-SVG-20010904/DTD/svg10.dtd">
<svg version="1.0" xmlns="http://www.w3.org/2000/svg"
 width="121.000000pt" height="192.000000pt" viewBox="0 0 121.000000 192.000000"
 preserveAspectRatio="xMidYMid meet">
<metadata>
Created by potrace 1.16, written by Peter Selinger 2001-2019
</metadata>
<g transform="translate(0.000000,192.000000) scale(0.100000,-0.100000)"
fill="#000000" stroke="none">
<path d="M814 1838 c-194 -202 -274 -378 -261 -575 7 -93 25 -163 65 -245 l28
-57 -61 -78 c-34 -43 -179 -230 -323 -417 -226 -291 -262 -343 -262 -373 0
-58 65 -104 125 -89 24 6 159 181 551 711 l111 150 74 17 c191 46 304 153 340
326 23 111 -6 282 -68 407 -48 95 -205 305 -228 305 -7 0 -48 -37 -91 -82z
m191 -123 c93 -131 145 -277 145 -410 0 -131 -52 -241 -143 -302 -61 -41 -206
-88 -221 -73 -8 8 13 58 72 176 80 157 91 194 59 194 -21 0 -27 -10 -112 -172
-71 -137 -78 -147 -97 -137 -44 24 -98 190 -98 304 1 174 74 328 238 497 l55
57 30 -37 c16 -20 48 -64 72 -97z m-281 -798 c22 -16 28 -6 -362 -529 -201
-270 -248 -328 -267 -328 -14 0 -29 9 -35 19 -10 19 58 112 485 661 168 215
150 198 179 177z"/>
</g>
</svg>
