<?xml version="1.0" standalone="no"?>
<!DOCTYPE svg PUBLIC "-//W3C//DTD SVG 20010904//EN"
 "http://www.w3.org/TR/2001/REC-SVG-20010904/DTD/svg10.dtd">
<svg version="1.0" xmlns="http://www.w3.org/2000/svg"
 width="172.000000pt" height="230.000000pt" viewBox="0 0 172.000000 230.000000"
 preserveAspectRatio="xMidYMid meet">
<metadata>
Created by potrace 1.16, written by Peter Selinger 2001-2019
</metadata>
<g transform="translate(0.000000,230.000000) scale(0.100000,-0.100000)"
fill="#000000" stroke="none">
<path d="M12 2288 c-17 -17 -17 -2259 0 -2276 16 -16 45 -15 55 1 4 6 10 205
13 442 l5 430 65 12 c82 15 235 16 337 2 89 -12 242 -51 427 -108 265 -82 462
-92 646 -32 52 17 110 40 128 51 l32 20 -2 622 c-3 712 7 648 -102 604 -97
-39 -187 -57 -290 -57 -110 0 -178 14 -384 82 -191 62 -307 87 -473 99 -119
10 -317 1 -371 -16 -16 -5 -18 2 -18 50 0 71 -34 108 -68 74z m428 -345 l0
-168 -123 -1 c-67 -1 -148 -6 -179 -11 l-58 -10 0 168 0 167 73 10 c39 5 120
10 180 11 l107 1 0 -167z m540 46 c76 -27 203 -59 234 -59 l26 0 0 -165 0
-165 -27 0 c-28 0 -188 37 -273 63 l-45 14 -3 173 c-2 162 -1 172 15 165 10
-4 43 -16 73 -26z m-340 -313 c63 -13 134 -29 158 -35 l42 -12 0 -168 0 -169
-103 28 c-56 15 -135 33 -175 40 l-72 13 0 164 c0 149 2 163 18 163 9 0 69
-11 132 -24z m1010 -254 l0 -159 -91 -28 c-57 -17 -124 -29 -180 -33 l-89 -5
0 160 0 160 106 13 c59 7 134 20 168 30 33 10 67 18 74 19 9 1 12 -37 12 -157z
m-1232 -108 c22 -6 22 -9 22 -168 l0 -161 -74 3 c-68 4 -207 -9 -263 -24 l-23
-6 0 165 0 166 36 7 c92 17 265 27 302 18z m795 -184 l27 0 0 -169 0 -168 -27
4 c-82 13 -186 36 -250 55 l-73 21 0 166 0 167 148 -38 c81 -20 159 -37 175
-38z"/>
</g>
</svg>
