<?xml version="1.0" standalone="no"?>
<!DOCTYPE svg PUBLIC "-//W3C//DTD SVG 20010904//EN"
 "http://www.w3.org/TR/2001/REC-SVG-20010904/DTD/svg10.dtd">
<svg version="1.0" xmlns="http://www.w3.org/2000/svg"
 width="121.000000pt" height="191.000000pt" viewBox="0 0 121.000000 191.000000"
 preserveAspectRatio="xMidYMid meet">
<metadata>
Created by potrace 1.16, written by Peter Selinger 2001-2019
</metadata>
<g transform="translate(0.000000,191.000000) scale(0.100000,-0.100000)"
fill="#000000" stroke="none">
<path d="M436 1899 c-167 -18 -309 -69 -390 -140 l-41 -37 -3 -751 c-2 -667
-1 -755 13 -782 33 -64 186 -137 355 -170 84 -16 383 -17 477 -1 172 29 288
84 340 161 l23 34 0 748 0 748 -31 36 c-68 78 -251 138 -471 155 -139 11 -161
11 -272 -1z m329 -49 c138 -16 224 -37 292 -70 164 -81 146 -186 -44 -258
-124 -47 -197 -57 -408 -56 -170 1 -200 4 -286 27 -120 32 -208 75 -248 124
-40 49 -39 74 4 112 48 42 99 67 189 91 140 39 326 50 501 30z m-594 -355
c116 -52 223 -69 454 -69 185 -1 221 2 298 22 92 23 151 49 204 88 17 13 34
24 37 24 3 0 6 -299 6 -664 l0 -663 -22 -34 c-16 -23 -47 -46 -98 -71 -116
-58 -173 -70 -366 -75 -249 -7 -393 15 -531 82 -123 61 -113 -9 -113 774 l0
672 38 -30 c20 -17 62 -42 93 -56z"/>
<path d="M619 1695 c-29 -16 -43 -59 -28 -87 20 -38 150 -50 254 -23 85 22
185 71 185 90 0 27 -47 35 -218 35 -125 -1 -174 -4 -193 -15z m309 -40 c2 -2
-21 -11 -50 -21 -37 -13 -81 -18 -146 -18 -101 1 -133 14 -98 40 16 11 46 12
155 7 75 -3 137 -7 139 -8z"/>
</g>
</svg>
