<?xml version="1.0" standalone="no"?>
<!DOCTYPE svg PUBLIC "-//W3C//DTD SVG 20010904//EN"
 "http://www.w3.org/TR/2001/REC-SVG-20010904/DTD/svg10.dtd">
<svg version="1.0" xmlns="http://www.w3.org/2000/svg"
 width="163.000000pt" height="162.000000pt" viewBox="0 0 163.000000 162.000000"
 preserveAspectRatio="xMidYMid meet">
<metadata>
Created by potrace 1.16, written by Peter Selinger 2001-2019
</metadata>
<g transform="translate(0.000000,162.000000) scale(0.100000,-0.100000)"
fill="#000000" stroke="none">
<path d="M690 1614 c-297 -58 -519 -233 -629 -498 -33 -79 -61 -218 -61 -300
1 -203 84 -414 221 -561 111 -118 249 -199 405 -236 119 -28 322 -23 429 11
222 70 390 213 490 415 65 133 79 195 79 360 1 117 -3 153 -22 218 -50 176
-159 335 -300 439 -66 49 -197 112 -277 134 -59 16 -283 28 -335 18z m345 -74
c132 -41 222 -96 320 -195 100 -100 154 -189 196 -325 34 -108 34 -310 1 -425
-72 -249 -257 -437 -505 -514 -280 -86 -568 -14 -772 193 -91 93 -137 164
-176 276 -157 444 101 907 561 1006 95 20 285 12 375 -16z"/>
<path d="M507 1063 c-4 -3 -7 -39 -7 -80 0 -59 3 -75 16 -80 33 -12 49 11 52
76 2 38 -2 68 -9 77 -12 15 -41 19 -52 7z"/>
<path d="M1082 1058 c-7 -7 -12 -39 -12 -75 0 -49 4 -64 18 -72 36 -19 52 4
52 74 0 53 -3 66 -19 75 -24 13 -24 13 -39 -2z"/>
<path d="M443 584 c-8 -22 78 -106 148 -144 62 -33 167 -60 234 -60 104 0 234
55 323 136 54 50 56 53 40 70 -16 17 -20 15 -66 -28 -101 -95 -250 -143 -372
-120 -87 16 -162 53 -223 111 -57 54 -74 61 -84 35z"/>
</g>
</svg>
