<?xml version="1.0" standalone="no"?>
<!DOCTYPE svg PUBLIC "-//W3C//DTD SVG 20010904//EN"
 "http://www.w3.org/TR/2001/REC-SVG-20010904/DTD/svg10.dtd">
<svg version="1.0" xmlns="http://www.w3.org/2000/svg"
 width="210.000000pt" height="205.000000pt" viewBox="0 0 210.000000 205.000000"
 preserveAspectRatio="xMidYMid meet">
<metadata>
Created by potrace 1.16, written by Peter Selinger 2001-2019
</metadata>
<g transform="translate(0.000000,205.000000) scale(0.100000,-0.100000)"
fill="#000000" stroke="none">
<path d="M474 2038 c-31 -15 -44 -50 -44 -123 l0 -63 -157 -4 c-139 -3 -163
-6 -199 -25 -78 -42 -74 8 -74 -882 0 -690 2 -796 15 -828 20 -48 41 -71 87
-94 36 -18 74 -19 950 -19 l914 0 44 22 c24 13 53 36 64 51 21 28 21 36 21
859 l0 830 -36 33 c-47 42 -106 55 -259 55 l-120 0 0 71 c0 65 -2 73 -29 100
-38 37 -79 38 -115 3 -23 -24 -26 -34 -26 -100 l0 -74 -455 0 -455 0 0 71 c0
65 -2 73 -29 100 -30 30 -60 35 -97 17z m64 -44 c21 -15 22 -21 22 -175 0 -91
-4 -169 -10 -180 -6 -11 -21 -19 -35 -19 -14 0 -29 8 -35 19 -6 11 -10 88 -10
177 0 132 3 160 17 176 20 22 23 22 51 2z m1084 -1 c16 -14 18 -34 18 -175 0
-91 -4 -168 -10 -179 -6 -11 -21 -19 -35 -19 -14 0 -29 8 -35 19 -6 11 -10 88
-10 177 0 132 3 160 17 176 20 22 31 23 55 1z m-1192 -273 c0 -83 2 -93 25
-115 33 -34 87 -34 120 0 23 22 25 32 25 115 l0 90 455 0 455 0 0 -89 c0 -74
3 -92 21 -115 28 -36 89 -37 124 -1 23 22 25 32 25 116 l0 92 138 -5 c231 -8
242 -18 242 -230 l0 -148 -1010 0 -1010 0 0 139 c0 153 6 182 45 207 39 26 79
32 218 33 l127 1 0 -90z m1628 -968 l-3 -634 -37 -34 -38 -34 -921 0 c-1035 0
-960 -6 -999 75 -19 40 -20 64 -20 646 0 333 2 608 4 610 2 2 457 4 1010 4
l1006 0 -2 -633z"/>
<path d="M972 1069 c-52 -38 -82 -67 -80 -77 6 -28 24 -23 91 28 l67 50 2
-367 c3 -360 3 -368 23 -368 20 0 20 7 20 395 0 464 10 437 -123 339z"/>
</g>
</svg>
