<?xml version="1.0" standalone="no"?>
<!DOCTYPE svg PUBLIC "-//W3C//DTD SVG 20010904//EN"
 "http://www.w3.org/TR/2001/REC-SVG-20010904/DTD/svg10.dtd">
<svg version="1.0" xmlns="http://www.w3.org/2000/svg"
 width="209.000000pt" height="55.000000pt" viewBox="0 0 209.000000 55.000000"
 preserveAspectRatio="xMidYMid meet">
<metadata>
Created by potrace 1.16, written by Peter Selinger 2001-2019
</metadata>
<g transform="translate(0.000000,55.000000) scale(0.100000,-0.100000)"
fill="#000000" stroke="none">
<path d="M155 526 c-89 -41 -145 -122 -153 -223 -7 -86 12 -144 65 -203 59
-66 120 -94 204 -94 154 0 269 113 269 265 0 84 -16 132 -64 186 -80 91 -213
120 -321 69z m188 -30 c153 -55 205 -242 101 -365 -106 -123 -302 -101 -376
42 -30 58 -29 147 1 210 49 101 169 150 274 113z"/>
<path d="M946 535 c-173 -62 -230 -296 -106 -438 57 -65 118 -91 205 -91 86 1
147 27 204 89 128 139 69 380 -108 440 -55 18 -143 19 -195 0z m159 -36 c24
-6 63 -27 86 -47 122 -105 102 -301 -40 -374 -124 -65 -277 -7 -320 121 -36
107 10 229 104 278 64 34 103 39 170 22z"/>
<path d="M1725 538 c-38 -14 -99 -58 -125 -91 -77 -97 -70 -254 14 -354 68
-80 217 -112 317 -66 102 46 158 134 159 248 0 117 -57 208 -160 254 -50 23
-153 27 -205 9z m211 -63 c54 -32 101 -100 110 -161 20 -137 -88 -264 -225
-264 -127 0 -231 106 -231 234 0 46 30 119 63 154 69 74 192 90 283 37z"/>
</g>
</svg>
