<?xml version="1.0" standalone="no"?>
<!DOCTYPE svg PUBLIC "-//W3C//DTD SVG 20010904//EN"
 "http://www.w3.org/TR/2001/REC-SVG-20010904/DTD/svg10.dtd">
<svg version="1.0" xmlns="http://www.w3.org/2000/svg"
 width="231.000000pt" height="248.000000pt" viewBox="0 0 231.000000 248.000000"
 preserveAspectRatio="xMidYMid meet">
<metadata>
Created by potrace 1.16, written by Peter Selinger 2001-2019
</metadata>
<g transform="translate(0.000000,248.000000) scale(0.100000,-0.100000)"
fill="#000000" stroke="none">
<path d="M1133 2470 c-213 -39 -383 -204 -428 -417 -40 -187 13 -373 144 -504
328 -329 886 -122 927 344 16 189 -85 394 -246 497 -106 68 -273 102 -397 80z
m237 -77 c79 -22 126 -49 186 -105 106 -100 155 -212 156 -353 1 -365 -376
-595 -703 -429 -201 101 -302 357 -231 579 81 250 331 380 592 308z"/>
<path d="M680 1354 c-30 -8 -89 -31 -130 -52 -97 -47 -230 -176 -285 -276 -39
-71 -195 -465 -240 -608 -56 -178 -16 -305 120 -376 41 -22 63 -26 125 -27
117 0 186 45 290 189 30 41 57 75 60 75 3 0 18 -20 34 -45 37 -60 112 -118
211 -166 130 -62 190 -70 490 -65 288 4 324 10 453 73 128 62 252 202 252 284
0 40 -18 50 -87 50 l-63 0 0 154 c0 128 -3 156 -16 167 -11 9 -20 10 -32 2
-15 -9 -17 -31 -16 -167 l1 -156 -504 0 -504 0 26 35 c31 39 65 141 65 190 0
30 4 34 33 40 94 20 211 99 267 180 42 60 46 93 22 149 -27 59 -70 86 -140 86
-78 0 -141 -36 -240 -137 -81 -83 -84 -84 -114 -74 -68 24 -158 9 -227 -37
-59 -40 -361 -330 -361 -347 0 -8 9 -19 20 -25 23 -12 34 -3 251 207 109 105
134 124 180 137 91 27 162 3 210 -72 24 -38 29 -56 29 -109 0 -74 -17 -120
-65 -178 -32 -39 -38 -43 -95 -48 -33 -3 -67 -11 -75 -17 -9 -7 -41 -49 -72
-94 -80 -114 -140 -175 -198 -202 -84 -40 -164 -26 -230 41 -73 73 -80 150
-25 309 35 100 132 359 167 444 78 189 215 329 389 395 57 21 71 22 521 25
292 2 484 -1 520 -7 138 -25 288 -132 379 -268 120 -181 185 -481 169 -778
-13 -245 -14 -240 15 -240 33 0 38 29 46 245 8 203 -4 330 -46 495 -80 318
-266 534 -517 599 -87 23 -978 23 -1063 0z m488 -349 c55 -46 45 -94 -36 -167
-45 -40 -139 -92 -187 -102 -28 -6 -34 -3 -64 40 -40 58 -36 68 58 156 103 97
174 119 229 73z m822 -672 c0 -18 -41 -72 -86 -117 -55 -53 -158 -107 -254
-133 -55 -15 -109 -18 -335 -18 -270 0 -270 0 -349 28 -94 33 -148 64 -210
119 -39 33 -86 101 -86 123 0 3 297 5 660 5 363 0 660 -3 660 -7z"/>
</g>
</svg>
