<?xml version="1.0" standalone="no"?>
<!DOCTYPE svg PUBLIC "-//W3C//DTD SVG 20010904//EN"
 "http://www.w3.org/TR/2001/REC-SVG-20010904/DTD/svg10.dtd">
<svg version="1.0" xmlns="http://www.w3.org/2000/svg"
 width="224.000000pt" height="202.000000pt" viewBox="0 0 224.000000 202.000000"
 preserveAspectRatio="xMidYMid meet">
<metadata>
Created by potrace 1.16, written by Peter Selinger 2001-2019
</metadata>
<g transform="translate(0.000000,202.000000) scale(0.100000,-0.100000)"
fill="#000000" stroke="none">
<path d="M503 2009 c-217 -36 -398 -200 -469 -424 -48 -152 -43 -289 17 -471
58 -177 129 -268 439 -558 123 -116 267 -252 320 -301 151 -143 271 -245 295
-251 52 -13 82 11 504 411 469 443 471 445 552 645 61 152 73 206 73 325 0
170 -54 317 -159 432 -119 132 -263 195 -445 196 -174 2 -311 -54 -436 -178
l-71 -70 -69 71 c-138 141 -348 207 -551 173z m270 -96 c122 -36 232 -121 294
-228 41 -70 62 -70 107 -2 84 127 207 211 352 242 87 18 121 18 209 0 201 -43
360 -199 405 -400 12 -55 14 -184 4 -255 -13 -86 -108 -307 -162 -379 -14 -18
-186 -185 -381 -371 -344 -325 -458 -430 -471 -430 -23 0 -492 432 -755 695
-163 163 -200 216 -246 348 -60 175 -61 326 -3 471 103 258 377 389 647 309z"/>
</g>
</svg>
