<?xml version="1.0" standalone="no"?>
<!DOCTYPE svg PUBLIC "-//W3C//DTD SVG 20010904//EN"
 "http://www.w3.org/TR/2001/REC-SVG-20010904/DTD/svg10.dtd">
<svg version="1.0" xmlns="http://www.w3.org/2000/svg"
 width="199.000000pt" height="201.000000pt" viewBox="0 0 199.000000 201.000000"
 preserveAspectRatio="xMidYMid meet">
<metadata>
Created by potrace 1.16, written by Peter Selinger 2001-2019
</metadata>
<g transform="translate(0.000000,201.000000) scale(0.100000,-0.100000)"
fill="#000000" stroke="none">
<path d="M915 2004 c-373 -36 -698 -273 -838 -609 -61 -147 -72 -207 -71 -395
0 -147 4 -187 22 -252 100 -361 360 -624 713 -720 73 -20 106 -23 259 -22 161
0 182 2 263 27 440 135 727 519 727 971 0 130 -13 208 -54 329 -110 322 -405
583 -736 651 -81 16 -221 26 -285 20z m330 -98 c163 -49 297 -130 417 -252
115 -117 197 -261 240 -424 31 -119 31 -328 0 -447 -90 -346 -344 -604 -682
-695 -118 -31 -337 -31 -453 0 -341 93 -595 350 -679 687 -32 128 -31 334 1
455 93 350 366 616 710 691 128 28 324 21 446 -15z"/>
<path d="M918 1577 c-26 -8 -55 -20 -65 -27 -91 -69 -133 -142 -133 -231 0
-38 5 -61 15 -69 25 -20 45 5 45 57 0 117 95 213 210 213 128 0 224 -95 225
-225 0 -80 -29 -128 -135 -224 -102 -92 -130 -144 -130 -242 0 -53 3 -68 16
-73 28 -11 44 13 44 66 0 77 22 115 129 218 82 80 102 104 120 153 40 109 21
211 -55 296 -72 80 -187 116 -286 88z"/>
<path d="M936 538 c-32 -46 -7 -108 43 -108 53 0 79 60 45 108 -20 30 -68 30
-88 0z"/>
</g>
</svg>
