<?xml version="1.0" standalone="no"?>
<!DOCTYPE svg PUBLIC "-//W3C//DTD SVG 20010904//EN"
 "http://www.w3.org/TR/2001/REC-SVG-20010904/DTD/svg10.dtd">
<svg version="1.0" xmlns="http://www.w3.org/2000/svg"
 width="219.000000pt" height="136.000000pt" viewBox="0 0 219.000000 136.000000"
 preserveAspectRatio="xMidYMid meet">
<metadata>
Created by potrace 1.16, written by Peter Selinger 2001-2019
</metadata>
<g transform="translate(0.000000,136.000000) scale(0.100000,-0.100000)"
fill="#000000" stroke="none">
<path d="M1374 1345 c-12 -29 7 -35 122 -35 109 0 116 -1 139 -25 51 -50 15
-105 -69 -105 -48 0 -67 -21 -55 -62 5 -18 9 -36 9 -40 0 -5 -166 -8 -369 -8
l-368 0 -22 59 c-11 32 -21 61 -21 64 0 4 42 8 93 9 84 3 92 5 92 23 0 19 -8
20 -105 23 -145 3 -255 -9 -255 -28 0 -11 16 -16 63 -20 l63 -5 31 -90 30 -91
-41 -68 c-87 -142 -92 -148 -104 -138 -24 20 -122 42 -183 42 -167 0 -317 -98
-391 -256 -26 -54 -28 -69 -28 -174 0 -110 2 -118 33 -182 44 -90 114 -161
199 -201 65 -31 73 -32 193 -32 121 0 128 1 191 32 114 56 207 177 227 295 l8
43 94 1 c53 0 102 5 111 10 9 5 71 72 139 149 67 77 177 198 243 269 l121 128
12 -33 c27 -80 29 -74 -28 -107 -202 -113 -268 -385 -145 -594 36 -61 117
-135 185 -166 52 -25 68 -27 177 -27 110 0 125 2 178 27 32 15 84 52 116 83
232 222 137 623 -171 716 -58 18 -86 21 -159 16 l-88 -6 -25 77 c-22 68 -56
192 -56 205 0 2 21 10 46 16 92 23 124 103 68 170 -33 39 -77 51 -197 51 -76
0 -99 -3 -103 -15z m162 -340 c5 -20 -3 -35 -41 -77 -27 -29 -140 -156 -253
-281 -113 -125 -208 -224 -212 -220 -9 11 -220 577 -220 591 0 8 99 11 360 12
l360 0 6 -25z m-652 -317 c53 -141 96 -259 96 -262 0 -3 -27 -6 -59 -6 l-59 0
-12 67 c-17 97 -54 169 -125 239 l-61 60 54 88 c30 48 58 84 62 79 4 -4 51
-124 104 -265z m-351 102 l66 -20 -95 -150 c-108 -171 -118 -193 -104 -221 10
-18 23 -19 212 -19 l201 0 -6 -37 c-10 -61 -64 -157 -113 -203 -97 -89 -248
-123 -379 -85 -147 42 -257 175 -272 327 -21 231 150 420 388 427 20 1 66 -8
102 -19z m1318 6 c74 -17 134 -53 190 -113 176 -189 127 -479 -103 -604 -60
-33 -67 -34 -168 -34 -93 0 -112 3 -161 26 -116 55 -190 149 -216 275 -26 127
5 243 89 339 36 41 124 103 133 94 3 -3 44 -117 127 -351 10 -28 31 -37 43
-18 4 6 -21 86 -54 178 -76 212 -75 205 -31 213 58 10 92 9 151 -5z m-1152
-106 c59 -59 101 -142 108 -216 l6 -54 -187 0 c-102 0 -186 3 -186 6 0 17 191
314 201 314 4 0 30 -22 58 -50z"/>
</g>
</svg>
