<?xml version="1.0" standalone="no"?>
<!DOCTYPE svg PUBLIC "-//W3C//DTD SVG 20010904//EN"
 "http://www.w3.org/TR/2001/REC-SVG-20010904/DTD/svg10.dtd">
<svg version="1.0" xmlns="http://www.w3.org/2000/svg"
 width="148.000000pt" height="153.000000pt" viewBox="0 0 148.000000 153.000000"
 preserveAspectRatio="xMidYMid meet">
<metadata>
Created by potrace 1.16, written by Peter Selinger 2001-2019
</metadata>
<g transform="translate(0.000000,153.000000) scale(0.100000,-0.100000)"
fill="#000000" stroke="none">
<path d="M609 1515 c-259 -52 -477 -247 -564 -503 -71 -210 -42 -479 70 -661
77 -125 149 -195 265 -255 195 -102 400 -118 605 -48 250 86 421 279 481 543
13 56 15 105 12 208 -4 118 -9 147 -35 223 -124 356 -476 564 -834 493z m286
-50 c39 -8 108 -33 155 -56 70 -34 101 -58 175 -133 74 -74 99 -107 132 -176
116 -238 104 -511 -32 -730 -56 -91 -171 -192 -282 -249 -145 -73 -367 -89
-518 -37 -308 106 -495 396 -469 731 19 262 166 481 399 596 149 74 271 89
440 54z"/>
<path d="M446 911 c-26 -29 -23 -68 8 -99 25 -26 28 -26 54 -12 37 21 51 63
31 98 -19 35 -67 42 -93 13z"/>
<path d="M947 912 c-34 -37 -8 -122 37 -122 27 0 66 41 66 69 0 61 -65 95
-103 53z"/>
<path d="M580 498 c-34 -24 -73 -85 -64 -100 10 -16 43 -8 49 12 3 11 18 29
32 40 23 18 40 20 149 20 131 0 135 -1 171 -56 17 -27 53 -32 53 -9 0 24 -42
82 -71 99 -21 12 -57 16 -157 16 -117 0 -132 -2 -162 -22z"/>
</g>
</svg>
