<?xml version="1.0" standalone="no"?>
<!DOCTYPE svg PUBLIC "-//W3C//DTD SVG 20010904//EN"
 "http://www.w3.org/TR/2001/REC-SVG-20010904/DTD/svg10.dtd">
<svg version="1.0" xmlns="http://www.w3.org/2000/svg"
 width="208.000000pt" height="176.000000pt" viewBox="0 0 208.000000 176.000000"
 preserveAspectRatio="xMidYMid meet">
<metadata>
Created by potrace 1.16, written by Peter Selinger 2001-2019
</metadata>
<g transform="translate(0.000000,176.000000) scale(0.100000,-0.100000)"
fill="#000000" stroke="none">
<path d="M434 1744 c-60 -21 -119 -77 -151 -142 -37 -76 -39 -183 -5 -253 55
-113 162 -174 288 -167 155 10 264 130 264 292 0 115 -81 234 -184 269 -60 20
-156 21 -212 1z m199 -39 c121 -50 183 -188 145 -319 -16 -55 -101 -140 -154
-155 -71 -20 -127 -14 -196 22 -51 26 -69 42 -94 85 -82 136 -38 292 101 361
49 25 147 27 198 6z"/>
<path d="M1422 1692 c-78 -28 -119 -67 -160 -152 -62 -131 -10 -295 117 -364
200 -108 434 40 418 265 -13 191 -197 314 -375 251z m204 -50 c144 -74 178
-274 66 -387 -48 -48 -83 -66 -146 -72 -193 -20 -328 175 -242 351 59 120 204
169 322 108z"/>
<path d="M358 1080 c-144 -18 -272 -131 -331 -289 -19 -52 -21 -81 -25 -423
-4 -367 -3 -368 17 -368 21 0 21 3 21 328 0 353 6 414 48 502 33 67 114 149
178 181 47 23 56 24 279 24 l230 0 67 -32 c122 -57 202 -163 227 -297 7 -35
11 -192 11 -383 0 -316 0 -323 20 -323 20 0 20 7 20 333 0 354 -7 423 -50 507
l-22 42 34 35 c18 19 67 51 107 71 l75 37 260 0 c252 0 263 -1 308 -23 74 -37
134 -96 170 -170 l33 -67 5 -380 c5 -355 6 -380 23 -383 17 -3 18 16 15 385
l-3 388 -31 66 c-38 81 -113 157 -191 196 l-58 28 -270 0 c-312 0 -330 -4
-443 -95 l-62 -50 -43 42 c-58 57 -164 106 -257 118 -85 11 -277 11 -362 0z"/>
<path d="M247 613 c-4 -3 -7 -143 -7 -310 0 -285 1 -304 18 -301 16 3 17 27
20 299 2 240 0 298 -11 308 -8 6 -17 8 -20 4z"/>
<path d="M877 614 c-4 -4 -7 -144 -7 -311 0 -297 0 -303 20 -303 20 0 20 5 18
307 -3 291 -7 331 -31 307z"/>
<path d="M1817 614 c-4 -4 -7 -144 -7 -311 0 -285 1 -304 18 -301 16 3 17 26
17 307 0 290 -4 329 -28 305z"/>
</g>
</svg>
