<?xml version="1.0" standalone="no"?>
<!DOCTYPE svg PUBLIC "-//W3C//DTD SVG 20010904//EN"
 "http://www.w3.org/TR/2001/REC-SVG-20010904/DTD/svg10.dtd">
<svg version="1.0" xmlns="http://www.w3.org/2000/svg"
 width="182.000000pt" height="212.000000pt" viewBox="0 0 182.000000 212.000000"
 preserveAspectRatio="xMidYMid meet">
<metadata>
Created by potrace 1.16, written by Peter Selinger 2001-2019
</metadata>
<g transform="translate(0.000000,212.000000) scale(0.100000,-0.100000)"
fill="#000000" stroke="none">
<path d="M601 1923 l-190 -198 -1 -842 0 -843 -205 0 c-198 0 -205 -1 -205
-20 0 -20 7 -20 894 -20 800 0 896 2 910 16 14 14 16 85 16 635 0 409 -4 627
-10 640 -10 18 -24 19 -299 19 l-289 0 -4 205 -3 205 -200 200 c-110 110 -205
200 -211 200 -7 0 -98 -89 -203 -197z m579 -1055 l0 -828 -125 0 -126 0 2 151
c1 117 -2 154 -13 160 -21 14 -202 11 -216 -3 -8 -8 -12 -58 -12 -160 l0 -148
-125 0 -125 0 0 826 0 826 77 82 c43 44 125 129 183 189 l105 107 187 -187
188 -188 0 -827z m590 -213 l0 -615 -275 0 -275 0 0 615 0 615 275 0 275 0 0
-615z m-880 -475 l0 -140 -80 0 -80 0 0 140 0 140 80 0 80 0 0 -140z"/>
<path d="M900 1480 l0 -121 68 3 67 3 0 115 0 115 -67 3 -68 3 0 -121z m100 0
l0 -90 -45 0 -45 0 0 90 0 90 45 0 45 0 0 -90z"/>
<path d="M900 1055 l0 -126 68 3 67 3 3 109 c2 71 -1 113 -9 122 -7 9 -32 14
-70 14 l-59 0 0 -125z m100 0 l0 -85 -45 0 -45 0 0 85 0 85 45 0 45 0 0 -85z"/>
<path d="M1416 1043 c-3 -3 -6 -37 -6 -75 0 -54 3 -68 15 -68 12 0 15 14 15
69 0 65 -8 90 -24 74z"/>
<path d="M1575 1038 c-9 -24 -1 -143 10 -143 13 0 19 135 6 148 -7 7 -12 5
-16 -5z"/>
<path d="M1416 683 c-3 -3 -6 -37 -6 -75 0 -54 3 -68 15 -68 12 0 15 14 15 69
0 65 -8 90 -24 74z"/>
<path d="M1576 683 c-3 -3 -6 -37 -6 -75 0 -54 3 -68 15 -68 12 0 15 14 15 69
0 65 -8 90 -24 74z"/>
<path d="M1415 318 c-9 -24 -1 -143 10 -143 13 0 19 135 6 148 -7 7 -12 5 -16
-5z"/>
<path d="M1572 248 c2 -40 8 -73 13 -73 6 0 11 33 13 73 2 60 0 72 -13 72 -13
0 -15 -12 -13 -72z"/>
</g>
</svg>
