<?xml version="1.0" standalone="no"?>
<!DOCTYPE svg PUBLIC "-//W3C//DTD SVG 20010904//EN"
 "http://www.w3.org/TR/2001/REC-SVG-20010904/DTD/svg10.dtd">
<svg version="1.0" xmlns="http://www.w3.org/2000/svg"
 width="120.000000pt" height="121.000000pt" viewBox="0 0 120.000000 121.000000"
 preserveAspectRatio="xMidYMid meet">
<metadata>
Created by potrace 1.16, written by Peter Selinger 2001-2019
</metadata>
<g transform="translate(0.000000,121.000000) scale(0.100000,-0.100000)"
fill="#000000" stroke="none">
<path d="M664 1195 c-13 -32 7 -35 222 -35 138 0 214 -4 212 -10 -1 -5 -248
-258 -548 -562 -300 -303 -545 -558 -545 -567 0 -9 7 -17 15 -19 13 -2 743
721 1053 1043 l77 80 0 -226 c0 -183 3 -228 14 -232 32 -13 36 15 36 268 0
182 -3 254 -12 263 -9 9 -82 12 -265 12 -213 0 -255 -2 -259 -15z"/>
</g>
</svg>
