<?xml version="1.0" standalone="no"?>
<!DOCTYPE svg PUBLIC "-//W3C//DTD SVG 20010904//EN"
 "http://www.w3.org/TR/2001/REC-SVG-20010904/DTD/svg10.dtd">
<svg version="1.0" xmlns="http://www.w3.org/2000/svg"
 width="118.000000pt" height="204.000000pt" viewBox="0 0 118.000000 204.000000"
 preserveAspectRatio="xMidYMid meet">
<metadata>
Created by potrace 1.16, written by Peter Selinger 2001-2019
</metadata>
<g transform="translate(0.000000,204.000000) scale(0.100000,-0.100000)"
fill="#000000" stroke="none">
<path d="M56 1958 c-3 -46 -11 -243 -16 -438 -5 -195 -12 -422 -15 -505 -20
-539 -25 -718 -25 -857 l0 -158 215 0 c214 0 215 0 220 22 3 13 14 102 25 198
11 96 34 281 50 410 16 129 38 309 49 398 11 90 22 166 25 170 3 3 6 -2 6 -11
0 -9 20 -166 45 -349 24 -183 58 -441 75 -573 17 -132 33 -246 35 -253 3 -9
57 -12 221 -12 l216 0 -6 73 c-3 39 -8 149 -11 242 -3 94 -8 196 -11 228 -5
59 -23 1124 -24 1365 l0 132 -534 0 -534 0 -6 -82z m1032 -20 l-3 -62 -495 2
c-272 1 -494 4 -492 7 1 3 2 30 2 60 l0 55 495 0 496 0 -3 -62z m-859 -155
c-9 -61 -23 -95 -51 -134 -19 -25 -75 -69 -89 -69 -2 0 -3 56 -1 125 l3 125
73 0 73 0 -8 -47z m333 -135 c3 -165 5 -183 21 -186 16 -3 17 11 17 182 l0
186 149 0 148 0 7 -52 c14 -100 71 -190 147 -228 35 -19 37 -22 41 -77 2 -32
5 -186 6 -343 1 -157 4 -328 7 -380 2 -52 7 -156 10 -230 2 -74 8 -213 11
-308 l7 -172 -176 0 -175 0 -6 47 c-4 27 -28 217 -55 423 -27 206 -61 467 -76
580 -35 269 -30 252 -63 248 l-27 -3 -27 -210 c-57 -441 -128 -1031 -128
-1058 l0 -27 -181 0 -182 0 7 253 c3 138 9 313 12 387 13 365 24 701 24 772
l0 78 40 16 c80 32 147 138 153 242 l2 42 142 0 143 0 2 -182z m528 57 c0 -69
-3 -125 -8 -125 -4 0 -24 14 -44 30 -42 34 -83 114 -92 178 l-6 42 75 0 75 0
0 -125z"/>
</g>
</svg>
