<?xml version="1.0" standalone="no"?>
<!DOCTYPE svg PUBLIC "-//W3C//DTD SVG 20010904//EN"
 "http://www.w3.org/TR/2001/REC-SVG-20010904/DTD/svg10.dtd">
<svg version="1.0" xmlns="http://www.w3.org/2000/svg"
 width="87.000000pt" height="142.000000pt" viewBox="0 0 87.000000 142.000000"
 preserveAspectRatio="xMidYMid meet">
<metadata>
Created by potrace 1.16, written by Peter Selinger 2001-2019
</metadata>
<g transform="translate(0.000000,142.000000) scale(0.100000,-0.100000)"
fill="#000000" stroke="none">
<path d="M84 1407 c-2 -7 -3 -56 -2 -108 l3 -94 224 -5 224 -5 -147 -174 -146
-173 0 -79 c0 -55 4 -81 13 -84 6 -2 67 -8 134 -13 88 -7 132 -15 155 -29 46
-26 80 -98 86 -183 4 -61 1 -76 -22 -125 -44 -89 -144 -132 -244 -105 -50 13
-114 67 -132 110 l-13 31 -106 -3 -106 -3 2 -43 c2 -50 40 -138 83 -192 40
-51 112 -96 185 -115 77 -20 226 -20 296 1 107 31 209 119 255 218 55 120 55
302 0 422 -43 94 -152 181 -249 199 -20 4 -37 10 -37 14 0 4 59 78 130 165 72
87 137 171 146 187 10 21 14 53 12 112 l-3 82 -368 3 c-299 2 -368 0 -373 -11z
m706 -89 c0 -78 0 -79 -179 -293 -77 -93 -140 -174 -138 -179 2 -5 36 -17 76
-27 166 -42 245 -129 271 -297 29 -182 -48 -359 -188 -435 -106 -58 -309 -59
-420 -3 -75 38 -134 115 -160 209 l-10 37 73 0 c64 0 74 -3 80 -19 12 -39 86
-100 138 -116 64 -19 100 -19 165 0 106 32 172 126 172 246 0 94 -24 166 -70
210 -45 43 -96 59 -219 67 -50 4 -91 10 -91 15 0 4 0 31 0 61 l0 53 156 183
c90 106 154 189 152 199 -3 14 -30 16 -241 19 l-237 2 0 65 0 65 335 0 335 0
0 -62z"/>
</g>
</svg>
