<?xml version="1.0" standalone="no"?>
<!DOCTYPE svg PUBLIC "-//W3C//DTD SVG 20010904//EN"
 "http://www.w3.org/TR/2001/REC-SVG-20010904/DTD/svg10.dtd">
<svg version="1.0" xmlns="http://www.w3.org/2000/svg"
 width="211.000000pt" height="114.000000pt" viewBox="0 0 211.000000 114.000000"
 preserveAspectRatio="xMidYMid meet">
<metadata>
Created by potrace 1.16, written by Peter Selinger 2001-2019
</metadata>
<g transform="translate(0.000000,114.000000) scale(0.100000,-0.100000)"
fill="#000000" stroke="none">
<path d="M793 1125 c-104 -31 -185 -122 -229 -260 -22 -68 -27 -104 -31 -244
-7 -203 6 -308 52 -406 41 -88 88 -142 156 -180 49 -27 62 -30 149 -30 86 0
101 3 154 30 86 44 155 142 191 270 25 93 31 337 11 460 -40 241 -174 381
-359 374 -29 -1 -72 -8 -94 -14z m199 -79 c45 -20 101 -80 133 -144 41 -83 58
-179 58 -347 1 -130 -2 -160 -22 -225 -30 -97 -51 -136 -95 -182 -56 -58 -91
-72 -171 -72 -200 0 -300 180 -290 524 6 194 29 282 102 378 59 78 187 109
285 68z"/>
<path d="M1643 1122 c-125 -45 -205 -154 -238 -327 -19 -98 -20 -386 -1 -472
28 -130 104 -241 201 -291 43 -23 62 -27 140 -27 75 0 98 4 139 24 99 49 170
154 206 302 23 95 27 295 10 422 -24 173 -108 310 -220 360 -64 29 -170 33
-237 9z m205 -79 c141 -67 211 -302 181 -608 -21 -221 -133 -365 -283 -365
-179 1 -287 179 -286 473 1 267 48 406 164 485 43 28 56 32 118 32 45 0 83 -6
106 -17z"/>
<path d="M148 1049 l-148 -81 0 -39 0 -39 135 71 135 71 0 -505 0 -505 35 -4
c20 -2 38 -2 40 1 3 2 5 253 5 558 l0 553 -27 0 c-16 0 -93 -36 -175 -81z"/>
</g>
</svg>
