<?xml version="1.0" standalone="no"?>
<!DOCTYPE svg PUBLIC "-//W3C//DTD SVG 20010904//EN"
 "http://www.w3.org/TR/2001/REC-SVG-20010904/DTD/svg10.dtd">
<svg version="1.0" xmlns="http://www.w3.org/2000/svg"
 width="166.000000pt" height="166.000000pt" viewBox="0 0 166.000000 166.000000"
 preserveAspectRatio="xMidYMid meet">
<metadata>
Created by potrace 1.16, written by Peter Selinger 2001-2019
</metadata>
<g transform="translate(0.000000,166.000000) scale(0.100000,-0.100000)"
fill="#000000" stroke="none">
<path d="M670 1644 c-333 -71 -587 -322 -654 -646 -88 -426 166 -840 590 -963
389 -113 810 80 979 448 56 122 70 194 69 352 0 123 -4 151 -28 230 -89 295
-312 502 -618 575 -98 23 -241 25 -338 4z m399 -63 c219 -74 393 -228 481
-425 52 -118 65 -180 65 -326 0 -161 -14 -223 -82 -360 -39 -81 -60 -109 -142
-191 -86 -86 -108 -102 -201 -147 -215 -102 -390 -116 -607 -47 -215 68 -405
245 -490 455 -118 293 -40 641 194 861 163 153 344 222 568 215 103 -3 134 -8
214 -35z"/>
<path d="M515 1085 c-27 -26 -31 -54 -14 -88 25 -46 67 -50 99 -10 26 33 21
79 -11 106 -29 23 -45 22 -74 -8z"/>
<path d="M1076 1089 c-49 -38 -26 -129 33 -129 15 0 35 8 44 18 24 26 22 87
-3 112 -25 25 -41 25 -74 -1z"/>
<path d="M425 649 c-11 -17 47 -90 108 -135 83 -61 154 -86 263 -92 105 -5
172 7 252 45 67 31 182 140 182 172 0 34 -24 24 -57 -23 -35 -50 -103 -100
-177 -130 -76 -30 -259 -29 -336 2 -71 29 -144 83 -178 132 -27 40 -45 49 -57
29z"/>
</g>
</svg>
