<?xml version="1.0" standalone="no"?>
<!DOCTYPE svg PUBLIC "-//W3C//DTD SVG 20010904//EN"
 "http://www.w3.org/TR/2001/REC-SVG-20010904/DTD/svg10.dtd">
<svg version="1.0" xmlns="http://www.w3.org/2000/svg"
 width="195.000000pt" height="191.000000pt" viewBox="0 0 195.000000 191.000000"
 preserveAspectRatio="xMidYMid meet">
<metadata>
Created by potrace 1.16, written by Peter Selinger 2001-2019
</metadata>
<g transform="translate(0.000000,191.000000) scale(0.100000,-0.100000)"
fill="#000000" stroke="none">
<path d="M1175 1900 c-94 -13 -169 -46 -229 -101 -69 -63 -97 -126 -104 -236
-5 -79 -6 -82 -31 -85 -26 -3 -26 -4 -26 -80 0 -42 5 -82 11 -88 13 -13 373 7
393 23 20 17 10 126 -13 142 -28 21 -18 93 17 119 27 20 44 21 315 26 246 4
287 7 287 20 0 13 -38 15 -270 18 -296 3 -336 -2 -381 -49 -22 -23 -27 -39
-29 -81 l-2 -53 -54 -3 c-30 -2 -83 0 -118 3 l-64 7 6 76 c3 43 13 96 22 119
26 64 108 134 191 163 65 22 87 24 384 29 271 5 315 8 315 21 0 13 -38 15
-280 16 -154 1 -307 -2 -340 -6z m-23 -499 c3 -19 -1 -35 -7 -38 -16 -6 -308
-20 -317 -16 -5 2 -8 23 -8 47 l0 42 164 0 164 -1 4 -34z"/>
<path d="M924 1139 c-26 -39 -54 -90 -61 -112 -56 -162 164 -257 243 -105 17
32 17 51 4 100 -13 47 -107 188 -125 188 -7 0 -35 -32 -61 -71z m123 -77 c36
-61 36 -117 0 -148 -35 -30 -85 -31 -119 -4 -49 38 -42 93 21 189 l35 53 19
-23 c10 -13 30 -43 44 -67z"/>
<path d="M0 871 c0 -20 24 -26 208 -53 76 -11 93 -10 198 11 192 40 138 57
772 -246 56 -26 92 -70 92 -110 0 -12 -12 -35 -26 -52 -36 -44 -71 -41 -244
20 -192 67 -242 81 -254 69 -7 -7 -6 -14 1 -21 20 -20 387 -139 431 -139 60 0
219 82 508 261 62 38 122 69 134 69 35 0 61 -19 77 -57 15 -36 15 -36 -24 -73
-21 -21 -105 -88 -188 -150 -127 -95 -182 -128 -355 -214 -231 -115 -301 -140
-380 -139 -68 1 -106 16 -376 148 -251 124 -285 138 -384 158 -128 27 -179 30
-186 12 -4 -9 -4 -18 -2 -21 3 -2 45 -9 93 -15 121 -13 198 -41 431 -157 303
-149 346 -166 429 -165 91 0 162 27 415 153 170 85 217 115 369 230 183 137
197 150 207 188 14 51 -55 142 -107 142 -9 0 -28 16 -43 35 -16 21 -41 38 -64
45 -32 8 -44 7 -85 -14 -40 -19 -49 -21 -59 -9 -20 24 -65 43 -103 43 -22 0
-71 -18 -133 -49 -53 -26 -129 -63 -169 -80 l-72 -31 -213 101 c-117 56 -230
108 -252 115 -54 20 -122 17 -252 -8 l-112 -22 -129 22 c-154 27 -153 27 -153
3z m1541 -110 c13 -11 22 -21 19 -24 -3 -2 -67 -39 -144 -82 l-139 -78 -53 29
c-29 16 -51 30 -50 31 17 17 296 143 317 143 15 0 37 -9 50 -19z m211 -18 c10
-9 18 -20 18 -24 0 -11 -444 -279 -462 -279 -2 0 -3 13 0 29 2 16 -1 38 -7 49
-10 19 -4 24 72 65 45 25 134 75 196 111 119 69 152 77 183 49z"/>
</g>
</svg>
