<?xml version="1.0" standalone="no"?>
<!DOCTYPE svg PUBLIC "-//W3C//DTD SVG 20010904//EN"
 "http://www.w3.org/TR/2001/REC-SVG-20010904/DTD/svg10.dtd">
<svg version="1.0" xmlns="http://www.w3.org/2000/svg"
 width="188.000000pt" height="264.000000pt" viewBox="0 0 188.000000 264.000000"
 preserveAspectRatio="xMidYMid meet">
<metadata>
Created by potrace 1.16, written by Peter Selinger 2001-2019
</metadata>
<g transform="translate(0.000000,264.000000) scale(0.100000,-0.100000)"
fill="#000000" stroke="none">
<path d="M782 2630 c-89 -13 -164 -36 -260 -81 -175 -81 -286 -188 -368 -354
-61 -123 -78 -209 -70 -358 l6 -118 -29 -37 c-44 -55 -66 -142 -51 -199 14
-59 42 -112 72 -140 28 -26 99 -59 149 -68 32 -6 38 -12 49 -48 24 -84 75
-170 142 -242 75 -80 75 -82 2 -118 -91 -46 -210 -194 -261 -323 -25 -65 -27
-81 -31 -262 -4 -209 -2 -232 28 -262 20 -20 37 -20 793 -20 755 0 774 0 792
20 16 17 17 38 12 227 -6 271 -28 345 -144 481 -58 69 -83 91 -155 141 -27 17
-48 38 -48 44 0 7 23 35 51 62 70 69 107 125 144 219 31 79 32 81 72 89 22 4
64 22 93 40 125 75 150 267 49 368 -35 35 -36 38 -28 85 15 91 10 245 -9 315
-34 121 -90 192 -195 245 -29 15 -86 59 -128 99 -90 84 -204 145 -324 175 -94
23 -264 32 -353 20z m253 -94 c183 -33 347 -120 415 -219 18 -26 39 -41 71
-52 87 -29 151 -102 178 -203 12 -45 16 -213 6 -253 -5 -21 -12 -24 -51 -24
-44 0 -49 3 -128 85 -65 68 -89 101 -116 163 -41 94 -59 103 -122 59 -156
-107 -276 -134 -728 -163 -102 -7 -190 -16 -197 -21 -6 -5 -17 -40 -24 -79 -7
-38 -14 -69 -16 -69 -2 0 -15 8 -29 17 -22 14 -33 15 -67 6 -23 -7 -44 -9 -47
-6 -3 2 -5 55 -5 116 0 91 4 126 24 186 105 321 473 522 836 457z m305 -566
c7 -16 54 -75 105 -130 59 -65 95 -113 99 -132 3 -17 6 -111 6 -210 0 -165 -2
-186 -25 -254 -32 -95 -63 -144 -139 -219 -104 -102 -217 -144 -412 -152 -128
-6 -229 12 -326 55 -76 34 -163 108 -211 180 -71 104 -90 171 -95 340 -5 173
2 232 27 232 28 0 40 21 47 83 4 32 11 60 17 64 5 3 109 14 231 24 330 28 483
59 611 127 51 27 50 27 65 -8z m-1087 -442 c-3 -138 -5 -153 -22 -160 -29 -10
-83 23 -108 67 -27 48 -31 131 -8 176 20 37 70 69 111 69 l31 0 -4 -152z
m1462 138 c48 -20 75 -68 75 -134 0 -29 -7 -66 -15 -81 -21 -42 -72 -81 -105
-81 l-29 0 -3 151 c-2 83 -1 153 1 155 9 8 43 4 76 -10z m-1101 -826 c15 -5
32 -24 41 -47 29 -69 90 -139 146 -167 45 -22 66 -26 139 -26 73 0 94 4 138
26 60 30 115 89 137 149 16 41 56 75 90 75 19 0 112 -58 174 -109 64 -52 138
-163 161 -241 11 -37 20 -74 20 -82 0 -8 -17 -22 -37 -32 -35 -17 -161 -66
-169 -66 -1 0 -4 17 -6 38 -3 33 -6 37 -33 40 -49 6 -55 -14 -55 -175 l0 -143
-415 0 -415 0 0 134 c0 158 -7 186 -48 186 -36 0 -52 -16 -52 -53 0 -33 9 -35
-122 20 -86 36 -87 37 -81 67 26 144 121 276 268 375 64 43 79 47 119 31z
m281 -57 c55 -3 127 0 160 5 33 5 62 8 64 6 11 -11 -40 -61 -84 -84 -63 -31
-134 -32 -192 -2 -57 30 -115 106 -65 87 9 -3 62 -9 117 -12z m-574 -519 c46
-19 89 -40 96 -46 8 -6 13 -34 13 -74 l0 -64 -105 0 -105 0 0 110 c0 61 4 110
9 110 5 0 47 -16 92 -36z m1349 -74 l0 -110 -110 0 -110 0 0 64 c0 39 5 68 13
74 16 13 178 81 195 82 9 0 12 -28 12 -110z"/>
<path d="M637 1542 c-40 -44 -7 -122 51 -122 65 0 92 96 38 132 -21 14 -73 8
-89 -10z"/>
<path d="M1166 1538 c-22 -31 -20 -60 5 -92 26 -33 68 -34 97 -3 27 29 29 78
4 100 -28 25 -87 22 -106 -5z"/>
<path d="M800 1176 c-24 -24 -10 -45 45 -65 66 -25 123 -27 192 -6 61 18 79
36 64 63 -9 17 -22 19 -150 19 -82 0 -145 -5 -151 -11z"/>
</g>
</svg>
