<?xml version="1.0" standalone="no"?>
<!DOCTYPE svg PUBLIC "-//W3C//DTD SVG 20010904//EN"
 "http://www.w3.org/TR/2001/REC-SVG-20010904/DTD/svg10.dtd">
<svg version="1.0" xmlns="http://www.w3.org/2000/svg"
 width="206.000000pt" height="203.000000pt" viewBox="0 0 206.000000 203.000000"
 preserveAspectRatio="xMidYMid meet">
<metadata>
Created by potrace 1.16, written by Peter Selinger 2001-2019
</metadata>
<g transform="translate(0.000000,203.000000) scale(0.100000,-0.100000)"
fill="#000000" stroke="none">
<path d="M445 2020 c-49 -20 -66 -53 -68 -137 l-2 -80 -136 -5 c-154 -5 -191
-18 -221 -78 -17 -32 -18 -93 -18 -820 0 -875 -4 -829 69 -877 l34 -23 924 0
c1024 0 973 -3 1014 64 18 30 19 66 19 834 0 889 4 838 -64 878 -25 15 -57 19
-168 22 l-138 4 0 70 c0 84 -16 119 -66 143 -31 15 -43 15 -76 6 -57 -17 -78
-57 -78 -148 l0 -73 -440 0 -440 0 0 78 c0 89 -13 116 -66 138 -37 16 -50 16
-79 4z m85 -60 c18 -18 20 -33 20 -154 0 -113 -3 -137 -17 -154 -28 -31 -56
-35 -86 -11 -27 20 -27 21 -27 158 0 107 3 141 16 159 19 28 67 29 94 2z
m1092 3 c16 -14 18 -33 18 -157 0 -78 -4 -146 -8 -152 -25 -39 -95 -35 -110 5
-6 17 -8 175 -3 265 2 51 64 74 103 39z m-1246 -258 c1 -55 19 -92 56 -111 47
-24 86 -18 124 20 30 30 34 40 34 85 l0 51 440 0 440 0 0 -51 c0 -45 4 -55 34
-85 75 -75 186 -19 186 94 l0 44 141 -4 c140 -3 141 -3 165 -31 23 -27 24 -33
24 -203 l0 -174 -985 0 -985 0 0 179 0 179 31 26 c29 25 35 26 163 26 l132 0
0 -45z m1644 -1000 l0 -595 -29 -32 -29 -33 -899 -3 c-494 -1 -913 0 -932 3
-18 4 -44 17 -57 30 l-24 24 0 601 0 600 985 0 985 0 0 -595z"/>
<path d="M337 953 c-4 -3 -7 -15 -7 -25 0 -16 9 -18 80 -18 l80 0 0 -250 0
-250 25 0 25 0 0 250 0 250 75 0 c73 0 75 1 75 25 l0 25 -173 0 c-96 0 -177
-3 -180 -7z"/>
<path d="M800 685 l0 -275 25 0 25 0 0 125 0 125 133 0 132 0 0 -122 0 -123
28 -3 27 -3 0 276 0 276 -27 -3 -28 -3 0 -123 0 -122 -132 0 -133 0 0 125 0
125 -25 0 -25 0 0 -275z"/>
<path d="M1310 747 c0 -201 1 -215 23 -257 52 -104 228 -123 307 -34 41 47 51
112 48 319 l-3 180 -27 3 -28 3 0 -206 c0 -237 -7 -266 -69 -292 -49 -21 -125
-12 -156 17 -38 36 -45 79 -45 288 l0 192 -25 0 -25 0 0 -213z"/>
</g>
</svg>
