<?xml version="1.0" standalone="no"?>
<!DOCTYPE svg PUBLIC "-//W3C//DTD SVG 20010904//EN"
 "http://www.w3.org/TR/2001/REC-SVG-20010904/DTD/svg10.dtd">
<svg version="1.0" xmlns="http://www.w3.org/2000/svg"
 width="238.000000pt" height="248.000000pt" viewBox="0 0 238.000000 248.000000"
 preserveAspectRatio="xMidYMid meet">
<metadata>
Created by potrace 1.16, written by Peter Selinger 2001-2019
</metadata>
<g transform="translate(0.000000,248.000000) scale(0.100000,-0.100000)"
fill="#000000" stroke="none">
<path d="M543 2460 c-45 -27 -63 -68 -63 -144 l0 -65 -178 -3 c-178 -3 -179
-3 -220 -32 -23 -16 -50 -46 -62 -70 -20 -42 -20 -57 -20 -1009 0 -1067 -4
-1006 63 -1075 62 -64 27 -62 1118 -62 650 0 1005 4 1037 10 60 13 118 60 143
114 18 39 19 89 19 1004 0 1043 2 1001 -53 1061 -46 50 -90 61 -249 61 l-148
0 0 53 c-1 106 -60 177 -149 177 -91 0 -144 -61 -145 -167 l-1 -63 -432 0
-433 0 0 58 c0 69 -23 118 -69 149 -43 29 -113 31 -158 3z m121 -81 c26 -20
26 -21 26 -167 0 -136 -1 -147 -22 -169 -25 -27 -54 -29 -86 -7 -21 15 -22 21
-22 170 0 141 2 156 20 174 26 26 51 25 84 -1z m1161 -4 c24 -23 25 -29 25
-163 0 -126 -2 -142 -21 -166 -28 -35 -70 -35 -99 1 -20 26 -21 37 -18 171 3
137 4 145 27 163 31 26 57 24 86 -6z m-1345 -272 c0 -109 48 -163 143 -163 89
0 147 68 147 173 l0 57 432 -2 432 -3 4 -65 c7 -117 53 -164 154 -157 92 5
138 63 138 172 l0 55 138 0 c152 0 174 -6 209 -59 22 -33 23 -42 21 -195 l-3
-161 -1107 -3 -1108 -2 0 165 c0 250 3 254 243 255 l157 0 0 -67z m1820 -1173
c0 -807 2 -773 -56 -819 -27 -21 -27 -21 -1055 -21 l-1029 0 -38 34 -37 34 -3
756 -2 756 1110 0 1110 0 0 -740z"/>
<path d="M1140 1519 c-90 -27 -150 -118 -150 -226 0 -35 -1 -63 -2 -63 -2 0
-25 11 -52 25 -126 64 -282 8 -316 -113 -30 -110 13 -200 129 -265 36 -21 40
-26 24 -31 -26 -8 -101 -83 -121 -121 -9 -18 -16 -55 -16 -92 -1 -52 3 -67 29
-104 62 -88 191 -117 283 -64 38 21 42 22 42 6 0 -41 33 -124 63 -158 37 -43
98 -73 147 -73 55 0 135 42 164 87 25 37 50 129 40 145 -8 13 4 9 49 -14 58
-29 141 -28 204 3 158 80 145 268 -26 380 l-25 15 47 23 c84 41 137 123 137
211 -1 79 -74 172 -145 186 -58 11 -148 0 -193 -24 -24 -12 -45 -22 -47 -22
-3 0 -5 29 -5 64 0 152 -129 263 -260 225z m146 -112 c56 -60 58 -161 6 -271
l-27 -58 -69 -1 c-81 -1 -86 4 -116 101 -24 77 -25 130 -5 179 30 72 65 95
135 89 35 -3 51 -11 76 -39z m-398 -213 c41 -17 74 -46 134 -116 l40 -48 -20
-27 c-10 -16 -24 -41 -29 -58 l-10 -30 -74 2 c-101 3 -155 20 -199 62 -48 47
-58 94 -32 154 31 70 109 95 190 61z m762 1 c31 -16 53 -51 64 -100 10 -46
-29 -115 -81 -143 -44 -24 -197 -50 -227 -39 -9 4 -16 15 -16 25 0 11 -13 37
-30 60 l-29 41 67 71 c71 75 115 99 185 100 21 0 51 -7 67 -15z m-383 -227 c9
-7 22 -28 30 -46 28 -67 -23 -142 -96 -142 -103 0 -145 137 -58 191 35 22 96
21 124 -3z m-252 -158 c4 -11 18 -34 32 -51 26 -31 26 -31 8 -62 -64 -112
-148 -187 -208 -187 -73 0 -137 57 -137 123 0 82 67 144 190 176 96 25 107 25
115 1z m525 -16 c41 -12 67 -28 102 -64 44 -44 48 -51 48 -97 0 -41 -5 -54
-27 -75 -63 -58 -124 -64 -195 -19 -47 30 -66 52 -116 138 l-30 51 20 19 c11
10 27 31 35 46 14 27 17 29 61 23 26 -4 72 -14 102 -22z m-248 -171 c73 -162
30 -303 -92 -303 -122 0 -166 145 -93 303 l30 64 63 0 63 0 29 -64z"/>
</g>
</svg>
