<?xml version="1.0" standalone="no"?>
<!DOCTYPE svg PUBLIC "-//W3C//DTD SVG 20010904//EN"
 "http://www.w3.org/TR/2001/REC-SVG-20010904/DTD/svg10.dtd">
<svg version="1.0" xmlns="http://www.w3.org/2000/svg"
 width="190.000000pt" height="219.000000pt" viewBox="0 0 190.000000 219.000000"
 preserveAspectRatio="xMidYMid meet">
<metadata>
Created by potrace 1.16, written by Peter Selinger 2001-2019
</metadata>
<g transform="translate(0.000000,219.000000) scale(0.100000,-0.100000)"
fill="#000000" stroke="none">
<path d="M695 2171 c-22 -10 -67 -39 -99 -64 -40 -32 -98 -62 -179 -94 -158
-61 -203 -101 -241 -215 -34 -103 -87 -483 -135 -978 -40 -408 -42 -443 -31
-459 10 -17 91 -29 207 -30 l82 -1 10 38 c5 20 26 181 46 357 20 176 40 334
45 350 6 19 9 -167 7 -510 l-2 -539 25 -13 c31 -16 993 -19 1034 -3 14 5 29
17 34 27 5 11 5 148 0 338 -9 343 -7 756 3 715 4 -14 26 -182 49 -375 23 -192
46 -358 52 -369 10 -18 19 -19 145 -13 74 4 140 10 145 13 17 11 3 215 -41
614 -49 435 -83 677 -111 783 -23 91 -64 172 -101 199 -14 11 -85 43 -158 73
-89 37 -147 67 -173 91 -22 20 -63 47 -92 60 -49 23 -60 24 -266 24 -188 0
-220 -3 -255 -19z m430 -61 c-7 -21 -48 -146 -91 -277 -42 -131 -79 -242 -82
-247 -4 -7 -182 535 -182 557 0 4 83 7 185 7 l184 0 -14 -40z m-306 -267 c52
-164 97 -305 101 -313 5 -9 -3 -44 -18 -84 l-25 -68 -33 38 c-41 48 -146 197
-199 282 l-38 63 24 17 c71 49 83 86 30 98 -14 3 -33 8 -42 10 -19 5 -29 45
-29 114 0 44 3 51 38 77 44 34 85 62 92 62 3 1 48 -133 99 -296z m456 236 c31
-27 35 -37 35 -79 0 -91 -7 -105 -58 -121 -63 -19 -65 -39 -8 -79 25 -17 46
-35 46 -39 0 -49 -393 -552 -414 -530 -3 3 21 80 55 170 33 90 101 288 150
439 49 151 91 281 94 288 6 16 50 -5 100 -49z m-724 -101 c0 -24 3 -61 7 -83
7 -35 11 -40 45 -48 l38 -9 -41 -30 c-32 -24 -39 -35 -34 -52 10 -32 163 -261
232 -347 l62 -76 -35 -104 -35 -103 0 -543 0 -543 -172 2 -173 3 -1 630 c-1
347 -5 648 -10 670 -6 25 -15 40 -24 40 -16 0 -26 -64 -99 -678 -22 -181 -42
-331 -44 -334 -3 -3 -54 -1 -113 4 l-108 8 3 60 c6 160 83 859 122 1120 35
231 74 325 151 363 42 21 206 88 221 91 4 0 7 -18 8 -41z m928 -8 c140 -56
143 -58 177 -115 34 -58 59 -167 88 -373 39 -279 102 -840 112 -998 l7 -102
-112 -7 c-62 -4 -114 -6 -116 -4 -2 2 -22 153 -44 334 -55 447 -87 674 -94
681 -3 4 -13 4 -20 1 -22 -8 -31 -377 -23 -899 l8 -437 -24 -6 c-13 -3 -153
-4 -313 -3 l-290 3 -3 540 -2 540 101 100 c142 141 278 313 372 471 21 34 37
67 37 73 0 6 -18 24 -40 39 l-39 29 38 12 c34 10 39 16 45 49 3 20 6 56 6 80
0 23 1 42 3 42 2 0 59 -22 126 -50z"/>
<path d="M895 1056 c-20 -31 -3 -74 33 -83 31 -8 54 6 66 40 20 57 -66 94 -99
43z m63 -28 c-6 -18 -28 -21 -28 -4 0 9 7 16 16 16 9 0 14 -5 12 -12z"/>
<path d="M905 755 c-30 -29 -31 -49 -5 -75 27 -27 65 -26 84 2 21 30 20 54 -4
78 -26 26 -46 25 -75 -5z m53 -36 c-2 -6 -8 -10 -13 -10 -5 0 -11 4 -13 10 -2
6 4 11 13 11 9 0 15 -5 13 -11z"/>
<path d="M908 458 c-27 -22 -30 -53 -7 -81 24 -32 52 -34 79 -7 27 27 26 65
-2 84 -27 19 -49 20 -70 4z m50 -46 c2 -7 -3 -12 -12 -12 -9 0 -16 7 -16 16 0
17 22 14 28 -4z"/>
</g>
</svg>
