<?xml version="1.0" standalone="no"?>
<!DOCTYPE svg PUBLIC "-//W3C//DTD SVG 20010904//EN"
 "http://www.w3.org/TR/2001/REC-SVG-20010904/DTD/svg10.dtd">
<svg version="1.0" xmlns="http://www.w3.org/2000/svg"
 width="190.000000pt" height="266.000000pt" viewBox="0 0 190.000000 266.000000"
 preserveAspectRatio="xMidYMid meet">
<metadata>
Created by potrace 1.16, written by Peter Selinger 2001-2019
</metadata>
<g transform="translate(0.000000,266.000000) scale(0.100000,-0.100000)"
fill="#000000" stroke="none">
<path d="M850 2654 c-343 -43 -621 -242 -766 -547 -61 -130 -77 -211 -78 -392
-1 -186 11 -247 79 -392 54 -114 90 -167 177 -259 269 -283 672 -373 1037
-233 532 205 762 856 475 1349 -135 234 -365 403 -616 454 -80 17 -248 27
-308 20z m227 -49 c395 -38 738 -393 779 -805 6 -67 5 -73 -10 -67 -10 4 -211
7 -447 7 l-429 0 0 440 0 440 23 -4 c12 -3 50 -8 84 -11z m-147 -430 l0 -435
-446 -2 -446 -3 6 73 c33 363 310 684 670 778 50 12 119 23 154 24 l62 0 0
-435z m0 -925 l0 -440 -52 0 c-118 0 -294 62 -426 149 -91 61 -205 171 -261
254 -78 114 -135 274 -148 411 l-6 66 447 0 446 0 0 -440z m925 378 c-46 -438
-386 -775 -827 -822 l-58 -6 0 445 0 445 446 0 446 0 -7 -62z"/>
<path d="M1712 20 c0 -14 2 -19 5 -12 2 6 2 18 0 25 -3 6 -5 1 -5 -13z"/>
</g>
</svg>
