<?xml version="1.0" standalone="no"?>
<!DOCTYPE svg PUBLIC "-//W3C//DTD SVG 20010904//EN"
 "http://www.w3.org/TR/2001/REC-SVG-20010904/DTD/svg10.dtd">
<svg version="1.0" xmlns="http://www.w3.org/2000/svg"
 width="182.000000pt" height="192.000000pt" viewBox="0 0 182.000000 192.000000"
 preserveAspectRatio="xMidYMid meet">
<metadata>
Created by potrace 1.16, written by Peter Selinger 2001-2019
</metadata>
<g transform="translate(0.000000,192.000000) scale(0.100000,-0.100000)"
fill="#000000" stroke="none">
<path d="M944 1906 c-58 -26 -74 -58 -74 -155 0 -108 -17 -176 -74 -289 -58
-116 -142 -226 -257 -340 l-95 -94 -187 2 c-121 0 -194 -3 -208 -10 -46 -25
-49 -53 -49 -470 0 -426 3 -450 55 -470 15 -6 96 -10 181 -10 149 0 156 1 178
23 l24 24 43 -23 c24 -13 80 -35 124 -50 78 -26 87 -27 450 -36 236 -5 393 -5
433 1 79 12 146 44 173 82 36 51 38 129 3 163 -14 15 -13 17 13 27 63 24 103
83 103 154 0 48 -32 125 -52 125 -7 0 4 11 23 25 86 63 92 183 14 261 l-26 26
29 33 c72 81 36 202 -75 256 -47 23 -54 24 -310 23 -150 -1 -263 3 -263 8 0 5
11 31 25 58 14 28 40 92 57 143 27 79 32 106 32 197 1 93 -2 111 -25 160 -63
134 -170 197 -265 156z m138 -62 c50 -32 84 -85 103 -163 28 -106 4 -226 -81
-413 -53 -118 -54 -128 -12 -128 l32 0 -26 -27 c-39 -42 -48 -66 -48 -127 0
-47 4 -60 29 -89 l30 -33 -34 -27 c-40 -32 -60 -91 -50 -146 8 -44 51 -121 68
-121 7 0 -3 -12 -21 -26 -80 -63 -84 -163 -9 -233 l26 -23 -28 -24 c-59 -49
-64 -125 -14 -185 l27 -32 -185 6 c-198 5 -263 18 -371 72 -96 48 -88 6 -88
450 l0 391 72 59 c139 116 274 289 348 447 49 106 59 151 60 264 0 98 6 112
60 133 32 12 66 5 112 -25z m581 -718 c18 -7 47 -30 65 -50 45 -52 45 -105 -1
-151 -40 -40 -68 -44 -342 -47 -172 -2 -204 0 -232 15 -42 22 -63 54 -63 95 0
65 41 115 112 137 61 19 416 20 461 1z m-1275 -573 l-3 -438 -150 -3 c-114 -2
-155 1 -169 11 -17 13 -18 36 -17 427 1 278 5 418 13 427 8 10 52 13 169 13
l159 0 -2 -437z m1336 267 c63 -56 71 -133 18 -182 -52 -49 -63 -51 -333 -56
l-256 -5 -36 34 c-59 55 -66 149 -16 195 19 17 45 20 273 26 219 7 275 10 308
17 4 0 23 -13 42 -29z m-23 -298 c62 -55 43 -165 -34 -197 -45 -18 -480 -31
-522 -15 -75 29 -111 100 -81 159 33 63 45 65 305 69 130 1 243 4 251 6 36 9
52 4 81 -22z m-80 -291 c40 -41 38 -74 -9 -121 -52 -52 -114 -64 -308 -58
-173 5 -206 17 -237 80 -17 34 -17 39 -3 67 29 55 48 59 314 60 l214 1 29 -29z"/>
</g>
</svg>
