<?xml version="1.0" standalone="no"?>
<!DOCTYPE svg PUBLIC "-//W3C//DTD SVG 20010904//EN"
 "http://www.w3.org/TR/2001/REC-SVG-20010904/DTD/svg10.dtd">
<svg version="1.0" xmlns="http://www.w3.org/2000/svg"
 width="185.000000pt" height="209.000000pt" viewBox="0 0 185.000000 209.000000"
 preserveAspectRatio="xMidYMid meet">
<metadata>
Created by potrace 1.16, written by Peter Selinger 2001-2019
</metadata>
<g transform="translate(0.000000,209.000000) scale(0.100000,-0.100000)"
fill="#000000" stroke="none">
<path d="M915 2078 c-3 -8 -4 -63 -3 -124 2 -89 6 -109 18 -109 12 0 15 20 15
119 0 87 -3 120 -12 123 -7 3 -15 -2 -18 -9z"/>
<path d="M315 1910 c-8 -13 125 -180 142 -180 30 0 19 26 -44 105 -66 82 -85
96 -98 75z"/>
<path d="M1441 1834 c-40 -48 -70 -92 -68 -97 8 -26 29 -12 89 60 80 98 81 98
64 112 -11 10 -28 -5 -85 -75z"/>
<path d="M800 1735 c-112 -25 -205 -78 -296 -169 -132 -132 -193 -288 -180
-461 10 -145 44 -226 151 -370 110 -147 132 -218 144 -471 6 -140 10 -164 29
-196 38 -61 65 -68 280 -68 180 0 191 1 222 22 64 44 69 59 75 218 7 156 30
287 66 371 13 28 52 88 87 133 115 143 158 267 149 426 -8 154 -58 274 -162
389 -129 143 -375 219 -565 176z m241 -39 c108 -23 194 -71 280 -156 114 -113
169 -242 169 -400 0 -139 -42 -248 -142 -371 -77 -93 -112 -169 -135 -286
l-18 -93 -60 -1 c-33 -1 -72 -3 -87 -5 l-28 -3 0 218 0 218 45 6 c84 12 135
57 135 119 0 94 -133 139 -195 66 -20 -24 -25 -40 -25 -89 l0 -59 -55 0 -55 0
0 59 c0 69 -21 103 -75 121 -66 22 -131 -16 -141 -82 -12 -70 38 -122 131
-135 l45 -6 0 -220 0 -219 -22 6 c-13 3 -52 6 -88 6 l-66 0 -16 85 c-20 105
-65 200 -152 317 -146 198 -166 406 -58 612 116 222 370 343 613 292z m-237
-707 c22 -18 26 -28 26 -76 l0 -56 -42 6 c-87 12 -128 82 -72 126 34 26 54 27
88 0z m330 0 c59 -47 3 -129 -89 -129 -24 0 -25 3 -25 53 0 53 12 80 40 90 29
10 47 7 74 -14z m-154 -389 l0 -220 -55 0 -55 0 0 220 0 220 55 0 55 0 0 -220z
m210 -314 l0 -63 -46 -7 c-60 -8 -363 -8 -431 0 l-53 7 0 63 0 64 265 0 265 0
0 -64z m0 -129 c0 -33 -27 -83 -56 -102 -25 -17 -51 -20 -189 -23 -187 -4
-227 5 -262 57 -13 19 -23 46 -23 60 l0 26 265 0 c248 0 265 -1 265 -18z"/>
<path d="M1741 1366 c-92 -31 -118 -50 -87 -62 20 -8 187 47 194 64 11 29 -17
28 -107 -2z"/>
<path d="M2 1373 c2 -11 32 -26 88 -45 97 -32 113 -34 108 -11 -2 11 -32 26
-88 45 -97 32 -113 34 -108 11z"/>
<path d="M128 818 c-81 -27 -105 -46 -79 -62 15 -10 196 60 196 75 0 22 -25
20 -117 -13z"/>
<path d="M1617 844 c-20 -20 1 -35 86 -63 109 -37 107 -36 107 -12 0 15 -17
25 -82 47 -46 15 -88 29 -94 31 -5 2 -13 0 -17 -3z"/>
</g>
</svg>
