<?xml version="1.0" standalone="no"?>
<!DOCTYPE svg PUBLIC "-//W3C//DTD SVG 20010904//EN"
 "http://www.w3.org/TR/2001/REC-SVG-20010904/DTD/svg10.dtd">
<svg version="1.0" xmlns="http://www.w3.org/2000/svg"
 width="182.000000pt" height="138.000000pt" viewBox="0 0 182.000000 138.000000"
 preserveAspectRatio="xMidYMid meet">
<metadata>
Created by potrace 1.16, written by Peter Selinger 2001-2019
</metadata>
<g transform="translate(0.000000,138.000000) scale(0.100000,-0.100000)"
fill="#000000" stroke="none">
<path d="M1120 1365 c0 -8 147 -164 327 -346 l327 -330 -329 -329 c-237 -237
-326 -332 -322 -344 4 -9 10 -16 15 -16 17 0 684 679 680 693 -5 23 -665 687
-683 687 -8 0 -15 -7 -15 -15z"/>
<path d="M457 1103 c-4 -3 -7 -12 -7 -20 0 -11 62 -13 329 -13 322 0 371 5
330 31 -16 10 -642 12 -652 2z"/>
<path d="M5 709 c-4 -6 -3 -15 2 -20 5 -5 233 -8 559 -7 480 3 549 5 549 18 0
13 -69 15 -552 18 -392 1 -554 -1 -558 -9z"/>
<path d="M455 309 c-4 -6 -3 -15 2 -20 5 -5 144 -8 334 -7 280 3 324 5 324 18
0 13 -44 15 -327 18 -229 1 -329 -1 -333 -9z"/>
</g>
</svg>
