<?xml version="1.0" standalone="no"?>
<!DOCTYPE svg PUBLIC "-//W3C//DTD SVG 20010904//EN"
 "http://www.w3.org/TR/2001/REC-SVG-20010904/DTD/svg10.dtd">
<svg version="1.0" xmlns="http://www.w3.org/2000/svg"
 width="179.000000pt" height="221.000000pt" viewBox="0 0 179.000000 221.000000"
 preserveAspectRatio="xMidYMid meet">
<metadata>
Created by potrace 1.16, written by Peter Selinger 2001-2019
</metadata>
<g transform="translate(0.000000,221.000000) scale(0.100000,-0.100000)"
fill="#000000" stroke="none">
<path d="M793 2200 c-325 -59 -529 -376 -458 -715 29 -139 139 -312 229 -360
20 -11 36 -22 36 -25 0 -3 -35 -22 -77 -41 -212 -96 -399 -250 -461 -379 -53
-108 -63 -180 -60 -443 3 -198 5 -232 18 -232 13 0 16 39 21 265 5 246 7 269
29 325 13 33 34 78 48 100 51 84 168 187 294 259 l47 27 -6 -101 -6 -101 74
-68 73 -68 -32 -40 c-18 -23 -32 -45 -32 -50 0 -5 76 -85 170 -177 l169 -169
3 -101 c3 -87 5 -101 21 -104 15 -3 17 7 17 105 l1 108 46 35 c65 49 313 290
313 304 0 6 -16 31 -34 55 l-33 44 74 65 c72 63 75 67 69 101 -3 20 -8 62 -12
94 l-7 58 38 -15 c106 -45 252 -172 310 -270 62 -107 68 -140 73 -416 4 -245
8 -280 34 -264 15 9 9 463 -7 537 -28 134 -129 280 -259 371 -33 24 -123 74
-198 110 -119 58 -162 86 -129 86 4 0 37 27 73 60 182 166 246 397 176 630
-54 177 -200 329 -366 380 -76 24 -206 33 -279 20z m219 -51 c206 -43 371
-228 403 -451 l7 -48 -50 0 c-49 0 -51 1 -76 44 -61 104 -208 115 -282 22
l-29 -36 -95 0 -95 0 -17 31 c-11 18 -36 38 -64 51 -89 39 -192 4 -231 -78
-16 -32 -20 -34 -65 -34 -48 0 -48 0 -48 34 0 51 38 164 76 228 65 108 187
199 311 233 60 17 185 18 255 4z m-293 -444 c59 -51 62 -142 5 -196 -21 -20
-36 -24 -86 -24 -55 0 -62 3 -88 32 -54 60 -49 137 12 188 42 35 115 35 157 0z
m497 9 c74 -49 71 -179 -6 -219 -61 -32 -145 -9 -176 47 -31 55 -8 144 44 172
36 20 107 20 138 0z m-223 -190 c35 -67 106 -101 185 -89 63 9 126 71 137 133
l7 42 49 0 c47 0 49 -1 49 -27 0 -54 -31 -157 -66 -224 -45 -86 -141 -184
-221 -227 -162 -86 -372 -79 -525 19 -131 84 -238 272 -238 418 l0 41 49 0 48
0 6 -40 c10 -77 84 -139 167 -140 87 0 169 79 170 162 l0 37 78 3 77 3 6 -41
c4 -23 14 -54 22 -70z m128 -526 c-32 -94 -210 -539 -221 -551 -4 -4 -21 27
-38 70 -17 43 -62 152 -100 243 -38 92 -82 199 -96 239 l-26 73 22 -6 c120
-34 146 -38 252 -34 80 3 126 10 166 25 30 12 58 22 62 22 4 1 -6 -36 -21 -81z
m-497 -14 c9 -27 68 -173 131 -324 104 -247 115 -280 115 -334 l0 -61 -147
148 c-88 87 -144 150 -137 155 5 4 23 24 39 45 l29 39 -83 76 -83 76 6 75 c11
121 12 125 59 148 23 12 45 18 48 14 4 -3 14 -29 23 -57z m610 34 c49 -23 51
-28 61 -149 l7 -74 -76 -63 c-42 -35 -76 -68 -76 -73 0 -6 16 -31 35 -56 l36
-47 -33 -34 c-54 -57 -259 -242 -267 -242 -25 0 10 117 100 340 55 135 115
284 132 332 18 48 33 88 34 88 1 0 22 -10 47 -22z"/>
<path d="M1205 270 c-15 -24 12 -30 146 -30 128 0 140 2 137 18 -3 15 -19 17
-140 20 -86 2 -139 -1 -143 -8z"/>
</g>
</svg>
