<?xml version="1.0" standalone="no"?>
<!DOCTYPE svg PUBLIC "-//W3C//DTD SVG 20010904//EN"
 "http://www.w3.org/TR/2001/REC-SVG-20010904/DTD/svg10.dtd">
<svg version="1.0" xmlns="http://www.w3.org/2000/svg"
 width="229.000000pt" height="232.000000pt" viewBox="0 0 229.000000 232.000000"
 preserveAspectRatio="xMidYMid meet">
<metadata>
Created by potrace 1.16, written by Peter Selinger 2001-2019
</metadata>
<g transform="translate(0.000000,232.000000) scale(0.100000,-0.100000)"
fill="#000000" stroke="none">
<path d="M1114 2306 c-46 -20 -1101 -1074 -1110 -1109 -3 -16 -2 -39 4 -52 20
-43 57 -59 153 -63 l88 -4 3 -494 3 -493 30 -32 c58 -61 22 -59 862 -59 711 0
771 1 802 18 19 9 44 30 55 45 20 28 21 41 24 523 l3 494 85 0 c100 0 146 17
164 61 7 16 9 40 6 53 -3 14 -65 84 -136 157 l-130 133 0 314 c0 197 -4 321
-10 333 -10 18 -23 19 -195 19 -172 0 -185 -1 -195 -19 -5 -11 -10 -65 -10
-120 0 -56 -4 -101 -9 -101 -5 0 -20 12 -33 28 -73 84 -377 370 -398 375 -14
3 -39 0 -56 -7z m557 -598 c285 -287 515 -526 512 -531 -3 -5 -50 -6 -107 -2
-89 6 -105 5 -119 -10 -15 -15 -17 -62 -17 -521 0 -329 -4 -512 -10 -525 -10
-18 -24 -19 -240 -19 l-230 0 0 455 c0 431 -1 455 -18 464 -11 6 -130 9 -299
8 -220 -2 -283 -5 -296 -16 -15 -12 -17 -57 -17 -462 l0 -449 -229 0 c-226 0
-230 0 -245 22 -14 20 -16 87 -16 530 0 373 -3 509 -12 514 -6 4 -56 6 -110 5
-54 -1 -103 1 -109 5 -9 5 1026 1054 1040 1054 3 0 237 -235 522 -522z m259
116 c0 -129 -3 -234 -7 -234 -4 0 -56 48 -115 107 l-108 108 0 127 0 127 108
3 c59 2 110 2 115 0 4 -2 7 -109 7 -238z m-552 -1311 l2 -413 -230 0 -230 0 0
415 0 415 228 -2 227 -3 3 -412z"/>
</g>
</svg>
