<?xml version="1.0" standalone="no"?>
<!DOCTYPE svg PUBLIC "-//W3C//DTD SVG 20010904//EN"
 "http://www.w3.org/TR/2001/REC-SVG-20010904/DTD/svg10.dtd">
<svg version="1.0" xmlns="http://www.w3.org/2000/svg"
 width="231.000000pt" height="99.000000pt" viewBox="0 0 231.000000 99.000000"
 preserveAspectRatio="xMidYMid meet">
<metadata>
Created by potrace 1.16, written by Peter Selinger 2001-2019
</metadata>
<g transform="translate(0.000000,99.000000) scale(0.100000,-0.100000)"
fill="#000000" stroke="none">
<path d="M890 980 c-303 -21 -553 -71 -700 -141 -220 -105 -239 -174 -105
-383 139 -217 274 -324 485 -385 158 -45 283 -62 515 -68 497 -13 796 63 984
249 100 100 218 282 236 365 32 156 -251 293 -720 348 -162 19 -517 27 -695
15z m510 -40 c333 -21 567 -71 732 -157 69 -36 138 -100 138 -129 0 -35 -36
-88 -84 -124 -137 -103 -372 -168 -729 -201 -191 -17 -605 -7 -777 20 -156 25
-346 71 -430 105 -127 52 -210 129 -210 194 0 96 211 202 500 251 254 43 575
58 860 41z m770 -505 c-156 -227 -316 -321 -630 -371 -230 -36 -638 -28 -845
17 -198 43 -302 90 -404 185 -56 52 -161 179 -161 196 0 4 15 -1 33 -12 52
-31 232 -87 367 -114 202 -41 383 -57 622 -57 309 1 548 28 768 87 98 27 252
92 265 113 4 7 9 10 12 7 3 -2 -9 -25 -27 -51z"/>
<path d="M995 688 c-163 -6 -333 -29 -470 -64 -70 -18 -189 -72 -225 -102 -23
-18 -23 -21 -7 -27 11 -5 47 7 100 34 91 46 184 72 350 98 143 23 672 26 807
5 137 -22 299 -67 381 -106 74 -35 119 -45 119 -26 0 5 -20 21 -44 35 -203
119 -546 171 -1011 153z"/>
</g>
</svg>
