<?xml version="1.0" standalone="no"?>
<!DOCTYPE svg PUBLIC "-//W3C//DTD SVG 20010904//EN"
 "http://www.w3.org/TR/2001/REC-SVG-20010904/DTD/svg10.dtd">
<svg version="1.0" xmlns="http://www.w3.org/2000/svg"
 width="150.000000pt" height="199.000000pt" viewBox="0 0 150.000000 199.000000"
 preserveAspectRatio="xMidYMid meet">
<metadata>
Created by potrace 1.16, written by Peter Selinger 2001-2019
</metadata>
<g transform="translate(0.000000,199.000000) scale(0.100000,-0.100000)"
fill="#000000" stroke="none">
<path d="M185 1971 c-72 -33 -105 -130 -70 -205 9 -18 74 -90 145 -161 72 -71
130 -130 130 -132 0 -1 -7 -3 -15 -3 -22 0 -81 -56 -95 -90 -7 -16 -10 -50 -8
-75 2 -33 0 -45 -10 -45 -30 0 -85 -35 -108 -69 -26 -38 -34 -124 -14 -160 8
-16 4 -19 -28 -25 -25 -3 -49 -18 -72 -41 -30 -31 -35 -42 -38 -100 -3 -52 0
-70 16 -97 34 -54 421 -430 501 -486 76 -53 178 -98 290 -127 88 -22 135 -48
197 -107 49 -46 74 -55 74 -25 0 20 -101 113 -145 135 -22 10 -83 31 -135 46
-164 46 -240 91 -391 230 -147 134 -321 314 -350 361 -45 72 5 175 84 175 23
0 52 -22 146 -115 107 -105 151 -135 151 -104 0 7 -54 67 -119 134 -66 68
-127 138 -136 156 -35 67 6 156 79 173 26 7 39 -4 180 -143 84 -83 157 -151
163 -151 37 0 10 37 -130 178 -166 168 -179 190 -157 257 14 41 60 78 94 73
16 -2 98 -75 235 -210 146 -145 215 -206 226 -202 8 3 15 12 15 18 0 7 -163
174 -362 372 -198 197 -366 372 -373 388 -26 61 20 146 79 146 45 0 68 -19
259 -205 487 -477 620 -613 652 -665 45 -73 80 -185 95 -294 6 -49 17 -104 25
-122 16 -39 191 -234 210 -234 7 0 16 7 19 16 4 10 -23 46 -85 111 -50 52 -97
109 -104 126 -7 18 -18 73 -24 122 -15 115 -58 238 -110 318 -51 79 -823 833
-879 859 -47 22 -58 22 -107 -1z"/>
</g>
</svg>
