<?xml version="1.0" standalone="no"?>
<!DOCTYPE svg PUBLIC "-//W3C//DTD SVG 20010904//EN"
 "http://www.w3.org/TR/2001/REC-SVG-20010904/DTD/svg10.dtd">
<svg version="1.0" xmlns="http://www.w3.org/2000/svg"
 width="205.000000pt" height="205.000000pt" viewBox="0 0 205.000000 205.000000"
 preserveAspectRatio="xMidYMid meet">
<metadata>
Created by potrace 1.16, written by Peter Selinger 2001-2019
</metadata>
<g transform="translate(0.000000,205.000000) scale(0.100000,-0.100000)"
fill="#000000" stroke="none">
<path d="M895 2039 c-350 -44 -637 -248 -790 -563 -82 -169 -100 -246 -100
-446 0 -179 12 -249 65 -385 268 -682 1161 -864 1681 -341 167 168 263 372
289 619 32 291 -64 580 -263 793 -96 102 -176 163 -289 220 -112 56 -231 90
-359 104 -113 11 -134 11 -234 -1z m360 -68 c173 -43 306 -116 437 -240 317
-300 397 -757 202 -1146 -215 -426 -716 -636 -1169 -489 -313 102 -542 338
-642 661 -25 82 -27 101 -27 268 0 167 2 186 27 268 98 318 309 541 616 651
163 59 385 69 556 27z"/>
<path d="M1005 1638 c-3 -7 -4 -155 -3 -328 l3 -315 189 -3 c194 -3 230 4 205
34 -9 11 -50 14 -180 14 l-169 0 -2 302 c-3 279 -4 303 -21 306 -9 2 -19 -3
-22 -10z"/>
</g>
</svg>
