<?xml version="1.0" standalone="no"?>
<!DOCTYPE svg PUBLIC "-//W3C//DTD SVG 20010904//EN"
 "http://www.w3.org/TR/2001/REC-SVG-20010904/DTD/svg10.dtd">
<svg version="1.0" xmlns="http://www.w3.org/2000/svg"
 width="170.000000pt" height="217.000000pt" viewBox="0 0 170.000000 217.000000"
 preserveAspectRatio="xMidYMid meet">
<metadata>
Created by potrace 1.16, written by Peter Selinger 2001-2019
</metadata>
<g transform="translate(0.000000,217.000000) scale(0.100000,-0.100000)"
fill="#000000" stroke="none">
<path d="M520 2161 c-99 -31 -190 -136 -190 -222 l0 -29 -143 0 c-127 0 -146
-2 -160 -18 -37 -41 -24 -64 123 -219 77 -81 140 -155 140 -164 0 -9 9 -24 20
-34 17 -15 20 -31 20 -92 l0 -73 -143 0 c-153 0 -187 -9 -187 -51 0 -13 62
-85 163 -188 l163 -168 1 -97 2 -96 -149 0 c-142 0 -150 -1 -164 -22 -9 -12
-16 -28 -16 -35 0 -7 66 -83 147 -168 147 -154 182 -204 183 -260 1 -70 68
-162 146 -201 36 -17 66 -19 368 -22 l329 -3 53 26 c85 42 154 141 154 222 0
22 80 121 248 305 66 73 78 102 57 134 -15 23 -19 24 -160 24 l-145 0 0 86 0
87 48 56 c26 30 95 106 154 167 114 119 132 152 103 184 -16 18 -32 20 -162
20 l-143 0 0 88 0 88 160 168 c142 149 160 171 160 201 0 24 -6 38 -19 45 -11
5 -82 10 -159 10 l-140 0 -7 38 c-16 95 -99 186 -195 212 -41 12 -623 12 -660
1z m658 -45 c61 -22 97 -52 129 -110 l28 -51 1 -840 c1 -504 -2 -861 -8 -893
-12 -65 -57 -127 -117 -159 -43 -23 -49 -23 -352 -23 -192 0 -318 4 -336 11
-56 21 -102 61 -128 112 l-25 51 0 870 c0 827 1 873 19 911 24 52 76 101 126
119 58 21 604 22 663 2z m-852 -259 c2 -7 3 -79 2 -159 l-3 -146 -137 144
c-76 79 -138 150 -138 159 0 13 20 15 135 15 102 0 137 -3 141 -13z m1334 0
c0 -11 -65 -83 -271 -302 -5 -5 -9 57 -9 153 l0 162 140 0 c110 0 140 -3 140
-13z m-1330 -738 c0 -83 -3 -149 -8 -147 -17 7 -272 276 -272 286 0 9 41 12
140 12 l140 0 0 -151z m1325 141 c4 -6 -35 -55 -87 -108 -51 -53 -115 -120
-141 -149 l-47 -52 0 159 0 160 134 0 c83 0 137 -4 141 -10z m-1326 -747 l1
-157 -140 144 c-76 80 -139 151 -139 158 -1 9 33 12 138 12 l139 0 1 -157z
m1321 145 c0 -10 -204 -255 -261 -313 -5 -5 -9 56 -9 158 l0 167 135 0 c101 0
135 -3 135 -12z"/>
<path d="M810 1970 c-57 -12 -87 -27 -130 -66 -55 -50 -82 -105 -88 -181 -20
-254 295 -383 464 -190 95 108 84 272 -26 370 -65 59 -143 83 -220 67z m128
-55 c80 -34 142 -127 142 -214 0 -114 -110 -221 -226 -221 -128 0 -237 123
-220 246 20 152 170 244 304 189z"/>
<path d="M777 1316 c-120 -43 -195 -157 -185 -281 18 -215 262 -309 444 -170
82 63 110 210 58 313 -59 119 -199 180 -317 138z m184 -57 c156 -79 156 -310
0 -391 -97 -51 -199 -32 -273 50 -49 54 -64 110 -49 181 31 155 184 231 322
160z"/>
<path d="M744 666 c-180 -84 -207 -345 -46 -447 112 -71 232 -65 340 18 48 37
82 114 82 188 0 193 -202 322 -376 241z m202 -35 c51 -23 111 -93 125 -145 51
-188 -147 -340 -322 -248 -134 70 -155 247 -42 354 61 58 161 74 239 39z"/>
</g>
</svg>
