<?xml version="1.0" standalone="no"?>
<!DOCTYPE svg PUBLIC "-//W3C//DTD SVG 20010904//EN"
 "http://www.w3.org/TR/2001/REC-SVG-20010904/DTD/svg10.dtd">
<svg version="1.0" xmlns="http://www.w3.org/2000/svg"
 width="159.000000pt" height="210.000000pt" viewBox="0 0 159.000000 210.000000"
 preserveAspectRatio="xMidYMid meet">
<metadata>
Created by potrace 1.16, written by Peter Selinger 2001-2019
</metadata>
<g transform="translate(0.000000,210.000000) scale(0.100000,-0.100000)"
fill="#000000" stroke="none">
<path d="M732 2085 c-35 -8 -102 -32 -148 -55 -212 -102 -359 -348 -339 -565
7 -81 4 -91 -85 -254 -35 -65 -60 -122 -60 -140 0 -42 40 -71 96 -71 l44 0 0
-104 0 -104 -37 5 c-51 7 -93 -25 -93 -70 0 -18 4 -38 9 -46 7 -10 1 -22 -20
-42 -31 -28 -37 -65 -19 -100 9 -16 7 -21 -15 -29 -33 -13 -50 -56 -37 -93 9
-23 7 -32 -9 -48 -34 -34 -21 -88 40 -168 36 -47 210 -201 227 -201 32 0 9 32
-69 97 -77 65 -148 147 -176 201 -10 18 -10 27 0 38 17 20 25 18 70 -18 31
-25 42 -29 52 -19 9 9 0 23 -46 65 -56 52 -69 80 -45 104 19 19 34 15 93 -24
48 -32 75 -38 75 -15 0 5 -25 27 -55 50 -65 49 -91 91 -75 121 18 33 54 23
131 -35 40 -30 78 -55 86 -55 28 0 11 30 -37 64 -71 51 -131 107 -140 131 -19
51 37 72 95 36 17 -10 93 -66 169 -125 184 -140 194 -140 313 0 61 70 104 99
140 92 33 -6 25 -36 -27 -103 -61 -81 -72 -101 -99 -188 -27 -88 -50 -342 -32
-360 19 -19 31 10 31 80 0 196 45 339 144 467 25 32 46 69 46 81 0 27 -43 65
-72 65 -39 0 -96 -40 -162 -114 -38 -42 -77 -81 -87 -87 -25 -13 -34 -7 -197
115 l-132 98 0 123 c0 145 -5 155 -79 155 -65 0 -83 20 -56 64 10 17 47 86 82
154 l64 123 -7 87 c-11 151 38 281 153 402 116 124 243 180 423 187 144 6 234
-11 347 -67 138 -68 245 -190 310 -356 25 -63 27 -81 28 -204 0 -187 -23 -260
-151 -476 -86 -144 -99 -187 -98 -334 1 -120 6 -152 59 -387 6 -27 35 -31 35
-5 0 10 -14 86 -31 168 -27 128 -30 164 -27 254 6 117 26 181 92 283 103 163
154 304 163 457 7 126 -13 218 -73 340 -39 77 -62 109 -128 175 -88 87 -158
129 -271 165 -92 28 -291 36 -383 15z"/>
<path d="M1105 1368 c-32 -17 -65 -50 -65 -65 0 -20 18 -16 54 12 42 32 107
34 135 6 54 -54 50 -151 -9 -237 -53 -76 -89 -90 -141 -53 -26 18 -30 19 -35
4 -9 -22 23 -53 61 -61 88 -16 194 114 195 239 0 108 -45 167 -129 167 -25 0
-55 -6 -66 -12z"/>
</g>
</svg>
