<?xml version="1.0" standalone="no"?>
<!DOCTYPE svg PUBLIC "-//W3C//DTD SVG 20010904//EN"
 "http://www.w3.org/TR/2001/REC-SVG-20010904/DTD/svg10.dtd">
<svg version="1.0" xmlns="http://www.w3.org/2000/svg"
 width="144.000000pt" height="154.000000pt" viewBox="0 0 144.000000 154.000000"
 preserveAspectRatio="xMidYMid meet">
<metadata>
Created by potrace 1.16, written by Peter Selinger 2001-2019
</metadata>
<g transform="translate(0.000000,154.000000) scale(0.100000,-0.100000)"
fill="#000000" stroke="none">
<path d="M353 1533 c-9 -3 -13 -29 -13 -79 l0 -74 -154 0 c-149 0 -155 -1
-170 -22 -14 -20 -16 -100 -16 -670 0 -635 0 -648 20 -668 20 -20 33 -20 698
-20 372 0 682 4 688 8 33 21 34 50 34 684 0 490 -3 639 -13 658 -13 25 -13 25
-170 28 l-157 3 0 73 c0 54 -4 75 -14 79 -25 10 -36 -16 -36 -85 l0 -68 -330
0 -330 0 0 69 c0 68 -11 93 -37 84z m-13 -282 c0 -81 9 -102 35 -81 11 9 15
34 15 86 l0 74 330 0 330 0 0 -68 c0 -41 5 -75 13 -87 25 -33 37 -8 37 76 l0
79 145 0 145 0 0 -160 0 -160 -670 0 -670 0 0 160 0 160 145 0 145 0 0 -79z
m1050 -746 l0 -455 -670 0 -670 0 0 455 0 455 670 0 670 0 0 -455z"/>
</g>
</svg>
