<?xml version="1.0" standalone="no"?>
<!DOCTYPE svg PUBLIC "-//W3C//DTD SVG 20010904//EN"
 "http://www.w3.org/TR/2001/REC-SVG-20010904/DTD/svg10.dtd">
<svg version="1.0" xmlns="http://www.w3.org/2000/svg"
 width="144.000000pt" height="153.000000pt" viewBox="0 0 144.000000 153.000000"
 preserveAspectRatio="xMidYMid meet">
<metadata>
Created by potrace 1.16, written by Peter Selinger 2001-2019
</metadata>
<g transform="translate(0.000000,153.000000) scale(0.100000,-0.100000)"
fill="#000000" stroke="none">
<path d="M340 1456 l0 -76 -154 0 c-149 0 -155 -1 -170 -22 -14 -20 -16 -101
-16 -675 l0 -652 22 -15 c20 -14 102 -16 688 -16 366 0 675 3 686 6 12 3 27
17 33 30 17 38 15 1280 -2 1314 -13 25 -13 25 -170 28 l-157 3 0 75 c0 72 -1
75 -22 72 -21 -3 -23 -9 -26 -75 l-3 -73 -329 0 -329 0 -3 73 c-3 66 -5 72
-25 75 -22 3 -23 0 -23 -72z m0 -205 c0 -84 12 -109 37 -76 8 12 13 46 13 87
l0 68 330 0 330 0 0 -74 c0 -52 4 -77 15 -86 26 -21 35 0 35 81 l0 79 145 0
145 0 0 -160 0 -160 -670 0 -670 0 0 160 0 160 145 0 145 0 0 -79z m1050 -746
l0 -455 -670 0 -670 0 0 455 0 455 670 0 670 0 0 -455z"/>
</g>
</svg>
