<?xml version="1.0" standalone="no"?>
<!DOCTYPE svg PUBLIC "-//W3C//DTD SVG 20010904//EN"
 "http://www.w3.org/TR/2001/REC-SVG-20010904/DTD/svg10.dtd">
<svg version="1.0" xmlns="http://www.w3.org/2000/svg"
 width="182.000000pt" height="181.000000pt" viewBox="0 0 182.000000 181.000000"
 preserveAspectRatio="xMidYMid meet">
<metadata>
Created by potrace 1.16, written by Peter Selinger 2001-2019
</metadata>
<g transform="translate(0.000000,181.000000) scale(0.100000,-0.100000)"
fill="#000000" stroke="none">
<path d="M407 1775 c-64 -73 -166 -109 -199 -70 -38 46 -38 46 -122 43 l-81
-3 -3 -142 -3 -143 87 0 c80 0 89 2 110 25 48 52 153 24 188 -49 10 -21 24
-40 32 -43 11 -4 14 -40 14 -199 l0 -194 -44 0 c-49 0 -103 -31 -123 -70 -10
-19 -13 -124 -13 -421 0 -394 0 -396 23 -429 12 -19 38 -43 57 -54 34 -21 50
-21 705 -24 625 -2 672 -1 704 15 19 10 44 31 55 46 20 27 21 42 24 425 4 543
26 505 -303 512 l-219 5 -8 40 c-24 122 -9 115 -253 115 -235 0 -222 5 -246
-102 l-12 -58 -44 0 -43 0 0 194 c0 192 0 195 22 198 18 2 24 13 33 61 6 32
21 67 32 78 64 64 260 30 377 -66 24 -19 46 -35 49 -35 4 0 11 9 17 20 28 52
-52 212 -138 275 -90 66 -147 78 -410 83 l-232 4 -33 -37z m507 -20 c84 -18
141 -50 194 -110 34 -39 90 -145 76 -145 -3 0 -24 13 -47 29 -63 43 -132 63
-232 68 -75 4 -96 1 -124 -15 -41 -22 -71 -73 -71 -119 l0 -33 -138 0 -139 0
-24 37 c-13 21 -40 48 -59 61 -30 21 -43 23 -97 19 l-63 -5 0 58 0 58 45 -6
c62 -7 121 18 175 73 l44 45 196 0 c132 0 217 -5 264 -15z m-764 -149 l0 -104
-55 -4 -55 -3 0 108 0 107 55 0 55 0 0 -104z m506 -232 c-3 -9 -6 -96 -6 -195
l0 -179 -90 0 -90 0 0 195 0 195 96 0 c84 0 95 -2 90 -16z m584 -296 c6 -24
13 -51 16 -60 5 -17 -10 -18 -216 -18 l-222 0 7 36 c3 20 10 47 15 60 l10 24
189 0 190 0 11 -42z m489 -133 c41 -21 51 -61 51 -212 0 -129 -1 -135 -25
-158 -26 -27 -28 -27 -200 -26 -60 0 -169 1 -242 1 l-132 0 -3 38 -3 37 -140
0 -140 0 -3 -37 -3 -38 -276 0 c-352 0 -323 -17 -323 198 l0 154 29 29 29 29
677 0 c575 0 680 -2 704 -15z m-589 -430 l0 -75 -105 0 -105 0 0 75 0 75 105
0 105 0 0 -75z m-775 -6 c22 -4 149 -5 283 -3 l242 5 0 -50 c0 -62 1 -63 165
-59 l120 3 3 50 3 50 241 -3 c219 -3 290 2 341 23 16 7 17 -6 17 -194 0 -160
-3 -208 -15 -231 -33 -63 3 -60 -700 -60 -354 0 -658 5 -680 10 -24 5 -51 21
-67 40 l-28 30 0 206 c0 192 1 206 18 199 9 -4 35 -11 57 -16z"/>
</g>
</svg>
