<?xml version="1.0" standalone="no"?>
<!DOCTYPE svg PUBLIC "-//W3C//DTD SVG 20010904//EN"
 "http://www.w3.org/TR/2001/REC-SVG-20010904/DTD/svg10.dtd">
<svg version="1.0" xmlns="http://www.w3.org/2000/svg"
 width="103.000000pt" height="173.000000pt" viewBox="0 0 103.000000 173.000000"
 preserveAspectRatio="xMidYMid meet">
<metadata>
Created by potrace 1.16, written by Peter Selinger 2001-2019
</metadata>
<g transform="translate(0.000000,173.000000) scale(0.100000,-0.100000)"
fill="#000000" stroke="none">
<path d="M413 1715 c-191 -41 -350 -202 -398 -400 -22 -91 -18 -150 10 -150
17 0 21 9 26 60 14 134 55 222 143 310 111 111 254 160 398 136 254 -42 429
-278 389 -525 -25 -155 -115 -273 -272 -355 -170 -90 -219 -165 -227 -342 -4
-93 -2 -107 13 -112 9 -4 20 -5 25 -2 4 2 9 49 12 104 8 167 41 213 228 321
104 60 177 137 226 234 38 77 39 84 43 197 3 101 0 127 -19 184 -58 175 -201
301 -385 340 -84 18 -130 18 -212 0z"/>
<path d="M466 108 c-48 -68 36 -146 94 -88 11 11 20 31 20 45 0 57 -83 88
-114 43z"/>
</g>
</svg>
