<?xml version="1.0" standalone="no"?>
<!DOCTYPE svg PUBLIC "-//W3C//DTD SVG 20010904//EN"
 "http://www.w3.org/TR/2001/REC-SVG-20010904/DTD/svg10.dtd">
<svg version="1.0" xmlns="http://www.w3.org/2000/svg"
 width="151.000000pt" height="195.000000pt" viewBox="0 0 151.000000 195.000000"
 preserveAspectRatio="xMidYMid meet">
<metadata>
Created by potrace 1.16, written by Peter Selinger 2001-2019
</metadata>
<g transform="translate(0.000000,195.000000) scale(0.100000,-0.100000)"
fill="#000000" stroke="none">
<path d="M694 1935 c-3 -8 1 -43 10 -78 20 -80 21 -205 1 -281 -16 -62 -26
-84 -121 -266 -53 -102 -86 -187 -110 -285 -6 -25 -9 -19 -16 40 -15 127 -60
225 -146 317 -43 46 -74 59 -87 37 -4 -5 -1 -48 6 -94 19 -133 -6 -225 -101
-365 -94 -138 -130 -255 -130 -416 0 -131 24 -210 94 -308 54 -74 171 -178
196 -173 8 1 16 12 18 24 2 16 -8 29 -41 52 -98 67 -180 186 -207 300 -17 71
-8 216 19 301 11 36 43 102 70 145 116 187 147 272 140 389 -2 31 -2 56 1 56
10 0 66 -94 84 -139 9 -24 23 -86 31 -139 15 -101 32 -132 71 -132 19 0 25 8
34 43 43 163 77 246 156 387 74 133 106 234 108 340 0 47 -2 105 -7 128 l-8
44 33 -23 c57 -39 191 -183 227 -242 18 -31 45 -85 60 -119 26 -62 26 -67 26
-288 0 -243 6 -274 48 -268 17 2 34 28 74 108 29 58 66 121 83 140 l31 35 -5
-34 c-10 -54 12 -155 55 -263 87 -216 87 -378 1 -557 -41 -85 -108 -159 -197
-217 -68 -44 -75 -52 -68 -71 22 -56 216 95 298 232 107 179 111 399 12 639
l-42 101 1 127 c1 144 -5 156 -61 114 -45 -35 -97 -108 -140 -197 l-35 -74 2
190 c2 159 0 200 -16 249 -54 178 -189 352 -366 471 -57 38 -78 43 -86 20z"/>
<path d="M777 949 c-63 -41 -124 -112 -156 -179 -22 -48 -26 -71 -29 -177 -2
-68 -8 -123 -13 -123 -4 0 -26 24 -48 54 -49 66 -55 70 -81 56 -40 -21 -54
-75 -54 -215 -1 -119 1 -134 24 -178 31 -62 96 -122 168 -155 49 -23 70 -27
152 -27 81 0 103 4 150 26 65 31 131 92 160 148 11 22 25 71 32 109 10 58 9
79 -5 135 -19 78 -46 123 -121 205 -82 88 -99 133 -95 251 4 90 3 96 -16 99
-11 1 -42 -11 -68 -29z m29 -122 c0 -92 25 -144 110 -237 83 -91 106 -137 112
-226 8 -130 -45 -227 -154 -280 -76 -37 -184 -39 -259 -6 -108 49 -166 134
-173 254 -4 71 12 178 26 178 4 0 17 -16 30 -35 25 -39 81 -71 107 -62 30 12
45 71 45 184 0 129 12 161 89 246 29 31 56 57 60 57 3 0 6 -33 7 -73z"/>
</g>
</svg>
