<?xml version="1.0" standalone="no"?>
<!DOCTYPE svg PUBLIC "-//W3C//DTD SVG 20010904//EN"
 "http://www.w3.org/TR/2001/REC-SVG-20010904/DTD/svg10.dtd">
<svg version="1.0" xmlns="http://www.w3.org/2000/svg"
 width="134.000000pt" height="166.000000pt" viewBox="0 0 134.000000 166.000000"
 preserveAspectRatio="xMidYMid meet">
<metadata>
Created by potrace 1.16, written by Peter Selinger 2001-2019
</metadata>
<g transform="translate(0.000000,166.000000) scale(0.100000,-0.100000)"
fill="#000000" stroke="none">
<path d="M843 1644 c-4 -12 11 -33 55 -76 34 -33 62 -61 62 -63 0 -2 -91 -2
-202 1 -239 5 -279 -3 -352 -67 -63 -56 -88 -106 -84 -172 3 -45 6 -52 26 -55
20 -3 22 1 22 37 0 53 15 89 53 130 62 65 87 71 327 70 l215 0 -63 -57 c-63
-58 -76 -85 -45 -96 12 -5 42 18 110 86 51 51 93 95 93 99 0 14 -172 174 -191
177 -11 2 -22 -4 -26 -14z"/>
<path d="M333 1056 c-172 -45 -317 -86 -323 -92 -7 -7 -9 -139 -8 -384 l3
-373 315 -99 c173 -55 331 -100 350 -100 29 -2 573 160 648 192 l22 10 0 374
c0 255 -3 377 -11 381 -6 4 -67 22 -137 40 -70 18 -214 56 -319 84 -106 28
-201 51 -210 50 -10 -1 -159 -38 -330 -83z m611 -43 c173 -45 252 -70 240 -74
-11 -5 -130 -42 -266 -83 l-247 -75 -193 59 c-106 32 -226 68 -266 80 -41 12
-72 23 -69 26 7 8 491 133 517 134 14 0 141 -30 284 -67z m-524 -213 l225 -67
3 -332 c2 -247 -1 -331 -9 -331 -7 0 -114 32 -238 71 -124 39 -252 79 -283 87
l-58 16 0 332 0 332 68 -20 c37 -12 168 -51 292 -88z m870 -222 l0 -333 -158
-48 c-86 -26 -219 -67 -294 -91 l-138 -44 0 336 0 337 283 87 c155 47 288 87
295 87 9 1 12 -72 12 -331z"/>
</g>
</svg>
