<?xml version="1.0" standalone="no"?>
<!DOCTYPE svg PUBLIC "-//W3C//DTD SVG 20010904//EN"
 "http://www.w3.org/TR/2001/REC-SVG-20010904/DTD/svg10.dtd">
<svg version="1.0" xmlns="http://www.w3.org/2000/svg"
 width="126.000000pt" height="207.000000pt" viewBox="0 0 126.000000 207.000000"
 preserveAspectRatio="xMidYMid meet">
<metadata>
Created by potrace 1.16, written by Peter Selinger 2001-2019
</metadata>
<g transform="translate(0.000000,207.000000) scale(0.100000,-0.100000)"
fill="#000000" stroke="none">
<path d="M475 2063 c-34 -9 -63 -33 -79 -68 -13 -26 -16 -69 -16 -209 l0 -176
-107 0 c-83 0 -117 -5 -149 -19 -49 -22 -112 -93 -119 -135 -3 -17 -5 -295 -3
-617 l3 -585 27 -41 c18 -27 44 -49 77 -64 45 -21 50 -28 51 -56 0 -19 10 -44
26 -62 23 -28 31 -31 84 -31 53 0 61 3 84 31 16 19 26 43 26 63 l0 33 252 -1
253 -1 6 -38 c9 -58 43 -87 101 -87 27 0 58 5 69 10 24 13 49 61 49 93 0 18 8
28 29 36 36 16 97 78 110 114 7 19 11 224 11 610 0 545 -2 585 -19 622 -43 92
-108 125 -251 125 l-100 0 0 183 c0 165 -2 185 -20 215 -32 53 -69 62 -232 61
-79 -1 -152 -4 -163 -6z m350 -68 c25 -24 25 -26 25 -205 l0 -180 -215 0 -215
0 0 170 c0 173 8 220 42 233 7 3 86 6 176 6 160 1 163 1 187 -24z m294 -443
c19 -9 48 -34 65 -55 l31 -39 3 -576 c1 -318 0 -587 -3 -599 -3 -12 -17 -35
-31 -53 -54 -63 -39 -62 -555 -60 -259 0 -480 5 -492 10 -34 14 -63 42 -81 77
-14 28 -16 99 -16 608 0 476 2 581 14 603 18 35 64 78 96 91 15 6 203 10 480
10 414 1 458 -1 489 -17z m-781 -1446 c2 -9 -4 -28 -13 -42 -14 -21 -23 -25
-58 -22 -32 2 -44 9 -56 29 -25 45 -11 57 61 54 50 -2 64 -6 66 -19z m730 1
c2 -10 -4 -29 -12 -42 -13 -19 -25 -25 -53 -25 -45 0 -73 24 -73 61 l0 28 67
-2 c56 -2 68 -5 71 -20z"/>
<path d="M335 1267 c-3 -6 -4 -192 -3 -412 3 -348 5 -400 18 -400 13 0 15 53
18 406 2 360 0 407 -13 413 -9 3 -18 0 -20 -7z"/>
<path d="M622 1271 c-9 -6 -12 -101 -10 -412 3 -396 3 -404 23 -404 20 0 20 7
21 402 2 408 0 435 -34 414z"/>
<path d="M912 1271 c-9 -6 -12 -96 -10 -412 3 -351 5 -404 18 -404 13 0 15 53
18 404 1 223 -1 408 -5 412 -5 5 -14 5 -21 0z"/>
</g>
</svg>
