<?xml version="1.0" standalone="no"?>
<!DOCTYPE svg PUBLIC "-//W3C//DTD SVG 20010904//EN"
 "http://www.w3.org/TR/2001/REC-SVG-20010904/DTD/svg10.dtd">
<svg version="1.0" xmlns="http://www.w3.org/2000/svg"
 width="267.000000pt" height="201.000000pt" viewBox="0 0 267.000000 201.000000"
 preserveAspectRatio="xMidYMid meet">
<metadata>
Created by potrace 1.16, written by Peter Selinger 2001-2019
</metadata>
<g transform="translate(0.000000,201.000000) scale(0.100000,-0.100000)"
fill="#000000" stroke="none">
<path d="M560 1999 c-215 -19 -395 -177 -439 -387 -42 -204 56 -410 235 -494
l66 -31 -55 -17 c-105 -33 -214 -114 -278 -206 -99 -145 -113 -368 -32 -536
42 -88 148 -197 238 -245 194 -102 465 -102 650 2 183 102 285 272 285 473 0
48 -5 107 -11 132 -38 165 -183 322 -351 379 l-52 18 57 26 c244 111 324 439
165 677 -101 152 -272 226 -478 209z m175 -73 c254 -68 385 -318 294 -561 -31
-82 -121 -173 -202 -204 -127 -47 -287 -47 -414 1 -71 26 -160 109 -198 185
-28 54 -30 66 -30 168 0 103 2 114 31 176 54 114 143 192 262 230 68 22 187
24 257 5z m55 -900 c192 -53 332 -191 369 -364 45 -215 -61 -431 -260 -529
-101 -50 -185 -66 -314 -60 -171 8 -291 60 -395 174 -85 93 -120 186 -120 317
0 143 43 248 136 337 64 59 173 114 270 134 82 17 232 13 314 -9z"/>
<path d="M1944 1995 c-183 -40 -332 -184 -408 -394 -118 -328 -105 -956 27
-1253 101 -228 293 -350 527 -335 142 10 249 57 345 152 146 146 221 397 232
775 19 623 -152 981 -502 1055 -84 18 -140 18 -221 0z m231 -70 c223 -59 359
-255 411 -596 26 -169 24 -514 -4 -669 -54 -298 -148 -456 -321 -539 -75 -35
-78 -36 -201 -36 -120 0 -128 1 -192 32 -93 44 -141 85 -197 168 -92 139 -140
350 -148 666 -9 322 24 537 109 709 68 139 185 238 315 269 60 14 164 12 228
-4z"/>
</g>
</svg>
