<?xml version="1.0" standalone="no"?>
<!DOCTYPE svg PUBLIC "-//W3C//DTD SVG 20010904//EN"
 "http://www.w3.org/TR/2001/REC-SVG-20010904/DTD/svg10.dtd">
<svg version="1.0" xmlns="http://www.w3.org/2000/svg"
 width="204.000000pt" height="204.000000pt" viewBox="0 0 204.000000 204.000000"
 preserveAspectRatio="xMidYMid meet">
<metadata>
Created by potrace 1.16, written by Peter Selinger 2001-2019
</metadata>
<g transform="translate(0.000000,204.000000) scale(0.100000,-0.100000)"
fill="#000000" stroke="none">
<path d="M833 2025 c-365 -66 -654 -311 -778 -658 -48 -136 -58 -210 -53 -383
5 -122 10 -165 32 -239 106 -356 350 -600 712 -712 83 -25 102 -27 269 -27
196 -1 236 6 383 65 266 106 480 330 578 605 240 671 -257 1369 -970 1363 -55
0 -133 -7 -173 -14z m437 -60 c354 -97 608 -361 702 -728 25 -97 29 -296 9
-392 -79 -379 -334 -660 -698 -772 -81 -25 -101 -27 -263 -27 -163 0 -181 2
-265 28 -344 105 -579 341 -681 683 -36 118 -45 329 -20 452 72 353 315 631
649 741 177 58 391 64 567 15z"/>
<path d="M534 1256 c-4 -9 -4 -19 -1 -22 2 -3 47 -9 98 -14 52 -6 104 -12 117
-15 15 -4 24 0 29 11 8 23 -10 31 -86 38 -36 4 -85 9 -108 13 -34 4 -44 2 -49
-11z"/>
<path d="M1353 1256 c-77 -12 -103 -26 -81 -43 12 -10 38 -8 188 15 30 5 45
12 45 22 0 19 -56 22 -152 6z"/>
<path d="M635 1108 c-49 -26 -58 -69 -24 -112 26 -33 79 -36 109 -6 30 30 27
83 -6 109 -30 23 -49 26 -79 9z"/>
<path d="M1334 1097 c-55 -48 -25 -127 47 -127 29 0 42 6 58 26 28 36 26 60
-8 95 -36 35 -61 37 -97 6z"/>
<path d="M881 684 c-71 -19 -143 -59 -203 -112 -44 -40 -61 -72 -39 -72 5 0
43 25 83 55 89 67 160 95 258 102 131 9 237 -25 343 -111 51 -42 77 -51 77
-26 0 17 -86 90 -141 120 -110 58 -259 76 -378 44z"/>
</g>
</svg>
