<?xml version="1.0" standalone="no"?>
<!DOCTYPE svg PUBLIC "-//W3C//DTD SVG 20010904//EN"
 "http://www.w3.org/TR/2001/REC-SVG-20010904/DTD/svg10.dtd">
<svg version="1.0" xmlns="http://www.w3.org/2000/svg"
 width="177.000000pt" height="169.000000pt" viewBox="0 0 177.000000 169.000000"
 preserveAspectRatio="xMidYMid meet">
<metadata>
Created by potrace 1.16, written by Peter Selinger 2001-2019
</metadata>
<g transform="translate(0.000000,169.000000) scale(0.100000,-0.100000)"
fill="#000000" stroke="none">
<path d="M1140 1438 c-391 -405 -390 -404 -390 -427 0 -13 22 -45 51 -76 60
-63 71 -109 42 -164 -37 -70 -56 -76 -226 -74 l-152 2 -233 -232 c-127 -127
-232 -237 -232 -243 0 -42 44 -8 258 202 l230 224 154 0 154 0 74 -75 75 -75
-234 -234 c-168 -168 -232 -239 -228 -250 4 -9 12 -16 19 -16 7 0 117 105 245
232 l233 233 120 -120 c114 -113 121 -119 137 -102 17 16 11 23 -102 137
l-120 120 375 375 c206 206 376 381 378 388 2 8 -3 17 -11 20 -12 4 -101 -81
-640 -612 l-137 -136 -72 72 -72 72 21 23 c28 30 53 89 53 127 0 47 -18 83
-68 134 l-46 47 60 63 c386 398 565 590 561 600 -2 6 -10 13 -19 15 -8 2 -117
-104 -258 -250z"/>
<path d="M90 1464 c-12 -13 -2 -27 66 -97 278 -288 277 -287 290 -252 4 10
-49 73 -161 190 -92 96 -171 175 -175 175 -4 0 -13 -7 -20 -16z"/>
<path d="M33 934 c-3 -8 -2 -19 3 -24 11 -11 301 -43 314 -35 14 9 12 35 -2
40 -12 4 -276 35 -299 35 -5 0 -12 -7 -16 -16z"/>
</g>
</svg>
