<?xml version="1.0" standalone="no"?>
<!DOCTYPE svg PUBLIC "-//W3C//DTD SVG 20010904//EN"
 "http://www.w3.org/TR/2001/REC-SVG-20010904/DTD/svg10.dtd">
<svg version="1.0" xmlns="http://www.w3.org/2000/svg"
 width="169.000000pt" height="199.000000pt" viewBox="0 0 169.000000 199.000000"
 preserveAspectRatio="xMidYMid meet">
<metadata>
Created by potrace 1.16, written by Peter Selinger 2001-2019
</metadata>
<g transform="translate(0.000000,199.000000) scale(0.100000,-0.100000)"
fill="#000000" stroke="none">
<path d="M90 1967 c-30 -16 -51 -37 -67 -67 l-24 -44 3 -866 c3 -967 -2 -898
75 -957 l36 -28 725 -3 725 -2 42 25 c29 17 50 39 64 68 21 44 21 46 19 913
l-3 869 -24 38 c-12 21 -40 46 -62 57 -37 19 -62 20 -752 20 l-714 0 -43 -23z
m1480 -32 c15 -8 38 -27 49 -41 21 -27 21 -30 21 -900 l0 -874 -34 -38 -34
-37 -714 -3 c-701 -2 -714 -2 -746 18 -18 11 -39 35 -46 53 -11 25 -15 216
-20 877 -7 944 -11 888 63 937 l34 23 699 0 c598 0 703 -2 728 -15z"/>
<path d="M615 1543 c-301 -3 -344 -8 -318 -34 15 -15 1073 -13 1088 2 7 7 4
15 -9 25 -16 11 -61 14 -235 12 -119 -2 -355 -4 -526 -5z"/>
<path d="M478 1162 c-170 -2 -178 -3 -178 -22 0 -20 9 -20 539 -20 552 0 583
2 535 37 -19 14 -260 15 -896 5z"/>
<path d="M308 779 c-10 -5 -15 -16 -12 -24 5 -13 79 -15 539 -15 430 0 535 3
544 13 28 35 -1 37 -534 37 -326 0 -526 -4 -537 -11z"/>
<path d="M303 394 c-3 -8 -1 -20 5 -26 12 -12 830 -7 850 6 10 6 10 11 1 22
-9 12 -82 14 -431 14 -371 0 -419 -2 -425 -16z"/>
</g>
</svg>
