<?xml version="1.0" standalone="no"?>
<!DOCTYPE svg PUBLIC "-//W3C//DTD SVG 20010904//EN"
 "http://www.w3.org/TR/2001/REC-SVG-20010904/DTD/svg10.dtd">
<svg version="1.0" xmlns="http://www.w3.org/2000/svg"
 width="203.000000pt" height="62.000000pt" viewBox="0 0 203.000000 62.000000"
 preserveAspectRatio="xMidYMid meet">
<metadata>
Created by potrace 1.16, written by Peter Selinger 2001-2019
</metadata>
<g transform="translate(0.000000,62.000000) scale(0.100000,-0.100000)"
fill="#000000" stroke="none">
<path d="M1683 604 c-5 -14 23 -46 121 -141 l128 -123 -962 0 c-848 0 -961 -2
-966 -15 -4 -8 -1 -22 6 -30 11 -13 134 -15 964 -15 l951 -1 -124 -118 c-88
-84 -122 -123 -119 -137 9 -48 42 -26 196 129 83 84 152 158 152 164 0 17
-299 298 -321 301 -11 2 -22 -4 -26 -14z"/>
</g>
</svg>
