<?xml version="1.0" standalone="no"?>
<!DOCTYPE svg PUBLIC "-//W3C//DTD SVG 20010904//EN"
 "http://www.w3.org/TR/2001/REC-SVG-20010904/DTD/svg10.dtd">
<svg version="1.0" xmlns="http://www.w3.org/2000/svg"
 width="148.000000pt" height="234.000000pt" viewBox="0 0 148.000000 234.000000"
 preserveAspectRatio="xMidYMid meet">
<metadata>
Created by potrace 1.16, written by Peter Selinger 2001-2019
</metadata>
<g transform="translate(0.000000,234.000000) scale(0.100000,-0.100000)"
fill="#000000" stroke="none">
<path d="M592 2324 c-216 -58 -369 -247 -389 -480 l-6 -74 -41 -19 c-103 -45
-156 -125 -156 -234 0 -137 74 -223 226 -262 10 -3 100 -250 274 -755 144
-416 185 -500 242 -500 42 0 76 49 129 184 51 129 281 787 343 979 27 84 34
98 56 103 128 28 210 126 210 251 0 35 -6 79 -14 97 -22 53 -81 112 -136 135
-49 21 -50 23 -50 64 0 23 -7 71 -15 106 -47 198 -197 358 -380 406 -73 19
-222 19 -293 -1z m260 -35 c133 -28 264 -132 326 -259 34 -70 62 -179 62 -247
0 -42 0 -42 68 -75 82 -40 122 -92 130 -166 20 -210 -235 -311 -423 -168 l-30
23 -40 -33 c-44 -39 -145 -74 -210 -74 -59 0 -155 31 -199 65 -33 25 -38 26
-54 13 -32 -29 -104 -59 -159 -68 -149 -25 -269 63 -280 202 -4 53 -1 70 19
108 28 51 89 99 139 109 l34 7 7 86 c15 173 86 309 210 401 43 32 136 70 198
80 52 9 151 7 202 -4z m158 -963 c6 -8 30 -22 53 -31 l42 -16 -115 -119 -115
-120 -103 103 -103 102 83 6 c84 6 193 43 219 75 15 18 24 18 39 0z m-459 -33
c27 -14 49 -30 49 -34 0 -9 -240 -223 -244 -218 -1 2 -19 50 -39 106 l-36 101
49 7 c26 4 74 19 107 35 32 16 60 29 62 29 2 1 25 -11 52 -26z m646 -47 c-2
-6 -33 -95 -68 -198 -35 -104 -66 -188 -69 -188 -3 0 -39 33 -79 74 l-74 74
118 126 c65 69 123 127 129 129 19 6 47 -5 43 -17z m-457 -131 l105 -105 -109
-109 -109 -109 -91 83 c-50 46 -104 94 -121 108 l-29 25 34 28 c19 16 73 64
120 106 47 42 87 77 90 78 3 0 52 -47 110 -105z m308 -301 c1 0 -10 -34 -25
-75 -24 -63 -38 -84 -91 -134 l-63 -59 -107 107 -107 107 110 110 109 109 86
-82 c47 -45 86 -82 88 -83z m-507 -98 c-28 -27 -52 -48 -54 -46 -2 3 -23 61
-47 130 -24 69 -45 132 -48 140 -3 8 40 -27 97 -79 l102 -94 -50 -51z m192
-94 l108 -108 -98 -90 c-54 -49 -105 -95 -115 -102 -14 -12 -21 3 -68 144
l-52 156 53 54 c29 30 56 54 59 54 3 0 54 -49 113 -108z m219 -95 c-17 -44
-19 -46 -35 -30 -16 16 -15 19 15 50 17 18 33 31 35 30 1 -2 -5 -24 -15 -50z
m-35 -93 c4 -1 -112 -305 -127 -334 -16 -32 -41 -60 -52 -60 -11 0 -96 177
-100 208 -2 16 26 47 112 125 l115 105 25 -22 c14 -11 26 -21 27 -22z"/>
</g>
</svg>
