<?xml version="1.0" standalone="no"?>
<!DOCTYPE svg PUBLIC "-//W3C//DTD SVG 20010904//EN"
 "http://www.w3.org/TR/2001/REC-SVG-20010904/DTD/svg10.dtd">
<svg version="1.0" xmlns="http://www.w3.org/2000/svg"
 width="185.000000pt" height="158.000000pt" viewBox="0 0 185.000000 158.000000"
 preserveAspectRatio="xMidYMid meet">
<metadata>
Created by potrace 1.16, written by Peter Selinger 2001-2019
</metadata>
<g transform="translate(0.000000,158.000000) scale(0.100000,-0.100000)"
fill="#000000" stroke="none">
<path d="M1083 1555 c-68 -31 -146 -104 -176 -166 -18 -34 -122 -148 -358
-389 -184 -188 -336 -345 -337 -351 -2 -5 2 -16 8 -24 11 -13 63 -15 329 -15
l316 0 -3 -75 -4 -75 -423 0 c-278 0 -426 -4 -430 -10 -8 -13 50 -117 108
-196 82 -110 163 -180 264 -227 47 -22 55 -22 547 -25 322 -2 517 1 549 8 115
24 227 105 296 214 42 67 81 168 81 211 l0 25 -470 0 -471 0 3 423 c3 407 4
424 24 468 30 64 88 126 148 156 40 21 71 28 146 32 80 5 95 9 98 24 3 15 -7
17 -95 17 -83 0 -106 -4 -150 -25z m-221 -597 l-3 -298 -290 0 -291 0 293 300
c161 165 293 299 293 298 1 -2 0 -137 -2 -300z m934 -570 c-21 -108 -135 -251
-242 -304 l-59 -29 -535 0 -535 0 -56 28 c-97 47 -233 191 -298 315 l-12 22
872 0 872 0 -7 -32z"/>
</g>
</svg>
