<?xml version="1.0" standalone="no"?>
<!DOCTYPE svg PUBLIC "-//W3C//DTD SVG 20010904//EN"
 "http://www.w3.org/TR/2001/REC-SVG-20010904/DTD/svg10.dtd">
<svg version="1.0" xmlns="http://www.w3.org/2000/svg"
 width="228.000000pt" height="240.000000pt" viewBox="0 0 228.000000 240.000000"
 preserveAspectRatio="xMidYMid meet">
<metadata>
Created by potrace 1.16, written by Peter Selinger 2001-2019
</metadata>
<g transform="translate(0.000000,240.000000) scale(0.100000,-0.100000)"
fill="#000000" stroke="none">
<path d="M991 2385 c-168 -47 -300 -186 -346 -365 -13 -48 -16 -91 -13 -163
l5 -99 -26 -10 c-41 -15 -59 -37 -66 -78 -16 -97 40 -216 118 -249 39 -17 43
-22 61 -85 10 -36 32 -87 48 -112 27 -43 28 -50 22 -119 l-7 -73 -71 -70 c-62
-61 -79 -71 -136 -87 -95 -25 -248 -83 -305 -115 -111 -63 -195 -163 -228
-271 -12 -42 -47 -388 -47 -472 0 -20 29 -23 35 -4 2 6 11 105 20 220 9 115
23 226 31 249 37 106 117 196 225 253 68 36 294 115 327 115 12 0 64 -63 146
-175 71 -96 130 -175 132 -175 2 0 24 14 49 32 24 17 46 30 48 27 2 -2 12 -26
23 -54 l20 -50 -43 -200 c-23 -110 -43 -212 -43 -227 0 -34 27 -38 35 -5 2 12
21 101 40 197 20 96 39 185 42 197 4 20 12 23 53 23 l48 0 11 -47 c6 -27 27
-124 46 -217 20 -94 37 -172 40 -174 11 -11 36 9 31 25 -2 10 -24 109 -47 220
l-43 203 18 55 c9 30 19 55 22 55 3 0 26 -14 51 -31 l46 -32 18 24 c10 13 69
92 131 176 80 107 119 152 133 153 30 0 245 -75 313 -109 91 -46 175 -129 218
-215 34 -69 36 -81 49 -247 8 -96 15 -196 15 -222 0 -34 5 -49 15 -54 9 -3 19
-3 22 0 10 11 -17 388 -33 451 -21 85 -60 153 -129 221 -74 74 -160 118 -351
181 -137 45 -140 46 -206 111 l-67 66 -6 71 c-7 69 -6 73 29 130 20 33 41 86
48 118 10 50 15 58 39 63 37 8 105 84 118 131 6 22 11 64 11 95 0 62 -22 102
-62 112 -22 6 -23 9 -20 102 4 116 -8 177 -53 271 -47 98 -129 180 -230 230
-75 37 -81 38 -199 41 -85 2 -137 -2 -175 -12z m304 -42 c141 -45 252 -165
299 -322 23 -77 23 -256 0 -265 -21 -8 -18 -12 -33 55 -14 67 -66 145 -133
202 l-48 40 -69 -32 c-103 -48 -192 -63 -351 -59 -113 2 -140 0 -167 -15 -40
-21 -72 -81 -80 -148 -12 -100 -43 -39 -43 84 1 141 37 239 124 334 121 133
322 183 501 126z m200 -468 c47 -79 41 -181 -7 -120 -27 35 -80 49 -161 42
-58 -5 -75 -11 -99 -34 -24 -23 -38 -27 -89 -29 -50 -1 -61 2 -70 18 -16 29
-70 48 -138 48 -72 0 -109 -12 -137 -46 -12 -15 -26 -22 -36 -19 -30 12 5 140
48 176 13 11 46 13 148 11 157 -3 271 14 359 56 l62 30 48 -47 c27 -25 59 -64
72 -86z m-471 -136 c35 -27 37 -101 4 -136 -19 -20 -31 -23 -97 -23 -96 0
-121 19 -121 90 0 70 25 88 126 89 48 1 67 -4 88 -20z m429 -7 c25 -22 24
-105 -3 -132 -17 -17 -33 -20 -99 -20 -74 0 -81 2 -100 26 -25 32 -28 90 -6
121 12 18 27 23 73 25 77 4 114 -1 135 -20z m-709 -33 c19 -9 26 -20 26 -41 0
-37 23 -82 52 -102 31 -22 185 -22 216 0 28 19 52 65 52 98 0 32 31 50 71 41
24 -6 29 -12 29 -36 0 -17 7 -43 15 -59 26 -50 50 -60 148 -60 88 0 89 0 123
34 28 28 34 42 34 75 0 47 14 58 84 67 34 5 52 2 71 -10 22 -14 25 -23 25 -74
-1 -95 -45 -167 -111 -181 -30 -6 -33 -11 -51 -75 -37 -135 -86 -199 -195
-253 -76 -37 -79 -38 -193 -38 -114 0 -117 1 -193 38 -109 54 -170 137 -203
274 -9 37 -22 53 -45 53 -31 0 -86 57 -103 107 -26 76 -16 146 21 156 26 8 96
0 127 -14z m255 -639 c126 -39 285 -19 394 50 26 16 50 30 52 30 3 0 5 -26 5
-57 l0 -58 -157 -157 -158 -158 -152 152 -153 153 0 56 c0 30 3 58 6 62 3 3
27 -8 52 -24 26 -16 76 -39 111 -49z m-19 -244 c73 -74 132 -137 130 -139 -6
-5 -158 -108 -176 -119 -7 -5 -53 50 -128 152 -64 87 -116 161 -116 165 0 3
23 31 51 60 l52 55 26 -20 c14 -10 87 -80 161 -154z m562 117 l57 -58 -120
-160 c-66 -88 -125 -159 -131 -157 -6 2 -52 31 -101 65 l-90 62 159 153 c87
83 161 152 164 152 3 0 31 -26 62 -57z m-356 -314 c48 -33 48 -33 18 -106 -12
-31 -16 -33 -66 -33 l-53 0 -18 49 c-9 27 -17 51 -17 54 0 5 80 65 88 67 2 0
24 -14 48 -31z"/>
</g>
</svg>
