<?xml version="1.0" standalone="no"?>
<!DOCTYPE svg PUBLIC "-//W3C//DTD SVG 20010904//EN"
 "http://www.w3.org/TR/2001/REC-SVG-20010904/DTD/svg10.dtd">
<svg version="1.0" xmlns="http://www.w3.org/2000/svg"
 width="183.000000pt" height="195.000000pt" viewBox="0 0 183.000000 195.000000"
 preserveAspectRatio="xMidYMid meet">
<metadata>
Created by potrace 1.16, written by Peter Selinger 2001-2019
</metadata>
<g transform="translate(0.000000,195.000000) scale(0.100000,-0.100000)"
fill="#000000" stroke="none">
<path d="M810 1943 c-27 -5 -50 -21 -50 -34 0 -4 40 -35 89 -69 81 -55 179
-146 169 -155 -2 -3 -26 2 -53 10 -147 45 -329 -12 -413 -128 -29 -41 -72
-149 -72 -182 0 -30 29 -26 102 14 99 54 206 81 324 81 51 0 115 -5 142 -11
l49 -10 -48 -80 c-96 -161 -169 -469 -169 -719 l0 -70 -32 0 c-48 0 -187 -35
-251 -64 -78 -34 -168 -98 -233 -163 -64 -65 -146 -194 -165 -259 -12 -41 -16
-44 -39 -39 -14 3 -51 22 -83 42 -40 24 -62 32 -69 25 -17 -17 1 -51 41 -78
50 -32 93 -44 164 -45 49 -1 73 7 149 43 80 37 100 43 157 42 58 0 76 -5 151
-45 85 -44 85 -44 190 -44 77 0 113 4 135 16 17 9 50 27 75 40 73 39 154 34
255 -16 74 -36 86 -39 165 -40 82 0 89 2 180 48 56 27 108 47 128 47 25 0 32
4 32 20 0 46 -66 46 -149 -2 -18 -10 -34 -18 -35 -16 -1 2 -12 26 -25 53 -103
222 -315 372 -597 422 l-94 17 0 77 c0 210 116 641 202 753 14 18 16 18 69
-10 71 -38 176 -138 217 -207 18 -30 48 -90 67 -132 18 -43 38 -82 43 -87 17
-17 56 34 76 99 56 176 -9 340 -170 424 l-39 20 173 -6 c156 -5 173 -4 179 12
9 22 -104 128 -173 163 -93 46 -216 38 -309 -21 l-44 -28 -11 54 c-21 101
-110 197 -208 225 -44 13 -157 21 -192 13z m205 -77 c86 -39 142 -126 152
-234 9 -86 17 -90 75 -37 65 62 118 85 196 85 74 0 111 -14 170 -64 l44 -36
-141 0 c-144 0 -229 -11 -268 -36 -42 -26 -28 -41 43 -47 82 -6 181 -53 224
-105 57 -69 74 -197 39 -290 -10 -26 -11 -25 -33 28 -65 160 -194 292 -351
357 -83 35 -165 46 -298 41 -117 -5 -202 -25 -310 -73 -18 -7 -18 -6 1 32 11
21 40 57 64 80 121 111 353 118 441 14 16 -20 33 -31 42 -27 12 4 12 12 -1 58
-27 92 -83 164 -194 250 l-35 28 45 0 c26 0 66 -10 95 -24z m130 -1377 c187
-62 317 -168 416 -337 21 -36 39 -70 39 -74 0 -14 -85 -30 -129 -24 -24 3 -80
23 -125 43 -75 35 -88 38 -171 38 -84 0 -94 -2 -140 -31 -113 -71 -205 -72
-343 -3 -83 42 -91 44 -177 44 -85 0 -94 -2 -155 -36 -36 -20 -78 -39 -93 -43
-26 -6 -28 -5 -22 16 4 13 24 55 43 93 44 84 168 213 254 263 175 103 392 121
603 51z"/>
</g>
</svg>
