<?xml version="1.0" standalone="no"?>
<!DOCTYPE svg PUBLIC "-//W3C//DTD SVG 20010904//EN"
 "http://www.w3.org/TR/2001/REC-SVG-20010904/DTD/svg10.dtd">
<svg version="1.0" xmlns="http://www.w3.org/2000/svg"
 width="232.000000pt" height="234.000000pt" viewBox="0 0 232.000000 234.000000"
 preserveAspectRatio="xMidYMid meet">
<metadata>
Created by potrace 1.16, written by Peter Selinger 2001-2019
</metadata>
<g transform="translate(0.000000,234.000000) scale(0.100000,-0.100000)"
fill="#000000" stroke="none">
<path d="M1033 2326 c-61 -20 -106 -51 -157 -107 -61 -68 -87 -140 -87 -243 0
-126 36 -213 121 -290 74 -67 118 -81 250 -81 113 0 116 1 180 36 78 43 139
113 170 196 30 79 25 224 -9 296 -35 70 -104 142 -169 174 -49 24 -71 28 -157
30 -64 2 -115 -2 -142 -11z m243 -63 c67 -23 154 -110 177 -177 27 -80 23
-179 -12 -251 -57 -122 -164 -182 -305 -173 -89 6 -158 39 -214 103 -99 113
-99 297 -1 409 42 47 92 83 137 96 48 15 166 11 218 -7z"/>
<path d="M109 1761 c-80 -25 -113 -80 -107 -178 5 -81 31 -110 147 -158 97
-41 342 -119 505 -161 l109 -28 -6 -235 c-5 -228 -7 -246 -56 -521 -28 -157
-51 -302 -51 -323 0 -86 66 -149 165 -155 76 -5 133 20 169 76 23 35 69 192
137 465 17 71 35 125 39 120 4 -4 15 -46 25 -93 39 -178 123 -473 142 -498 96
-130 333 -70 333 83 0 22 -23 164 -51 315 -51 273 -52 277 -56 521 l-5 245
123 34 c204 54 443 136 519 176 112 59 152 138 112 225 -29 66 -62 92 -124 97
-45 3 -81 -5 -233 -56 -302 -101 -510 -137 -805 -136 -287 0 -470 32 -798 138
-176 57 -189 60 -233 47z m212 -105 c446 -148 817 -179 1249 -105 154 27 247
51 420 110 167 56 197 60 233 24 60 -60 37 -131 -58 -182 -68 -37 -330 -126
-515 -174 -68 -18 -132 -41 -142 -51 -16 -16 -18 -40 -18 -225 0 -247 7 -312
65 -633 25 -134 45 -255 45 -268 0 -14 -14 -38 -34 -58 -30 -30 -40 -34 -84
-34 -40 0 -57 6 -81 26 -36 30 -38 38 -126 377 -33 130 -69 246 -78 257 -21
25 -59 26 -80 2 -9 -10 -39 -103 -66 -208 -96 -363 -107 -396 -140 -426 -26
-23 -41 -28 -82 -28 -45 0 -55 4 -85 34 -21 21 -34 44 -34 60 0 14 20 140 45
279 58 329 65 394 65 628 0 237 9 222 -165 267 -272 70 -524 159 -568 201 -26
23 -28 31 -25 78 5 59 26 90 67 96 14 2 27 5 27 6 1 0 76 -23 165 -53z"/>
</g>
</svg>
