<?xml version="1.0" standalone="no"?>
<!DOCTYPE svg PUBLIC "-//W3C//DTD SVG 20010904//EN"
 "http://www.w3.org/TR/2001/REC-SVG-20010904/DTD/svg10.dtd">
<svg version="1.0" xmlns="http://www.w3.org/2000/svg"
 width="170.000000pt" height="284.000000pt" viewBox="0 0 170.000000 284.000000"
 preserveAspectRatio="xMidYMid meet">
<metadata>
Created by potrace 1.16, written by Peter Selinger 2001-2019
</metadata>
<g transform="translate(0.000000,284.000000) scale(0.100000,-0.100000)"
fill="#000000" stroke="none">
<path d="M160 2825 c-59 -19 -113 -65 -139 -118 -21 -43 -21 -46 -21 -1283 0
-1396 -6 -1280 78 -1356 77 -70 71 -69 793 -66 l644 3 54 30 c29 16 64 43 77
60 56 74 54 14 54 1322 0 845 -3 1217 -11 1248 -14 54 -67 118 -123 148 l-41
22 -660 2 c-545 2 -668 -1 -705 -12z m1376 -67 c43 -24 81 -71 94 -117 7 -26
9 -373 8 -1032 l-3 -994 -787 -3 -788 -2 0 1016 c0 921 2 1019 16 1051 18 37
62 75 109 91 20 7 239 10 675 9 588 -2 648 -4 676 -19z m102 -2386 c-3 -175
-3 -179 -31 -220 -15 -23 -46 -52 -70 -64 l-42 -23 -640 0 c-352 0 -652 3
-667 8 -38 10 -98 65 -114 104 -10 23 -14 82 -14 203 l0 170 791 0 791 0 -4
-178z"/>
<path d="M791 396 c-48 -26 -64 -91 -37 -145 17 -31 54 -51 97 -51 43 0 99 56
99 99 0 39 -24 87 -49 101 -27 14 -81 12 -110 -4z m96 -62 c15 -24 15 -29 2
-53 -18 -32 -54 -39 -80 -15 -23 21 -24 42 -3 72 21 30 59 29 81 -4z"/>
</g>
</svg>
