<?xml version="1.0" standalone="no"?>
<!DOCTYPE svg PUBLIC "-//W3C//DTD SVG 20010904//EN"
 "http://www.w3.org/TR/2001/REC-SVG-20010904/DTD/svg10.dtd">
<svg version="1.0" xmlns="http://www.w3.org/2000/svg"
 width="171.000000pt" height="188.000000pt" viewBox="0 0 171.000000 188.000000"
 preserveAspectRatio="xMidYMid meet">
<metadata>
Created by potrace 1.16, written by Peter Selinger 2001-2019
</metadata>
<g transform="translate(0.000000,188.000000) scale(0.100000,-0.100000)"
fill="#000000" stroke="none">
<path d="M815 1844 c-57 -70 -75 -107 -75 -152 0 -54 23 -95 67 -119 27 -14
33 -24 33 -50 0 -30 -3 -32 -37 -35 l-38 -3 -3 -152 -3 -153 -184 0 -185 0
-38 -34 -37 -34 -3 -211 -3 -211 -45 0 c-61 0 -110 -22 -134 -62 -19 -31 -20
-50 -20 -310 l0 -277 -52 -3 c-39 -2 -53 -7 -53 -18 0 -13 103 -15 853 -18
809 -2 853 -1 850 15 -2 14 -15 19 -50 21 l-47 3 -3 282 c-3 264 -4 284 -23
309 -27 37 -74 58 -128 58 l-45 0 -4 198 c-4 217 -9 239 -63 272 -29 18 -51
20 -213 20 l-181 0 -3 153 -3 152 -32 3 c-30 3 -33 6 -33 36 0 27 6 35 35 49
47 22 70 61 70 117 0 40 -7 56 -50 116 -28 38 -60 70 -70 72 -13 2 -31 -11
-50 -34z m76 -47 c64 -80 71 -138 21 -177 -28 -23 -54 -25 -85 -8 -60 32 -63
93 -9 167 20 28 39 51 42 51 3 0 17 -15 31 -33z m17 -479 l-3 -133 -48 0 -48
0 0 128 c0 70 0 129 1 132 0 3 23 5 50 5 l51 0 -3 -132z m421 -204 c30 -25 31
-28 31 -110 0 -76 -2 -87 -24 -109 -51 -51 -123 -50 -221 3 -56 31 -101 28
-160 -9 -73 -46 -105 -48 -168 -9 -75 47 -112 49 -189 12 -101 -49 -155 -47
-209 7 -38 38 -39 40 -39 111 0 66 2 74 29 101 l29 29 445 0 445 0 31 -26z
m-573 -266 c70 -46 139 -46 210 0 63 40 84 40 154 2 71 -38 172 -42 214 -9
l26 20 0 -85 0 -86 -505 0 -505 0 0 85 c0 47 2 85 4 85 3 0 21 -10 41 -21 54
-32 130 -29 208 10 34 17 71 30 83 31 11 0 42 -15 70 -32z m764 -213 c36 -19
50 -63 50 -163 0 -92 -16 -123 -75 -152 -65 -31 -146 -25 -245 20 -104 47
-158 46 -266 -3 -108 -49 -154 -49 -254 -1 -102 50 -149 50 -256 1 -95 -43
-172 -49 -240 -18 -67 30 -84 61 -84 150 0 100 14 147 48 166 41 22 1279 22
1322 0z m-803 -336 c100 -48 171 -47 282 5 99 46 134 46 238 -4 52 -25 86 -34
144 -37 75 -5 92 -1 182 45 4 2 7 -57 7 -132 l0 -136 -710 0 -710 0 0 135 c0
74 2 135 4 135 2 0 28 -11 58 -25 76 -35 169 -35 241 1 124 63 157 65 264 13z"/>
</g>
</svg>
