<?xml version="1.0" standalone="no"?>
<!DOCTYPE svg PUBLIC "-//W3C//DTD SVG 20010904//EN"
 "http://www.w3.org/TR/2001/REC-SVG-20010904/DTD/svg10.dtd">
<svg version="1.0" xmlns="http://www.w3.org/2000/svg"
 width="191.000000pt" height="139.000000pt" viewBox="0 0 191.000000 139.000000"
 preserveAspectRatio="xMidYMid meet">
<metadata>
Created by potrace 1.16, written by Peter Selinger 2001-2019
</metadata>
<g transform="translate(0.000000,139.000000) scale(0.100000,-0.100000)"
fill="#000000" stroke="none">
<path d="M1645 1371 c-26 -13 -188 -168 -475 -455 -239 -240 -443 -436 -452
-436 -9 0 -109 90 -222 200 -124 121 -215 202 -233 207 -15 4 -53 8 -85 8 -48
0 -62 -4 -94 -31 -62 -50 -78 -78 -82 -147 -3 -50 0 -72 17 -104 23 -47 551
-567 603 -595 44 -23 122 -22 173 1 27 13 209 189 561 542 569 571 564 566
550 661 -19 124 -152 200 -261 149z m156 -44 c63 -42 87 -131 54 -201 -8 -17
-250 -266 -538 -553 -572 -571 -556 -558 -646 -533 -49 13 -86 46 -401 357
-112 109 -211 216 -222 237 -26 52 -20 113 16 161 36 46 74 65 134 65 65 0 86
-17 292 -225 161 -162 201 -195 237 -195 10 0 211 193 463 444 245 244 454
448 465 454 35 20 109 14 146 -11z"/>
</g>
</svg>
