<?xml version="1.0" standalone="no"?>
<!DOCTYPE svg PUBLIC "-//W3C//DTD SVG 20010904//EN"
 "http://www.w3.org/TR/2001/REC-SVG-20010904/DTD/svg10.dtd">
<svg version="1.0" xmlns="http://www.w3.org/2000/svg"
 width="143.000000pt" height="24.000000pt" viewBox="0 0 143.000000 24.000000"
 preserveAspectRatio="xMidYMid meet">
<metadata>
Created by potrace 1.16, written by Peter Selinger 2001-2019
</metadata>
<g transform="translate(0.000000,24.000000) scale(0.100000,-0.100000)"
fill="#000000" stroke="none">
<path d="M58 224 c-63 -34 -77 -122 -28 -177 51 -58 129 -55 178 8 75 95 -43
228 -150 169z m102 -54 c39 -39 12 -120 -39 -120 -32 0 -71 39 -71 71 0 36 31
69 65 69 14 0 34 -9 45 -20z"/>
<path d="M673 225 c-85 -37 -82 -175 4 -212 51 -21 95 -10 132 33 52 59 35
146 -35 179 -39 18 -59 18 -101 0z m97 -55 c40 -40 12 -120 -43 -120 -41 0
-67 27 -67 70 0 29 6 43 22 54 31 22 64 20 88 -4z"/>
<path d="M1249 217 c-21 -14 -39 -38 -48 -63 -13 -37 -12 -44 5 -80 12 -24 33
-47 56 -59 34 -18 40 -19 80 -5 48 17 88 67 88 109 0 57 -65 121 -123 121 -13
0 -39 -10 -58 -23z m108 -49 c13 -12 23 -33 23 -47 0 -32 -37 -71 -67 -71 -30
0 -73 42 -73 70 0 28 43 70 71 70 13 0 33 -10 46 -22z"/>
</g>
</svg>
