<?xml version="1.0" standalone="no"?>
<!DOCTYPE svg PUBLIC "-//W3C//DTD SVG 20010904//EN"
 "http://www.w3.org/TR/2001/REC-SVG-20010904/DTD/svg10.dtd">
<svg version="1.0" xmlns="http://www.w3.org/2000/svg"
 width="208.000000pt" height="132.000000pt" viewBox="0 0 208.000000 132.000000"
 preserveAspectRatio="xMidYMid meet">
<metadata>
Created by potrace 1.16, written by Peter Selinger 2001-2019
</metadata>
<g transform="translate(0.000000,132.000000) scale(0.100000,-0.100000)"
fill="#000000" stroke="none">
<path d="M81 1303 c-71 -37 -76 -53 -79 -258 l-3 -184 28 -7 c68 -15 94 -27
131 -63 117 -114 54 -311 -109 -339 l-44 -8 0 -179 c0 -164 2 -182 20 -207 47
-62 -18 -58 1017 -58 905 0 944 1 974 19 65 40 64 31 64 638 0 605 1 590 -63
637 -28 21 -36 21 -965 24 -878 2 -939 1 -971 -15z m1896 -40 c65 -30 64 -23
61 -624 l-3 -541 -33 -29 -32 -29 -931 0 -931 0 -29 29 c-18 18 -29 41 -30 58
0 15 -1 84 -1 152 l0 124 35 12 c52 18 105 53 131 88 97 131 33 333 -120 378
l-43 13 -3 143 c-4 170 2 197 45 223 31 19 56 20 940 20 829 0 912 -1 944 -17z"/>
</g>
</svg>
