<?xml version="1.0" standalone="no"?>
<!DOCTYPE svg PUBLIC "-//W3C//DTD SVG 20010904//EN"
 "http://www.w3.org/TR/2001/REC-SVG-20010904/DTD/svg10.dtd">
<svg version="1.0" xmlns="http://www.w3.org/2000/svg"
 width="204.000000pt" height="170.000000pt" viewBox="0 0 204.000000 170.000000"
 preserveAspectRatio="xMidYMid meet">
<metadata>
Created by potrace 1.16, written by Peter Selinger 2001-2019
</metadata>
<g transform="translate(0.000000,170.000000) scale(0.100000,-0.100000)"
fill="#000000" stroke="none">
<path d="M1335 1688 c-89 -16 -207 -81 -278 -153 -149 -149 -224 -348 -234
-630 -13 -347 84 -629 269 -782 219 -180 519 -162 725 43 59 59 80 90 121 175
82 169 97 245 97 494 0 231 -10 300 -67 448 -111 290 -369 455 -633 405z m300
-82 c158 -74 274 -232 332 -451 25 -93 27 -115 27 -310 1 -189 -1 -219 -22
-300 -13 -49 -44 -132 -69 -184 -113 -236 -342 -360 -574 -310 -210 45 -362
218 -436 495 -24 90 -26 117 -27 289 -1 149 3 208 17 275 47 217 156 390 301
475 87 51 150 66 267 62 98 -3 112 -6 184 -41z"/>
<path d="M1349 1427 c-91 -34 -142 -84 -197 -193 -57 -113 -66 -168 -67 -384
0 -157 3 -208 18 -260 27 -99 71 -184 124 -241 190 -204 457 -82 540 247 25
98 25 390 0 489 -38 151 -122 277 -218 326 -54 27 -150 35 -200 16z m188 -55
c81 -42 147 -142 185 -280 29 -105 31 -381 5 -487 -34 -135 -107 -249 -188
-291 -18 -9 -58 -19 -90 -21 -107 -10 -202 56 -260 182 -48 102 -61 168 -66
335 -6 168 7 266 46 370 23 60 81 142 122 172 68 51 169 59 246 20z"/>
<path d="M183 1534 l-183 -136 0 -121 c0 -138 7 -197 24 -197 6 0 74 47 151
104 l140 104 5 -627 5 -626 145 0 145 0 0 815 0 815 -125 2 -125 3 -182 -136z
m395 -686 l2 -778 -110 0 -110 0 0 639 c0 381 -4 642 -9 646 -5 3 -63 -34
-128 -83 -65 -48 -132 -98 -149 -110 l-32 -22 -1 119 -2 119 168 125 168 126
100 -2 100 -2 3 -777z"/>
</g>
</svg>
