<?xml version="1.0" standalone="no"?>
<!DOCTYPE svg PUBLIC "-//W3C//DTD SVG 20010904//EN"
 "http://www.w3.org/TR/2001/REC-SVG-20010904/DTD/svg10.dtd">
<svg version="1.0" xmlns="http://www.w3.org/2000/svg"
 width="198.000000pt" height="159.000000pt" viewBox="0 0 198.000000 159.000000"
 preserveAspectRatio="xMidYMid meet">
<metadata>
Created by potrace 1.16, written by Peter Selinger 2001-2019
</metadata>
<g transform="translate(0.000000,159.000000) scale(0.100000,-0.100000)"
fill="#000000" stroke="none">
<path d="M1659 1562 c-58 -37 -141 -129 -167 -185 -11 -24 -27 -47 -34 -50
-28 -10 -135 -108 -183 -166 l-50 -61 -315 0 c-343 0 -398 -7 -473 -56 -20
-13 -53 -46 -72 -72 -35 -48 -75 -153 -75 -199 0 -26 -105 -209 -143 -250 -21
-24 -43 -30 -49 -14 -2 4 -24 11 -50 15 -44 7 -48 5 -48 -13 0 -36 62 -81 112
-81 29 0 78 53 128 140 l43 74 13 -62 c7 -34 16 -67 19 -72 4 -6 -4 -19 -18
-30 -13 -10 -41 -44 -62 -74 l-38 -55 5 -103 c6 -106 32 -203 64 -229 10 -8
54 -13 132 -13 l116 -1 10 27 c15 41 -14 97 -54 105 -40 8 -43 14 -35 79 l7
55 136 122 136 122 248 0 248 0 0 -22 c0 -36 48 -270 74 -362 33 -114 40 -120
158 -128 52 -3 107 -3 122 1 33 8 42 42 22 89 -12 29 -22 38 -57 47 l-42 12 6
111 c4 62 14 159 22 216 16 103 17 104 64 150 48 47 64 87 102 246 7 28 13 51
13 52 1 1 24 -9 51 -22 120 -61 235 3 235 131 0 44 -6 61 -41 113 -22 33 -45
63 -50 66 -5 4 -9 19 -9 35 0 64 -42 124 -109 154 l-37 17 4 63 c4 59 -8 106
-26 106 -5 0 -28 -13 -53 -28z m35 -79 c-4 -21 -15 -55 -25 -75 -26 -51 -24
-60 6 -46 32 15 93 -2 123 -35 12 -13 26 -44 31 -70 5 -29 20 -60 39 -82 66
-75 82 -143 46 -192 -49 -65 -106 -67 -194 -7 -35 24 -52 31 -55 22 -3 -7 -23
-76 -45 -153 -38 -130 -44 -143 -86 -186 -44 -45 -46 -49 -65 -155 -10 -60
-21 -165 -25 -234 -7 -140 -4 -149 66 -167 25 -7 36 -16 38 -31 3 -21 0 -22
-55 -21 -32 0 -76 3 -98 7 l-39 7 -24 80 c-25 86 -81 356 -82 392 0 12 -6 26
-14 30 -8 4 -77 4 -154 -1 -76 -5 -186 -5 -244 -1 l-105 7 1 36 c1 30 -3 37
-17 37 -13 0 -24 -15 -37 -55 -12 -35 -31 -65 -52 -84 -18 -15 -76 -68 -129
-116 -87 -80 -96 -92 -107 -140 -24 -105 -14 -136 51 -149 23 -5 33 -13 35
-29 3 -20 -1 -22 -46 -22 -27 0 -70 3 -96 6 l-46 7 -19 62 c-11 34 -23 94 -27
133 l-6 71 70 69 71 69 -20 63 c-22 73 -28 240 -10 305 14 55 62 127 103 158
65 50 122 57 475 57 l322 0 44 58 c54 69 107 118 182 168 30 20 55 43 55 51 0
30 42 93 95 141 31 29 61 52 66 52 6 0 7 -15 3 -37z"/>
<path d="M1642 1224 c4 -38 32 -54 55 -31 23 23 7 51 -31 55 -25 3 -27 1 -24
-24z"/>
</g>
</svg>
