<?xml version="1.0" standalone="no"?>
<!DOCTYPE svg PUBLIC "-//W3C//DTD SVG 20010904//EN"
 "http://www.w3.org/TR/2001/REC-SVG-20010904/DTD/svg10.dtd">
<svg version="1.0" xmlns="http://www.w3.org/2000/svg"
 width="239.000000pt" height="239.000000pt" viewBox="0 0 239.000000 239.000000"
 preserveAspectRatio="xMidYMid meet">
<metadata>
Created by potrace 1.16, written by Peter Selinger 2001-2019
</metadata>
<g transform="translate(0.000000,239.000000) scale(0.100000,-0.100000)"
fill="#000000" stroke="none">
<path d="M1156 2302 c-39 -48 -153 -187 -255 -310 l-185 -223 -141 141 c-77
77 -148 140 -157 140 -9 0 -20 -10 -23 -21 -6 -18 17 -46 141 -170 82 -82 157
-152 167 -155 26 -8 45 8 149 131 119 141 412 496 421 512 12 19 -4 43 -27 43
-14 0 -42 -27 -90 -88z"/>
<path d="M1570 2069 c-32 -13 -78 -56 -96 -91 -7 -14 -21 -70 -29 -124 -30
-186 -82 -280 -233 -426 -104 -100 -190 -158 -292 -197 -117 -45 -134 -47
-148 -16 -6 14 -26 34 -44 45 -31 19 -51 20 -334 20 -297 0 -302 0 -335 -23
-61 -41 -59 -22 -56 -609 l2 -538 33 -32 32 -33 313 -3 c237 -2 318 1 337 11
32 16 70 73 70 104 0 29 4 28 130 -24 311 -129 333 -133 775 -133 323 0 332 1
375 22 55 28 90 84 90 147 0 37 6 50 43 91 76 84 84 151 33 271 -5 12 3 22 28
37 20 12 49 42 66 68 53 85 49 169 -12 247 l-30 38 27 21 c33 26 75 112 75
153 0 54 -20 102 -60 148 -61 68 -76 71 -357 63 -146 -4 -243 -3 -243 2 0 5
15 61 34 123 104 345 109 453 26 568 -50 68 -147 99 -220 70z m140 -77 c14
-10 35 -38 48 -62 44 -87 27 -222 -63 -502 -41 -125 -42 -148 -14 -174 24 -21
12 -21 336 -14 201 4 214 3 240 -16 92 -69 94 -181 4 -241 -32 -21 -45 -23
-185 -23 -156 0 -176 -5 -176 -41 0 -26 20 -29 172 -29 135 0 142 -1 174 -25
80 -61 63 -205 -29 -248 -28 -14 -67 -17 -201 -17 -140 0 -168 -2 -172 -15 -4
-8 -1 -22 6 -30 10 -12 40 -15 142 -15 152 0 177 -9 202 -70 21 -52 20 -75 -4
-128 -28 -62 -59 -72 -229 -72 -128 0 -141 -2 -151 -19 -7 -15 -6 -24 6 -36
14 -13 39 -16 148 -15 l131 2 -1 -42 c-1 -31 -8 -48 -28 -68 l-26 -27 -292 -3
c-434 -5 -533 9 -738 102 -63 29 -139 61 -167 70 l-53 18 0 437 0 437 53 13
c116 29 261 110 364 202 179 163 259 285 287 439 32 174 47 207 101 231 28 12
85 3 115 -19z m-1003 -794 l23 -21 0 -518 0 -518 -22 -21 c-21 -19 -34 -20
-315 -20 -280 0 -294 1 -313 20 -19 19 -20 33 -20 537 l0 517 22 23 21 23 291
0 c284 0 290 0 313 -22z"/>
</g>
</svg>
