<?xml version="1.0" standalone="no"?>
<!DOCTYPE svg PUBLIC "-//W3C//DTD SVG 20010904//EN"
 "http://www.w3.org/TR/2001/REC-SVG-20010904/DTD/svg10.dtd">
<svg version="1.0" xmlns="http://www.w3.org/2000/svg"
 width="201.000000pt" height="329.000000pt" viewBox="0 0 201.000000 329.000000"
 preserveAspectRatio="xMidYMid meet">
<metadata>
Created by potrace 1.16, written by Peter Selinger 2001-2019
</metadata>
<g transform="translate(0.000000,329.000000) scale(0.100000,-0.100000)"
fill="#000000" stroke="none">
<path d="M825 3279 c-401 -80 -704 -369 -802 -767 -26 -105 -24 -342 5 -455
48 -193 142 -357 279 -488 93 -89 144 -125 251 -179 384 -191 859 -113 1160
192 94 96 135 153 189 265 71 148 96 260 97 433 0 166 -19 260 -84 412 -118
274 -368 491 -655 568 -92 25 -354 36 -440 19z m448 -63 c171 -51 307 -135
429 -265 118 -125 191 -259 240 -439 31 -114 31 -332 0 -456 -90 -358 -370
-630 -735 -713 -48 -11 -117 -16 -207 -16 -160 0 -280 27 -416 93 -263 127
-437 345 -521 650 -27 101 -25 347 5 460 82 307 314 563 602 664 135 48 192
56 360 52 132 -3 168 -7 243 -30z"/>
<path d="M638 2594 c-38 -20 -48 -43 -48 -114 0 -77 27 -110 89 -110 58 0 91
42 91 116 0 68 -12 92 -55 110 -42 17 -43 17 -77 -2z m70 -40 c31 -22 32 -116
1 -137 -26 -19 -56 -11 -76 20 -29 44 -2 133 42 133 6 0 21 -7 33 -16z"/>
<path d="M1294 2600 c-12 -4 -31 -21 -44 -37 -18 -24 -21 -37 -18 -87 4 -49 9
-63 32 -83 36 -31 86 -31 123 1 25 22 28 30 28 90 0 57 -3 69 -25 90 -29 29
-66 39 -96 26z m66 -50 c46 -46 12 -161 -43 -145 -34 11 -47 34 -47 86 0 38 5
51 22 63 30 21 44 20 68 -4z"/>
<path d="M536 2021 c-8 -13 44 -80 100 -130 56 -50 164 -104 242 -120 74 -15
206 -14 272 4 96 26 179 74 252 146 39 40 68 77 68 89 0 31 -23 24 -56 -19
-93 -122 -239 -191 -404 -191 -160 0 -281 50 -391 162 -69 70 -74 74 -83 59z"/>
<path d="M1440 10 c18 -12 88 -12 115 0 14 6 -4 9 -55 9 -52 1 -70 -2 -60 -9z"/>
</g>
</svg>
