<?xml version="1.0" standalone="no"?>
<!DOCTYPE svg PUBLIC "-//W3C//DTD SVG 20010904//EN"
 "http://www.w3.org/TR/2001/REC-SVG-20010904/DTD/svg10.dtd">
<svg version="1.0" xmlns="http://www.w3.org/2000/svg"
 width="205.000000pt" height="266.000000pt" viewBox="0 0 205.000000 266.000000"
 preserveAspectRatio="xMidYMid meet">
<metadata>
Created by potrace 1.16, written by Peter Selinger 2001-2019
</metadata>
<g transform="translate(0.000000,266.000000) scale(0.100000,-0.100000)"
fill="#000000" stroke="none">
<path d="M952 2639 c-57 -28 -84 -69 -91 -137 l-6 -56 -75 -12 c-201 -31 -356
-92 -437 -172 -63 -61 -83 -105 -83 -181 l0 -61 -95 0 c-91 0 -96 -1 -127 -29
-28 -25 -33 -36 -33 -76 0 -40 5 -51 33 -76 31 -28 37 -29 127 -29 l94 0 3
-267 c3 -254 4 -270 25 -309 32 -59 79 -103 143 -133 l55 -25 468 -1 c664 0
673 1 760 84 80 75 82 83 85 384 l3 267 82 0 c99 0 139 19 157 75 14 44 1 85
-38 115 -20 16 -40 20 -112 20 l-87 0 -5 68 c-6 80 -31 135 -87 185 -89 81
-288 151 -481 170 -18 1 -26 9 -28 27 -7 70 -16 93 -45 127 -57 65 -129 79
-205 42z m152 -45 c32 -24 56 -72 56 -113 l0 -31 -130 0 -130 0 0 38 c0 103
121 166 204 106z m179 -199 c257 -39 432 -136 471 -262 l7 -23 -730 0 c-499 0
-731 3 -731 10 0 24 42 89 77 120 44 39 172 100 260 124 168 45 458 59 646 31z
m477 -707 c0 -352 -2 -386 -19 -423 -24 -52 -71 -98 -127 -124 -44 -21 -52
-21 -598 -19 l-553 3 -55 37 c-42 27 -62 50 -82 89 l-26 53 0 383 0 383 730 0
730 0 0 -382z m-1500 227 l0 -65 -84 0 c-69 0 -88 4 -110 21 -31 25 -33 57 -6
87 18 19 31 22 110 22 l90 0 0 -65z m1729 38 c24 -30 20 -58 -11 -85 -16 -14
-38 -18 -99 -18 l-79 0 0 65 0 65 84 0 c80 0 86 -2 105 -27z"/>
<path d="M146 154 c-9 -23 -6 -116 4 -139 6 -13 9 9 9 68 1 87 -2 101 -13 71z"/>
</g>
</svg>
