<?xml version="1.0" standalone="no"?>
<!DOCTYPE svg PUBLIC "-//W3C//DTD SVG 20010904//EN"
 "http://www.w3.org/TR/2001/REC-SVG-20010904/DTD/svg10.dtd">
<svg version="1.0" xmlns="http://www.w3.org/2000/svg"
 width="117.000000pt" height="213.000000pt" viewBox="0 0 117.000000 213.000000"
 preserveAspectRatio="xMidYMid meet">
<metadata>
Created by potrace 1.16, written by Peter Selinger 2001-2019
</metadata>
<g transform="translate(0.000000,213.000000) scale(0.100000,-0.100000)"
fill="#000000" stroke="none">
<path d="M973 2114 c-3 -9 17 -104 46 -212 90 -348 103 -434 77 -510 -19 -54
-147 -275 -329 -572 -83 -135 -163 -269 -179 -299 -34 -64 -36 -118 -8 -154
12 -15 85 -60 164 -101 109 -58 164 -80 234 -97 102 -23 123 -41 103 -85 l-11
-24 -189 0 c-163 0 -226 5 -438 35 -292 41 -310 45 -348 85 -28 29 -30 37 -30
105 0 68 3 80 48 165 26 51 77 176 113 279 91 259 157 420 215 528 33 62 49
103 49 129 0 20 -18 84 -39 143 -86 232 -222 576 -231 585 -15 15 -46 -8 -42
-30 2 -11 31 -89 64 -174 135 -348 188 -495 188 -523 0 -17 -17 -60 -38 -96
-21 -36 -55 -105 -75 -153 -40 -94 -153 -398 -182 -488 -9 -30 -41 -104 -71
-165 -78 -156 -84 -261 -22 -340 40 -51 86 -64 366 -106 240 -35 287 -39 462
-39 209 0 227 4 263 52 15 20 18 34 13 64 -12 60 -48 87 -151 113 -61 15 -135
45 -230 94 -123 63 -140 75 -143 99 -4 36 25 91 192 362 148 239 277 458 322
549 38 73 42 150 15 278 -27 125 -119 477 -132 502 -12 21 -38 22 -46 1z"/>
</g>
</svg>
