<?xml version="1.0" standalone="no"?>
<!DOCTYPE svg PUBLIC "-//W3C//DTD SVG 20010904//EN"
 "http://www.w3.org/TR/2001/REC-SVG-20010904/DTD/svg10.dtd">
<svg version="1.0" xmlns="http://www.w3.org/2000/svg"
 width="241.000000pt" height="161.000000pt" viewBox="0 0 241.000000 161.000000"
 preserveAspectRatio="xMidYMid meet">
<metadata>
Created by potrace 1.16, written by Peter Selinger 2001-2019
</metadata>
<g transform="translate(0.000000,161.000000) scale(0.100000,-0.100000)"
fill="#000000" stroke="none">
<path d="M221 1599 c-12 -5 -68 -50 -122 -100 l-99 -92 0 -98 c0 -90 2 -99 22
-113 14 -10 44 -16 76 -16 l54 0 -7 -172 c-3 -95 -13 -324 -21 -508 -7 -184
-14 -372 -14 -417 l0 -83 74 0 c66 0 77 3 90 22 9 12 16 41 16 64 0 22 3 75 6
116 6 71 8 75 30 70 43 -8 70 34 77 118 23 256 38 467 44 618 l6 172 751 0
751 0 3 -117 c3 -112 35 -588 48 -701 7 -67 33 -97 75 -88 l29 5 1 -62 c0
-104 14 -198 30 -208 23 -14 149 -11 155 4 3 8 -4 256 -16 552 -11 296 -20
556 -20 577 l0 38 55 0 c83 0 95 17 95 129 l0 88 -86 84 c-47 46 -102 94 -122
106 l-37 23 -960 -1 c-576 0 -969 -4 -984 -10z m1941 -37 c18 -7 156 -123 157
-132 1 -3 -501 -5 -1114 -5 -613 0 -1115 1 -1115 3 0 7 124 118 144 129 16 9
242 12 966 12 520 0 953 -3 962 -7z m198 -257 l0 -75 -1160 0 -1160 0 0 75 0
75 1160 0 1160 0 0 -75z m-2047 -177 c-1 -29 -7 -132 -13 -228 -19 -325 -51
-795 -56 -828 -5 -31 -7 -32 -51 -32 l-46 0 6 103 c3 56 14 312 23 570 l18
467 61 0 62 0 -4 -52z m97 -10 c0 -108 -44 -724 -56 -775 -3 -15 -12 -23 -24
-23 -25 0 -25 -29 5 446 14 214 25 395 25 402 0 6 11 12 25 12 24 0 25 -2 25
-62z m1659 -305 c12 -203 25 -396 28 -430 6 -63 6 -63 -21 -63 -14 0 -26 6
-26 13 0 6 -9 125 -20 262 -11 138 -23 325 -27 418 l-6 167 24 0 25 0 23 -367z
m164 -145 c10 -282 20 -539 23 -571 l6 -58 -48 3 -49 3 -17 225 c-9 124 -24
342 -32 485 -9 143 -18 297 -22 343 l-6 82 64 0 64 0 17 -512z"/>
</g>
</svg>
