<?xml version="1.0" standalone="no"?>
<!DOCTYPE svg PUBLIC "-//W3C//DTD SVG 20010904//EN"
 "http://www.w3.org/TR/2001/REC-SVG-20010904/DTD/svg10.dtd">
<svg version="1.0" xmlns="http://www.w3.org/2000/svg"
 width="195.000000pt" height="197.000000pt" viewBox="0 0 195.000000 197.000000"
 preserveAspectRatio="xMidYMid meet">
<metadata>
Created by potrace 1.16, written by Peter Selinger 2001-2019
</metadata>
<g transform="translate(0.000000,197.000000) scale(0.100000,-0.100000)"
fill="#000000" stroke="none">
<path d="M524 1959 c-4 -7 69 -87 175 -193 99 -100 181 -183 181 -186 0 -3
-165 -5 -368 -5 -202 0 -379 -3 -394 -7 -38 -11 -88 -57 -104 -95 -11 -26 -14
-146 -14 -617 0 -390 4 -594 11 -613 27 -72 85 -104 200 -111 l87 -5 -24 -54
c-23 -52 -24 -73 -3 -73 5 0 24 29 41 65 l32 65 630 2 630 3 28 -62 c28 -64
41 -78 58 -68 6 3 1 27 -11 58 -11 28 -21 55 -22 59 -1 5 37 10 85 12 105 4
153 25 185 82 l23 39 0 599 0 598 -22 40 c-12 21 -38 49 -58 61 -34 22 -43 22
-418 25 l-383 3 173 179 c95 99 174 187 176 195 9 39 -37 1 -218 -180 -172
-172 -199 -195 -227 -195 -28 0 -54 22 -224 195 -106 107 -198 195 -205 195
-7 0 -16 -5 -20 -11z m1311 -433 c19 -8 44 -30 55 -48 20 -32 20 -45 18 -636
l-3 -604 -32 -28 c-20 -18 -48 -31 -75 -35 -24 -3 -407 -5 -853 -3 -783 3
-811 4 -842 23 -64 38 -63 23 -63 665 0 499 2 585 15 610 16 30 39 47 84 61
14 4 394 8 844 8 690 1 823 -1 852 -13z"/>
<path d="M274 1361 c-23 -10 -52 -34 -65 -52 l-24 -34 0 -432 c0 -420 1 -432
21 -459 11 -15 33 -37 48 -48 27 -21 40 -21 579 -23 l552 -3 40 23 c26 14 48
37 63 67 22 44 22 49 21 440 0 277 -4 404 -12 425 -18 45 -38 70 -77 94 -35
21 -41 21 -570 21 -500 0 -538 -2 -576 -19z m1137 -44 c58 -39 60 -56 57 -493
-3 -381 -4 -393 -24 -421 -40 -54 -27 -53 -612 -50 l-544 2 -34 38 -35 37 3
419 3 419 25 27 c14 15 34 31 45 35 11 5 259 9 551 9 l531 1 34 -23z"/>
<path d="M1664 1281 c-65 -28 -83 -110 -35 -163 25 -28 36 -33 76 -33 40 0 51
5 76 33 39 43 39 90 2 132 -30 33 -82 46 -119 31z m86 -51 c11 -11 20 -31 20
-45 0 -14 -9 -34 -20 -45 -11 -11 -31 -20 -45 -20 -14 0 -34 9 -45 20 -11 11
-20 31 -20 45 0 14 9 34 20 45 11 11 31 20 45 20 14 0 34 -9 45 -20z"/>
<path d="M1634 936 c-40 -40 -44 -75 -14 -123 50 -83 190 -46 190 50 0 61 -44
106 -103 107 -31 0 -46 -7 -73 -34z m118 -23 c36 -32 17 -92 -33 -108 -29 -10
-73 24 -77 59 -7 56 66 89 110 49z"/>
</g>
</svg>
