<?xml version="1.0" standalone="no"?>
<!DOCTYPE svg PUBLIC "-//W3C//DTD SVG 20010904//EN"
 "http://www.w3.org/TR/2001/REC-SVG-20010904/DTD/svg10.dtd">
<svg version="1.0" xmlns="http://www.w3.org/2000/svg"
 width="168.000000pt" height="263.000000pt" viewBox="0 0 168.000000 263.000000"
 preserveAspectRatio="xMidYMid meet">
<metadata>
Created by potrace 1.16, written by Peter Selinger 2001-2019
</metadata>
<g transform="translate(0.000000,263.000000) scale(0.100000,-0.100000)"
fill="#000000" stroke="none">
<path d="M163 2616 c-59 -19 -99 -50 -130 -104 l-28 -47 -3 -1128 c-2 -801 1
-1141 9 -1170 17 -65 101 -142 170 -157 39 -8 234 -10 689 -8 l635 3 48 24
c52 25 92 71 113 128 11 31 13 249 14 1164 l0 1125 -26 52 c-30 61 -74 98
-140 118 -66 20 -1287 20 -1351 0z m1362 -58 c41 -22 71 -56 90 -100 13 -33
15 -168 15 -1145 0 -1056 -1 -1110 -19 -1148 -22 -48 -54 -79 -103 -100 -32
-13 -121 -15 -660 -15 -398 0 -636 4 -660 10 -50 14 -97 55 -119 105 -18 38
-19 94 -19 1150 0 1058 1 1112 19 1150 10 22 30 51 44 63 56 52 54 52 742 49
574 -2 643 -4 670 -19z"/>
<path d="M561 2444 c-13 -10 -13 -14 -2 -28 12 -14 45 -16 285 -14 l271 3 3
23 c2 12 0 22 -5 22 -283 6 -539 3 -552 -6z"/>
<path d="M1436 2315 c-9 -25 -7 -228 3 -243 5 -8 17 -12 27 -10 17 3 19 14 19
133 0 125 -1 130 -21 133 -13 2 -24 -4 -28 -13z"/>
<path d="M1325 2247 c-3 -7 -5 -52 -3 -98 3 -76 5 -84 23 -84 19 0 20 7 20 95
0 82 -2 95 -18 98 -9 2 -19 -3 -22 -11z"/>
<path d="M1212 2178 c-14 -14 -16 -86 -3 -106 5 -8 17 -12 27 -10 16 3 19 12
19 63 0 46 -4 60 -15 63 -9 1 -21 -3 -28 -10z"/>
</g>
</svg>
