<?xml version="1.0" standalone="no"?>
<!DOCTYPE svg PUBLIC "-//W3C//DTD SVG 20010904//EN"
 "http://www.w3.org/TR/2001/REC-SVG-20010904/DTD/svg10.dtd">
<svg version="1.0" xmlns="http://www.w3.org/2000/svg"
 width="227.000000pt" height="221.000000pt" viewBox="0 0 227.000000 221.000000"
 preserveAspectRatio="xMidYMid meet">
<metadata>
Created by potrace 1.16, written by Peter Selinger 2001-2019
</metadata>
<g transform="translate(0.000000,221.000000) scale(0.100000,-0.100000)"
fill="#000000" stroke="none">
<path d="M115 2203 c-35 -9 -87 -54 -101 -89 -12 -28 -14 -197 -14 -1007 l0
-974 23 -43 c16 -30 37 -51 67 -67 l43 -23 750 0 c834 0 790 -3 845 68 26 34
27 41 27 151 0 115 0 116 -24 119 -40 6 -51 -21 -51 -123 0 -85 -2 -93 -26
-116 l-26 -24 -736 -3 c-717 -2 -738 -2 -769 17 -22 14 -35 32 -43 60 -7 27
-9 339 -8 985 l3 946 28 27 27 28 428 3 c235 2 573 0 751 -3 406 -9 371 11
371 -207 0 -84 3 -210 7 -280 5 -113 8 -128 25 -134 10 -3 26 0 34 7 24 20 17
550 -8 594 -21 39 -56 71 -91 84 -28 11 -1489 14 -1532 4z"/>
<path d="M595 1850 l-320 -5 -3 -24 c-2 -13 2 -28 10 -32 20 -13 975 -11 999
1 22 12 25 43 5 59 -10 8 -68 11 -192 9 -99 -2 -323 -5 -499 -8z"/>
<path d="M2015 1772 c-16 -11 -38 -28 -48 -39 -9 -11 -88 -159 -173 -329 -86
-170 -213 -417 -282 -549 l-125 -240 -14 -145 c-7 -80 -12 -167 -11 -195 5
-83 24 -76 192 72 l146 128 96 190 c53 105 180 352 282 550 164 317 187 365
186 405 -1 94 -67 161 -162 167 -44 3 -64 0 -87 -15z m119 -62 c28 -10 56 -57
56 -92 -1 -31 -36 -108 -51 -108 -17 0 -159 91 -159 102 0 19 31 67 56 87 29
23 59 26 98 11z m-34 -284 c0 -4 -34 -74 -76 -155 -42 -80 -107 -204 -144
-276 -152 -293 -233 -450 -235 -453 -2 -2 -100 50 -145 77 -8 5 -14 15 -12 23
2 7 65 132 141 278 76 146 177 341 225 433 l87 168 80 -43 c43 -24 79 -47 79
-52z m-570 -909 l59 -33 -42 -40 c-23 -22 -57 -53 -75 -69 l-34 -30 7 80 c7
87 13 125 20 125 3 0 32 -15 65 -33z"/>
<path d="M282 1558 c-16 -16 -15 -43 2 -57 10 -8 142 -9 501 -4 439 7 489 10
498 25 8 12 7 21 -2 32 -12 14 -68 16 -500 16 -365 0 -490 -3 -499 -12z"/>
<path d="M284 1266 c-3 -8 -4 -23 -2 -33 3 -17 29 -18 497 -18 450 0 495 1
504 17 8 12 7 21 -2 32 -12 14 -68 16 -503 16 -416 0 -489 -2 -494 -14z"/>
<path d="M670 816 l-154 -155 -82 79 c-45 44 -86 80 -91 80 -16 0 -33 -23 -33
-45 0 -25 178 -205 203 -205 10 0 97 77 193 172 147 144 174 176 172 197 -2
19 -10 27 -28 29 -21 2 -53 -25 -180 -152z"/>
</g>
</svg>
