<?xml version="1.0" standalone="no"?>
<!DOCTYPE svg PUBLIC "-//W3C//DTD SVG 20010904//EN"
 "http://www.w3.org/TR/2001/REC-SVG-20010904/DTD/svg10.dtd">
<svg version="1.0" xmlns="http://www.w3.org/2000/svg"
 width="161.000000pt" height="136.000000pt" viewBox="0 0 161.000000 136.000000"
 preserveAspectRatio="xMidYMid meet">
<metadata>
Created by potrace 1.16, written by Peter Selinger 2001-2019
</metadata>
<g transform="translate(0.000000,136.000000) scale(0.100000,-0.100000)"
fill="#000000" stroke="none">
<path d="M1083 1341 c-174 -63 -284 -237 -313 -496 -5 -49 -10 -140 -10 -202
0 -332 85 -525 268 -611 52 -25 68 -27 177 -27 116 0 123 1 187 33 150 74 226
225 216 432 -4 86 -9 107 -41 174 -43 91 -107 158 -185 194 -51 24 -69 27
-167 27 -100 0 -115 -3 -160 -27 -48 -25 -129 -101 -154 -143 -10 -16 -11 4
-7 98 8 188 47 308 124 385 58 58 105 77 192 77 118 -1 196 -53 231 -157 l18
-53 61 -3 c55 -3 61 -1 57 15 -3 10 -9 34 -12 53 -15 74 -71 154 -135 195 -88
56 -246 72 -347 36z m234 -595 c125 -64 190 -211 164 -368 -14 -88 -37 -142
-81 -192 -55 -62 -101 -81 -200 -81 -75 0 -91 3 -132 27 -104 62 -152 159
-152 313 0 89 2 106 26 150 42 80 111 141 188 166 39 13 151 4 187 -15z"/>
<path d="M188 1234 l-188 -116 0 -54 c0 -30 1 -54 3 -54 2 0 75 43 162 96
l160 96 3 -596 2 -596 70 0 70 0 0 670 0 670 -47 0 c-44 0 -65 -11 -235 -116z"/>
</g>
</svg>
