<?xml version="1.0" standalone="no"?>
<!DOCTYPE svg PUBLIC "-//W3C//DTD SVG 20010904//EN"
 "http://www.w3.org/TR/2001/REC-SVG-20010904/DTD/svg10.dtd">
<svg version="1.0" xmlns="http://www.w3.org/2000/svg"
 width="156.000000pt" height="248.000000pt" viewBox="0 0 156.000000 248.000000"
 preserveAspectRatio="xMidYMid meet">
<metadata>
Created by potrace 1.16, written by Peter Selinger 2001-2019
</metadata>
<g transform="translate(0.000000,248.000000) scale(0.100000,-0.100000)"
fill="#000000" stroke="none">
<path d="M615 2470 c-278 -60 -465 -293 -465 -581 0 -83 -25 -151 -80 -224
-70 -90 -77 -108 -56 -140 9 -14 42 -42 71 -61 61 -38 61 -40 69 -165 11 -193
74 -248 276 -236 l98 5 7 -96 c4 -53 4 -101 -1 -107 -206 -272 -261 -370 -305
-547 -19 -77 -40 -271 -32 -295 6 -15 29 -24 48 -17 18 7 20 17 34 161 17 183
78 336 204 514 l42 58 73 1 c154 0 381 66 526 152 l69 41 29 -34 c154 -182
223 -355 248 -620 7 -68 15 -155 18 -194 7 -67 8 -70 35 -73 19 -2 29 2 34 14
3 10 1 87 -6 171 -30 383 -102 561 -327 806 l-74 80 0 187 0 187 50 61 c225
281 168 680 -125 867 -89 57 -193 88 -315 91 -58 2 -123 -1 -145 -6z m250 -75
c204 -52 350 -200 391 -397 27 -126 -3 -278 -77 -385 -18 -26 -48 -70 -66 -97
l-33 -48 0 -209 0 -208 30 -34 c35 -40 36 -39 -65 -90 -126 -63 -324 -117
-426 -117 l-39 0 16 25 c14 21 14 39 5 152 -10 111 -15 130 -33 146 -16 13
-31 17 -52 13 -16 -3 -66 -9 -111 -12 -141 -11 -168 18 -186 204 -5 59 -14
117 -19 129 -5 12 -32 34 -59 47 -27 14 -52 30 -56 36 -3 5 16 39 44 74 66 87
87 147 94 276 10 175 55 280 163 379 124 113 312 159 479 116z"/>
<path d="M780 385 c-13 -16 -27 -306 -16 -349 5 -22 11 -27 34 -24 l27 3 8
178 c6 134 5 182 -4 193 -15 18 -33 18 -49 -1z"/>
</g>
</svg>
