<?xml version="1.0" standalone="no"?>
<!DOCTYPE svg PUBLIC "-//W3C//DTD SVG 20010904//EN"
 "http://www.w3.org/TR/2001/REC-SVG-20010904/DTD/svg10.dtd">
<svg version="1.0" xmlns="http://www.w3.org/2000/svg"
 width="187.000000pt" height="235.000000pt" viewBox="0 0 187.000000 235.000000"
 preserveAspectRatio="xMidYMid meet">
<metadata>
Created by potrace 1.16, written by Peter Selinger 2001-2019
</metadata>
<g transform="translate(0.000000,235.000000) scale(0.100000,-0.100000)"
fill="#000000" stroke="none">
<path d="M717 2330 c-194 -49 -347 -170 -430 -341 -64 -129 -82 -224 -74 -393
l6 -130 -34 -37 c-79 -87 -73 -211 14 -302 36 -37 59 -52 96 -62 38 -9 52 -18
57 -36 4 -13 15 -50 24 -82 10 -33 33 -85 53 -118 36 -58 130 -162 163 -180
14 -8 18 -23 18 -74 0 -62 -1 -65 -27 -71 -57 -12 -160 -48 -230 -80 -194 -88
-330 -235 -349 -376 -6 -44 -5 -48 15 -48 16 0 21 6 21 25 0 42 40 133 80 184
43 54 134 123 219 166 50 25 250 95 272 95 5 0 9 -12 9 -27 1 -72 83 -173 175
-215 69 -32 199 -32 266 -2 91 42 179 151 179 222 0 12 3 22 7 22 16 0 183
-54 238 -77 179 -75 315 -217 340 -355 5 -28 12 -38 26 -38 23 0 24 19 4 87
-55 185 -260 335 -562 413 l-43 11 0 58 0 59 53 40 c85 66 162 180 192 287 28
98 29 99 77 112 92 25 158 117 158 220 0 65 -13 99 -53 141 l-32 33 0 172 c0
135 -4 186 -19 237 -63 225 -211 376 -441 450 -102 33 -356 38 -468 10z m453
-50 c158 -45 299 -159 365 -294 57 -116 70 -181 70 -343 -1 -157 -4 -166 -62
-176 l-33 -6 0 80 c0 94 -8 112 -58 138 -39 20 -97 77 -125 123 -10 15 -28 60
-41 100 -29 92 -51 101 -91 37 -63 -99 -200 -189 -340 -224 -74 -18 -251 -35
-367 -35 -116 0 -118 -3 -118 -131 0 -95 -1 -99 -19 -89 -11 5 -35 10 -54 10
l-35 0 -8 108 c-26 376 163 645 506 718 97 20 314 12 410 -16z m80 -400 c0
-27 47 -116 81 -154 18 -21 57 -56 86 -78 l53 -39 -2 -82 c-3 -151 0 -179 19
-175 10 2 19 12 21 23 12 63 82 74 138 22 31 -28 37 -41 42 -85 9 -100 -49
-189 -140 -212 -24 -6 -48 -13 -54 -15 -6 -2 -17 -32 -24 -66 -22 -101 -74
-194 -154 -275 -101 -101 -205 -150 -346 -161 -260 -20 -521 181 -570 440
l-12 66 -42 6 c-62 10 -117 44 -143 90 -46 83 -39 171 18 220 48 39 139 30
139 -14 0 -24 28 -47 40 -35 5 5 11 70 12 144 l3 135 155 7 c85 4 187 12 225
19 164 27 337 118 406 214 32 44 48 46 49 5z m-554 -1289 c143 -69 322 -68
498 4 18 8 18 4 12 -81 -10 -135 -45 -191 -150 -247 -33 -17 -58 -22 -126 -22
-77 0 -90 3 -140 31 -62 35 -114 96 -130 152 -9 33 -15 182 -7 182 2 0 21 -9
43 -19z"/>
<path d="M1183 1390 c-60 -24 -25 -135 37 -115 22 7 34 39 28 75 -4 31 -37 50
-65 40z"/>
<path d="M642 1378 c-19 -19 -14 -73 8 -93 42 -38 99 30 70 84 -12 24 -58 29
-78 9z"/>
<path d="M1041 939 c-70 -38 -137 -39 -207 -4 -56 28 -74 31 -74 11 0 -36 97
-76 185 -76 77 0 189 59 170 90 -8 14 -12 13 -74 -21z"/>
</g>
</svg>
