<?xml version="1.0" standalone="no"?>
<!DOCTYPE svg PUBLIC "-//W3C//DTD SVG 20010904//EN"
 "http://www.w3.org/TR/2001/REC-SVG-20010904/DTD/svg10.dtd">
<svg version="1.0" xmlns="http://www.w3.org/2000/svg"
 width="217.000000pt" height="206.000000pt" viewBox="0 0 217.000000 206.000000"
 preserveAspectRatio="xMidYMid meet">
<metadata>
Created by potrace 1.16, written by Peter Selinger 2001-2019
</metadata>
<g transform="translate(0.000000,206.000000) scale(0.100000,-0.100000)"
fill="#000000" stroke="none">
<path d="M1065 2048 c-3 -7 -56 -166 -119 -353 -63 -187 -120 -355 -126 -372
l-12 -33 -405 0 c-379 0 -404 -1 -401 -17 2 -10 64 -62 138 -116 205 -150 480
-346 497 -356 14 -8 0 -58 -110 -387 -70 -209 -127 -387 -127 -396 0 -27 17
-22 84 26 504 364 602 433 611 426 129 -99 642 -463 654 -464 9 0 16 6 16 14
0 8 -56 183 -125 389 -115 344 -124 374 -107 385 102 66 632 465 632 476 0 13
-55 15 -405 18 l-405 2 -124 373 c-68 204 -128 378 -134 385 -5 6 -14 12 -19
12 -5 0 -11 -6 -13 -12z m253 -778 c8 -13 65 -16 386 -20 l377 -5 -305 -220
c-168 -121 -305 -226 -305 -234 -1 -8 51 -167 114 -354 64 -187 114 -342 112
-344 -3 -2 -107 71 -233 163 -368 269 -375 274 -393 264 -9 -5 -149 -105 -311
-223 -162 -118 -296 -213 -298 -212 -1 1 52 160 118 355 66 194 120 356 120
360 0 4 -91 73 -202 152 -112 80 -249 178 -306 219 l-102 74 377 5 376 5 119
349 c65 192 118 352 119 355 0 3 52 -147 114 -334 63 -187 118 -347 123 -355z"/>
</g>
</svg>
