<?xml version="1.0" standalone="no"?>
<!DOCTYPE svg PUBLIC "-//W3C//DTD SVG 20010904//EN"
 "http://www.w3.org/TR/2001/REC-SVG-20010904/DTD/svg10.dtd">
<svg version="1.0" xmlns="http://www.w3.org/2000/svg"
 width="177.000000pt" height="188.000000pt" viewBox="0 0 177.000000 188.000000"
 preserveAspectRatio="xMidYMid meet">
<metadata>
Created by potrace 1.16, written by Peter Selinger 2001-2019
</metadata>
<g transform="translate(0.000000,188.000000) scale(0.100000,-0.100000)"
fill="#000000" stroke="none">
<path d="M1535 1849 c-110 -16 -359 -51 -554 -78 -245 -34 -356 -53 -362 -62
-5 -8 -8 -280 -6 -617 1 -331 1 -602 -1 -602 -2 0 -15 14 -29 30 -14 17 -49
43 -77 58 -45 24 -62 27 -146 27 -83 -1 -102 -4 -151 -28 -161 -78 -243 -241
-194 -388 23 -68 89 -140 157 -169 73 -31 199 -26 280 12 70 33 152 112 181
176 22 46 22 56 25 580 1 292 4 532 6 532 2 0 102 14 222 30 121 17 269 37
329 45 61 8 193 26 294 40 102 14 193 25 203 25 17 0 18 -20 18 -422 l0 -423
-26 33 c-58 73 -176 112 -280 93 -130 -24 -223 -92 -276 -199 -42 -85 -46
-180 -9 -254 53 -110 177 -178 303 -164 133 14 265 109 307 221 21 55 21 71
21 783 0 714 -2 757 -29 751 -4 -1 -96 -14 -206 -30z m193 -181 l-3 -163 -490
-66 c-269 -36 -509 -68 -532 -71 l-43 -6 0 162 0 163 103 12 c56 7 287 39 512
71 226 32 420 59 433 59 l22 1 -2 -162z m-131 -992 c90 -42 140 -133 130 -237
-12 -138 -118 -242 -274 -271 -79 -15 -152 6 -215 62 -155 135 -80 377 140
456 62 22 159 17 219 -10z m-1099 -142 c143 -89 158 -271 31 -395 -64 -62
-125 -91 -208 -97 -86 -6 -143 11 -192 55 -104 94 -113 229 -24 346 91 119
277 162 393 91z"/>
</g>
</svg>
