<?xml version="1.0" standalone="no"?>
<!DOCTYPE svg PUBLIC "-//W3C//DTD SVG 20010904//EN"
 "http://www.w3.org/TR/2001/REC-SVG-20010904/DTD/svg10.dtd">
<svg version="1.0" xmlns="http://www.w3.org/2000/svg"
 width="163.000000pt" height="190.000000pt" viewBox="0 0 163.000000 190.000000"
 preserveAspectRatio="xMidYMid meet">
<metadata>
Created by potrace 1.16, written by Peter Selinger 2001-2019
</metadata>
<g transform="translate(0.000000,190.000000) scale(0.100000,-0.100000)"
fill="#000000" stroke="none">
<path d="M795 1890 c-3 -5 -6 -195 -5 -422 0 -337 3 -415 14 -427 34 -33 36
-5 36 414 0 227 -3 420 -6 429 -7 18 -30 21 -39 6z"/>
<path d="M1057 1593 c-18 -18 0 -35 69 -67 285 -132 454 -395 455 -707 0 -136
-19 -218 -81 -344 -140 -287 -453 -460 -766 -424 -185 21 -328 91 -466 229
-74 75 -93 101 -136 191 -28 57 -58 136 -66 176 -21 93 -20 244 0 336 18 79
75 211 122 279 73 106 208 216 330 268 36 16 52 28 52 41 0 29 -31 24 -119
-20 -280 -141 -451 -420 -451 -736 0 -325 180 -608 473 -746 187 -87 440 -94
637 -17 163 63 335 211 417 358 74 133 96 214 101 376 4 120 1 154 -17 225
-63 250 -221 443 -451 553 -76 37 -92 41 -103 29z"/>
</g>
</svg>
