<?xml version="1.0" standalone="no"?>
<!DOCTYPE svg PUBLIC "-//W3C//DTD SVG 20010904//EN"
 "http://www.w3.org/TR/2001/REC-SVG-20010904/DTD/svg10.dtd">
<svg version="1.0" xmlns="http://www.w3.org/2000/svg"
 width="202.000000pt" height="191.000000pt" viewBox="0 0 202.000000 191.000000"
 preserveAspectRatio="xMidYMid meet">
<metadata>
Created by potrace 1.16, written by Peter Selinger 2001-2019
</metadata>
<g transform="translate(0.000000,191.000000) scale(0.100000,-0.100000)"
fill="#000000" stroke="none">
<path d="M219 1901 c-43 -9 -116 -45 -146 -73 -12 -11 -32 -43 -45 -71 l-23
-52 -3 -729 c-3 -835 -6 -803 77 -886 89 -89 44 -85 931 -85 606 0 786 3 825
13 76 20 119 53 149 114 l25 53 3 770 3 770 -22 40 c-29 55 -79 101 -133 122
-42 17 -102 18 -825 19 -429 1 -796 -1 -816 -5z m1648 -69 c24 -12 55 -41 70
-64 l28 -42 0 -765 c0 -746 -1 -767 -20 -806 -24 -49 -70 -80 -136 -94 -33 -7
-304 -11 -803 -11 -662 0 -759 2 -807 16 -73 22 -123 74 -139 146 -8 38 -10
259 -8 773 l3 720 22 42 c26 48 73 87 123 101 22 7 320 10 830 9 l795 -2 42
-23z"/>
<path d="M613 1414 c-37 -38 -68 -58 -111 -74 l-61 -22 16 -33 16 -34 50 19
c27 11 67 31 88 45 21 14 41 25 44 25 3 0 5 -209 5 -465 l0 -465 30 0 30 0 0
530 0 530 -27 -2 c-19 -1 -44 -18 -80 -54z"/>
<path d="M1019 1383 c0 -49 -2 -101 -4 -118 -5 -49 -16 -184 -21 -265 -3 -41
-7 -81 -9 -87 -3 -9 7 -13 30 -13 25 0 35 5 40 20 19 61 123 130 196 130 178
0 307 -172 264 -355 -25 -106 -100 -198 -183 -223 -129 -39 -248 12 -303 128
-25 53 -31 56 -67 37 l-22 -13 31 -63 c56 -112 163 -168 308 -159 127 8 211
68 273 197 30 61 33 74 33 166 0 89 -4 106 -28 157 -35 70 -97 134 -162 164
-86 40 -226 31 -298 -19 -16 -10 -30 -18 -32 -16 -2 2 3 74 11 159 7 85 14
164 14 175 0 19 6 20 210 19 l210 -2 0 34 0 34 -245 0 -245 0 -1 -87z"/>
</g>
</svg>
