<?xml version="1.0" standalone="no"?>
<!DOCTYPE svg PUBLIC "-//W3C//DTD SVG 20010904//EN"
 "http://www.w3.org/TR/2001/REC-SVG-20010904/DTD/svg10.dtd">
<svg version="1.0" xmlns="http://www.w3.org/2000/svg"
 width="190.000000pt" height="160.000000pt" viewBox="0 0 190.000000 160.000000"
 preserveAspectRatio="xMidYMid meet">
<metadata>
Created by potrace 1.16, written by Peter Selinger 2001-2019
</metadata>
<g transform="translate(0.000000,160.000000) scale(0.100000,-0.100000)"
fill="#000000" stroke="none">
<path d="M966 1584 c-130 -31 -267 -119 -357 -228 -126 -153 -199 -371 -182
-537 l5 -56 -54 -31 c-71 -40 -133 -110 -159 -182 -19 -52 -25 -59 -54 -64
-18 -4 -51 -20 -74 -36 -113 -83 -124 -268 -20 -367 68 -64 67 -64 522 -63
287 1 429 -2 467 -11 81 -18 278 -7 365 21 148 46 297 142 375 241 40 51 51
91 28 106 -7 4 -62 8 -123 9 -128 1 -181 12 -290 64 -270 129 -400 383 -340
664 20 95 81 214 165 320 38 49 70 92 70 95 0 21 -36 50 -74 60 -61 15 -198
13 -270 -5z m236 -53 l26 -6 -63 -83 c-69 -92 -126 -205 -150 -297 -18 -69
-20 -230 -4 -307 27 -129 126 -279 242 -365 134 -98 249 -141 407 -150 l104
-6 -54 -49 c-176 -158 -394 -230 -603 -202 l-46 7 23 18 c39 31 76 116 76 175
0 104 -84 208 -178 221 -31 4 -42 10 -42 23 0 32 -61 139 -100 174 -75 67
-133 89 -247 94 l-103 4 0 72 c0 108 24 200 81 316 44 89 65 117 133 185 103
103 189 149 331 179 30 6 137 4 167 -3z m-477 -846 c70 -36 127 -104 146 -174
16 -59 35 -81 72 -81 46 0 96 -29 125 -73 56 -84 22 -202 -73 -251 -38 -20
-57 -21 -405 -24 -254 -2 -378 0 -407 8 -45 13 -96 59 -112 103 -36 96 21 211
115 232 16 4 36 9 45 11 9 3 26 32 39 67 53 147 162 220 321 215 61 -2 87 -9
134 -33z"/>
<path d="M1633 1184 c-3 -8 2 -42 12 -74 34 -111 10 -176 -92 -251 -66 -49
-68 -72 -8 -106 58 -33 118 -39 180 -19 61 19 135 80 159 130 33 71 14 170
-49 244 -58 70 -186 118 -202 76z m168 -143 c41 -64 40 -127 -1 -175 -41 -46
-105 -76 -163 -76 -26 0 -47 1 -47 3 0 2 26 30 58 63 42 43 62 72 71 106 13
47 11 106 -4 142 -16 37 56 -15 86 -63z"/>
</g>
</svg>
