<?xml version="1.0" standalone="no"?>
<!DOCTYPE svg PUBLIC "-//W3C//DTD SVG 20010904//EN"
 "http://www.w3.org/TR/2001/REC-SVG-20010904/DTD/svg10.dtd">
<svg version="1.0" xmlns="http://www.w3.org/2000/svg"
 width="168.000000pt" height="217.000000pt" viewBox="0 0 168.000000 217.000000"
 preserveAspectRatio="xMidYMid meet">
<metadata>
Created by potrace 1.16, written by Peter Selinger 2001-2019
</metadata>
<g transform="translate(0.000000,217.000000) scale(0.100000,-0.100000)"
fill="#000000" stroke="none">
<path d="M232 2158 c-8 -8 -12 -44 -12 -99 0 -78 2 -89 21 -103 20 -14 21 -21
17 -113 -7 -127 -25 -167 -126 -276 -56 -61 -87 -104 -104 -144 l-23 -58 -3
-628 c-3 -696 -5 -677 62 -718 29 -17 55 -19 348 -19 l317 0 35 31 c20 17 40
47 46 67 13 50 13 1155 0 1240 -16 94 -45 148 -132 238 -98 102 -119 148 -126
271 -4 86 -3 94 17 110 20 17 22 26 19 113 l-3 95 -170 3 c-124 2 -174 -1
-183 -10z m312 -100 l-2 -63 -136 -3 -136 -3 0 66 0 65 138 0 137 0 -1 -62z
m-42 -144 c-6 -55 17 -192 40 -241 12 -26 57 -84 100 -129 43 -45 88 -103 100
-130 l23 -49 3 -620 c2 -458 0 -626 -9 -648 -23 -54 -40 -57 -359 -57 l-292 0
-29 30 -30 29 3 638 3 638 24 49 c14 27 58 85 99 128 40 44 82 99 93 122 20
47 38 153 39 229 l0 48 98 -3 97 -3 -3 -31z"/>
<path d="M1042 1258 c-17 -23 -62 -310 -62 -401 0 -183 96 -312 263 -353 l67
-17 0 -223 0 -223 -122 -3 c-108 -3 -123 -5 -126 -20 -3 -17 15 -18 268 -18
253 0 271 1 268 17 -3 16 -18 18 -126 21 l-122 3 0 223 c0 242 -1 236 54 236
38 0 142 58 181 102 96 106 113 213 70 463 -15 88 -31 170 -36 183 l-9 22
-279 0 c-211 0 -281 -3 -289 -12z m538 -40 c0 -2 11 -66 25 -142 46 -256 32
-350 -64 -447 -72 -71 -132 -94 -235 -87 -116 8 -203 65 -253 166 -25 51 -28
67 -27 152 1 76 31 289 49 348 3 9 63 12 255 12 137 0 250 -1 250 -2z"/>
</g>
</svg>
