<?xml version="1.0" standalone="no"?>
<!DOCTYPE svg PUBLIC "-//W3C//DTD SVG 20010904//EN"
 "http://www.w3.org/TR/2001/REC-SVG-20010904/DTD/svg10.dtd">
<svg version="1.0" xmlns="http://www.w3.org/2000/svg"
 width="131.000000pt" height="110.000000pt" viewBox="0 0 131.000000 110.000000"
 preserveAspectRatio="xMidYMid meet">
<metadata>
Created by potrace 1.16, written by Peter Selinger 2001-2019
</metadata>
<g transform="translate(0.000000,110.000000) scale(0.100000,-0.100000)"
fill="#000000" stroke="none">
<path d="M223 876 c-132 -132 -223 -231 -223 -242 0 -24 469 -494 493 -494 9
0 17 6 17 13 0 8 -98 111 -217 230 l-218 217 370 0 c410 0 437 -3 549 -63 160
-85 265 -275 266 -484 0 -46 13 -61 35 -43 33 28 4 218 -51 330 -45 91 -152
201 -234 242 -119 59 -143 62 -558 67 l-382 6 205 205 c193 192 230 240 188
240 -10 0 -118 -101 -240 -224z"/>
</g>
</svg>
