<?xml version="1.0" standalone="no"?>
<!DOCTYPE svg PUBLIC "-//W3C//DTD SVG 20010904//EN"
 "http://www.w3.org/TR/2001/REC-SVG-20010904/DTD/svg10.dtd">
<svg version="1.0" xmlns="http://www.w3.org/2000/svg"
 width="104.000000pt" height="125.000000pt" viewBox="0 0 104.000000 125.000000"
 preserveAspectRatio="xMidYMid meet">
<metadata>
Created by potrace 1.16, written by Peter Selinger 2001-2019
</metadata>
<g transform="translate(0.000000,125.000000) scale(0.100000,-0.100000)"
fill="#000000" stroke="none">
<path d="M335 1226 c-103 -47 -154 -127 -155 -237 0 -78 34 -157 101 -233 23
-26 40 -48 38 -50 -2 -2 -46 -32 -97 -67 -166 -111 -228 -209 -220 -345 8
-123 79 -219 197 -266 80 -31 211 -31 303 1 71 24 186 94 253 154 l40 36 101
-105 c98 -103 130 -122 142 -86 2 7 -43 61 -101 120 l-106 107 41 85 c67 140
118 262 118 282 0 10 -7 18 -15 18 -9 0 -45 -62 -96 -170 -45 -94 -85 -170
-88 -169 -8 1 -375 387 -378 397 -2 4 16 20 39 36 78 56 167 147 192 199 27
54 35 133 17 180 -16 40 -73 99 -116 118 -58 27 -147 25 -210 -5z m194 -41
c39 -20 78 -69 90 -112 14 -49 0 -100 -42 -155 -39 -50 -187 -179 -203 -175
-20 4 -97 101 -120 152 -55 118 -8 248 106 294 38 15 137 13 169 -4z m-47
-642 c68 -71 159 -165 202 -210 l78 -81 -76 -61 c-129 -102 -255 -149 -368
-137 -149 15 -253 112 -265 246 -5 53 -2 67 25 122 17 35 48 79 69 99 32 31
198 149 209 149 2 0 59 -57 126 -127z"/>
</g>
</svg>
