<?xml version="1.0" standalone="no"?>
<!DOCTYPE svg PUBLIC "-//W3C//DTD SVG 20010904//EN"
 "http://www.w3.org/TR/2001/REC-SVG-20010904/DTD/svg10.dtd">
<svg version="1.0" xmlns="http://www.w3.org/2000/svg"
 width="112.000000pt" height="226.000000pt" viewBox="0 0 112.000000 226.000000"
 preserveAspectRatio="xMidYMid meet">
<metadata>
Created by potrace 1.16, written by Peter Selinger 2001-2019
</metadata>
<g transform="translate(0.000000,226.000000) scale(0.100000,-0.100000)"
fill="#000000" stroke="none">
<path d="M274 2246 c-3 -7 5 -32 17 -55 37 -71 36 -153 -1 -341 -52 -260 -36
-364 67 -449 43 -36 130 -71 173 -71 l30 0 0 -342 0 -343 -47 84 c-56 98 -150
204 -237 265 -103 73 -248 138 -267 119 -5 -5 10 -55 37 -118 135 -331 244
-472 436 -563 l77 -37 3 -195 c3 -165 5 -195 18 -195 13 0 15 25 18 155 l3
154 78 81 c123 127 199 250 347 566 93 199 102 223 85 233 -12 8 -111 -27
-183 -66 -110 -58 -251 -209 -304 -323 l-23 -50 2 285 2 285 46 6 c97 14 182
78 229 171 40 82 40 158 -1 361 -36 176 -36 255 0 325 12 24 20 50 17 58 -14
36 -167 -3 -255 -65 l-55 -38 -55 39 c-87 61 -243 100 -257 64z m175 -67 c68
-30 182 -152 225 -241 82 -171 89 -366 16 -468 -39 -55 -97 -90 -149 -90 -98
0 -207 83 -230 175 -16 64 -14 90 21 263 36 181 41 296 15 356 l-17 38 38 -7
c20 -3 57 -15 81 -26z m374 -6 c-25 -60 -20 -168 16 -348 36 -176 36 -236 3
-302 -22 -43 -84 -103 -131 -127 -45 -24 -47 -20 -8 23 20 22 42 52 50 68 19
37 37 123 37 179 0 117 -60 291 -135 394 l-36 49 46 31 c56 39 123 69 152 70
22 0 22 -1 6 -37z m227 -1047 c0 -12 -149 -322 -193 -401 -85 -154 -220 -335
-249 -335 -7 0 -9 37 -5 113 9 203 62 321 207 468 71 72 111 104 160 127 64
31 80 36 80 28z m-905 -107 c130 -64 247 -176 327 -313 61 -104 109 -256 82
-256 -3 0 -36 16 -74 35 -126 67 -225 176 -305 335 -47 93 -106 230 -99 230 2
0 33 -14 69 -31z"/>
</g>
</svg>
