<?xml version="1.0" standalone="no"?>
<!DOCTYPE svg PUBLIC "-//W3C//DTD SVG 20010904//EN"
 "http://www.w3.org/TR/2001/REC-SVG-20010904/DTD/svg10.dtd">
<svg version="1.0" xmlns="http://www.w3.org/2000/svg"
 width="59.000000pt" height="201.000000pt" viewBox="0 0 59.000000 201.000000"
 preserveAspectRatio="xMidYMid meet">
<metadata>
Created by potrace 1.16, written by Peter Selinger 2001-2019
</metadata>
<g transform="translate(0.000000,201.000000) scale(0.100000,-0.100000)"
fill="#000000" stroke="none">
<path d="M175 1986 c-216 -102 -228 -400 -20 -521 22 -13 57 -27 78 -30 l37
-7 0 -419 c0 -392 -1 -419 -17 -419 -29 0 -117 -45 -157 -80 -61 -54 -90 -121
-90 -210 0 -121 56 -215 157 -267 145 -73 320 -15 394 131 36 69 38 178 5 251
-40 88 -120 154 -205 170 l-37 7 0 418 0 418 37 7 c129 24 221 130 231 266 9
123 -55 235 -163 285 -71 33 -180 33 -250 0z m194 -32 c185 -55 232 -283 86
-412 -149 -131 -378 -40 -402 158 -7 63 16 128 65 182 40 44 73 64 129 77 55
13 64 13 122 -5z m2 -1425 c50 -15 103 -60 134 -114 88 -150 -13 -344 -188
-362 -45 -5 -64 -1 -108 19 -96 44 -149 118 -157 218 -3 46 1 64 25 109 59
113 177 165 294 130z"/>
</g>
</svg>
