<?xml version="1.0" standalone="no"?>
<!DOCTYPE svg PUBLIC "-//W3C//DTD SVG 20010904//EN"
 "http://www.w3.org/TR/2001/REC-SVG-20010904/DTD/svg10.dtd">
<svg version="1.0" xmlns="http://www.w3.org/2000/svg"
 width="192.000000pt" height="232.000000pt" viewBox="0 0 192.000000 232.000000"
 preserveAspectRatio="xMidYMid meet">
<metadata>
Created by potrace 1.16, written by Peter Selinger 2001-2019
</metadata>
<g transform="translate(0.000000,232.000000) scale(0.100000,-0.100000)"
fill="#000000" stroke="none">
<path d="M164 2310 c-53 -12 -103 -49 -132 -98 l-27 -47 -3 -988 c-2 -685 1
-1001 8 -1029 15 -55 83 -121 140 -137 34 -9 231 -11 835 -9 869 3 815 -1 877
65 61 64 58 9 58 1095 0 944 -1 995 -19 1034 -23 51 -81 99 -137 113 -49 13
-1548 14 -1600 1z m1588 -102 c21 -9 44 -31 55 -50 17 -31 18 -85 18 -1003 0
-924 -1 -972 -18 -999 -38 -57 -19 -56 -847 -56 -645 0 -766 2 -796 15 -68 28
-65 -24 -62 1059 3 956 3 974 23 996 27 30 52 43 100 51 22 4 366 6 765 5 654
-1 729 -3 762 -18z"/>
<path d="M748 1789 c-25 -14 -22 -55 4 -73 19 -14 76 -16 423 -16 416 0 434 2
459 43 9 15 7 22 -13 38 -22 18 -42 19 -440 19 -264 0 -422 -4 -433 -11z"/>
<path d="M766 1214 c-22 -22 -20 -50 6 -68 19 -14 76 -16 420 -16 l397 0 28
25 28 25 -28 25 -28 25 -404 0 c-354 0 -406 -2 -419 -16z"/>
<path d="M752 634 c-27 -19 -28 -38 -2 -64 19 -19 33 -20 434 -20 l415 0 26
23 c32 27 26 51 -17 66 -20 7 -173 11 -432 11 -347 0 -405 -2 -424 -16z"/>
</g>
</svg>
