<?xml version="1.0" standalone="no"?>
<!DOCTYPE svg PUBLIC "-//W3C//DTD SVG 20010904//EN"
 "http://www.w3.org/TR/2001/REC-SVG-20010904/DTD/svg10.dtd">
<svg version="1.0" xmlns="http://www.w3.org/2000/svg"
 width="153.000000pt" height="221.000000pt" viewBox="0 0 153.000000 221.000000"
 preserveAspectRatio="xMidYMid meet">
<metadata>
Created by potrace 1.16, written by Peter Selinger 2001-2019
</metadata>
<g transform="translate(0.000000,221.000000) scale(0.100000,-0.100000)"
fill="#000000" stroke="none">
<path d="M708 2200 c-75 -13 -170 -48 -234 -86 -130 -78 -254 -237 -289 -369
-8 -33 -15 -101 -15 -157 0 -53 -5 -110 -12 -125 -7 -15 -40 -71 -73 -123 -81
-125 -85 -133 -85 -174 0 -48 27 -73 87 -81 74 -10 71 -6 61 -82 -6 -50 -4
-81 6 -118 8 -27 17 -78 19 -112 6 -76 30 -122 77 -145 28 -14 61 -18 165 -18
l131 0 31 -82 c31 -80 63 -183 63 -200 0 -5 -15 2 -33 16 -72 55 -150 71 -180
38 -37 -41 -46 -233 -16 -321 10 -28 15 -31 50 -31 47 0 123 36 162 78 l29 30
36 -40 c70 -78 143 -89 164 -26 3 7 28 -5 68 -32 58 -40 65 -42 86 -29 45 28
434 391 434 405 0 18 -95 208 -123 246 -19 26 -22 43 -22 126 0 118 14 163 91
293 114 192 148 312 142 504 -4 117 -8 138 -36 210 -80 201 -264 356 -474 399
-81 17 -229 19 -310 6z m372 -65 c245 -90 396 -294 407 -550 8 -166 -31 -299
-138 -477 -32 -53 -67 -123 -79 -157 -22 -66 -30 -178 -17 -256 l8 -50 -113
-79 c-62 -44 -155 -111 -206 -148 -74 -55 -96 -67 -107 -58 -17 14 -74 -2
-116 -31 l-26 -18 -22 79 c-12 43 -34 111 -50 150 l-29 70 27 0 c33 0 55 14
49 30 -3 10 -46 13 -189 11 -134 -1 -191 2 -209 11 -36 19 -60 74 -60 139 0
31 -7 72 -15 92 -12 28 -12 51 -4 123 11 99 8 104 -53 104 -42 0 -89 16 -100
33 -10 16 13 65 80 166 75 113 92 162 91 272 0 47 5 108 12 135 34 140 159
295 296 367 118 62 195 78 353 73 117 -3 145 -7 210 -31z m270 -1624 l44 -92
-64 -57 c-35 -31 -127 -114 -204 -184 l-140 -128 -25 17 c-99 64 -89 48 -93
151 l-3 92 85 59 c47 33 143 100 214 150 70 50 131 89 135 87 3 -2 26 -45 51
-95z m-807 -182 c34 -17 78 -61 88 -87 19 -48 -41 -122 -127 -158 -54 -23 -59
-12 -59 125 0 156 8 166 98 120z m271 -25 c8 -20 8 -138 0 -187 -4 -21 -12
-37 -20 -37 -22 0 -86 62 -101 97 -18 44 1 82 59 117 51 30 54 31 62 10z"/>
<path d="M1044 1420 c-27 -10 -76 -69 -68 -81 9 -16 27 -10 56 18 56 54 142
27 168 -51 20 -62 -33 -174 -104 -217 -17 -10 -48 -19 -69 -19 -40 0 -62 -24
-36 -41 24 -15 53 -10 107 17 99 49 166 175 142 266 -24 91 -115 141 -196 108z"/>
</g>
</svg>
