<?xml version="1.0" standalone="no"?>
<!DOCTYPE svg PUBLIC "-//W3C//DTD SVG 20010904//EN"
 "http://www.w3.org/TR/2001/REC-SVG-20010904/DTD/svg10.dtd">
<svg version="1.0" xmlns="http://www.w3.org/2000/svg"
 width="176.000000pt" height="162.000000pt" viewBox="0 0 176.000000 162.000000"
 preserveAspectRatio="xMidYMid meet">
<metadata>
Created by potrace 1.16, written by Peter Selinger 2001-2019
</metadata>
<g transform="translate(0.000000,162.000000) scale(0.100000,-0.100000)"
fill="#000000" stroke="none">
<path d="M765 1614 c-324 -53 -591 -323 -630 -639 -7 -53 -12 -63 -53 -99 -62
-56 -82 -103 -82 -197 0 -61 5 -85 26 -128 26 -52 74 -96 131 -120 19 -8 37
-30 56 -69 79 -161 238 -282 442 -334 73 -19 116 -23 225 -22 160 0 255 21
383 85 103 52 216 162 267 261 27 53 42 70 75 86 94 46 140 112 151 218 5 46
1 71 -15 115 -21 55 -68 113 -99 123 -13 4 -22 30 -33 94 -31 168 -103 304
-221 420 -98 97 -196 155 -313 186 -60 17 -253 29 -310 20z m318 -72 c183 -66
328 -192 412 -360 33 -67 85 -239 85 -283 0 -10 20 -32 44 -50 53 -37 78 -84
84 -155 8 -98 -36 -171 -128 -214 -47 -22 -56 -31 -87 -95 -50 -98 -162 -209
-263 -257 -223 -108 -499 -109 -713 -2 -114 57 -196 140 -269 268 -26 46 -44
65 -83 87 -72 39 -104 83 -117 161 -10 57 -9 72 7 114 10 27 29 58 43 69 64
52 68 60 80 135 19 113 48 191 104 277 98 151 249 266 413 315 85 25 304 19
388 -10z"/>
<path d="M919 1478 c0 -7 0 -46 1 -86 2 -94 -21 -132 -97 -164 -57 -23 -61
-29 -38 -48 22 -18 79 5 131 54 l44 43 0 106 c0 100 -1 107 -20 107 -11 0 -20
-6 -21 -12z"/>
<path d="M545 864 c-30 -33 -31 -53 -4 -88 52 -66 142 14 92 82 -28 37 -57 39
-88 6z"/>
<path d="M1122 883 c-19 -8 -43 -60 -35 -80 19 -54 67 -69 103 -31 27 29 25
64 -5 93 -24 25 -37 28 -63 18z"/>
<path d="M743 480 c-27 -11 -77 -85 -68 -99 13 -22 43 -10 64 24 l20 35 105 0
105 0 27 -35 c44 -58 79 -42 43 20 -32 54 -63 65 -176 64 -54 0 -108 -4 -120
-9z"/>
</g>
</svg>
