<?xml version="1.0" standalone="no"?>
<!DOCTYPE svg PUBLIC "-//W3C//DTD SVG 20010904//EN"
 "http://www.w3.org/TR/2001/REC-SVG-20010904/DTD/svg10.dtd">
<svg version="1.0" xmlns="http://www.w3.org/2000/svg"
 width="180.000000pt" height="184.000000pt" viewBox="0 0 180.000000 184.000000"
 preserveAspectRatio="xMidYMid meet">
<metadata>
Created by potrace 1.16, written by Peter Selinger 2001-2019
</metadata>
<g transform="translate(0.000000,184.000000) scale(0.100000,-0.100000)"
fill="#000000" stroke="none">
<path d="M835 1788 c-13 -29 -30 -84 -38 -123 -7 -38 -17 -69 -20 -68 -69 18
-140 25 -232 21 -109 -4 -160 -18 -152 -41 2 -7 43 -33 91 -59 49 -26 90 -49
93 -52 2 -2 -22 -12 -54 -21 -186 -54 -370 -202 -450 -362 -58 -116 -77 -208
-70 -347 9 -198 73 -343 212 -482 69 -70 97 -90 186 -133 299 -145 592 -159
894 -42 126 48 202 98 300 196 147 146 205 286 205 494 0 202 -59 341 -204
486 -97 96 -190 154 -309 191 -68 21 -69 20 56 87 122 66 96 86 -113 87 -77 1
-131 -4 -165 -14 -27 -8 -50 -14 -50 -13 -1 1 -7 36 -13 77 -7 41 -23 95 -35
120 -20 42 -25 45 -65 48 l-43 3 -24 -53z m89 -22 c20 -42 46 -151 46 -193 0
-17 4 -34 9 -38 5 -3 43 6 85 20 59 20 94 25 173 25 l98 0 -103 -62 c-61 -37
-102 -68 -102 -78 0 -9 16 -32 36 -51 40 -38 114 -145 114 -164 0 -17 -113 20
-209 69 -40 20 -77 34 -81 31 -5 -3 -12 -22 -15 -43 -9 -55 -54 -200 -64 -206
-11 -7 -48 79 -69 162 -10 37 -21 72 -25 79 -5 9 -26 2 -75 -22 -54 -28 -202
-85 -219 -85 -14 0 60 115 103 160 30 31 54 61 54 67 0 15 -57 57 -142 103
l-73 40 97 0 c68 0 114 -6 160 -20 95 -30 108 -28 108 18 1 68 49 222 70 222
4 0 15 -15 24 -34z m-336 -373 c-71 -74 -151 -224 -131 -244 9 -9 214 61 294
102 l37 18 5 -32 c7 -46 66 -194 83 -212 32 -31 54 -18 84 48 15 34 35 89 43
121 9 32 18 60 20 62 2 3 26 -5 53 -17 70 -30 240 -89 258 -89 8 0 17 4 20 9
10 16 -71 164 -120 219 -45 52 -46 53 -18 46 141 -33 240 -90 350 -199 139
-139 194 -269 194 -459 0 -177 -56 -320 -174 -444 -245 -258 -653 -343 -1034
-215 -141 47 -210 88 -303 182 -138 139 -202 292 -202 486 -1 118 19 200 71
299 82 157 244 282 437 337 33 10 62 18 65 18 2 1 -12 -16 -32 -36z"/>
</g>
</svg>
