<?xml version="1.0" standalone="no"?>
<!DOCTYPE svg PUBLIC "-//W3C//DTD SVG 20010904//EN"
 "http://www.w3.org/TR/2001/REC-SVG-20010904/DTD/svg10.dtd">
<svg version="1.0" xmlns="http://www.w3.org/2000/svg"
 width="191.000000pt" height="275.000000pt" viewBox="0 0 191.000000 275.000000"
 preserveAspectRatio="xMidYMid meet">
<metadata>
Created by potrace 1.16, written by Peter Selinger 2001-2019
</metadata>
<g transform="translate(0.000000,275.000000) scale(0.100000,-0.100000)"
fill="#000000" stroke="none">
<path d="M163 2735 c-52 -22 -120 -92 -140 -143 -17 -44 -18 -100 -18 -832 l0
-785 23 -47 c13 -25 43 -64 67 -87 71 -65 106 -71 427 -71 l278 0 0 -374 c0
-304 3 -376 14 -385 18 -15 45 -4 51 23 3 11 4 182 3 379 l-3 357 93 0 92 0 0
-374 c0 -392 2 -406 44 -390 14 6 16 44 16 384 l0 379 303 3 302 3 53 29 c63
35 104 83 126 149 14 42 16 134 16 812 0 747 0 766 -21 819 -24 65 -96 136
-157 154 -62 19 -1526 16 -1569 -3z m1566 -65 c48 -24 98 -83 111 -130 6 -21
10 -329 10 -786 l0 -750 -27 -55 c-21 -40 -40 -61 -77 -84 l-49 -30 -706 -3
c-505 -2 -721 0 -759 8 -61 13 -113 54 -143 111 -18 37 -19 66 -19 814 0 743
1 777 19 813 22 42 52 72 96 95 27 14 115 16 768 17 715 0 739 -1 776 -20z"/>
<path d="M862 2383 c-45 -43 -83 -86 -82 -96 0 -37 30 -30 90 22 l60 52 2
-238 3 -238 33 -3 32 -3 -2 288 -3 288 -25 3 c-19 1 -44 -16 -108 -75z"/>
<path d="M317 1593 c-4 -3 -7 -109 -7 -235 l0 -229 28 3 27 3 0 163 c0 89 1
162 2 162 0 0 26 -52 57 -115 71 -148 77 -149 139 -16 26 54 47 104 47 110 0
6 3 11 8 11 4 0 7 -71 7 -157 l0 -158 28 -3 27 -3 -2 233 -3 233 -24 0 c-22 0
-32 -15 -84 -130 -32 -71 -62 -133 -66 -138 -4 -4 -34 50 -66 120 -32 71 -63
134 -68 141 -10 13 -39 16 -50 5z"/>
<path d="M821 1587 c-8 -11 -11 -77 -9 -233 l3 -219 28 -3 27 -3 -2 233 c-3
204 -5 233 -19 236 -9 1 -21 -4 -28 -11z"/>
<path d="M1015 1591 c-6 -6 -9 -102 -7 -235 l3 -226 123 0 c105 0 125 2 130
16 13 33 -12 44 -105 44 l-89 0 0 193 c0 191 -4 217 -35 217 -6 0 -15 -4 -20
-9z"/>
<path d="M1364 1587 c-2 -7 -3 -111 -2 -232 l3 -220 121 -3 c106 -2 122 0 128
14 13 33 -12 44 -105 44 l-89 0 0 70 0 70 80 0 c63 0 82 3 86 15 12 32 -15 45
-92 45 l-74 0 0 75 0 75 94 0 c98 0 113 7 94 43 -7 15 -24 17 -124 17 -84 0
-116 -3 -120 -13z"/>
</g>
</svg>
