<?xml version="1.0" standalone="no"?>
<!DOCTYPE svg PUBLIC "-//W3C//DTD SVG 20010904//EN"
 "http://www.w3.org/TR/2001/REC-SVG-20010904/DTD/svg10.dtd">
<svg version="1.0" xmlns="http://www.w3.org/2000/svg"
 width="182.000000pt" height="252.000000pt" viewBox="0 0 182.000000 252.000000"
 preserveAspectRatio="xMidYMid meet">
<metadata>
Created by potrace 1.16, written by Peter Selinger 2001-2019
</metadata>
<g transform="translate(0.000000,252.000000) scale(0.100000,-0.100000)"
fill="#000000" stroke="none">
<path d="M350 2502 c-162 -42 -295 -172 -335 -327 -19 -76 -19 -214 0 -290 37
-142 135 -296 288 -453 198 -203 564 -522 598 -522 40 0 333 246 549 461 288
286 395 503 363 734 -36 253 -264 432 -526 412 -133 -10 -231 -59 -327 -163
l-54 -59 -71 70 c-38 39 -93 83 -121 97 -108 58 -240 72 -364 40z m246 -36
c85 -22 150 -65 231 -149 l75 -79 82 83 c112 116 203 158 341 159 123 0 226
-41 317 -128 69 -65 102 -120 123 -198 69 -265 -76 -522 -516 -920 -121 -109
-274 -237 -326 -271 -22 -14 -27 -12 -90 39 -209 170 -552 499 -633 608 -114
154 -162 277 -161 417 0 146 35 235 127 326 108 107 282 153 430 113z"/>
<path d="M1242 25 c0 -17 2 -22 5 -12 2 9 2 23 0 30 -3 6 -5 -1 -5 -18z"/>
</g>
</svg>
