<?xml version="1.0" standalone="no"?>
<!DOCTYPE svg PUBLIC "-//W3C//DTD SVG 20010904//EN"
 "http://www.w3.org/TR/2001/REC-SVG-20010904/DTD/svg10.dtd">
<svg version="1.0" xmlns="http://www.w3.org/2000/svg"
 width="200.000000pt" height="170.000000pt" viewBox="0 0 200.000000 170.000000"
 preserveAspectRatio="xMidYMid meet">
<metadata>
Created by potrace 1.16, written by Peter Selinger 2001-2019
</metadata>
<g transform="translate(0.000000,170.000000) scale(0.100000,-0.100000)"
fill="#000000" stroke="none">
<path d="M7 1694 c-4 -4 -7 -387 -7 -851 0 -836 0 -843 20 -843 19 0 20 7 20
115 l0 114 87 3 c74 3 88 6 91 21 3 15 -6 17 -87 17 l-91 0 0 140 0 140 91 0
c81 0 90 2 87 18 -3 14 -17 17 -91 20 l-87 3 0 134 0 134 88 3 c69 2 87 6 87
18 0 12 -18 16 -87 18 l-88 3 0 134 0 135 91 0 c81 0 90 2 87 18 -3 15 -16 17
-91 17 l-87 0 0 133 0 132 960 0 960 0 0 -133 0 -133 -82 3 c-83 4 -117 -5
-104 -26 5 -7 42 -11 97 -11 l89 0 0 -135 0 -134 -92 -3 c-75 -2 -93 -6 -93
-18 0 -12 18 -16 93 -18 l92 -3 0 -134 0 -134 -92 -3 c-75 -2 -93 -6 -93 -18
0 -12 18 -16 93 -18 l92 -3 0 -139 0 -139 -92 -3 c-75 -2 -93 -6 -93 -18 0
-12 18 -16 93 -18 l92 -3 0 -114 c0 -108 1 -115 20 -115 20 0 20 5 18 848 -3
745 -5 847 -18 847 -12 0 -16 -18 -18 -92 l-3 -93 -139 0 -139 0 -3 93 c-2 74
-6 92 -18 92 -12 0 -16 -18 -18 -92 l-3 -93 -634 0 -634 0 -3 93 c-2 74 -6 92
-18 92 -12 0 -16 -18 -18 -92 l-3 -93 -144 0 -144 0 -3 92 c-3 84 -12 111 -31
92z"/>
<path d="M395 1341 c-11 -5 -29 -19 -40 -31 -19 -21 -20 -38 -23 -463 -2 -320
1 -449 9 -470 24 -58 13 -57 666 -57 537 0 601 2 622 16 49 35 51 54 51 491 0
256 -4 422 -11 446 -7 26 -21 44 -42 57 -31 19 -55 20 -622 19 -324 0 -599 -4
-610 -8z m1224 -57 c21 -26 21 -37 21 -455 0 -414 -1 -430 -20 -449 -11 -11
-30 -22 -42 -25 -13 -3 -281 -4 -596 -3 l-574 3 -19 24 c-18 22 -19 45 -19
451 0 417 0 428 21 454 l20 26 594 0 594 0 20 -26z"/>
<path d="M355 175 c-22 -21 -25 -33 -25 -100 0 -68 2 -75 20 -75 18 0 20 7 20
68 0 40 5 73 12 80 9 9 161 12 625 12 701 0 633 11 633 -100 0 -53 2 -61 18
-58 14 3 17 15 17 77 0 67 -2 75 -28 97 l-28 24 -620 0 -620 0 -24 -25z"/>
</g>
</svg>
