<?xml version="1.0" standalone="no"?>
<!DOCTYPE svg PUBLIC "-//W3C//DTD SVG 20010904//EN"
 "http://www.w3.org/TR/2001/REC-SVG-20010904/DTD/svg10.dtd">
<svg version="1.0" xmlns="http://www.w3.org/2000/svg"
 width="183.000000pt" height="175.000000pt" viewBox="0 0 183.000000 175.000000"
 preserveAspectRatio="xMidYMid meet">
<metadata>
Created by potrace 1.16, written by Peter Selinger 2001-2019
</metadata>
<g transform="translate(0.000000,175.000000) scale(0.100000,-0.100000)"
fill="#000000" stroke="none">
<path d="M1063 1733 c-4 -9 1 -121 10 -247 40 -540 17 -628 -204 -757 -41 -23
-174 -102 -296 -175 l-222 -133 -127 -21 c-173 -29 -207 -49 -221 -133 -13
-81 34 -167 92 -167 15 0 41 -12 58 -26 26 -22 38 -25 78 -22 35 4 53 0 70
-13 28 -22 93 -24 129 -5 22 13 27 12 53 -10 34 -29 80 -31 158 -7 31 9 94 17
149 18 86 1 108 6 235 51 l140 49 225 0 c239 0 267 4 342 52 21 13 50 42 65
65 27 40 28 47 27 162 0 113 -3 128 -37 226 -75 211 -84 356 -51 832 13 199
14 251 4 263 -11 13 -61 15 -342 15 -300 0 -329 -1 -335 -17z m647 -65 c0 -24
-7 -133 -15 -243 -17 -234 -19 -484 -5 -572 6 -34 22 -99 36 -145 14 -45 34
-112 45 -148 26 -85 30 -223 7 -265 -23 -42 -66 -81 -113 -102 -35 -15 -71
-18 -270 -18 l-230 0 -145 -50 c-132 -45 -154 -49 -245 -51 -64 -1 -116 -7
-144 -18 -51 -19 -112 -21 -129 -4 -35 35 -1 97 68 127 35 15 48 26 44 36 -4
10 -14 13 -33 9 -64 -16 -101 -47 -126 -107 -18 -42 -40 -57 -89 -57 -27 0
-40 6 -52 25 -34 51 13 123 96 145 42 11 51 26 24 37 -27 10 -98 -18 -131 -53
-19 -21 -35 -51 -40 -77 -8 -39 -11 -42 -44 -45 -44 -4 -63 16 -62 66 1 45 52
96 112 112 51 13 56 40 9 40 -71 -1 -158 -79 -158 -141 0 -38 -31 -39 -59 -3
-28 35 -28 102 -1 137 25 31 54 41 193 63 l109 17 221 132 c122 72 260 154
307 181 229 133 263 244 225 739 -8 105 -15 209 -15 233 l0 42 305 0 305 0 0
-42z"/>
</g>
</svg>
