<?xml version="1.0" standalone="no"?>
<!DOCTYPE svg PUBLIC "-//W3C//DTD SVG 20010904//EN"
 "http://www.w3.org/TR/2001/REC-SVG-20010904/DTD/svg10.dtd">
<svg version="1.0" xmlns="http://www.w3.org/2000/svg"
 width="281.000000pt" height="237.000000pt" viewBox="0 0 281.000000 237.000000"
 preserveAspectRatio="xMidYMid meet">
<metadata>
Created by potrace 1.16, written by Peter Selinger 2001-2019
</metadata>
<g transform="translate(0.000000,237.000000) scale(0.100000,-0.100000)"
fill="#000000" stroke="none">
<path d="M227 2363 c-21 -35 -208 -489 -218 -526 -28 -114 15 -244 108 -326
l53 -46 0 -717 0 -717 22 -15 c34 -24 2402 -24 2436 0 l22 15 0 717 0 717 52
50 c31 30 63 74 81 112 27 58 29 71 25 151 -4 86 -5 90 -114 337 l-111 250
-1176 3 c-647 1 -1178 -1 -1180 -5z m2406 -293 c100 -223 101 -226 101 -305 1
-70 -2 -86 -26 -126 -59 -101 -151 -154 -268 -154 -150 0 -266 93 -305 244
-21 83 -67 82 -84 -1 -16 -72 -53 -131 -112 -178 -175 -138 -427 -52 -484 166
-17 68 -25 77 -56 72 -18 -2 -25 -13 -34 -48 -40 -153 -163 -254 -310 -254
-148 0 -265 97 -300 249 -10 45 -14 50 -40 50 -26 0 -29 -5 -45 -61 -41 -150
-148 -237 -295 -238 -120 -1 -222 60 -272 162 -49 99 -42 140 62 382 48 113
94 220 101 238 l14 32 1126 -2 1126 -3 101 -225z m-1133 -564 c23 -21 68 -50
99 -65 48 -22 69 -26 151 -26 82 0 103 4 152 27 63 29 137 93 169 144 l21 35
38 -54 c45 -62 123 -119 197 -142 53 -17 178 -17 231 0 l22 7 0 -681 0 -681
-150 0 -150 0 0 513 c0 427 -2 516 -14 533 -14 18 -31 19 -300 22 -276 3 -285
3 -305 -17 -21 -21 -21 -29 -21 -536 l0 -515 -700 0 -700 0 0 680 0 680 28 -7
c15 -5 65 -8 112 -8 71 0 95 5 142 27 63 29 151 106 175 151 l14 29 34 -47
c40 -58 86 -96 157 -132 47 -25 63 -28 153 -28 89 0 106 3 155 27 71 35 131
86 166 142 l28 44 26 -42 c15 -22 46 -58 70 -80z m710 -936 l0 -500 -250 0
-250 0 0 500 0 500 250 0 250 0 0 -500z"/>
<path d="M592 1130 c-39 -16 -43 -48 -40 -358 l3 -294 24 -19 c23 -19 39 -19
347 -16 247 2 326 6 338 16 14 12 16 54 16 332 0 317 0 318 -22 333 -19 14
-67 16 -333 15 -170 0 -320 -4 -333 -9z m618 -340 l0 -280 -292 2 -293 3 -1
270 c0 149 1 273 3 278 2 4 134 7 294 7 l289 0 0 -280z"/>
</g>
</svg>
