<?xml version="1.0" standalone="no"?>
<!DOCTYPE svg PUBLIC "-//W3C//DTD SVG 20010904//EN"
 "http://www.w3.org/TR/2001/REC-SVG-20010904/DTD/svg10.dtd">
<svg version="1.0" xmlns="http://www.w3.org/2000/svg"
 width="236.000000pt" height="127.000000pt" viewBox="0 0 236.000000 127.000000"
 preserveAspectRatio="xMidYMid meet">
<metadata>
Created by potrace 1.16, written by Peter Selinger 2001-2019
</metadata>
<g transform="translate(0.000000,127.000000) scale(0.100000,-0.100000)"
fill="#000000" stroke="none">
<path d="M370 1248 c-63 -32 -94 -92 -86 -168 4 -30 7 -66 9 -80 l2 -25 -145
-5 -145 -5 0 -480 0 -480 157 -3 c196 -3 204 2 178 115 -18 78 23 133 101 133
86 0 124 -59 100 -156 -10 -39 -9 -50 4 -70 15 -24 17 -24 184 -24 l169 0 6
26 c4 14 6 96 6 182 l-2 157 85 -4 c137 -5 187 37 187 158 0 77 -23 121 -76
146 -35 17 -55 17 -172 3 l-24 -3 2 141 c1 108 -2 143 -13 152 -8 7 -68 13
-153 14 -109 2 -138 6 -136 16 34 165 -17 267 -140 278 -43 4 -62 1 -98 -18z
m150 -57 c38 -27 54 -85 41 -144 -16 -69 -14 -91 10 -113 18 -17 37 -19 150
-19 l129 0 0 -130 c0 -104 3 -135 16 -154 18 -24 11 -24 151 -5 49 6 54 5 83
-24 26 -26 30 -38 30 -82 0 -44 -4 -56 -31 -82 -29 -30 -32 -30 -92 -23 -89
10 -117 8 -138 -11 -17 -15 -19 -34 -19 -186 l0 -168 -129 0 -130 0 6 68 c4
53 2 77 -12 105 -48 102 -207 110 -279 14 -22 -30 -29 -105 -13 -159 l7 -28
-125 0 -125 0 0 429 0 429 129 3 c112 4 132 7 151 24 20 18 22 25 15 80 -13
93 -10 123 12 153 38 51 110 61 163 23z"/>
<path d="M1202 1258 c-9 -9 -12 -69 -12 -208 0 -240 2 -246 90 -236 48 6 60 3
83 -14 53 -42 58 -123 10 -180 -23 -28 -30 -30 -93 -30 -45 0 -71 -5 -79 -14
-8 -9 -11 -72 -9 -202 l3 -189 450 0 450 0 3 182 2 182 78 -5 c65 -5 82 -2
108 14 43 28 68 85 69 157 0 71 -23 118 -76 153 -29 20 -43 23 -89 19 -30 -3
-63 -8 -72 -12 -17 -7 -18 6 -18 188 0 168 -2 196 -16 201 -9 3 -84 6 -168 6
-194 0 -191 2 -187 -114 2 -80 1 -87 -23 -111 -36 -36 -106 -35 -143 1 -24 25
-25 29 -19 104 7 71 5 81 -13 99 -19 19 -33 21 -169 21 -102 0 -152 -4 -160
-12z m291 -85 c-18 -87 4 -160 56 -188 52 -26 104 -29 153 -7 60 26 83 73 82
165 l-1 67 133 0 134 0 0 -178 c0 -167 1 -180 20 -197 19 -17 26 -17 83 -6
103 20 147 -16 147 -122 0 -45 -5 -62 -24 -84 -24 -27 -27 -28 -123 -28 l-98
0 -3 -182 -2 -183 -405 0 -405 0 0 155 0 155 64 0 c75 0 108 20 137 84 37 81
12 186 -53 226 -27 17 -44 20 -90 17 l-58 -5 0 174 0 174 130 0 131 0 -8 -37z"/>
</g>
</svg>
