<?xml version="1.0" standalone="no"?>
<!DOCTYPE svg PUBLIC "-//W3C//DTD SVG 20010904//EN"
 "http://www.w3.org/TR/2001/REC-SVG-20010904/DTD/svg10.dtd">
<svg version="1.0" xmlns="http://www.w3.org/2000/svg"
 width="214.000000pt" height="198.000000pt" viewBox="0 0 214.000000 198.000000"
 preserveAspectRatio="xMidYMid meet">
<metadata>
Created by potrace 1.16, written by Peter Selinger 2001-2019
</metadata>
<g transform="translate(0.000000,198.000000) scale(0.100000,-0.100000)"
fill="#000000" stroke="none">
<path d="M1118 1964 c-201 -48 -380 -223 -433 -424 -19 -72 -19 -220 0 -295
40 -155 158 -304 301 -378 276 -143 616 -47 777 220 204 337 23 778 -360 877
-74 19 -207 19 -285 0z m283 -70 c181 -53 331 -213 368 -392 34 -163 -13 -336
-123 -459 -200 -222 -547 -232 -757 -22 -106 106 -151 216 -151 369 0 76 5
110 25 168 56 160 179 279 347 333 72 23 217 25 291 3z"/>
<path d="M1347 1418 l-165 -173 -86 85 c-73 72 -89 83 -104 74 -36 -23 -25
-45 70 -140 70 -70 101 -94 120 -94 20 0 64 40 207 190 161 168 180 192 171
210 -6 11 -19 20 -29 20 -10 0 -89 -74 -184 -172z"/>
<path d="M390 801 c-30 -10 -107 -38 -170 -63 -63 -25 -128 -48 -145 -52 -16
-4 -40 -14 -52 -22 -23 -14 -23 -17 -23 -249 0 -291 -16 -268 190 -259 l145 7
180 -46 c368 -94 503 -120 585 -114 95 7 248 39 322 67 98 36 336 204 583 411
123 102 130 112 130 174 0 43 -5 59 -25 80 -37 39 -73 55 -127 55 -54 0 -75
-12 -272 -147 -117 -81 -213 -132 -218 -116 -12 33 -48 75 -80 91 -30 16 -71
21 -202 26 l-164 7 -147 69 c-81 38 -173 76 -205 85 -82 21 -235 19 -305 -4z
m295 -63 c22 -5 108 -42 190 -81 l150 -71 174 -6 174 -7 29 -32 c31 -34 34
-56 16 -96 -22 -49 -50 -55 -251 -55 -173 0 -192 2 -307 31 -67 17 -128 28
-136 25 -20 -8 -17 -44 5 -56 11 -5 75 -23 143 -40 113 -28 137 -30 301 -30
138 0 186 3 215 15 45 19 77 48 91 84 8 19 32 35 88 60 42 19 135 76 207 126
72 51 146 100 165 110 79 40 159 -23 121 -95 -12 -22 -145 -131 -325 -267
-252 -189 -311 -221 -483 -257 -193 -41 -204 -40 -672 76 l-245 60 -133 -6
-132 -7 0 200 c0 177 2 201 16 201 9 0 86 27 172 61 87 34 182 65 212 69 61 8
154 3 215 -12z"/>
</g>
</svg>
