<?xml version="1.0" standalone="no"?>
<!DOCTYPE svg PUBLIC "-//W3C//DTD SVG 20010904//EN"
 "http://www.w3.org/TR/2001/REC-SVG-20010904/DTD/svg10.dtd">
<svg version="1.0" xmlns="http://www.w3.org/2000/svg"
 width="203.000000pt" height="199.000000pt" viewBox="0 0 203.000000 199.000000"
 preserveAspectRatio="xMidYMid meet">
<metadata>
Created by potrace 1.16, written by Peter Selinger 2001-2019
</metadata>
<g transform="translate(0.000000,199.000000) scale(0.100000,-0.100000)"
fill="#000000" stroke="none">
<path d="M1032 1971 c-72 -27 -112 -53 -160 -105 -81 -88 -119 -200 -109 -322
l7 -72 -102 41 c-100 40 -102 40 -142 25 -105 -39 -502 -202 -513 -211 -19
-14 -19 -1255 0 -1262 6 -3 134 44 284 104 l271 110 364 -140 363 -139 355
142 c195 78 361 146 368 151 19 14 18 1235 -1 1243 -8 3 -118 -38 -246 -91
-129 -52 -237 -95 -241 -95 -5 0 1 24 12 53 41 106 34 274 -14 371 -33 66
-115 144 -187 178 -57 28 -79 32 -161 35 -75 3 -106 -1 -148 -16z m280 -68
c63 -28 134 -96 166 -160 78 -152 29 -370 -141 -623 -46 -69 -164 -220 -172
-220 -7 0 -165 220 -205 285 -24 39 -58 102 -76 140 -98 211 -82 400 42 515
109 100 251 123 386 63z m-772 -1000 l0 -578 -224 -88 c-123 -49 -232 -90
-242 -93 -18 -5 -19 13 -19 569 l0 575 235 96 c129 52 238 95 243 96 4 0 7
-260 7 -577z m170 533 l82 -33 28 -69 c28 -69 81 -168 122 -227 78 -115 212
-287 223 -287 27 0 199 225 282 369 42 74 53 86 93 102 25 9 132 53 238 97
l192 80 -2 -570 -3 -569 -335 -135 c-327 -131 -336 -134 -370 -121 l-35 13 -5
339 c-5 332 -5 340 -25 340 -20 0 -20 -8 -23 -327 -1 -181 -4 -328 -7 -328 -3
0 -474 182 -562 217 -10 4 -13 129 -13 580 0 557 1 574 19 568 10 -3 56 -20
101 -39z"/>
<path d="M1100 1754 c-74 -32 -110 -86 -110 -165 0 -71 35 -130 93 -158 185
-90 354 139 209 283 -54 54 -125 69 -192 40z m131 -67 c39 -26 64 -84 55 -123
-4 -15 -22 -42 -41 -61 -28 -28 -40 -33 -80 -33 -40 0 -52 5 -81 34 -29 29
-34 41 -34 80 0 104 97 159 181 103z"/>
</g>
</svg>
