<?xml version="1.0" standalone="no"?>
<!DOCTYPE svg PUBLIC "-//W3C//DTD SVG 20010904//EN"
 "http://www.w3.org/TR/2001/REC-SVG-20010904/DTD/svg10.dtd">
<svg version="1.0" xmlns="http://www.w3.org/2000/svg"
 width="193.000000pt" height="170.000000pt" viewBox="0 0 193.000000 170.000000"
 preserveAspectRatio="xMidYMid meet">
<metadata>
Created by potrace 1.16, written by Peter Selinger 2001-2019
</metadata>
<g transform="translate(0.000000,170.000000) scale(0.100000,-0.100000)"
fill="#000000" stroke="none">
<path d="M326 1685 c-44 -15 -100 -65 -124 -110 -9 -18 -16 -56 -16 -96 -1
-90 35 -152 113 -191 185 -94 369 65 309 266 -33 109 -167 172 -282 131z m131
-50 c47 -9 100 -72 108 -130 18 -117 -73 -208 -192 -190 -117 17 -176 158
-109 260 28 43 103 79 146 70 8 -2 29 -6 47 -10z"/>
<path d="M1512 1687 c-88 -32 -145 -116 -143 -213 2 -229 316 -297 412 -89 80
173 -91 366 -269 302z m188 -94 c80 -85 58 -218 -43 -263 -55 -26 -93 -25
-147 3 -59 30 -82 64 -88 130 -5 68 17 118 67 153 32 22 44 25 105 22 65 -4
70 -6 106 -45z"/>
<path d="M175 1170 c-69 -27 -119 -71 -149 -132 -26 -51 -26 -55 -26 -281 0
-192 3 -235 16 -264 21 -43 79 -83 121 -83 l33 0 0 -199 c0 -110 4 -202 9
-205 5 -4 16 -3 25 0 15 6 16 49 14 428 -3 413 -3 421 -23 421 -19 0 -20 -8
-23 -197 l-2 -198 -25 0 c-14 0 -39 13 -57 29 l-33 29 -3 214 c-4 236 1 268
51 325 56 63 90 73 272 73 178 0 214 -9 269 -69 l30 -31 206 0 c147 0 209 -3
218 -12 19 -19 14 -55 -10 -78 -21 -19 -34 -20 -270 -20 l-248 0 0 -454 c0
-305 3 -457 10 -461 6 -4 17 -1 25 5 13 11 15 77 15 435 0 332 3 423 13 422 6
0 113 1 235 1 l224 2 34 34 c29 29 34 41 34 79 0 34 -6 53 -24 74 l-24 28
-206 0 -205 0 -28 27 c-15 15 -50 37 -78 50 -45 20 -68 23 -210 25 -139 3
-166 0 -210 -17z"/>
<path d="M1455 1177 c-89 -30 -160 -98 -191 -184 -20 -56 -20 -453 0 -492 16
-30 80 -91 96 -91 6 0 10 -76 10 -194 0 -166 2 -195 16 -207 14 -11 18 -10 30
6 11 14 14 63 14 213 0 194 -6 232 -36 232 -24 0 -64 31 -80 61 -17 34 -20
381 -4 440 15 52 49 99 99 134 l43 30 142 0 c138 0 144 -1 184 -27 22 -15 54
-49 69 -75 l28 -48 0 -222 c0 -209 -1 -223 -21 -250 -11 -15 -34 -32 -50 -38
-56 -19 -54 -11 -54 -240 0 -216 2 -230 38 -218 9 4 12 53 12 204 0 170 2 199
15 199 26 0 94 70 106 109 7 23 9 117 7 256 -3 203 -5 223 -25 261 -26 49 -92
110 -142 132 -49 21 -251 27 -306 9z"/>
<path d="M377 414 c-4 -4 -7 -96 -7 -205 0 -155 3 -198 13 -202 34 -13 37 6
35 209 -3 170 -5 199 -18 202 -9 1 -19 0 -23 -4z"/>
<path d="M1567 413 c-4 -3 -7 -93 -7 -198 0 -165 2 -194 16 -206 14 -11 18
-10 30 6 11 14 14 60 14 196 0 98 -3 184 -6 193 -6 16 -35 22 -47 9z"/>
</g>
</svg>
