<?xml version="1.0" standalone="no"?>
<!DOCTYPE svg PUBLIC "-//W3C//DTD SVG 20010904//EN"
 "http://www.w3.org/TR/2001/REC-SVG-20010904/DTD/svg10.dtd">
<svg version="1.0" xmlns="http://www.w3.org/2000/svg"
 width="196.000000pt" height="189.000000pt" viewBox="0 0 196.000000 189.000000"
 preserveAspectRatio="xMidYMid meet">
<metadata>
Created by potrace 1.16, written by Peter Selinger 2001-2019
</metadata>
<g transform="translate(0.000000,189.000000) scale(0.100000,-0.100000)"
fill="#000000" stroke="none">
<path d="M73 1875 c-18 -8 -42 -29 -53 -47 -20 -32 -20 -48 -20 -881 0 -925
-3 -883 57 -923 27 -18 63 -19 888 -22 473 -2 880 0 904 3 32 5 54 16 78 40
l33 33 -2 870 c-3 854 -3 870 -23 892 -45 51 -22 50 -957 50 -727 -1 -878 -3
-905 -15z m1814 -59 l28 -24 3 -454 2 -453 -207 212 c-115 117 -221 217 -236
223 -41 15 -101 12 -145 -6 -29 -11 -114 -93 -322 -310 l-283 -296 -56 56
c-31 30 -73 62 -93 71 -48 19 -120 19 -161 0 -18 -9 -107 -93 -199 -188 l-168
-172 0 653 c0 444 3 660 11 673 6 11 20 24 32 29 12 5 414 9 894 9 l872 1 28
-24z m-419 -550 c15 -8 123 -113 240 -234 l213 -221 -3 -355 c-3 -355 -3 -356
-26 -378 l-23 -23 -867 -3 c-477 -1 -877 0 -890 3 -12 3 -31 14 -42 25 -18 18
-20 34 -20 171 l0 151 177 185 c97 101 189 191 204 199 34 17 106 18 136 1 12
-7 112 -99 223 -205 110 -106 206 -192 213 -189 32 10 10 42 -111 158 l-130
124 277 288 c152 159 287 295 301 302 33 18 94 19 128 1z"/>
<path d="M478 1566 c-55 -20 -85 -42 -117 -87 -114 -156 -2 -379 189 -379 90
0 168 50 213 135 29 56 29 155 -1 211 -54 106 -178 158 -284 120z m147 -55
c65 -29 115 -104 115 -171 0 -37 -24 -94 -53 -127 -75 -86 -199 -85 -274 0
-133 151 31 381 212 298z"/>
</g>
</svg>
