<?xml version="1.0" standalone="no"?>
<!DOCTYPE svg PUBLIC "-//W3C//DTD SVG 20010904//EN"
 "http://www.w3.org/TR/2001/REC-SVG-20010904/DTD/svg10.dtd">
<svg version="1.0" xmlns="http://www.w3.org/2000/svg"
 width="203.000000pt" height="217.000000pt" viewBox="0 0 203.000000 217.000000"
 preserveAspectRatio="xMidYMid meet">
<metadata>
Created by potrace 1.16, written by Peter Selinger 2001-2019
</metadata>
<g transform="translate(0.000000,217.000000) scale(0.100000,-0.100000)"
fill="#000000" stroke="none">
<path d="M1535 2151 c-55 -25 -76 -52 -82 -105 -4 -35 0 -54 16 -82 12 -20 21
-37 19 -38 -2 -2 -24 -14 -50 -29 -63 -36 -114 -98 -173 -208 -62 -115 -137
-198 -207 -230 -51 -23 -64 -24 -319 -27 l-266 -3 -18 27 c-110 168 -353 276
-436 193 -27 -27 -24 -67 9 -119 l28 -45 -28 -27 c-36 -33 -37 -83 -5 -153 18
-38 25 -75 30 -155 7 -115 31 -221 72 -321 67 -159 219 -333 367 -417 81 -46
216 -96 290 -107 l45 -7 17 -98 c9 -55 16 -105 16 -113 0 -8 -22 -18 -59 -25
-32 -7 -64 -19 -70 -26 -20 -24 6 -29 70 -16 36 8 86 10 131 6 135 -12 133
-12 133 4 0 17 -64 38 -121 39 l-42 1 -12 82 c-6 46 -14 94 -17 108 l-5 26
114 1 114 2 12 -27 c6 -15 32 -63 57 -106 25 -44 44 -81 42 -82 -2 -2 -21 -9
-42 -16 -45 -15 -56 -45 -15 -40 122 13 188 13 229 -1 46 -17 61 -15 61 7 0
20 -49 38 -117 44 l-63 5 -46 81 c-26 44 -55 95 -64 112 l-17 31 95 28 c241
73 399 197 492 390 60 125 74 207 68 407 l-6 168 29 0 c19 0 42 11 65 33 45
41 55 100 30 176 -9 27 -16 54 -16 59 0 5 20 15 44 21 25 6 57 22 73 35 24 21
26 27 18 51 -14 39 -55 66 -109 72 -44 5 -47 8 -66 51 -12 26 -28 55 -38 65
-16 18 -16 19 1 28 9 6 24 23 32 39 54 104 -45 248 -136 199 -16 -8 -23 -7
-32 5 -11 14 -77 46 -94 46 -4 0 -26 -9 -48 -19z m103 -47 c12 -8 22 -21 22
-29 0 -24 19 -27 46 -6 34 27 47 26 79 -2 40 -34 46 -103 13 -141 l-24 -28
-45 22 c-35 19 -60 23 -122 23 -78 0 -79 0 -98 31 -27 45 -24 82 10 117 34 33
83 39 119 13z m91 -231 c43 -27 55 -44 101 -143 4 -8 32 -20 64 -26 65 -13
102 -39 85 -61 -7 -7 -37 -20 -68 -29 -110 -30 -140 -44 -160 -78 -31 -49 -35
-126 -16 -256 49 -329 -3 -547 -170 -716 -87 -88 -179 -143 -315 -188 -191
-63 -319 -68 -509 -20 -362 91 -619 398 -648 769 -6 79 -6 80 14 63 11 -10 25
-18 31 -18 27 0 21 24 -16 64 -76 82 -103 173 -60 200 13 8 22 6 37 -8 19 -17
41 -15 41 5 0 5 -20 37 -45 70 -56 76 -65 107 -39 126 25 19 98 10 169 -22 61
-27 139 -95 195 -170 l37 -50 279 5 280 5 66 33 c85 41 146 109 213 234 68
127 140 199 226 227 82 27 146 22 208 -16z m130 -350 c47 -103 6 -207 -76
-191 -38 7 -26 155 18 199 26 26 44 24 58 -8z"/>
<path d="M1617 1772 c-32 -35 -15 -82 28 -82 43 0 71 60 43 88 -18 18 -53 15
-71 -6z m53 -27 c0 -8 -6 -15 -14 -15 -17 0 -28 14 -19 24 12 12 33 6 33 -9z"/>
<path d="M927 1129 c-10 -6 -61 -22 -115 -35 -87 -23 -113 -25 -247 -22 l-150
3 -3 -34 c-7 -74 72 -210 165 -283 148 -116 308 -152 506 -114 183 35 296 142
332 313 8 37 15 89 15 116 0 39 -3 47 -19 47 -16 0 -19 -11 -24 -77 -8 -117
-37 -186 -111 -258 -50 -50 -73 -65 -131 -84 -84 -27 -226 -38 -310 -22 -173
32 -353 187 -381 328 l-6 30 121 -5 c126 -5 194 4 311 39 73 22 114 45 105 59
-8 13 -35 12 -58 -1z"/>
</g>
</svg>
