<?xml version="1.0" standalone="no"?>
<!DOCTYPE svg PUBLIC "-//W3C//DTD SVG 20010904//EN"
 "http://www.w3.org/TR/2001/REC-SVG-20010904/DTD/svg10.dtd">
<svg version="1.0" xmlns="http://www.w3.org/2000/svg"
 width="241.000000pt" height="187.000000pt" viewBox="0 0 241.000000 187.000000"
 preserveAspectRatio="xMidYMid meet">
<metadata>
Created by potrace 1.16, written by Peter Selinger 2001-2019
</metadata>
<g transform="translate(0.000000,187.000000) scale(0.100000,-0.100000)"
fill="#000000" stroke="none">
<path d="M6 1854 c-12 -31 -6 -475 6 -518 18 -61 100 -141 160 -157 l48 -13 2
-561 3 -560 24 -3 c52 -8 51 -10 51 578 l-1 545 30 7 c57 15 124 70 153 127
l28 54 -2 256 -3 256 -30 0 -30 0 -5 -251 -5 -251 -27 -40 c-30 -46 -96 -83
-146 -83 -41 0 -99 24 -130 53 -53 49 -56 65 -54 311 1 135 -3 237 -9 248 -12
22 -55 24 -63 2z"/>
<path d="M231 1856 c-8 -9 -11 -78 -9 -227 l3 -214 27 -3 c45 -5 49 18 46 239
-2 164 -6 201 -18 209 -21 13 -36 12 -49 -4z"/>
<path d="M1285 1833 c-346 -74 -614 -333 -700 -677 -42 -167 -33 -374 23 -536
81 -233 286 -449 517 -547 116 -50 212 -68 355 -67 206 1 362 47 521 155 428
289 534 881 234 1305 -131 184 -355 326 -583 370 -94 18 -277 17 -367 -3z
m395 -79 c264 -67 500 -275 594 -525 90 -240 68 -514 -58 -729 -122 -209 -353
-369 -592 -411 -99 -17 -292 -7 -379 21 -309 98 -532 343 -596 655 -85 410
155 829 553 966 46 15 112 33 148 38 86 13 249 6 330 -15z"/>
<path d="M1137 1473 c-54 -18 -128 -79 -162 -133 -13 -21 -31 -64 -41 -96 -9
-33 -35 -90 -58 -129 -38 -65 -41 -76 -44 -155 -3 -69 0 -97 18 -145 12 -33
30 -90 40 -127 40 -149 107 -236 228 -295 74 -37 79 -38 186 -38 99 0 117 3
168 27 77 36 151 107 188 181 25 51 30 72 30 136 0 92 -27 158 -99 241 -66 76
-71 88 -71 172 0 157 -27 243 -97 310 -68 66 -181 86 -286 51z m185 -72 c29
-11 75 -57 96 -96 11 -21 18 -70 22 -160 7 -150 15 -173 92 -262 62 -70 87
-124 88 -184 0 -91 -84 -204 -188 -252 -70 -32 -188 -30 -263 5 -109 50 -169
126 -207 263 -11 39 -29 96 -41 127 -33 89 -28 132 23 230 24 45 49 103 56
128 25 93 80 164 154 196 35 15 133 18 168 5z"/>
<path d="M1693 1380 c-13 -5 -32 -24 -44 -42 -27 -44 -20 -107 23 -190 29 -57
33 -71 33 -150 0 -80 2 -90 25 -113 17 -16 41 -27 74 -31 41 -6 57 -15 91 -51
48 -50 88 -56 142 -23 74 45 88 108 44 205 -21 45 -33 92 -37 139 -11 119 -45
164 -139 181 -21 3 -55 19 -75 34 -65 52 -91 59 -137 41z m100 -111 c21 -16
63 -33 93 -39 34 -7 58 -18 64 -30 5 -10 14 -54 19 -98 5 -48 19 -102 35 -137
31 -69 32 -86 7 -109 -26 -24 -53 -14 -91 34 -28 35 -36 39 -83 42 l-52 3 -6
95 c-5 80 -11 105 -37 157 -34 67 -39 92 -20 111 12 12 15 11 71 -29z"/>
</g>
</svg>
