<?xml version="1.0" standalone="no"?>
<!DOCTYPE svg PUBLIC "-//W3C//DTD SVG 20010904//EN"
 "http://www.w3.org/TR/2001/REC-SVG-20010904/DTD/svg10.dtd">
<svg version="1.0" xmlns="http://www.w3.org/2000/svg"
 width="182.000000pt" height="195.000000pt" viewBox="0 0 182.000000 195.000000"
 preserveAspectRatio="xMidYMid meet">
<metadata>
Created by potrace 1.16, written by Peter Selinger 2001-2019
</metadata>
<g transform="translate(0.000000,195.000000) scale(0.100000,-0.100000)"
fill="#000000" stroke="none">
<path d="M455 1935 c-80 -22 -186 -80 -247 -135 -73 -65 -152 -183 -179 -268
-30 -94 -37 -255 -15 -342 49 -192 160 -331 333 -419 159 -80 368 -82 539 -6
l59 27 62 -68 c52 -58 61 -72 56 -96 -3 -15 -2 -39 1 -53 5 -21 358 -416 484
-542 51 -52 92 -47 179 21 89 70 111 118 80 172 -27 48 -491 545 -513 550 -14
4 -38 4 -54 2 -26 -4 -37 4 -94 67 l-63 71 29 34 c108 125 154 355 108 534
-40 156 -125 278 -256 365 -110 74 -205 101 -347 100 -62 0 -134 -7 -162 -14z
m350 -50 c97 -32 167 -78 243 -160 101 -108 152 -240 152 -393 0 -165 -53
-295 -170 -413 -95 -96 -185 -143 -318 -166 -82 -14 -101 -14 -181 0 -237 40
-428 217 -481 447 -44 190 17 403 155 543 157 159 387 214 600 142z m338
-1162 c-21 -18 -41 -32 -44 -33 -3 0 -32 28 -64 61 l-59 62 38 34 38 35 64
-63 64 -64 -37 -32z m197 -40 c36 -38 150 -160 253 -273 147 -161 187 -210
187 -231 0 -37 -117 -139 -159 -139 -24 0 -64 38 -272 266 -252 274 -271 301
-237 341 22 28 129 103 146 103 8 0 45 -30 82 -67z"/>
<path d="M503 1806 c-177 -45 -310 -180 -358 -362 -70 -270 127 -556 411 -597
215 -31 433 97 513 302 102 257 -30 552 -287 643 -71 25 -208 33 -279 14z
m249 -46 c211 -65 347 -286 309 -501 -40 -219 -226 -379 -441 -379 -346 0
-563 382 -387 682 32 55 121 139 178 168 102 53 231 64 341 30z"/>
</g>
</svg>
