<?xml version="1.0" standalone="no"?>
<!DOCTYPE svg PUBLIC "-//W3C//DTD SVG 20010904//EN"
 "http://www.w3.org/TR/2001/REC-SVG-20010904/DTD/svg10.dtd">
<svg version="1.0" xmlns="http://www.w3.org/2000/svg"
 width="224.000000pt" height="95.000000pt" viewBox="0 0 224.000000 95.000000"
 preserveAspectRatio="xMidYMid meet">
<metadata>
Created by potrace 1.16, written by Peter Selinger 2001-2019
</metadata>
<g transform="translate(0.000000,95.000000) scale(0.100000,-0.100000)"
fill="#000000" stroke="none">
<path d="M102 892 c-94 -52 -116 -72 -94 -86 5 -3 42 13 83 34 41 22 77 40 82
40 4 0 7 -173 7 -385 l0 -385 25 0 25 0 -2 417 c-2 266 -7 417 -13 419 -5 2
-56 -22 -113 -54z"/>
<path d="M659 917 c-53 -28 -97 -90 -125 -173 -15 -48 -19 -88 -19 -214 0
-137 3 -163 23 -223 46 -132 123 -197 233 -197 111 0 186 69 231 214 33 102
33 300 0 402 -46 149 -118 214 -238 214 -44 0 -73 -6 -105 -23z m168 -28 c96
-36 153 -170 153 -364 0 -233 -81 -375 -212 -375 -52 0 -117 38 -148 87 -71
111 -87 365 -33 516 42 117 141 174 240 136z"/>
<path d="M1275 921 c-105 -49 -165 -190 -165 -391 0 -211 71 -366 187 -411 74
-28 177 -3 235 58 137 144 127 608 -15 715 -67 51 -169 63 -242 29z m171 -40
c89 -41 125 -127 131 -321 9 -258 -53 -395 -186 -408 -92 -8 -172 60 -209 177
-13 43 -17 92 -17 206 0 129 3 158 22 207 29 78 55 112 105 137 53 26 100 26
154 2z"/>
<path d="M1882 919 c-57 -29 -108 -97 -135 -183 -18 -59 -22 -94 -22 -211 0
-119 3 -150 23 -210 46 -138 126 -208 238 -207 150 1 241 139 251 382 10 223
-49 380 -162 431 -56 26 -139 24 -193 -2z m197 -52 c80 -53 116 -176 109 -377
-7 -179 -41 -265 -126 -317 -62 -38 -139 -28 -195 25 -63 59 -97 172 -97 325
0 244 84 386 222 374 29 -2 63 -14 87 -30z"/>
<path d="M383 193 c-9 -3 -13 -33 -13 -100 0 -92 1 -94 23 -91 21 3 22 8 25
89 3 87 -6 112 -35 102z"/>
</g>
</svg>
