<?xml version="1.0" standalone="no"?>
<!DOCTYPE svg PUBLIC "-//W3C//DTD SVG 20010904//EN"
 "http://www.w3.org/TR/2001/REC-SVG-20010904/DTD/svg10.dtd">
<svg version="1.0" xmlns="http://www.w3.org/2000/svg"
 width="189.000000pt" height="168.000000pt" viewBox="0 0 189.000000 168.000000"
 preserveAspectRatio="xMidYMid meet">
<metadata>
Created by potrace 1.16, written by Peter Selinger 2001-2019
</metadata>
<g transform="translate(0.000000,168.000000) scale(0.100000,-0.100000)"
fill="#000000" stroke="none">
<path d="M391 1664 c-243 -65 -414 -317 -386 -568 32 -297 198 -507 745 -946
91 -72 172 -136 181 -141 18 -9 70 26 229 154 553 445 729 683 730 987 0 148
-53 274 -160 380 -102 102 -215 149 -355 150 -144 0 -252 -46 -359 -155 l-70
-70 -71 71 c-133 133 -312 184 -484 138z m211 -35 c119 -25 239 -107 302 -207
14 -23 33 -42 41 -42 8 0 27 19 41 42 97 153 285 239 457 210 202 -35 363
-198 397 -403 35 -206 -57 -423 -274 -647 -126 -131 -591 -522 -620 -522 -23
0 -420 329 -573 473 -202 192 -309 382 -320 569 -10 160 32 282 133 389 111
115 271 168 416 138z"/>
</g>
</svg>
