<?xml version="1.0" standalone="no"?>
<!DOCTYPE svg PUBLIC "-//W3C//DTD SVG 20010904//EN"
 "http://www.w3.org/TR/2001/REC-SVG-20010904/DTD/svg10.dtd">
<svg version="1.0" xmlns="http://www.w3.org/2000/svg"
 width="243.000000pt" height="143.000000pt" viewBox="0 0 243.000000 143.000000"
 preserveAspectRatio="xMidYMid meet">
<metadata>
Created by potrace 1.16, written by Peter Selinger 2001-2019
</metadata>
<g transform="translate(0.000000,143.000000) scale(0.100000,-0.100000)"
fill="#000000" stroke="none">
<path d="M1070 1424 c-232 -42 -472 -150 -667 -299 -156 -119 -403 -366 -403
-403 0 -45 277 -325 428 -432 277 -196 514 -282 777 -283 375 -1 731 180 1088
553 152 158 148 150 101 208 -70 88 -271 280 -372 355 -183 136 -363 225 -562
278 -73 20 -327 35 -390 23z m394 -63 c241 -66 481 -206 690 -400 85 -79 226
-230 226 -242 0 -4 -40 -51 -90 -105 -266 -292 -565 -481 -871 -551 -115 -25
-319 -23 -439 6 -303 74 -593 261 -850 546 -50 55 -90 103 -90 107 0 14 210
225 293 295 221 184 456 307 682 357 103 23 343 16 449 -13z"/>
<path d="M1098 1184 c-220 -53 -378 -249 -378 -468 1 -299 268 -532 559 -486
216 34 373 186 417 404 69 334 -257 633 -598 550z m214 -35 c80 -17 182 -74
235 -133 162 -180 156 -445 -14 -615 -183 -182 -466 -183 -641 -3 -97 99 -139
213 -129 352 18 264 281 455 549 399z"/>
<path d="M1147 910 c-140 -42 -185 -247 -75 -346 46 -43 87 -56 154 -52 106 7
180 76 191 182 17 143 -128 258 -270 216z m143 -52 c116 -60 116 -233 0 -293
-102 -53 -240 28 -240 141 0 137 120 213 240 152z"/>
</g>
</svg>
