<?xml version="1.0" standalone="no"?>
<!DOCTYPE svg PUBLIC "-//W3C//DTD SVG 20010904//EN"
 "http://www.w3.org/TR/2001/REC-SVG-20010904/DTD/svg10.dtd">
<svg version="1.0" xmlns="http://www.w3.org/2000/svg"
 width="176.000000pt" height="163.000000pt" viewBox="0 0 176.000000 163.000000"
 preserveAspectRatio="xMidYMid meet">
<metadata>
Created by potrace 1.16, written by Peter Selinger 2001-2019
</metadata>
<g transform="translate(0.000000,163.000000) scale(0.100000,-0.100000)"
fill="#000000" stroke="none">
<path d="M725 1624 c-11 -2 -51 -11 -88 -20 -162 -37 -330 -135 -442 -257 -85
-92 -157 -235 -181 -357 -39 -199 21 -430 154 -595 l49 -60 -14 -54 c-19 -73
-61 -177 -90 -223 -13 -21 -23 -43 -23 -49 0 -23 86 -1 257 64 l172 66 46 -20
c274 -121 727 -15 969 227 148 148 218 312 219 509 1 344 -242 634 -623 745
-59 18 -107 23 -230 26 -85 1 -164 1 -175 -2z m390 -73 c164 -42 340 -153 433
-272 104 -133 152 -268 152 -426 0 -109 -18 -183 -71 -293 -35 -70 -58 -101
-133 -175 -103 -101 -197 -161 -330 -206 -186 -65 -415 -74 -562 -23 -90 31
-100 30 -192 -7 -129 -52 -230 -87 -235 -83 -3 3 6 27 18 53 26 54 61 156 70
205 6 29 1 40 -45 92 -64 73 -136 216 -155 309 -39 186 9 387 129 544 112 147
314 264 523 301 84 15 309 5 398 -19z"/>
<path d="M781 1266 c-43 -16 -107 -69 -127 -107 -9 -18 -14 -49 -12 -77 3 -39
6 -47 23 -47 17 0 21 8 25 54 5 47 11 58 43 86 115 99 287 54 327 -86 18 -63
3 -96 -86 -191 -99 -106 -136 -175 -138 -256 -1 -51 1 -57 20 -60 19 -3 22 3
28 55 8 75 45 138 135 235 106 113 122 168 77 263 -28 59 -76 108 -128 129
-44 19 -139 20 -187 2z"/>
<path d="M842 484 c-40 -28 -23 -84 25 -84 26 0 50 38 40 64 -11 27 -42 37
-65 20z"/>
</g>
</svg>
