<?xml version="1.0" standalone="no"?>
<!DOCTYPE svg PUBLIC "-//W3C//DTD SVG 20010904//EN"
 "http://www.w3.org/TR/2001/REC-SVG-20010904/DTD/svg10.dtd">
<svg version="1.0" xmlns="http://www.w3.org/2000/svg"
 width="251.000000pt" height="200.000000pt" viewBox="0 0 251.000000 200.000000"
 preserveAspectRatio="xMidYMid meet">
<metadata>
Created by potrace 1.16, written by Peter Selinger 2001-2019
</metadata>
<g transform="translate(0.000000,200.000000) scale(0.100000,-0.100000)"
fill="#000000" stroke="none">
<path d="M16 1987 c-16 -12 -17 -35 -14 -278 l3 -266 30 -49 c25 -39 43 -55
93 -79 l61 -30 1 -620 c0 -341 4 -626 9 -633 5 -8 21 -12 37 -10 l29 3 3 631
2 631 40 12 c58 17 102 61 145 143 118 230 357 399 629 447 87 16 256 13 343
-5 332 -68 605 -319 698 -641 93 -318 -4 -673 -245 -907 -177 -171 -388 -256
-634 -256 -363 0 -685 209 -835 542 -16 36 -37 68 -46 72 -19 7 -55 -18 -55
-38 0 -6 20 -51 45 -99 111 -220 281 -382 505 -478 313 -135 686 -94 967 107
128 92 276 271 324 392 l18 47 1 -235 c1 -291 10 -322 115 -365 71 -30 164 1
205 67 20 32 20 52 20 948 0 503 -4 920 -8 927 -4 6 -19 16 -34 22 -96 36
-240 -122 -297 -328 -11 -39 -23 -107 -27 -152 l-7 -81 -28 53 c-95 173 -281
339 -469 419 -230 97 -510 105 -742 20 -153 -56 -277 -137 -381 -250 l-57 -61
0 184 c0 197 -5 216 -50 202 -19 -6 -20 -13 -20 -253 0 -219 -3 -252 -19 -288
-39 -85 -124 -115 -208 -73 -80 41 -83 53 -83 341 0 211 -2 249 -16 262 -19
19 -25 20 -48 3z m2420 -944 c-6 -15 -71 0 -97 23 -32 29 -87 149 -105 230
-49 222 29 498 170 602 l31 23 3 -433 c1 -238 0 -438 -2 -445z m-102 -67 c19
-9 50 -16 70 -16 l36 0 0 -395 c0 -422 -2 -439 -49 -465 -25 -13 -67 -13 -92
0 -48 26 -49 39 -49 510 l0 442 25 -30 c14 -16 40 -37 59 -46z"/>
<path d="M196 1975 c-3 -9 -6 -108 -6 -220 0 -172 2 -206 16 -219 8 -9 21 -16
28 -16 33 0 36 26 34 246 l-3 219 -31 3 c-22 2 -33 -2 -38 -13z"/>
<path d="M1095 1665 c-129 -28 -233 -83 -329 -174 -324 -309 -274 -838 103
-1088 337 -224 805 -97 985 267 54 111 76 201 76 321 0 256 -151 500 -380 612
-148 72 -308 94 -455 62z m342 -97 c149 -53 279 -166 347 -302 55 -108 69
-181 63 -311 -6 -134 -29 -206 -99 -311 -184 -274 -540 -354 -824 -183 -31 19
-87 67 -125 108 -148 157 -202 368 -149 575 29 114 73 190 160 276 131 130
264 183 450 177 80 -3 122 -10 177 -29z"/>
</g>
</svg>
