<?xml version="1.0" standalone="no"?>
<!DOCTYPE svg PUBLIC "-//W3C//DTD SVG 20010904//EN"
 "http://www.w3.org/TR/2001/REC-SVG-20010904/DTD/svg10.dtd">
<svg version="1.0" xmlns="http://www.w3.org/2000/svg"
 width="228.000000pt" height="232.000000pt" viewBox="0 0 228.000000 232.000000"
 preserveAspectRatio="xMidYMid meet">
<metadata>
Created by potrace 1.16, written by Peter Selinger 2001-2019
</metadata>
<g transform="translate(0.000000,232.000000) scale(0.100000,-0.100000)"
fill="#000000" stroke="none">
<path d="M905 2300 c-197 -45 -330 -116 -461 -245 -101 -99 -158 -188 -205
-315 -28 -78 -59 -227 -59 -287 0 -29 -3 -33 -27 -33 -42 0 -88 -34 -120 -87
-26 -45 -28 -55 -28 -158 0 -101 2 -115 29 -169 38 -77 94 -133 149 -148 l43
-11 22 -84 c98 -382 318 -628 649 -730 79 -24 104 -27 238 -27 173 0 240 13
373 75 194 90 328 226 427 434 34 72 88 233 100 296 6 32 11 36 51 47 57 15
118 77 158 162 27 57 31 76 31 150 0 74 -4 92 -30 145 -33 65 -80 105 -125
105 -27 0 -28 2 -34 71 -42 422 -326 736 -736 813 -115 22 -340 20 -445 -4z
m440 -37 c285 -55 491 -208 611 -458 78 -162 88 -214 88 -490 0 -250 -9 -332
-55 -525 -119 -488 -451 -767 -889 -747 -135 7 -228 30 -338 86 -93 48 -128
73 -211 154 -177 173 -281 437 -322 814 -17 161 -7 436 19 533 32 118 59 184
112 263 198 304 581 448 985 370z m-1165 -991 c0 -102 23 -332 37 -367 5 -14
2 -16 -18 -10 -119 35 -192 220 -149 374 15 55 68 111 104 111 l26 0 0 -108z
m1984 87 c49 -38 71 -95 71 -184 0 -70 -4 -89 -32 -146 -18 -35 -42 -74 -55
-86 -27 -26 -79 -54 -88 -48 -4 2 0 37 7 77 7 40 16 148 20 241 6 164 6 167
28 167 12 0 34 -9 49 -21z"/>
<path d="M704 1520 c-28 -11 -52 -45 -65 -94 -21 -77 28 -186 84 -186 32 0 73
46 87 99 16 61 -2 132 -42 166 -32 27 -33 28 -64 15z m66 -100 c12 -44 -6
-117 -33 -134 -51 -31 -81 120 -36 178 20 26 22 26 40 10 11 -9 24 -34 29 -54z"/>
<path d="M1501 1505 c-60 -51 -63 -184 -6 -241 60 -60 135 7 135 121 0 61 -18
105 -52 129 -30 22 -41 20 -77 -9z m89 -116 c0 -55 -22 -109 -45 -109 -8 0
-21 10 -29 23 -31 50 -26 128 11 169 17 19 18 19 40 -7 17 -20 23 -39 23 -76z"/>
<path d="M1083 1298 c-6 -7 -32 -76 -58 -153 -57 -170 -58 -220 -6 -267 31
-28 35 -29 124 -26 74 2 92 6 92 18 0 12 -19 16 -93 20 -78 4 -96 8 -108 24
-23 33 -16 84 35 234 36 108 45 145 36 152 -8 7 -16 6 -22 -2z"/>
<path d="M824 629 c-14 -23 83 -83 185 -113 77 -23 188 -21 263 5 66 22 168
82 168 99 0 24 -32 20 -75 -10 -77 -53 -147 -72 -250 -68 -83 3 -97 7 -180 48
-49 25 -93 46 -97 48 -3 2 -10 -2 -14 -9z"/>
</g>
</svg>
