<?xml version="1.0" standalone="no"?>
<!DOCTYPE svg PUBLIC "-//W3C//DTD SVG 20010904//EN"
 "http://www.w3.org/TR/2001/REC-SVG-20010904/DTD/svg10.dtd">
<svg version="1.0" xmlns="http://www.w3.org/2000/svg"
 width="207.000000pt" height="208.000000pt" viewBox="0 0 207.000000 208.000000"
 preserveAspectRatio="xMidYMid meet">
<metadata>
Created by potrace 1.16, written by Peter Selinger 2001-2019
</metadata>
<g transform="translate(0.000000,208.000000) scale(0.100000,-0.100000)"
fill="#000000" stroke="none">
<path d="M908 2070 c-365 -66 -649 -363 -761 -794 l-22 -86 -52 0 c-79 0 -86
-26 -57 -201 38 -226 122 -395 274 -550 82 -84 233 -199 261 -199 5 0 9 -36 9
-79 0 -44 4 -91 10 -106 20 -52 44 -55 468 -55 265 0 399 4 422 11 43 15 60
59 60 151 l0 73 76 45 c141 83 261 202 340 336 77 131 137 356 132 493 l-3 76
-52 3 -53 3 -10 42 c-85 338 -282 621 -520 750 -113 62 -218 89 -355 93 -66 1
-141 -1 -167 -6z m377 -74 c210 -72 392 -241 510 -472 42 -83 115 -284 115
-319 0 -13 -99 -15 -870 -15 l-870 0 6 28 c3 15 21 73 40 129 62 190 145 327
273 453 90 89 160 136 259 176 118 47 158 54 312 51 127 -3 155 -7 225 -31z
m674 -855 l74 -1 -6 -82 c-13 -182 -92 -388 -202 -527 -66 -84 -181 -179 -285
-235 -90 -48 -177 -63 -425 -72 -190 -7 -371 5 -480 32 -75 19 -182 85 -274
170 -170 157 -262 328 -301 561 -11 63 -20 124 -20 134 0 18 22 19 778 21 706
3 922 3 1141 -1z m-1259 -942 c193 -29 512 -27 693 4 l78 13 -3 -75 c-3 -69
-5 -77 -28 -88 -19 -10 -112 -13 -413 -11 l-389 3 -19 24 c-14 17 -19 39 -19
88 0 58 2 64 18 58 9 -4 46 -11 82 -16z"/>
<path d="M761 1715 c-42 -38 -67 -86 -57 -110 9 -24 25 -17 40 18 14 36 69 87
92 87 8 0 14 9 14 20 0 33 -44 25 -89 -15z"/>
<path d="M1255 1711 c-5 -10 32 -51 46 -51 5 0 20 -20 35 -45 42 -72 73 -54
38 22 -27 56 -101 102 -119 74z"/>
<path d="M554 1425 c-4 -10 6 -28 30 -51 20 -19 43 -49 52 -65 16 -33 37 -34
42 -3 4 25 -48 94 -87 117 -28 16 -32 17 -37 2z"/>
<path d="M995 1401 c-16 -10 -41 -30 -54 -44 -20 -22 -22 -29 -11 -42 12 -14
17 -13 44 13 17 17 46 37 64 46 17 9 32 23 32 31 0 21 -39 19 -75 -4z"/>
<path d="M1530 1369 c-19 -10 -49 -22 -67 -25 -35 -7 -45 -30 -17 -41 36 -14
154 42 154 73 0 19 -28 17 -70 -7z"/>
</g>
</svg>
