<?xml version="1.0" standalone="no"?>
<!DOCTYPE svg PUBLIC "-//W3C//DTD SVG 20010904//EN"
 "http://www.w3.org/TR/2001/REC-SVG-20010904/DTD/svg10.dtd">
<svg version="1.0" xmlns="http://www.w3.org/2000/svg"
 width="207.000000pt" height="156.000000pt" viewBox="0 0 207.000000 156.000000"
 preserveAspectRatio="xMidYMid meet">
<metadata>
Created by potrace 1.16, written by Peter Selinger 2001-2019
</metadata>
<g transform="translate(0.000000,156.000000) scale(0.100000,-0.100000)"
fill="#000000" stroke="none">
<path d="M2 1543 c3 -16 20 -19 145 -23 202 -8 183 13 259 -296 34 -137 92
-375 129 -529 37 -154 73 -299 82 -323 16 -45 60 -86 106 -97 15 -4 27 -9 27
-11 0 -1 -10 -20 -22 -40 -64 -109 11 -233 134 -222 107 11 164 132 103 222
l-24 36 299 0 c165 0 300 -2 300 -5 0 -2 -9 -19 -20 -37 -26 -43 -26 -113 0
-155 52 -87 198 -83 245 6 23 46 19 112 -9 154 l-25 36 42 3 c29 2 42 8 42 18
0 13 -68 16 -535 20 -493 5 -538 6 -568 23 -36 20 -65 72 -77 140 l-7 37 619
0 c480 0 623 3 635 12 11 9 45 139 102 383 47 204 86 378 86 387 0 17 -48 18
-818 20 l-817 3 -23 90 c-38 147 -69 165 -281 165 -121 0 -132 -2 -129 -17z
m827 -430 c11 -82 21 -156 21 -165 0 -16 -14 -18 -163 -18 l-163 0 -40 165
-41 165 182 0 182 0 22 -147z m391 -18 l0 -165 -160 0 -159 0 -6 33 c-9 53
-45 286 -45 292 0 3 83 5 185 5 l185 0 0 -165z m410 158 c0 -5 -10 -79 -21
-165 l-22 -158 -163 0 -164 0 0 165 0 165 185 0 c102 0 185 -3 185 -7z m390
-2 c0 -6 -16 -78 -35 -161 -19 -83 -35 -153 -35 -156 0 -2 -72 -4 -161 -4
l-161 0 5 23 c3 12 13 81 22 152 9 72 19 136 21 143 4 15 344 18 344 3z
m-1155 -393 c13 -77 45 -289 45 -298 0 -6 -54 -10 -148 -10 l-148 0 -37 158
c-21 86 -37 163 -37 170 0 9 39 12 160 12 l159 0 6 -32z m355 -138 l0 -171
-132 3 -133 3 -22 140 c-12 77 -22 152 -22 168 l-1 27 155 0 155 0 0 -170z
m357 134 c-4 -20 -14 -97 -23 -170 l-18 -134 -138 0 -138 0 0 163 c0 90 3 167
7 170 3 4 76 7 161 7 l155 0 -6 -36z m356 30 c3 -3 2 -18 -3 -32 -5 -15 -23
-89 -40 -164 l-32 -138 -139 0 c-76 0 -139 3 -139 8 0 14 42 307 45 320 3 9
43 12 153 12 82 0 151 -3 155 -6z m-1032 -654 c52 -28 61 -116 16 -158 -46
-43 -129 -34 -157 17 -22 42 -8 110 29 138 20 15 85 17 112 3z m804 -13 c18
-15 28 -36 32 -64 5 -39 2 -46 -30 -78 -47 -47 -86 -48 -133 -1 -43 43 -46 90
-8 135 22 26 33 31 69 31 31 0 52 -7 70 -23z"/>
</g>
</svg>
