<?xml version="1.0" standalone="no"?>
<!DOCTYPE svg PUBLIC "-//W3C//DTD SVG 20010904//EN"
 "http://www.w3.org/TR/2001/REC-SVG-20010904/DTD/svg10.dtd">
<svg version="1.0" xmlns="http://www.w3.org/2000/svg"
 width="146.000000pt" height="196.000000pt" viewBox="0 0 146.000000 196.000000"
 preserveAspectRatio="xMidYMid meet">
<metadata>
Created by potrace 1.16, written by Peter Selinger 2001-2019
</metadata>
<g transform="translate(0.000000,196.000000) scale(0.100000,-0.100000)"
fill="#000000" stroke="none">
<path d="M5 1950 c-12 -20 7 -30 54 -30 l48 0 6 -132 c8 -189 25 -268 80 -373
37 -70 169 -206 298 -308 146 -115 145 -138 -11 -269 -176 -148 -243 -225
-307 -353 -47 -94 -61 -167 -62 -332 l-1 -113 -56 0 c-47 0 -55 -3 -52 -17 3
-17 46 -18 728 -18 674 0 725 1 728 17 3 14 -7 17 -60 20 l-63 3 -6 160 c-6
164 -15 208 -59 296 -53 105 -156 222 -311 355 -121 102 -124 138 -21 216 75
56 229 207 275 268 50 66 92 153 108 220 7 31 13 120 13 205 l1 150 60 5 c44
4 60 9 60 20 0 13 -88 15 -722 18 -476 1 -724 -1 -728 -8z m1295 -172 c0 -256
-34 -335 -225 -523 -67 -66 -149 -145 -183 -175 -59 -52 -62 -58 -62 -100 0
-50 21 -89 67 -123 72 -53 209 -187 258 -252 111 -146 145 -250 145 -442 l0
-123 -575 0 -575 0 0 128 c0 271 69 398 342 628 109 91 124 108 138 152 17 48
-2 95 -58 142 -26 21 -83 69 -127 106 -102 85 -198 193 -231 259 -43 89 -55
152 -61 313 l-6 152 577 0 576 0 0 -142z"/>
<path d="M337 1453 c-4 -3 -7 -12 -7 -20 0 -11 70 -13 398 -11 345 3 397 5
397 18 0 13 -51 15 -391 18 -215 1 -393 -1 -397 -5z"/>
<path d="M335 209 c-4 -6 -3 -15 2 -20 5 -5 170 -8 399 -7 338 3 389 5 389 18
0 13 -51 15 -392 18 -276 1 -394 -1 -398 -9z"/>
</g>
</svg>
