<?xml version="1.0" standalone="no"?>
<!DOCTYPE svg PUBLIC "-//W3C//DTD SVG 20010904//EN"
 "http://www.w3.org/TR/2001/REC-SVG-20010904/DTD/svg10.dtd">
<svg version="1.0" xmlns="http://www.w3.org/2000/svg"
 width="184.000000pt" height="184.000000pt" viewBox="0 0 184.000000 184.000000"
 preserveAspectRatio="xMidYMid meet">
<metadata>
Created by potrace 1.16, written by Peter Selinger 2001-2019
</metadata>
<g transform="translate(0.000000,184.000000) scale(0.100000,-0.100000)"
fill="#000000" stroke="none">
<path d="M276 1567 l-276 -273 0 -375 0 -374 273 -273 272 -272 375 0 375 0
273 272 272 272 0 377 0 377 -276 271 -276 271 -368 0 -369 0 -275 -273z
m1254 -30 l255 -252 5 -363 5 -362 -255 -255 -255 -255 -365 0 -365 0 -253
253 -252 252 0 360 0 360 257 257 258 258 355 0 355 -1 255 -252z"/>
</g>
</svg>
