<?xml version="1.0" standalone="no"?>
<!DOCTYPE svg PUBLIC "-//W3C//DTD SVG 20010904//EN"
 "http://www.w3.org/TR/2001/REC-SVG-20010904/DTD/svg10.dtd">
<svg version="1.0" xmlns="http://www.w3.org/2000/svg"
 width="132.000000pt" height="100.000000pt" viewBox="0 0 132.000000 100.000000"
 preserveAspectRatio="xMidYMid meet">
<metadata>
Created by potrace 1.16, written by Peter Selinger 2001-2019
</metadata>
<g transform="translate(0.000000,100.000000) scale(0.100000,-0.100000)"
fill="#000000" stroke="none">
<path d="M813 984 c-4 -11 56 -78 213 -235 l219 -219 -623 0 c-615 0 -622 0
-622 -20 0 -20 7 -20 625 -20 344 0 625 -1 625 -2 0 -2 -101 -105 -225 -230
-160 -161 -223 -231 -219 -242 3 -9 12 -16 18 -16 17 0 496 484 496 501 0 14
-479 499 -493 499 -4 0 -10 -7 -14 -16z"/>
</g>
</svg>
