<?xml version="1.0" standalone="no"?>
<!DOCTYPE svg PUBLIC "-//W3C//DTD SVG 20010904//EN"
 "http://www.w3.org/TR/2001/REC-SVG-20010904/DTD/svg10.dtd">
<svg version="1.0" xmlns="http://www.w3.org/2000/svg"
 width="185.000000pt" height="216.000000pt" viewBox="0 0 185.000000 216.000000"
 preserveAspectRatio="xMidYMid meet">
<metadata>
Created by potrace 1.16, written by Peter Selinger 2001-2019
</metadata>
<g transform="translate(0.000000,216.000000) scale(0.100000,-0.100000)"
fill="#000000" stroke="none">
<path d="M765 2144 c-38 -8 -113 -36 -165 -61 -79 -38 -109 -60 -176 -127 -89
-89 -151 -186 -184 -286 -21 -67 -26 -99 -61 -445 -11 -110 -33 -278 -50 -373
-35 -206 -35 -206 -8 -277 26 -69 69 -114 146 -151 50 -24 74 -28 171 -32 61
-2 112 -8 112 -11 0 -4 -15 -21 -32 -39 -26 -24 -59 -38 -155 -66 -216 -62
-308 -117 -349 -207 -15 -35 -16 -42 -2 -55 18 -18 45 -9 54 18 19 62 99 116
239 161 132 42 122 43 183 -18 61 -62 162 -116 262 -141 94 -24 301 -15 389
16 72 26 197 106 235 150 24 29 26 30 73 20 184 -40 291 -99 334 -182 21 -41
39 -47 60 -22 11 13 9 23 -11 60 -49 93 -140 144 -353 199 -118 30 -135 37
-159 66 -16 18 -28 37 -28 41 0 4 40 8 89 8 220 0 361 107 361 274 0 33 -5 81
-11 106 -19 83 -59 380 -79 589 -27 284 -51 364 -144 495 -169 237 -456 350
-741 290z m324 -70 c76 -20 196 -85 259 -140 108 -95 196 -255 220 -404 6 -36
16 -121 22 -190 12 -138 41 -349 71 -509 34 -186 19 -262 -62 -320 -56 -41
-93 -50 -226 -58 l-112 -6 -3 67 -3 67 62 64 c44 46 76 92 107 158 65 132 77
206 74 452 l-3 200 -64 13 c-126 25 -232 107 -307 237 -48 84 -71 93 -103 42
-46 -75 -164 -167 -288 -224 -93 -43 -184 -63 -288 -63 -50 0 -86 -5 -93 -12
-25 -25 -5 -428 27 -540 28 -98 78 -184 150 -260 l63 -68 -7 -65 -7 -65 -66 0
c-238 1 -343 70 -344 227 0 37 11 129 25 203 14 74 35 221 46 325 12 105 26
231 32 280 32 283 199 496 454 579 114 37 246 40 364 10z m0 -439 c51 -97 203
-211 304 -230 l39 -8 -4 -206 c-4 -196 -6 -210 -33 -281 -55 -149 -147 -255
-274 -318 -74 -37 -76 -37 -196 -37 l-122 0 -85 42 c-65 32 -100 58 -144 106
-114 122 -148 230 -159 503 l-7 181 83 6 c159 12 308 70 446 173 40 30 82 68
95 84 12 17 24 30 27 30 3 0 17 -20 30 -45z m-334 -1131 c135 -45 270 -36 415
30 12 5 16 -1 18 -26 6 -82 40 -157 100 -219 l34 -37 -38 -36 c-100 -92 -250
-141 -404 -133 -141 8 -240 47 -326 129 l-40 38 47 49 c37 38 53 65 68 116 12
37 21 83 21 102 0 28 3 33 13 25 7 -6 48 -23 92 -38z"/>
<path d="M670 1225 c-26 -32 13 -81 48 -59 34 22 22 74 -18 74 -10 0 -23 -7
-30 -15z"/>
<path d="M1112 1228 c-27 -27 -6 -68 35 -68 24 0 43 26 35 50 -10 30 -48 40
-70 18z"/>
<path d="M1030 874 c-60 -31 -169 -33 -218 -4 -35 22 -67 26 -77 10 -13 -22 8
-50 57 -74 88 -44 235 -31 295 26 51 48 11 78 -57 42z"/>
</g>
</svg>
