<?xml version="1.0" standalone="no"?>
<!DOCTYPE svg PUBLIC "-//W3C//DTD SVG 20010904//EN"
 "http://www.w3.org/TR/2001/REC-SVG-20010904/DTD/svg10.dtd">
<svg version="1.0" xmlns="http://www.w3.org/2000/svg"
 width="195.000000pt" height="195.000000pt" viewBox="0 0 195.000000 195.000000"
 preserveAspectRatio="xMidYMid meet">
<metadata>
Created by potrace 1.16, written by Peter Selinger 2001-2019
</metadata>
<g transform="translate(0.000000,195.000000) scale(0.100000,-0.100000)"
fill="#000000" stroke="none">
<path d="M802 1939 c-328 -58 -631 -310 -742 -616 -172 -475 33 -988 485
-1215 489 -246 1078 -47 1309 443 75 157 91 235 91 434 0 147 -3 180 -23 249
-81 282 -277 512 -535 631 -134 62 -205 77 -377 81 -85 1 -179 -1 -208 -7z
m331 -44 c226 -39 433 -161 571 -337 215 -271 262 -626 126 -952 -93 -223
-305 -424 -530 -502 -489 -170 -1022 79 -1195 559 -40 110 -55 198 -55 322 0
203 52 371 165 530 53 75 177 194 252 242 199 127 441 177 666 138z"/>
<path d="M480 1380 c0 -18 8 -20 135 -22 l135 -3 -136 -154 c-77 -88 -134
-161 -132 -170 3 -14 25 -16 178 -16 168 0 175 1 175 20 0 19 -8 20 -143 23
l-142 3 87 97 c156 174 185 211 179 227 -4 13 -32 15 -171 15 -158 0 -165 -1
-165 -20z"/>
<path d="M1120 1380 c0 -19 7 -20 135 -20 74 0 135 -3 135 -6 0 -3 -46 -58
-103 -122 -175 -200 -169 -192 -156 -208 10 -12 44 -14 183 -12 163 3 171 4
171 23 0 19 -8 20 -141 25 l-142 5 129 148 c71 82 129 157 129 168 0 18 -9 19
-170 19 -163 0 -170 -1 -170 -20z"/>
<path d="M913 700 c-23 -5 -56 -16 -75 -25 -40 -21 -108 -84 -108 -101 0 -28
23 -23 66 15 109 96 269 95 379 -1 43 -38 48 -40 63 -25 15 16 14 19 -17 51
-67 69 -206 108 -308 86z"/>
</g>
</svg>
