<?xml version="1.0" standalone="no"?>
<!DOCTYPE svg PUBLIC "-//W3C//DTD SVG 20010904//EN"
 "http://www.w3.org/TR/2001/REC-SVG-20010904/DTD/svg10.dtd">
<svg version="1.0" xmlns="http://www.w3.org/2000/svg"
 width="200.000000pt" height="202.000000pt" viewBox="0 0 200.000000 202.000000"
 preserveAspectRatio="xMidYMid meet">
<metadata>
Created by potrace 1.16, written by Peter Selinger 2001-2019
</metadata>
<g transform="translate(0.000000,202.000000) scale(0.100000,-0.100000)"
fill="#000000" stroke="none">
<path d="M415 2004 c-194 -47 -355 -194 -401 -368 -11 -41 -14 -200 -14 -814
l0 -764 29 -29 29 -29 942 0 942 0 29 29 29 29 0 379 c0 420 -3 441 -64 538
-74 115 -158 162 -371 209 -100 23 -185 69 -249 135 -64 68 -85 107 -121 226
-43 141 -87 220 -169 300 -80 79 -179 134 -286 159 -81 19 -245 19 -325 0z
m329 -50 c129 -33 267 -134 333 -245 18 -30 50 -110 73 -179 23 -69 55 -146
72 -173 72 -113 201 -192 373 -228 124 -26 201 -66 265 -136 78 -85 90 -130
90 -338 l0 -175 -950 0 -950 0 0 558 c0 493 2 564 17 608 48 145 172 257 338
305 79 23 255 25 339 3z m-474 -1634 c4 -93 8 -115 20 -115 12 0 16 22 20 115
l5 115 117 3 117 3 3 -118 c3 -110 4 -118 23 -118 19 0 20 8 23 118 l3 117
119 0 120 0 0 -114 c0 -119 10 -147 37 -110 10 14 13 47 12 119 l-2 100 117 3
116 3 0 -108 c0 -113 7 -140 34 -130 13 5 16 25 16 122 l0 115 120 0 119 0 3
-117 c3 -110 4 -118 23 -118 19 0 20 8 23 118 l3 118 117 -3 117 -3 2 -103 c1
-111 6 -136 26 -130 8 3 14 40 17 119 l5 114 103 3 102 3 0 -185 c0 -180 -1
-185 -22 -200 -20 -14 -124 -16 -923 -16 -705 0 -905 3 -925 13 l-25 13 -3
187 -2 188 107 -3 108 -3 5 -115z"/>
</g>
</svg>
