<?xml version="1.0" standalone="no"?>
<!DOCTYPE svg PUBLIC "-//W3C//DTD SVG 20010904//EN"
 "http://www.w3.org/TR/2001/REC-SVG-20010904/DTD/svg10.dtd">
<svg version="1.0" xmlns="http://www.w3.org/2000/svg"
 width="169.000000pt" height="192.000000pt" viewBox="0 0 169.000000 192.000000"
 preserveAspectRatio="xMidYMid meet">
<metadata>
Created by potrace 1.16, written by Peter Selinger 2001-2019
</metadata>
<g transform="translate(0.000000,192.000000) scale(0.100000,-0.100000)"
fill="#000000" stroke="none">
<path d="M1245 1795 c-214 -68 -459 -146 -544 -172 -131 -41 -155 -52 -163
-72 -5 -14 -8 -249 -6 -558 2 -293 0 -533 -3 -533 -4 0 -12 7 -20 16 -37 44
-140 69 -226 53 -165 -31 -277 -147 -277 -289 0 -126 71 -205 206 -230 105
-20 254 32 322 112 64 75 66 90 66 597 l0 456 193 60 c146 45 662 209 820 261
16 5 17 -17 17 -377 l0 -381 -22 16 c-64 45 -82 51 -173 51 -76 0 -98 -4 -145
-26 -110 -51 -177 -135 -187 -233 -11 -111 41 -204 138 -246 43 -18 66 -21
133 -18 134 6 245 72 292 173 l24 50 0 696 c0 719 0 720 -39 718 -9 0 -191
-56 -406 -124z m385 -89 l0 -144 -32 -11 c-18 -5 -186 -58 -373 -116 -187 -59
-402 -126 -478 -151 -77 -24 -141 -44 -143 -44 -2 0 -4 65 -4 144 l0 143 59
17 c102 29 944 295 949 301 18 17 22 -10 22 -139z m-107 -972 c76 -38 107 -88
107 -169 0 -71 -27 -125 -82 -165 -99 -72 -257 -79 -330 -13 -28 24 -58 91
-58 128 0 127 123 233 273 234 35 1 71 -6 90 -15z m-1133 -265 c148 -32 200
-212 91 -320 -90 -89 -282 -106 -364 -31 -76 69 -63 219 25 285 58 44 106 63
190 76 4 1 30 -4 58 -10z"/>
</g>
</svg>
