<?xml version="1.0" standalone="no"?>
<!DOCTYPE svg PUBLIC "-//W3C//DTD SVG 20010904//EN"
 "http://www.w3.org/TR/2001/REC-SVG-20010904/DTD/svg10.dtd">
<svg version="1.0" xmlns="http://www.w3.org/2000/svg"
 width="173.000000pt" height="177.000000pt" viewBox="0 0 173.000000 177.000000"
 preserveAspectRatio="xMidYMid meet">
<metadata>
Created by potrace 1.16, written by Peter Selinger 2001-2019
</metadata>
<g transform="translate(0.000000,177.000000) scale(0.100000,-0.100000)"
fill="#000000" stroke="none">
<path d="M842 1751 c-42 -27 -52 -55 -52 -149 -1 -167 -35 -302 -102 -403 -68
-101 -191 -224 -260 -259 -61 -30 -63 -30 -222 -30 -89 0 -166 -4 -172 -8 -31
-20 -34 -54 -34 -392 0 -214 4 -348 10 -360 19 -36 52 -43 225 -50 165 -7 173
-8 264 -44 52 -20 124 -41 160 -46 85 -12 624 -12 718 0 121 16 176 55 188
137 4 27 1 49 -13 75 l-19 37 32 11 c56 18 105 86 105 144 0 12 -11 44 -24 70
l-24 47 28 14 c34 18 66 67 75 118 11 55 -17 121 -63 152 -20 14 -31 25 -25
25 22 0 55 69 55 115 0 58 -27 101 -77 125 -38 18 -63 20 -302 20 l-260 0 28
85 c78 233 51 477 -63 552 -54 36 -131 42 -176 14z m138 -36 c119 -62 142
-313 50 -558 l-21 -57 -48 0 c-53 0 -66 -7 -50 -27 9 -10 77 -13 338 -13 306
0 328 -1 358 -20 55 -33 61 -116 13 -165 -18 -18 -37 -21 -173 -25 -131 -4
-152 -7 -155 -22 -3 -14 14 -17 155 -20 179 -3 203 -11 230 -75 18 -45 10 -93
-22 -130 l-23 -28 -168 -5 c-150 -4 -169 -7 -172 -23 -3 -15 8 -17 127 -17
l131 0 38 -34 c33 -30 37 -40 37 -81 0 -41 -4 -51 -37 -81 l-38 -34 -141 0
c-128 0 -140 -2 -137 -17 3 -15 17 -18 100 -21 87 -2 98 -5 121 -28 58 -57 42
-124 -38 -164 l-50 -25 -385 0 c-369 0 -387 1 -440 21 -180 70 -166 67 -347
73 -97 4 -177 11 -183 17 -7 7 -9 128 -8 360 l3 349 170 5 c159 5 173 7 220
32 109 57 265 221 329 345 31 61 48 149 55 290 7 131 9 145 31 168 28 29 84
34 130 10z"/>
</g>
</svg>
