<?xml version="1.0" standalone="no"?>
<!DOCTYPE svg PUBLIC "-//W3C//DTD SVG 20010904//EN"
 "http://www.w3.org/TR/2001/REC-SVG-20010904/DTD/svg10.dtd">
<svg version="1.0" xmlns="http://www.w3.org/2000/svg"
 width="151.000000pt" height="165.000000pt" viewBox="0 0 151.000000 165.000000"
 preserveAspectRatio="xMidYMid meet">
<metadata>
Created by potrace 1.16, written by Peter Selinger 2001-2019
</metadata>
<g transform="translate(0.000000,165.000000) scale(0.100000,-0.100000)"
fill="#000000" stroke="none">
<path d="M614 1630 c-118 -31 -213 -85 -302 -172 -93 -91 -135 -182 -152 -330
-14 -118 -29 -164 -84 -252 -62 -101 -76 -131 -76 -165 0 -39 32 -61 89 -61
l44 0 -6 -79 c-9 -109 7 -192 47 -244 51 -68 82 -79 214 -74 112 3 113 3 131
-22 27 -40 33 -60 40 -146 5 -62 9 -80 21 -80 12 0 15 14 14 71 -2 83 -17 136
-51 182 l-25 33 -124 -3 c-142 -3 -159 4 -204 83 -23 40 -25 55 -26 165 -1 67
-4 126 -8 133 -4 6 -26 11 -50 11 -23 0 -51 6 -61 14 -24 17 -17 34 57 151 57
87 88 174 88 240 0 101 39 212 107 300 l37 48 12 -61 c31 -151 154 -306 314
-396 82 -46 83 -46 107 -29 76 55 110 63 169 38 38 -16 64 -62 64 -113 0 -52
-30 -130 -62 -162 -29 -29 -36 -31 -86 -28 -38 2 -57 -1 -59 -9 -5 -15 36 -33
72 -33 24 0 24 -2 17 -47 -13 -87 -7 -254 13 -328 22 -87 64 -185 79 -186 85
-4 523 4 530 11 5 5 -4 43 -22 92 -77 207 -86 270 -87 623 -1 281 -2 305 -24
375 -72 239 -234 406 -442 455 -88 20 -227 18 -315 -5z m326 -36 c230 -67 384
-272 420 -556 6 -54 7 -141 1 -248 -15 -279 8 -426 104 -663 7 -16 -8 -17
-234 -17 l-241 0 -20 40 c-72 142 -82 469 -16 521 13 11 36 42 50 71 31 62 36
169 11 219 -38 72 -146 92 -235 43 l-47 -26 -39 20 c-149 76 -266 214 -309
365 -18 63 -11 107 22 134 57 44 202 103 288 117 52 8 189 -3 245 -20z"/>
</g>
</svg>
