<?xml version="1.0" standalone="no"?>
<!DOCTYPE svg PUBLIC "-//W3C//DTD SVG 20010904//EN"
 "http://www.w3.org/TR/2001/REC-SVG-20010904/DTD/svg10.dtd">
<svg version="1.0" xmlns="http://www.w3.org/2000/svg"
 width="164.000000pt" height="219.000000pt" viewBox="0 0 164.000000 219.000000"
 preserveAspectRatio="xMidYMid meet">
<metadata>
Created by potrace 1.16, written by Peter Selinger 2001-2019
</metadata>
<g transform="translate(0.000000,219.000000) scale(0.100000,-0.100000)"
fill="#000000" stroke="none">
<path d="M327 2184 c-3 -3 -3 -12 0 -20 4 -11 33 -14 139 -14 l133 0 10 -37
c13 -49 30 -126 31 -135 0 -5 -97 -8 -216 -8 -137 0 -231 -4 -256 -12 -51 -15
-121 -77 -147 -131 -21 -42 -21 -55 -21 -666 0 -449 3 -635 12 -663 15 -51 82
-126 133 -149 27 -13 64 -19 115 -19 l75 0 -149 -149 c-106 -106 -147 -154
-143 -165 11 -28 31 -18 92 44 l59 60 625 0 625 0 62 -61 c42 -42 67 -60 78
-56 9 4 16 12 16 18 0 7 -66 79 -147 161 l-147 148 72 0 c40 0 87 6 106 14 51
21 107 76 132 131 l24 50 0 619 c0 461 -3 629 -12 660 -17 56 -100 141 -153
155 -23 6 -133 11 -264 11 -174 0 -222 3 -218 13 2 6 12 47 22 89 l19 77 130
3 c109 3 131 6 131 18 0 13 -61 15 -481 18 -264 1 -483 -1 -487 -4z m660 -47
c-2 -7 -12 -47 -22 -90 l-17 -78 -131 3 -132 3 -17 70 c-27 116 -43 105 153
105 134 0 170 -3 166 -13z m488 -226 c22 -10 52 -31 67 -47 59 -64 58 -47 58
-714 0 -661 2 -641 -56 -709 -61 -73 -37 -71 -722 -71 -669 0 -652 -1 -716 58
-16 15 -37 45 -47 67 -17 38 -19 78 -19 658 0 589 1 620 19 655 11 20 32 49
48 64 62 59 43 57 713 57 578 1 617 -1 655 -18z m-152 -1661 c42 -44 77 -81
77 -83 0 -1 -261 -2 -580 -2 -319 0 -580 1 -580 1 0 1 37 38 83 83 l82 81 421
0 421 0 76 -80z"/>
<path d="M290 1698 c-73 -50 -75 -58 -75 -267 0 -207 4 -222 68 -261 31 -19
54 -20 525 -20 551 0 540 -1 588 69 23 34 24 42 24 209 0 197 -7 226 -69 268
l-36 24 -496 0 -496 0 -33 -22z m1030 -33 c53 -27 60 -56 60 -239 l0 -166 -29
-32 -29 -33 -484 -3 c-266 -1 -494 0 -506 3 -13 3 -35 18 -48 32 -23 25 -24
30 -24 195 0 185 7 215 58 242 41 23 959 23 1002 1z"/>
<path d="M319 847 c-88 -58 -92 -180 -10 -250 87 -73 229 -16 248 98 8 52 -21
120 -65 150 -49 34 -125 34 -173 2z m140 -32 c79 -40 72 -165 -11 -199 -62
-27 -142 15 -154 81 -17 92 80 162 165 118z"/>
<path d="M1152 850 c-45 -28 -72 -76 -72 -130 0 -64 28 -110 83 -138 52 -27
101 -24 156 9 34 20 70 87 71 128 0 40 -39 109 -74 131 -44 27 -120 27 -164 0z
m138 -37 c55 -32 71 -109 34 -160 -82 -110 -252 -4 -189 117 30 59 97 77 155
43z"/>
</g>
</svg>
