<?xml version="1.0" standalone="no"?>
<!DOCTYPE svg PUBLIC "-//W3C//DTD SVG 20010904//EN"
 "http://www.w3.org/TR/2001/REC-SVG-20010904/DTD/svg10.dtd">
<svg version="1.0" xmlns="http://www.w3.org/2000/svg"
 width="362.000000pt" height="86.000000pt" viewBox="0 0 362.000000 86.000000"
 preserveAspectRatio="xMidYMid meet">
<metadata>
Created by potrace 1.16, written by Peter Selinger 2001-2019
</metadata>
<g transform="translate(0.000000,86.000000) scale(0.100000,-0.100000)"
fill="#000000" stroke="none">
<path d="M675 846 c-65 -18 -133 -89 -163 -169 -51 -136 -52 -367 -3 -498 26
-70 83 -136 135 -160 79 -36 197 -20 254 34 32 30 69 93 88 153 24 75 30 311
10 397 -45 193 -167 285 -321 243z m133 -70 c71 -37 114 -116 133 -245 24
-170 -11 -340 -86 -420 -43 -45 -45 -46 -107 -46 -50 0 -70 5 -95 23 -73 52
-113 173 -113 340 0 166 46 295 122 342 39 23 107 26 146 6z"/>
<path d="M1345 851 c-147 -37 -219 -180 -218 -431 1 -273 95 -420 270 -420
103 1 170 47 217 151 35 76 46 142 46 278 0 167 -28 270 -95 349 -46 55 -152
90 -220 73z m113 -75 c34 -18 75 -62 95 -102 31 -60 50 -192 44 -294 -14 -217
-91 -330 -217 -318 -65 7 -103 37 -139 111 -72 148 -66 402 12 535 43 72 137
103 205 68z"/>
<path d="M1995 851 c-81 -20 -151 -87 -184 -175 -58 -157 -50 -406 19 -539 48
-93 116 -136 213 -137 175 0 270 148 269 420 -1 175 -29 278 -98 359 -46 55
-150 89 -219 72z m155 -106 c46 -45 75 -108 89 -196 31 -186 -6 -368 -90 -444
-44 -40 -74 -50 -129 -42 -57 7 -95 40 -129 110 -38 76 -51 144 -51 256 1 165
44 287 120 339 29 20 44 23 93 20 50 -4 62 -9 97 -43z"/>
<path d="M2637 846 c-62 -17 -94 -41 -134 -100 -51 -75 -65 -134 -70 -291 -4
-106 -1 -157 11 -208 39 -167 120 -247 251 -247 178 0 270 148 269 435 -1 168
-27 262 -96 340 -59 68 -146 94 -231 71z m155 -88 c143 -109 145 -555 3 -664
-37 -28 -97 -41 -140 -30 -40 10 -100 71 -123 124 -44 103 -52 309 -17 429 20
68 66 136 106 156 49 25 128 18 171 -15z"/>
<path d="M3295 849 c-88 -21 -156 -98 -192 -214 -27 -89 -25 -345 3 -430 28
-82 66 -140 116 -172 56 -38 166 -45 224 -15 107 55 159 163 171 357 10 174
-24 315 -97 398 -61 69 -141 96 -225 76z m143 -88 c42 -30 77 -92 98 -171 24
-94 16 -303 -15 -383 -39 -100 -94 -147 -171 -147 -75 0 -121 38 -167 135 -27
58 -28 66 -28 220 0 129 4 171 18 215 22 65 57 114 101 141 41 27 120 22 164
-10z"/>
<path d="M91 752 c-68 -64 -92 -93 -90 -107 8 -39 38 -28 109 41 l70 67 2
-374 3 -374 25 0 25 0 3 418 2 417 -27 0 c-21 -1 -52 -23 -122 -88z"/>
<path d="M351 96 c-17 -20 -10 -77 12 -90 25 -16 51 4 55 43 4 36 -12 61 -38
61 -10 0 -23 -6 -29 -14z"/>
</g>
</svg>
