<?xml version="1.0" standalone="no"?>
<!DOCTYPE svg PUBLIC "-//W3C//DTD SVG 20010904//EN"
 "http://www.w3.org/TR/2001/REC-SVG-20010904/DTD/svg10.dtd">
<svg version="1.0" xmlns="http://www.w3.org/2000/svg"
 width="118.000000pt" height="181.000000pt" viewBox="0 0 118.000000 181.000000"
 preserveAspectRatio="xMidYMid meet">
<metadata>
Created by potrace 1.16, written by Peter Selinger 2001-2019
</metadata>
<g transform="translate(0.000000,181.000000) scale(0.100000,-0.100000)"
fill="#000000" stroke="none">
<path d="M565 1788 c-9 -32 -193 -601 -270 -838 -201 -615 -295 -916 -290
-927 13 -35 44 -17 289 159 141 100 266 189 279 197 21 13 37 4 292 -179 149
-107 279 -194 290 -194 13 -1 21 6 23 19 2 18 -143 484 -444 1418 -109 338
-120 367 -140 367 -15 0 -25 -8 -29 -22z m-2 -770 l-3 -573 -237 -172 c-131
-94 -239 -171 -240 -169 -1 1 92 292 208 646 115 355 223 689 240 743 17 53
31 97 32 97 1 0 1 -258 0 -572z m77 540 c0 -5 54 -177 120 -382 214 -667 339
-1061 335 -1064 -1 -2 -109 72 -239 165 l-235 168 -1 568 c0 376 3 566 10 562
6 -3 10 -11 10 -17z"/>
</g>
</svg>
