<?xml version="1.0" standalone="no"?>
<!DOCTYPE svg PUBLIC "-//W3C//DTD SVG 20010904//EN"
 "http://www.w3.org/TR/2001/REC-SVG-20010904/DTD/svg10.dtd">
<svg version="1.0" xmlns="http://www.w3.org/2000/svg"
 width="205.000000pt" height="211.000000pt" viewBox="0 0 205.000000 211.000000"
 preserveAspectRatio="xMidYMid meet">
<metadata>
Created by potrace 1.16, written by Peter Selinger 2001-2019
</metadata>
<g transform="translate(0.000000,211.000000) scale(0.100000,-0.100000)"
fill="#000000" stroke="none">
<path d="M875 2096 c-250 -49 -458 -209 -561 -432 l-34 -73 -138 -3 -137 -3
-3 -137 -3 -137 39 -20 c22 -11 51 -34 65 -51 55 -65 57 -86 57 -666 l0 -533
-77 -3 c-61 -2 -78 -6 -78 -18 0 -13 121 -15 1018 -18 1012 -2 1017 -2 1017
18 0 18 -7 20 -70 20 l-70 0 0 557 c0 548 0 557 21 601 16 31 37 54 76 78 l54
35 -3 137 -3 137 -144 5 -143 5 -20 49 c-44 113 -157 253 -260 324 -68 47
-161 90 -240 112 -95 27 -268 34 -363 16z m250 -36 c187 -27 353 -118 467
-257 46 -55 118 -179 118 -202 0 -8 -194 -11 -691 -11 l-690 0 7 23 c23 74 98
180 183 259 161 149 387 219 606 188z m875 -620 c0 -70 -4 -110 -10 -110 -6 0
-33 -22 -60 -49 -81 -81 -80 -71 -80 -698 l0 -543 -163 0 -163 0 -76 95 c-43
52 -74 96 -70 98 4 3 24 7 45 11 27 5 52 21 82 50 65 65 67 87 63 526 l-3 375
-27 50 c-32 62 -59 88 -123 117 -49 23 -56 23 -395 23 -329 0 -347 -1 -390
-21 -51 -23 -102 -71 -128 -118 -15 -28 -17 -76 -20 -444 -3 -406 -2 -415 19
-458 25 -52 67 -87 125 -104 l42 -12 -76 -94 -76 -94 -158 0 -157 0 -3 568
c-3 561 -3 567 -25 608 -22 41 -94 114 -113 114 -6 0 -10 44 -10 110 l0 110
975 0 975 0 0 -110z m-627 -111 c49 -13 105 -63 128 -114 17 -36 19 -74 19
-431 0 -389 0 -391 -22 -424 -13 -18 -36 -43 -51 -54 -28 -20 -38 -21 -427
-21 -390 0 -399 0 -427 21 -15 12 -37 36 -48 55 -19 32 -20 55 -23 399 -4 412
0 445 54 509 57 66 80 70 444 70 191 1 330 -3 353 -10z m16 -1192 l74 -92
-438 -3 c-241 -1 -440 0 -442 2 -2 2 29 45 69 95 l73 91 295 -1 295 0 74 -92z"/>
<path d="M713 1161 c-46 -28 -55 -72 -51 -228 l3 -133 33 -32 32 -33 263 -3
c144 -2 276 -1 293 3 18 3 44 17 58 32 26 26 26 26 26 189 0 158 -1 164 -24
191 l-24 28 -289 3 c-272 2 -290 1 -320 -17z m599 -48 c16 -14 18 -33 18 -152
0 -198 29 -181 -306 -181 -342 0 -314 -16 -314 177 0 113 3 140 17 155 15 17
37 18 291 18 242 0 278 -2 294 -17z"/>
<path d="M1253 578 c-98 -26 -97 -165 1 -198 64 -21 136 33 136 100 0 67 -69
116 -137 98z m65 -54 c56 -39 -7 -134 -64 -96 -18 12 -35 52 -28 65 28 48 54
58 92 31z"/>
<path d="M682 555 c-81 -68 -17 -200 88 -179 44 9 80 56 80 106 0 86 -100 130
-168 73z m108 -35 c11 -11 20 -29 20 -40 0 -25 -34 -60 -58 -60 -29 0 -62 29
-62 56 0 29 32 64 60 64 11 0 29 -9 40 -20z"/>
</g>
</svg>
