<?xml version="1.0" standalone="no"?>
<!DOCTYPE svg PUBLIC "-//W3C//DTD SVG 20010904//EN"
 "http://www.w3.org/TR/2001/REC-SVG-20010904/DTD/svg10.dtd">
<svg version="1.0" xmlns="http://www.w3.org/2000/svg"
 width="255.000000pt" height="254.000000pt" viewBox="0 0 255.000000 254.000000"
 preserveAspectRatio="xMidYMid meet">
<metadata>
Created by potrace 1.16, written by Peter Selinger 2001-2019
</metadata>
<g transform="translate(0.000000,254.000000) scale(0.100000,-0.100000)"
fill="#000000" stroke="none">
<path d="M1180 2534 c-14 -2 -59 -9 -100 -15 -399 -56 -763 -320 -945 -688
-90 -181 -128 -347 -128 -561 0 -213 35 -366 127 -555 124 -254 315 -449 563
-574 438 -221 968 -177 1354 114 241 181 408 445 475 755 28 127 26 410 -4
538 -114 493 -491 862 -981 962 -95 19 -308 34 -361 24z m326 -79 c513 -97
906 -513 975 -1032 14 -106 7 -299 -15 -401 -105 -485 -473 -847 -961 -943
-103 -20 -349 -18 -455 4 -438 93 -772 384 -918 799 -52 146 -65 240 -59 428
6 207 30 311 116 485 162 331 437 552 800 645 165 42 348 47 517 15z"/>
<path d="M1261 2336 c-7 -8 -11 -37 -9 -68 3 -49 5 -53 28 -53 23 0 25 4 28
53 3 49 -8 82 -28 82 -4 0 -13 -6 -19 -14z"/>
<path d="M714 2196 c-7 -19 52 -116 71 -116 7 0 18 7 25 15 10 13 8 24 -17 63
-30 49 -68 67 -79 38z"/>
<path d="M1257 2064 c-4 -4 -7 -157 -7 -339 l0 -333 -40 -40 c-35 -34 -40 -46
-40 -84 0 -50 18 -82 60 -103 86 -44 180 22 167 118 -6 40 -36 82 -68 92 -18
6 -19 27 -21 348 -3 336 -3 342 -23 345 -12 2 -24 0 -28 -4z m68 -764 c23 -25
13 -67 -20 -82 -35 -16 -75 12 -75 52 0 48 61 68 95 30z"/>
<path d="M190 1295 c-25 -31 -5 -45 65 -45 49 0 67 4 71 15 11 28 -16 45 -71
45 -34 0 -57 -5 -65 -15z"/>
<path d="M2240 1295 c-7 -8 -10 -22 -6 -30 5 -13 19 -15 73 -13 57 3 68 6 71
22 5 26 -15 36 -74 36 -34 0 -56 -5 -64 -15z"/>
<path d="M1254 336 c-3 -7 -4 -40 -2 -72 3 -55 5 -59 28 -59 23 0 25 4 28 58
3 60 -8 87 -35 87 -7 0 -16 -6 -19 -14z"/>
</g>
</svg>
