<?xml version="1.0" standalone="no"?>
<!DOCTYPE svg PUBLIC "-//W3C//DTD SVG 20010904//EN"
 "http://www.w3.org/TR/2001/REC-SVG-20010904/DTD/svg10.dtd">
<svg version="1.0" xmlns="http://www.w3.org/2000/svg"
 width="129.000000pt" height="219.000000pt" viewBox="0 0 129.000000 219.000000"
 preserveAspectRatio="xMidYMid meet">
<metadata>
Created by potrace 1.16, written by Peter Selinger 2001-2019
</metadata>
<g transform="translate(0.000000,219.000000) scale(0.100000,-0.100000)"
fill="#000000" stroke="none">
<path d="M410 2180 c-36 -4 -81 -13 -100 -20 -46 -17 -116 -65 -124 -85 -12
-33 -5 -92 24 -204 17 -62 30 -120 30 -128 0 -8 -11 -28 -24 -44 -31 -36 -39
-80 -71 -354 -14 -121 -51 -418 -82 -660 -31 -242 -57 -472 -57 -512 -1 -83
15 -113 80 -150 39 -23 39 -23 564 -23 587 0 568 -2 619 71 21 32 23 41 18
129 -10 178 -158 1372 -179 1442 -6 21 -21 49 -34 61 l-22 22 34 115 c18 63
37 138 40 167 6 50 5 54 -27 86 -48 48 -130 75 -262 87 -126 11 -329 11 -427
0z m569 -64 c68 -22 101 -54 101 -98 0 -41 -56 -256 -71 -275 -9 -10 -79 -13
-353 -13 -187 0 -347 4 -354 9 -14 8 -82 248 -82 287 0 36 61 81 127 94 32 7
63 14 68 16 6 2 123 2 260 0 205 -2 260 -6 304 -20z m58 -441 c11 -8 25 -34
31 -57 18 -73 155 -1168 172 -1371 10 -129 1 -159 -60 -190 -32 -16 -73 -17
-535 -15 -456 3 -503 5 -532 21 -54 29 -66 58 -60 135 3 37 32 283 65 547 33
264 68 543 77 620 29 245 40 298 69 317 6 4 178 8 381 8 310 0 374 -2 392 -15z"/>
<path d="M637 2073 c-4 -3 -7 -17 -7 -30 0 -20 5 -24 22 -21 26 3 37 36 16 49
-16 11 -23 11 -31 2z"/>
<path d="M482 1994 c-26 -18 -26 -51 0 -68 13 -8 22 -6 37 8 25 23 27 61 5 70
-20 8 -16 9 -42 -10z"/>
<path d="M782 2003 c-22 -9 -34 -41 -22 -63 13 -25 42 -26 63 -2 36 39 7 85
-41 65z"/>
<path d="M630 1883 c0 -28 16 -47 35 -40 25 10 15 51 -12 55 -17 3 -23 -2 -23
-15z"/>
</g>
</svg>
