<?xml version="1.0" standalone="no"?>
<!DOCTYPE svg PUBLIC "-//W3C//DTD SVG 20010904//EN"
 "http://www.w3.org/TR/2001/REC-SVG-20010904/DTD/svg10.dtd">
<svg version="1.0" xmlns="http://www.w3.org/2000/svg"
 width="242.000000pt" height="209.000000pt" viewBox="0 0 242.000000 209.000000"
 preserveAspectRatio="xMidYMid meet">
<metadata>
Created by potrace 1.16, written by Peter Selinger 2001-2019
</metadata>
<g transform="translate(0.000000,209.000000) scale(0.100000,-0.100000)"
fill="#000000" stroke="none">
<path d="M335 2066 c-91 -42 -155 -142 -155 -241 0 -97 72 -209 155 -240 55
-22 164 -17 218 9 89 43 137 122 137 226 0 193 -189 324 -355 246z m181 -35
c49 -22 111 -92 124 -140 12 -45 13 -112 1 -144 -16 -40 -73 -99 -116 -118
-22 -10 -62 -19 -90 -19 -187 0 -283 222 -157 362 67 74 156 96 238 59z"/>
<path d="M835 1980 c-3 -5 -3 -14 0 -20 4 -7 260 -10 735 -10 711 0 730 0 740
-19 6 -13 10 -222 10 -610 l0 -591 -705 0 c-698 0 -705 0 -705 -20 0 -20 7
-20 735 -20 l735 0 0 -49 c0 -35 -4 -51 -16 -55 -9 -3 -340 -6 -736 -6 -680 0
-719 -1 -716 -17 3 -17 47 -18 736 -21 854 -3 772 -14 772 113 l0 75 -30 0
-30 0 -2 609 c-3 583 -4 610 -22 630 -19 21 -20 21 -757 21 -481 0 -740 -3
-744 -10z"/>
<path d="M187 1496 c-55 -20 -104 -56 -133 -98 -51 -72 -53 -91 -54 -413 0
-282 1 -302 20 -333 26 -42 76 -72 123 -72 l37 0 0 -284 c0 -277 4 -316 31
-289 14 14 16 1179 2 1194 -29 29 -33 -4 -33 -298 l0 -295 -36 7 c-54 10 -81
31 -99 79 -14 37 -16 82 -13 312 3 267 3 269 30 326 29 62 84 110 147 129 22
7 117 9 251 7 263 -4 253 1 410 -167 69 -74 120 -121 132 -121 11 0 45 18 75
40 31 22 66 40 78 40 25 0 55 -29 55 -52 0 -15 -124 -143 -183 -188 -46 -37
-75 -23 -200 95 -61 58 -118 104 -125 103 -11 -3 -14 -105 -14 -601 -1 -406 3
-602 10 -609 30 -30 32 7 32 574 l0 571 94 -91 c96 -93 133 -112 189 -98 13 3
72 52 132 109 107 103 108 104 102 142 -3 21 -14 46 -24 57 -16 18 -14 22 80
109 53 50 97 95 97 100 0 5 -7 12 -15 15 -9 4 -53 -29 -117 -87 -57 -50 -119
-99 -138 -107 -19 -8 -54 -30 -78 -49 l-43 -35 -127 129 c-164 167 -154 163
-442 163 -154 -1 -226 -5 -253 -14z"/>
<path d="M437 633 c-4 -3 -7 -145 -7 -314 0 -313 4 -348 37 -304 10 15 13 78
13 291 0 149 -3 286 -6 303 -6 29 -22 40 -37 24z"/>
</g>
</svg>
