<?xml version="1.0" standalone="no"?>
<!DOCTYPE svg PUBLIC "-//W3C//DTD SVG 20010904//EN"
 "http://www.w3.org/TR/2001/REC-SVG-20010904/DTD/svg10.dtd">
<svg version="1.0" xmlns="http://www.w3.org/2000/svg"
 width="171.000000pt" height="156.000000pt" viewBox="0 0 171.000000 156.000000"
 preserveAspectRatio="xMidYMid meet">
<metadata>
Created by potrace 1.16, written by Peter Selinger 2001-2019
</metadata>
<g transform="translate(0.000000,156.000000) scale(0.100000,-0.100000)"
fill="#000000" stroke="none">
<path d="M1120 1549 c-30 -5 -92 -27 -138 -50 -95 -46 -146 -102 -182 -196
-28 -73 -40 -221 -19 -234 15 -10 181 -12 215 -3 15 4 23 19 32 62 21 103 60
145 148 161 99 19 188 -26 215 -107 15 -45 14 -134 -1 -164 -35 -66 -72 -84
-214 -102 l-91 -11 -3 -99 c-2 -73 1 -102 10 -108 7 -4 41 -8 74 -8 132 0 215
-33 249 -100 22 -42 29 -128 15 -180 -18 -65 -46 -99 -107 -127 -138 -63 -297
10 -336 154 l-11 43 -117 0 c-65 0 -120 -3 -122 -7 -2 -5 -1 -40 3 -78 12
-128 76 -234 182 -305 83 -55 181 -84 288 -84 260 -1 452 147 491 378 28 165
-27 317 -143 399 l-46 33 48 42 c69 59 101 130 107 235 20 311 -217 509 -547
456z m281 -68 c67 -26 139 -86 174 -146 51 -87 65 -227 33 -338 -14 -46 -65
-107 -124 -148 -24 -16 -44 -34 -44 -39 0 -5 27 -23 61 -41 113 -61 162 -152
161 -304 0 -161 -63 -277 -194 -357 -103 -64 -285 -81 -411 -39 -85 29 -174
94 -214 157 -33 52 -63 140 -63 186 l0 28 79 0 78 0 17 -43 c23 -60 66 -108
127 -142 48 -27 63 -30 139 -30 95 0 139 16 191 68 45 45 62 85 67 165 10 154
-67 251 -213 266 -33 4 -79 9 -102 12 l-43 5 0 64 0 64 48 5 c208 25 277 81
277 226 0 129 -74 221 -190 235 -131 17 -228 -45 -262 -166 l-16 -59 -84 0
c-60 0 -83 3 -83 13 0 38 23 142 40 181 22 53 91 131 134 153 17 9 56 25 86
35 77 26 251 20 331 -11z"/>
<path d="M294 1500 c-32 -22 -111 -77 -174 -123 l-115 -82 0 -124 c0 -78 4
-126 10 -128 6 -2 52 26 103 62 51 36 94 65 95 65 1 0 2 -254 2 -564 0 -310 4
-568 8 -573 14 -13 212 -16 236 -4 l21 12 0 743 c0 669 -2 744 -16 750 -9 3
-37 6 -63 6 -39 0 -59 -7 -107 -40z m136 -720 l0 -710 -85 0 -85 0 0 580 c0
490 -2 581 -14 586 -8 3 -55 -24 -105 -60 l-91 -66 0 82 1 83 152 107 c126 88
158 107 190 107 l37 1 0 -710z"/>
</g>
</svg>
