<?xml version="1.0" standalone="no"?>
<!DOCTYPE svg PUBLIC "-//W3C//DTD SVG 20010904//EN"
 "http://www.w3.org/TR/2001/REC-SVG-20010904/DTD/svg10.dtd">
<svg version="1.0" xmlns="http://www.w3.org/2000/svg"
 width="163.000000pt" height="254.000000pt" viewBox="0 0 163.000000 254.000000"
 preserveAspectRatio="xMidYMid meet">
<metadata>
Created by potrace 1.16, written by Peter Selinger 2001-2019
</metadata>
<g transform="translate(0.000000,254.000000) scale(0.100000,-0.100000)"
fill="#000000" stroke="none">
<path d="M723 2526 c-90 -29 -178 -120 -203 -211 -28 -100 6 -241 74 -304 30
-28 33 -41 10 -41 -9 0 -57 -21 -107 -47 -166 -86 -316 -257 -410 -471 -66
-149 -102 -385 -77 -505 23 -111 112 -169 206 -135 42 15 42 15 54 -11 13 -28
80 -538 80 -612 0 -36 -5 -51 -25 -69 -31 -29 -33 -72 -5 -100 19 -19 33 -20
500 -20 467 0 481 1 500 20 27 27 25 62 -5 98 -33 39 -33 68 6 394 31 264 44
316 76 303 63 -24 118 -16 164 22 52 44 69 94 69 205 0 229 -89 481 -235 666
-34 42 -85 97 -113 121 -61 50 -192 127 -233 136 -16 4 -29 9 -29 12 0 3 14
21 31 41 172 195 42 506 -216 518 -42 2 -87 -2 -112 -10z m213 -54 c87 -44
143 -126 151 -221 10 -110 -42 -211 -137 -265 -48 -27 -65 -31 -130 -31 -87 0
-134 19 -190 75 -74 74 -99 188 -65 291 22 65 93 139 156 162 59 22 161 17
215 -11z m-223 -542 c67 -24 147 -25 202 -3 61 24 88 20 189 -30 107 -53 218
-150 292 -253 57 -80 126 -227 157 -334 30 -104 51 -266 42 -323 -16 -92 -66
-147 -133 -147 -47 0 -64 19 -52 60 31 107 21 286 -24 417 -33 96 -84 193
-101 193 -21 0 -19 -13 10 -70 76 -151 111 -349 86 -485 -16 -88 -63 -176
-122 -229 -63 -57 -131 -90 -238 -117 -73 -18 -104 -21 -230 -17 -122 4 -159
10 -228 32 -97 31 -163 75 -219 143 -64 78 -86 147 -92 284 -5 138 15 236 77
366 22 45 37 84 33 87 -22 23 -57 -27 -102 -148 -50 -132 -64 -316 -35 -430 9
-33 14 -60 13 -61 -43 -35 -99 -32 -143 6 -47 42 -59 89 -52 219 15 310 181
617 416 768 44 28 169 88 191 91 3 1 31 -8 63 -19z m-248 -1310 c76 -36 170
-60 263 -67 l72 -6 0 -253 0 -254 -225 0 c-251 0 -260 3 -211 61 34 40 34 64
-4 359 -16 129 -30 241 -30 249 0 7 17 -3 38 -23 20 -21 64 -50 97 -66z m840
78 c-8 -24 -55 -457 -55 -511 0 -45 5 -61 26 -86 49 -58 40 -61 -211 -61
l-225 0 0 255 0 255 45 0 c121 0 322 69 381 131 29 30 46 38 39 17z"/>
</g>
</svg>
