<?xml version="1.0" standalone="no"?>
<!DOCTYPE svg PUBLIC "-//W3C//DTD SVG 20010904//EN"
 "http://www.w3.org/TR/2001/REC-SVG-20010904/DTD/svg10.dtd">
<svg version="1.0" xmlns="http://www.w3.org/2000/svg"
 width="173.000000pt" height="208.000000pt" viewBox="0 0 173.000000 208.000000"
 preserveAspectRatio="xMidYMid meet">
<metadata>
Created by potrace 1.16, written by Peter Selinger 2001-2019
</metadata>
<g transform="translate(0.000000,208.000000) scale(0.100000,-0.100000)"
fill="#000000" stroke="none">
<path d="M269 2066 c-130 -35 -229 -140 -258 -274 -15 -73 -15 -1450 0 -1522
22 -103 114 -202 229 -247 42 -16 97 -17 760 -14 393 2 718 5 723 8 4 2 7 11
7 18 0 12 -109 15 -732 17 l-733 3 -51 27 c-67 35 -111 81 -140 143 l-24 50 0
751 c0 643 2 758 15 802 20 68 96 151 167 183 l53 24 686 3 c621 3 688 1 703
-13 14 -15 16 -93 16 -819 0 -631 -3 -806 -12 -814 -8 -6 -267 -12 -708 -17
-390 -4 -699 -11 -705 -16 -28 -27 30 -29 714 -27 l703 3 24 28 24 28 0 819 0
818 -31 26 -31 26 -676 -1 c-503 0 -689 -4 -723 -13z"/>
</g>
</svg>
