<?xml version="1.0" standalone="no"?>
<!DOCTYPE svg PUBLIC "-//W3C//DTD SVG 20010904//EN"
 "http://www.w3.org/TR/2001/REC-SVG-20010904/DTD/svg10.dtd">
<svg version="1.0" xmlns="http://www.w3.org/2000/svg"
 width="99.000000pt" height="194.000000pt" viewBox="0 0 99.000000 194.000000"
 preserveAspectRatio="xMidYMid meet">
<metadata>
Created by potrace 1.16, written by Peter Selinger 2001-2019
</metadata>
<g transform="translate(0.000000,194.000000) scale(0.100000,-0.100000)"
fill="#000000" stroke="none">
<path d="M400 1929 c-127 -21 -263 -117 -329 -232 -49 -85 -84 -264 -54 -274
16 -6 28 26 41 108 35 235 265 397 508 359 132 -21 260 -104 321 -208 123
-210 62 -426 -172 -604 -216 -163 -265 -259 -265 -514 0 -78 3 -103 14 -107 8
-3 17 -3 20 0 3 4 6 54 6 112 1 244 41 315 288 506 76 59 154 159 183 235 43
113 34 262 -22 372 -31 60 -143 168 -209 201 -100 49 -212 65 -330 46z"/>
<path d="M425 276 c-80 -35 -110 -128 -68 -209 32 -63 134 -87 199 -48 81 49
83 185 4 241 -37 26 -98 33 -135 16z m111 -54 c54 -43 55 -112 3 -156 -67 -56
-159 -13 -159 74 0 81 96 131 156 82z"/>
</g>
</svg>
