<?xml version="1.0" standalone="no"?>
<!DOCTYPE svg PUBLIC "-//W3C//DTD SVG 20010904//EN"
 "http://www.w3.org/TR/2001/REC-SVG-20010904/DTD/svg10.dtd">
<svg version="1.0" xmlns="http://www.w3.org/2000/svg"
 width="217.000000pt" height="183.000000pt" viewBox="0 0 217.000000 183.000000"
 preserveAspectRatio="xMidYMid meet">
<metadata>
Created by potrace 1.16, written by Peter Selinger 2001-2019
</metadata>
<g transform="translate(0.000000,183.000000) scale(0.100000,-0.100000)"
fill="#000000" stroke="none">
<path d="M740 1819 c-182 -21 -400 -82 -496 -140 -97 -59 -182 -156 -218 -249
-50 -127 -16 -357 68 -457 49 -58 79 -60 259 -14 87 22 172 48 190 58 18 10
41 36 51 58 18 35 18 46 8 107 -7 38 -12 104 -12 148 l0 80 38 19 c64 33 148
43 392 48 267 6 412 -6 498 -40 l57 -22 3 -75 c2 -41 -2 -107 -8 -146 -9 -61
-9 -77 5 -112 22 -54 43 -66 182 -106 187 -54 225 -60 266 -42 104 43 175 281
133 446 -46 181 -211 322 -449 385 -187 50 -336 65 -627 64 -146 -1 -299 -5
-340 -10z m697 -44 c166 -21 337 -65 424 -111 205 -108 300 -286 258 -484
l-11 -50 -57 0 c-58 0 -125 16 -318 76 l-113 35 0 87 c0 74 -3 92 -20 109 -29
32 -120 62 -226 74 -130 15 -599 6 -674 -13 -69 -18 -136 -52 -144 -73 -3 -9
-6 -54 -6 -100 l0 -84 -127 -40 c-201 -62 -270 -77 -340 -72 -18 1 -23 10 -33
73 -41 240 96 420 388 512 75 24 252 59 342 69 103 11 545 6 657 -8z m-873
-607 c8 -45 -5 -88 -35 -110 -13 -10 -95 -36 -182 -58 -164 -41 -185 -42 -218
-4 -14 17 -49 78 -49 86 0 2 23 4 51 5 59 3 163 29 309 77 58 19 108 34 111
35 4 1 9 -14 13 -31z m1226 -22 c152 -45 274 -71 290 -61 21 13 9 -24 -20 -64
-47 -64 -60 -66 -213 -27 -182 47 -216 62 -233 101 -18 43 -8 109 15 100 9 -4
81 -26 161 -49z"/>
<path d="M710 1290 c-14 -14 -20 -33 -20 -63 0 -63 -27 -155 -61 -212 -17 -27
-86 -115 -155 -194 -228 -264 -237 -285 -242 -568 l-4 -202 26 -26 25 -25 804
0 804 0 27 26 26 27 0 176 c0 296 -6 310 -315 676 -91 107 -119 164 -135 270
-19 127 -21 129 -115 133 -120 4 -123 3 -127 -66 l-3 -57 -157 -3 -158 -3 0
46 c0 79 -7 85 -110 85 -77 0 -93 -3 -110 -20z m178 -77 c2 -30 9 -53 19 -60
12 -9 64 -13 178 -13 193 0 205 5 205 78 l0 47 72 -2 73 -2 7 -57 c11 -80 35
-161 64 -211 13 -23 81 -109 150 -190 228 -267 236 -285 242 -539 3 -125 1
-188 -7 -203 l-12 -21 -793 0 c-685 0 -795 2 -806 15 -9 10 -11 64 -8 202 6
266 12 279 242 548 158 184 193 246 208 362 6 43 12 83 13 88 1 6 34 9 76 8
l74 -1 3 -49z"/>
<path d="M1010 959 c-111 -22 -226 -116 -278 -226 -23 -50 -27 -71 -27 -154 0
-90 2 -99 38 -171 43 -88 102 -146 187 -187 48 -23 68 -26 160 -26 99 0 110 2
172 33 83 41 158 120 189 200 18 44 23 78 23 152 1 83 -3 102 -26 152 -52 112
-165 202 -286 227 -60 12 -88 13 -152 0z m225 -68 c74 -34 136 -95 172 -169
24 -50 28 -68 28 -147 -1 -77 -5 -98 -28 -146 -32 -66 -108 -142 -175 -172
-67 -31 -217 -31 -284 0 -71 32 -141 103 -174 176 -25 53 -29 75 -29 147 0 71
4 94 27 142 82 177 286 251 463 169z"/>
<path d="M1025 779 c-45 -13 -105 -67 -126 -113 -78 -173 104 -356 276 -277
162 73 165 293 6 374 -56 28 -101 33 -156 16z m160 -60 c73 -49 97 -171 48
-237 -39 -53 -69 -67 -142 -67 -59 0 -72 4 -105 29 -45 34 -66 79 -66 138 1
133 154 212 265 137z"/>
</g>
</svg>
