<?xml version="1.0" standalone="no"?>
<!DOCTYPE svg PUBLIC "-//W3C//DTD SVG 20010904//EN"
 "http://www.w3.org/TR/2001/REC-SVG-20010904/DTD/svg10.dtd">
<svg version="1.0" xmlns="http://www.w3.org/2000/svg"
 width="153.000000pt" height="139.000000pt" viewBox="0 0 153.000000 139.000000"
 preserveAspectRatio="xMidYMid meet">
<metadata>
Created by potrace 1.16, written by Peter Selinger 2001-2019
</metadata>
<g transform="translate(0.000000,139.000000) scale(0.100000,-0.100000)"
fill="#000000" stroke="none">
<path d="M1053 1380 c-152 -22 -270 -121 -328 -274 -14 -37 -25 -87 -25 -111
l0 -45 85 -2 c47 -1 93 -2 102 -2 13 -1 19 10 24 39 21 118 101 195 204 195
165 0 237 -215 131 -395 -29 -48 -137 -167 -373 -408 l-174 -178 3 -97 3 -97
413 -3 413 -2 -3 102 -3 103 -264 3 -263 2 143 148 c197 201 275 295 314 377
162 340 -58 693 -402 645z m207 -66 c197 -89 269 -347 159 -566 -39 -78 -104
-154 -312 -365 -152 -155 -178 -185 -167 -198 11 -13 54 -15 286 -15 l274 0 0
-65 0 -65 -380 0 -380 0 0 71 0 71 193 201 c289 301 327 345 361 417 25 53 31
81 34 148 6 128 -35 214 -123 253 -129 59 -287 -26 -328 -178 l-11 -43 -64 0
-65 0 7 47 c20 147 148 282 296 313 65 13 157 2 220 -26z"/>
<path d="M168 1250 c-90 -75 -160 -140 -163 -153 -3 -12 -5 -65 -3 -117 2 -76
6 -95 18 -98 9 -1 61 31 115 72 55 42 103 76 108 76 4 0 7 -232 7 -515 l0
-515 105 0 105 0 -2 688 -3 687 -65 3 -65 2 -157 -130z m252 -560 l0 -650 -69
0 -69 0 0 68 c-1 37 -1 275 -1 530 -1 254 -5 462 -9 462 -5 0 -57 -36 -115
-80 -59 -44 -109 -80 -112 -80 -3 0 -5 35 -5 78 l0 78 148 122 c136 112 150
121 190 121 l42 1 0 -650z"/>
</g>
</svg>
