<?xml version="1.0" standalone="no"?>
<!DOCTYPE svg PUBLIC "-//W3C//DTD SVG 20010904//EN"
 "http://www.w3.org/TR/2001/REC-SVG-20010904/DTD/svg10.dtd">
<svg version="1.0" xmlns="http://www.w3.org/2000/svg"
 width="194.000000pt" height="101.000000pt" viewBox="0 0 194.000000 101.000000"
 preserveAspectRatio="xMidYMid meet">
<metadata>
Created by potrace 1.16, written by Peter Selinger 2001-2019
</metadata>
<g transform="translate(0.000000,101.000000) scale(0.100000,-0.100000)"
fill="#000000" stroke="none">
<path d="M17 995 c-10 -9 -17 -18 -17 -19 0 -1 31 -98 70 -215 38 -117 70
-215 70 -217 0 -2 -13 -4 -29 -4 -46 0 -81 -17 -81 -40 0 -63 392 -212 598
-227 45 -3 82 -7 82 -9 0 -1 -25 -42 -55 -91 -97 -154 -93 -167 61 -171 60 -2
120 0 134 3 13 4 79 63 146 133 l122 127 343 5 344 5 51 27 c28 15 58 38 67
52 23 34 22 104 -2 141 -35 56 -136 151 -184 173 -106 50 -134 52 -719 52
-509 0 -549 1 -565 18 -10 9 -55 64 -99 122 -116 150 -108 144 -223 148 -81 3
-101 1 -114 -13z m293 -162 c52 -67 103 -130 113 -140 16 -17 59 -18 605 -23
l587 -5 59 -24 c32 -13 72 -36 90 -52 l31 -28 -80 -1 c-88 0 -109 -8 -103 -36
3 -18 12 -19 115 -15 109 3 112 2 137 -22 34 -34 35 -85 3 -115 -52 -49 -76
-52 -393 -52 l-297 0 60 63 c73 76 85 103 53 129 -20 16 -43 18 -202 18 -101
0 -187 -4 -198 -10 -11 -6 -47 -51 -81 -100 -42 -61 -69 -92 -86 -96 -87 -22
-429 63 -576 143 l-32 18 100 5 c92 5 100 7 100 25 0 17 -8 20 -60 23 l-60 3
-64 197 c-35 108 -66 203 -68 210 -4 10 13 12 73 10 l79 -3 95 -122z m940
-361 c0 -4 -94 -101 -208 -215 l-208 -207 -98 0 -98 0 23 38 c104 172 185 298
219 341 l40 51 165 0 c91 0 165 -4 165 -8z"/>
</g>
</svg>
