<?xml version="1.0" standalone="no"?>
<!DOCTYPE svg PUBLIC "-//W3C//DTD SVG 20010904//EN"
 "http://www.w3.org/TR/2001/REC-SVG-20010904/DTD/svg10.dtd">
<svg version="1.0" xmlns="http://www.w3.org/2000/svg"
 width="186.000000pt" height="187.000000pt" viewBox="0 0 186.000000 187.000000"
 preserveAspectRatio="xMidYMid meet">
<metadata>
Created by potrace 1.16, written by Peter Selinger 2001-2019
</metadata>
<g transform="translate(0.000000,187.000000) scale(0.100000,-0.100000)"
fill="#000000" stroke="none">
<path d="M795 1860 c-93 -15 -163 -38 -262 -85 -453 -219 -655 -770 -448
-1222 168 -366 562 -592 952 -544 377 46 696 321 794 686 30 111 33 345 5 455
-87 341 -346 604 -681 690 -92 24 -269 34 -360 20z m373 -69 c153 -44 292
-131 409 -254 174 -183 263 -448 234 -696 -26 -214 -104 -374 -261 -531 -97
-98 -114 -110 -220 -163 -63 -31 -142 -63 -175 -72 -95 -26 -285 -31 -386 -11
-366 74 -640 353 -710 724 -17 90 -6 288 21 382 26 92 88 216 143 290 128 171
332 305 526 346 99 20 325 12 419 -15z"/>
<path d="M830 1515 c-147 -41 -258 -178 -260 -317 0 -41 3 -48 19 -48 16 0 20
10 26 53 15 114 81 203 183 250 73 33 189 31 264 -6 107 -53 172 -153 172
-267 0 -115 -41 -172 -213 -298 -81 -59 -111 -111 -111 -194 0 -50 3 -58 19
-58 15 0 19 10 24 62 7 74 22 97 108 161 122 90 157 126 190 192 29 60 31 70
27 147 -8 141 -68 232 -191 293 -88 43 -173 53 -257 30z"/>
<path d="M886 454 c-21 -21 -20 -57 2 -77 36 -32 85 -10 85 38 0 48 -55 72
-87 39z"/>
</g>
</svg>
