<?xml version="1.0" standalone="no"?>
<!DOCTYPE svg PUBLIC "-//W3C//DTD SVG 20010904//EN"
 "http://www.w3.org/TR/2001/REC-SVG-20010904/DTD/svg10.dtd">
<svg version="1.0" xmlns="http://www.w3.org/2000/svg"
 width="129.000000pt" height="134.000000pt" viewBox="0 0 129.000000 134.000000"
 preserveAspectRatio="xMidYMid meet">
<metadata>
Created by potrace 1.16, written by Peter Selinger 2001-2019
</metadata>
<g transform="translate(0.000000,134.000000) scale(0.100000,-0.100000)"
fill="#000000" stroke="none">
<path d="M637 1333 c-4 -3 -7 -147 -7 -320 l0 -313 -302 0 c-167 0 -309 -4
-317 -9 -8 -5 -11 -16 -8 -25 6 -14 41 -16 317 -16 l310 0 2 -323 c3 -314 3
-322 23 -322 20 0 20 8 23 322 l2 323 306 0 305 0 -3 23 -3 22 -302 3 -303 2
0 304 c0 168 -3 311 -6 320 -6 16 -26 21 -37 9z"/>
</g>
</svg>
