<?xml version="1.0" standalone="no"?>
<!DOCTYPE svg PUBLIC "-//W3C//DTD SVG 20010904//EN"
 "http://www.w3.org/TR/2001/REC-SVG-20010904/DTD/svg10.dtd">
<svg version="1.0" xmlns="http://www.w3.org/2000/svg"
 width="173.000000pt" height="168.000000pt" viewBox="0 0 173.000000 168.000000"
 preserveAspectRatio="xMidYMid meet">
<metadata>
Created by potrace 1.16, written by Peter Selinger 2001-2019
</metadata>
<g transform="translate(0.000000,168.000000) scale(0.100000,-0.100000)"
fill="#000000" stroke="none">
<path d="M725 1673 c-276 -38 -503 -199 -630 -446 -45 -89 -81 -206 -71 -232
10 -27 23 -8 46 67 41 137 105 243 205 344 92 93 167 143 276 184 298 110 646
33 868 -193 l53 -55 -43 -40 c-24 -22 -59 -52 -77 -67 -58 -49 -48 -58 161
-147 103 -44 195 -77 203 -74 19 7 18 34 -7 260 -20 181 -28 216 -51 216 -5 0
-43 -28 -84 -61 l-75 -61 -65 63 c-187 185 -456 277 -709 242z m950 -441 c10
-89 15 -165 12 -168 -5 -5 -293 112 -310 126 -8 7 82 92 208 198 73 61 67 71
90 -156z"/>
<path d="M1671 668 c-5 -13 -21 -58 -36 -101 -47 -135 -150 -274 -269 -363
-135 -102 -276 -152 -452 -161 -232 -12 -430 62 -587 219 -37 37 -67 71 -67
75 1 4 34 34 75 66 74 57 89 83 62 105 -20 17 -349 152 -369 152 -10 0 -22 -8
-25 -17 -7 -18 24 -366 37 -412 3 -14 13 -27 21 -29 8 -1 48 22 89 53 40 30
74 55 75 55 0 0 36 -35 80 -78 188 -184 430 -261 700 -222 305 45 574 270 676
569 21 60 24 97 9 106 -5 3 -14 -4 -19 -17z m-1513 -97 c64 -27 139 -59 165
-70 l49 -21 -142 -113 c-78 -61 -145 -113 -149 -115 -7 -2 -16 68 -40 296 -4
39 -6 72 -4 72 2 0 56 -22 121 -49z"/>
</g>
</svg>
