<?xml version="1.0" standalone="no"?>
<!DOCTYPE svg PUBLIC "-//W3C//DTD SVG 20010904//EN"
 "http://www.w3.org/TR/2001/REC-SVG-20010904/DTD/svg10.dtd">
<svg version="1.0" xmlns="http://www.w3.org/2000/svg"
 width="245.000000pt" height="245.000000pt" viewBox="0 0 245.000000 245.000000"
 preserveAspectRatio="xMidYMid meet">
<metadata>
Created by potrace 1.16, written by Peter Selinger 2001-2019
</metadata>
<g transform="translate(0.000000,245.000000) scale(0.100000,-0.100000)"
fill="#000000" stroke="none">
<path d="M1070 2440 c-432 -56 -799 -331 -970 -727 -21 -48 -51 -137 -66 -198
-26 -102 -29 -124 -29 -295 0 -168 3 -195 27 -290 49 -195 127 -347 254 -500
161 -193 417 -350 664 -405 114 -26 372 -31 490 -11 495 86 877 460 986 966
27 125 25 383 -3 505 -115 490 -471 840 -958 940 -94 19 -302 27 -395 15z
m378 -75 c475 -100 819 -444 919 -919 24 -111 23 -332 -1 -444 -77 -359 -288
-647 -595 -810 -99 -53 -263 -107 -370 -123 -128 -18 -344 -7 -461 24 -501
134 -847 549 -876 1053 -26 437 190 851 561 1077 120 73 299 135 450 156 92
13 281 6 373 -14z"/>
<path d="M1195 2227 c-3 -7 -5 -49 -3 -93 3 -77 4 -79 28 -79 25 0 25 1 25 90
0 86 -1 90 -23 93 -12 2 -24 -3 -27 -11z"/>
<path d="M1200 1780 c-12 -8 -16 -45 -18 -212 l-3 -203 -29 -17 c-16 -9 -39
-32 -50 -50 -67 -110 57 -250 175 -196 25 11 32 5 205 -167 153 -152 182 -176
195 -165 8 7 15 17 15 23 0 5 -78 90 -174 188 l-175 178 11 35 c8 26 8 46 -1
75 -11 40 -61 91 -87 91 -12 0 -14 35 -14 209 0 181 -2 210 -16 215 -19 7 -16
8 -34 -4z m68 -496 c29 -20 31 -83 2 -109 -47 -42 -123 -7 -123 56 0 58 70 89
121 53z"/>
<path d="M212 1248 c-36 -36 2 -58 91 -51 72 6 90 20 67 48 -16 19 -140 21
-158 3z"/>
<path d="M2081 1247 c-6 -8 -8 -22 -5 -31 5 -14 19 -16 88 -14 79 3 81 4 81
28 0 24 -2 25 -76 28 -56 2 -79 -1 -88 -11z"/>
<path d="M1195 387 c-3 -7 -5 -49 -3 -93 3 -77 4 -79 28 -79 25 0 25 1 25 90
0 86 -1 90 -23 93 -12 2 -24 -3 -27 -11z"/>
</g>
</svg>
