<?xml version="1.0" standalone="no"?>
<!DOCTYPE svg PUBLIC "-//W3C//DTD SVG 20010904//EN"
 "http://www.w3.org/TR/2001/REC-SVG-20010904/DTD/svg10.dtd">
<svg version="1.0" xmlns="http://www.w3.org/2000/svg"
 width="164.000000pt" height="172.000000pt" viewBox="0 0 164.000000 172.000000"
 preserveAspectRatio="xMidYMid meet">
<metadata>
Created by potrace 1.16, written by Peter Selinger 2001-2019
</metadata>
<g transform="translate(0.000000,172.000000) scale(0.100000,-0.100000)"
fill="#000000" stroke="none">
<path d="M380 1635 l0 -85 -164 0 -164 0 -26 -31 -26 -31 0 -715 0 -715 29
-29 29 -29 767 0 766 0 24 25 25 24 0 724 c0 718 0 725 -21 751 l-20 26 -149
0 -149 0 -3 83 c-3 74 -5 82 -23 82 -18 0 -20 -8 -23 -83 l-3 -82 -412 2 -412
3 -3 83 c-3 74 -5 82 -22 82 -18 0 -20 -7 -20 -85z m0 -200 c0 -59 3 -77 15
-82 25 -9 29 4 26 82 l-2 75 415 0 415 0 3 -77 c3 -70 5 -78 23 -78 18 0 20 8
23 78 l3 77 139 0 c127 0 140 -2 150 -19 5 -11 10 -83 10 -160 l0 -141 -775 0
-775 0 0 148 c0 102 4 152 12 160 8 8 59 12 165 12 l153 0 0 -75z m1220 -822
c0 -485 -2 -538 -17 -555 -15 -17 -52 -18 -763 -18 -567 0 -749 3 -758 12 -9
9 -12 146 -12 555 l0 543 775 0 775 0 0 -537z"/>
<path d="M754 710 c-80 -122 -148 -228 -151 -236 -3 -8 0 -21 7 -29 10 -12 41
-15 156 -15 l143 0 3 -82 c3 -75 5 -83 23 -83 18 0 20 8 25 85 l5 85 35 0 c28
0 35 4 35 20 0 16 -8 21 -37 23 l-38 3 -2 222 -3 222 -27 3 c-26 3 -37 -11
-174 -218z m156 -40 l0 -190 -125 0 -125 0 120 181 c66 99 120 184 120 190 0
5 2 9 5 9 3 0 5 -85 5 -190z"/>
</g>
</svg>
