<?xml version="1.0" standalone="no"?>
<!DOCTYPE svg PUBLIC "-//W3C//DTD SVG 20010904//EN"
 "http://www.w3.org/TR/2001/REC-SVG-20010904/DTD/svg10.dtd">
<svg version="1.0" xmlns="http://www.w3.org/2000/svg"
 width="199.000000pt" height="238.000000pt" viewBox="0 0 199.000000 238.000000"
 preserveAspectRatio="xMidYMid meet">
<metadata>
Created by potrace 1.16, written by Peter Selinger 2001-2019
</metadata>
<g transform="translate(0.000000,238.000000) scale(0.100000,-0.100000)"
fill="#000000" stroke="none">
<path d="M927 2346 c-107 -76 -311 -159 -423 -172 -28 -4 -56 -9 -62 -13 -5
-3 -26 -40 -47 -81 -21 -41 -56 -103 -78 -138 -37 -59 -39 -65 -26 -90 8 -14
44 -48 81 -74 l66 -49 6 -62 c3 -34 8 -80 11 -103 6 -37 4 -43 -28 -75 -41
-41 -62 -105 -53 -166 10 -77 60 -150 115 -171 17 -6 30 -26 47 -70 26 -71 78
-153 123 -196 28 -26 31 -36 31 -87 0 -56 -1 -58 -42 -88 -24 -17 -94 -48
-167 -72 -276 -91 -388 -182 -451 -365 -27 -76 -40 -252 -19 -264 26 -16 37 9
38 89 5 250 130 396 421 491 52 16 98 30 102 30 4 0 20 -24 34 -52 15 -29 54
-93 88 -143 33 -49 62 -92 63 -94 6 -9 53 20 136 82 l87 66 0 -235 c0 -227 1
-234 20 -234 19 0 20 7 20 236 l0 236 38 -30 c61 -49 173 -114 187 -108 17 6
115 146 156 224 18 34 37 62 42 62 23 0 169 -55 227 -86 176 -93 263 -231 277
-440 5 -85 8 -94 26 -94 19 0 20 5 14 108 -8 171 -52 269 -169 378 -70 64
-206 133 -323 164 -46 12 -100 34 -127 52 -46 31 -46 33 -50 93 -3 54 -1 63
25 94 44 51 91 129 116 191 16 41 30 59 54 71 73 36 122 160 97 248 -7 26 -26
59 -47 80 -32 32 -34 38 -28 80 3 25 8 73 11 107 5 56 8 62 37 76 38 19 113
82 126 107 7 12 -4 37 -42 98 -29 44 -65 108 -82 142 -22 47 -35 63 -54 67
-166 33 -367 106 -481 173 -38 23 -70 41 -72 41 -2 0 -25 -15 -51 -34z m111
-51 c89 -51 268 -122 383 -150 56 -13 103 -26 104 -27 1 -2 15 -28 30 -58 15
-30 47 -85 71 -122 l43 -67 -42 -34 c-64 -52 -84 -60 -115 -48 -37 14 -260 30
-477 34 -204 4 -409 -7 -517 -27 -68 -13 -75 -13 -103 4 -16 10 -43 32 -59 49
l-28 30 45 73 c25 40 56 95 68 121 14 29 31 49 44 52 192 38 363 107 470 189
11 8 21 16 22 16 1 0 28 -16 61 -35z m282 -526 c85 -6 163 -16 173 -21 14 -7
17 -19 15 -61 l-3 -51 -100 -18 c-290 -51 -525 -49 -837 8 l-88 16 0 48 c0 27
4 51 9 54 19 12 164 28 305 35 180 8 318 5 526 -10z m-645 -206 c144 -24 532
-24 670 0 55 10 110 20 122 23 22 6 23 3 23 -50 0 -50 3 -58 25 -68 53 -24 71
-127 35 -197 -20 -40 -58 -76 -90 -86 -10 -3 -24 -23 -31 -43 -43 -132 -137
-245 -251 -301 -54 -27 -83 -34 -152 -38 -95 -6 -152 5 -233 44 -100 49 -198
178 -233 306 -14 53 -24 64 -44 48 -17 -14 -61 26 -82 74 -30 72 -5 190 41
190 18 0 20 8 23 64 l3 63 37 -6 c20 -4 82 -14 137 -23z m605 -788 c0 -54 -1
-55 -52 -96 -50 -39 -157 -98 -206 -113 -32 -10 -172 60 -239 119 -51 44 -53
49 -53 96 0 49 0 49 23 34 38 -25 135 -54 202 -61 78 -8 190 15 260 55 28 15
53 26 58 24 4 -2 7 -29 7 -58z m-393 -210 c40 -20 71 -41 68 -45 -8 -13 -165
-130 -174 -130 -12 0 -103 134 -135 197 l-26 52 42 30 41 30 55 -49 c30 -27
88 -65 129 -85z m501 79 c8 -5 -60 -122 -108 -186 l-50 -68 -57 37 c-32 20
-75 49 -95 65 l-37 29 87 44 c48 24 109 64 137 88 l50 44 35 -25 c19 -15 37
-27 38 -28z"/>
<path d="M960 2115 c-22 -40 -29 -45 -77 -55 l-53 -11 35 -37 c32 -34 35 -42
33 -89 -1 -29 2 -53 5 -54 4 0 27 7 51 16 39 15 46 15 81 1 20 -9 42 -16 47
-16 5 0 8 22 7 50 -2 43 2 55 29 89 35 43 36 42 -36 56 -26 5 -40 17 -60 51
-15 24 -29 44 -32 44 -3 0 -16 -20 -30 -45z m52 -60 c11 -14 28 -25 39 -25 23
0 25 -13 3 -31 -10 -8 -14 -23 -11 -42 3 -25 1 -28 -17 -22 -28 9 -48 9 -68 0
-15 -6 -18 -2 -18 26 0 18 -7 41 -17 51 -15 17 -15 18 11 18 19 0 30 7 38 25
6 14 13 25 16 25 2 0 13 -11 24 -25z"/>
<path d="M1455 303 c-13 -16 -35 -28 -60 -32 l-39 -6 -2 -79 c-4 -92 9 -123
63 -161 50 -34 94 -32 147 5 56 38 68 68 64 166 l-3 79 -36 3 c-23 2 -45 12
-59 28 -29 30 -49 30 -75 -3z m116 -73 c16 0 19 -7 19 -55 0 -47 -4 -59 -31
-90 -41 -46 -69 -53 -112 -26 -44 27 -58 59 -50 121 5 39 10 50 24 50 10 0 30
11 46 24 l28 24 28 -24 c16 -13 37 -24 48 -24z"/>
</g>
</svg>
