<?xml version="1.0" standalone="no"?>
<!DOCTYPE svg PUBLIC "-//W3C//DTD SVG 20010904//EN"
 "http://www.w3.org/TR/2001/REC-SVG-20010904/DTD/svg10.dtd">
<svg version="1.0" xmlns="http://www.w3.org/2000/svg"
 width="179.000000pt" height="150.000000pt" viewBox="0 0 179.000000 150.000000"
 preserveAspectRatio="xMidYMid meet">
<metadata>
Created by potrace 1.16, written by Peter Selinger 2001-2019
</metadata>
<g transform="translate(0.000000,150.000000) scale(0.100000,-0.100000)"
fill="#000000" stroke="none">
<path d="M989 1453 c-35 -25 -163 -119 -285 -209 l-221 -163 -212 -3 -213 -3
-29 -33 -30 -33 3 -266 3 -265 33 -29 32 -29 208 0 208 0 195 -143 c364 -268
378 -277 415 -277 24 0 43 8 59 25 l25 24 0 699 c0 692 0 700 -21 726 -16 21
-29 26 -64 26 -35 0 -54 -8 -106 -47z m130 -17 c8 -9 10 -199 9 -691 -3 -607
-5 -679 -19 -688 -13 -8 -73 32 -295 194 l-279 204 -5 295 -5 295 60 42 c33
23 157 113 275 201 118 88 222 161 231 161 9 1 22 -5 28 -13z m-649 -686 l0
-270 -193 0 c-137 0 -196 3 -205 12 -17 17 -17 499 0 516 9 9 68 12 205 12
l193 0 0 -270z"/>
<path d="M1553 1283 c-24 -8 -13 -45 26 -89 47 -54 103 -158 127 -239 26 -84
26 -304 0 -395 -24 -86 -77 -191 -132 -263 -25 -33 -43 -65 -40 -73 25 -64
154 99 211 266 85 251 42 526 -115 733 -42 57 -56 67 -77 60z"/>
<path d="M1369 1114 c-8 -10 -10 -20 -3 -28 84 -114 114 -195 114 -309 0 -104
-17 -169 -76 -285 -36 -71 -44 -96 -35 -105 18 -18 39 1 82 72 102 168 116
367 40 536 -26 57 -84 135 -101 135 -4 0 -13 -7 -21 -16z"/>
</g>
</svg>
