<?xml version="1.0" standalone="no"?>
<!DOCTYPE svg PUBLIC "-//W3C//DTD SVG 20010904//EN"
 "http://www.w3.org/TR/2001/REC-SVG-20010904/DTD/svg10.dtd">
<svg version="1.0" xmlns="http://www.w3.org/2000/svg"
 width="175.000000pt" height="174.000000pt" viewBox="0 0 175.000000 174.000000"
 preserveAspectRatio="xMidYMid meet">
<metadata>
Created by potrace 1.16, written by Peter Selinger 2001-2019
</metadata>
<g transform="translate(0.000000,174.000000) scale(0.100000,-0.100000)"
fill="#000000" stroke="none">
<path d="M98 1643 c-54 -54 -98 -105 -98 -113 0 -8 145 -160 322 -337 l323
-323 -323 -323 c-177 -177 -322 -327 -322 -333 0 -12 203 -214 216 -214 5 0
154 145 332 323 l322 322 323 -322 c177 -178 328 -323 334 -323 15 0 223 203
223 217 0 6 -147 156 -327 333 l-326 322 321 321 c177 177 322 329 322 337 0
20 -191 210 -210 210 -8 0 -159 -144 -334 -319 l-319 -320 -325 317 c-178 174
-331 318 -340 320 -10 1 -56 -36 -114 -95z m445 -273 c179 -176 329 -320 333
-320 5 0 154 145 331 322 l323 323 82 -83 83 -82 -323 -323 c-177 -177 -322
-327 -322 -334 0 -6 146 -156 325 -334 l326 -323 -86 -86 -85 -85 -330 330
-330 330 -328 -328 -327 -327 -83 83 -82 82 320 320 c176 176 320 327 320 335
0 8 -145 160 -322 337 l-323 323 80 80 c44 44 83 80 86 80 4 0 153 -144 332
-320z"/>
</g>
</svg>
