<?xml version="1.0" standalone="no"?>
<!DOCTYPE svg PUBLIC "-//W3C//DTD SVG 20010904//EN"
 "http://www.w3.org/TR/2001/REC-SVG-20010904/DTD/svg10.dtd">
<svg version="1.0" xmlns="http://www.w3.org/2000/svg"
 width="173.000000pt" height="140.000000pt" viewBox="0 0 173.000000 140.000000"
 preserveAspectRatio="xMidYMid meet">
<metadata>
Created by potrace 1.16, written by Peter Selinger 2001-2019
</metadata>
<g transform="translate(0.000000,140.000000) scale(0.100000,-0.100000)"
fill="#000000" stroke="none">
<path d="M475 1385 c-228 -50 -407 -231 -459 -462 -48 -213 5 -403 154 -554
136 -138 315 -202 501 -179 47 5 101 15 118 21 31 11 34 10 106 -60 87 -85
167 -126 275 -141 215 -30 417 75 512 267 40 81 42 88 46 196 5 131 -14 205
-75 295 -98 144 -280 237 -425 218 -40 -6 -48 -4 -48 10 0 9 -17 48 -37 87
-47 89 -155 200 -240 245 -125 66 -289 88 -428 57z m250 -40 c361 -76 550
-474 384 -810 -58 -119 -179 -225 -314 -275 -75 -27 -225 -38 -308 -20 -153
31 -317 155 -385 290 -122 244 -47 558 172 715 140 99 292 133 451 100z m710
-444 c171 -84 265 -247 252 -436 -10 -143 -78 -264 -188 -337 -91 -60 -140
-73 -265 -73 -107 0 -112 1 -185 37 -76 38 -196 146 -172 155 39 14 135 88
180 136 114 126 157 250 151 439 l-3 120 80 -4 c67 -2 92 -9 150 -37z"/>
</g>
</svg>
