<?xml version="1.0" standalone="no"?>
<!DOCTYPE svg PUBLIC "-//W3C//DTD SVG 20010904//EN"
 "http://www.w3.org/TR/2001/REC-SVG-20010904/DTD/svg10.dtd">
<svg version="1.0" xmlns="http://www.w3.org/2000/svg"
 width="190.000000pt" height="173.000000pt" viewBox="0 0 190.000000 173.000000"
 preserveAspectRatio="xMidYMid meet">
<metadata>
Created by potrace 1.16, written by Peter Selinger 2001-2019
</metadata>
<g transform="translate(0.000000,173.000000) scale(0.100000,-0.100000)"
fill="#000000" stroke="none">
<path d="M735 1720 c-349 -55 -624 -304 -711 -647 -28 -113 -33 -295 -10 -404
68 -318 330 -579 655 -653 101 -23 284 -21 389 4 243 58 459 228 571 448 42
83 6 123 -38 42 -119 -224 -289 -366 -518 -432 -103 -30 -322 -32 -423 -5
-155 43 -323 151 -421 270 -64 79 -133 219 -159 321 -24 95 -26 241 -6 348 50
261 217 475 458 588 208 97 468 98 675 1 278 -130 472 -414 473 -690 l0 -64
-86 92 c-83 88 -119 109 -119 69 0 -21 206 -246 226 -247 22 -1 213 235 205
254 -12 32 -43 12 -101 -65 -33 -43 -63 -79 -66 -79 -3 -1 -9 41 -12 92 -21
335 -296 648 -646 738 -89 23 -251 32 -336 19z"/>
</g>
</svg>
