<?xml version="1.0" standalone="no"?>
<!DOCTYPE svg PUBLIC "-//W3C//DTD SVG 20010904//EN"
 "http://www.w3.org/TR/2001/REC-SVG-20010904/DTD/svg10.dtd">
<svg version="1.0" xmlns="http://www.w3.org/2000/svg"
 width="203.000000pt" height="137.000000pt" viewBox="0 0 203.000000 137.000000"
 preserveAspectRatio="xMidYMid meet">
<metadata>
Created by potrace 1.16, written by Peter Selinger 2001-2019
</metadata>
<g transform="translate(0.000000,137.000000) scale(0.100000,-0.100000)"
fill="#000000" stroke="none">
<path d="M124 1351 c-49 -22 -97 -78 -113 -130 -7 -27 -11 -193 -11 -538 0
-425 2 -507 15 -544 19 -52 56 -94 107 -120 36 -18 70 -19 895 -19 811 0 860
1 898 19 49 22 91 69 105 119 8 25 10 209 8 569 l-3 531 -30 43 c-16 23 -50
53 -74 66 l-44 23 -856 0 c-811 0 -858 -1 -897 -19z m1769 -35 c38 -16 84 -66
95 -104 9 -35 9 -1019 0 -1054 -11 -38 -57 -88 -95 -104 -26 -12 -187 -14
-879 -14 -948 0 -891 -4 -942 73 l-27 41 -3 495 c-2 273 0 515 3 539 7 49 53
108 100 128 45 20 1701 20 1748 0z"/>
<path d="M314 990 c-45 -18 -54 -47 -54 -166 0 -62 3 -120 6 -129 15 -38 55
-45 253 -45 186 0 190 0 218 24 27 23 28 29 31 121 5 131 -2 161 -41 185 -29
18 -51 20 -212 19 -99 0 -190 -4 -201 -9z m397 -57 c10 -11 14 -46 14 -115 0
-87 -2 -101 -19 -114 -30 -22 -368 -20 -390 2 -12 12 -16 37 -16 110 0 143
-14 134 209 134 163 0 190 -2 202 -17z"/>
<path d="M1137 353 c-4 -3 -7 -12 -7 -20 0 -11 57 -13 323 -11 278 3 322 5
322 18 0 13 -43 15 -316 18 -173 1 -318 -1 -322 -5z"/>
</g>
</svg>
