<?xml version="1.0" standalone="no"?>
<!DOCTYPE svg PUBLIC "-//W3C//DTD SVG 20010904//EN"
 "http://www.w3.org/TR/2001/REC-SVG-20010904/DTD/svg10.dtd">
<svg version="1.0" xmlns="http://www.w3.org/2000/svg"
 width="208.000000pt" height="240.000000pt" viewBox="0 0 208.000000 240.000000"
 preserveAspectRatio="xMidYMid meet">
<metadata>
Created by potrace 1.16, written by Peter Selinger 2001-2019
</metadata>
<g transform="translate(0.000000,240.000000) scale(0.100000,-0.100000)"
fill="#000000" stroke="none">
<path d="M853 2385 c-222 -62 -387 -244 -452 -500 -33 -132 -80 -557 -83 -753
-2 -89 2 -115 18 -152 40 -88 133 -141 276 -158 l73 -8 -65 -32 c-36 -17 -112
-50 -169 -72 -227 -88 -373 -225 -424 -397 -18 -60 -33 -248 -23 -288 5 -21
12 -26 34 -23 l27 3 7 130 c10 189 39 258 158 368 71 66 178 126 287 161 l51
17 48 -51 c62 -67 176 -142 255 -169 82 -29 200 -37 281 -22 123 24 274 119
326 207 17 28 34 43 47 44 29 0 174 -61 240 -101 118 -70 211 -191 235 -305 6
-27 14 -101 18 -164 7 -114 7 -115 32 -115 25 0 25 1 28 100 6 197 -38 325
-152 440 -76 77 -169 132 -328 196 -189 75 -184 72 -110 79 85 9 186 61 224
115 48 68 52 126 28 373 -43 446 -65 583 -111 702 -69 179 -189 296 -366 356
-67 23 -98 28 -218 31 -102 2 -154 -1 -192 -12z m337 -66 c129 -27 260 -119
328 -232 74 -123 105 -267 147 -681 36 -361 34 -397 -31 -458 -43 -40 -96 -58
-190 -65 -97 -7 -96 -8 -108 109 l-6 66 49 65 c27 36 58 90 70 121 50 135 90
448 60 472 -8 6 -36 17 -63 24 -78 21 -155 80 -229 175 -37 47 -71 85 -77 85
-5 0 -28 -20 -51 -45 -120 -128 -260 -198 -457 -228 l-77 -12 1 -130 c1 -76 8
-161 18 -205 20 -92 72 -205 120 -258 35 -38 36 -42 36 -118 0 -44 -3 -90 -7
-103 -6 -23 -8 -23 -79 -17 -163 15 -245 66 -260 163 -13 84 34 599 72 780 41
201 157 374 303 451 109 59 273 74 431 41z m42 -522 c52 -52 178 -127 213
-127 14 0 1 -153 -21 -265 -35 -175 -103 -279 -226 -346 -58 -31 -70 -34 -148
-34 -100 1 -167 24 -245 83 -114 86 -173 225 -182 428 l-6 120 87 17 c48 10
116 29 152 44 80 31 196 107 244 157 l35 38 20 -29 c11 -15 46 -54 77 -86z
m-187 -832 c109 0 131 5 216 52 4 2 10 -24 13 -59 13 -109 42 -156 125 -205
25 -14 48 -27 50 -29 6 -5 -50 -76 -89 -112 -19 -18 -69 -49 -110 -70 -74 -37
-74 -37 -200 -37 l-127 0 -84 42 c-51 25 -108 64 -144 97 l-60 56 25 18 c96
67 124 115 135 234 l7 76 66 -31 c63 -30 74 -32 177 -32z"/>
</g>
</svg>
