<?xml version="1.0" standalone="no"?>
<!DOCTYPE svg PUBLIC "-//W3C//DTD SVG 20010904//EN"
 "http://www.w3.org/TR/2001/REC-SVG-20010904/DTD/svg10.dtd">
<svg version="1.0" xmlns="http://www.w3.org/2000/svg"
 width="184.000000pt" height="175.000000pt" viewBox="0 0 184.000000 175.000000"
 preserveAspectRatio="xMidYMid meet">
<metadata>
Created by potrace 1.16, written by Peter Selinger 2001-2019
</metadata>
<g transform="translate(0.000000,175.000000) scale(0.100000,-0.100000)"
fill="#000000" stroke="none">
<path d="M1630 1739 c-53 -15 -472 -440 -914 -928 -34 -39 -47 -46 -95 -53
-127 -20 -276 -121 -325 -221 -14 -29 -37 -106 -51 -172 -18 -88 -32 -130 -53
-160 -35 -50 -84 -84 -134 -91 -20 -4 -43 -13 -50 -21 -19 -23 7 -36 134 -68
101 -25 125 -27 223 -22 165 8 299 59 393 150 81 78 152 225 152 316 0 33 6
41 52 76 115 88 271 259 747 820 100 118 130 170 131 224 0 52 -42 115 -93
140 -47 23 -64 24 -117 10z m126 -73 c29 -29 34 -41 34 -79 0 -37 -7 -55 -37
-94 -56 -75 -559 -660 -631 -735 l-64 -67 -72 55 c-39 30 -86 74 -105 99 l-33
45 98 107 c226 245 622 648 663 675 62 39 103 38 147 -6z m-787 -967 c28 -19
51 -37 51 -40 0 -4 -28 -30 -62 -58 l-63 -51 -87 88 c-49 49 -88 94 -88 99 0
6 21 34 46 62 l46 52 53 -59 c30 -32 76 -74 104 -93z m-289 12 c0 -6 41 -49
91 -98 l91 -88 -5 -70 c-11 -181 -178 -355 -377 -393 -108 -21 -174 -23 -259
-8 -83 15 -108 25 -83 34 32 11 83 67 107 118 15 31 37 106 50 168 13 62 30
127 38 143 21 40 92 109 144 140 75 44 203 78 203 54z"/>
</g>
</svg>
