<?xml version="1.0" standalone="no"?>
<!DOCTYPE svg PUBLIC "-//W3C//DTD SVG 20010904//EN"
 "http://www.w3.org/TR/2001/REC-SVG-20010904/DTD/svg10.dtd">
<svg version="1.0" xmlns="http://www.w3.org/2000/svg"
 width="135.000000pt" height="178.000000pt" viewBox="0 0 135.000000 178.000000"
 preserveAspectRatio="xMidYMid meet">
<metadata>
Created by potrace 1.16, written by Peter Selinger 2001-2019
</metadata>
<g transform="translate(0.000000,178.000000) scale(0.100000,-0.100000)"
fill="#000000" stroke="none">
<path d="M499 1765 c-215 -54 -394 -213 -470 -418 -24 -62 -24 -63 -27 -661
-2 -357 1 -603 6 -608 6 -6 68 7 159 33 l150 42 42 -41 c75 -73 184 -112 311
-112 129 1 236 38 312 111 23 21 45 39 50 39 4 0 70 -18 145 -40 76 -22 145
-37 155 -34 17 5 18 37 18 557 0 623 -1 633 -72 776 -33 67 -60 103 -123 166
-90 89 -158 134 -267 172 -62 23 -93 27 -203 30 -88 1 -148 -2 -186 -12z m325
-45 c218 -55 390 -219 462 -440 17 -50 19 -107 22 -607 2 -304 0 -553 -3 -553
-10 0 -248 70 -292 86 -64 23 -83 53 -83 133 l0 67 46 35 c55 41 123 128 159
205 39 83 55 173 55 319 l0 130 -37 20 c-20 11 -58 36 -84 57 -48 38 -160 178
-187 235 -9 18 -23 33 -32 33 -9 0 -33 -24 -54 -54 -119 -173 -338 -313 -529
-337 -45 -6 -89 -15 -97 -19 -12 -6 -15 -30 -14 -126 0 -138 24 -232 80 -326
33 -54 145 -168 165 -168 6 0 9 -33 7 -81 -4 -104 -7 -106 -193 -158 -77 -22
-148 -43 -158 -47 -17 -6 -18 19 -15 567 l3 574 26 66 c39 101 76 158 148 229
154 152 391 215 605 160z m97 -449 c60 -82 131 -150 192 -185 l39 -21 -5 -135
c-8 -201 -46 -303 -156 -415 -102 -103 -265 -160 -395 -138 -165 28 -323 167
-372 327 -19 63 -35 220 -28 264 6 29 9 32 43 32 76 0 226 51 328 111 63 38
218 180 254 234 21 31 25 33 34 19 6 -9 35 -51 66 -93z m-261 -935 c85 -1 116
4 165 22 32 12 61 22 62 22 2 0 3 -30 3 -67 0 -66 0 -67 45 -109 l45 -43 -46
-35 c-151 -115 -395 -112 -539 8 l-30 24 43 37 42 37 0 73 0 73 53 -21 c41
-16 74 -21 157 -21z"/>
</g>
</svg>
