<?xml version="1.0" standalone="no"?>
<!DOCTYPE svg PUBLIC "-//W3C//DTD SVG 20010904//EN"
 "http://www.w3.org/TR/2001/REC-SVG-20010904/DTD/svg10.dtd">
<svg version="1.0" xmlns="http://www.w3.org/2000/svg"
 width="236.000000pt" height="206.000000pt" viewBox="0 0 236.000000 206.000000"
 preserveAspectRatio="xMidYMid meet">
<metadata>
Created by potrace 1.16, written by Peter Selinger 2001-2019
</metadata>
<g transform="translate(0.000000,206.000000) scale(0.100000,-0.100000)"
fill="#000000" stroke="none">
<path d="M2013 2044 c-15 -39 9 -49 126 -54 l112 -5 -126 -168 c-69 -92 -125
-174 -125 -182 0 -35 35 -42 187 -37 152 4 180 12 167 45 -9 24 -37 29 -152
25 -56 -2 -102 -2 -102 0 0 1 59 81 131 176 168 225 170 216 -52 216 -139 0
-160 -2 -166 -16z"/>
<path d="M730 1805 c-177 -37 -343 -126 -466 -251 -297 -300 -347 -759 -122
-1131 83 -137 258 -285 417 -353 500 -213 1076 76 1217 610 38 142 35 334 -7
473 -20 70 -40 90 -64 66 -11 -12 -9 -29 10 -104 32 -120 34 -284 5 -403 -78
-327 -338 -573 -670 -636 -366 -70 -740 127 -905 475 -55 118 -77 215 -78 354
-2 153 19 248 83 380 86 178 209 300 385 385 221 106 441 116 663 30 70 -27
186 -96 255 -152 25 -20 28 -21 43 -6 23 23 14 39 -55 92 -197 152 -476 219
-711 171z"/>
<path d="M1625 1694 c-29 -30 -12 -39 88 -44 l96 -5 -94 -120 c-52 -66 -94
-128 -95 -137 -1 -46 5 -48 141 -48 l129 0 0 25 0 25 -100 0 c-55 0 -100 2
-100 5 0 2 45 62 100 132 55 70 100 136 100 146 0 27 -41 37 -150 37 -77 0
-102 -3 -115 -16z"/>
<path d="M324 1015 c-15 -38 48 -120 120 -158 57 -29 165 -29 222 0 49 26 98
75 114 114 28 67 -27 84 -60 19 -23 -45 -64 -74 -124 -91 -77 -21 -176 24
-210 95 -18 38 -52 49 -62 21z"/>
<path d="M1013 1015 c-10 -28 49 -108 105 -142 69 -41 134 -50 207 -29 89 26
171 119 151 171 -10 26 -34 16 -63 -27 -36 -53 -69 -77 -122 -89 -79 -18 -160
19 -207 92 -25 41 -60 52 -71 24z"/>
<path d="M834 509 c-85 -11 -145 -52 -117 -80 10 -10 24 -9 64 4 66 22 186 22
239 1 48 -19 73 -13 68 18 -6 43 -136 72 -254 57z"/>
</g>
</svg>
