<?xml version="1.0" standalone="no"?>
<!DOCTYPE svg PUBLIC "-//W3C//DTD SVG 20010904//EN"
 "http://www.w3.org/TR/2001/REC-SVG-20010904/DTD/svg10.dtd">
<svg version="1.0" xmlns="http://www.w3.org/2000/svg"
 width="186.000000pt" height="207.000000pt" viewBox="0 0 186.000000 207.000000"
 preserveAspectRatio="xMidYMid meet">
<metadata>
Created by potrace 1.16, written by Peter Selinger 2001-2019
</metadata>
<g transform="translate(0.000000,207.000000) scale(0.100000,-0.100000)"
fill="#000000" stroke="none">
<path d="M780 1996 c-74 -39 -277 -146 -450 -236 -173 -90 -318 -169 -322
-174 -4 -6 -7 -258 -5 -561 l2 -550 459 -237 c253 -131 466 -238 472 -238 11
0 513 259 824 425 l95 50 3 557 2 557 -22 15 c-59 36 -899 466 -910 465 -7 0
-74 -33 -148 -73z m581 -202 l420 -217 -333 -174 c-183 -95 -374 -194 -424
-220 l-91 -46 -419 218 c-230 119 -420 218 -422 220 -5 4 822 434 836 434 8 1
202 -96 433 -215z m-1027 -404 c149 -76 339 -174 421 -217 l150 -78 3 -513 c1
-281 -1 -512 -5 -512 -5 0 -197 99 -428 220 l-420 219 -3 510 c-1 281 1 511 5
511 3 0 128 -63 277 -140z m1474 -372 l-3 -512 -415 -218 c-228 -119 -418
-217 -423 -218 -4 0 -6 230 -5 512 l3 512 415 217 c228 120 418 218 423 219 4
0 6 -230 5 -512z"/>
</g>
</svg>
