<?xml version="1.0" standalone="no"?>
<!DOCTYPE svg PUBLIC "-//W3C//DTD SVG 20010904//EN"
 "http://www.w3.org/TR/2001/REC-SVG-20010904/DTD/svg10.dtd">
<svg version="1.0" xmlns="http://www.w3.org/2000/svg"
 width="175.000000pt" height="212.000000pt" viewBox="0 0 175.000000 212.000000"
 preserveAspectRatio="xMidYMid meet">
<metadata>
Created by potrace 1.16, written by Peter Selinger 2001-2019
</metadata>
<g transform="translate(0.000000,212.000000) scale(0.100000,-0.100000)"
fill="#000000" stroke="none">
<path d="M743 2110 c-36 -15 -51 -48 -113 -266 -34 -115 -76 -256 -94 -314
-18 -58 -70 -260 -116 -450 -60 -253 -90 -360 -112 -402 -32 -60 -63 -92 -216
-221 -50 -42 -92 -82 -92 -88 0 -43 106 29 263 180 98 94 104 111 228 636 27
116 67 266 89 335 21 69 64 213 95 320 31 107 64 203 73 213 25 28 64 18 84
-23 16 -30 18 -66 18 -262 0 -209 -5 -251 -25 -218 -3 6 -24 10 -45 10 -53 0
-104 -50 -124 -123 -8 -28 -34 -197 -57 -375 -31 -242 -39 -326 -30 -335 8 -8
14 -8 22 0 6 6 31 158 54 337 24 178 49 343 56 365 27 91 105 118 135 46 20
-48 21 -865 0 -940 -32 -121 -56 -149 -294 -342 -112 -91 -201 -170 -199 -177
9 -28 43 -7 207 124 202 162 270 229 296 294 19 45 34 60 34 33 0 -8 17 -41
39 -74 31 -48 80 -93 244 -226 113 -92 213 -167 221 -167 43 0 4 44 -141 160
-218 174 -277 231 -310 298 l-28 57 -3 480 c-3 474 -2 481 18 503 11 12 31 22
44 22 30 0 82 -57 91 -102 5 -18 27 -178 50 -356 23 -179 47 -328 53 -334 9
-9 15 -9 23 -1 8 8 2 86 -25 295 -20 155 -40 306 -43 333 -18 149 -102 242
-183 202 l-30 -15 0 242 c0 202 3 245 16 264 19 27 55 29 78 3 26 -29 177
-542 286 -973 66 -260 106 -402 123 -431 45 -76 303 -305 332 -293 8 3 15 10
15 15 0 5 -58 59 -129 119 -136 117 -171 155 -196 216 -9 21 -54 192 -100 380
-92 370 -264 956 -293 995 -35 47 -101 52 -143 10 l-20 -20 -30 26 c-32 26
-58 30 -96 15z"/>
</g>
</svg>
