<?xml version="1.0" standalone="no"?>
<!DOCTYPE svg PUBLIC "-//W3C//DTD SVG 20010904//EN"
 "http://www.w3.org/TR/2001/REC-SVG-20010904/DTD/svg10.dtd">
<svg version="1.0" xmlns="http://www.w3.org/2000/svg"
 width="166.000000pt" height="212.000000pt" viewBox="0 0 166.000000 212.000000"
 preserveAspectRatio="xMidYMid meet">
<metadata>
Created by potrace 1.16, written by Peter Selinger 2001-2019
</metadata>
<g transform="translate(0.000000,212.000000) scale(0.100000,-0.100000)"
fill="#000000" stroke="none">
<path d="M732 2105 c-156 -35 -283 -155 -332 -312 -24 -80 -27 -222 -5 -306
55 -213 228 -350 440 -350 217 0 390 141 441 360 22 93 15 247 -15 325 -82
213 -308 333 -529 283z m232 -52 c224 -79 334 -313 265 -563 -35 -128 -115
-226 -227 -278 -51 -24 -69 -27 -167 -27 -105 0 -114 2 -177 33 -162 79 -249
248 -235 457 17 280 287 468 541 378z"/>
<path d="M467 1025 c-250 -65 -392 -203 -443 -430 -17 -75 -32 -481 -20 -529
4 -15 15 -35 26 -46 20 -20 37 -20 799 -20 l778 0 28 21 27 22 -4 266 c-4 253
-6 270 -30 343 -32 98 -74 163 -147 230 -72 67 -133 100 -246 134 -88 26 -97
27 -385 30 -281 2 -299 2 -383 -21z m728 -39 c229 -62 370 -207 410 -419 19
-101 21 -497 3 -515 -9 -9 -162 -12 -625 -12 l-613 0 0 163 c0 167 -7 200 -37
176 -10 -9 -13 -52 -13 -175 l0 -164 -128 0 c-86 0 -132 4 -140 12 -8 8 -12
61 -12 173 1 300 25 430 102 545 72 108 207 189 373 225 92 19 600 13 680 -9z"/>
</g>
</svg>
