<?xml version="1.0" standalone="no"?>
<!DOCTYPE svg PUBLIC "-//W3C//DTD SVG 20010904//EN"
 "http://www.w3.org/TR/2001/REC-SVG-20010904/DTD/svg10.dtd">
<svg version="1.0" xmlns="http://www.w3.org/2000/svg"
 width="128.000000pt" height="190.000000pt" viewBox="0 0 128.000000 190.000000"
 preserveAspectRatio="xMidYMid meet">
<metadata>
Created by potrace 1.16, written by Peter Selinger 2001-2019
</metadata>
<g transform="translate(0.000000,190.000000) scale(0.100000,-0.100000)"
fill="#000000" stroke="none">
<path d="M525 1894 c-11 -2 -40 -10 -65 -16 -208 -51 -394 -242 -444 -458 -23
-94 -23 -855 -1 -939 60 -233 232 -406 460 -466 75 -19 240 -19 320 0 180 42
327 158 414 328 69 132 73 169 69 634 -4 396 -4 410 -27 473 -73 207 -206 343
-409 418 -54 19 -90 25 -182 28 -63 1 -124 1 -135 -2z m246 -48 c164 -35 326
-161 400 -311 51 -104 59 -152 59 -360 l0 -191 -87 -61 c-295 -203 -600 -356
-930 -464 -115 -38 -127 -40 -138 -25 -31 42 -36 130 -33 546 l3 415 27 74
c75 205 234 337 463 385 46 9 174 5 236 -8z m449 -1356 c-43 -203 -223 -382
-440 -436 -77 -20 -246 -14 -323 10 -132 42 -278 160 -339 273 l-28 50 63 18
c308 85 689 268 979 470 l93 65 3 -198 c2 -122 -1 -218 -8 -252z"/>
<path d="M574 1750 c-153 -22 -299 -153 -339 -305 -84 -319 194 -602 510 -519
117 30 210 106 266 216 28 55 33 75 37 163 3 84 1 110 -18 164 -50 149 -158
243 -319 277 -36 7 -70 13 -76 13 -5 -1 -33 -5 -61 -9z m134 -45 c175 -41 278
-156 307 -342 14 -91 -33 -222 -108 -297 -190 -189 -496 -137 -611 104 -28 60
-31 73 -30 165 0 89 3 106 29 159 62 127 186 209 340 225 6 0 38 -6 73 -14z"/>
<path d="M454 1386 c-12 -31 0 -51 31 -51 27 0 30 3 30 30 0 25 -4 30 -28 33
-17 2 -29 -2 -33 -12z"/>
<path d="M764 1386 c-12 -31 0 -51 31 -51 27 0 30 3 30 30 0 25 -4 30 -28 33
-17 2 -29 -2 -33 -12z"/>
<path d="M719 1183 c-21 -24 -77 -45 -102 -37 -12 4 -34 16 -48 27 -28 20 -49
17 -49 -8 0 -22 59 -57 104 -62 64 -8 147 44 133 82 -8 20 -21 19 -38 -2z"/>
</g>
</svg>
