<?xml version="1.0" standalone="no"?>
<!DOCTYPE svg PUBLIC "-//W3C//DTD SVG 20010904//EN"
 "http://www.w3.org/TR/2001/REC-SVG-20010904/DTD/svg10.dtd">
<svg version="1.0" xmlns="http://www.w3.org/2000/svg"
 width="170.000000pt" height="125.000000pt" viewBox="0 0 170.000000 125.000000"
 preserveAspectRatio="xMidYMid meet">
<metadata>
Created by potrace 1.16, written by Peter Selinger 2001-2019
</metadata>
<g transform="translate(0.000000,125.000000) scale(0.100000,-0.100000)"
fill="#000000" stroke="none">
<path d="M1223 1240 c-171 -36 -294 -205 -331 -459 -14 -93 -7 -352 11 -420
42 -155 124 -269 235 -323 59 -30 76 -33 152 -33 76 0 92 3 152 33 158 77 244
253 255 522 11 283 -62 506 -203 612 -77 59 -184 86 -271 68z m205 -96 c124
-77 202 -281 202 -528 -1 -347 -159 -578 -376 -551 -186 23 -305 233 -305 534
1 311 97 515 271 572 14 5 55 7 93 5 53 -3 77 -9 115 -32z"/>
<path d="M86 1096 c-3 -74 -13 -199 -21 -277 -8 -79 -15 -168 -15 -196 0 -51
1 -53 28 -53 21 0 32 8 47 36 40 75 146 134 239 134 75 0 140 -26 199 -80 76
-69 101 -130 102 -240 0 -47 -6 -104 -13 -127 -48 -159 -224 -263 -373 -219
-94 27 -136 66 -201 185 -17 31 -18 32 -48 16 -16 -8 -30 -18 -30 -21 0 -25
73 -134 113 -170 102 -91 277 -111 411 -45 195 96 274 365 169 574 -51 102
-169 181 -288 193 -77 8 -173 -16 -228 -56 -23 -17 -44 -30 -47 -30 -3 0 0 48
6 108 7 59 13 158 14 219 l0 113 262 2 261 3 1 33 1 32 -291 0 -291 0 -7 -134z"/>
</g>
</svg>
