<?xml version="1.0" standalone="no"?>
<!DOCTYPE svg PUBLIC "-//W3C//DTD SVG 20010904//EN"
 "http://www.w3.org/TR/2001/REC-SVG-20010904/DTD/svg10.dtd">
<svg version="1.0" xmlns="http://www.w3.org/2000/svg"
 width="142.000000pt" height="173.000000pt" viewBox="0 0 142.000000 173.000000"
 preserveAspectRatio="xMidYMid meet">
<metadata>
Created by potrace 1.16, written by Peter Selinger 2001-2019
</metadata>
<g transform="translate(0.000000,173.000000) scale(0.100000,-0.100000)"
fill="#000000" stroke="none">
<path d="M605 1716 c-171 -40 -317 -151 -391 -299 -39 -77 -64 -189 -64 -289
l0 -89 -75 -128 c-77 -131 -90 -175 -65 -221 11 -21 82 -44 111 -37 18 5 19
-3 19 -116 0 -147 11 -190 59 -238 43 -44 102 -59 225 -59 l84 0 6 -32 c3 -17
9 -69 13 -115 6 -83 15 -105 35 -85 14 14 -9 220 -27 248 -13 20 -24 22 -139
25 -193 6 -209 25 -221 259 l-7 150 -52 0 c-57 0 -86 19 -86 55 0 10 34 75 75
144 l74 126 4 110 c13 323 195 527 503 565 251 31 499 -76 609 -264 58 -99 77
-171 83 -306 6 -159 -13 -242 -97 -420 -74 -156 -81 -182 -81 -301 0 -84 40
-362 54 -377 3 -2 11 -2 19 1 12 4 10 25 -9 124 -32 158 -40 273 -24 348 6 33
40 121 75 195 83 178 99 244 100 395 0 141 -13 199 -67 314 -71 150 -206 261
-373 307 -82 22 -292 28 -370 10z"/>
<path d="M946 1031 c-38 -25 -52 -49 -37 -64 8 -8 19 -3 41 18 82 78 195 -5
175 -127 -22 -127 -105 -204 -182 -169 -35 16 -57 -3 -29 -25 26 -18 99 -18
136 1 121 63 149 305 42 368 -40 23 -109 22 -146 -2z"/>
</g>
</svg>
