<?xml version="1.0" standalone="no"?>
<!DOCTYPE svg PUBLIC "-//W3C//DTD SVG 20010904//EN"
 "http://www.w3.org/TR/2001/REC-SVG-20010904/DTD/svg10.dtd">
<svg version="1.0" xmlns="http://www.w3.org/2000/svg"
 width="159.000000pt" height="178.000000pt" viewBox="0 0 159.000000 178.000000"
 preserveAspectRatio="xMidYMid meet">
<metadata>
Created by potrace 1.16, written by Peter Selinger 2001-2019
</metadata>
<g transform="translate(0.000000,178.000000) scale(0.100000,-0.100000)"
fill="#000000" stroke="none">
<path d="M773 1766 c-211 -41 -361 -121 -513 -276 -337 -343 -344 -924 -14
-1254 160 -160 381 -244 609 -232 195 10 342 66 455 173 111 104 148 205 116
316 -15 51 -24 63 -101 127 -171 142 -162 208 39 319 153 84 216 169 224 302
7 123 -38 236 -137 341 -70 76 -158 129 -266 164 -99 32 -297 42 -412 20z
m362 -60 c139 -37 262 -119 328 -219 83 -124 97 -253 41 -357 -34 -62 -62 -87
-164 -142 -100 -54 -147 -92 -170 -139 -45 -88 -4 -175 132 -279 63 -48 78
-76 78 -147 0 -79 -32 -145 -102 -208 -117 -108 -257 -156 -453 -158 -147 -1
-224 16 -355 80 -80 39 -108 59 -185 137 -137 137 -200 274 -226 484 -46 384
186 768 550 907 126 48 225 65 351 61 63 -3 142 -12 175 -20z"/>
<path d="M652 1509 c-139 -69 -125 -268 23 -325 83 -31 174 7 214 88 26 54 26
100 2 153 -22 48 -44 69 -94 90 -50 21 -94 19 -145 -6z m139 -44 c89 -47 89
-183 0 -230 -62 -31 -139 -6 -173 56 -22 42 -23 71 -1 116 31 65 109 91 174
58z"/>
<path d="M299 1117 c-81 -43 -114 -146 -74 -230 50 -105 189 -130 274 -49 92
87 73 223 -39 280 -57 28 -105 28 -161 -1z m141 -40 c34 -17 70 -74 70 -111 0
-38 -30 -89 -65 -112 -36 -23 -117 -15 -150 16 -61 58 -49 166 24 205 32 18
88 19 121 2z"/>
<path d="M452 634 c-130 -66 -131 -246 -2 -312 150 -77 312 90 229 237 -43 77
-152 113 -227 75z m138 -49 c37 -19 60 -63 60 -112 -2 -127 -164 -169 -230
-60 -26 42 -25 86 3 128 39 58 106 76 167 44z"/>
<path d="M944 516 c-60 -27 -95 -107 -74 -170 14 -44 69 -93 114 -101 47 -9
119 24 146 67 72 119 -56 260 -186 204z m127 -65 c68 -69 16 -161 -86 -151
-72 7 -92 129 -27 165 43 23 80 18 113 -14z"/>
</g>
</svg>
