<?xml version="1.0" standalone="no"?>
<!DOCTYPE svg PUBLIC "-//W3C//DTD SVG 20010904//EN"
 "http://www.w3.org/TR/2001/REC-SVG-20010904/DTD/svg10.dtd">
<svg version="1.0" xmlns="http://www.w3.org/2000/svg"
 width="159.000000pt" height="178.000000pt" viewBox="0 0 159.000000 178.000000"
 preserveAspectRatio="xMidYMid meet">
<metadata>
Created by potrace 1.16, written by Peter Selinger 2001-2019
</metadata>
<g transform="translate(0.000000,178.000000) scale(0.100000,-0.100000)"
fill="#000000" stroke="none">
<path d="M773 1766 c-211 -41 -361 -121 -513 -276 -99 -101 -158 -197 -206
-338 -90 -266 -60 -557 81 -778 203 -318 600 -452 965 -326 131 46 258 149
308 252 22 45 27 68 26 125 0 92 -15 118 -114 199 -168 139 -157 203 53 321
145 81 207 166 215 296 13 219 -163 436 -416 511 -88 26 -298 33 -399 14z
m362 -60 c301 -80 484 -365 369 -576 -35 -65 -63 -89 -163 -143 -108 -58 -146
-88 -171 -137 -45 -89 -4 -176 132 -280 63 -48 78 -76 78 -147 0 -79 -32 -145
-102 -208 -118 -109 -257 -156 -458 -158 -148 -1 -237 20 -364 86 -113 58
-245 190 -303 302 -112 217 -130 457 -52 688 122 365 475 607 864 593 61 -3
137 -12 170 -20z"/>
<path d="M652 1509 c-139 -69 -125 -268 23 -325 144 -55 282 98 216 241 -22
48 -44 69 -94 90 -50 21 -94 19 -145 -6z m139 -44 c89 -47 89 -183 0 -230 -64
-33 -144 -6 -175 59 -20 43 -20 69 1 113 31 65 109 91 174 58z"/>
<path d="M302 1119 c-99 -50 -126 -174 -57 -265 77 -102 244 -78 297 44 65
147 -95 295 -240 221z m152 -50 c73 -57 73 -151 0 -208 -37 -29 -101 -28 -145
2 -71 48 -71 156 0 204 44 30 108 31 145 2z"/>
<path d="M452 634 c-130 -66 -131 -243 -2 -312 149 -79 312 90 229 237 -43 77
-152 113 -227 75z m138 -49 c82 -43 79 -186 -5 -221 -47 -19 -84 -18 -123 6
-65 40 -79 124 -30 185 36 46 103 58 158 30z"/>
<path d="M944 516 c-47 -21 -77 -70 -78 -127 -2 -141 182 -198 261 -80 79 117
-51 264 -183 207z m127 -65 c17 -17 29 -40 29 -55 0 -87 -102 -134 -158 -72
-81 89 43 212 129 127z"/>
</g>
</svg>
