<?xml version="1.0" standalone="no"?>
<!DOCTYPE svg PUBLIC "-//W3C//DTD SVG 20010904//EN"
 "http://www.w3.org/TR/2001/REC-SVG-20010904/DTD/svg10.dtd">
<svg version="1.0" xmlns="http://www.w3.org/2000/svg"
 width="81.000000pt" height="192.000000pt" viewBox="0 0 81.000000 192.000000"
 preserveAspectRatio="xMidYMid meet">
<metadata>
Created by potrace 1.16, written by Peter Selinger 2001-2019
</metadata>
<g transform="translate(0.000000,192.000000) scale(0.100000,-0.100000)"
fill="#000000" stroke="none">
<path d="M243 1725 c-169 -136 -243 -202 -243 -215 0 -11 7 -20 15 -20 9 0
114 79 235 175 121 96 222 175 225 175 3 0 4 -402 3 -892 l-3 -893 -200 -3
c-110 -1 -204 -7 -209 -12 -6 -6 -4 -15 4 -25 18 -22 711 -23 730 0 24 29 0
35 -136 35 l-134 0 -2 933 c-3 924 -3 932 -23 935 -13 1 -102 -64 -262 -193z"/>
</g>
</svg>
