<?xml version="1.0" standalone="no"?>
<!DOCTYPE svg PUBLIC "-//W3C//DTD SVG 20010904//EN"
 "http://www.w3.org/TR/2001/REC-SVG-20010904/DTD/svg10.dtd">
<svg version="1.0" xmlns="http://www.w3.org/2000/svg"
 width="220.000000pt" height="149.000000pt" viewBox="0 0 220.000000 149.000000"
 preserveAspectRatio="xMidYMid meet">
<metadata>
Created by potrace 1.16, written by Peter Selinger 2001-2019
</metadata>
<g transform="translate(0.000000,149.000000) scale(0.100000,-0.100000)"
fill="#000000" stroke="none">
<path d="M387 1475 c-120 -33 -231 -110 -302 -210 -63 -88 -89 -149 -75 -175
20 -38 51 -21 90 49 45 82 123 167 191 208 113 68 270 82 394 37 39 -14 84
-27 100 -27 26 -2 30 2 33 25 4 34 -32 59 -127 88 -74 24 -228 26 -304 5z"/>
<path d="M1520 1474 c-122 -32 -177 -79 -135 -114 14 -11 22 -12 48 -1 117 48
247 63 346 40 125 -28 244 -122 318 -251 47 -80 68 -94 94 -62 17 21 0 68 -54
152 -73 115 -196 202 -332 237 -74 19 -212 18 -285 -1z"/>
<path d="M461 1190 c-70 -11 -134 -35 -199 -78 -67 -44 -113 -100 -154 -188
-28 -60 -33 -82 -36 -167 -4 -82 -1 -109 19 -169 44 -137 155 -246 292 -289
101 -32 228 -25 317 17 246 115 341 407 212 648 -82 154 -275 251 -451 226z
m196 -102 c71 -26 156 -105 196 -182 30 -57 32 -67 32 -166 0 -99 -2 -110 -33
-172 -77 -158 -253 -245 -412 -204 -162 42 -266 156 -291 318 -19 122 20 235
112 326 105 103 253 133 396 80z"/>
<path d="M469 835 c-27 -14 -59 -69 -59 -99 0 -35 30 -85 59 -100 45 -24 94
-20 130 9 43 37 56 83 36 132 -26 65 -103 92 -166 58z"/>
<path d="M1580 1189 c-139 -23 -280 -132 -342 -266 -41 -87 -51 -218 -23 -319
96 -354 551 -441 786 -150 63 77 90 150 96 259 7 109 -13 193 -67 275 -45 69
-67 90 -145 137 -96 58 -204 80 -305 64z m144 -84 c102 -17 219 -107 265 -205
23 -48 26 -67 26 -160 0 -95 -3 -111 -29 -163 -74 -153 -251 -249 -401 -219
-83 17 -142 48 -200 107 -89 88 -127 209 -105 334 19 110 76 193 178 258 55
35 157 65 202 58 14 -2 43 -7 64 -10z"/>
<path d="M1534 816 c-29 -29 -34 -41 -34 -81 0 -40 5 -52 34 -81 26 -26 42
-34 70 -34 49 0 92 23 111 60 42 82 -14 170 -111 170 -28 0 -44 -8 -70 -34z"/>
<path d="M1226 141 c-64 -70 -192 -79 -278 -19 -51 35 -93 14 -71 -35 6 -13
35 -36 64 -52 47 -26 64 -30 134 -30 67 0 88 5 130 27 65 34 87 59 83 95 -4
35 -36 42 -62 14z"/>
</g>
</svg>
