<?xml version="1.0" standalone="no"?>
<!DOCTYPE svg PUBLIC "-//W3C//DTD SVG 20010904//EN"
 "http://www.w3.org/TR/2001/REC-SVG-20010904/DTD/svg10.dtd">
<svg version="1.0" xmlns="http://www.w3.org/2000/svg"
 width="139.000000pt" height="165.000000pt" viewBox="0 0 139.000000 165.000000"
 preserveAspectRatio="xMidYMid meet">
<metadata>
Created by potrace 1.16, written by Peter Selinger 2001-2019
</metadata>
<g transform="translate(0.000000,165.000000) scale(0.100000,-0.100000)"
fill="#000000" stroke="none">
<path d="M16 1628 c-14 -20 -16 -112 -16 -799 0 -750 1 -778 19 -800 l19 -24
653 -3 c574 -2 655 -1 675 13 l24 15 0 798 c0 607 -3 801 -12 810 -9 9 -174
12 -679 12 l-668 0 -15 -22z m1324 -803 l0 -775 -642 2 -643 3 -3 773 -2 772
645 0 645 0 0 -775z"/>
<path d="M273 1274 c-3 -8 -1 -20 4 -25 5 -5 173 -8 424 -7 406 3 414 3 414
23 0 20 -8 20 -418 23 -373 2 -418 1 -424 -14z"/>
<path d="M273 964 c-3 -8 -1 -20 4 -25 5 -5 173 -8 424 -7 406 3 414 3 414 23
0 20 -8 20 -418 23 -373 2 -418 1 -424 -14z"/>
<path d="M281 661 c-8 -5 -11 -16 -8 -25 5 -13 41 -16 268 -18 143 -2 265 0
271 3 5 4 8 15 6 25 -3 18 -18 19 -263 21 -143 2 -266 -1 -274 -6z"/>
</g>
</svg>
