<?xml version="1.0" standalone="no"?>
<!DOCTYPE svg PUBLIC "-//W3C//DTD SVG 20010904//EN"
 "http://www.w3.org/TR/2001/REC-SVG-20010904/DTD/svg10.dtd">
<svg version="1.0" xmlns="http://www.w3.org/2000/svg"
 width="210.000000pt" height="104.000000pt" viewBox="0 0 210.000000 104.000000"
 preserveAspectRatio="xMidYMid meet">
<metadata>
Created by potrace 1.16, written by Peter Selinger 2001-2019
</metadata>
<g transform="translate(0.000000,104.000000) scale(0.100000,-0.100000)"
fill="#000000" stroke="none">
<path d="M805 1027 c-177 -59 -277 -243 -277 -512 0 -234 75 -404 213 -480 50
-28 62 -30 154 -30 90 0 105 3 152 27 139 73 210 213 220 430 16 344 -118 564
-350 574 -42 2 -89 -2 -112 -9z m182 -42 c144 -43 242 -233 243 -468 0 -217
-74 -380 -205 -450 -55 -30 -192 -31 -250 -2 -130 64 -207 231 -207 450 0 333
184 540 419 470z"/>
<path d="M842 893 c-13 -3 -43 -23 -67 -46 -54 -52 -84 -141 -92 -272 -12
-198 35 -360 121 -410 71 -42 172 -30 226 26 110 115 119 499 15 635 -45 59
-119 83 -203 67z m137 -61 c67 -49 107 -198 96 -360 -11 -162 -45 -245 -114
-278 -41 -19 -105 -15 -144 11 -115 75 -128 487 -19 609 43 48 129 57 181 18z"/>
<path d="M1622 1022 c-204 -73 -308 -363 -243 -677 31 -152 101 -258 206 -313
44 -24 62 -27 145 -27 114 0 165 19 235 90 90 90 135 230 135 426 0 241 -88
427 -233 489 -72 32 -175 36 -245 12z m195 -37 c70 -21 144 -89 183 -168 79
-161 80 -430 3 -592 -34 -73 -73 -116 -134 -150 -48 -27 -63 -30 -139 -30
-103 0 -145 19 -213 94 -130 145 -155 469 -52 678 74 150 204 212 352 168z"/>
<path d="M1655 885 c-45 -25 -65 -45 -90 -95 -36 -73 -49 -146 -49 -275 1
-243 66 -363 202 -373 147 -11 219 95 229 333 8 192 -29 323 -110 388 -46 38
-133 48 -182 22z m151 -50 c135 -88 137 -552 2 -635 -77 -47 -163 -14 -211 80
-67 136 -46 461 36 538 47 44 120 52 173 17z"/>
<path d="M190 978 c-30 -23 -85 -65 -122 -95 l-68 -54 0 -84 c0 -46 4 -86 10
-90 5 -3 49 23 97 59 l88 64 3 -379 2 -379 90 0 90 0 0 500 0 500 -67 0 c-64
0 -71 -3 -123 -42z m150 -458 l0 -460 -50 0 -50 0 0 395 c0 283 -3 395 -11
395 -6 0 -51 -29 -100 -65 l-89 -66 0 45 0 45 112 85 c95 73 118 86 150 86
l38 0 0 -460z"/>
</g>
</svg>
