<?xml version="1.0" standalone="no"?>
<!DOCTYPE svg PUBLIC "-//W3C//DTD SVG 20010904//EN"
 "http://www.w3.org/TR/2001/REC-SVG-20010904/DTD/svg10.dtd">
<svg version="1.0" xmlns="http://www.w3.org/2000/svg"
 width="215.000000pt" height="240.000000pt" viewBox="0 0 215.000000 240.000000"
 preserveAspectRatio="xMidYMid meet">
<metadata>
Created by potrace 1.16, written by Peter Selinger 2001-2019
</metadata>
<g transform="translate(0.000000,240.000000) scale(0.100000,-0.100000)"
fill="#000000" stroke="none">
<path d="M840 2377 c-104 -32 -162 -68 -256 -161 -128 -128 -182 -258 -220
-526 -21 -154 -31 -579 -14 -640 24 -91 142 -170 253 -170 57 0 36 -14 -53
-35 -238 -57 -406 -165 -484 -314 -49 -93 -66 -190 -66 -371 0 -130 2 -151 16
-157 9 -3 24 -2 33 4 13 9 16 35 18 167 2 174 11 231 54 323 59 125 230 235
437 281 l41 10 26 -53 c75 -154 292 -250 485 -216 134 24 245 101 309 212 22
39 36 54 52 54 26 0 45 26 36 49 -4 11 -19 16 -44 17 -34 1 -36 1 -13 9 14 5
51 14 82 20 42 8 59 16 63 31 14 45 -14 49 -137 19 -118 -28 -125 -27 -137 17
-6 21 -11 65 -11 97 0 54 4 64 39 110 47 60 93 151 114 222 22 73 39 226 35
309 l-3 69 -70 26 c-133 50 -208 114 -269 230 -45 85 -67 92 -95 28 -23 -55
-98 -137 -159 -177 -65 -42 -162 -76 -255 -91 -94 -15 -92 -11 -84 -194 8
-200 51 -336 138 -441 41 -49 46 -75 33 -158 l-7 -37 -66 0 c-137 0 -227 50
-251 141 -29 104 11 631 60 809 48 168 165 322 298 388 160 79 378 80 532 2
122 -61 213 -163 271 -301 44 -109 93 -374 102 -554 2 -46 4 -50 27 -50 24 0
25 2 28 85 3 101 -29 325 -64 448 -55 189 -171 346 -311 420 -141 74 -358 95
-513 49z m303 -473 c46 -66 130 -130 222 -170 l67 -29 -5 -120 c-11 -239 -95
-403 -249 -485 -51 -27 -77 -34 -138 -38 -89 -5 -136 6 -210 50 -127 77 -192
229 -203 480 l-5 107 36 6 c169 28 315 104 400 209 20 25 39 46 42 46 3 -1 22
-26 43 -56z m-173 -911 c68 -7 167 10 222 38 20 10 39 19 42 19 2 0 7 -27 11
-60 11 -95 61 -170 127 -192 17 -6 -24 -68 -78 -118 -25 -23 -71 -54 -102 -68
-51 -24 -69 -27 -167 -27 -99 0 -116 3 -169 28 -33 15 -78 43 -101 61 -46 38
-98 126 -78 133 71 26 123 106 123 190 l0 52 56 -25 c31 -13 82 -27 114 -31z"/>
<path d="M1819 1224 c-11 -14 -13 -75 -11 -336 l3 -319 -33 17 c-47 24 -133
22 -185 -4 -77 -40 -116 -119 -95 -191 15 -49 77 -106 132 -121 82 -22 184 20
223 93 22 42 22 45 18 391 l-3 349 68 -48 c38 -27 80 -58 93 -69 46 -41 64
-117 39 -171 -10 -21 -9 -29 5 -43 24 -24 48 -6 66 48 11 35 11 52 1 97 -14
64 -55 115 -140 173 -61 42 -106 87 -124 122 -14 29 -39 34 -57 12z m-53 -709
c31 -20 47 -60 39 -96 -7 -32 -54 -76 -91 -85 -40 -10 -95 6 -126 36 -91 92
65 220 178 145z"/>
<path d="M1995 318 c-3 -8 -4 -81 -3 -163 3 -135 5 -150 21 -153 39 -8 42 9
37 170 -5 149 -6 153 -28 156 -12 2 -24 -3 -27 -10z"/>
</g>
</svg>
