<?xml version="1.0" standalone="no"?>
<!DOCTYPE svg PUBLIC "-//W3C//DTD SVG 20010904//EN"
 "http://www.w3.org/TR/2001/REC-SVG-20010904/DTD/svg10.dtd">
<svg version="1.0" xmlns="http://www.w3.org/2000/svg"
 width="317.000000pt" height="223.000000pt" viewBox="0 0 317.000000 223.000000"
 preserveAspectRatio="xMidYMid meet">
<metadata>
Created by potrace 1.16, written by Peter Selinger 2001-2019
</metadata>
<g transform="translate(0.000000,223.000000) scale(0.100000,-0.100000)"
fill="#000000" stroke="none">
<path d="M970 2209 c-189 -40 -349 -124 -492 -258 -212 -199 -289 -384 -308
-734 -15 -275 -36 -353 -127 -468 -44 -57 -48 -81 -15 -94 32 -12 121 113 152
213 28 91 39 165 50 354 16 251 55 383 160 538 78 115 228 243 365 312 230
117 537 128 891 32 l62 -16 -39 -61 c-61 -94 -82 -177 -77 -300 7 -180 67
-273 277 -430 75 -55 156 -118 181 -140 64 -56 111 -77 169 -77 44 0 55 4 84
34 58 57 70 107 75 309 4 190 -1 217 -39 196 -17 -9 -19 -23 -19 -157 0 -219
-29 -313 -98 -320 -40 -4 -73 14 -161 87 -40 33 -109 86 -153 117 -113 80
-180 150 -219 230 -80 161 -36 375 101 498 86 77 216 110 365 93 39 -5 158
-10 265 -11 216 -2 258 -10 345 -68 119 -78 193 -188 255 -377 70 -214 84
-314 83 -621 0 -221 -3 -289 -22 -407 -46 -306 -109 -440 -232 -492 -70 -31
-91 -26 -103 24 -6 28 -6 40 3 43 23 8 72 55 87 85 48 93 69 368 39 511 -21
97 -50 152 -121 224 -65 67 -96 77 -102 34 -3 -17 10 -35 47 -68 28 -25 51
-50 51 -55 0 -14 -87 -11 -123 5 -18 7 -52 34 -77 60 -25 25 -53 49 -63 52
-11 3 -42 -10 -80 -33 -34 -22 -87 -49 -117 -61 -167 -69 -222 -146 -308 -434
-54 -177 -64 -247 -60 -393 l3 -120 -143 -3 c-78 -1 -150 2 -160 7 -16 8 -17
18 -11 83 12 115 11 646 -1 669 -14 26 -45 24 -83 -5 -51 -38 -113 -66 -195
-88 -100 -27 -295 -29 -395 -5 -105 26 -141 23 -169 -13 -87 -114 -101 -138
-140 -250 -31 -90 -33 -102 -33 -240 0 -85 -4 -148 -10 -152 -14 -11 -323 -10
-329 1 -3 4 5 62 19 127 54 267 78 539 73 834 l-3 185 -25 0 -25 0 -6 -265
c-7 -294 -26 -490 -70 -715 -35 -180 -35 -187 -8 -211 19 -17 38 -19 210 -19
247 0 234 -11 234 193 0 158 10 210 64 322 l26 55 3 -261 2 -261 26 -24 c25
-23 30 -24 194 -24 154 0 170 2 190 20 20 18 21 27 16 80 -23 234 -18 367 21
491 l16 50 69 12 c88 15 179 46 229 77 21 14 42 25 45 25 4 0 5 -162 1 -359
-5 -351 -5 -360 15 -378 18 -16 40 -18 200 -18 230 0 219 -9 211 173 -3 70 -1
143 4 162 8 30 12 14 32 -130 12 -90 27 -170 33 -177 21 -26 84 -35 220 -32
189 5 203 21 154 165 -53 156 -86 404 -86 647 0 105 -3 129 -15 134 -11 4 1
13 36 29 28 13 64 33 80 45 l29 21 54 -50 c65 -59 120 -78 206 -69 l60 7 17
-58 c25 -79 25 -329 0 -422 -25 -92 -49 -122 -108 -134 -15 -3 -29 -12 -32
-20 -3 -7 6 -50 19 -95 21 -68 29 -82 50 -87 95 -24 234 59 304 181 77 135
130 464 130 803 0 259 -32 471 -100 665 -49 139 -89 205 -175 293 -127 129
-240 167 -485 164 -80 -2 -206 1 -280 5 -157 9 -231 -5 -315 -56 l-50 -31
-125 31 c-260 65 -486 78 -670 40z m1319 -1281 c-9 -16 -10 -76 -6 -218 8
-248 37 -433 94 -589 13 -36 13 -45 2 -52 -8 -5 -71 -9 -142 -9 -150 0 -139
-9 -156 140 -6 52 -21 145 -32 205 l-22 111 28 89 c33 111 83 220 120 263 21
25 101 78 123 82 1 0 -3 -10 -9 -22z m-1374 -263 c33 -8 97 -17 143 -21 79 -6
83 -8 77 -28 -36 -124 -40 -212 -22 -516 l2 -35 -130 -3 c-71 -1 -140 0 -152
3 l-23 5 0 299 c0 164 3 301 7 304 9 10 30 8 98 -8z"/>
<path d="M2667 1562 c-35 -38 -9 -102 40 -102 47 0 71 71 35 103 -24 22 -55
21 -75 -1z"/>
</g>
</svg>
