<?xml version="1.0" standalone="no"?>
<!DOCTYPE svg PUBLIC "-//W3C//DTD SVG 20010904//EN"
 "http://www.w3.org/TR/2001/REC-SVG-20010904/DTD/svg10.dtd">
<svg version="1.0" xmlns="http://www.w3.org/2000/svg"
 width="278.000000pt" height="211.000000pt" viewBox="0 0 278.000000 211.000000"
 preserveAspectRatio="xMidYMid meet">
<metadata>
Created by potrace 1.16, written by Peter Selinger 2001-2019
</metadata>
<g transform="translate(0.000000,211.000000) scale(0.100000,-0.100000)"
fill="#000000" stroke="none">
<path d="M588 2091 c-75 -24 -116 -51 -171 -110 -150 -160 -152 -397 -6 -556
235 -255 647 -131 711 215 32 169 -70 353 -238 432 -86 40 -209 48 -296 19z
m257 -62 c73 -27 156 -104 192 -177 25 -50 28 -68 28 -152 0 -83 -3 -102 -28
-151 -30 -62 -103 -136 -163 -167 -176 -89 -393 -14 -481 166 -25 50 -28 68
-28 152 0 82 4 103 26 151 62 132 205 216 346 203 29 -2 77 -13 108 -25z"/>
<path d="M1957 2099 c-149 -35 -275 -168 -307 -326 -49 -232 137 -467 380
-481 176 -10 325 81 403 246 29 61 32 76 32 162 0 86 -3 101 -31 161 -89 187
-282 284 -477 238z m158 -50 c116 -21 211 -93 263 -199 24 -49 27 -66 27 -155
0 -116 -15 -154 -93 -237 -109 -117 -279 -146 -422 -73 -65 33 -144 122 -170
193 -28 73 -25 192 8 264 44 99 154 186 262 207 62 12 60 12 125 0z"/>
<path d="M340 1196 c-157 -42 -286 -170 -325 -322 -13 -50 -15 -126 -13 -465
3 -396 3 -404 23 -404 20 0 20 8 25 420 5 411 5 421 28 478 27 67 112 163 177
201 84 50 134 56 455 56 380 0 434 -12 546 -124 101 -101 96 -75 98 -585 1
-439 1 -446 21 -446 20 0 20 8 25 415 5 402 6 417 28 471 44 111 130 197 239
241 55 21 73 23 358 26 324 4 384 -2 468 -45 62 -31 141 -104 174 -160 55 -95
57 -107 63 -543 5 -397 5 -405 25 -405 20 0 20 8 23 380 2 253 -1 400 -8 440
-33 174 -158 313 -328 365 -58 18 -93 20 -376 20 -339 0 -383 -5 -478 -57 -61
-33 -139 -109 -174 -169 l-26 -45 -20 41 c-26 53 -114 139 -175 172 -97 53
-139 58 -488 57 -219 0 -334 -4 -365 -13z"/>
<path d="M291 616 c-8 -9 -10 -108 -9 -312 3 -291 4 -299 23 -299 20 0 20 8
23 306 2 260 0 308 -12 312 -8 3 -19 0 -25 -7z"/>
<path d="M2441 616 c-8 -9 -10 -108 -9 -312 3 -291 4 -299 23 -299 20 0 20 8
23 306 2 260 0 308 -12 312 -8 3 -19 0 -25 -7z"/>
<path d="M1645 608 c-3 -7 -4 -146 -3 -308 3 -287 4 -295 23 -295 20 0 20 7
20 305 0 282 -1 305 -18 308 -9 2 -19 -3 -22 -10z"/>
</g>
</svg>
