<?xml version="1.0" standalone="no"?>
<!DOCTYPE svg PUBLIC "-//W3C//DTD SVG 20010904//EN"
 "http://www.w3.org/TR/2001/REC-SVG-20010904/DTD/svg10.dtd">
<svg version="1.0" xmlns="http://www.w3.org/2000/svg"
 width="107.000000pt" height="205.000000pt" viewBox="0 0 107.000000 205.000000"
 preserveAspectRatio="xMidYMid meet">
<metadata>
Created by potrace 1.16, written by Peter Selinger 2001-2019
</metadata>
<g transform="translate(0.000000,205.000000) scale(0.100000,-0.100000)"
fill="#000000" stroke="none">
<path d="M135 2038 c-19 -51 -127 -642 -131 -718 -19 -302 161 -539 449 -593
l57 -11 0 -338 0 -338 -180 0 c-174 0 -180 -1 -180 -20 0 -20 5 -20 388 -18
336 3 387 5 387 18 0 13 -29 15 -187 18 l-188 2 0 338 0 337 68 13 c278 51
471 306 449 592 -5 60 -89 526 -125 690 l-8 35 -397 3 c-313 2 -399 0 -402
-10z m769 -45 c10 -35 116 -594 116 -613 0 -20 -10 -20 -485 -20 l-485 0 0 25
c0 13 4 46 10 72 5 26 30 156 55 288 25 132 48 246 50 253 3 9 86 12 369 12
339 0 365 -1 370 -17z m126 -730 c-1 -266 -239 -505 -500 -502 -265 2 -477
219 -489 502 l-2 57 495 0 496 0 0 -57z"/>
</g>
</svg>
