<?xml version="1.0" standalone="no"?>
<!DOCTYPE svg PUBLIC "-//W3C//DTD SVG 20010904//EN"
 "http://www.w3.org/TR/2001/REC-SVG-20010904/DTD/svg10.dtd">
<svg version="1.0" xmlns="http://www.w3.org/2000/svg"
 width="154.000000pt" height="185.000000pt" viewBox="0 0 154.000000 185.000000"
 preserveAspectRatio="xMidYMid meet">
<metadata>
Created by potrace 1.16, written by Peter Selinger 2001-2019
</metadata>
<g transform="translate(0.000000,185.000000) scale(0.100000,-0.100000)"
fill="#000000" stroke="none">
<path d="M1012 1732 c-359 -87 -486 -121 -493 -134 -6 -10 -8 -247 -7 -597 2
-320 1 -581 0 -581 -2 0 -16 8 -30 18 -68 47 -192 57 -286 22 -148 -56 -234
-216 -177 -329 85 -165 346 -172 491 -14 27 30 54 71 60 91 6 23 10 215 10
504 l0 468 22 5 c13 3 102 23 198 46 509 118 647 150 663 155 16 5 17 -17 17
-371 0 -207 -3 -375 -7 -373 -76 39 -92 43 -173 42 -190 -1 -330 -114 -330
-268 0 -131 98 -216 249 -216 92 0 165 28 232 88 95 85 89 29 89 833 0 713 -1
731 -34 728 -6 0 -228 -53 -494 -117z m468 -115 l0 -164 -72 -16 c-40 -9 -238
-55 -440 -102 -202 -47 -372 -85 -378 -85 -7 0 -10 50 -8 157 l3 157 445 107
c245 59 446 107 448 108 1 1 2 -73 2 -162z m-73 -1013 c52 -39 68 -71 68 -134
0 -49 -5 -65 -30 -102 -66 -93 -228 -136 -325 -86 -197 101 -47 356 203 344
38 -1 66 -9 84 -22z m-976 -207 c55 -29 81 -72 81 -133 0 -68 -40 -120 -122
-162 -114 -57 -206 -52 -280 14 -67 60 -66 132 2 209 57 65 124 95 209 95 50
0 77 -6 110 -23z"/>
</g>
</svg>
