<?xml version="1.0" standalone="no"?>
<!DOCTYPE svg PUBLIC "-//W3C//DTD SVG 20010904//EN"
 "http://www.w3.org/TR/2001/REC-SVG-20010904/DTD/svg10.dtd">
<svg version="1.0" xmlns="http://www.w3.org/2000/svg"
 width="204.000000pt" height="226.000000pt" viewBox="0 0 204.000000 226.000000"
 preserveAspectRatio="xMidYMid meet">
<metadata>
Created by potrace 1.16, written by Peter Selinger 2001-2019
</metadata>
<g transform="translate(0.000000,226.000000) scale(0.100000,-0.100000)"
fill="#000000" stroke="none">
<path d="M105 2243 c-44 -23 -65 -44 -86 -85 -19 -37 -19 -71 -17 -1042 l3
-1004 31 -39 c63 -79 -10 -73 995 -71 l896 3 37 29 c21 16 47 47 57 70 18 39
19 85 19 1019 0 860 -2 982 -15 1015 -20 47 -50 79 -97 103 -36 18 -71 19
-915 19 -782 -1 -881 -3 -908 -17z m1767 -64 c20 -5 48 -23 62 -40 l26 -31 0
-982 c0 -1079 4 -1008 -60 -1041 -25 -13 -143 -15 -872 -14 -626 0 -852 3
-877 12 -19 7 -43 25 -55 40 -21 28 -21 31 -20 1008 1 961 2 981 21 1007 11
15 35 32 54 38 43 15 1665 17 1721 3z"/>
<path d="M313 2030 c-56 -25 -83 -70 -83 -138 0 -104 56 -162 157 -162 80 0
135 46 154 127 17 76 -23 144 -103 177 -48 21 -74 20 -125 -4z m132 -85 c37
-36 34 -86 -6 -119 -59 -50 -139 -17 -139 57 0 80 90 118 145 62z"/>
<path d="M735 2011 c-117 -79 -65 -251 76 -251 72 0 129 57 129 130 0 103
-124 176 -205 121z m110 -76 c14 -13 25 -31 25 -40 0 -21 -45 -65 -66 -65 -24
0 -64 39 -64 62 0 23 43 68 65 68 9 0 27 -11 40 -25z"/>
<path d="M833 1651 c-319 -87 -528 -374 -510 -701 11 -192 74 -336 202 -466
143 -144 317 -211 524 -202 304 14 558 216 639 510 12 46 17 99 16 193 0 114
-4 139 -28 209 -75 219 -230 374 -441 443 -112 36 -297 42 -402 14z m373 -86
c196 -62 362 -240 409 -437 19 -82 19 -228 0 -303 -44 -173 -168 -327 -325
-404 -189 -92 -361 -93 -549 0 -123 60 -213 153 -274 279 -56 117 -71 190 -65
318 21 406 412 672 804 547z"/>
<path d="M875 1416 c-120 -39 -225 -131 -278 -243 -31 -65 -32 -73 -32 -193 0
-124 0 -126 37 -200 89 -183 293 -293 479 -260 72 13 171 55 226 97 125 95
193 289 159 451 -30 143 -114 251 -250 318 -77 37 -84 39 -190 41 -71 2 -125
-2 -151 -11z m274 -85 c212 -80 309 -312 214 -512 -38 -81 -82 -129 -156 -173
-156 -92 -344 -62 -470 74 -76 82 -101 148 -101 265 -1 77 3 98 26 148 49 104
161 194 272 217 56 12 158 3 215 -19z"/>
</g>
</svg>
