<?xml version="1.0" standalone="no"?>
<!DOCTYPE svg PUBLIC "-//W3C//DTD SVG 20010904//EN"
 "http://www.w3.org/TR/2001/REC-SVG-20010904/DTD/svg10.dtd">
<svg version="1.0" xmlns="http://www.w3.org/2000/svg"
 width="172.000000pt" height="235.000000pt" viewBox="0 0 172.000000 235.000000"
 preserveAspectRatio="xMidYMid meet">
<metadata>
Created by potrace 1.16, written by Peter Selinger 2001-2019
</metadata>
<g transform="translate(0.000000,235.000000) scale(0.100000,-0.100000)"
fill="#000000" stroke="none">
<path d="M438 2201 c-230 -81 -423 -152 -430 -159 -21 -21 9 -37 180 -93 l162
-54 0 -131 c0 -90 -5 -153 -16 -196 -12 -45 -15 -87 -11 -148 15 -240 171
-438 396 -504 71 -21 211 -21 282 0 186 55 334 209 383 400 20 78 21 205 1
272 -11 37 -15 87 -13 179 l3 128 75 27 c41 15 81 27 88 27 9 1 12 -38 12
-165 0 -152 1 -165 18 -162 15 3 18 22 22 178 l5 174 55 17 c59 18 85 43 60
59 -8 5 -37 17 -65 26 -27 9 -215 74 -416 145 -202 71 -368 129 -370 128 -2 0
-192 -67 -421 -148z m707 0 c154 -55 325 -115 380 -134 90 -31 97 -36 75 -45
-14 -5 -186 -64 -383 -132 l-357 -123 -148 51 c-81 28 -251 86 -379 129 -128
43 -232 80 -233 83 0 4 739 266 760 269 3 1 131 -44 285 -98z m-63 -406 c123
43 229 80 236 83 9 3 12 -22 12 -107 l0 -112 -46 -20 c-25 -11 -89 -32 -142
-46 -86 -23 -117 -26 -267 -27 -183 0 -287 17 -411 66 l-59 23 -3 111 -3 111
230 -80 230 -79 223 77z m-610 -216 c213 -84 585 -81 801 6 31 12 59 19 62 15
3 -4 10 -39 17 -78 10 -58 9 -83 -4 -151 -24 -121 -65 -200 -147 -282 -197
-198 -484 -198 -681 -2 -106 106 -150 214 -150 362 0 108 14 166 38 156 9 -4
38 -16 64 -26z"/>
<path d="M421 824 c-180 -48 -339 -209 -386 -389 -11 -43 -15 -111 -15 -247
l0 -188 840 0 840 0 0 196 c0 182 -2 200 -25 271 -58 171 -177 290 -349 348
-91 31 -166 32 -296 5 -52 -11 -129 -20 -170 -20 -41 0 -118 9 -170 20 -111
23 -194 24 -269 4z m241 -44 c144 -35 225 -36 371 -5 98 20 142 25 185 19 164
-20 310 -121 383 -266 46 -90 59 -164 59 -335 l0 -153 -801 0 -801 0 4 177 c4
150 9 188 27 238 60 166 202 295 364 330 86 19 113 18 209 -5z"/>
</g>
</svg>
