<?xml version="1.0" standalone="no"?>
<!DOCTYPE svg PUBLIC "-//W3C//DTD SVG 20010904//EN"
 "http://www.w3.org/TR/2001/REC-SVG-20010904/DTD/svg10.dtd">
<svg version="1.0" xmlns="http://www.w3.org/2000/svg"
 width="189.000000pt" height="205.000000pt" viewBox="0 0 189.000000 205.000000"
 preserveAspectRatio="xMidYMid meet">
<metadata>
Created by potrace 1.16, written by Peter Selinger 2001-2019
</metadata>
<g transform="translate(0.000000,205.000000) scale(0.100000,-0.100000)"
fill="#000000" stroke="none">
<path d="M765 2035 c-148 -29 -320 -117 -438 -224 -126 -116 -240 -304 -293
-486 -23 -78 -27 -113 -31 -260 -4 -144 -2 -184 15 -261 48 -216 137 -379 292
-534 110 -110 167 -149 298 -206 185 -80 420 -86 622 -16 431 150 702 602 652
1085 -47 451 -316 782 -722 888 -103 27 -291 33 -395 14z m378 -64 c164 -42
270 -99 384 -205 90 -84 149 -164 202 -277 139 -292 141 -635 6 -916 -151
-312 -427 -501 -756 -520 -236 -13 -454 72 -630 247 -197 195 -299 448 -299
739 0 294 121 565 337 755 104 92 282 174 428 196 85 13 238 4 328 -19z"/>
<path d="M547 1369 c-61 -47 -58 -161 6 -199 40 -25 64 -25 104 0 90 54 51
220 -52 220 -18 0 -44 -9 -58 -21z"/>
<path d="M1219 1362 c-68 -60 -42 -185 43 -206 105 -26 170 124 88 206 -39 38
-88 38 -131 0z"/>
<path d="M866 846 c-86 -32 -136 -111 -136 -216 0 -79 23 -133 73 -177 65 -57
150 -68 234 -29 149 70 164 302 27 399 -50 35 -138 45 -198 23z m162 -63 c60
-45 84 -119 68 -208 -11 -55 -70 -111 -128 -120 -62 -9 -127 21 -160 73 -32
52 -32 152 0 204 45 73 156 99 220 51z"/>
</g>
</svg>
