<?xml version="1.0" standalone="no"?>
<!DOCTYPE svg PUBLIC "-//W3C//DTD SVG 20010904//EN"
 "http://www.w3.org/TR/2001/REC-SVG-20010904/DTD/svg10.dtd">
<svg version="1.0" xmlns="http://www.w3.org/2000/svg"
 width="189.000000pt" height="190.000000pt" viewBox="0 0 189.000000 190.000000"
 preserveAspectRatio="xMidYMid meet">
<metadata>
Created by potrace 1.16, written by Peter Selinger 2001-2019
</metadata>
<g transform="translate(0.000000,190.000000) scale(0.100000,-0.100000)"
fill="#000000" stroke="none">
<path d="M1035 1881 c-29 -18 -1002 -1000 -1018 -1028 -15 -26 -10 -91 9 -115
11 -13 179 -181 374 -374 370 -367 389 -381 441 -354 32 18 1000 995 1027
1038 l24 37 -6 300 c-5 330 -10 359 -68 429 -17 21 -54 49 -82 62 -50 23 -56
24 -361 24 -285 0 -312 -2 -340 -19z m682 -46 c50 -25 91 -72 111 -126 6 -14
13 -149 17 -300 6 -212 5 -285 -5 -315 -10 -31 -111 -138 -513 -542 -351 -352
-508 -502 -523 -502 -27 0 -741 701 -750 736 -4 15 1 35 15 56 11 18 242 255
513 526 l493 492 296 0 295 0 51 -25z"/>
<path d="M1380 1618 c-58 -40 -75 -72 -75 -141 0 -74 25 -116 85 -147 93 -48
193 -7 235 94 30 70 -8 166 -78 199 -51 25 -127 22 -167 -5z m135 -32 c38 -16
75 -68 75 -104 0 -46 -30 -90 -76 -112 -38 -19 -49 -20 -79 -10 -108 36 -122
175 -21 221 50 23 57 23 101 5z"/>
</g>
</svg>
