<?xml version="1.0" standalone="no"?>
<!DOCTYPE svg PUBLIC "-//W3C//DTD SVG 20010904//EN"
 "http://www.w3.org/TR/2001/REC-SVG-20010904/DTD/svg10.dtd">
<svg version="1.0" xmlns="http://www.w3.org/2000/svg"
 width="165.000000pt" height="178.000000pt" viewBox="0 0 165.000000 178.000000"
 preserveAspectRatio="xMidYMid meet">
<metadata>
Created by potrace 1.16, written by Peter Selinger 2001-2019
</metadata>
<g transform="translate(0.000000,178.000000) scale(0.100000,-0.100000)"
fill="#000000" stroke="none">
<path d="M686 1765 c-273 -52 -468 -236 -551 -520 -27 -93 -34 -162 -75 -682
-12 -144 -30 -324 -41 -399 -13 -90 -17 -140 -10 -147 18 -18 239 -21 331 -3
94 18 178 54 198 87 7 11 16 52 19 89 l6 69 36 -18 c133 -68 319 -68 453 0
l37 19 6 -58 c10 -91 27 -119 89 -148 30 -14 85 -31 123 -39 70 -15 268 -19
313 -6 30 9 30 15 7 191 -20 150 -31 274 -52 565 -27 378 -50 499 -126 646
-90 174 -243 295 -434 344 -90 23 -236 27 -329 10z m292 -41 c233 -47 413
-212 490 -451 32 -98 50 -234 77 -592 22 -291 40 -467 61 -602 l6 -36 -63 -6
c-123 -11 -326 24 -381 67 -25 19 -38 60 -38 125 0 56 1 58 58 116 127 131
185 295 199 556 l6 116 -104 50 c-57 28 -123 65 -147 82 -45 34 -100 111 -123
174 -23 65 -32 65 -100 3 -151 -140 -323 -224 -606 -296 l-43 -11 0 -112 c0
-133 12 -216 45 -317 34 -102 74 -167 151 -249 l65 -69 -7 -67 c-9 -86 -27
-109 -112 -136 -52 -17 -100 -23 -210 -27 -84 -2 -148 0 -153 5 -6 6 -4 45 5
104 17 109 40 346 61 644 29 405 55 513 163 672 144 212 421 314 700 257z
m104 -567 c37 -38 85 -69 162 -108 l108 -54 -5 -125 c-10 -207 -65 -368 -167
-482 -95 -107 -209 -159 -350 -161 -317 -3 -530 278 -530 700 0 60 1 63 28 69
89 19 213 59 293 94 102 44 266 149 319 204 l34 36 28 -60 c16 -36 48 -82 80
-113z"/>
</g>
</svg>
