<?xml version="1.0" standalone="no"?>
<!DOCTYPE svg PUBLIC "-//W3C//DTD SVG 20010904//EN"
 "http://www.w3.org/TR/2001/REC-SVG-20010904/DTD/svg10.dtd">
<svg version="1.0" xmlns="http://www.w3.org/2000/svg"
 width="151.000000pt" height="79.000000pt" viewBox="0 0 151.000000 79.000000"
 preserveAspectRatio="xMidYMid meet">
<metadata>
Created by potrace 1.16, written by Peter Selinger 2001-2019
</metadata>
<g transform="translate(0.000000,79.000000) scale(0.100000,-0.100000)"
fill="#000000" stroke="none">
<path d="M570 774 c-257 -55 -501 -302 -556 -564 -19 -91 -16 -205 6 -205 11
0 17 25 26 107 14 126 23 157 77 263 57 112 191 246 297 297 92 45 177 67 284
75 384 26 723 -265 753 -645 4 -59 10 -85 21 -89 57 -23 25 199 -53 362 -93
195 -290 351 -502 399 -88 20 -262 20 -353 0z"/>
</g>
</svg>
