<?xml version="1.0" standalone="no"?>
<!DOCTYPE svg PUBLIC "-//W3C//DTD SVG 20010904//EN"
 "http://www.w3.org/TR/2001/REC-SVG-20010904/DTD/svg10.dtd">
<svg version="1.0" xmlns="http://www.w3.org/2000/svg"
 width="203.000000pt" height="170.000000pt" viewBox="0 0 203.000000 170.000000"
 preserveAspectRatio="xMidYMid meet">
<metadata>
Created by potrace 1.16, written by Peter Selinger 2001-2019
</metadata>
<g transform="translate(0.000000,170.000000) scale(0.100000,-0.100000)"
fill="#000000" stroke="none">
<path d="M1669 1677 c-86 -46 -136 -143 -126 -243 21 -207 257 -298 408 -157
100 94 107 236 15 340 -53 60 -103 83 -187 83 -50 0 -76 -6 -110 -23z m197
-36 c103 -47 150 -180 98 -282 -31 -61 -114 -109 -189 -109 -79 1 -165 75
-185 161 -40 164 123 300 276 230z"/>
<path d="M1522 1184 c-25 -13 -211 -218 -342 -377 -14 -17 -26 -15 -260 64
-198 67 -256 83 -305 83 -74 0 -92 -10 -184 -98 -84 -81 -388 -408 -414 -446
-11 -16 -17 -44 -17 -82 0 -50 4 -62 31 -93 33 -37 94 -60 132 -50 60 17 85
36 193 154 65 69 150 157 191 194 l73 69 177 -70 c287 -113 352 -134 418 -135
123 -2 183 45 365 288 194 259 213 290 207 346 -4 52 -31 96 -84 136 -45 34
-131 42 -181 17z m131 -38 c38 -16 84 -66 93 -103 10 -40 -20 -90 -184 -309
-155 -208 -190 -245 -257 -275 -83 -38 -135 -26 -497 116 l-198 77 -37 -30
c-43 -34 -186 -180 -283 -290 -73 -83 -103 -102 -155 -102 -77 0 -123 95 -78
160 33 49 445 480 477 500 21 12 51 20 79 20 50 0 235 -54 427 -125 68 -25
127 -45 131 -45 4 0 63 64 130 143 223 259 242 277 292 277 15 0 42 -6 60 -14z"/>
<path d="M1881 1014 c-20 -45 -196 -309 -277 -416 -168 -221 -231 -278 -306
-278 -18 0 -116 16 -218 35 -102 19 -256 43 -342 52 l-156 17 -69 -60 c-198
-172 -363 -327 -363 -339 0 -36 31 -17 163 102 78 71 174 156 212 190 l71 62
94 -9 c130 -13 219 -27 400 -61 85 -16 179 -29 208 -29 59 0 113 23 151 64
l24 26 124 -185 c68 -102 128 -185 133 -185 31 0 10 44 -95 204 -64 97 -118
183 -122 192 -3 9 6 28 24 47 98 104 393 540 393 581 0 26 -36 18 -49 -10z"/>
</g>
</svg>
