<?xml version="1.0" standalone="no"?>
<!DOCTYPE svg PUBLIC "-//W3C//DTD SVG 20010904//EN"
 "http://www.w3.org/TR/2001/REC-SVG-20010904/DTD/svg10.dtd">
<svg version="1.0" xmlns="http://www.w3.org/2000/svg"
 width="160.000000pt" height="277.000000pt" viewBox="0 0 160.000000 277.000000"
 preserveAspectRatio="xMidYMid meet">
<metadata>
Created by potrace 1.16, written by Peter Selinger 2001-2019
</metadata>
<g transform="translate(0.000000,277.000000) scale(0.100000,-0.100000)"
fill="#000000" stroke="none">
<path d="M432 2740 c-178 -90 -230 -309 -111 -475 59 -81 149 -125 258 -125
116 0 222 67 279 175 23 43 27 62 27 140 0 78 -4 97 -27 141 -34 65 -114 138
-175 158 -26 9 -79 16 -118 16 -60 0 -82 -5 -133 -30z m261 -63 c56 -33 81
-62 109 -122 62 -138 -14 -298 -160 -341 -119 -35 -235 19 -299 139 -24 45
-24 160 1 207 35 67 95 118 166 141 45 15 137 3 183 -24z"/>
<path d="M380 2073 c-66 -24 -152 -114 -175 -182 -17 -51 -17 -78 -6 -445 6
-215 14 -411 17 -436 8 -58 27 -96 77 -148 l41 -42 -96 0 -97 0 -5 33 c-4 27
-44 671 -62 1012 -7 136 -9 145 -39 145 -13 0 -27 -4 -30 -10 -6 -10 20 -474
55 -990 l18 -275 -33 -285 c-43 -361 -46 -409 -23 -423 13 -9 21 -8 29 0 7 7
28 149 50 335 21 178 40 337 44 354 l5 31 272 6 c149 4 328 7 398 7 l128 0 7
-360 c6 -297 10 -362 22 -372 11 -8 19 -9 31 -1 15 9 17 38 14 284 -1 151 -5
313 -8 362 l-6 87 65 0 c44 0 68 -5 77 -14 6 -8 41 -153 76 -321 35 -169 71
-319 78 -333 29 -56 85 -92 141 -92 42 0 69 12 107 48 54 50 54 55 -7 489 -31
219 -63 418 -71 443 -16 53 -64 114 -108 141 -29 17 -31 23 -31 73 0 110 -54
143 -300 182 -93 15 -171 28 -173 29 -1 1 -21 103 -43 226 -25 141 -49 243
-64 276 -28 61 -94 131 -150 158 -54 26 -165 30 -225 8z m224 -80 c22 -16 55
-50 73 -76 35 -52 44 -89 93 -372 19 -114 36 -184 45 -191 8 -6 54 -16 102
-24 324 -47 353 -57 353 -127 0 -53 -32 -67 -133 -60 -369 27 -464 45 -494 95
-7 11 -28 102 -47 202 -20 100 -38 186 -41 191 -10 15 -45 10 -52 -6 -7 -19
54 -346 72 -390 16 -39 61 -80 109 -100 23 -10 120 -24 245 -36 257 -25 267
-25 316 -16 34 7 46 4 86 -21 75 -48 81 -68 144 -502 30 -211 55 -397 55 -413
0 -67 -91 -102 -145 -54 -26 23 -54 135 -131 521 -23 118 -32 144 -57 173 -45
52 -75 55 -427 52 -344 -4 -348 -3 -418 56 -67 56 -69 66 -81 430 -17 498 -17
524 7 571 25 48 76 98 122 119 55 25 152 14 204 -22z"/>
</g>
</svg>
