<?xml version="1.0" standalone="no"?>
<!DOCTYPE svg PUBLIC "-//W3C//DTD SVG 20010904//EN"
 "http://www.w3.org/TR/2001/REC-SVG-20010904/DTD/svg10.dtd">
<svg version="1.0" xmlns="http://www.w3.org/2000/svg"
 width="194.000000pt" height="243.000000pt" viewBox="0 0 194.000000 243.000000"
 preserveAspectRatio="xMidYMid meet">
<metadata>
Created by potrace 1.16, written by Peter Selinger 2001-2019
</metadata>
<g transform="translate(0.000000,243.000000) scale(0.100000,-0.100000)"
fill="#000000" stroke="none">
<path d="M74 2416 c-17 -8 -40 -26 -52 -41 l-22 -28 0 -1129 c0 -1240 -3
-1170 60 -1203 25 -13 142 -15 905 -15 791 0 880 2 911 16 68 32 64 -27 64
1040 l0 966 -202 204 -202 204 -715 0 c-577 -1 -722 -3 -747 -14z m1426 -203
c0 -238 -15 -223 222 -223 l178 0 0 -949 c0 -919 -1 -950 -19 -972 l-19 -24
-892 0 -892 0 -19 24 c-18 23 -19 55 -19 1145 l0 1123 23 20 c12 11 29 23 37
26 8 3 327 6 708 6 l692 1 0 -177z m213 -181 c-118 -2 -158 1 -165 10 -4 7 -8
83 -8 168 l0 155 165 -165 165 -165 -157 -3z"/>
<path d="M321 2073 c-21 -18 -22 -23 -23 -375 -1 -274 2 -361 12 -373 11 -13
62 -15 365 -15 328 0 353 1 368 18 15 17 17 57 17 375 l0 356 -22 15 c-19 14
-71 16 -359 16 -306 0 -339 -2 -358 -17z m699 -308 l0 -276 -64 55 c-36 30
-77 63 -91 72 -26 17 -27 17 -62 -19 l-36 -35 -102 79 c-57 43 -109 79 -116
79 -8 0 -58 -44 -111 -97 l-98 -98 0 258 0 257 340 0 340 0 0 -275z m-280
-239 c19 -23 30 -20 71 20 l37 36 87 -72 c85 -72 86 -74 83 -114 l-3 -41 -337
-3 -338 -2 0 57 0 58 106 106 107 107 87 -68 c48 -38 92 -76 100 -84z"/>
<path d="M763 1925 c-39 -17 -53 -42 -53 -95 0 -56 34 -90 90 -90 113 0 139
151 33 191 -30 11 -31 11 -70 -6z m85 -53 c29 -37 0 -92 -48 -92 -36 0 -52 21
-48 62 5 52 63 71 96 30z"/>
<path d="M303 1005 c-3 -9 -3 -18 0 -21 7 -7 1326 -6 1338 1 7 5 6 12 -2 21
-10 12 -115 14 -671 14 -584 0 -659 -2 -665 -15z"/>
<path d="M305 679 c-4 -6 -3 -15 2 -20 5 -5 279 -8 674 -7 582 3 664 5 664 18
0 13 -82 15 -667 18 -474 1 -669 -1 -673 -9z"/>
<path d="M305 350 c-3 -5 -3 -14 0 -20 4 -6 168 -10 461 -10 447 0 454 0 454
20 0 20 -7 20 -454 20 -293 0 -457 -4 -461 -10z"/>
</g>
</svg>
