<?xml version="1.0" standalone="no"?>
<!DOCTYPE svg PUBLIC "-//W3C//DTD SVG 20010904//EN"
 "http://www.w3.org/TR/2001/REC-SVG-20010904/DTD/svg10.dtd">
<svg version="1.0" xmlns="http://www.w3.org/2000/svg"
 width="170.000000pt" height="218.000000pt" viewBox="0 0 170.000000 218.000000"
 preserveAspectRatio="xMidYMid meet">
<metadata>
Created by potrace 1.16, written by Peter Selinger 2001-2019
</metadata>
<g transform="translate(0.000000,218.000000) scale(0.100000,-0.100000)"
fill="#000000" stroke="none">
<path d="M26 2159 l-26 -20 0 -1045 0 -1045 25 -24 24 -25 803 0 c711 0 806 2
826 16 l22 15 0 924 0 924 -132 136 c-73 76 -145 143 -160 151 -22 12 -140 14
-691 14 -657 0 -665 0 -691 -21z m1342 -159 c1 -76 7 -139 13 -145 5 -5 70
-11 150 -13 l140 -4 -1 -887 c-1 -488 -5 -892 -9 -899 -6 -9 -192 -12 -812
-10 l-804 3 -3 1035 c-1 569 0 1041 3 1048 3 10 141 12 662 10 l658 -3 3 -135z
m162 -5 l115 -115 -118 0 -117 0 0 115 c0 63 1 115 3 115 1 0 54 -52 117 -115z"/>
<path d="M404 1881 c-71 -32 -110 -127 -85 -204 16 -46 80 -104 125 -113 75
-14 148 21 182 89 26 49 20 124 -13 170 -52 74 -128 95 -209 58z m157 -57 c44
-42 55 -93 30 -148 -42 -95 -167 -103 -221 -13 -36 58 -20 132 37 177 40 31
112 24 154 -16z"/>
<path d="M1043 1611 c-38 -32 -115 -107 -172 -165 l-105 -105 -70 74 c-60 63
-75 74 -95 68 -25 -6 -385 -343 -395 -369 -9 -25 -7 -33 14 -54 20 -20 33 -20
646 -20 590 0 625 1 622 18 -3 16 -42 17 -618 20 -338 1 -618 6 -623 11 -7 7
126 142 299 304 l60 56 74 -74 c41 -41 81 -75 89 -75 8 0 90 74 182 165 91 91
173 165 180 165 8 0 88 -79 178 -175 90 -96 167 -175 172 -175 40 0 -28 88
-229 293 -66 67 -102 97 -118 97 -14 0 -50 -23 -91 -59z"/>
<path d="M220 765 c0 -13 77 -15 630 -15 347 0 633 0 638 -1 4 0 8 7 10 15 3
14 -63 16 -637 16 -563 0 -641 -2 -641 -15z"/>
<path d="M222 533 c3 -17 34 -18 513 -18 447 0 510 2 510 15 0 13 -65 15 -513
18 -485 2 -513 1 -510 -15z"/>
<path d="M227 313 c-4 -3 -7 -12 -7 -20 0 -11 69 -13 393 -11 341 3 392 5 392
18 0 13 -51 15 -386 18 -212 1 -388 -1 -392 -5z"/>
</g>
</svg>
