<?xml version="1.0" standalone="no"?>
<!DOCTYPE svg PUBLIC "-//W3C//DTD SVG 20010904//EN"
 "http://www.w3.org/TR/2001/REC-SVG-20010904/DTD/svg10.dtd">
<svg version="1.0" xmlns="http://www.w3.org/2000/svg"
 width="83.000000pt" height="198.000000pt" viewBox="0 0 83.000000 198.000000"
 preserveAspectRatio="xMidYMid meet">
<metadata>
Created by potrace 1.16, written by Peter Selinger 2001-2019
</metadata>
<g transform="translate(0.000000,198.000000) scale(0.100000,-0.100000)"
fill="#000000" stroke="none">
<path d="M378 1963 c-9 -10 -20 -27 -26 -38 -13 -25 -32 -149 -33 -212 l0 -48
-17 40 c-45 106 -86 145 -149 145 -103 0 -75 -188 50 -342 l44 -54 -43 -18
c-67 -28 -129 -89 -166 -164 -32 -65 -33 -70 -32 -192 0 -100 5 -146 27 -232
77 -310 244 -729 325 -816 74 -79 140 -16 249 237 61 143 155 429 189 576 36
154 40 331 10 410 -25 64 -101 145 -165 174 l-49 24 44 54 c50 61 106 167 124
232 27 101 -50 146 -135 79 -15 -12 -45 -48 -65 -79 l-37 -58 -7 83 c-6 84
-24 152 -52 193 -18 28 -64 31 -86 6z m68 -54 c26 -52 40 -197 26 -287 -18
-124 -29 -152 -57 -152 -38 0 -50 52 -49 215 1 133 13 214 36 243 16 19 26 15
44 -19z m-257 -113 c30 -16 80 -103 124 -216 42 -109 42 -107 6 -112 -28 -4
-36 1 -75 51 -64 80 -114 184 -114 236 0 59 10 66 59 41z m529 -25 c5 -52 -64
-183 -144 -273 -26 -29 -36 -34 -62 -30 -28 4 -31 7 -26 31 9 43 80 183 119
234 35 46 80 79 100 73 6 -1 11 -17 13 -35z m-95 -379 c180 -89 212 -272 111
-634 l-16 -56 -128 0 c-136 0 -159 -4 -139 -28 9 -11 41 -14 135 -14 l123 0
-35 -102 c-107 -307 -213 -518 -259 -518 -8 0 -25 15 -39 33 -26 34 -136 257
-136 276 0 6 33 11 78 13 60 2 77 6 77 18 0 12 -19 16 -90 20 l-90 5 -43 119
c-40 110 -112 371 -127 458 l-6 37 148 3 c124 3 148 5 148 18 0 12 -26 16
-150 20 l-149 5 2 50 c5 94 31 155 92 217 80 80 142 99 306 95 113 -3 125 -5
187 -35z"/>
</g>
</svg>
