<?xml version="1.0" standalone="no"?>
<!DOCTYPE svg PUBLIC "-//W3C//DTD SVG 20010904//EN"
 "http://www.w3.org/TR/2001/REC-SVG-20010904/DTD/svg10.dtd">
<svg version="1.0" xmlns="http://www.w3.org/2000/svg"
 width="178.000000pt" height="227.000000pt" viewBox="0 0 178.000000 227.000000"
 preserveAspectRatio="xMidYMid meet">
<metadata>
Created by potrace 1.16, written by Peter Selinger 2001-2019
</metadata>
<g transform="translate(0.000000,227.000000) scale(0.100000,-0.100000)"
fill="#000000" stroke="none">
<path d="M7 2264 c-4 -4 -7 -512 -7 -1130 0 -1014 2 -1122 16 -1128 9 -3 372
-6 808 -6 l792 0 51 25 c32 16 61 41 79 67 l29 41 3 991 2 991 -22 44 c-13 25
-40 59 -61 75 l-39 31 -822 3 c-452 1 -825 -1 -829 -4z m1640 -51 c19 -9 46
-32 59 -52 l24 -37 0 -964 c0 -531 0 -977 0 -992 0 -35 -44 -86 -95 -109 -38
-18 -85 -19 -817 -19 l-778 0 0 1095 0 1095 786 0 c711 0 789 -2 821 -17z"/>
<path d="M745 1931 c-282 -81 -460 -365 -401 -641 26 -122 75 -211 164 -299
118 -117 228 -161 402 -161 159 1 291 60 401 179 161 175 194 419 87 641 -40
83 -160 206 -238 243 -121 58 -291 74 -415 38z m241 -57 c18 -13 44 -44 59
-69 31 -53 68 -156 59 -164 -3 -3 -46 -8 -95 -9 l-89 -4 0 141 c0 156 -1 155
66 105z m-116 -110 l0 -137 -87 7 c-48 4 -90 9 -92 11 -7 8 42 132 68 170 25
37 83 85 102 85 5 0 9 -61 9 -136z m-145 76 c-33 -50 -75 -147 -75 -176 0 -17
-9 -16 -102 18 -32 11 -58 24 -58 28 0 20 118 115 182 145 40 19 76 35 80 35
3 0 -8 -22 -27 -50z m401 20 c60 -29 174 -121 174 -142 0 -9 -81 -49 -126 -62
-18 -5 -23 0 -33 36 -15 49 -54 130 -83 171 -25 35 -12 35 68 -3z m-553 -236
c57 -18 59 -19 52 -49 -3 -16 -9 -60 -12 -97 l-6 -68 -115 0 -115 0 7 55 c6
56 36 142 62 183 13 20 17 21 42 8 15 -7 53 -22 85 -32z m792 -4 c24 -47 55
-155 55 -192 0 -16 -12 -18 -118 -18 l-117 0 -3 65 c-2 35 -7 79 -13 97 -5 18
-9 34 -9 35 0 1 28 11 63 22 34 12 69 26 77 31 27 18 39 10 65 -40z m-557 -30
l62 0 0 -90 0 -90 -111 0 -112 0 7 53 c4 28 9 72 13 96 l6 43 36 -6 c20 -3 64
-6 99 -6z m328 -98 l7 -82 -112 0 -111 0 0 85 0 85 53 1 c28 0 72 4 97 8 30 4
47 3 52 -5 4 -6 10 -48 14 -92z m-525 -187 c3 -33 9 -78 13 -100 l7 -41 -58
-12 c-32 -7 -70 -18 -85 -26 -25 -13 -28 -13 -42 9 -23 35 -66 169 -66 205 l0
31 113 -3 112 -3 6 -60z m259 -30 l0 -95 -62 0 c-35 0 -79 -3 -99 -6 l-36 -6
-12 76 c-6 42 -11 88 -11 101 l0 25 110 0 110 0 0 -95z m266 24 c-3 -36 -9
-80 -12 -98 -6 -30 -9 -32 -37 -27 -16 3 -60 6 -98 6 l-69 0 0 93 0 92 111 0
111 0 -6 -66z m284 56 c0 -54 -66 -245 -85 -245 -3 0 -18 6 -33 14 -15 7 -53
19 -85 27 -52 11 -58 15 -52 33 3 12 8 53 11 91 3 39 7 76 10 83 6 19 234 17
234 -3z m-550 -345 c0 -71 -3 -130 -7 -130 -22 0 -75 44 -102 83 -28 41 -71
136 -71 157 0 9 43 16 128 18 l52 2 0 -130z m228 116 c10 -11 -27 -106 -64
-163 -30 -47 -75 -83 -104 -83 -6 0 -10 46 -10 131 l0 132 86 -6 c47 -2 88 -8
92 -11z m-423 -90 c19 -44 48 -97 65 -118 17 -21 28 -38 25 -38 -3 0 -41 17
-83 37 -86 42 -204 144 -187 162 12 12 113 41 133 38 7 -1 28 -38 47 -81z
m587 58 c57 -19 55 -29 -19 -93 -47 -40 -170 -111 -192 -111 -6 0 3 23 20 50
26 43 48 92 74 168 5 15 37 11 117 -14z"/>
<path d="M270 395 c0 -85 2 -95 18 -95 15 0 17 6 14 35 -4 33 -2 35 25 35 42
0 73 26 73 60 0 38 -32 60 -87 60 l-43 0 0 -95z m90 50 c10 -12 10 -18 0 -30
-21 -25 -54 -15 -58 18 -3 23 0 27 21 27 14 0 30 -7 37 -15z"/>
<path d="M425 408 c-15 -46 -30 -89 -32 -95 -3 -8 3 -13 15 -13 11 0 22 8 25
20 4 15 14 20 42 20 28 0 38 -5 42 -20 3 -12 14 -20 25 -20 12 0 18 5 16 13
-3 6 -17 49 -32 95 -24 70 -31 82 -50 82 -19 0 -27 -12 -51 -82z m74 -30 c1
-5 -11 -8 -25 -8 -20 0 -25 4 -20 16 3 9 9 28 13 42 l6 27 13 -35 c7 -19 13
-38 13 -42z"/>
<path d="M596 474 c-33 -32 -15 -69 43 -94 36 -15 43 -50 10 -50 -11 0 -30 5
-41 11 -31 17 -45 -5 -17 -25 30 -20 68 -20 97 0 42 29 27 55 -64 110 -15 10
-17 14 -6 25 9 10 19 11 41 2 40 -15 60 -1 30 21 -30 20 -73 21 -93 0z"/>
<path d="M745 466 c-22 -33 -7 -59 46 -87 22 -11 39 -25 36 -32 -5 -17 -45
-21 -62 -7 -8 7 -23 9 -32 5 -16 -6 -16 -8 6 -26 28 -23 84 -25 106 -3 28 29
15 66 -32 92 -24 13 -43 28 -43 33 0 17 32 23 53 10 28 -18 48 3 21 24 -31 23
-81 19 -99 -9z"/>
<path d="M890 395 c0 -78 3 -95 15 -95 10 0 15 11 15 35 0 33 2 35 33 35 40 0
67 25 67 63 0 35 -34 57 -87 57 l-43 0 0 -95z m90 50 c17 -20 -3 -45 -36 -45
-20 0 -24 5 -24 30 0 25 4 30 24 30 13 0 29 -7 36 -15z"/>
<path d="M1064 467 c-38 -33 -40 -104 -5 -141 40 -43 111 -35 136 15 19 36 19
72 0 108 -24 48 -86 56 -131 18z m90 -23 c34 -33 11 -114 -31 -114 -26 0 -53
31 -53 59 0 57 50 90 84 55z"/>
<path d="M1238 395 c-3 -85 -1 -95 15 -95 13 0 17 9 17 41 0 50 15 48 49 -4
14 -21 33 -37 43 -37 20 0 19 4 -13 51 -17 24 -17 26 2 37 27 17 25 67 -3 86
-12 9 -41 16 -65 16 l-42 0 -3 -95z m92 50 c17 -20 4 -35 -31 -35 -24 0 -29 4
-29 25 0 20 5 25 24 25 13 0 29 -7 36 -15z"/>
<path d="M1390 475 c0 -9 9 -15 25 -15 25 0 25 -1 25 -80 0 -73 2 -80 20 -80
18 0 20 7 20 80 0 79 0 80 25 80 16 0 25 6 25 15 0 12 -14 15 -70 15 -56 0
-70 -3 -70 -15z"/>
</g>
</svg>
