<?xml version="1.0" standalone="no"?>
<!DOCTYPE svg PUBLIC "-//W3C//DTD SVG 20010904//EN"
 "http://www.w3.org/TR/2001/REC-SVG-20010904/DTD/svg10.dtd">
<svg version="1.0" xmlns="http://www.w3.org/2000/svg"
 width="217.000000pt" height="150.000000pt" viewBox="0 0 217.000000 150.000000"
 preserveAspectRatio="xMidYMid meet">
<metadata>
Created by potrace 1.16, written by Peter Selinger 2001-2019
</metadata>
<g transform="translate(0.000000,150.000000) scale(0.100000,-0.100000)"
fill="#000000" stroke="none">
<path d="M281 1489 c-139 -15 -141 -17 -141 -88 l0 -60 -67 -3 -68 -3 0 -650
0 -650 500 -5 c408 -4 506 -8 532 -20 28 -12 38 -12 75 0 34 11 145 15 545 17
l503 3 5 23 c3 12 4 305 3 652 l-3 630 -72 3 -72 3 1 55 c1 30 -3 59 -8 64
-16 16 -115 29 -259 36 -220 10 -434 -37 -600 -131 l-76 -43 -66 39 c-78 45
-208 94 -308 115 -89 19 -302 26 -424 13z m484 -73 c87 -26 196 -74 263 -115
l32 -21 0 -603 0 -603 -102 51 c-118 58 -231 90 -373 106 -98 11 -263 6 -352
-11 l-43 -7 0 608 0 608 48 6 c26 4 52 8 57 11 6 2 93 2 195 0 166 -3 194 -6
275 -30z m1183 18 l32 -6 0 -606 0 -605 -52 6 c-296 34 -505 5 -718 -100 -52
-26 -98 -49 -103 -51 -4 -2 -6 270 -5 604 l3 608 55 33 c74 45 197 91 300 114
72 16 114 18 270 14 102 -2 200 -7 218 -11z m-1808 -701 c0 -399 3 -562 11
-565 6 -2 48 2 92 9 113 17 318 16 418 -2 92 -16 203 -51 264 -83 l40 -21
-462 -1 -463 0 0 608 c0 335 2 611 4 613 2 2 25 4 50 4 l46 0 0 -562z m1980
-50 l0 -613 -457 0 c-262 0 -453 4 -448 9 16 14 139 60 223 84 68 19 100 21
282 19 113 -1 228 -3 255 -4 l50 -3 2 560 c2 308 3 560 3 560 0 0 20 0 45 0
l45 0 0 -612z"/>
</g>
</svg>
