<?xml version="1.0" standalone="no"?>
<!DOCTYPE svg PUBLIC "-//W3C//DTD SVG 20010904//EN"
 "http://www.w3.org/TR/2001/REC-SVG-20010904/DTD/svg10.dtd">
<svg version="1.0" xmlns="http://www.w3.org/2000/svg"
 width="208.000000pt" height="215.000000pt" viewBox="0 0 208.000000 215.000000"
 preserveAspectRatio="xMidYMid meet">
<metadata>
Created by potrace 1.16, written by Peter Selinger 2001-2019
</metadata>
<g transform="translate(0.000000,215.000000) scale(0.100000,-0.100000)"
fill="#000000" stroke="none">
<path d="M403 2126 c-25 -21 -28 -31 -31 -100 l-4 -76 -130 0 c-156 0 -191
-12 -219 -74 -18 -39 -19 -86 -19 -904 0 -977 -5 -918 76 -954 41 -18 80 -18
981 -16 886 3 939 4 965 21 60 41 58 2 58 957 0 775 -2 876 -16 905 -29 61
-53 69 -205 73 l-137 4 -4 70 c-3 62 -7 73 -31 94 -38 32 -86 32 -117 -1 -20
-21 -25 -39 -28 -95 l-4 -70 -494 0 -494 0 0 64 c0 55 -4 69 -26 95 -33 39
-80 42 -121 7z m78 -26 c18 -10 19 -23 19 -170 0 -149 -1 -160 -20 -170 -14
-8 -26 -8 -40 0 -19 10 -20 21 -20 168 0 180 7 200 61 172z m1170 0 c18 -10
19 -23 19 -171 l0 -159 -25 -12 c-19 -8 -28 -8 -40 2 -12 10 -15 41 -15 169 0
179 7 199 61 171z m-1279 -265 c4 -90 29 -125 88 -125 60 0 84 35 88 126 l4
74 493 0 493 0 4 -74 c4 -91 28 -126 88 -126 60 0 84 35 88 126 l4 74 132 0
c129 0 133 -1 157 -26 23 -24 24 -32 27 -185 l4 -159 -996 0 -996 0 0 154 c0
215 -2 213 206 214 l112 0 4 -73z m1663 -1038 l0 -699 -28 -24 -28 -24 -938 0
c-934 0 -938 0 -965 21 l-26 20 0 705 0 704 993 -2 992 -3 0 -698z"/>
<path d="M523 1110 c-55 -28 -83 -74 -83 -134 0 -87 34 -122 175 -181 117 -48
155 -102 125 -179 -25 -67 -150 -90 -211 -39 -17 15 -38 41 -45 58 -11 28 -17
31 -44 27 -26 -4 -30 -8 -24 -26 31 -101 118 -155 228 -142 107 12 166 70 166
163 0 103 -37 143 -185 204 -98 40 -125 65 -125 114 0 104 167 139 225 48 19
-31 60 -45 78 -27 12 12 -37 85 -71 106 -52 32 -155 36 -209 8z"/>
<path d="M1045 1108 c-5 -14 -178 -550 -189 -585 -7 -20 -4 -23 22 -23 29 0
32 4 60 88 l29 87 119 0 118 0 27 -85 c25 -83 27 -85 59 -88 28 -3 32 -1 28
15 -3 10 -47 150 -99 311 l-93 292 -38 0 c-22 0 -41 -5 -43 -12z m90 -210 c25
-81 45 -150 45 -155 0 -8 -190 -12 -190 -3 0 10 94 310 96 307 2 -2 24 -69 49
-149z"/>
<path d="M1288 1090 l-5 -30 84 0 83 0 0 -280 0 -280 30 0 30 0 0 280 0 280
83 0 83 0 -2 28 -1 27 -190 3 -191 2 -4 -30z"/>
</g>
</svg>
