<?xml version="1.0" standalone="no"?>
<!DOCTYPE svg PUBLIC "-//W3C//DTD SVG 20010904//EN"
 "http://www.w3.org/TR/2001/REC-SVG-20010904/DTD/svg10.dtd">
<svg version="1.0" xmlns="http://www.w3.org/2000/svg"
 width="206.000000pt" height="214.000000pt" viewBox="0 0 206.000000 214.000000"
 preserveAspectRatio="xMidYMid meet">
<metadata>
Created by potrace 1.16, written by Peter Selinger 2001-2019
</metadata>
<g transform="translate(0.000000,214.000000) scale(0.100000,-0.100000)"
fill="#000000" stroke="none">
<path d="M540 1739 c-266 -220 -497 -411 -513 -424 -50 -38 -32 -55 58 -55
l75 0 2 -627 3 -628 867 -3 868 -2 5 22 c3 13 4 296 3 630 l-3 607 75 3 c58 2
75 6 78 19 2 10 -143 135 -409 355 -227 186 -457 376 -512 422 -55 45 -103 82
-107 82 -4 0 -224 -180 -490 -401z m970 -46 l459 -378 -52 -5 -52 -5 -3 -633
-2 -632 -150 0 -150 0 0 218 c0 297 -17 369 -108 473 -50 56 -137 104 -216
118 -72 13 -330 14 -407 2 -150 -25 -264 -132 -305 -286 -10 -35 -14 -121 -14
-287 l0 -238 -150 0 -150 0 -2 633 -3 632 -58 3 -58 3 28 22 c15 12 225 185
467 385 266 221 444 361 452 358 8 -3 221 -175 474 -383z m-200 -914 c69 -33
133 -97 168 -169 27 -55 27 -56 30 -313 l3 -257 -476 2 -476 3 1 248 c1 301 7
326 104 422 90 90 112 95 376 92 209 -2 217 -3 270 -28z"/>
<path d="M915 1466 c-214 -101 -209 -408 9 -507 61 -28 167 -26 231 5 209 99
211 397 3 500 -71 35 -171 36 -243 2z m243 -53 c28 -17 59 -48 77 -78 26 -42
30 -58 30 -120 0 -62 -4 -78 -30 -121 -19 -30 -49 -60 -80 -79 -42 -26 -58
-30 -120 -30 -62 0 -78 4 -121 30 -65 41 -104 105 -111 184 -17 187 193 314
355 214z"/>
</g>
</svg>
