<?xml version="1.0" standalone="no"?>
<!DOCTYPE svg PUBLIC "-//W3C//DTD SVG 20010904//EN"
 "http://www.w3.org/TR/2001/REC-SVG-20010904/DTD/svg10.dtd">
<svg version="1.0" xmlns="http://www.w3.org/2000/svg"
 width="200.000000pt" height="154.000000pt" viewBox="0 0 200.000000 154.000000"
 preserveAspectRatio="xMidYMid meet">
<metadata>
Created by potrace 1.16, written by Peter Selinger 2001-2019
</metadata>
<g transform="translate(0.000000,154.000000) scale(0.100000,-0.100000)"
fill="#000000" stroke="none">
<path d="M1420 1526 c-179 -39 -309 -183 -372 -411 -20 -72 -22 -104 -22 -330
0 -219 2 -262 21 -348 64 -294 244 -450 502 -435 196 11 358 164 416 393 39
152 44 514 11 680 -51 254 -192 417 -391 454 -71 13 -94 13 -165 -3z m260 -70
c65 -34 145 -114 182 -182 15 -27 38 -90 53 -138 49 -171 52 -563 5 -734 -42
-153 -125 -268 -234 -325 -58 -30 -67 -32 -171 -32 -105 0 -114 2 -177 33
-185 91 -277 324 -278 702 0 287 58 480 182 604 88 88 140 107 278 103 92 -3
112 -6 160 -31z"/>
<path d="M1414 1301 c-69 -31 -120 -115 -150 -246 -15 -63 -19 -121 -19 -280
0 -290 27 -408 114 -495 90 -89 205 -93 296 -9 89 82 119 204 118 489 0 217
-12 310 -51 402 -26 58 -87 127 -129 145 -46 19 -131 16 -179 -6z m145 -31
c68 -19 118 -88 147 -202 22 -87 31 -418 14 -529 -28 -197 -87 -280 -200 -281
-67 0 -118 27 -157 85 -48 72 -65 163 -71 374 -8 340 39 508 153 548 48 17 70
18 114 5z"/>
<path d="M97 1503 c-11 -11 -8 -211 3 -218 6 -4 109 -6 230 -5 121 0 220 -2
220 -5 0 -3 -65 -92 -145 -199 l-146 -194 3 -78 3 -79 120 -10 c181 -16 251
-58 274 -165 22 -102 8 -171 -46 -231 -66 -73 -179 -87 -271 -33 -42 25 -102
95 -102 119 0 20 -25 25 -125 25 -112 0 -118 -4 -105 -82 26 -160 149 -293
309 -334 82 -21 232 -15 311 12 123 42 225 137 271 253 30 78 38 250 15 341
-38 146 -145 257 -281 291 -27 7 -52 14 -53 15 -2 1 45 60 105 131 195 230
203 243 203 352 0 112 42 101 -399 101 -213 0 -391 -3 -394 -7z m753 -91 c0
-84 -28 -131 -195 -327 -80 -93 -145 -175 -145 -181 0 -6 28 -16 62 -22 212
-40 329 -200 315 -437 -13 -240 -160 -387 -403 -402 -183 -12 -335 68 -399
211 -13 28 -27 68 -30 89 l-7 37 76 0 c73 0 76 -1 90 -29 26 -49 104 -110 164
-127 104 -31 204 -3 275 75 45 50 60 106 55 201 -10 164 -104 244 -302 257
l-96 6 0 58 0 57 156 207 c93 124 153 212 150 221 -4 12 -46 14 -246 14 l-240
0 0 75 0 75 360 0 360 0 0 -58z"/>
</g>
</svg>
