<?xml version="1.0" standalone="no"?>
<!DOCTYPE svg PUBLIC "-//W3C//DTD SVG 20010904//EN"
 "http://www.w3.org/TR/2001/REC-SVG-20010904/DTD/svg10.dtd">
<svg version="1.0" xmlns="http://www.w3.org/2000/svg"
 width="165.000000pt" height="195.000000pt" viewBox="0 0 165.000000 195.000000"
 preserveAspectRatio="xMidYMid meet">
<metadata>
Created by potrace 1.16, written by Peter Selinger 2001-2019
</metadata>
<g transform="translate(0.000000,195.000000) scale(0.100000,-0.100000)"
fill="#000000" stroke="none">
<path d="M10 1935 c-11 -13 -10 -44 3 -168 80 -750 178 -1650 182 -1685 4 -24
15 -51 28 -62 20 -19 37 -20 594 -20 l573 0 30 28 30 27 35 315 c18 173 64
593 101 932 56 512 65 619 55 632 -12 14 -99 16 -816 16 -710 0 -804 -2 -815
-15z m1600 -42 c0 -23 -61 -560 -64 -570 -6 -15 -145 -59 -228 -73 -148 -24
-291 -4 -509 70 -80 28 -177 57 -215 65 -132 28 -318 14 -445 -35 l-47 -17 -6
41 c-7 46 -56 501 -56 516 0 6 290 10 785 10 432 0 785 -3 785 -7z m-1033
-548 c37 -8 142 -39 233 -69 91 -30 194 -60 230 -65 142 -23 306 -9 444 39 39
13 56 15 56 7 0 -7 -5 -50 -10 -97 -5 -47 -32 -296 -60 -555 -27 -259 -52
-484 -55 -502 -12 -66 20 -63 -589 -63 -455 0 -556 2 -571 14 -17 12 -26 78
-82 592 -34 319 -62 595 -63 615 l0 36 73 22 c148 44 273 52 394 26z"/>
</g>
</svg>
