<?xml version="1.0" standalone="no"?>
<!DOCTYPE svg PUBLIC "-//W3C//DTD SVG 20010904//EN"
 "http://www.w3.org/TR/2001/REC-SVG-20010904/DTD/svg10.dtd">
<svg version="1.0" xmlns="http://www.w3.org/2000/svg"
 width="188.000000pt" height="244.000000pt" viewBox="0 0 188.000000 244.000000"
 preserveAspectRatio="xMidYMid meet">
<metadata>
Created by potrace 1.16, written by Peter Selinger 2001-2019
</metadata>
<g transform="translate(0.000000,244.000000) scale(0.100000,-0.100000)"
fill="#000000" stroke="none">
<path d="M810 2379 c-144 -73 -268 -119 -345 -127 l-60 -7 -40 -81 c-22 -45
-55 -104 -73 -132 -22 -34 -31 -58 -27 -71 6 -20 87 -100 119 -118 19 -11 33
-63 43 -159 4 -47 3 -51 -22 -62 -33 -15 -55 -67 -55 -132 0 -87 47 -166 116
-195 24 -10 32 -21 37 -47 9 -56 47 -126 99 -184 48 -52 50 -55 43 -96 -12
-70 -54 -100 -190 -137 -177 -48 -326 -154 -393 -279 -51 -96 -63 -168 -60
-365 3 -164 4 -172 23 -172 19 0 20 9 26 205 6 228 12 255 77 350 46 66 153
150 231 180 51 20 186 61 186 57 0 -1 15 -31 32 -67 32 -63 126 -190 141 -190
5 0 50 25 101 55 51 30 95 55 97 55 2 0 5 -147 6 -327 3 -320 3 -328 23 -328
20 0 20 5 16 317 -1 174 0 321 3 327 4 5 44 -13 95 -45 48 -30 93 -54 99 -54
17 0 131 155 155 210 11 25 21 46 22 48 6 7 183 -52 233 -77 72 -37 150 -106
192 -171 57 -89 71 -154 79 -360 5 -165 8 -185 24 -188 16 -3 17 11 17 180 0
194 -10 258 -51 341 -55 108 -161 208 -275 258 -27 11 -89 31 -137 43 -54 14
-105 35 -132 54 -38 27 -44 36 -50 81 -7 50 -6 52 38 102 47 53 93 138 103
187 4 22 16 33 45 46 105 46 133 221 49 305 -24 24 -30 38 -30 75 0 24 4 48
10 51 5 3 12 28 16 54 5 41 11 51 38 63 42 21 126 96 126 114 0 8 -17 36 -37
63 -21 27 -57 82 -79 123 -23 40 -52 79 -65 85 -13 6 -84 28 -157 47 -132 35
-278 95 -329 135 -14 12 -28 20 -32 20 -3 -1 -58 -28 -121 -60z m165 -18 c76
-48 243 -109 390 -141 62 -14 76 -26 124 -115 22 -40 52 -87 68 -105 l27 -33
-34 -29 c-65 -55 -81 -60 -152 -44 -97 22 -422 40 -608 32 -153 -5 -334 -25
-371 -40 -11 -5 -32 8 -65 37 l-48 44 32 49 c17 27 45 79 61 116 l30 66 58 10
c81 14 210 63 333 126 58 29 106 54 107 55 1 0 23 -12 48 -28z m283 -491 c163
-14 169 -17 164 -69 -4 -37 -7 -42 -41 -51 -177 -47 -623 -60 -794 -22 -128
28 -137 33 -137 82 0 46 -2 45 135 60 200 21 431 21 673 0z m-678 -186 c143
-33 519 -28 738 10 l72 12 0 -47 c0 -43 4 -51 35 -74 39 -31 55 -85 44 -150
-7 -41 -38 -75 -97 -107 -23 -12 -34 -28 -42 -60 -40 -147 -172 -264 -337
-299 -113 -23 -256 25 -347 118 -57 57 -74 88 -95 167 -15 56 -19 61 -66 85
-62 32 -86 73 -88 144 -1 62 20 104 55 109 21 3 23 8 23 61 0 53 2 58 20 52
11 -3 49 -13 85 -21z m612 -736 c4 -37 1 -47 -24 -74 -32 -34 -145 -104 -202
-125 -37 -13 -40 -13 -123 31 -47 25 -103 60 -125 79 -38 32 -40 37 -34 75 8
48 11 52 28 38 7 -5 41 -20 75 -31 112 -38 253 -25 359 33 41 21 41 21 46 -26z
m87 -144 c-24 -65 -111 -194 -130 -194 -12 0 -158 83 -158 90 0 3 36 25 80 50
45 24 100 61 122 81 l42 36 26 -20 c23 -16 26 -24 18 -43z m-593 19 c25 -20
81 -55 126 -78 l80 -42 -76 -47 c-42 -25 -81 -46 -86 -46 -14 0 -99 118 -123
169 l-19 44 23 18 c13 10 25 19 27 19 2 0 24 -17 48 -37z"/>
<path d="M923 2228 c-5 -7 -15 -28 -23 -45 -9 -26 -18 -33 -39 -33 -40 0 -71
-11 -71 -24 0 -7 14 -25 31 -42 28 -27 30 -33 24 -75 -8 -60 5 -68 54 -36 l38
25 42 -24 c24 -13 47 -21 53 -18 5 3 6 28 3 58 -7 50 -5 54 24 79 47 39 41 57
-20 57 -50 0 -50 0 -70 45 -21 47 -30 53 -46 33z m58 -118 c21 0 25 -15 8 -26
-6 -3 -9 -19 -7 -35 5 -33 7 -33 -27 -17 -19 9 -28 9 -37 0 -20 -20 -29 -14
-22 13 4 18 1 32 -11 45 -18 19 -17 20 8 20 18 0 28 7 33 22 l7 23 15 -23 c8
-12 23 -22 33 -22z"/>
<path d="M1215 380 c-13 -22 -5 -221 10 -250 21 -40 93 -99 131 -106 41 -8 62
-1 114 37 64 47 81 96 78 221 l-3 103 -162 3 c-108 2 -164 -1 -168 -8z m294
-87 c-1 -103 -14 -144 -57 -185 -47 -44 -78 -48 -127 -18 -54 34 -68 65 -73
163 l-4 87 131 0 131 0 -1 -47z"/>
<path d="M375 248 c-3 -8 -4 -66 -3 -129 3 -106 4 -114 23 -114 19 0 20 7 20
125 0 111 -2 125 -18 128 -9 2 -19 -3 -22 -10z"/>
</g>
</svg>
