<?xml version="1.0" standalone="no"?>
<!DOCTYPE svg PUBLIC "-//W3C//DTD SVG 20010904//EN"
 "http://www.w3.org/TR/2001/REC-SVG-20010904/DTD/svg10.dtd">
<svg version="1.0" xmlns="http://www.w3.org/2000/svg"
 width="220.000000pt" height="117.000000pt" viewBox="0 0 220.000000 117.000000"
 preserveAspectRatio="xMidYMid meet">
<metadata>
Created by potrace 1.16, written by Peter Selinger 2001-2019
</metadata>
<g transform="translate(0.000000,117.000000) scale(0.100000,-0.100000)"
fill="#000000" stroke="none">
<path d="M453 1155 c-203 -44 -395 -238 -438 -442 -54 -256 69 -529 292 -646
226 -118 504 -77 682 102 36 36 75 83 86 104 11 20 22 37 25 37 3 -1 26 -32
53 -70 200 -293 655 -322 893 -57 211 235 202 589 -20 812 -162 162 -377 214
-588 141 -125 -44 -253 -146 -312 -248 -11 -21 -24 -38 -27 -38 -4 0 -13 15
-20 33 -19 46 -164 187 -226 220 -114 60 -269 80 -400 52z m245 -40 c35 -8 89
-27 120 -42 73 -35 199 -159 234 -230 25 -50 25 -53 11 -105 -21 -76 -21 -230
0 -300 17 -56 17 -59 -3 -101 -54 -114 -178 -224 -301 -266 -311 -107 -636 80
-704 404 -18 88 -18 132 0 218 44 207 211 377 415 421 86 19 151 19 228 1z
m1041 0 c96 -23 177 -70 256 -150 188 -188 214 -470 64 -695 -157 -235 -491
-301 -728 -143 -71 46 -141 120 -175 183 l-27 50 15 92 c20 116 20 179 0 272
l-17 74 27 48 c91 168 277 277 481 283 22 0 69 -6 104 -14z m-624 -591 c-5
-51 -9 -64 -17 -51 -11 21 -12 195 -1 223 13 32 26 -95 18 -172z"/>
</g>
</svg>
