<?xml version="1.0" standalone="no"?>
<!DOCTYPE svg PUBLIC "-//W3C//DTD SVG 20010904//EN"
 "http://www.w3.org/TR/2001/REC-SVG-20010904/DTD/svg10.dtd">
<svg version="1.0" xmlns="http://www.w3.org/2000/svg"
 width="134.000000pt" height="183.000000pt" viewBox="0 0 134.000000 183.000000"
 preserveAspectRatio="xMidYMid meet">
<metadata>
Created by potrace 1.16, written by Peter Selinger 2001-2019
</metadata>
<g transform="translate(0.000000,183.000000) scale(0.100000,-0.100000)"
fill="#000000" stroke="none">
<path d="M875 1824 c-278 -35 -439 -101 -592 -247 -122 -116 -205 -249 -255
-407 -21 -67 -23 -94 -23 -260 0 -183 1 -186 33 -280 74 -214 189 -364 374
-486 234 -156 547 -188 819 -83 77 30 121 62 103 78 -5 4 -36 13 -69 20 -197
42 -402 188 -522 373 -136 211 -180 513 -108 753 51 172 165 348 295 454 69
56 74 85 15 87 -22 1 -53 0 -70 -2z m-20 -95 c-165 -156 -273 -376 -294 -596
-16 -178 12 -362 78 -508 98 -215 309 -408 531 -485 l82 -28 -83 -27 c-153
-48 -338 -52 -500 -10 -184 48 -366 177 -479 341 -164 238 -199 558 -90 827
47 114 90 177 190 277 145 145 277 210 508 249 59 10 108 17 110 15 2 -1 -22
-26 -53 -55z"/>
</g>
</svg>
