<?xml version="1.0" standalone="no"?>
<!DOCTYPE svg PUBLIC "-//W3C//DTD SVG 20010904//EN"
 "http://www.w3.org/TR/2001/REC-SVG-20010904/DTD/svg10.dtd">
<svg version="1.0" xmlns="http://www.w3.org/2000/svg"
 width="221.000000pt" height="188.000000pt" viewBox="0 0 221.000000 188.000000"
 preserveAspectRatio="xMidYMid meet">
<metadata>
Created by potrace 1.16, written by Peter Selinger 2001-2019
</metadata>
<g transform="translate(0.000000,188.000000) scale(0.100000,-0.100000)"
fill="#000000" stroke="none">
<path d="M1050 1833 c-55 -65 -120 -195 -120 -242 0 -21 12 -62 28 -92 32 -64
92 -102 154 -97 34 3 37 1 41 -27 3 -16 2 -79 -1 -138 l-5 -108 -41 3 -41 3 0
119 c0 106 -2 119 -17 122 -16 2 -18 -9 -18 -121 l0 -124 -357 -3 c-402 -3
-392 -2 -457 -81 l-31 -39 -3 -485 -3 -484 -89 3 c-50 2 -90 0 -90 -4 0 -3 3
-13 6 -22 6 -14 112 -16 1106 -16 999 0 1100 1 1094 16 -3 9 -6 18 -6 20 0 2
-40 4 -90 4 l-89 0 -3 479 -3 479 -30 44 c-17 23 -49 53 -70 65 -39 22 -46 23
-382 23 l-343 0 0 149 c0 117 3 150 14 154 7 3 25 29 40 58 32 65 34 135 5
199 -27 59 -126 190 -143 190 -8 0 -33 -21 -56 -47z m113 -81 c56 -76 71 -119
64 -185 -4 -44 -10 -56 -47 -90 -38 -36 -46 -39 -82 -34 -48 6 -84 37 -110 95
-21 47 -18 82 12 142 28 54 103 151 111 143 3 -5 27 -36 52 -71z m735 -685
c66 -36 72 -58 72 -281 0 -177 -2 -197 -16 -192 -9 3 -21 6 -27 6 -7 0 -50 22
-97 50 -112 66 -135 66 -266 -1 -119 -61 -134 -61 -271 8 -85 42 -97 45 -144
40 -36 -5 -70 -18 -113 -46 -108 -70 -151 -74 -225 -21 -112 82 -176 90 -261
34 -126 -84 -186 -84 -303 -2 l-27 19 0 142 c0 115 3 148 18 176 20 41 57 70
103 81 19 5 369 8 779 7 697 -2 747 -3 778 -20z m-1121 -462 c63 -33 96 -45
129 -45 32 0 65 12 128 45 115 61 155 61 269 3 69 -36 91 -43 143 -43 53 0 68
5 125 40 58 36 70 40 129 40 58 0 72 -5 127 -39 34 -21 80 -40 103 -43 l40 -6
0 -258 0 -259 -872 2 -873 3 -3 292 -2 292 55 -29 c103 -54 169 -50 274 16 78
48 118 47 228 -11z"/>
</g>
</svg>
