<?xml version="1.0" standalone="no"?>
<!DOCTYPE svg PUBLIC "-//W3C//DTD SVG 20010904//EN"
 "http://www.w3.org/TR/2001/REC-SVG-20010904/DTD/svg10.dtd">
<svg version="1.0" xmlns="http://www.w3.org/2000/svg"
 width="205.000000pt" height="188.000000pt" viewBox="0 0 205.000000 188.000000"
 preserveAspectRatio="xMidYMid meet">
<metadata>
Created by potrace 1.16, written by Peter Selinger 2001-2019
</metadata>
<g transform="translate(0.000000,188.000000) scale(0.100000,-0.100000)"
fill="#000000" stroke="none">
<path d="M428 1864 c-38 -20 -48 -43 -48 -108 l0 -56 -117 0 c-166 -1 -227
-32 -253 -131 -7 -25 -10 -282 -8 -742 l3 -703 27 -41 c16 -24 44 -49 70 -62
44 -21 48 -21 924 -21 832 0 881 1 919 19 48 22 69 44 90 94 13 32 15 128 15
734 -1 737 -1 744 -47 795 -38 44 -90 58 -215 58 l-118 0 0 44 c0 67 -16 102
-57 122 -28 12 -45 14 -71 8 -48 -12 -70 -47 -74 -114 l-3 -55 -443 -3 -442
-2 0 49 c0 62 -16 98 -51 117 -35 18 -66 17 -101 -2z m100 -51 c8 -11 12 -54
12 -127 0 -122 -10 -146 -61 -146 -51 0 -59 19 -59 150 0 112 1 120 23 135 25
18 66 12 85 -12z m1090 0 c19 -26 16 -222 -4 -251 -16 -24 -53 -29 -85 -12
-17 10 -19 22 -19 135 0 117 1 125 23 140 25 18 66 12 85 -12z m-1238 -198 c0
-51 20 -99 45 -109 9 -3 36 -6 59 -6 60 0 88 32 94 105 l4 55 442 -2 c384 -3
441 -5 442 -18 1 -8 2 -31 2 -51 3 -55 40 -89 96 -89 68 0 98 30 104 104 l5
58 123 -4 c105 -3 127 -6 151 -24 53 -39 63 -74 63 -231 l0 -143 -985 0 -985
0 0 138 c0 123 2 143 23 182 33 67 67 80 205 80 l112 0 0 -45z m1628 -940 l-3
-540 -24 -34 c-46 -64 -4 -61 -958 -61 -984 0 -916 -6 -960 80 -23 44 -23 45
-23 565 0 287 2 524 4 526 3 2 446 4 985 4 l981 0 -2 -540z"/>
<path d="M433 875 c-58 -25 -100 -125 -53 -125 13 0 24 10 31 27 16 44 39 63
75 63 47 0 63 -9 80 -42 29 -57 13 -90 -102 -208 -84 -86 -104 -112 -104 -136
l0 -29 140 0 c139 0 140 0 140 23 0 21 -3 22 -112 22 l-111 0 95 98 c62 64 99
111 108 136 40 123 -69 223 -187 171z"/>
<path d="M803 883 c-71 -14 -119 -122 -111 -252 9 -146 64 -216 165 -208 107
8 148 72 148 232 0 85 -4 107 -24 149 -33 68 -95 95 -178 79z m112 -67 c30
-30 45 -85 45 -166 -1 -106 -34 -173 -91 -185 -73 -16 -129 61 -129 180 0 133
35 195 110 195 30 0 47 -6 65 -24z"/>
<path d="M1145 876 c-42 -19 -73 -56 -77 -91 -2 -24 1 -31 18 -33 16 -2 23 4
28 23 22 88 143 87 170 -2 12 -38 -22 -94 -118 -192 -58 -59 -95 -106 -98
-123 l-5 -27 143 -3 c144 -3 144 -3 144 20 0 22 -2 22 -114 22 l-114 0 84 82
c82 80 134 159 134 202 0 12 -9 39 -19 62 -28 63 -109 90 -176 60z"/>
<path d="M1490 728 c-66 -101 -100 -162 -100 -180 l0 -28 105 0 105 0 0 -48
c0 -41 3 -48 20 -48 17 0 20 7 20 48 0 47 1 48 30 48 25 0 30 4 30 25 0 21 -5
25 -30 25 l-30 0 0 155 0 155 -25 0 c-22 0 -40 -22 -125 -152z m110 -38 l0
-120 -79 0 -80 0 76 120 c42 66 78 120 80 120 2 0 3 -54 3 -120z"/>
</g>
</svg>
