<?xml version="1.0" standalone="no"?>
<!DOCTYPE svg PUBLIC "-//W3C//DTD SVG 20010904//EN"
 "http://www.w3.org/TR/2001/REC-SVG-20010904/DTD/svg10.dtd">
<svg version="1.0" xmlns="http://www.w3.org/2000/svg"
 width="155.000000pt" height="158.000000pt" viewBox="0 0 155.000000 158.000000"
 preserveAspectRatio="xMidYMid meet">
<metadata>
Created by potrace 1.16, written by Peter Selinger 2001-2019
</metadata>
<g transform="translate(0.000000,158.000000) scale(0.100000,-0.100000)"
fill="#000000" stroke="none">
<path d="M785 1547 c-29 -29 -35 -42 -35 -78 0 -65 -26 -161 -61 -232 -24 -47
-60 -90 -153 -180 -66 -65 -131 -122 -144 -128 -13 -5 -99 -9 -192 -9 -140 0
-171 -3 -184 -16 -14 -13 -16 -65 -16 -419 0 -385 1 -405 19 -414 11 -6 104
-9 232 -8 177 2 224 -1 269 -15 132 -40 213 -48 509 -48 313 0 331 3 374 62
27 37 34 116 13 156 -15 30 -15 32 5 46 55 38 78 136 45 195 -13 23 -12 27 11
45 53 41 70 144 33 204 -20 32 -20 32 0 52 42 42 53 129 24 180 -36 60 -56 64
-324 71 -135 4 -246 7 -247 8 -1 0 9 27 22 59 63 156 70 298 19 399 -36 70
-68 94 -133 101 -47 4 -53 2 -86 -31z m125 -32 c101 -52 102 -260 3 -472 -31
-66 0 -75 294 -82 238 -6 242 -6 267 -30 35 -33 35 -89 2 -128 l-24 -28 -194
-5 c-185 -5 -193 -6 -193 -25 0 -19 8 -20 188 -25 183 -5 189 -6 208 -29 33
-41 17 -138 -26 -155 -9 -3 -90 -6 -180 -6 -90 0 -170 -3 -179 -6 -19 -7 -22
-43 -3 -46 6 -1 81 -2 165 -2 149 -1 154 -2 173 -25 26 -32 26 -100 -1 -129
-27 -29 -43 -32 -205 -35 -133 -2 -140 -3 -140 -22 0 -19 8 -20 137 -23 134
-3 137 -3 157 -29 37 -46 21 -122 -30 -149 -22 -11 -83 -14 -296 -14 -277 1
-310 4 -560 56 l-83 17 0 379 c0 330 2 378 15 378 22 0 258 223 300 284 46 67
85 179 92 267 5 55 10 73 27 84 26 19 50 19 86 0z m-570 -1019 l0 -373 -52 -7
c-29 -3 -95 -6 -145 -6 l-93 0 0 380 0 380 145 0 145 0 0 -374z"/>
</g>
</svg>
