<?xml version="1.0" standalone="no"?>
<!DOCTYPE svg PUBLIC "-//W3C//DTD SVG 20010904//EN"
 "http://www.w3.org/TR/2001/REC-SVG-20010904/DTD/svg10.dtd">
<svg version="1.0" xmlns="http://www.w3.org/2000/svg"
 width="214.000000pt" height="166.000000pt" viewBox="0 0 214.000000 166.000000"
 preserveAspectRatio="xMidYMid meet">
<metadata>
Created by potrace 1.16, written by Peter Selinger 2001-2019
</metadata>
<g transform="translate(0.000000,166.000000) scale(0.100000,-0.100000)"
fill="#000000" stroke="none">
<path d="M1052 1483 c3 -170 4 -178 23 -178 19 0 20 7 20 175 0 174 0 175 -23
178 l-22 3 2 -178z"/>
<path d="M333 1354 c-4 -11 23 -45 88 -112 141 -144 130 -135 148 -117 14 14
4 27 -99 130 -63 63 -118 115 -123 115 -4 0 -10 -7 -14 -16z"/>
<path d="M1681 1256 c-80 -80 -112 -119 -108 -130 4 -9 10 -16 14 -16 17 0
245 238 239 249 -14 22 -34 9 -145 -103z"/>
<path d="M965 1160 c-322 -65 -529 -386 -460 -714 16 -75 26 -92 48 -83 13 5
13 14 0 69 -21 88 -13 253 16 333 44 123 147 242 261 300 157 80 364 74 515
-14 113 -66 203 -176 245 -301 30 -87 37 -223 17 -310 -11 -46 -12 -69 -5 -78
32 -37 62 69 62 213 -2 172 -68 322 -195 439 -129 120 -335 180 -504 146z"/>
<path d="M15 630 c-4 -6 -1 -17 5 -25 18 -22 302 -22 320 0 25 30 0 35 -160
35 -100 0 -161 -4 -165 -10z"/>
<path d="M1805 630 c-4 -6 -1 -17 5 -25 10 -12 42 -15 154 -15 143 0 171 6
159 36 -4 11 -37 14 -158 14 -96 0 -156 -4 -160 -10z"/>
<path d="M8 293 c-5 -7 -7 -17 -3 -23 9 -15 2121 -14 2131 1 3 6 2 15 -3 20
-15 15 -2112 17 -2125 2z"/>
<path d="M444 29 c-3 -6 -2 -15 3 -20 5 -5 261 -8 628 -7 581 3 620 4 623 20
3 17 -32 18 -622 18 -439 0 -627 -3 -632 -11z"/>
</g>
</svg>
