<?xml version="1.0" standalone="no"?>
<!DOCTYPE svg PUBLIC "-//W3C//DTD SVG 20010904//EN"
 "http://www.w3.org/TR/2001/REC-SVG-20010904/DTD/svg10.dtd">
<svg version="1.0" xmlns="http://www.w3.org/2000/svg"
 width="171.000000pt" height="172.000000pt" viewBox="0 0 171.000000 172.000000"
 preserveAspectRatio="xMidYMid meet">
<metadata>
Created by potrace 1.16, written by Peter Selinger 2001-2019
</metadata>
<g transform="translate(0.000000,172.000000) scale(0.100000,-0.100000)"
fill="#000000" stroke="none">
<path d="M710 1709 c-344 -61 -624 -338 -697 -687 -19 -93 -13 -283 12 -377
25 -93 99 -236 165 -319 111 -140 278 -249 456 -297 113 -31 315 -31 429 0
292 79 528 315 611 611 25 89 26 338 2 425 -55 201 -146 342 -293 461 -93 75
-213 136 -322 165 -90 24 -280 33 -363 18z m389 -98 c268 -90 452 -287 521
-555 28 -109 28 -283 0 -392 -150 -587 -872 -792 -1308 -371 -111 107 -185
236 -223 387 -18 71 -21 104 -17 215 4 111 9 142 35 217 76 219 246 400 454
484 105 43 173 54 314 50 115 -3 141 -7 224 -35z"/>
<path d="M805 1327 c-141 -47 -262 -168 -309 -309 -4 -14 -17 -18 -55 -18 -61
0 -81 -7 -81 -30 0 -28 26 -42 72 -38 29 2 43 -1 42 -10 -1 -6 -2 -37 -2 -66
l-2 -55 -52 -3 c-49 -3 -53 -5 -53 -28 0 -24 3 -25 61 -28 l61 -3 13 -42 c20
-69 50 -118 106 -177 93 -98 219 -148 342 -136 137 12 283 118 214 155 -15 8
-29 2 -70 -28 -93 -70 -208 -78 -327 -23 -91 43 -180 142 -200 225 l-7 27 225
0 c235 0 256 4 241 44 -5 14 -34 16 -246 16 l-239 0 3 66 3 66 225 -2 c184 0
229 2 245 14 16 12 18 18 9 33 -10 16 -33 18 -238 23 l-227 5 26 52 c103 206
359 280 514 147 46 -40 81 -40 81 1 0 28 -42 65 -114 102 -41 21 -68 27 -136
30 -52 2 -100 -2 -125 -10z"/>
</g>
</svg>
