<?xml version="1.0" standalone="no"?>
<!DOCTYPE svg PUBLIC "-//W3C//DTD SVG 20010904//EN"
 "http://www.w3.org/TR/2001/REC-SVG-20010904/DTD/svg10.dtd">
<svg version="1.0" xmlns="http://www.w3.org/2000/svg"
 width="217.000000pt" height="145.000000pt" viewBox="0 0 217.000000 145.000000"
 preserveAspectRatio="xMidYMid meet">
<metadata>
Created by potrace 1.16, written by Peter Selinger 2001-2019
</metadata>
<g transform="translate(0.000000,145.000000) scale(0.100000,-0.100000)"
fill="#000000" stroke="none">
<path d="M95 1441 c-33 -14 -74 -62 -86 -100 -7 -24 -9 -234 -7 -632 l3 -595
27 -41 c51 -78 -20 -73 1053 -73 1048 0 985 -4 1039 60 14 17 30 49 36 70 7
26 10 237 8 629 -3 580 -3 590 -24 618 -11 15 -36 38 -54 51 l-33 22 -971 -1
c-534 0 -980 -4 -991 -8z m1986 -81 c55 -55 54 -55 -291 -317 -173 -131 -390
-295 -481 -365 -167 -126 -203 -145 -259 -133 -17 4 -190 129 -402 292 -205
157 -421 322 -480 367 -119 89 -126 103 -82 155 l26 31 970 0 970 0 29 -30z
m-1549 -509 l187 -143 -272 -225 c-150 -123 -298 -247 -329 -274 l-58 -50 0
526 0 526 143 -108 c78 -60 226 -173 329 -252z m1576 -431 l-3 -258 -320 270
c-176 149 -321 274 -323 279 -2 4 142 118 320 253 l323 246 3 -266 c1 -146 1
-382 0 -524z m-365 -29 c163 -138 309 -258 323 -268 l26 -17 -26 -23 -27 -23
-954 0 -954 0 -26 23 -25 22 321 265 c177 146 332 273 344 283 23 18 24 17
112 -53 111 -89 160 -113 228 -113 62 0 94 17 230 122 87 67 91 68 110 51 11
-9 154 -130 318 -269z"/>
</g>
</svg>
