<?xml version="1.0" standalone="no"?>
<!DOCTYPE svg PUBLIC "-//W3C//DTD SVG 20010904//EN"
 "http://www.w3.org/TR/2001/REC-SVG-20010904/DTD/svg10.dtd">
<svg version="1.0" xmlns="http://www.w3.org/2000/svg"
 width="183.000000pt" height="212.000000pt" viewBox="0 0 183.000000 212.000000"
 preserveAspectRatio="xMidYMid meet">
<metadata>
Created by potrace 1.16, written by Peter Selinger 2001-2019
</metadata>
<g transform="translate(0.000000,212.000000) scale(0.100000,-0.100000)"
fill="#000000" stroke="none">
<path d="M105 2101 c-44 -20 -92 -70 -100 -104 -3 -12 -4 -439 -3 -949 l3
-926 31 -38 c16 -21 48 -47 70 -58 38 -21 53 -21 787 -24 504 -1 761 1 788 8
50 14 107 64 130 115 18 38 19 91 18 940 0 952 0 945 -46 997 -10 11 -36 29
-58 39 -38 18 -84 19 -810 19 -726 0 -772 -1 -810 -19z m1605 -49 c74 -37 70
21 68 -994 -3 -898 -3 -907 -24 -934 -11 -15 -33 -37 -48 -48 -27 -21 -38 -21
-779 -24 l-752 -2 -45 22 c-26 14 -53 37 -65 58 -20 34 -20 53 -23 915 -2 484
0 894 3 912 7 37 48 91 79 103 12 5 365 9 786 9 709 1 768 0 800 -17z"/>
<path d="M785 1753 c-73 -32 -115 -64 -154 -119 -73 -102 -81 -239 -21 -353
38 -70 77 -109 153 -148 46 -25 63 -28 147 -28 78 0 103 4 141 23 111 54 185
161 196 280 12 132 -63 269 -181 329 -67 35 -217 43 -281 16z m245 -54 c108
-46 177 -164 168 -283 -9 -107 -63 -187 -160 -235 -84 -43 -167 -43 -254 -2
-112 53 -170 152 -162 279 5 79 28 132 81 185 84 84 211 106 327 56z"/>
<path d="M685 960 c-70 -15 -125 -38 -186 -82 -67 -47 -116 -108 -156 -194
-23 -51 -27 -72 -27 -159 l-1 -100 593 -3 c470 -2 592 0 593 10 0 7 0 48 -1
92 -4 217 -129 377 -337 431 -63 17 -404 20 -478 5z m486 -56 c172 -51 289
-210 289 -394 l0 -40 -551 0 -552 0 5 79 c9 163 112 292 277 348 60 20 85 23
272 23 160 0 217 -4 260 -16z"/>
</g>
</svg>
