<?xml version="1.0" standalone="no"?>
<!DOCTYPE svg PUBLIC "-//W3C//DTD SVG 20010904//EN"
 "http://www.w3.org/TR/2001/REC-SVG-20010904/DTD/svg10.dtd">
<svg version="1.0" xmlns="http://www.w3.org/2000/svg"
 width="211.000000pt" height="222.000000pt" viewBox="0 0 211.000000 222.000000"
 preserveAspectRatio="xMidYMid meet">
<metadata>
Created by potrace 1.16, written by Peter Selinger 2001-2019
</metadata>
<g transform="translate(0.000000,222.000000) scale(0.100000,-0.100000)"
fill="#000000" stroke="none">
<path d="M1010 2182 c-30 -20 -191 -122 -358 -228 l-303 -191 -145 -288 c-98
-195 -142 -291 -135 -298 16 -16 33 4 76 93 l40 82 5 -363 c4 -315 7 -364 20
-364 13 0 16 54 20 410 l5 410 70 143 70 144 355 225 c344 218 356 225 380
211 14 -8 175 -110 359 -225 l334 -210 53 -116 c29 -64 59 -126 68 -139 14
-20 16 -98 16 -690 l0 -668 -180 0 -180 0 -2 467 -3 468 -485 0 -485 0 0 -215
c0 -184 2 -215 15 -215 13 0 15 27 15 183 0 100 0 182 0 182 1 0 96 -95 212
-212 l212 -212 -27 -26 c-15 -14 -76 -76 -136 -138 -85 -87 -107 -115 -98
-124 10 -10 43 18 150 125 l137 137 210 -210 210 -210 -330 -2 c-286 -3 -330
-5 -330 -18 0 -13 69 -15 565 -15 l565 0 3 640 2 640 46 -85 c54 -101 70 -121
80 -97 3 10 -22 69 -66 154 -39 76 -102 202 -140 281 l-69 142 -83 53 c-311
200 -649 407 -665 406 -10 0 -43 -17 -73 -37z m375 -1293 c-72 -72 -169 -166
-216 -209 l-85 -79 -210 210 -209 209 425 0 425 0 -130 -131z m155 -321 l0
-423 -212 212 -213 213 210 210 c115 115 211 210 212 210 2 0 3 -190 3 -422z"/>
<path d="M895 1667 c-3 -7 -4 -87 -3 -177 l3 -165 195 0 195 0 0 175 0 175
-193 3 c-151 2 -194 0 -197 -11z m355 -167 l0 -140 -160 0 -160 0 0 140 0 140
160 0 160 0 0 -140z"/>
<path d="M158 534 c-32 -17 -58 -61 -58 -98 0 -23 -4 -25 -47 -28 -36 -2 -49
-7 -51 -20 -3 -15 4 -18 47 -18 l51 0 0 -84 0 -85 -47 -3 c-36 -2 -49 -7 -51
-21 -3 -14 4 -17 47 -17 l50 0 3 -77 c3 -65 6 -78 21 -81 16 -3 17 13 17 228
l0 231 25 24 c27 28 52 31 81 11 18 -13 19 -31 24 -253 4 -203 7 -238 20 -238
12 0 16 17 18 78 l3 77 69 0 70 0 0 -81 c0 -71 2 -80 18 -77 15 3 17 25 22
240 5 222 6 238 25 252 25 19 56 20 81 2 18 -13 19 -30 22 -256 3 -221 4 -241
20 -238 14 3 18 17 20 81 l3 77 43 0 c23 0 46 3 49 7 14 14 -17 33 -54 33
l-39 0 0 85 0 85 46 0 c38 0 45 3 42 18 -2 12 -15 18 -44 20 -40 3 -42 4 -48
44 -4 25 -18 51 -37 70 -26 27 -35 30 -72 25 -55 -7 -97 -52 -97 -102 l0 -35
-70 0 -70 0 0 36 c0 28 -8 44 -34 70 -38 38 -73 43 -118 18z m292 -249 l0 -85
-70 0 -70 0 0 85 0 85 70 0 70 0 0 -85z"/>
</g>
</svg>
