<?xml version="1.0" standalone="no"?>
<!DOCTYPE svg PUBLIC "-//W3C//DTD SVG 20010904//EN"
 "http://www.w3.org/TR/2001/REC-SVG-20010904/DTD/svg10.dtd">
<svg version="1.0" xmlns="http://www.w3.org/2000/svg"
 width="171.000000pt" height="162.000000pt" viewBox="0 0 171.000000 162.000000"
 preserveAspectRatio="xMidYMid meet">
<metadata>
Created by potrace 1.16, written by Peter Selinger 2001-2019
</metadata>
<g transform="translate(0.000000,162.000000) scale(0.100000,-0.100000)"
fill="#000000" stroke="none">
<path d="M390 1605 c-7 -9 -15 -49 -18 -90 l-5 -75 -142 0 c-129 0 -145 -2
-169 -21 -58 -45 -56 -25 -56 -681 0 -332 5 -621 10 -643 5 -24 21 -51 40 -68
l30 -27 781 0 781 0 34 34 34 34 0 641 c0 579 -2 644 -16 667 -30 45 -63 54
-194 54 l-120 0 0 68 c0 76 -17 112 -53 112 -46 0 -67 -36 -67 -114 l0 -56
-395 0 -395 0 0 68 c0 73 -17 112 -49 112 -10 0 -24 -7 -31 -15z m45 -186 c0
-121 -2 -144 -15 -144 -12 0 -15 23 -18 134 -3 142 0 165 21 158 9 -3 12 -41
12 -148z m900 129 c3 -13 4 -77 3 -143 -3 -105 -5 -120 -20 -123 -16 -3 -18 8
-18 126 0 72 3 137 6 146 9 23 23 20 29 -6z m-975 -215 c0 -75 16 -103 59
-103 47 0 56 14 61 92 l5 73 383 3 382 2 0 -62 c0 -72 17 -98 63 -98 49 0 67
24 67 92 l0 58 120 0 c115 0 122 -1 145 -25 23 -22 25 -31 25 -125 l0 -100
-810 0 -810 0 0 105 c0 99 2 107 25 130 23 24 29 25 155 25 l130 0 0 -67z
m1310 -738 l0 -506 -25 -24 -24 -25 -761 0 -761 0 -24 25 -25 24 0 506 0 505
810 0 810 0 0 -505z"/>
<path d="M734 897 c-2 -7 -3 -71 -2 -143 l3 -129 145 0 145 0 3 129 c2 86 -1
133 -9 142 -16 20 -277 20 -285 1z m254 -129 l-3 -103 -107 -3 -108 -3 0 106
0 105 110 0 111 0 -3 -102z"/>
<path d="M1202 898 c-13 -16 -9 -255 5 -269 5 -5 67 -8 144 -7 l134 3 0 140 0
140 -136 3 c-102 2 -139 -1 -147 -10z m248 -130 l0 -103 -105 0 -105 0 0 103
0 102 105 0 105 0 0 -102z"/>
<path d="M242 353 l3 -138 145 0 145 0 0 135 0 135 -148 3 -148 3 3 -138z
m258 -3 l0 -100 -110 0 -110 0 0 100 0 100 110 0 110 0 0 -100z"/>
<path d="M732 353 l3 -138 134 -3 c91 -2 138 1 147 9 12 9 14 39 12 138 l-3
126 -148 3 -148 3 3 -138z m256 0 l-3 -98 -107 -3 -108 -3 0 101 0 100 110 0
111 0 -3 -97z"/>
</g>
</svg>
