<?xml version="1.0" standalone="no"?>
<!DOCTYPE svg PUBLIC "-//W3C//DTD SVG 20010904//EN"
 "http://www.w3.org/TR/2001/REC-SVG-20010904/DTD/svg10.dtd">
<svg version="1.0" xmlns="http://www.w3.org/2000/svg"
 width="177.000000pt" height="190.000000pt" viewBox="0 0 177.000000 190.000000"
 preserveAspectRatio="xMidYMid meet">
<metadata>
Created by potrace 1.16, written by Peter Selinger 2001-2019
</metadata>
<g transform="translate(0.000000,190.000000) scale(0.100000,-0.100000)"
fill="#000000" stroke="none">
<path d="M317 1893 c-4 -3 -7 -39 -7 -80 l0 -73 -110 0 c-119 0 -155 -10 -184
-52 -14 -20 -16 -113 -16 -813 0 -765 1 -791 20 -822 12 -21 32 -36 57 -43 27
-8 274 -10 830 -8 l793 3 32 33 33 32 3 790 c3 878 6 837 -63 866 -22 9 -71
14 -139 14 l-105 0 -3 77 c-3 67 -6 78 -22 81 -27 6 -36 -15 -36 -90 l0 -68
-515 0 -515 0 0 64 c0 35 -3 71 -6 80 -6 16 -35 22 -47 9z m-7 -292 c0 -64 3
-80 16 -85 32 -12 44 13 44 90 l0 74 515 0 515 0 0 -74 c0 -77 13 -104 45 -92
12 4 15 23 15 86 l0 80 114 0 c93 0 116 -3 127 -17 10 -12 14 -52 14 -157 l0
-141 -832 -3 -833 -2 0 142 c0 184 -5 178 147 178 l113 0 0 -79z m1408 -899
c-3 -498 -5 -612 -17 -625 -12 -16 -82 -17 -817 -17 l-803 0 -15 22 c-14 20
-16 96 -16 625 l0 603 835 0 835 0 -2 -608z"/>
<path d="M548 811 c3 -251 -3 -290 -52 -312 -30 -14 -89 -4 -107 17 -7 9 -16
37 -19 63 -5 44 -7 46 -39 49 l-34 3 6 -55 c3 -34 14 -68 28 -87 58 -82 198
-77 256 10 22 33 23 41 23 287 l0 254 -32 0 -33 0 3 -229z"/>
<path d="M784 855 c-29 -15 -64 -61 -64 -84 0 -19 58 -13 69 8 13 24 60 40 95
34 34 -7 66 -47 66 -83 0 -27 -3 -29 -72 -40 -92 -15 -135 -35 -153 -71 -21
-39 -19 -98 5 -136 35 -59 140 -67 201 -16 l29 25 0 -26 c0 -22 5 -26 28 -26
l27 0 -3 152 c-3 193 -6 208 -42 243 -26 25 -40 30 -93 32 -42 3 -72 -1 -93
-12z m166 -258 c0 -53 -20 -82 -65 -97 -80 -27 -147 40 -97 98 19 24 69 40
125 41 l37 1 0 -43z"/>
<path d="M1110 655 l0 -215 33 0 33 0 -1 148 c0 161 6 181 55 207 39 20 73 19
101 -4 23 -19 24 -25 27 -185 l3 -166 32 0 32 0 -5 180 -5 180 -30 30 c-52 51
-126 53 -184 4 l-31 -26 0 31 c0 28 -3 31 -30 31 l-30 0 0 -215z"/>
</g>
</svg>
