<?xml version="1.0" standalone="no"?>
<!DOCTYPE svg PUBLIC "-//W3C//DTD SVG 20010904//EN"
 "http://www.w3.org/TR/2001/REC-SVG-20010904/DTD/svg10.dtd">
<svg version="1.0" xmlns="http://www.w3.org/2000/svg"
 width="152.000000pt" height="176.000000pt" viewBox="0 0 152.000000 176.000000"
 preserveAspectRatio="xMidYMid meet">
<metadata>
Created by potrace 1.16, written by Peter Selinger 2001-2019
</metadata>
<g transform="translate(0.000000,176.000000) scale(0.100000,-0.100000)"
fill="#000000" stroke="none">
<path d="M735 1748 c-3 -7 -6 -68 -7 -135 l-3 -122 -84 76 c-67 62 -86 75
-100 66 -9 -5 -17 -17 -19 -24 -1 -8 45 -61 103 -118 l105 -104 -2 -223 -3
-223 -195 114 c-137 80 -197 121 -203 137 -4 13 -20 75 -35 138 -25 109 -28
115 -52 115 -34 0 -36 -23 -11 -127 10 -45 18 -84 17 -86 -2 -1 -47 23 -101
53 -103 58 -138 65 -143 28 -3 -18 14 -31 109 -84 l112 -63 -109 -36 c-92 -30
-109 -39 -112 -58 -6 -37 24 -37 163 3 73 21 137 36 142 34 25 -10 383 -223
383 -229 0 -3 -24 -19 -52 -36 -29 -17 -119 -70 -199 -117 l-146 -87 -134 40
c-119 36 -135 39 -148 25 -27 -27 0 -48 105 -80 l98 -31 -107 -62 c-108 -63
-112 -67 -101 -96 10 -27 40 -18 141 43 54 33 99 58 101 56 2 -1 -6 -40 -18
-85 -26 -104 -24 -135 10 -135 23 0 26 7 60 137 l35 138 65 38 c261 155 316
187 323 190 4 2 7 -99 7 -225 l0 -228 -106 -106 c-75 -75 -105 -112 -101 -123
13 -34 52 -17 122 54 38 39 73 70 77 70 4 0 9 -57 10 -127 l3 -128 25 0 25 0
3 134 3 135 78 -78 c80 -79 113 -93 119 -51 2 14 -28 50 -98 120 l-100 100 0
233 0 233 28 -20 c15 -10 104 -64 198 -120 l171 -100 34 -138 c30 -123 36
-138 57 -141 34 -5 37 21 13 126 -11 52 -20 97 -18 98 1 2 49 -24 105 -57 109
-64 137 -70 137 -29 0 21 -16 34 -104 85 l-105 60 99 30 c104 32 131 53 104
80 -13 13 -29 11 -147 -24 l-132 -39 -177 105 c-98 57 -188 111 -201 119 -23
15 -18 18 171 130 107 63 201 114 209 114 8 0 65 -16 127 -36 128 -40 156 -41
156 -4 0 27 -12 32 -143 70 l-74 21 109 63 c89 52 108 67 108 87 0 40 -30 34
-140 -30 -58 -33 -105 -57 -105 -55 0 3 9 42 21 86 26 102 23 133 -11 133 -23
0 -26 -6 -48 -100 -45 -191 -21 -163 -240 -291 -106 -63 -195 -114 -197 -114
-3 0 -5 103 -5 229 l0 229 100 96 c98 93 118 127 84 140 -22 9 -41 -4 -114
-79 l-65 -66 -5 133 c-5 129 -6 133 -28 136 -12 2 -24 -3 -27 -10z"/>
</g>
</svg>
