<?xml version="1.0" standalone="no"?>
<!DOCTYPE svg PUBLIC "-//W3C//DTD SVG 20010904//EN"
 "http://www.w3.org/TR/2001/REC-SVG-20010904/DTD/svg10.dtd">
<svg version="1.0" xmlns="http://www.w3.org/2000/svg"
 width="242.000000pt" height="132.000000pt" viewBox="0 0 242.000000 132.000000"
 preserveAspectRatio="xMidYMid meet">
<metadata>
Created by potrace 1.16, written by Peter Selinger 2001-2019
</metadata>
<g transform="translate(0.000000,132.000000) scale(0.100000,-0.100000)"
fill="#000000" stroke="none">
<path d="M502 1300 c-241 -65 -427 -252 -488 -489 -25 -98 -16 -273 18 -369
36 -100 81 -173 154 -247 114 -117 259 -181 434 -192 116 -7 211 16 334 80 78
40 187 134 232 200 l20 29 43 -56 c149 -193 399 -289 631 -242 440 89 669 564
463 959 -55 105 -173 221 -280 274 -204 102 -427 95 -621 -19 -57 -33 -185
-152 -213 -196 l-14 -24 -47 60 c-75 97 -209 188 -335 228 -80 25 -245 28
-331 4z m248 -34 c135 -25 242 -80 334 -172 63 -62 109 -133 97 -148 -5 -6
-21 -46 -35 -88 -49 -146 -44 -297 15 -446 l21 -52 -28 -43 c-15 -23 -51 -65
-81 -94 -240 -235 -617 -232 -853 6 -44 44 -89 101 -107 136 -72 137 -91 293
-53 439 29 115 73 189 165 282 65 66 96 89 165 122 47 22 110 45 140 51 30 6
64 13 75 15 37 7 70 5 145 -8z m1174 -12 c189 -46 360 -208 424 -401 36 -112
36 -264 -1 -378 -71 -217 -263 -381 -490 -420 -91 -15 -168 -11 -262 16 -115
33 -257 135 -327 237 l-31 45 33 95 c56 159 53 317 -8 468 l-21 51 34 50 c43
65 132 143 204 181 147 78 285 95 445 56z m-674 -450 c22 -86 25 -145 10 -225
-13 -71 -41 -159 -50 -159 -17 0 -43 113 -47 209 -6 105 4 178 34 249 19 45
25 35 53 -74z"/>
<path d="M417 734 c-19 -19 23 -24 214 -24 179 0 209 2 209 15 0 13 -30 15
-208 15 -115 0 -212 -3 -215 -6z"/>
<path d="M425 610 c-16 -26 14 -30 199 -30 153 0 196 3 205 14 9 11 8 15 -5
20 -27 10 -392 7 -399 -4z"/>
</g>
</svg>
