<?xml version="1.0" standalone="no"?>
<!DOCTYPE svg PUBLIC "-//W3C//DTD SVG 20010904//EN"
 "http://www.w3.org/TR/2001/REC-SVG-20010904/DTD/svg10.dtd">
<svg version="1.0" xmlns="http://www.w3.org/2000/svg"
 width="192.000000pt" height="189.000000pt" viewBox="0 0 192.000000 189.000000"
 preserveAspectRatio="xMidYMid meet">
<metadata>
Created by potrace 1.16, written by Peter Selinger 2001-2019
</metadata>
<g transform="translate(0.000000,189.000000) scale(0.100000,-0.100000)"
fill="#000000" stroke="none">
<path d="M17 1883 c-3 -5 -9 -137 -13 -294 -7 -279 -6 -286 15 -334 12 -28 37
-66 56 -85 l34 -35 -15 -335 c-8 -184 -18 -418 -23 -520 -10 -209 -6 -227 59
-261 67 -36 157 -14 192 47 17 30 17 53 1 553 l-16 522 37 38 c60 62 68 105
62 326 -10 305 -16 385 -31 385 -7 0 -15 -4 -17 -10 -1 -5 1 -134 6 -287 9
-310 6 -333 -50 -391 -19 -20 -37 -45 -40 -58 -3 -12 2 -253 11 -535 l16 -514
-30 -27 c-44 -40 -102 -39 -142 1 -29 29 -29 31 -24 113 7 113 35 793 36 896
1 83 1 84 -34 120 -68 72 -71 85 -67 297 7 323 6 388 -7 392 -6 2 -13 0 -16
-4z"/>
<path d="M187 1884 c-4 -4 -7 -121 -7 -261 0 -247 0 -253 20 -253 20 0 20 5
18 257 -3 243 -7 280 -31 257z"/>
<path d="M967 1699 c-93 -12 -207 -52 -292 -100 -95 -54 -199 -140 -203 -167
-2 -12 0 -22 3 -22 4 0 43 30 88 66 90 72 227 143 327 170 46 12 102 17 190
17 106 0 138 -4 213 -27 143 -43 236 -96 341 -195 165 -157 247 -352 247 -586
0 -229 -75 -410 -235 -570 -248 -247 -610 -303 -927 -144 -77 38 -206 137
-268 205 -47 51 -71 61 -71 30 0 -17 150 -162 210 -203 182 -125 407 -182 604
-154 174 25 328 99 460 222 116 109 202 249 242 394 24 90 30 283 11 381 -62
328 -319 595 -643 667 -93 21 -214 28 -297 16z"/>
<path d="M936 1414 c-174 -42 -322 -182 -394 -372 -36 -96 -38 -254 -3 -360
91 -277 380 -448 658 -389 117 25 197 69 284 156 118 119 169 240 169 406 0
166 -51 287 -169 405 -119 117 -246 171 -406 169 -44 0 -106 -7 -139 -15z
m279 -39 c182 -48 343 -212 385 -394 55 -235 -58 -487 -267 -598 -367 -196
-810 96 -780 515 15 222 175 419 387 478 63 17 205 17 275 -1z"/>
</g>
</svg>
