<?xml version="1.0" standalone="yes"?>
<svg xmlns="http://www.w3.org/2000/svg" width="806" height="1024">
<path style="stroke:#000000; fill:none;" d="M21 245C16.2759 230.061 15.8918 212.448 17.7145 197C19.0193 185.942 18.0309 174.675 22.0656 164C47.5895 96.469 125.529 64.1334 190 45.8596C274.297 21.9664 358.972 17.1498 446 20.9606C505.462 23.5643 564.048 29.6042 621 48.2585C678.52 67.0989 741.675 94.1124 774.935 148C787.751 168.765 788.46 200.317 786.17 224C785.495 230.979 786.786 240.858 782.272 246.786C776.343 254.573 762.429 253.678 755 260.133C742.745 270.784 731.653 281.949 718 290.921C665.183 325.63 601.637 345.015 540 356.54C493.885 365.163 446.807 367 400 367C324.234 367 248.046 359.942 176 334.922C137.887 321.686 97.6846 303.861 66 278.551C54.8137 269.615 45.3054 256.777 32 251.396C28.8857 250.136 24.4784 247.104 21.0008 247.781C15.8133 248.791 14.0891 254.503 14.0046 259C13.7599 272.036 13 284.96 13 298C13 336.386 13.2841 374.713 14.9606 413C15.4899 425.087 16.3539 436.987 18 449C18.5904 453.308 18.3946 459.665 20.564 463.502C22.7703 467.403 30.155 469.099 34 470.865C39.3262 473.311 43.6753 477.278 48 481.169C86.0694 515.417 130.462 536.996 179 552.505C285.855 586.646 403.678 590.757 514 574.427C577.507 565.027 641.917 548.339 699 518.219C722.332 505.908 739.028 487.622 760 472.498C766.331 467.933 779.247 467.128 783.682 460.502C785.821 457.307 785.614 451.717 786.13 448C787.742 436.404 788 424.701 788 413L788 297C787.999 283.723 791.182 257.93 782 248M784 462C790.13 469.249 788 479.987 788 489L788 553C788 580.622 788.975 608.473 787.089 636C786.367 646.547 787.425 662.302 782.566 671.907C778.934 679.087 767.462 680.55 761 684.225C755.747 687.212 751.572 692.351 747 696.271C701.301 735.455 644.405 760.2 586 773.765C512.168 790.912 436.64 797.352 361 794.039C305.717 791.619 249.251 785.808 196 769.565C151.097 755.868 107.725 738.041 70 709.626C58.296 700.81 47.6502 688.232 34 682.604C30.4872 681.156 24.8856 677.503 21 678.557C17.0709 679.623 13.7501 684.13 13.1481 688C11.2685 700.084 13 713.764 13 726C13 759.151 13.6872 793.017 16.8302 826C18.4133 842.612 19.862 859.722 27.2585 875C34.9382 890.863 47.052 901.609 60 913.166C99.0487 948.019 150.948 967.7 201 980.374C305.133 1006.74 412.929 1008.35 519 995.286C582.019 987.522 646.532 970.369 702 938.573C727.209 924.122 756.033 905.56 771.074 880C780.829 863.424 782.4 843.597 784.17 825C786.64 799.048 787 773.096 787 747C787 730.623 788 714.326 788 698C788 688.371 789.091 681.329 782 674M20 465C7.8251 477.476 13 502.477 13 519C13 554.266 12.5039 589.857 14.9105 625C16.0716 641.956 15.4597 659.639 21 676"/>
</svg>
