<?xml version="1.0" standalone="no"?>
<!DOCTYPE svg PUBLIC "-//W3C//DTD SVG 20010904//EN"
 "http://www.w3.org/TR/2001/REC-SVG-20010904/DTD/svg10.dtd">
<svg version="1.0" xmlns="http://www.w3.org/2000/svg"
 width="240.000000pt" height="99.000000pt" viewBox="0 0 240.000000 99.000000"
 preserveAspectRatio="xMidYMid meet">
<metadata>
Created by potrace 1.16, written by Peter Selinger 2001-2019
</metadata>
<g transform="translate(0.000000,99.000000) scale(0.100000,-0.100000)"
fill="#000000" stroke="none">
<path d="M0 972 c0 -13 20 -26 72 -48 l73 -29 17 -115 c29 -184 88 -562 94
-595 7 -39 17 -48 36 -33 8 7 107 141 218 298 112 157 204 287 206 289 2 2 45
0 96 -4 l93 -7 27 -71 c15 -40 49 -133 76 -207 107 -290 177 -450 197 -450 15
0 65 119 186 442 114 304 111 298 152 298 17 0 55 3 82 6 l50 5 54 -78 c147
-212 386 -533 397 -533 13 0 22 38 49 215 9 61 25 162 36 225 10 63 26 160 34
215 9 54 17 100 18 100 1 1 31 12 65 25 35 13 66 29 69 36 12 32 -12 30 -105
-7 -323 -133 -753 -198 -1227 -186 -373 10 -620 59 -948 188 -111 45 -117 46
-117 21z m470 -177 c53 -14 118 -28 144 -31 25 -4 49 -10 51 -14 4 -6 -280
-413 -353 -505 l-20 -26 -6 28 c-8 43 -24 143 -31 193 -3 25 -10 70 -15 100
-5 30 -12 74 -15 98 -3 24 -13 80 -21 125 -22 126 -28 119 77 85 51 -16 136
-40 189 -53z m1734 -2 c-8 -42 -30 -180 -49 -307 -20 -127 -38 -239 -41 -249
-6 -20 -34 15 -273 347 l-121 169 162 34 c90 18 197 44 238 57 41 14 80 25 86
26 8 0 7 -22 -2 -77z m-760 -100 c-9 -21 -49 -126 -89 -233 -103 -279 -149
-390 -156 -382 -10 12 -80 188 -165 417 l-82 220 191 5 c106 3 220 7 255 8
l62 2 -16 -37z"/>
</g>
</svg>
