<?xml version="1.0" standalone="no"?>
<!DOCTYPE svg PUBLIC "-//W3C//DTD SVG 20010904//EN"
 "http://www.w3.org/TR/2001/REC-SVG-20010904/DTD/svg10.dtd">
<svg version="1.0" xmlns="http://www.w3.org/2000/svg"
 width="130.000000pt" height="232.000000pt" viewBox="0 0 130.000000 232.000000"
 preserveAspectRatio="xMidYMid meet">
<metadata>
Created by potrace 1.16, written by Peter Selinger 2001-2019
</metadata>
<g transform="translate(0.000000,232.000000) scale(0.100000,-0.100000)"
fill="#000000" stroke="none">
<path d="M625 2301 c-51 -23 -118 -98 -133 -149 -37 -122 21 -252 133 -303 53
-25 157 -25 210 0 52 24 121 99 134 147 25 91 7 173 -53 241 -53 60 -103 83
-186 83 -42 0 -79 -7 -105 -19z m188 -34 c65 -28 127 -121 127 -192 0 -108
-100 -205 -210 -205 -144 0 -248 149 -194 278 19 46 69 100 109 118 39 17 127
18 168 1z"/>
<path d="M517 1790 c-54 -14 -83 -30 -241 -138 -157 -106 -191 -134 -212 -175
-17 -31 -64 -319 -64 -389 0 -38 6 -54 28 -79 52 -58 162 -48 196 19 7 15 24
88 36 162 13 74 27 144 31 156 4 11 35 37 68 57 34 20 61 35 61 34 0 -1 -11
-78 -25 -172 -14 -93 -25 -199 -25 -234 0 -61 -37 -263 -64 -355 -8 -26 -75
-133 -157 -252 -136 -198 -143 -210 -147 -264 -4 -49 -1 -60 23 -88 52 -62
134 -64 202 -4 18 15 92 113 165 218 123 175 136 198 162 285 16 52 32 98 36
103 5 4 49 -41 98 -100 89 -108 91 -111 168 -304 87 -219 96 -235 135 -256 93
-48 210 27 196 126 -5 36 -137 411 -164 463 -7 15 -66 107 -129 204 -79 123
-114 184 -110 198 2 11 10 48 17 83 6 34 15 61 18 60 3 -2 81 -42 172 -90 92
-49 179 -88 194 -88 93 0 151 126 91 197 -13 16 -82 60 -152 98 -117 64 -130
75 -164 127 -21 31 -57 103 -80 159 -24 56 -57 120 -74 143 -57 75 -191 120
-289 96z m182 -60 c73 -37 130 -127 131 -205 0 -39 -24 -182 -71 -428 -26
-139 -41 -98 123 -348 103 -159 112 -176 183 -370 95 -258 97 -269 57 -309
-38 -38 -92 -41 -125 -8 -13 13 -60 115 -105 228 -77 193 -86 210 -150 285
-146 171 -295 362 -310 395 -21 48 -18 131 12 345 14 98 23 182 18 186 -7 7
-174 -89 -199 -114 -6 -7 -24 -82 -38 -167 -15 -85 -31 -163 -36 -172 -36 -68
-149 -38 -149 40 0 62 49 351 64 380 20 38 351 261 413 278 58 16 133 10 182
-16z m250 -397 c15 -20 66 -54 140 -94 64 -34 128 -74 144 -87 48 -45 29 -123
-32 -137 -25 -5 -58 9 -193 79 -90 47 -169 89 -175 94 -10 6 -8 32 7 118 33
176 27 166 58 108 15 -27 38 -63 51 -81z m-455 -521 l67 -83 -36 -117 c-36
-114 -41 -122 -174 -311 -76 -107 -149 -204 -164 -215 -38 -28 -90 -26 -123 5
-22 21 -25 30 -22 70 4 40 23 73 148 250 156 222 151 210 200 453 14 67 4 72
104 -52z"/>
</g>
</svg>
