<?xml version="1.0" standalone="no"?>
<!DOCTYPE svg PUBLIC "-//W3C//DTD SVG 20010904//EN"
 "http://www.w3.org/TR/2001/REC-SVG-20010904/DTD/svg10.dtd">
<svg version="1.0" xmlns="http://www.w3.org/2000/svg"
 width="214.000000pt" height="195.000000pt" viewBox="0 0 214.000000 195.000000"
 preserveAspectRatio="xMidYMid meet">
<metadata>
Created by potrace 1.16, written by Peter Selinger 2001-2019
</metadata>
<g transform="translate(0.000000,195.000000) scale(0.100000,-0.100000)"
fill="#000000" stroke="none">
<path d="M1410 1936 c-176 -37 -374 -131 -545 -258 -135 -100 -183 -131 -310
-198 -162 -85 -234 -137 -331 -234 -98 -98 -157 -188 -195 -296 -18 -51 -23
-94 -27 -200 -5 -174 12 -274 68 -388 116 -233 345 -354 675 -355 382 -1 794
171 1070 448 161 161 256 316 302 493 23 90 24 110 20 267 -4 147 -9 185 -35
286 -16 63 -42 141 -56 171 -56 119 -152 207 -271 249 -77 27 -269 35 -365 15z
m273 -60 c94 -18 146 -45 214 -109 139 -131 170 -355 84 -601 -86 -244 -364
-522 -668 -667 -112 -53 -301 -115 -416 -136 -131 -23 -319 -20 -422 6 -315
82 -466 301 -381 555 33 98 59 142 135 233 80 94 198 181 369 272 77 40 197
116 268 168 158 116 236 163 345 208 185 75 333 97 472 71z m394 -738 c-14
-247 -112 -442 -325 -650 -203 -197 -429 -316 -727 -383 -423 -95 -764 15
-894 289 -22 44 -42 97 -46 116 l-7 35 26 -37 c54 -77 210 -168 351 -204 100
-26 376 -26 495 0 260 57 528 186 735 356 174 143 315 341 371 523 10 31 20
57 22 57 3 0 2 -46 -1 -102z"/>
<path d="M1375 1497 c-58 -28 -129 -102 -146 -154 -6 -19 -9 -58 -7 -85 9 -85
65 -139 152 -146 72 -6 142 18 199 69 111 97 117 236 14 313 -43 32 -148 34
-212 3z m161 -52 c93 -39 71 -176 -39 -239 -90 -51 -174 -39 -203 29 -32 78
28 173 133 211 49 17 66 17 109 -1z"/>
</g>
</svg>
