<?xml version="1.0" standalone="no"?>
<!DOCTYPE svg PUBLIC "-//W3C//DTD SVG 20010904//EN"
 "http://www.w3.org/TR/2001/REC-SVG-20010904/DTD/svg10.dtd">
<svg version="1.0" xmlns="http://www.w3.org/2000/svg"
 width="145.000000pt" height="162.000000pt" viewBox="0 0 145.000000 162.000000"
 preserveAspectRatio="xMidYMid meet">
<metadata>
Created by potrace 1.16, written by Peter Selinger 2001-2019
</metadata>
<g transform="translate(0.000000,162.000000) scale(0.100000,-0.100000)"
fill="#000000" stroke="none">
<path d="M613 1608 c-4 -7 -27 -110 -50 -228 -23 -118 -45 -225 -48 -237 -5
-22 -8 -23 -198 -25 l-192 -3 0 -25 0 -25 188 -3 c173 -2 188 -4 183 -20 -3
-9 -26 -124 -52 -254 l-47 -238 -198 0 -199 0 0 -25 0 -25 196 0 c181 0 195
-1 190 -17 -16 -58 -87 -438 -84 -456 2 -14 10 -22 23 -22 18 0 25 23 70 247
l49 248 218 0 c120 0 218 -4 218 -8 0 -4 -20 -113 -45 -240 -25 -128 -43 -237
-40 -242 10 -16 43 -11 49 8 3 9 23 114 46 232 23 118 43 223 46 233 5 15 23
17 194 17 191 0 205 3 193 38 -4 9 -50 12 -189 12 -101 0 -184 3 -184 7 0 10
90 465 96 485 5 16 26 18 202 20 l197 3 0 25 0 25 -193 3 c-178 2 -193 4 -188
20 15 52 86 439 84 456 -2 13 -10 21 -23 21 -18 0 -25 -23 -70 -247 l-50 -248
-217 0 c-121 0 -218 4 -218 9 0 5 21 111 46 236 25 125 43 233 40 241 -7 17
-32 18 -43 2z m376 -560 c0 -7 -21 -121 -47 -253 l-48 -240 -220 -3 -221 -2
32 162 c18 90 41 205 50 256 l17 92 219 0 c169 0 219 -3 218 -12z"/>
</g>
</svg>
