<?xml version="1.0" standalone="no"?>
<!DOCTYPE svg PUBLIC "-//W3C//DTD SVG 20010904//EN"
 "http://www.w3.org/TR/2001/REC-SVG-20010904/DTD/svg10.dtd">
<svg version="1.0" xmlns="http://www.w3.org/2000/svg"
 width="172.000000pt" height="130.000000pt" viewBox="0 0 172.000000 130.000000"
 preserveAspectRatio="xMidYMid meet">
<metadata>
Created by potrace 1.16, written by Peter Selinger 2001-2019
</metadata>
<g transform="translate(0.000000,130.000000) scale(0.100000,-0.100000)"
fill="#000000" stroke="none">
<path d="M1050 1282 c0 -9 130 -147 290 -307 160 -159 290 -293 290 -297 0 -5
-366 -9 -812 -10 -715 -3 -813 -5 -813 -18 0 -13 99 -16 812 -20 l813 -5 -288
-294 c-158 -162 -287 -301 -287 -309 0 -9 5 -17 10 -19 12 -4 650 632 650 647
0 5 -141 153 -313 330 -300 306 -352 351 -352 302z"/>
</g>
</svg>
