<?xml version="1.0" standalone="no"?>
<!DOCTYPE svg PUBLIC "-//W3C//DTD SVG 20010904//EN"
 "http://www.w3.org/TR/2001/REC-SVG-20010904/DTD/svg10.dtd">
<svg version="1.0" xmlns="http://www.w3.org/2000/svg"
 width="124.000000pt" height="200.000000pt" viewBox="0 0 124.000000 200.000000"
 preserveAspectRatio="xMidYMid meet">
<metadata>
Created by potrace 1.16, written by Peter Selinger 2001-2019
</metadata>
<g transform="translate(0.000000,200.000000) scale(0.100000,-0.100000)"
fill="#000000" stroke="none">
<path d="M80 1985 c-18 -22 -6 -175 20 -250 53 -155 197 -262 398 -297 l69
-12 17 -95 c9 -53 16 -148 16 -213 l0 -118 -282 0 c-158 0 -290 -4 -298 -10
-12 -7 -14 -35 -11 -157 1 -82 7 -154 13 -160 6 -7 30 -13 54 -13 29 0 44 -4
44 -12 0 -53 73 -565 84 -592 8 -19 23 -39 34 -45 14 -7 143 -11 385 -11 352
0 365 1 390 21 35 26 40 51 77 329 45 347 35 310 80 310 20 0 42 6 48 13 12
14 20 296 9 315 -6 9 -77 12 -298 12 l-289 0 0 119 0 119 68 7 c147 15 277 78
368 177 62 68 91 140 104 260 11 94 7 127 -13 129 -140 10 -290 -41 -395 -136
-61 -55 -115 -156 -136 -255 -8 -36 -15 -59 -15 -52 -5 77 -27 220 -42 272
-35 122 -125 243 -218 293 -91 50 -258 80 -281 52z m148 -50 c86 -20 137 -48
194 -107 75 -77 147 -250 136 -329 l-3 -26 -65 13 c-236 47 -351 170 -375 402
l-7 62 29 0 c15 0 56 -7 91 -15z m912 -207 c-1 -129 -54 -249 -142 -321 -81
-66 -212 -117 -300 -117 l-38 0 6 43 c11 77 33 156 58 206 63 123 232 225 384
230 31 1 32 0 32 -41z m48 -900 l-3 -123 -561 -3 -561 -2 -7 37 c-3 21 -6 77
-6 126 l0 87 570 0 571 0 -3 -122z m-108 -193 c0 -14 -16 -143 -35 -287 -33
-248 -37 -264 -61 -285 -25 -23 -27 -23 -363 -23 -308 0 -341 2 -360 18 -25
19 -28 37 -66 342 -14 113 -27 217 -30 233 l-4 27 459 0 460 0 0 -25z"/>
</g>
</svg>
