<?xml version="1.0" standalone="no"?>
<!DOCTYPE svg PUBLIC "-//W3C//DTD SVG 20010904//EN"
 "http://www.w3.org/TR/2001/REC-SVG-20010904/DTD/svg10.dtd">
<svg version="1.0" xmlns="http://www.w3.org/2000/svg"
 width="188.000000pt" height="187.000000pt" viewBox="0 0 188.000000 187.000000"
 preserveAspectRatio="xMidYMid meet">
<metadata>
Created by potrace 1.16, written by Peter Selinger 2001-2019
</metadata>
<g transform="translate(0.000000,187.000000) scale(0.100000,-0.100000)"
fill="#000000" stroke="none">
<path d="M350 1845 c-17 -18 -25 -40 -28 -79 l-4 -53 -112 -5 c-76 -4 -122
-10 -144 -22 -65 -34 -63 5 -60 -845 3 -753 3 -769 23 -791 45 -51 26 -50 912
-50 786 0 830 1 869 19 77 35 74 3 74 829 0 450 -4 741 -10 763 -6 19 -22 46
-36 60 -24 22 -35 24 -144 28 l-118 3 -4 54 c-6 71 -33 108 -80 112 -26 2 -43
-3 -64 -21 -23 -20 -28 -33 -32 -85 l-4 -62 -444 0 -444 0 0 60 c0 51 -4 65
-25 85 -34 35 -93 34 -125 0z m94 -37 c25 -35 23 -238 -2 -268 -14 -18 -25
-22 -45 -16 l-27 6 0 138 c0 142 5 162 41 162 10 0 25 -10 33 -22z m1064 10
c8 -8 12 -53 12 -138 0 -115 -2 -129 -21 -146 -15 -14 -24 -16 -37 -8 -14 9
-17 32 -20 144 -3 136 3 160 37 160 9 0 22 -5 29 -12z m-1188 -223 c0 -83 25
-115 90 -115 65 0 90 32 90 115 l0 65 445 0 445 0 0 -65 c0 -57 3 -69 25 -90
26 -27 72 -33 106 -15 29 16 49 64 49 121 l0 51 111 -4 c150 -5 149 -4 149
-184 l0 -134 -895 0 -896 0 2 108 c0 59 3 124 6 145 7 55 35 66 166 67 l107 0
0 -65z m1510 -894 l0 -600 -24 -28 -24 -28 -804 -3 c-441 -2 -822 0 -845 3
-23 3 -52 14 -65 25 l-23 18 -3 606 -3 606 895 0 896 0 0 -599z"/>
<path d="M825 1074 c-48 -18 -99 -65 -128 -119 -17 -32 -22 -57 -22 -125 0
-96 17 -140 77 -197 46 -44 97 -63 170 -63 94 0 177 44 216 115 11 20 11 20
12 -2 0 -46 -22 -178 -37 -217 -42 -107 -111 -166 -194 -166 -53 0 -120 38
-149 85 -19 30 -24 33 -40 22 -19 -11 -19 -13 4 -52 32 -54 99 -95 169 -102
114 -12 211 66 257 207 72 217 36 486 -76 578 -63 52 -174 67 -259 36z m181
-44 c18 -6 48 -29 68 -50 111 -124 45 -336 -114 -361 -136 -21 -240 68 -240
207 1 161 132 255 286 204z"/>
</g>
</svg>
