<?xml version="1.0" standalone="no"?>
<!DOCTYPE svg PUBLIC "-//W3C//DTD SVG 20010904//EN"
 "http://www.w3.org/TR/2001/REC-SVG-20010904/DTD/svg10.dtd">
<svg version="1.0" xmlns="http://www.w3.org/2000/svg"
 width="218.000000pt" height="193.000000pt" viewBox="0 0 218.000000 193.000000"
 preserveAspectRatio="xMidYMid meet">
<metadata>
Created by potrace 1.16, written by Peter Selinger 2001-2019
</metadata>
<g transform="translate(0.000000,193.000000) scale(0.100000,-0.100000)"
fill="#000000" stroke="none">
<path d="M1191 1893 c-6 -21 -24 -58 -41 -83 -16 -25 -30 -55 -30 -68 0 -12
18 -54 39 -92 22 -38 42 -78 46 -89 3 -12 13 -21 21 -21 25 0 16 46 -21 107
-43 71 -44 99 -4 169 30 55 36 104 12 111 -7 3 -16 -12 -22 -34z"/>
<path d="M1470 1905 c-5 -14 -10 -28 -10 -30 0 -2 -16 -30 -35 -62 -19 -32
-35 -67 -35 -77 0 -10 18 -50 39 -87 22 -37 42 -77 46 -89 4 -12 12 -19 18
-17 24 7 17 46 -17 103 -20 33 -36 71 -36 86 0 15 16 57 36 92 19 36 34 73 32
82 -5 28 -27 28 -38 -1z"/>
<path d="M1085 1435 c-122 -17 -219 -46 -251 -76 -23 -22 -24 -28 -24 -158 l0
-136 -127 0 c-107 0 -139 -4 -198 -23 -114 -38 -184 -81 -265 -162 -65 -65
-79 -85 -105 -155 -31 -83 -40 -190 -22 -262 7 -26 5 -32 -10 -37 -10 -3 -33
-19 -51 -35 -38 -36 -43 -87 -13 -137 71 -116 361 -213 730 -245 175 -15 572
-6 716 15 293 43 512 119 585 203 44 50 42 109 -5 162 -53 59 -180 120 -332
160 -48 13 -50 17 -24 48 16 19 35 24 127 33 178 16 262 70 326 207 39 82 48
185 24 267 -36 122 -143 185 -292 171 l-74 -7 0 37 c0 62 -62 99 -210 125 -97
17 -396 20 -505 5z m503 -49 c86 -15 172 -48 172 -66 0 -15 -56 -37 -143 -56
-202 -44 -672 -19 -754 41 -16 12 -14 15 16 33 104 63 478 88 709 48z m-569
-167 c212 -37 548 -24 690 26 24 8 45 15 47 15 7 0 4 -196 -6 -311 -11 -139
-44 -252 -95 -327 -32 -47 -40 -53 -63 -48 -54 12 -178 25 -233 26 l-56 0 -12
58 c-34 172 -181 321 -373 377 -65 19 -68 23 -68 142 l0 83 27 -11 c15 -5 79
-19 142 -30z m1016 -12 c155 -88 129 -384 -43 -484 -52 -31 -138 -53 -208 -53
l-51 0 16 50 16 50 58 0 c101 0 162 38 203 125 27 56 31 135 11 175 -21 41
-70 66 -141 74 -90 9 -96 12 -96 52 l0 34 98 0 c82 0 103 -4 137 -23z m-78
-118 c55 -20 67 -100 28 -182 -28 -59 -76 -90 -147 -95 l-61 -5 6 39 c4 22 10
90 13 152 l7 112 66 -6 c36 -4 76 -11 88 -15z m-1088 -85 c156 -40 293 -143
349 -261 24 -51 27 -70 27 -158 0 -123 -21 -172 -106 -256 -114 -112 -286
-166 -504 -156 -128 6 -191 20 -277 60 -122 56 -194 139 -224 257 -21 81 -9
166 36 256 61 124 227 238 392 269 84 16 219 11 307 -11z m656 -463 c371 -56
601 -197 484 -296 -96 -80 -314 -148 -604 -187 -123 -16 -612 -16 -740 0 -236
31 -464 99 -558 168 -78 57 -87 109 -25 151 l32 22 32 -48 c68 -100 191 -177
334 -207 97 -20 346 -14 435 11 129 36 234 104 302 195 43 58 50 59 200 35
134 -22 241 -58 307 -106 40 -29 61 -38 68 -31 17 17 3 38 -46 71 -87 60 -235
104 -395 117 -45 4 -81 8 -81 9 0 1 4 15 9 31 5 16 12 41 15 57 6 25 10 27 54
27 26 0 106 -9 177 -19z"/>
<path d="M599 837 c-92 -35 -150 -94 -167 -175 -18 -77 14 -154 86 -209 55
-42 111 -56 192 -51 248 18 329 298 119 412 -63 35 -170 45 -230 23z m152 -38
c104 -22 176 -124 150 -211 -27 -89 -107 -142 -216 -142 -80 0 -135 23 -178
74 -83 98 -16 246 128 281 44 10 59 10 116 -2z"/>
</g>
</svg>
