<?xml version="1.0" standalone="no"?>
<!DOCTYPE svg PUBLIC "-//W3C//DTD SVG 20010904//EN"
 "http://www.w3.org/TR/2001/REC-SVG-20010904/DTD/svg10.dtd">
<svg version="1.0" xmlns="http://www.w3.org/2000/svg"
 width="120.000000pt" height="255.000000pt" viewBox="0 0 120.000000 255.000000"
 preserveAspectRatio="xMidYMid meet">
<metadata>
Created by potrace 1.16, written by Peter Selinger 2001-2019
</metadata>
<g transform="translate(0.000000,255.000000) scale(0.100000,-0.100000)"
fill="#000000" stroke="none">
<path d="M529 2537 c-159 -45 -244 -231 -170 -375 53 -103 132 -152 247 -152
59 0 81 5 125 28 129 67 181 226 118 359 -23 48 -86 109 -134 129 -50 20 -134
25 -186 11z m199 -70 c65 -43 96 -97 100 -178 4 -59 1 -74 -24 -118 -63 -117
-204 -154 -320 -86 -66 39 -98 93 -102 174 -6 103 35 177 121 220 62 32 168
26 225 -12z"/>
<path d="M224 1924 c-57 -21 -118 -75 -146 -132 -23 -47 -23 -49 -23 -422 0
-357 1 -377 20 -409 32 -55 69 -76 131 -76 l54 0 0 -417 0 -417 -127 -3 c-110
-3 -128 -5 -131 -20 -2 -13 7 -18 40 -23 24 -3 293 -5 598 -3 547 3 555 3 555
23 0 19 -8 20 -127 23 l-128 3 0 413 0 414 55 4 c63 5 100 28 130 79 19 32 20
55 23 378 2 227 -1 361 -8 397 -15 71 -61 131 -130 169 l-55 30 -345 2 c-284
2 -352 -1 -386 -13z m763 -58 c29 -16 64 -46 80 -69 l28 -40 3 -373 c3 -440 4
-438 -93 -458 -61 -12 -60 -18 -65 341 -4 283 -7 328 -20 328 -13 0 -15 -94
-18 -772 l-2 -773 -135 0 -135 0 -2 468 c-3 459 -3 467 -23 467 -20 0 -20 -8
-23 -467 l-2 -468 -135 0 -135 0 -2 773 c-3 764 -3 772 -23 772 -20 0 -20 -8
-23 -324 -1 -222 -6 -329 -14 -338 -7 -9 -22 -11 -47 -7 -102 19 -101 15 -101
445 0 348 1 364 21 406 12 24 37 55 56 70 63 48 101 52 443 50 l315 -2 52 -29z"/>
</g>
</svg>
