<?xml version="1.0" standalone="no"?>
<!DOCTYPE svg PUBLIC "-//W3C//DTD SVG 20010904//EN"
 "http://www.w3.org/TR/2001/REC-SVG-20010904/DTD/svg10.dtd">
<svg version="1.0" xmlns="http://www.w3.org/2000/svg"
 width="167.000000pt" height="169.000000pt" viewBox="0 0 167.000000 169.000000"
 preserveAspectRatio="xMidYMid meet">
<metadata>
Created by potrace 1.16, written by Peter Selinger 2001-2019
</metadata>
<g transform="translate(0.000000,169.000000) scale(0.100000,-0.100000)"
fill="#000000" stroke="none">
<path d="M731 1680 c-197 -28 -378 -122 -512 -268 -138 -150 -206 -315 -216
-527 -12 -244 76 -471 248 -643 172 -171 376 -251 613 -239 166 8 285 45 412
128 185 121 301 274 359 475 131 451 -140 936 -590 1053 -91 24 -226 33 -314
21z m294 -70 c140 -36 233 -89 349 -199 109 -105 178 -217 218 -358 32 -111
32 -305 0 -416 -94 -329 -370 -554 -714 -583 -378 -32 -739 253 -814 643 -50
264 30 531 215 713 195 192 478 268 746 200z"/>
<path d="M1137 1068 c-33 -18 -77 -48 -99 -68 -35 -31 -38 -37 -25 -48 12 -10
22 -6 57 23 23 19 70 49 106 65 64 31 85 60 42 60 -13 0 -49 -15 -81 -32z"/>
<path d="M420 1075 c0 -10 26 -28 66 -46 37 -16 84 -43 106 -61 36 -28 41 -29
55 -15 14 14 11 18 -28 47 -48 36 -159 90 -184 90 -8 0 -15 -7 -15 -15z"/>
<path d="M1115 895 c-30 -29 -32 -58 -5 -85 20 -20 65 -26 86 -12 13 9 34 46
34 62 0 19 -48 60 -70 60 -11 0 -32 -11 -45 -25z"/>
<path d="M445 880 c-56 -62 36 -149 95 -90 11 11 20 31 20 45 0 56 -77 86
-115 45z"/>
<path d="M655 537 c-55 -18 -83 -34 -133 -75 -39 -31 -42 -36 -29 -50 13 -13
19 -11 49 11 19 15 61 39 93 54 54 25 70 28 165 27 139 0 206 -16 279 -65 63
-42 81 -47 81 -24 0 21 -94 80 -170 106 -80 28 -271 37 -335 16z"/>
</g>
</svg>
