<?xml version="1.0" standalone="no"?>
<!DOCTYPE svg PUBLIC "-//W3C//DTD SVG 20010904//EN"
 "http://www.w3.org/TR/2001/REC-SVG-20010904/DTD/svg10.dtd">
<svg version="1.0" xmlns="http://www.w3.org/2000/svg"
 width="202.000000pt" height="204.000000pt" viewBox="0 0 202.000000 204.000000"
 preserveAspectRatio="xMidYMid meet">
<metadata>
Created by potrace 1.16, written by Peter Selinger 2001-2019
</metadata>
<g transform="translate(0.000000,204.000000) scale(0.100000,-0.100000)"
fill="#000000" stroke="none">
<path d="M112 2024 c-26 -18 -52 -64 -52 -92 0 -10 70 -253 155 -539 134 -453
154 -529 152 -581 -2 -54 1 -64 26 -90 16 -17 42 -33 59 -36 26 -5 29 -9 24
-28 -3 -13 -31 -129 -62 -258 -31 -129 -58 -236 -59 -238 -4 -4 -166 60 -256
101 -76 35 -108 36 -96 2 8 -18 125 -75 270 -129 530 -197 1127 -174 1635 64
95 45 112 57 110 74 -2 12 -10 20 -18 19 -8 -1 -75 -29 -148 -63 -73 -33 -136
-59 -141 -56 -5 3 -12 18 -15 33 -4 16 -32 126 -62 246 -31 120 -55 219 -53
220 2 1 24 9 49 17 89 30 107 136 31 187 -31 21 -46 23 -151 23 l-116 0 -37
178 c-21 97 -37 181 -37 185 0 5 21 5 48 2 33 -5 53 -14 69 -32 13 -16 27 -24
37 -20 24 9 19 40 -10 68 l-26 24 -475 5 -476 5 -74 245 c-130 434 -131 437
-159 459 -33 26 -109 28 -142 5z m118 -49 c5 -6 39 -108 74 -226 170 -566 246
-826 246 -837 0 -8 -22 -12 -68 -12 l-68 0 -154 516 c-131 442 -151 519 -141
540 18 40 84 52 111 19z m1066 -858 c17 -78 34 -159 38 -180 l7 -37 -367 2
-368 3 -53 180 c-29 99 -53 180 -53 180 0 0 172 -1 382 -3 l383 -3 31 -142z
m342 -283 c28 -19 29 -57 2 -84 -20 -20 -33 -20 -596 -20 -373 0 -582 4 -594
10 -31 17 -41 44 -29 79 l11 31 592 0 c519 0 594 -2 614 -16z m-112 -168 c3
-8 34 -125 68 -261 70 -277 73 -251 -26 -279 -269 -77 -607 -95 -883 -47 -127
22 -264 56 -275 68 -4 4 22 126 57 271 l65 262 494 0 c416 0 495 -2 500 -14z"/>
</g>
</svg>
