<?xml version="1.0" standalone="no"?>
<!DOCTYPE svg PUBLIC "-//W3C//DTD SVG 20010904//EN"
 "http://www.w3.org/TR/2001/REC-SVG-20010904/DTD/svg10.dtd">
<svg version="1.0" xmlns="http://www.w3.org/2000/svg"
 width="201.000000pt" height="200.000000pt" viewBox="0 0 201.000000 200.000000"
 preserveAspectRatio="xMidYMid meet">
<metadata>
Created by potrace 1.16, written by Peter Selinger 2001-2019
</metadata>
<g transform="translate(0.000000,200.000000) scale(0.100000,-0.100000)"
fill="#000000" stroke="none">
<path d="M1147 1993 c-4 -3 -7 -73 -7 -154 l0 -148 -402 -3 -403 -3 -78 -37
c-127 -61 -209 -162 -242 -299 -11 -50 -15 -133 -15 -376 0 -278 2 -313 17
-328 15 -16 56 -17 465 -14 l448 4 0 -306 c0 -224 3 -308 12 -317 13 -13 252
-18 282 -6 14 5 16 43 16 315 l0 309 366 0 c233 0 372 4 385 10 18 10 19 25
19 339 0 270 -3 337 -16 382 -55 186 -198 315 -363 327 l-66 4 3 140 c2 96 -1
144 -9 154 -9 11 -51 14 -209 14 -108 0 -200 -3 -203 -7z m373 -168 l0 -135
-123 0 c-82 0 -127 -4 -135 -12 -9 -9 -12 -68 -12 -205 l0 -193 -30 0 -29 0
-3 333 c-2 182 -2 335 0 340 2 4 77 7 168 7 l164 0 0 -135z m-931 -219 c140
-72 231 -231 231 -403 l0 -63 -267 -2 c-260 -3 -268 -4 -268 -23 0 -19 8 -20
268 -23 l267 -2 0 -205 0 -205 -385 0 -385 0 0 313 c0 345 4 379 62 469 78
123 189 180 338 175 69 -3 95 -9 139 -31z m551 -152 l0 -185 -31 -39 c-78 -97
-25 -226 98 -237 85 -7 153 58 153 146 0 46 -28 104 -55 115 -13 4 -15 37 -15
196 l0 191 203 -3 c191 -3 205 -4 252 -28 101 -49 191 -176 215 -300 6 -29 10
-183 10 -342 l0 -290 -550 4 -550 3 0 272 c0 395 -20 472 -156 611 l-72 72
249 0 249 0 0 -186z m132 -235 c11 -6 26 -25 33 -42 43 -103 -79 -185 -157
-107 -27 28 -30 36 -25 73 10 72 85 110 149 76z m-72 -874 l0 -295 -110 0
-110 0 0 295 0 295 110 0 110 0 0 -295z"/>
</g>
</svg>
