<?xml version="1.0" standalone="no"?>
<!DOCTYPE svg PUBLIC "-//W3C//DTD SVG 20010904//EN"
 "http://www.w3.org/TR/2001/REC-SVG-20010904/DTD/svg10.dtd">
<svg version="1.0" xmlns="http://www.w3.org/2000/svg"
 width="228.000000pt" height="167.000000pt" viewBox="0 0 228.000000 167.000000"
 preserveAspectRatio="xMidYMid meet">
<metadata>
Created by potrace 1.16, written by Peter Selinger 2001-2019
</metadata>
<g transform="translate(0.000000,167.000000) scale(0.100000,-0.100000)"
fill="#000000" stroke="none">
<path d="M748 1655 c-18 -10 -44 -50 -83 -127 -67 -131 -80 -148 -112 -148
-20 0 -23 5 -23 38 0 21 -4 42 -9 48 -6 5 -76 7 -173 4 l-163 -5 -3 -42 c-3
-39 -6 -43 -30 -43 -45 -1 -107 -35 -130 -72 -22 -35 -22 -39 -22 -619 0 -565
1 -585 20 -617 11 -18 34 -41 52 -52 32 -20 53 -20 1068 -20 1020 0 1035 0
1068 20 19 12 41 38 52 63 19 40 20 71 20 602 l0 561 -22 44 c-41 80 -57 84
-333 90 l-240 5 -61 120 c-92 179 -51 165 -488 165 -295 -1 -366 -3 -388 -15z
m753 -46 c11 -5 45 -61 75 -122 81 -167 60 -157 335 -157 186 0 236 -3 259
-15 61 -32 60 -20 60 -630 0 -595 0 -598 -49 -625 -13 -7 -361 -10 -1046 -10
l-1027 0 -29 29 c-34 34 -31 -36 -30 724 0 316 4 463 11 478 23 42 65 49 303
49 270 0 253 -8 334 153 30 62 63 117 72 124 21 16 702 18 732 2z m-1021 -209
c0 -19 -7 -20 -125 -20 -118 0 -125 1 -125 20 0 19 7 20 125 20 118 0 125 -1
125 -20z"/>
<path d="M1030 1225 c-191 -43 -346 -190 -395 -376 -22 -79 -19 -214 5 -291
79 -258 359 -418 615 -353 284 72 455 346 390 624 -22 93 -70 177 -145 252
-126 127 -303 182 -470 144z m203 -50 c91 -19 159 -57 233 -130 213 -210 185
-543 -60 -717 -219 -155 -517 -96 -666 134 -53 82 -73 164 -68 280 3 82 8 103
40 168 43 90 89 146 163 194 115 77 227 99 358 71z"/>
<path d="M1824 1086 c-38 -38 -45 -86 -19 -135 14 -28 68 -61 99 -61 35 0 85
30 100 59 27 51 21 98 -18 137 -29 29 -41 34 -81 34 -40 0 -52 -5 -81 -34z
m126 -36 c28 -28 25 -64 -6 -89 -15 -12 -32 -21 -39 -21 -24 0 -65 41 -65 66
0 31 33 64 65 64 14 0 34 -9 45 -20z"/>
</g>
</svg>
