<?xml version="1.0" standalone="no"?>
<!DOCTYPE svg PUBLIC "-//W3C//DTD SVG 20010904//EN"
 "http://www.w3.org/TR/2001/REC-SVG-20010904/DTD/svg10.dtd">
<svg version="1.0" xmlns="http://www.w3.org/2000/svg"
 width="177.000000pt" height="195.000000pt" viewBox="0 0 177.000000 195.000000"
 preserveAspectRatio="xMidYMid meet">
<metadata>
Created by potrace 1.16, written by Peter Selinger 2001-2019
</metadata>
<g transform="translate(0.000000,195.000000) scale(0.100000,-0.100000)"
fill="#000000" stroke="none">
<path d="M773 1936 c-23 -8 -64 -29 -90 -48 -26 -20 -160 -105 -298 -191 -326
-203 -332 -207 -361 -272 l-25 -54 3 -403 c3 -385 4 -405 24 -449 43 -93 66
-110 414 -312 52 -30 145 -84 206 -120 124 -73 164 -87 245 -87 93 0 93 0 619
308 80 47 164 104 186 126 71 70 74 91 74 535 0 241 -4 400 -11 424 -22 82
-79 125 -484 373 -299 182 -303 184 -389 183 -39 0 -90 -6 -113 -13z m193 -42
c55 -23 143 -75 427 -252 244 -152 307 -195 297 -205 -9 -9 -460 -290 -627
-390 -88 -53 -169 -97 -178 -97 -17 0 -109 54 -495 290 -102 62 -216 131 -253
153 l-68 40 23 23 c22 23 188 131 338 222 41 25 130 81 198 125 68 44 140 86
160 93 51 18 132 17 178 -2z m759 -526 c3 -18 5 -211 3 -428 l-3 -395 -27 -46
c-32 -55 -63 -76 -318 -221 -102 -58 -228 -131 -280 -162 -86 -51 -144 -76
-177 -76 -10 0 -13 93 -13 434 l0 434 193 116 c105 64 284 174 397 245 113 71
208 130 212 130 4 1 10 -14 13 -31z m-1484 -85 c90 -54 269 -163 396 -243
l233 -144 0 -428 c0 -482 7 -444 -76 -414 -66 24 -606 341 -657 386 -94 83
-92 70 -95 515 -2 215 0 401 3 413 3 14 11 22 19 19 7 -3 87 -50 177 -104z"/>
<path d="M855 1545 c-5 -2 -22 -6 -37 -9 -14 -3 -40 -20 -57 -37 -24 -24 -31
-39 -31 -71 0 -78 81 -121 197 -103 118 18 154 148 55 199 -28 14 -109 28
-127 21z m114 -63 c63 -47 21 -113 -77 -119 -98 -7 -149 44 -107 105 31 44
134 52 184 14z"/>
<path d="M1452 1040 c-90 -55 -107 -193 -28 -241 38 -23 70 -18 108 18 64 61
75 180 21 223 -32 25 -59 25 -101 0z m88 -45 c32 -38 -23 -175 -70 -175 -44 0
-63 70 -36 134 22 52 78 74 106 41z"/>
<path d="M1149 577 c-71 -48 -97 -123 -64 -187 35 -68 158 -42 201 42 23 44
14 126 -16 150 -30 25 -80 23 -121 -5z m91 -37 c31 -31 26 -76 -14 -116 -35
-35 -63 -42 -97 -24 -39 22 -15 109 40 143 34 22 47 21 71 -3z"/>
<path d="M211 1061 c-24 -24 -35 -79 -26 -128 10 -55 72 -113 119 -113 121 0
113 185 -11 249 -32 16 -60 14 -82 -8z m100 -60 c29 -29 39 -47 39 -70 0 -63
-32 -87 -81 -61 -44 24 -64 116 -32 152 23 25 30 23 74 -21z"/>
<path d="M522 557 c-26 -27 -29 -90 -8 -140 34 -82 132 -115 175 -61 32 41 29
123 -5 164 -52 62 -124 78 -162 37z m114 -51 c55 -55 42 -142 -21 -134 -36 4
-65 43 -72 96 -10 77 36 95 93 38z"/>
</g>
</svg>
