<?xml version="1.0" standalone="no"?>
<!DOCTYPE svg PUBLIC "-//W3C//DTD SVG 20010904//EN"
 "http://www.w3.org/TR/2001/REC-SVG-20010904/DTD/svg10.dtd">
<svg version="1.0" xmlns="http://www.w3.org/2000/svg"
 width="212.000000pt" height="229.000000pt" viewBox="0 0 212.000000 229.000000"
 preserveAspectRatio="xMidYMid meet">
<metadata>
Created by potrace 1.16, written by Peter Selinger 2001-2019
</metadata>
<g transform="translate(0.000000,229.000000) scale(0.100000,-0.100000)"
fill="#000000" stroke="none">
<path d="M894 2271 c-284 -77 -474 -323 -474 -612 0 -304 205 -566 495 -635
137 -32 317 -3 439 71 141 85 235 206 292 375 28 85 26 282 -3 375 -62 195
-221 355 -413 416 -95 31 -244 35 -336 10z m291 -46 c99 -26 181 -73 264 -155
129 -126 177 -254 168 -445 -5 -119 -28 -198 -81 -290 -59 -101 -197 -209
-316 -249 -64 -21 -95 -26 -176 -27 -237 -2 -457 158 -543 395 -23 64 -25 85
-25 211 1 127 3 146 26 202 74 178 229 315 404 357 79 19 206 19 279 1z"/>
<path d="M1254 1788 c-63 -29 -35 -130 31 -114 34 9 52 48 37 80 -15 33 -41
46 -68 34z"/>
<path d="M757 1772 c-35 -38 -9 -102 40 -102 45 0 71 71 37 104 -21 21 -57 20
-77 -2z"/>
<path d="M931 1464 c-56 -20 -120 -60 -128 -80 -3 -8 0 -21 7 -29 10 -12 17
-11 45 11 79 60 205 81 294 49 23 -8 61 -28 85 -45 40 -29 76 -33 76 -8 0 17
-55 61 -110 86 -70 33 -201 41 -269 16z"/>
<path d="M895 749 c-211 -22 -393 -94 -489 -195 l-42 -44 -180 -2 c-177 -3
-179 -3 -182 -25 l-3 -23 169 0 170 0 -5 -60 c-5 -50 -2 -67 21 -113 67 -138
210 -214 500 -268 140 -25 367 -21 480 10 217 60 333 150 367 284 6 26 13 47
14 47 1 0 19 -7 38 -15 53 -22 329 -22 351 1 17 16 22 54 8 54 -5 0 -23 -7
-41 -16 -27 -13 -56 -15 -164 -12 -143 5 -162 10 -170 38 -7 27 42 41 160 47
121 7 179 -2 186 -27 7 -27 37 -15 37 14 0 47 -11 51 -155 54 -117 3 -144 1
-197 -17 -34 -12 -62 -20 -63 -18 -1 1 -7 20 -13 42 -26 89 -107 150 -273 203
-153 49 -319 62 -524 41z m479 -74 c244 -72 315 -165 275 -357 -20 -96 -135
-185 -309 -240 -69 -21 -91 -23 -280 -22 -192 1 -211 3 -295 28 -249 75 -375
172 -375 290 0 86 -4 85 198 20 162 -51 181 -59 179 -78 -5 -46 199 -85 276
-53 43 19 104 88 134 154 l25 55 -19 26 c-35 47 -84 54 -323 47 -118 -3 -255
-9 -305 -14 -49 -5 -92 -7 -94 -5 -12 11 53 60 124 94 139 68 281 91 525 85
154 -3 186 -7 264 -30z m-244 -190 c17 -20 5 -65 -32 -114 -40 -55 -74 -71
-148 -71 -66 0 -160 32 -160 55 0 8 -6 16 -12 19 -7 3 16 4 52 1 226 -18 235
-18 249 -1 18 21 12 23 -129 36 -63 6 -126 13 -140 15 -14 1 -54 5 -90 9 -69
6 -198 30 -206 39 -3 3 21 8 53 12 32 3 65 8 73 9 8 2 119 4 246 5 192 1 234
-2 244 -14z"/>
</g>
</svg>
