<?xml version="1.0" standalone="no"?>
<!DOCTYPE svg PUBLIC "-//W3C//DTD SVG 20010904//EN"
 "http://www.w3.org/TR/2001/REC-SVG-20010904/DTD/svg10.dtd">
<svg version="1.0" xmlns="http://www.w3.org/2000/svg"
 width="199.000000pt" height="198.000000pt" viewBox="0 0 199.000000 198.000000"
 preserveAspectRatio="xMidYMid meet">
<metadata>
Created by potrace 1.16, written by Peter Selinger 2001-2019
</metadata>
<g transform="translate(0.000000,198.000000) scale(0.100000,-0.100000)"
fill="#000000" stroke="none">
<path d="M806 1965 c-305 -63 -560 -259 -695 -531 -75 -152 -104 -277 -104
-444 1 -174 28 -291 104 -444 125 -252 360 -442 639 -518 74 -20 107 -23 260
-22 160 0 182 2 261 27 370 113 628 397 704 776 21 104 16 333 -9 426 -62 226
-192 419 -375 554 -86 64 -234 135 -336 162 -105 28 -347 35 -449 14z m429
-64 c114 -30 266 -107 359 -182 148 -119 268 -304 318 -489 30 -112 32 -348 5
-450 -53 -193 -126 -323 -254 -453 -278 -281 -701 -355 -1061 -186 -258 120
-446 349 -518 629 -15 59 -19 108 -18 230 1 138 4 165 28 243 109 362 400 620
761 677 94 14 288 5 380 -19z"/>
<path d="M977 1803 c-4 -3 -7 -161 -7 -350 0 -289 -2 -343 -14 -343 -8 0 -25
-13 -39 -29 l-24 -29 -148 39 c-124 33 -151 37 -162 26 -25 -25 10 -43 154
-80 78 -21 145 -37 148 -37 3 0 5 -9 5 -21 0 -12 15 -36 34 -55 29 -29 41 -34
80 -34 64 0 106 38 113 100 5 54 -23 106 -62 116 l-25 6 0 333 c0 183 -3 340
-6 349 -6 16 -35 22 -47 9z m71 -755 c21 -18 15 -75 -10 -92 -31 -22 -54 -20
-78 6 -27 29 -25 54 5 84 26 25 52 26 83 2z"/>
</g>
</svg>
