<?xml version="1.0" standalone="no"?>
<!DOCTYPE svg PUBLIC "-//W3C//DTD SVG 20010904//EN"
 "http://www.w3.org/TR/2001/REC-SVG-20010904/DTD/svg10.dtd">
<svg version="1.0" xmlns="http://www.w3.org/2000/svg"
 width="194.000000pt" height="276.000000pt" viewBox="0 0 194.000000 276.000000"
 preserveAspectRatio="xMidYMid meet">
<metadata>
Created by potrace 1.16, written by Peter Selinger 2001-2019
</metadata>
<g transform="translate(0.000000,276.000000) scale(0.100000,-0.100000)"
fill="#000000" stroke="none">
<path d="M1041 2734 c-37 -31 -47 -67 -55 -195 -7 -107 -25 -189 -57 -252 -23
-46 -274 -306 -327 -339 -31 -19 -35 -19 -72 -4 -32 13 -81 16 -241 16 -212 0
-256 -8 -278 -48 -8 -14 -11 -182 -11 -521 l0 -500 24 -28 24 -28 236 0 236 0
26 26 26 27 52 -23 c141 -62 286 -77 701 -73 312 3 332 4 370 24 72 38 108
119 88 197 -11 38 -10 41 27 76 51 48 68 106 51 169 -6 26 -20 55 -31 66 -18
18 -17 19 23 50 50 38 77 87 77 141 0 49 -30 116 -62 141 l-24 18 42 40 c52
51 63 100 40 179 -18 63 -72 118 -133 138 -23 7 -129 14 -275 16 l-238 5 16
31 c69 133 114 390 85 486 -44 144 -248 243 -340 165z m168 -34 c101 -51 145
-122 143 -230 -2 -123 -50 -301 -103 -385 -17 -26 -28 -53 -25 -61 4 -10 64
-13 268 -16 245 -3 266 -4 310 -25 54 -25 84 -66 94 -130 9 -59 -10 -98 -61
-128 -38 -23 -52 -25 -162 -25 -95 0 -122 -3 -126 -14 -3 -8 -3 -17 0 -20 4
-3 58 -6 122 -6 98 0 121 -3 149 -20 98 -60 94 -193 -8 -247 -37 -20 -58 -23
-155 -23 -61 0 -115 -3 -118 -7 -4 -3 -2 -12 4 -20 8 -9 41 -13 118 -13 123 0
144 -9 162 -69 17 -59 5 -103 -41 -145 -48 -43 -57 -45 -195 -49 -90 -2 -110
-5 -110 -17 0 -12 24 -16 135 -20 l135 -5 0 -57 c0 -49 -4 -61 -30 -88 -16
-16 -45 -35 -64 -40 -21 -6 -181 -10 -371 -10 -376 0 -464 9 -617 62 l-93 32
0 483 0 483 43 21 c23 12 104 84 183 163 189 189 216 246 231 483 5 92 9 109
30 134 21 24 32 29 69 29 25 0 62 -9 83 -20z m-698 -790 c18 -10 19 -27 19
-515 0 -488 -1 -505 -19 -515 -12 -6 -103 -10 -226 -10 -205 0 -206 0 -230 25
l-25 24 0 476 0 476 25 24 c24 25 25 25 230 25 123 0 214 -4 226 -10z"/>
<path d="M1303 35 c0 -22 2 -30 4 -17 2 12 2 30 0 40 -3 9 -5 -1 -4 -23z"/>
</g>
</svg>
