<?xml version="1.0" standalone="no"?>
<!DOCTYPE svg PUBLIC "-//W3C//DTD SVG 20010904//EN"
 "http://www.w3.org/TR/2001/REC-SVG-20010904/DTD/svg10.dtd">
<svg version="1.0" xmlns="http://www.w3.org/2000/svg"
 width="176.000000pt" height="280.000000pt" viewBox="0 0 176.000000 280.000000"
 preserveAspectRatio="xMidYMid meet">
<metadata>
Created by potrace 1.16, written by Peter Selinger 2001-2019
</metadata>
<g transform="translate(0.000000,280.000000) scale(0.100000,-0.100000)"
fill="#000000" stroke="none">
<path d="M725 2786 c-181 -36 -334 -117 -464 -245 -335 -330 -347 -870 -28
-1216 171 -186 395 -285 644 -285 176 0 301 33 447 119 198 116 340 306 403
539 35 128 36 314 4 437 -100 382 -428 646 -821 660 -74 3 -140 0 -185 -9z
m307 -40 c281 -54 527 -256 628 -518 182 -472 -86 -998 -576 -1129 -100 -27
-275 -29 -382 -5 -254 57 -463 224 -577 460 -56 117 -74 186 -82 316 -10 172
27 327 113 475 62 106 201 245 304 302 177 99 384 135 572 99z"/>
<path d="M580 2230 c-16 -16 -20 -33 -20 -93 0 -82 15 -107 63 -107 36 0 47
25 47 114 0 66 -3 77 -22 90 -30 21 -44 20 -68 -4z"/>
<path d="M1112 2234 c-20 -13 -22 -24 -22 -94 0 -86 12 -110 55 -110 43 0 55
24 55 110 0 70 -2 81 -22 94 -12 9 -27 16 -33 16 -6 0 -21 -7 -33 -16z"/>
<path d="M476 1711 c-11 -17 59 -105 116 -147 77 -56 154 -84 253 -91 97 -7
173 8 253 48 103 51 211 164 183 192 -8 8 -26 -6 -67 -51 -64 -71 -118 -106
-205 -133 -110 -34 -246 -19 -352 38 -46 26 -147 124 -147 144 0 11 -27 12
-34 0z"/>
<path d="M542 20 c0 -14 2 -19 5 -12 2 6 2 18 0 25 -3 6 -5 1 -5 -13z"/>
</g>
</svg>
