<?xml version="1.0" standalone="no"?>
<!DOCTYPE svg PUBLIC "-//W3C//DTD SVG 20010904//EN"
 "http://www.w3.org/TR/2001/REC-SVG-20010904/DTD/svg10.dtd">
<svg version="1.0" xmlns="http://www.w3.org/2000/svg"
 width="242.000000pt" height="171.000000pt" viewBox="0 0 242.000000 171.000000"
 preserveAspectRatio="xMidYMid meet">
<metadata>
Created by potrace 1.16, written by Peter Selinger 2001-2019
</metadata>
<g transform="translate(0.000000,171.000000) scale(0.100000,-0.100000)"
fill="#000000" stroke="none">
<path d="M1085 1685 c-75 -31 -101 -51 -142 -104 -43 -55 -63 -127 -63 -221 0
-66 4 -86 30 -138 74 -148 241 -214 411 -163 61 19 81 31 129 79 70 70 95 134
93 237 -3 193 -128 323 -318 332 -68 3 -89 0 -140 -22z m238 -35 c226 -85 249
-424 36 -533 -137 -70 -315 -32 -394 85 -90 133 -56 329 72 416 79 54 193 67
286 32z"/>
<path d="M445 1371 c-169 -44 -265 -220 -209 -384 21 -63 83 -130 150 -163 49
-24 62 -26 137 -22 123 7 198 51 252 150 26 46 30 63 30 128 -1 121 -57 215
-159 267 -54 27 -146 39 -201 24z m154 -46 c124 -43 196 -184 160 -312 -17
-62 -96 -143 -155 -161 -181 -53 -343 57 -344 234 0 175 174 298 339 239z"/>
<path d="M1814 1362 c-69 -24 -124 -70 -160 -134 -26 -47 -29 -62 -29 -138 0
-68 5 -93 22 -126 58 -108 128 -155 243 -162 106 -6 165 14 230 79 117 117
120 290 5 405 -86 87 -200 114 -311 76z m196 -43 c71 -32 107 -65 134 -123 46
-97 30 -195 -45 -281 -46 -52 -106 -77 -184 -77 -108 1 -185 50 -231 147 -45
96 -28 202 46 276 76 76 188 100 280 58z"/>
<path d="M1013 956 c-98 -24 -175 -70 -252 -151 l-72 -76 -37 11 c-20 5 -90
10 -155 10 -132 0 -205 -18 -289 -72 -71 -45 -153 -138 -179 -205 -21 -54 -23
-73 -24 -258 0 -171 2 -200 15 -200 13 0 16 31 20 195 7 238 19 279 110 370
110 110 263 157 430 132 45 -6 85 -14 90 -17 6 -4 4 -17 -5 -34 -23 -46 -35
-183 -35 -419 0 -207 1 -223 18 -220 15 3 18 27 23 278 5 210 10 286 22 324
44 134 175 253 322 292 68 19 333 18 401 0 123 -32 245 -132 295 -240 37 -81
48 -174 49 -436 0 -196 8 -263 25 -218 4 9 5 144 3 300 -3 232 -7 290 -20 325
l-17 42 53 12 c30 6 101 10 167 8 106 -4 119 -6 184 -38 109 -54 183 -144 215
-261 7 -27 12 -102 11 -188 -2 -159 4 -212 25 -212 11 0 14 34 14 184 0 152
-3 195 -19 245 -47 150 -157 257 -306 295 -74 20 -233 21 -305 2 -50 -13 -56
-13 -64 2 -5 9 -40 48 -77 85 -74 73 -151 115 -247 136 -70 15 -323 13 -389
-3z"/>
<path d="M856 401 c-4 -5 -9 -90 -12 -188 -5 -182 0 -223 28 -195 18 18 19
383 1 389 -6 2 -14 0 -17 -6z"/>
<path d="M1547 404 c-9 -9 -9 -366 -1 -388 9 -23 31 -19 37 6 8 33 7 274 -1
332 -7 47 -20 65 -35 50z"/>
</g>
</svg>
