<?xml version="1.0" standalone="no"?>
<!DOCTYPE svg PUBLIC "-//W3C//DTD SVG 20010904//EN"
 "http://www.w3.org/TR/2001/REC-SVG-20010904/DTD/svg10.dtd">
<svg version="1.0" xmlns="http://www.w3.org/2000/svg"
 width="209.000000pt" height="138.000000pt" viewBox="0 0 209.000000 138.000000"
 preserveAspectRatio="xMidYMid meet">
<metadata>
Created by potrace 1.16, written by Peter Selinger 2001-2019
</metadata>
<g transform="translate(0.000000,138.000000) scale(0.100000,-0.100000)"
fill="#000000" stroke="none">
<path d="M946 1369 c-33 -5 -95 -26 -144 -50 -116 -56 -202 -142 -261 -261
l-43 -88 -42 0 c-55 0 -157 -25 -208 -51 -94 -48 -185 -160 -220 -272 -27 -87
-27 -230 0 -314 49 -155 169 -269 331 -317 48 -14 136 -16 706 -16 709 0 718
1 815 57 69 41 138 116 173 191 30 62 32 74 32 172 0 86 -5 116 -23 163 -60
148 -193 249 -351 265 l-64 7 -13 57 c-42 183 -178 350 -339 418 -113 46 -218
58 -349 39z m233 -44 c212 -50 366 -210 418 -431 l16 -70 83 -11 c50 -7 104
-22 138 -39 70 -34 149 -116 184 -191 24 -51 27 -70 27 -158 0 -93 -2 -105
-33 -167 -40 -82 -119 -157 -200 -190 l-57 -23 -664 -3 c-725 -3 -714 -4 -823
55 -58 32 -148 123 -178 182 -99 195 -34 463 141 580 75 50 111 61 218 68 71
5 84 8 89 25 18 70 78 166 145 233 133 132 312 183 496 140z"/>
</g>
</svg>
