<?xml version="1.0" standalone="no"?>
<!DOCTYPE svg PUBLIC "-//W3C//DTD SVG 20010904//EN"
 "http://www.w3.org/TR/2001/REC-SVG-20010904/DTD/svg10.dtd">
<svg version="1.0" xmlns="http://www.w3.org/2000/svg"
 width="155.000000pt" height="167.000000pt" viewBox="0 0 155.000000 167.000000"
 preserveAspectRatio="xMidYMid meet">
<metadata>
Created by potrace 1.16, written by Peter Selinger 2001-2019
</metadata>
<g transform="translate(0.000000,167.000000) scale(0.100000,-0.100000)"
fill="#000000" stroke="none">
<path d="M1108 1558 l-3 -113 -256 -2 c-203 -1 -269 -5 -325 -18 -185 -46
-369 -198 -458 -380 -61 -124 -67 -178 -64 -635 3 -376 4 -405 20 -408 17 -3
18 21 18 408 0 463 5 512 67 640 52 109 177 232 293 289 129 64 203 73 493 65
200 -6 240 -5 248 7 5 8 9 54 9 104 l0 90 176 -175 175 -175 -173 -168 -173
-169 -3 91 c-2 80 -5 92 -24 102 -14 8 -92 10 -252 7 -203 -4 -239 -8 -296
-26 -116 -39 -202 -121 -237 -226 -14 -43 -17 -110 -21 -435 -2 -211 -1 -394
2 -407 4 -13 13 -24 20 -24 12 0 15 65 18 407 5 463 5 464 84 552 51 57 122
94 208 110 33 6 149 11 258 11 l198 0 0 -115 c0 -99 2 -115 16 -115 18 0 424
387 424 404 0 18 -404 416 -422 416 -15 0 -18 -14 -20 -112z"/>
</g>
</svg>
