<?xml version="1.0" standalone="no"?>
<!DOCTYPE svg PUBLIC "-//W3C//DTD SVG 20010904//EN"
 "http://www.w3.org/TR/2001/REC-SVG-20010904/DTD/svg10.dtd">
<svg version="1.0" xmlns="http://www.w3.org/2000/svg"
 width="123.000000pt" height="124.000000pt" viewBox="0 0 123.000000 124.000000"
 preserveAspectRatio="xMidYMid meet">
<metadata>
Created by potrace 1.16, written by Peter Selinger 2001-2019
</metadata>
<g transform="translate(0.000000,124.000000) scale(0.100000,-0.100000)"
fill="#000000" stroke="none">
<path d="M455 1225 c-80 -22 -186 -80 -247 -135 -75 -67 -148 -178 -179 -271
-35 -107 -35 -281 0 -388 50 -153 167 -286 316 -361 99 -49 178 -70 270 -70
147 0 343 79 285 115 -6 4 -47 -8 -93 -26 -73 -29 -93 -33 -187 -33 -124 -1
-202 21 -300 84 -163 106 -255 258 -267 441 -21 324 210 590 527 606 295 16
534 -181 587 -482 43 -246 -75 -440 -215 -353 -56 35 -76 92 -67 199 8 102 -3
155 -47 219 -82 123 -246 160 -375 84 -85 -49 -141 -162 -129 -258 20 -155
150 -266 297 -253 67 6 112 26 168 73 30 26 41 31 41 19 0 -32 41 -96 79 -120
84 -56 188 -38 244 42 49 72 60 118 61 253 0 110 -3 134 -26 198 -38 106 -83
177 -163 257 -78 78 -173 134 -271 159 -75 19 -239 20 -309 1z m251 -401 c17
-8 46 -29 63 -46 117 -115 81 -302 -71 -368 -163 -70 -347 79 -314 254 8 41
51 106 90 137 60 47 159 56 232 23z"/>
</g>
</svg>
