<?xml version="1.0" standalone="no"?>
<!DOCTYPE svg PUBLIC "-//W3C//DTD SVG 20010904//EN"
 "http://www.w3.org/TR/2001/REC-SVG-20010904/DTD/svg10.dtd">
<svg version="1.0" xmlns="http://www.w3.org/2000/svg"
 width="196.000000pt" height="203.000000pt" viewBox="0 0 196.000000 203.000000"
 preserveAspectRatio="xMidYMid meet">
<metadata>
Created by potrace 1.16, written by Peter Selinger 2001-2019
</metadata>
<g transform="translate(0.000000,203.000000) scale(0.100000,-0.100000)"
fill="#000000" stroke="none">
<path d="M716 2021 c-4 -5 5 -26 19 -47 40 -59 34 -106 -25 -219 -40 -76 -50
-105 -50 -144 0 -56 33 -114 68 -119 28 -4 28 9 -3 54 -14 20 -25 44 -25 54 0
34 28 106 64 165 35 57 37 64 34 132 -2 54 -9 79 -24 100 -22 30 -48 41 -58
24z"/>
<path d="M1025 2021 c-3 -6 4 -24 16 -40 14 -19 24 -50 27 -83 3 -47 -1 -61
-39 -133 -48 -90 -62 -148 -49 -196 12 -40 47 -79 72 -79 25 0 23 17 -8 53
-38 46 -31 114 22 199 37 60 39 67 39 145 0 67 -4 86 -21 110 -23 30 -48 41
-59 24z"/>
<path d="M157 1343 c-4 -3 -7 -131 -7 -283 0 -315 9 -372 77 -503 52 -100 174
-222 268 -268 l70 -34 -274 -5 c-315 -6 -316 -6 -268 -79 39 -58 109 -107 202
-138 l80 -28 551 -3 c597 -3 635 -1 748 51 98 45 186 146 157 181 -12 14 -50
16 -285 16 l-271 1 45 22 c128 62 234 165 300 289 l31 58 54 0 c79 0 160 34
221 92 68 64 96 128 102 234 5 97 -6 136 -54 193 -53 61 -103 84 -201 89 l-83
5 0 46 c0 26 -5 52 -12 59 -9 9 -185 12 -728 12 -394 0 -720 -3 -723 -7z
m1423 -288 c0 -283 -9 -347 -64 -460 -84 -174 -249 -298 -441 -332 -110 -19
-350 -13 -435 11 -192 54 -353 208 -417 401 -26 78 -27 88 -31 357 l-4 277
696 -2 696 -2 0 -250z m203 119 c55 -19 111 -77 126 -131 51 -184 -72 -360
-267 -380 -54 -6 -54 -6 -47 18 21 64 25 109 25 302 l0 207 58 0 c32 0 79 -7
105 -16z m-79 -988 c-38 -59 -130 -108 -241 -131 -70 -14 -151 -16 -614 -13
-518 4 -536 4 -599 26 -71 23 -164 83 -188 120 l-14 22 836 0 836 0 -16 -24z"/>
</g>
</svg>
