<?xml version="1.0" standalone="no"?>
<!DOCTYPE svg PUBLIC "-//W3C//DTD SVG 20010904//EN"
 "http://www.w3.org/TR/2001/REC-SVG-20010904/DTD/svg10.dtd">
<svg version="1.0" xmlns="http://www.w3.org/2000/svg"
 width="191.000000pt" height="165.000000pt" viewBox="0 0 191.000000 165.000000"
 preserveAspectRatio="xMidYMid meet">
<metadata>
Created by potrace 1.16, written by Peter Selinger 2001-2019
</metadata>
<g transform="translate(0.000000,165.000000) scale(0.100000,-0.100000)"
fill="#000000" stroke="none">
<path d="M175 1641 c-118 -10 -153 -19 -165 -41 -12 -22 -14 -1446 -2 -1454 4
-2 37 3 72 12 50 12 115 16 280 17 190 0 225 -3 303 -22 101 -26 193 -69 254
-119 l42 -35 53 43 c61 49 126 80 236 110 68 19 104 22 302 22 177 1 237 -2
280 -15 30 -9 61 -14 68 -12 9 4 12 158 12 728 0 684 -1 725 -18 734 -29 15
-167 31 -275 31 -253 0 -466 -50 -608 -141 l-46 -29 -67 45 c-146 97 -441 149
-721 126z m409 -56 c145 -26 264 -75 334 -138 l22 -20 0 -679 0 -678 -41 29
c-48 36 -149 75 -244 97 -135 30 -475 29 -592 -2 l-23 -6 0 696 c0 548 3 698
13 701 66 26 385 25 531 0z m1264 0 l22 -7 0 -695 0 -695 -22 6 c-122 34 -463
33 -604 -3 -94 -23 -184 -61 -231 -97 l-33 -25 0 680 0 680 45 31 c89 61 227
108 381 129 74 10 404 7 442 -4z"/>
<path d="M234 1195 c-4 -9 -4 -18 -1 -21 3 -3 119 -6 259 -6 240 0 253 1 253
18 0 18 -14 19 -253 22 -221 2 -253 0 -258 -13z"/>
<path d="M1187 1204 c-4 -4 -7 -13 -7 -21 0 -10 48 -13 251 -13 233 0 250 1
247 18 -3 15 -24 17 -244 20 -132 1 -243 -1 -247 -4z"/>
</g>
</svg>
