<?xml version="1.0" standalone="no"?>
<!DOCTYPE svg PUBLIC "-//W3C//DTD SVG 20010904//EN"
 "http://www.w3.org/TR/2001/REC-SVG-20010904/DTD/svg10.dtd">
<svg version="1.0" xmlns="http://www.w3.org/2000/svg"
 width="174.000000pt" height="169.000000pt" viewBox="0 0 174.000000 169.000000"
 preserveAspectRatio="xMidYMid meet">
<metadata>
Created by potrace 1.16, written by Peter Selinger 2001-2019
</metadata>
<g transform="translate(0.000000,169.000000) scale(0.100000,-0.100000)"
fill="#000000" stroke="none">
<path d="M416 1675 c-192 -53 -349 -214 -401 -410 -19 -76 -19 -204 0 -280 54
-211 226 -375 440 -420 88 -18 132 -18 220 0 103 22 201 73 277 144 128 120
181 240 182 411 0 68 -6 123 -16 156 -61 196 -217 348 -408 399 -68 18 -228
18 -294 0z m317 -63 c141 -50 254 -158 318 -302 21 -49 24 -70 24 -185 0 -120
-2 -135 -28 -196 -54 -128 -170 -238 -304 -289 -81 -31 -228 -39 -309 -15
-221 63 -364 241 -381 470 -11 149 39 277 152 391 73 74 137 112 235 139 75
21 216 14 293 -13z"/>
<path d="M1114 667 c-2 -7 -3 -67 -2 -133 3 -111 4 -119 23 -119 18 0 21 8 25
77 l5 77 98 -89 c98 -91 122 -104 134 -73 5 13 -20 42 -98 115 l-104 98 88 0
c70 0 89 3 94 16 3 8 2 19 -3 23 -5 5 -64 11 -132 15 -98 5 -123 4 -128 -7z"/>
<path d="M1480 375 c0 -31 26 -43 47 -22 21 21 9 47 -22 47 -20 0 -25 -5 -25
-25z"/>
<path d="M1630 320 c0 -33 -3 -40 -20 -40 -13 0 -20 -7 -20 -20 0 -13 7 -20
20 -20 19 0 20 -7 20 -92 0 -119 11 -142 68 -146 37 -3 42 -1 42 17 0 14 -6
21 -18 21 -34 0 -42 21 -42 112 l0 88 30 0 c23 0 30 4 30 20 0 16 -7 20 -30
20 -28 0 -30 2 -30 40 0 36 -2 40 -25 40 -22 0 -25 -4 -25 -40z"/>
<path d="M1480 140 l0 -140 25 0 25 0 0 140 0 140 -25 0 -25 0 0 -140z"/>
</g>
</svg>
