<?xml version="1.0" standalone="no"?>
<!DOCTYPE svg PUBLIC "-//W3C//DTD SVG 20010904//EN"
 "http://www.w3.org/TR/2001/REC-SVG-20010904/DTD/svg10.dtd">
<svg version="1.0" xmlns="http://www.w3.org/2000/svg"
 width="142.000000pt" height="249.000000pt" viewBox="0 0 142.000000 249.000000"
 preserveAspectRatio="xMidYMid meet">
<metadata>
Created by potrace 1.16, written by Peter Selinger 2001-2019
</metadata>
<g transform="translate(0.000000,249.000000) scale(0.100000,-0.100000)"
fill="#000000" stroke="none">
<path d="M393 2474 c-58 -21 -127 -85 -157 -146 -34 -67 -36 -169 -6 -228 29
-56 76 -107 129 -138 41 -24 56 -27 136 -27 73 0 98 4 130 22 90 48 137 132
137 245 0 159 -105 270 -270 283 -37 3 -71 -1 -99 -11z m185 -50 c89 -37 142
-120 142 -224 0 -140 -90 -230 -229 -230 -89 0 -191 71 -227 156 -18 43 -18
125 0 168 19 45 72 103 115 126 45 24 147 26 199 4z"/>
<path d="M1187 2392 c-71 -72 -95 -112 -65 -112 7 0 38 26 70 57 l58 57 0
-1192 c0 -1185 0 -1192 20 -1192 20 0 20 7 20 1185 0 652 2 1185 5 1185 3 0
22 -18 42 -41 47 -52 71 -65 79 -44 5 11 -17 40 -67 93 -41 42 -76 78 -79 80
-3 1 -40 -33 -83 -76z"/>
<path d="M292 1869 c-125 -16 -230 -95 -271 -202 -20 -55 -21 -74 -21 -408 0
-332 1 -352 20 -390 24 -45 66 -75 122 -84 l38 -7 0 -379 c0 -339 2 -380 16
-386 9 -3 20 0 25 8 5 8 9 338 9 742 0 658 -2 728 -16 734 -9 3 -20 0 -25 -8
-5 -8 -9 -161 -9 -341 0 -363 4 -343 -65 -314 -19 8 -44 30 -55 48 -20 32 -20
45 -18 393 3 350 4 361 25 401 29 55 103 119 160 138 69 24 449 23 522 -1 67
-21 138 -84 167 -148 24 -49 24 -54 24 -400 0 -260 -4 -356 -13 -375 -16 -31
-73 -70 -103 -70 l-24 0 0 326 c0 332 -5 379 -36 353 -12 -10 -14 -122 -14
-750 0 -502 3 -740 10 -744 6 -4 17 -1 25 5 13 11 15 72 15 390 l0 377 38 7
c56 9 101 41 122 89 18 39 20 68 20 389 0 325 -1 351 -20 402 -47 125 -147
192 -309 207 -116 10 -273 9 -359 -2z"/>
<path d="M477 924 c-4 -4 -7 -211 -7 -461 0 -447 0 -453 20 -453 20 0 20 5 18
457 -3 437 -6 482 -31 457z"/>
</g>
</svg>
