<?xml version="1.0" standalone="no"?>
<!DOCTYPE svg PUBLIC "-//W3C//DTD SVG 20010904//EN"
 "http://www.w3.org/TR/2001/REC-SVG-20010904/DTD/svg10.dtd">
<svg version="1.0" xmlns="http://www.w3.org/2000/svg"
 width="142.000000pt" height="207.000000pt" viewBox="0 0 142.000000 207.000000"
 preserveAspectRatio="xMidYMid meet">
<metadata>
Created by potrace 1.16, written by Peter Selinger 2001-2019
</metadata>
<g transform="translate(0.000000,207.000000) scale(0.100000,-0.100000)"
fill="#000000" stroke="none">
<path d="M550 2054 c-36 -7 -108 -34 -160 -60 -165 -81 -305 -245 -354 -414
-55 -189 -33 -389 59 -540 19 -31 68 -96 110 -145 43 -49 87 -110 100 -135 35
-69 48 -159 40 -276 -8 -119 4 -176 46 -215 16 -15 44 -30 64 -33 33 -7 35 -9
35 -47 0 -46 19 -98 45 -119 16 -13 -11 -16 -256 -20 -266 -5 -274 -6 -274
-25 0 -20 7 -20 705 -20 698 0 705 0 705 20 0 20 -7 20 -278 20 -152 0 -277 1
-277 2 0 1 11 14 25 29 26 28 45 81 45 124 0 21 8 28 42 40 79 28 101 88 91
250 -10 181 16 257 138 400 39 47 87 108 105 135 75 113 112 276 94 420 -21
176 -76 292 -200 416 -71 72 -101 94 -180 133 -148 72 -314 94 -470 60z m325
-51 c176 -44 334 -172 416 -338 53 -107 72 -204 66 -325 -8 -165 -54 -265
-191 -420 -73 -83 -132 -188 -141 -253 -3 -23 -6 -71 -8 -107 l-2 -65 -89 -3
-89 -3 6 178 c6 235 39 358 125 471 18 24 22 36 14 44 -40 40 -135 -128 -168
-300 -8 -44 -14 -137 -14 -233 l0 -159 -90 0 -90 0 0 128 c0 220 -36 383 -112
509 -33 54 -54 71 -71 54 -5 -5 7 -35 32 -77 23 -38 53 -105 68 -149 23 -72
26 -100 31 -272 l4 -193 -91 0 -91 0 0 73 c0 142 -38 233 -151 362 -131 150
-178 253 -186 415 -10 192 53 357 186 490 171 170 400 233 636 173z m145
-1603 c0 -60 -21 -106 -52 -116 -13 -4 -135 -7 -273 -5 -245 2 -250 3 -273 25
-23 22 -41 77 -42 124 l0 22 320 0 320 0 0 -50z m-140 -214 c0 -83 -69 -136
-177 -136 -99 0 -173 63 -173 147 l0 33 175 0 175 0 0 -44z"/>
</g>
</svg>
