<?xml version="1.0" standalone="no"?>
<!DOCTYPE svg PUBLIC "-//W3C//DTD SVG 20010904//EN"
 "http://www.w3.org/TR/2001/REC-SVG-20010904/DTD/svg10.dtd">
<svg version="1.0" xmlns="http://www.w3.org/2000/svg"
 width="129.000000pt" height="210.000000pt" viewBox="0 0 129.000000 210.000000"
 preserveAspectRatio="xMidYMid meet">
<metadata>
Created by potrace 1.16, written by Peter Selinger 2001-2019
</metadata>
<g transform="translate(0.000000,210.000000) scale(0.100000,-0.100000)"
fill="#000000" stroke="none">
<path d="M669 2082 c-299 -99 -388 -489 -161 -711 53 -51 57 -60 51 -86 -4
-17 -15 -65 -24 -107 -17 -76 -17 -77 -38 -63 -30 21 -106 19 -144 -5 -18 -10
-39 -33 -48 -50 -13 -26 -21 -30 -56 -30 -88 0 -138 -46 -179 -165 -23 -66
-55 -240 -65 -350 -14 -151 51 -432 90 -393 3 2 -6 48 -20 101 -45 178 -42
322 10 545 39 163 80 222 154 222 l37 0 -20 -99 c-20 -104 -17 -152 8 -118 8
9 21 58 30 108 29 158 62 209 136 209 40 0 70 -24 70 -56 -1 -10 -9 -54 -19
-96 -14 -60 -16 -80 -6 -88 14 -11 35 6 35 29 0 8 30 143 66 300 104 456 128
527 184 556 43 22 68 19 101 -14 25 -25 29 -37 29 -85 0 -66 -54 -360 -120
-650 -30 -129 -45 -215 -39 -221 16 -16 28 8 54 109 36 141 70 186 139 186 33
0 73 -35 81 -69 7 -31 -47 -311 -89 -463 -21 -74 -22 -89 -10 -99 11 -9 17 -4
30 27 66 162 156 306 208 330 93 45 130 -36 85 -182 -66 -215 -233 -449 -392
-549 -26 -17 -47 -36 -47 -42 0 -43 112 27 215 132 159 164 304 475 281 600
-10 50 -55 95 -96 95 -59 0 -109 -40 -170 -135 -26 -40 -31 -44 -26 -22 70
304 65 372 -33 407 -37 13 -46 13 -86 -1 -25 -9 -45 -15 -45 -13 0 6 31 150
35 165 3 10 26 21 58 28 113 25 219 110 268 215 102 217 8 477 -208 579 -59
27 -81 32 -163 34 -71 2 -109 -2 -151 -15z m202 -22 c161 -30 290 -162 320
-325 35 -193 -93 -389 -280 -430 l-34 -7 7 33 c23 117 46 268 46 306 0 86 -39
138 -112 149 -49 8 -112 -26 -137 -74 -23 -45 -62 -170 -87 -275 l-18 -78 -47
47 c-71 70 -102 140 -107 245 -5 102 12 165 66 248 51 77 126 129 224 155 65
18 90 19 159 6z"/>
</g>
</svg>
