<?xml version="1.0" standalone="no"?>
<!DOCTYPE svg PUBLIC "-//W3C//DTD SVG 20010904//EN"
 "http://www.w3.org/TR/2001/REC-SVG-20010904/DTD/svg10.dtd">
<svg version="1.0" xmlns="http://www.w3.org/2000/svg"
 width="231.000000pt" height="167.000000pt" viewBox="0 0 231.000000 167.000000"
 preserveAspectRatio="xMidYMid meet">
<metadata>
Created by potrace 1.16, written by Peter Selinger 2001-2019
</metadata>
<g transform="translate(0.000000,167.000000) scale(0.100000,-0.100000)"
fill="#000000" stroke="none">
<path d="M93 1659 c-39 -11 -80 -59 -88 -102 -3 -18 -5 -352 -3 -744 3 -701 3
-712 24 -739 11 -15 33 -37 48 -48 27 -21 33 -21 1079 -21 1034 0 1053 0 1085
20 19 11 42 37 53 57 18 36 19 69 19 760 0 699 -1 724 -20 755 -10 18 -31 40
-47 50 -26 17 -83 18 -1073 20 -617 1 -1058 -2 -1077 -8z m2111 -61 c27 -12
44 -46 29 -57 -5 -3 -74 -58 -154 -122 -79 -63 -265 -211 -414 -329 -148 -117
-314 -249 -368 -292 -104 -83 -133 -96 -167 -78 -12 6 -117 87 -234 178 -116
92 -350 275 -519 406 -169 132 -307 245 -307 252 0 7 12 22 26 33 27 21 30 21
1055 21 754 0 1035 -3 1053 -12z m-1744 -438 c206 -161 383 -298 394 -305 10
-8 15 -18 12 -23 -3 -6 -174 -151 -378 -324 -205 -172 -385 -324 -400 -336
l-28 -24 0 662 c0 529 3 660 13 653 6 -6 181 -142 387 -303z m1790 -355 l0
-665 -400 347 c-384 332 -400 347 -383 364 19 19 776 619 780 619 2 0 3 -299
3 -665z m-590 -236 c129 -112 309 -267 399 -344 l163 -140 -28 -12 c-22 -9
-263 -12 -1029 -12 -955 -1 -1075 2 -1075 27 0 4 21 25 47 47 27 22 213 178
415 347 202 169 370 308 373 308 3 0 44 -29 91 -65 132 -101 162 -101 292 4
73 58 89 67 102 57 8 -7 121 -105 250 -217z"/>
</g>
</svg>
