<?xml version="1.0" standalone="no"?>
<!DOCTYPE svg PUBLIC "-//W3C//DTD SVG 20010904//EN"
 "http://www.w3.org/TR/2001/REC-SVG-20010904/DTD/svg10.dtd">
<svg version="1.0" xmlns="http://www.w3.org/2000/svg"
 width="134.000000pt" height="240.000000pt" viewBox="0 0 134.000000 240.000000"
 preserveAspectRatio="xMidYMid meet">
<metadata>
Created by potrace 1.16, written by Peter Selinger 2001-2019
</metadata>
<g transform="translate(0.000000,240.000000) scale(0.100000,-0.100000)"
fill="#000000" stroke="none">
<path d="M552 2384 c-216 -58 -368 -238 -378 -447 -3 -66 -4 -70 -41 -98 -46
-37 -109 -127 -123 -177 -41 -150 30 -301 174 -368 l50 -23 212 -633 c149
-447 215 -634 226 -636 16 -3 49 95 360 1046 l72 223 45 20 c66 29 123 80 156
140 26 47 30 64 30 134 0 66 -5 90 -27 137 -28 60 -98 143 -128 153 -14 4 -18
20 -22 83 -7 95 -28 158 -82 242 -66 101 -174 176 -298 205 -78 18 -157 18
-226 -1z m252 -56 c190 -62 306 -222 306 -420 l0 -67 43 -29 c100 -70 147
-145 148 -239 1 -71 -17 -117 -67 -173 -48 -53 -103 -81 -174 -87 -47 -5 -68
-1 -130 26 l-74 31 -54 -27 c-92 -45 -199 -40 -293 15 -25 14 -30 13 -85 -14
-76 -37 -176 -40 -240 -7 -50 26 -108 90 -129 140 -49 116 13 275 129 338 35
19 36 21 36 77 0 128 39 227 126 318 65 68 127 104 226 130 83 21 139 19 232
-12z m-268 -1030 c70 -32 198 -31 271 1 42 18 55 21 73 11 35 -19 113 -40 147
-40 l32 0 -15 -47 c-8 -27 -94 -291 -192 -588 l-178 -540 -196 586 -196 587
49 5 c27 3 68 15 91 26 55 25 57 25 114 -1z"/>
</g>
</svg>
