<?xml version="1.0" standalone="no"?>
<!DOCTYPE svg PUBLIC "-//W3C//DTD SVG 20010904//EN"
 "http://www.w3.org/TR/2001/REC-SVG-20010904/DTD/svg10.dtd">
<svg version="1.0" xmlns="http://www.w3.org/2000/svg"
 width="139.000000pt" height="170.000000pt" viewBox="0 0 139.000000 170.000000"
 preserveAspectRatio="xMidYMid meet">
<metadata>
Created by potrace 1.16, written by Peter Selinger 2001-2019
</metadata>
<g transform="translate(0.000000,170.000000) scale(0.100000,-0.100000)"
fill="#000000" stroke="none">
<path d="M585 1684 c-72 -17 -176 -78 -226 -131 -142 -149 -175 -364 -84 -544
39 -75 136 -169 213 -204 l63 -29 -52 -13 c-99 -25 -208 -91 -294 -178 -125
-125 -190 -270 -202 -451 -5 -84 -4 -93 16 -113 l21 -21 653 0 c574 0 655 2
675 16 19 13 22 24 22 80 0 165 -70 347 -180 466 -93 102 -237 188 -343 205
l-40 6 72 34 c96 46 167 117 216 217 35 71 40 87 43 173 3 70 0 112 -13 159
-45 166 -195 301 -369 333 -76 14 -116 13 -191 -5z m210 -49 c211 -55 352
-264 316 -467 -25 -143 -108 -253 -241 -317 -72 -35 -79 -36 -185 -36 -103 0
-114 2 -175 32 -255 125 -317 449 -126 660 106 117 263 166 411 128z m59 -915
c43 -11 107 -34 143 -52 81 -40 200 -149 248 -228 44 -72 84 -186 91 -260 2
-30 7 -72 10 -92 l4 -38 -650 0 -650 0 0 58 c1 299 236 576 530 625 71 12 202
6 274 -13z"/>
</g>
</svg>
