<?xml version="1.0" standalone="no"?>
<!DOCTYPE svg PUBLIC "-//W3C//DTD SVG 20010904//EN"
 "http://www.w3.org/TR/2001/REC-SVG-20010904/DTD/svg10.dtd">
<svg version="1.0" xmlns="http://www.w3.org/2000/svg"
 width="139.000000pt" height="170.000000pt" viewBox="0 0 139.000000 170.000000"
 preserveAspectRatio="xMidYMid meet">
<metadata>
Created by potrace 1.16, written by Peter Selinger 2001-2019
</metadata>
<g transform="translate(0.000000,170.000000) scale(0.100000,-0.100000)"
fill="#000000" stroke="none">
<path d="M593 1686 c-249 -61 -411 -309 -360 -552 31 -145 113 -253 244 -322
50 -27 70 -41 56 -42 -13 0 -51 -11 -87 -24 -252 -95 -425 -333 -443 -612 -5
-84 -4 -93 16 -113 l21 -21 653 0 c574 0 655 2 675 16 19 13 22 24 22 84 0
104 -25 204 -76 310 -64 131 -169 237 -302 303 -50 25 -112 49 -137 53 l-46 6
70 35 c98 47 172 121 218 219 33 69 38 89 41 172 9 194 -67 337 -231 436 -99
59 -224 78 -334 52z m202 -51 c214 -56 352 -263 315 -474 -24 -137 -109 -247
-240 -310 -72 -35 -79 -36 -185 -36 -98 0 -116 3 -168 27 -32 15 -84 52 -116
83 -166 158 -173 409 -17 582 106 117 263 166 411 128z m59 -915 c128 -32 200
-74 297 -170 124 -123 177 -241 193 -432 l5 -68 -649 0 -650 0 0 58 c0 89 26
189 71 282 53 109 169 227 271 279 139 70 314 89 462 51z"/>
</g>
</svg>
