<?xml version="1.0" standalone="no"?>
<!DOCTYPE svg PUBLIC "-//W3C//DTD SVG 20010904//EN"
 "http://www.w3.org/TR/2001/REC-SVG-20010904/DTD/svg10.dtd">
<svg version="1.0" xmlns="http://www.w3.org/2000/svg"
 width="211.000000pt" height="240.000000pt" viewBox="0 0 211.000000 240.000000"
 preserveAspectRatio="xMidYMid meet">
<metadata>
Created by potrace 1.16, written by Peter Selinger 2001-2019
</metadata>
<g transform="translate(0.000000,240.000000) scale(0.100000,-0.100000)"
fill="#000000" stroke="none">
<path d="M748 2389 c-80 -12 -203 -63 -266 -111 -30 -22 -71 -67 -93 -101 -80
-124 -88 -234 -27 -358 l34 -69 -67 -212 c-38 -117 -68 -223 -69 -235 0 -30
50 -85 104 -113 50 -27 49 -26 62 -195 9 -134 9 -134 157 -137 l122 -3 5 -90
c9 -166 17 -152 -123 -209 -175 -70 -387 -165 -421 -189 -52 -37 -114 -134
-142 -223 -27 -85 -27 -114 0 -114 10 0 23 28 40 82 36 117 91 200 158 234 56
29 470 204 482 204 7 0 24 -17 37 -37 53 -82 165 -111 282 -74 74 24 220 117
225 143 7 34 -30 25 -108 -27 -165 -111 -307 -112 -362 -4 -14 26 -18 59 -18
145 0 61 -3 132 -6 158 l-7 46 -128 0 c-70 0 -130 4 -133 9 -3 4 -8 37 -11 72
-3 35 -8 93 -11 129 -7 86 -11 97 -37 104 -42 10 -117 65 -117 85 0 11 29 112
65 226 36 113 65 217 65 231 0 14 -9 39 -20 54 -108 151 -26 383 166 474 113
54 201 69 363 64 124 -4 156 -9 213 -30 243 -91 375 -313 327 -550 -47 -233
-72 -305 -130 -364 l-40 -41 8 -64 c7 -55 11 -64 28 -64 18 0 20 6 17 58 -3
54 -1 59 29 84 42 36 72 106 110 256 36 145 45 268 24 347 -54 203 -222 360
-433 405 -79 16 -257 18 -354 4z"/>
<path d="M983 1990 c-21 -9 -63 -64 -63 -83 0 -4 7 -10 16 -14 11 -4 27 6 50
31 35 39 47 42 91 25 65 -24 122 -109 123 -182 0 -52 -23 -94 -78 -144 -43
-39 -46 -43 -31 -58 14 -15 20 -13 66 23 56 45 84 95 91 164 14 146 -143 287
-265 238z"/>
<path d="M1515 1270 c-57 -13 -127 -53 -179 -101 -260 -238 -121 -678 232
-731 128 -19 258 28 351 127 198 210 140 545 -116 672 -68 34 -83 37 -166 39
-51 1 -105 -2 -122 -6z m270 -75 c251 -135 276 -488 45 -645 -115 -78 -242
-89 -365 -30 -139 66 -214 188 -217 351 0 70 3 87 31 143 39 80 129 166 203
195 45 18 69 21 153 17 85 -3 107 -8 150 -31z"/>
<path d="M1526 1080 c-80 -40 -124 -104 -133 -195 -10 -94 35 -185 114 -232
40 -23 59 -28 118 -28 59 0 78 5 117 28 120 70 145 256 50 369 -60 71 -185 98
-266 58z m161 -41 c70 -22 129 -117 119 -195 -11 -90 -59 -149 -143 -174 -34
-10 -49 -10 -90 4 -85 28 -133 98 -133 191 0 62 14 97 57 137 54 51 107 62
190 37z"/>
<path d="M1827 453 c-15 -14 -5 -35 34 -70 81 -74 163 -207 194 -320 14 -51
22 -63 38 -63 18 0 19 5 14 44 -15 105 -94 249 -198 359 -53 55 -68 64 -82 50z"/>
</g>
</svg>
