<?xml version="1.0" standalone="no"?>
<!DOCTYPE svg PUBLIC "-//W3C//DTD SVG 20010904//EN"
 "http://www.w3.org/TR/2001/REC-SVG-20010904/DTD/svg10.dtd">
<svg version="1.0" xmlns="http://www.w3.org/2000/svg"
 width="175.000000pt" height="231.000000pt" viewBox="0 0 175.000000 231.000000"
 preserveAspectRatio="xMidYMid meet">
<metadata>
Created by potrace 1.16, written by Peter Selinger 2001-2019
</metadata>
<g transform="translate(0.000000,231.000000) scale(0.100000,-0.100000)"
fill="#000000" stroke="none">
<path d="M15 2286 c-11 -17 -13 -30 -6 -47 5 -13 117 -244 249 -512 l241 -488
-88 -87 c-71 -71 -96 -103 -129 -172 -62 -125 -75 -191 -70 -335 4 -89 11
-137 27 -185 98 -287 371 -473 670 -457 283 15 513 190 607 462 24 70 28 96
28 200 1 99 -3 133 -22 195 -37 118 -85 195 -183 292 l-87 87 130 263 c218
440 368 750 368 763 0 7 -8 19 -18 28 -16 15 -50 17 -271 17 l-252 0 -167
-336 -167 -336 -164 336 -164 336 -258 0 -259 0 -15 -24z m655 -416 c99 -199
187 -363 195 -367 9 -3 22 0 30 7 8 6 93 171 189 366 l175 354 190 0 c105 0
191 -2 191 -5 0 -8 -451 -930 -459 -938 -4 -4 -43 5 -87 20 -72 25 -92 27
-219 27 -127 0 -147 -2 -219 -27 -43 -15 -80 -26 -82 -24 -2 2 -90 179 -195
393 -105 214 -209 425 -230 468 -22 44 -39 81 -39 83 0 1 85 3 190 3 l190 0
180 -360z m400 -643 c184 -65 320 -211 375 -401 23 -78 23 -231 0 -311 -54
-188 -194 -338 -376 -402 -279 -97 -590 32 -717 297 -22 47 -45 109 -51 138
-26 125 -2 295 56 405 40 75 175 207 247 242 105 51 170 65 286 62 83 -3 121
-9 180 -30z"/>
<path d="M602 953 c-5 -10 -7 -25 -4 -33 3 -8 53 -69 112 -135 l107 -120 -104
-115 c-118 -130 -132 -152 -113 -175 28 -33 53 -17 165 107 l109 122 116 -122
c63 -67 122 -122 130 -122 21 0 40 20 40 42 0 9 -51 73 -113 140 l-114 123 70
75 c140 152 160 178 153 205 -5 18 -13 25 -30 25 -18 0 -52 -30 -132 -117
-111 -122 -122 -132 -133 -115 -3 5 -51 60 -105 121 -101 114 -134 134 -154
94z"/>
</g>
</svg>
