<?xml version="1.0" standalone="no"?>
<!DOCTYPE svg PUBLIC "-//W3C//DTD SVG 20010904//EN"
 "http://www.w3.org/TR/2001/REC-SVG-20010904/DTD/svg10.dtd">
<svg version="1.0" xmlns="http://www.w3.org/2000/svg"
 width="199.000000pt" height="118.000000pt" viewBox="0 0 199.000000 118.000000"
 preserveAspectRatio="xMidYMid meet">
<metadata>
Created by potrace 1.16, written by Peter Selinger 2001-2019
</metadata>
<g transform="translate(0.000000,118.000000) scale(0.100000,-0.100000)"
fill="#000000" stroke="none">
<path d="M30 1167 l-25 -13 0 -254 c1 -290 9 -339 75 -475 96 -197 285 -352
494 -405 62 -16 113 -20 231 -20 227 0 330 31 483 148 76 57 166 155 204 221
l22 39 101 4 c87 4 111 9 168 36 132 61 199 160 205 300 5 100 -12 155 -67
215 -55 62 -98 77 -218 77 l-103 0 0 60 c0 48 -4 61 -19 70 -31 16 -1519 13
-1551 -3z m1527 -284 c-5 -279 -12 -317 -78 -443 -89 -170 -256 -316 -424
-371 -95 -30 -334 -38 -445 -15 -253 53 -473 266 -541 523 -18 67 -22 112 -24
316 l-3 237 760 0 760 0 -5 -247z m268 98 c84 -38 131 -128 123 -238 -6 -81
-30 -132 -90 -190 -62 -61 -141 -94 -240 -101 -70 -4 -81 -3 -75 10 44 116 50
155 55 346 l4 192 92 0 c67 0 102 -5 131 -19z"/>
</g>
</svg>
