<?xml version="1.0" standalone="no"?>
<!DOCTYPE svg PUBLIC "-//W3C//DTD SVG 20010904//EN"
 "http://www.w3.org/TR/2001/REC-SVG-20010904/DTD/svg10.dtd">
<svg version="1.0" xmlns="http://www.w3.org/2000/svg"
 width="213.000000pt" height="169.000000pt" viewBox="0 0 213.000000 169.000000"
 preserveAspectRatio="xMidYMid meet">
<metadata>
Created by potrace 1.16, written by Peter Selinger 2001-2019
</metadata>
<g transform="translate(0.000000,169.000000) scale(0.100000,-0.100000)"
fill="#000000" stroke="none">
<path d="M751 1676 c-6 -7 -20 -67 -31 -132 -35 -215 -91 -353 -182 -444 -85
-85 -267 -160 -433 -177 -78 -8 -105 -18 -105 -41 0 -27 20 -42 56 -42 17 0
67 -7 110 -16 359 -71 490 -217 559 -619 16 -94 25 -114 51 -115 21 0 31 25
43 120 23 169 72 306 145 409 72 102 253 189 441 212 120 16 130 20 130 53 l0
29 -104 18 c-265 45 -422 130 -505 272 -52 89 -92 231 -112 400 -8 74 -36 106
-63 73z m60 -366 c67 -207 209 -337 440 -404 l82 -23 -72 -18 c-243 -59 -410
-227 -467 -469 -10 -42 -20 -76 -23 -76 -3 0 -14 33 -23 73 -21 88 -84 217
-133 275 -74 86 -195 156 -332 192 l-68 18 45 11 c141 36 263 103 343 189 55
60 117 181 142 279 25 100 27 102 37 58 4 -22 18 -69 29 -105z"/>
<path d="M1744 631 c-288 -74 -332 -468 -66 -598 48 -23 70 -28 137 -28 68 0
89 4 137 28 72 35 141 111 163 178 26 77 17 201 -17 260 -36 61 -94 114 -152
140 -53 23 -152 33 -202 20z m183 -83 c153 -71 189 -293 66 -410 -140 -133
-383 -62 -423 124 -44 208 164 375 357 286z"/>
</g>
</svg>
