<?xml version="1.0" standalone="no"?>
<!DOCTYPE svg PUBLIC "-//W3C//DTD SVG 20010904//EN"
 "http://www.w3.org/TR/2001/REC-SVG-20010904/DTD/svg10.dtd">
<svg version="1.0" xmlns="http://www.w3.org/2000/svg"
 width="158.000000pt" height="197.000000pt" viewBox="0 0 158.000000 197.000000"
 preserveAspectRatio="xMidYMid meet">
<metadata>
Created by potrace 1.16, written by Peter Selinger 2001-2019
</metadata>
<g transform="translate(0.000000,197.000000) scale(0.100000,-0.100000)"
fill="#000000" stroke="none">
<path d="M693 1960 c-164 -30 -302 -130 -380 -276 -50 -93 -63 -166 -63 -351
l0 -163 -49 0 c-81 0 -145 -31 -183 -88 -16 -25 -18 -65 -18 -503 l0 -476 23
-34 c48 -73 13 -69 774 -67 674 3 682 3 710 24 15 11 38 36 51 54 l22 33 0
464 c0 498 1 492 -52 539 -41 38 -85 54 -148 54 l-60 0 0 173 c0 188 -8 234
-60 337 -100 199 -345 319 -567 280z m205 -55 c89 -21 152 -56 227 -126 77
-73 129 -169 145 -269 5 -36 10 -127 10 -202 l0 -138 -490 0 -490 0 0 174 c0
196 12 256 70 346 115 179 322 264 528 215z m562 -791 c24 -10 48 -29 60 -49
20 -32 21 -45 18 -494 l-3 -461 -33 -32 -32 -33 -668 -3 c-487 -2 -674 1 -695
9 -15 7 -37 23 -47 37 -19 24 -20 42 -20 484 0 518 -2 505 73 539 40 18 75 19
674 19 557 0 637 -2 673 -16z"/>
<path d="M730 839 c-64 -27 -100 -85 -100 -162 0 -42 6 -63 30 -101 32 -49 60
-139 60 -188 0 -38 32 -68 73 -68 52 0 66 24 74 120 5 64 11 88 28 109 80 95
73 207 -17 274 -31 23 -111 32 -148 16z m135 -53 c30 -20 50 -82 41 -130 -4
-19 -22 -54 -41 -76 -29 -34 -35 -50 -36 -88 0 -26 -3 -65 -7 -87 -6 -34 -11
-40 -32 -40 -23 0 -26 5 -37 79 -9 60 -21 93 -49 138 -32 53 -36 66 -32 109 5
51 32 92 73 110 27 12 91 4 120 -15z"/>
</g>
</svg>
