<?xml version="1.0" standalone="no"?>
<!DOCTYPE svg PUBLIC "-//W3C//DTD SVG 20010904//EN"
 "http://www.w3.org/TR/2001/REC-SVG-20010904/DTD/svg10.dtd">
<svg version="1.0" xmlns="http://www.w3.org/2000/svg"
 width="198.000000pt" height="198.000000pt" viewBox="0 0 198.000000 198.000000"
 preserveAspectRatio="xMidYMid meet">
<metadata>
Created by potrace 1.16, written by Peter Selinger 2001-2019
</metadata>
<g transform="translate(0.000000,198.000000) scale(0.100000,-0.100000)"
fill="#000000" stroke="none">
<path d="M433 1965 c-46 -20 -73 -69 -73 -132 l0 -53 -125 0 c-144 0 -184 -11
-215 -62 -20 -32 -20 -48 -20 -836 l0 -802 34 -38 34 -37 904 -3 c661 -2 910
1 931 9 15 6 39 25 52 41 l25 30 0 801 c0 787 0 803 -20 835 -31 51 -70 62
-220 62 l-130 0 0 50 c0 62 -21 105 -63 130 -56 34 -122 20 -166 -36 -16 -20
-21 -41 -21 -85 l0 -59 -375 0 -375 0 0 53 c0 64 -15 94 -59 124 -39 26 -72
28 -118 8z m94 -45 c18 -11 35 -30 39 -44 3 -13 4 -83 2 -156 -3 -124 -4 -133
-27 -151 -30 -25 -81 -24 -109 1 -28 27 -34 66 -30 203 3 123 14 151 62 160
11 2 23 5 26 6 3 0 20 -8 37 -19z m1021 -16 c20 -23 22 -35 22 -155 0 -168
-14 -199 -90 -199 -15 0 -38 9 -51 19 -23 18 -24 26 -27 165 l-3 146 31 31
c26 26 36 30 63 25 18 -3 42 -17 55 -32z m-1188 -236 c0 -86 19 -126 73 -151
43 -21 58 -21 102 -3 53 23 75 67 75 154 l0 72 375 0 375 0 0 -74 c0 -60 4
-79 23 -107 48 -71 156 -71 204 0 19 28 23 48 23 108 l0 75 141 -4 c140 -3
141 -3 165 -31 23 -27 24 -33 24 -193 l0 -164 -950 0 -950 0 0 161 c0 90 4
169 10 179 21 39 59 49 188 50 l122 0 0 -72z m1580 -964 l0 -606 -29 -29 -29
-29 -892 0 -892 0 -29 29 -29 29 0 606 0 606 950 0 950 0 0 -606z"/>
<path d="M584 1031 c-2 -2 -4 -12 -4 -22 0 -17 13 -19 151 -21 l151 -3 -99
-120 c-55 -66 -98 -126 -95 -133 2 -8 26 -12 68 -12 68 0 123 -20 156 -57 24
-27 48 -87 48 -122 0 -153 -196 -238 -310 -135 -21 19 -43 48 -50 64 -9 22
-19 30 -37 30 -21 0 -23 -3 -18 -22 13 -43 55 -98 96 -125 33 -22 57 -28 111
-31 87 -5 144 15 193 69 45 50 57 80 57 149 1 66 -18 114 -62 158 -44 44 -81
62 -135 64 -25 1 -45 4 -45 5 0 2 43 54 95 115 53 62 94 119 93 128 -3 13 -32
16 -181 20 -99 3 -181 3 -183 1z"/>
<path d="M1193 959 c-97 -66 -126 -99 -85 -99 10 0 57 27 105 59 l87 60 0
-320 c0 -284 2 -320 16 -326 9 -3 20 0 25 8 5 8 8 165 6 349 l-2 335 -25 2
c-17 2 -59 -21 -127 -68z"/>
</g>
</svg>
