<?xml version="1.0" standalone="no"?>
<!DOCTYPE svg PUBLIC "-//W3C//DTD SVG 20010904//EN"
 "http://www.w3.org/TR/2001/REC-SVG-20010904/DTD/svg10.dtd">
<svg version="1.0" xmlns="http://www.w3.org/2000/svg"
 width="176.000000pt" height="192.000000pt" viewBox="0 0 176.000000 192.000000"
 preserveAspectRatio="xMidYMid meet">
<metadata>
Created by potrace 1.16, written by Peter Selinger 2001-2019
</metadata>
<g transform="translate(0.000000,192.000000) scale(0.100000,-0.100000)"
fill="#000000" stroke="none">
<path d="M855 1905 c-278 -61 -474 -251 -546 -530 -21 -84 -42 -390 -32 -480
l6 -44 -139 -3 -139 -3 0 -25 0 -25 136 -3 136 -3 6 -112 c12 -241 67 -390
189 -511 119 -117 238 -166 404 -166 115 0 197 20 311 75 288 140 502 442 558
789 20 120 20 363 0 457 -62 293 -291 523 -583 584 -83 18 -227 18 -307 0z
m329 -65 c122 -31 208 -82 306 -180 65 -64 96 -105 128 -167 66 -127 83 -210
83 -389 0 -352 -109 -620 -338 -834 -88 -82 -181 -140 -285 -178 -65 -24 -87
-27 -203 -27 -129 0 -130 0 -208 37 -129 62 -233 175 -277 304 -26 73 -50 227
-50 317 l0 67 193 0 c182 0 195 1 244 24 38 18 117 86 290 249 301 284 327
311 320 331 -4 9 -14 16 -23 16 -18 0 -52 -30 -349 -312 -124 -119 -235 -216
-259 -228 -38 -18 -62 -20 -232 -20 l-190 0 -2 63 c-4 115 17 370 38 452 61
240 230 414 462 475 100 26 250 26 352 0z"/>
</g>
</svg>
