<?xml version="1.0" standalone="no"?>
<!DOCTYPE svg PUBLIC "-//W3C//DTD SVG 20010904//EN"
 "http://www.w3.org/TR/2001/REC-SVG-20010904/DTD/svg10.dtd">
<svg version="1.0" xmlns="http://www.w3.org/2000/svg"
 width="164.000000pt" height="203.000000pt" viewBox="0 0 164.000000 203.000000"
 preserveAspectRatio="xMidYMid meet">
<metadata>
Created by potrace 1.16, written by Peter Selinger 2001-2019
</metadata>
<g transform="translate(0.000000,203.000000) scale(0.100000,-0.100000)"
fill="#000000" stroke="none">
<path d="M970 1983 c0 -89 -38 -162 -114 -220 -54 -40 -120 -60 -241 -73 -55
-6 -130 -20 -167 -30 -116 -35 -208 -141 -208 -240 0 -22 -6 -28 -43 -37 -102
-28 -166 -157 -127 -257 9 -24 7 -26 -18 -26 -44 0 -52 -16 -52 -106 0 -99 5
-114 36 -114 18 0 24 -7 28 -32 5 -26 54 -413 92 -709 6 -53 30 -93 70 -120
28 -18 57 -19 589 -19 527 0 562 1 595 19 40 21 80 88 81 135 0 17 21 186 48
376 46 340 47 344 71 350 24 6 25 9 28 105 3 112 2 115 -70 115 l-47 0 24 48
c34 66 42 144 20 217 -13 46 -28 69 -73 115 -33 32 -77 65 -104 76 l-47 19 1
85 c1 113 -23 172 -101 241 -62 55 -175 116 -233 126 l-38 6 0 -50z m131 -38
c78 -40 147 -101 175 -157 25 -49 26 -59 21 -150 -4 -80 -3 -98 9 -98 25 0
101 -40 143 -77 90 -76 110 -192 54 -302 l-29 -56 -676 -3 -677 -2 -12 54
c-11 51 -10 58 12 102 47 93 24 89 487 92 244 2 411 7 416 12 27 27 -20 31
-372 30 -238 0 -363 3 -367 10 -3 6 1 34 9 64 12 39 27 64 57 90 60 55 115 74
260 91 137 16 207 37 271 81 75 53 128 143 128 221 0 31 2 34 23 27 12 -3 43
-17 68 -29z m499 -960 l0 -65 -780 0 -780 0 0 65 0 65 780 0 780 0 0 -65z
m-65 -162 c-16 -138 -96 -699 -101 -715 -3 -9 -19 -29 -35 -43 l-31 -25 -550
0 -550 0 -33 33 c-30 30 -33 40 -45 137 -7 58 -29 230 -49 383 -21 152 -35
280 -32 282 2 3 326 5 719 5 l714 0 -7 -57z"/>
</g>
</svg>
