<?xml version="1.0" standalone="no"?>
<!DOCTYPE svg PUBLIC "-//W3C//DTD SVG 20010904//EN"
 "http://www.w3.org/TR/2001/REC-SVG-20010904/DTD/svg10.dtd">
<svg version="1.0" xmlns="http://www.w3.org/2000/svg"
 width="192.000000pt" height="172.000000pt" viewBox="0 0 192.000000 172.000000"
 preserveAspectRatio="xMidYMid meet">
<metadata>
Created by potrace 1.16, written by Peter Selinger 2001-2019
</metadata>
<g transform="translate(0.000000,172.000000) scale(0.100000,-0.100000)"
fill="#000000" stroke="none">
<path d="M411 1709 c-86 -17 -189 -74 -260 -146 -169 -170 -198 -402 -81 -648
53 -110 119 -195 295 -373 175 -179 568 -536 595 -540 38 -7 669 596 788 753
65 86 126 208 148 295 24 91 21 227 -5 311 -97 305 -449 448 -735 296 -59 -31
-161 -121 -185 -162 -11 -19 -12 -19 -33 10 -118 163 -326 244 -527 204z m245
-75 c98 -27 188 -101 258 -212 37 -59 60 -54 103 20 87 149 274 236 451 208
359 -57 498 -458 272 -790 -78 -115 -276 -325 -508 -540 -126 -116 -238 -218
-250 -226 -22 -15 -27 -12 -139 88 -409 362 -634 600 -713 758 -50 101 -64
158 -63 260 0 107 21 179 71 253 116 168 316 238 518 181z"/>
</g>
</svg>
