<?xml version="1.0" standalone="no"?>
<!DOCTYPE svg PUBLIC "-//W3C//DTD SVG 20010904//EN"
 "http://www.w3.org/TR/2001/REC-SVG-20010904/DTD/svg10.dtd">
<svg version="1.0" xmlns="http://www.w3.org/2000/svg"
 width="202.000000pt" height="202.000000pt" viewBox="0 0 202.000000 202.000000"
 preserveAspectRatio="xMidYMid meet">
<metadata>
Created by potrace 1.16, written by Peter Selinger 2001-2019
</metadata>
<g transform="translate(0.000000,202.000000) scale(0.100000,-0.100000)"
fill="#000000" stroke="none">
<path d="M795 2000 c-201 -45 -360 -133 -505 -280 -191 -192 -290 -431 -290
-698 0 -497 327 -900 815 -1003 89 -19 294 -17 395 5 513 108 860 588 801
1107 -43 370 -300 703 -639 826 -176 65 -407 82 -577 43z m433 -44 c367 -91
657 -392 726 -755 18 -95 21 -246 5 -341 -15 -100 -71 -251 -125 -343 -66
-111 -220 -265 -331 -331 -96 -56 -245 -110 -353 -127 -100 -15 -294 -6 -390
19 -342 90 -604 363 -692 719 -16 66 -21 120 -22 213 0 262 83 473 263 662
156 164 339 261 566 299 72 11 279 3 353 -15z"/>
<path d="M997 1854 c-10 -10 -8 -106 2 -123 8 -12 12 -13 26 -1 22 18 18 123
-5 128 -9 1 -19 0 -23 -4z"/>
<path d="M1265 1278 c-135 -128 -251 -234 -256 -236 -5 -2 -97 60 -205 138
-175 126 -224 153 -224 122 0 -14 37 -43 238 -187 l194 -137 56 54 c32 30 149
142 262 249 113 106 205 200 205 208 0 8 -5 16 -12 18 -6 2 -122 -101 -258
-229z"/>
<path d="M170 1020 c0 -18 6 -20 71 -20 62 0 70 2 67 18 -3 14 -16 18 -71 20
-62 3 -67 1 -67 -18z"/>
<path d="M1710 1020 c0 -18 7 -20 70 -20 63 0 70 2 70 20 0 18 -7 20 -70 20
-63 0 -70 -2 -70 -20z"/>
<path d="M990 252 c0 -52 4 -71 15 -75 21 -9 28 9 28 77 1 55 -1 61 -21 64
-21 3 -22 0 -22 -66z"/>
</g>
</svg>
