<?xml version="1.0" standalone="no"?>
<!DOCTYPE svg PUBLIC "-//W3C//DTD SVG 20010904//EN"
 "http://www.w3.org/TR/2001/REC-SVG-20010904/DTD/svg10.dtd">
<svg version="1.0" xmlns="http://www.w3.org/2000/svg"
 width="141.000000pt" height="206.000000pt" viewBox="0 0 141.000000 206.000000"
 preserveAspectRatio="xMidYMid meet">
<metadata>
Created by potrace 1.16, written by Peter Selinger 2001-2019
</metadata>
<g transform="translate(0.000000,206.000000) scale(0.100000,-0.100000)"
fill="#000000" stroke="none">
<path d="M459 1929 c-68 -72 -125 -137 -127 -145 -9 -38 42 -4 135 88 l103
103 0 -183 c0 -169 1 -183 18 -180 15 3 18 22 22 187 l5 185 99 -108 c92 -98
131 -125 131 -88 0 16 -236 272 -251 272 -7 0 -68 -59 -135 -131z"/>
<path d="M512 1500 c-18 -11 -41 -34 -52 -52 -19 -32 -20 -52 -20 -449 l0
-416 -96 98 c-53 54 -111 105 -129 114 -76 36 -173 7 -201 -60 -32 -78 -16
-111 192 -385 179 -237 211 -270 290 -307 83 -38 150 -45 403 -41 l236 3 67
32 c84 40 149 105 180 181 22 54 23 71 26 354 3 257 1 301 -13 328 -31 61
-116 88 -174 56 -23 -13 -26 -12 -43 23 -10 20 -31 44 -47 54 -36 21 -102 22
-141 2 -27 -14 -30 -13 -62 19 -43 43 -94 54 -149 33 l-39 -15 0 162 c0 148
-2 165 -22 206 -39 75 -135 103 -206 60z m151 -59 l28 -28 -1 -340 c0 -284 2
-342 13 -346 30 -11 37 16 37 145 0 124 1 130 25 153 30 31 92 34 126 6 23
-18 24 -27 29 -163 5 -135 6 -143 25 -143 19 0 20 8 23 116 2 109 4 117 28
140 37 35 98 33 130 -4 22 -26 24 -36 24 -147 0 -132 4 -150 31 -150 17 0 19
9 19 104 0 97 2 106 22 120 35 25 90 20 119 -10 l24 -26 0 -286 c0 -277 -1
-289 -23 -344 -30 -75 -95 -140 -170 -170 -55 -22 -66 -23 -314 -21 -283 3
-319 10 -406 72 -23 17 -115 130 -221 270 -173 230 -181 243 -181 286 0 82 66
117 146 79 19 -9 88 -73 153 -142 78 -82 123 -122 131 -117 9 6 10 103 5 449
-7 405 -6 445 9 475 34 64 116 75 169 22z"/>
</g>
</svg>
