<?xml version="1.0" standalone="no"?>
<!DOCTYPE svg PUBLIC "-//W3C//DTD SVG 20010904//EN"
 "http://www.w3.org/TR/2001/REC-SVG-20010904/DTD/svg10.dtd">
<svg version="1.0" xmlns="http://www.w3.org/2000/svg"
 width="155.000000pt" height="231.000000pt" viewBox="0 0 155.000000 231.000000"
 preserveAspectRatio="xMidYMid meet">
<metadata>
Created by potrace 1.16, written by Peter Selinger 2001-2019
</metadata>
<g transform="translate(0.000000,231.000000) scale(0.100000,-0.100000)"
fill="#000000" stroke="none">
<path d="M619 2296 c-219 -46 -418 -197 -522 -394 -73 -140 -92 -214 -91 -362
0 -113 3 -133 30 -210 35 -98 673 -1285 705 -1312 31 -26 67 -22 96 10 14 15
135 234 270 487 448 843 431 804 440 980 13 234 -75 448 -250 612 -84 77 -211
148 -322 178 -83 22 -273 28 -356 11z m323 -85 c131 -34 262 -112 344 -205
173 -196 227 -456 145 -692 -10 -28 -84 -172 -163 -320 -80 -148 -220 -410
-313 -582 -92 -173 -171 -310 -175 -305 -11 11 -537 985 -612 1133 -95 186
-110 331 -53 499 82 243 268 419 502 475 87 21 236 20 325 -3z"/>
<path d="M669 1844 c-182 -63 -278 -283 -201 -458 31 -68 102 -139 175 -172
51 -24 75 -29 138 -29 294 1 445 352 246 572 -56 61 -136 96 -232 100 -55 2
-95 -2 -126 -13z m228 -92 c77 -40 143 -146 143 -229 0 -125 -109 -244 -238
-260 -140 -16 -282 113 -282 257 0 109 81 215 190 251 42 14 142 3 187 -19z"/>
</g>
</svg>
