<?xml version="1.0" standalone="no"?>
<!DOCTYPE svg PUBLIC "-//W3C//DTD SVG 20010904//EN"
 "http://www.w3.org/TR/2001/REC-SVG-20010904/DTD/svg10.dtd">
<svg version="1.0" xmlns="http://www.w3.org/2000/svg"
 width="128.000000pt" height="199.000000pt" viewBox="0 0 128.000000 199.000000"
 preserveAspectRatio="xMidYMid meet">
<metadata>
Created by potrace 1.16, written by Peter Selinger 2001-2019
</metadata>
<g transform="translate(0.000000,199.000000) scale(0.100000,-0.100000)"
fill="#000000" stroke="none">
<path d="M525 1980 c-119 -24 -214 -73 -306 -158 -155 -143 -237 -353 -210
-543 17 -121 55 -209 159 -364 124 -183 139 -217 150 -337 5 -54 15 -104 21
-112 7 -9 10 -28 6 -48 -4 -18 -2 -46 4 -61 8 -20 7 -40 -1 -70 -19 -71 13
-137 66 -137 17 0 27 -8 36 -29 15 -38 62 -85 104 -105 49 -23 140 -21 193 5
41 20 103 89 103 116 0 7 9 13 20 13 12 0 32 12 47 26 23 23 25 30 19 82 -4
31 -6 66 -6 77 1 11 2 47 3 80 1 33 8 70 14 81 7 12 17 61 22 108 13 108 29
143 130 286 136 191 181 304 181 455 0 170 -66 321 -200 456 -97 98 -186 149
-305 174 -75 16 -185 18 -250 5z m253 -45 c168 -40 314 -160 400 -331 81 -161
83 -354 5 -508 -14 -27 -69 -115 -123 -195 -103 -152 -122 -197 -135 -316 -4
-33 -12 -63 -19 -67 -6 -4 -43 -8 -82 -8 -56 0 -73 3 -78 16 -3 9 -6 93 -6
188 0 197 11 258 79 423 27 64 37 101 31 107 -16 16 -35 -12 -78 -119 -59
-147 -72 -226 -72 -436 l0 -179 -60 0 -60 0 0 173 c-1 208 -14 289 -70 430
-50 124 -64 147 -80 131 -8 -8 1 -40 34 -123 64 -158 76 -227 76 -434 l0 -175
-67 -5 c-38 -3 -77 -7 -88 -9 -17 -2 -20 3 -23 37 -6 90 -24 179 -44 218 -11
23 -58 97 -105 164 -104 152 -141 229 -160 340 -34 194 34 385 188 534 136
131 349 188 537 144z m118 -1502 c4 -20 3 -47 -2 -60 l-9 -24 -227 0 c-126 0
-237 1 -247 1 -40 0 -38 94 2 110 12 5 124 9 249 9 l227 1 7 -37z m4 -183 c0
-62 -9 -65 -224 -68 -279 -5 -307 3 -291 84 l6 34 242 2 c133 2 248 -1 255 -6
6 -5 12 -25 12 -46z m-112 -142 c-50 -65 -149 -88 -224 -52 -33 16 -74 57 -74
75 0 5 73 9 161 9 l162 0 -25 -32z"/>
</g>
</svg>
