<?xml version="1.0" standalone="no"?>
<!DOCTYPE svg PUBLIC "-//W3C//DTD SVG 20010904//EN"
 "http://www.w3.org/TR/2001/REC-SVG-20010904/DTD/svg10.dtd">
<svg version="1.0" xmlns="http://www.w3.org/2000/svg"
 width="178.000000pt" height="160.000000pt" viewBox="0 0 178.000000 160.000000"
 preserveAspectRatio="xMidYMid meet">
<metadata>
Created by potrace 1.16, written by Peter Selinger 2001-2019
</metadata>
<g transform="translate(0.000000,160.000000) scale(0.100000,-0.100000)"
fill="#000000" stroke="none">
<path d="M1643 1587 c-18 -10 -338 -313 -911 -864 -65 -62 -122 -112 -127
-113 -6 0 -37 27 -70 61 -33 33 -131 128 -217 210 -146 139 -159 149 -195 149
-72 0 -134 -64 -119 -123 5 -22 398 -666 492 -808 41 -61 88 -99 124 -99 28 0
71 34 117 92 50 64 811 1055 960 1252 75 98 83 113 83 153 0 79 -72 126 -137
90z m85 -49 c23 -23 13 -65 -31 -124 -24 -33 -162 -214 -308 -404 -146 -190
-325 -424 -399 -520 -238 -311 -312 -405 -334 -422 -30 -25 -59 -22 -90 8 -14
15 -136 206 -271 425 -258 419 -268 442 -223 473 51 36 62 28 297 -199 122
-118 228 -215 235 -215 15 0 86 66 612 570 449 430 438 420 472 420 15 0 33
-5 40 -12z"/>
</g>
</svg>
