<?xml version="1.0" standalone="no"?>
<!DOCTYPE svg PUBLIC "-//W3C//DTD SVG 20010904//EN"
 "http://www.w3.org/TR/2001/REC-SVG-20010904/DTD/svg10.dtd">
<svg version="1.0" xmlns="http://www.w3.org/2000/svg"
 width="221.000000pt" height="196.000000pt" viewBox="0 0 221.000000 196.000000"
 preserveAspectRatio="xMidYMid meet">
<metadata>
Created by potrace 1.16, written by Peter Selinger 2001-2019
</metadata>
<g transform="translate(0.000000,196.000000) scale(0.100000,-0.100000)"
fill="#000000" stroke="none">
<path d="M1042 1948 c-17 -6 -48 -29 -68 -52 -20 -23 -120 -185 -221 -361
-225 -388 -321 -555 -534 -920 -90 -154 -176 -304 -191 -334 -56 -108 -22
-212 87 -262 38 -18 87 -19 994 -19 950 0 955 0 998 21 87 42 126 144 90 231
-14 34 -131 237 -577 1008 -97 168 -218 378 -269 467 -51 90 -106 174 -122
188 -50 41 -120 54 -187 33z m109 -38 c19 -6 45 -20 56 -32 12 -13 113 -183
226 -378 194 -336 261 -452 592 -1024 156 -269 167 -302 123 -366 -50 -74 16
-70 -1028 -70 -604 0 -948 4 -972 10 -74 21 -121 110 -96 181 7 19 82 154 167
299 85 146 202 348 261 450 581 1002 521 904 568 924 45 18 56 19 103 6z"/>
<path d="M1047 1588 c-13 -13 -96 -149 -186 -303 -91 -154 -238 -405 -327
-557 -90 -152 -172 -295 -184 -317 -24 -49 -26 -113 -3 -152 36 -61 15 -59
763 -59 748 0 727 -2 763 59 39 67 37 74 -239 547 -141 241 -295 507 -342 589
-101 177 -134 215 -186 215 -25 0 -44 -7 -59 -22z m90 -33 c11 -8 83 -122 158
-252 76 -131 232 -398 347 -594 125 -215 208 -366 208 -382 0 -14 -11 -39 -24
-54 l-24 -28 -687 -3 -686 -2 -31 30 c-25 25 -29 37 -26 68 3 27 99 200 347
622 188 322 350 591 359 598 21 16 33 15 59 -3z"/>
<path d="M1037 1234 c-40 -21 -55 -65 -50 -138 2 -34 8 -139 12 -235 7 -173 7
-173 34 -197 56 -48 147 -20 161 48 2 12 9 119 15 236 10 186 9 216 -4 242
-29 55 -109 76 -168 44z m110 -39 c11 -8 23 -26 25 -40 3 -14 -1 -121 -8 -238
-14 -223 -18 -237 -65 -237 -46 0 -53 35 -65 326 l-7 160 28 22 c32 26 62 28
92 7z"/>
<path d="M1064 551 c-34 -15 -64 -60 -64 -98 0 -50 54 -103 105 -103 52 0 105
53 105 104 0 69 -83 124 -146 97z m92 -66 c14 -21 15 -31 5 -51 -20 -46 -79
-51 -107 -9 -26 39 2 85 52 85 25 0 38 -7 50 -25z"/>
</g>
</svg>
