<?xml version="1.0" standalone="no"?>
<!DOCTYPE svg PUBLIC "-//W3C//DTD SVG 20010904//EN"
 "http://www.w3.org/TR/2001/REC-SVG-20010904/DTD/svg10.dtd">
<svg version="1.0" xmlns="http://www.w3.org/2000/svg"
 width="171.000000pt" height="97.000000pt" viewBox="0 0 171.000000 97.000000"
 preserveAspectRatio="xMidYMid meet">
<metadata>
Created by potrace 1.16, written by Peter Selinger 2001-2019
</metadata>
<g transform="translate(0.000000,97.000000) scale(0.100000,-0.100000)"
fill="#000000" stroke="none">
<path d="M1214 959 c-4 -7 85 -103 215 -233 121 -122 221 -225 221 -229 0 -4
-371 -7 -825 -7 -727 0 -825 -2 -825 -15 0 -13 98 -15 822 -15 l823 0 -219
-219 c-200 -200 -233 -241 -193 -241 18 0 477 462 477 480 0 15 -468 490 -482
490 -4 0 -10 -5 -14 -11z"/>
</g>
</svg>
