<?xml version="1.0" standalone="no"?>
<!DOCTYPE svg PUBLIC "-//W3C//DTD SVG 20010904//EN"
 "http://www.w3.org/TR/2001/REC-SVG-20010904/DTD/svg10.dtd">
<svg version="1.0" xmlns="http://www.w3.org/2000/svg"
 width="123.000000pt" height="124.000000pt" viewBox="0 0 123.000000 124.000000"
 preserveAspectRatio="xMidYMid meet">
<metadata>
Created by potrace 1.16, written by Peter Selinger 2001-2019
</metadata>
<g transform="translate(0.000000,124.000000) scale(0.100000,-0.100000)"
fill="#000000" stroke="none">
<path d="M456 1224 c-188 -45 -364 -212 -427 -405 -35 -107 -35 -282 0 -388
50 -153 167 -286 316 -361 177 -89 341 -93 513 -15 40 18 53 29 50 42 -5 24
-27 21 -118 -13 -101 -38 -241 -40 -342 -6 -145 50 -272 161 -338 296 -49 99
-64 175 -57 286 19 293 238 512 527 527 294 16 534 -182 587 -482 42 -246 -75
-440 -214 -354 -59 37 -73 80 -70 216 2 102 -1 124 -19 163 -68 145 -241 205
-381 134 -99 -51 -163 -168 -149 -273 32 -233 304 -329 474 -168 27 26 32 28
32 12 0 -31 48 -102 84 -125 19 -11 57 -23 83 -27 88 -10 156 44 199 157 28
72 26 265 -4 355 -71 214 -238 378 -438 429 -76 20 -227 20 -308 0z m252 -402
c132 -60 172 -235 80 -346 -70 -85 -197 -108 -291 -53 -115 68 -149 210 -77
319 62 93 186 127 288 80z"/>
</g>
</svg>
