<?xml version="1.0" standalone="no"?>
<!DOCTYPE svg PUBLIC "-//W3C//DTD SVG 20010904//EN"
 "http://www.w3.org/TR/2001/REC-SVG-20010904/DTD/svg10.dtd">
<svg version="1.0" xmlns="http://www.w3.org/2000/svg"
 width="102.000000pt" height="160.000000pt" viewBox="0 0 102.000000 160.000000"
 preserveAspectRatio="xMidYMid meet">
<metadata>
Created by potrace 1.16, written by Peter Selinger 2001-2019
</metadata>
<g transform="translate(0.000000,160.000000) scale(0.100000,-0.100000)"
fill="#000000" stroke="none">
<path d="M383 1585 c-203 -55 -347 -219 -375 -427 -18 -139 -1 -198 141 -483
138 -276 352 -675 362 -675 17 0 412 752 460 875 44 114 55 189 40 283 -31
205 -183 376 -376 427 -73 18 -182 18 -252 0z m196 -25 c187 -31 347 -182 391
-369 20 -85 8 -202 -29 -296 -49 -123 -416 -826 -431 -825 -20 2 -443 839
-458 908 -29 133 -5 271 68 380 83 124 203 190 385 211 6 0 39 -4 74 -9z"/>
<path d="M438 1296 c-93 -33 -140 -95 -146 -191 -5 -77 8 -119 50 -164 128
-136 355 -70 389 113 29 159 -139 297 -293 242z m161 -46 c101 -51 132 -183
64 -268 -35 -44 -105 -82 -150 -82 -101 0 -193 91 -193 189 0 42 29 109 56
132 60 52 155 64 223 29z"/>
</g>
</svg>
