<?xml version="1.0" standalone="no"?>
<!DOCTYPE svg PUBLIC "-//W3C//DTD SVG 20010904//EN"
 "http://www.w3.org/TR/2001/REC-SVG-20010904/DTD/svg10.dtd">
<svg version="1.0" xmlns="http://www.w3.org/2000/svg"
 width="201.000000pt" height="213.000000pt" viewBox="0 0 201.000000 213.000000"
 preserveAspectRatio="xMidYMid meet">
<metadata>
Created by potrace 1.16, written by Peter Selinger 2001-2019
</metadata>
<g transform="translate(0.000000,213.000000) scale(0.100000,-0.100000)"
fill="#000000" stroke="none">
<path d="M833 2116 c-473 -91 -806 -484 -830 -981 -26 -531 284 -973 775
-1107 103 -28 343 -31 446 -5 394 99 679 405 767 822 24 115 26 328 3 445 -75
396 -354 701 -739 806 -114 31 -313 41 -422 20z m332 -81 c327 -57 596 -288
711 -611 191 -533 -86 -1138 -596 -1302 -362 -116 -758 12 -992 321 -74 99
-149 252 -179 367 -27 107 -37 317 -19 428 34 216 126 399 274 548 210 211
501 301 801 249z"/>
<path d="M462 1448 c-16 -16 -15 -43 1 -56 6 -5 93 -47 192 -92 185 -85 206
-89 213 -43 2 11 -3 24 -10 30 -17 14 -362 173 -374 173 -6 0 -15 -5 -22 -12z"/>
<path d="M1340 1372 c-146 -70 -186 -93 -188 -109 -2 -14 4 -26 18 -33 18 -10
46 0 188 65 192 87 212 99 212 123 0 20 -18 42 -35 42 -5 0 -93 -40 -195 -88z"/>
<path d="M619 1161 c-21 -22 -29 -39 -29 -66 0 -27 8 -44 29 -66 36 -36 70
-37 108 -5 23 20 28 32 28 71 0 39 -5 51 -28 71 -38 32 -72 31 -108 -5z"/>
<path d="M1289 1161 c-53 -53 -32 -140 37 -157 62 -16 116 55 94 122 -22 67
-82 83 -131 35z"/>
<path d="M881 734 c-93 -25 -176 -87 -231 -172 -31 -47 -30 -78 3 -88 16 -5
26 0 42 22 44 62 102 117 145 139 161 82 355 31 454 -120 38 -56 63 -68 86
-40 16 20 -1 62 -47 118 -111 132 -284 186 -452 141z"/>
</g>
</svg>
