<?xml version="1.0" standalone="no"?>
<!DOCTYPE svg PUBLIC "-//W3C//DTD SVG 20010904//EN"
 "http://www.w3.org/TR/2001/REC-SVG-20010904/DTD/svg10.dtd">
<svg version="1.0" xmlns="http://www.w3.org/2000/svg"
 width="223.000000pt" height="141.000000pt" viewBox="0 0 223.000000 141.000000"
 preserveAspectRatio="xMidYMid meet">
<metadata>
Created by potrace 1.16, written by Peter Selinger 2001-2019
</metadata>
<g transform="translate(0.000000,141.000000) scale(0.100000,-0.100000)"
fill="#000000" stroke="none">
<path d="M531 1394 c-190 -41 -369 -183 -461 -366 -57 -113 -73 -201 -68 -361
5 -157 28 -234 102 -346 88 -132 260 -256 407 -295 185 -48 377 -19 542 81 58
35 60 36 86 19 222 -143 477 -163 696 -56 251 122 395 354 395 635 0 178 -52
325 -163 456 -207 246 -550 319 -833 176 -38 -19 -80 -44 -94 -55 l-25 -20
-42 29 c-147 102 -362 143 -542 103z m311 -43 c78 -20 175 -64 217 -98 l25
-20 -27 -18 c-15 -9 -48 -45 -74 -79 -210 -277 -187 -680 52 -920 l46 -46 -46
-29 c-162 -103 -377 -126 -561 -61 -174 61 -344 227 -405 395 -30 83 -38 302
-15 396 88 353 442 568 788 480z m858 -2 c121 -33 204 -83 300 -179 137 -136
190 -265 190 -465 0 -197 -58 -336 -200 -476 -177 -176 -426 -233 -663 -151
-47 16 -109 44 -136 61 l-50 32 35 31 c89 79 173 235 200 374 43 225 -14 423
-175 604 -50 58 -52 62 -35 75 40 30 162 85 219 99 91 22 226 20 315 -5z
m-522 -204 c178 -195 221 -477 108 -720 -38 -80 -113 -184 -153 -210 l-27 -18
-48 52 c-72 78 -107 133 -141 224 -29 78 -31 90 -31 227 -1 134 1 151 27 225
15 44 44 104 64 134 38 58 120 151 133 151 5 0 35 -29 68 -65z"/>
</g>
</svg>
