<?xml version="1.0" standalone="no"?>
<!DOCTYPE svg PUBLIC "-//W3C//DTD SVG 20010904//EN"
 "http://www.w3.org/TR/2001/REC-SVG-20010904/DTD/svg10.dtd">
<svg version="1.0" xmlns="http://www.w3.org/2000/svg"
 width="170.000000pt" height="236.000000pt" viewBox="0 0 170.000000 236.000000"
 preserveAspectRatio="xMidYMid meet">
<metadata>
Created by potrace 1.16, written by Peter Selinger 2001-2019
</metadata>
<g transform="translate(0.000000,236.000000) scale(0.100000,-0.100000)"
fill="#000000" stroke="none">
<path d="M785 2351 c-122 -34 -190 -113 -202 -234 l-6 -66 -59 -36 c-81 -50
-149 -123 -192 -204 -50 -95 -66 -166 -66 -291 l0 -105 -29 -13 c-79 -35 -120
-100 -121 -190 0 -87 57 -168 131 -187 21 -5 29 -17 44 -63 39 -125 104 -218
207 -294 l68 -51 0 -73 c0 -83 8 -77 -120 -89 -181 -19 -331 -119 -401 -268
-43 -94 -52 -195 -15 -181 8 3 17 27 21 59 9 75 54 161 117 223 75 75 159 110
298 127 54 6 55 6 68 -24 44 -100 179 -190 299 -198 120 -9 243 58 311 167 34
54 40 59 72 59 54 1 166 -26 226 -53 105 -48 195 -169 218 -293 12 -66 30 -90
43 -57 9 24 -14 129 -39 178 -78 156 -213 242 -403 261 -134 12 -125 6 -125
88 l0 72 43 27 c107 67 209 207 236 323 11 47 15 52 64 75 91 44 137 144 107
235 -15 46 -70 108 -109 124 l-28 12 -6 122 c-4 94 -11 137 -29 188 -49 133
-126 232 -226 289 -59 34 -61 37 -62 75 -1 142 -108 259 -246 270 -32 2 -72 0
-89 -4z m165 -57 c44 -19 77 -50 100 -94 20 -40 37 -130 24 -130 -5 0 -41 7
-79 15 -39 8 -106 15 -150 14 -74 0 -96 -3 -194 -25 l-34 -7 6 47 c22 162 172
244 327 180z m94 -263 c218 -77 341 -246 353 -488 7 -117 12 -111 -81 -87
-149 37 -342 159 -426 268 -40 52 -61 57 -86 19 -53 -81 -173 -183 -281 -237
-48 -24 -182 -66 -210 -66 -19 0 -17 160 2 233 52 198 209 339 425 381 61 11
246 -2 304 -23z m-137 -382 c114 -118 258 -200 413 -235 l70 -16 0 -167 c0
-192 -14 -273 -61 -361 -119 -223 -410 -342 -642 -261 -85 29 -203 107 -257
169 -99 115 -132 233 -128 461 l3 153 71 18 c148 38 302 127 398 231 31 33 56
64 56 70 0 16 6 11 77 -62z m-651 -587 c-9 -9 -76 48 -91 78 -35 67 -9 164 56
208 l34 23 3 -152 c1 -83 0 -154 -2 -157z m1233 272 c68 -61 78 -142 26 -210
-14 -19 -39 -41 -56 -49 l-29 -16 0 156 c0 96 4 155 10 155 5 0 28 -16 49 -36z
m-799 -771 c82 -26 196 -28 285 -5 44 11 88 23 98 27 15 6 17 0 17 -68 0 -67
2 -76 20 -82 26 -8 26 -12 -15 -68 -116 -157 -324 -179 -458 -49 -36 35 -83
101 -76 105 44 24 44 24 47 96 3 64 5 72 20 66 9 -4 37 -14 62 -22z"/>
<path d="M556 1268 c-23 -32 -20 -74 6 -92 19 -13 25 -14 43 -2 29 19 41 60
27 91 -15 32 -55 34 -76 3z"/>
<path d="M1077 1278 c-28 -21 -32 -73 -8 -97 35 -35 81 -4 81 54 0 50 -35 71
-73 43z"/>
<path d="M700 889 c0 -30 80 -63 150 -63 79 1 169 49 142 76 -7 7 -24 4 -54
-11 -58 -28 -141 -28 -186 -1 -41 25 -52 25 -52 -1z"/>
</g>
</svg>
