<?xml version="1.0" standalone="no"?>
<!DOCTYPE svg PUBLIC "-//W3C//DTD SVG 20010904//EN"
 "http://www.w3.org/TR/2001/REC-SVG-20010904/DTD/svg10.dtd">
<svg version="1.0" xmlns="http://www.w3.org/2000/svg"
 width="73.000000pt" height="146.000000pt" viewBox="0 0 73.000000 146.000000"
 preserveAspectRatio="xMidYMid meet">
<metadata>
Created by potrace 1.16, written by Peter Selinger 2001-2019
</metadata>
<g transform="translate(0.000000,146.000000) scale(0.100000,-0.100000)"
fill="#000000" stroke="none">
<path d="M269 1446 c-267 -72 -352 -395 -157 -597 168 -173 482 -118 584 103
25 55 29 74 29 153 -1 101 -18 153 -76 225 -84 104 -244 153 -380 116z m248
-67 c34 -16 74 -44 89 -62 83 -97 104 -241 51 -349 -52 -107 -146 -169 -268
-176 -102 -6 -163 14 -232 78 -80 73 -102 124 -102 240 0 104 9 130 67 196 98
112 255 141 395 73z"/>
<path d="M253 691 c-193 -66 -285 -250 -224 -451 19 -62 31 -81 84 -135 84
-85 146 -108 272 -103 156 7 254 68 314 197 22 49 26 69 26 156 0 81 -4 109
-21 146 -76 163 -280 250 -451 190z m249 -53 c75 -34 122 -79 155 -146 35 -71
38 -176 9 -261 -51 -148 -239 -228 -406 -174 -70 22 -150 96 -181 165 -32 74
-33 204 -2 264 84 159 267 224 425 152z"/>
</g>
</svg>
