<?xml version="1.0" standalone="no"?>
<!DOCTYPE svg PUBLIC "-//W3C//DTD SVG 20010904//EN"
 "http://www.w3.org/TR/2001/REC-SVG-20010904/DTD/svg10.dtd">
<svg version="1.0" xmlns="http://www.w3.org/2000/svg"
 width="332.000000pt" height="476.000000pt" viewBox="0 0 332.000000 476.000000"
 preserveAspectRatio="xMidYMid meet">
<metadata>
Created by potrace 1.16, written by Peter Selinger 2001-2019
</metadata>
<g transform="translate(0.000000,476.000000) scale(0.100000,-0.100000)"
fill="#000000" stroke="none">
<path d="M3315 3930 c0 -459 1 -647 2 -418 2 230 2 606 0 835 -1 230 -2 42 -2
-417z"/>
<path d="M2000 4080 c-170 -45 -309 -141 -393 -271 l-36 -56 -78 -6 c-75 -6
-195 -38 -220 -59 -7 -6 -13 -18 -13 -27 0 -14 -14 -16 -97 -16 -88 0 -104 -3
-158 -30 -79 -38 -147 -109 -176 -182 -43 -113 -38 -292 17 -593 126 -692 196
-864 373 -914 75 -21 96 -20 148 5 l43 21 39 -31 c22 -17 66 -44 98 -59 50
-23 71 -27 148 -27 102 0 148 18 209 81 34 35 35 35 65 19 127 -65 262 -12
339 132 63 120 142 432 217 858 23 129 26 170 23 310 -3 145 -5 164 -27 204
-60 114 -176 195 -299 207 -49 5 -62 11 -70 29 -12 27 -85 62 -144 70 -82 12
-91 15 -79 29 12 14 89 50 173 80 42 15 47 21 52 54 3 20 2 71 -2 112 l-7 75
-35 2 c-19 1 -69 -6 -110 -17z m108 -101 l-3 -71 -61 -22 c-150 -55 -232 -137
-250 -251 l-6 -42 -105 0 -105 0 6 41 c19 120 141 271 276 341 53 27 191 73
223 74 l28 1 -3 -71z m-118 -279 c63 -8 115 -31 99 -43 -2 -2 -28 -18 -57 -36
-29 -18 -61 -44 -71 -58 l-20 -24 -53 17 c-29 9 -54 18 -56 20 -4 2 15 75 28
110 11 27 19 28 130 14z m-444 -17 c-4 -9 -10 -36 -13 -60 -5 -40 -9 -44 -61
-68 l-56 -26 -23 30 c-13 16 -39 39 -58 51 -19 12 -35 26 -35 30 0 23 118 58
199 59 46 1 52 -1 47 -16z m-245 -120 c30 -17 55 -37 57 -46 2 -8 -14 -38 -36
-66 -46 -61 -67 -125 -82 -241 -16 -135 -12 -256 20 -555 43 -402 59 -512 81
-575 11 -30 21 -64 22 -74 5 -48 -101 -58 -181 -17 -112 57 -154 172 -261 706
-65 331 -74 390 -74 520 -1 165 37 263 124 326 95 67 234 77 330 22z m1034 2
c64 -31 109 -79 144 -155 25 -52 26 -63 25 -210 -1 -160 -18 -280 -80 -570
-65 -301 -117 -478 -167 -562 -47 -80 -141 -126 -221 -108 -67 15 -69 23 -37
125 16 50 36 133 45 185 24 145 76 723 76 841 0 167 -31 273 -100 353 -17 18
-30 41 -30 50 0 19 67 65 112 77 61 15 175 3 233 -26z m-483 -45 c164 -61 241
-228 223 -485 -9 -145 -43 -500 -60 -645 -38 -309 -91 -431 -209 -486 -61 -28
-149 -32 -217 -9 -104 36 -197 142 -218 249 -19 95 -66 502 -91 784 -11 135 1
301 30 394 34 110 108 173 250 213 76 21 216 14 292 -15z"/>
<path d="M5 1995 c0 -1100 1 -1549 2 -997 2 552 2 1452 0 2000 -1 548 -2 97
-2 -1003z"/>
<path d="M3313 1805 c0 -33 2 -45 4 -27 2 18 2 45 0 60 -2 15 -4 0 -4 -33z"/>
<path d="M3315 885 c0 -473 1 -665 2 -427 2 239 2 626 0 860 -1 235 -2 40 -2
-433z"/>
</g>
</svg>
