<?xml version="1.0" standalone="no"?>
<!DOCTYPE svg PUBLIC "-//W3C//DTD SVG 20010904//EN"
 "http://www.w3.org/TR/2001/REC-SVG-20010904/DTD/svg10.dtd">
<svg version="1.0" xmlns="http://www.w3.org/2000/svg"
 width="211.000000pt" height="239.000000pt" viewBox="0 0 211.000000 239.000000"
 preserveAspectRatio="xMidYMid meet">
<metadata>
Created by potrace 1.16, written by Peter Selinger 2001-2019
</metadata>
<g transform="translate(0.000000,239.000000) scale(0.100000,-0.100000)"
fill="#000000" stroke="none">
<path d="M1816 2374 c-9 -8 -16 -20 -16 -26 0 -6 -9 -42 -20 -79 l-21 -68 -92
-3 c-86 -3 -92 -4 -95 -25 -3 -17 12 -33 67 -73 l70 -51 -15 -47 c-34 -111
-38 -134 -23 -143 21 -13 21 -13 100 44 l73 54 69 -54 c38 -29 75 -53 83 -53
22 0 28 27 15 68 -6 20 -17 58 -25 83 l-14 46 70 52 c54 41 69 57 66 74 -3 21
-9 22 -95 25 l-92 3 -28 85 c-29 91 -50 115 -77 88z m49 -161 l18 -62 70 -3
70 -3 -56 -38 -55 -38 19 -56 c29 -85 31 -85 -62 -13 l-26 20 -53 -40 c-30
-22 -55 -39 -56 -37 -2 2 5 31 15 65 l19 61 -55 38 -56 38 71 3 71 3 17 69
c10 38 21 66 24 62 4 -4 15 -35 25 -69z"/>
<path d="M1005 2173 c-277 -26 -486 -119 -676 -300 -229 -219 -355 -562 -321
-871 53 -471 334 -816 777 -955 120 -38 230 -51 374 -44 209 10 377 65 556
181 109 71 299 254 293 282 -5 26 -48 23 -124 -10 -118 -50 -178 -61 -334 -61
-163 1 -241 17 -376 79 -204 95 -382 273 -470 472 -89 200 -102 469 -32 684
57 177 177 343 334 462 73 55 73 88 -1 81z m-95 -97 c-141 -120 -253 -299
-301 -481 -30 -114 -37 -338 -14 -459 65 -346 329 -642 670 -749 180 -56 371
-61 535 -13 47 13 86 23 88 21 8 -8 -147 -136 -228 -187 -110 -69 -221 -113
-350 -140 -126 -26 -335 -21 -457 11 -375 98 -655 365 -757 723 -54 189 -58
369 -12 551 30 118 105 278 170 364 66 87 201 211 282 259 88 52 229 108 319
128 109 23 112 21 55 -28z"/>
<path d="M1332 1548 c-6 -7 -18 -43 -28 -80 l-18 -68 -72 0 c-54 0 -75 -4 -85
-16 -12 -15 -9 -21 25 -48 22 -17 50 -40 64 -51 l24 -20 -22 -68 c-35 -110
-11 -125 81 -53 l56 44 56 -44 c90 -70 110 -56 71 51 -14 37 -23 69 -22 70 38
25 128 98 128 104 0 21 -30 31 -96 31 l-72 0 -23 68 c-22 67 -35 92 -49 92 -4
0 -12 -6 -18 -12z m108 -198 l54 -5 -42 -29 c-23 -16 -42 -32 -42 -36 0 -4 7
-27 15 -50 8 -23 15 -45 15 -47 0 -2 -17 9 -37 26 -21 17 -42 31 -46 31 -5 0
-26 -13 -47 -30 -21 -16 -40 -30 -43 -30 -3 0 3 25 13 55 l19 54 -45 28 c-24
15 -44 30 -44 33 0 3 24 3 54 2 l54 -4 17 59 17 58 17 -55 17 -55 54 -5z"/>
</g>
</svg>
