<?xml version="1.0" standalone="no"?>
<!DOCTYPE svg PUBLIC "-//W3C//DTD SVG 20010904//EN"
 "http://www.w3.org/TR/2001/REC-SVG-20010904/DTD/svg10.dtd">
<svg version="1.0" xmlns="http://www.w3.org/2000/svg"
 width="206.000000pt" height="137.000000pt" viewBox="0 0 206.000000 137.000000"
 preserveAspectRatio="xMidYMid meet">
<metadata>
Created by potrace 1.16, written by Peter Selinger 2001-2019
</metadata>
<g transform="translate(0.000000,137.000000) scale(0.100000,-0.100000)"
fill="#000000" stroke="none">
<path d="M1195 1363 c-284 -37 -631 -170 -826 -317 -103 -78 -231 -211 -278
-289 -69 -117 -85 -171 -86 -292 0 -105 2 -114 33 -177 110 -224 419 -331 777
-270 244 42 562 154 779 274 379 210 520 418 446 659 -54 179 -190 300 -415
369 -130 39 -315 58 -430 43z m275 -54 c222 -32 430 -152 499 -287 56 -111 63
-227 18 -325 -91 -197 -417 -408 -856 -553 -450 -149 -791 -126 -983 67 -70
70 -99 131 -105 225 -11 145 74 319 226 468 l50 49 93 -6 c154 -11 294 -59
446 -153 67 -42 102 -50 102 -24 0 12 -111 85 -190 125 -106 54 -246 93 -348
97 -23 1 -42 4 -42 7 1 8 109 76 198 124 65 35 77 38 119 32 132 -20 303 -98
441 -202 46 -35 87 -63 92 -63 24 0 15 32 -16 59 -104 91 -278 188 -405 225
l-82 23 94 31 c160 52 165 53 248 36 148 -31 286 -107 379 -209 54 -58 66 -65
76 -39 9 24 -124 152 -209 202 -38 22 -101 50 -138 62 -38 12 -66 24 -63 27 7
7 185 19 236 15 25 -1 79 -7 120 -13z"/>
</g>
</svg>
