<?xml version="1.0" standalone="no"?>
<!DOCTYPE svg PUBLIC "-//W3C//DTD SVG 20010904//EN"
 "http://www.w3.org/TR/2001/REC-SVG-20010904/DTD/svg10.dtd">
<svg version="1.0" xmlns="http://www.w3.org/2000/svg"
 width="223.000000pt" height="160.000000pt" viewBox="0 0 223.000000 160.000000"
 preserveAspectRatio="xMidYMid meet">
<metadata>
Created by potrace 1.16, written by Peter Selinger 2001-2019
</metadata>
<g transform="translate(0.000000,160.000000) scale(0.100000,-0.100000)"
fill="#000000" stroke="none">
<path d="M983 1585 c-126 -34 -221 -106 -273 -208 l-33 -62 -81 3 c-145 6
-269 -46 -365 -154 -53 -60 -109 -171 -117 -236 -6 -46 -8 -48 -38 -48 -37 0
-61 -16 -70 -45 -4 -13 41 -161 118 -390 114 -336 128 -373 159 -402 27 -24
48 -33 88 -38 30 -3 387 -5 794 -3 694 3 743 4 768 21 16 10 36 32 46 49 26
41 251 716 251 750 0 35 -33 58 -82 58 l-38 0 0 93 c0 214 -91 384 -242 452
-55 25 -69 27 -147 23 -63 -4 -98 -11 -132 -28 l-46 -22 -52 55 c-56 59 -144
112 -225 133 -65 18 -216 17 -283 -1z m322 -98 c72 -34 116 -66 151 -113 l27
-35 -31 -32 c-74 -76 -127 -236 -120 -361 l3 -66 -142 0 -143 0 0 25 c0 40
-46 154 -86 212 -43 62 -98 113 -166 152 l-48 28 29 44 c82 128 191 181 366
176 84 -2 109 -7 160 -30z m540 -131 c117 -55 183 -182 192 -369 l6 -107 -319
2 -319 3 -3 56 c-6 118 49 266 130 348 89 90 209 116 313 67z m-1101 -150
c105 -51 205 -182 223 -289 l6 -37 -396 0 -395 0 13 50 c37 140 132 247 260
293 78 28 213 20 289 -17z m1391 -433 c-3 -10 -56 -166 -118 -348 l-112 -330
-782 -3 -782 -2 -12 22 c-10 18 -229 665 -229 675 0 2 459 3 1021 3 967 0
1020 -1 1014 -17z"/>
</g>
</svg>
