<?xml version="1.0" standalone="no"?>
<!DOCTYPE svg PUBLIC "-//W3C//DTD SVG 20010904//EN"
 "http://www.w3.org/TR/2001/REC-SVG-20010904/DTD/svg10.dtd">
<svg version="1.0" xmlns="http://www.w3.org/2000/svg"
 width="273.000000pt" height="278.000000pt" viewBox="0 0 273.000000 278.000000"
 preserveAspectRatio="xMidYMid meet">
<metadata>
Created by potrace 1.16, written by Peter Selinger 2001-2019
</metadata>
<g transform="translate(0.000000,278.000000) scale(0.100000,-0.100000)"
fill="#000000" stroke="none">
<path d="M1300 2774 c-234 -46 -374 -116 -515 -258 -128 -129 -191 -290 -206
-521 -12 -199 -29 -277 -126 -564 l-85 -254 4 -106 c5 -131 30 -195 111 -275
l54 -55 -56 -24 c-31 -14 -79 -32 -107 -41 -81 -26 -175 -88 -217 -142 -50
-65 -113 -194 -133 -272 -8 -35 -16 -107 -17 -160 -2 -91 -1 -97 18 -97 18 0
21 11 31 116 14 137 41 226 93 306 78 118 161 172 376 242 116 38 259 71 310
71 1 0 14 -24 28 -53 54 -110 184 -203 326 -233 143 -30 356 -10 475 46 91 41
194 132 219 191 12 29 27 49 36 49 22 0 248 -58 269 -68 9 -5 32 -12 50 -15
51 -10 163 -57 208 -88 92 -63 182 -183 215 -289 13 -43 21 -99 23 -163 2 -96
12 -127 36 -112 9 6 11 39 7 124 -13 300 -153 477 -455 576 l-82 27 38 28
c112 81 183 242 168 380 -3 30 -39 159 -80 285 -79 247 -90 299 -106 500 -22
264 -67 395 -198 572 -47 63 -78 92 -144 136 -106 71 -177 104 -265 122 -71
16 -260 27 -303 19z m258 -70 c119 -24 211 -67 280 -129 33 -30 66 -55 74 -55
17 0 82 -88 119 -162 44 -86 66 -187 79 -358 9 -116 9 -178 0 -245 -21 -167
-71 -330 -135 -435 -43 -71 -124 -162 -136 -154 -12 7 -68 -28 -139 -87 -71
-59 -119 -83 -216 -110 -189 -52 -385 11 -566 180 -115 108 -190 226 -236 371
-30 98 -32 105 -42 247 -33 472 108 748 456 890 152 62 311 78 462 47z m699
-1289 c68 -217 78 -259 77 -320 -1 -119 -84 -279 -160 -311 -19 -8 -34 -19
-34 -24 0 -6 -11 -5 -27 1 -16 6 -68 17 -117 25 -49 7 -89 15 -90 16 -1 2 -14
20 -29 41 -37 49 -53 90 -62 153 l-7 51 94 94 c69 69 104 113 132 168 43 83
99 239 118 331 9 43 14 56 19 43 4 -10 43 -130 86 -268z m-1626 74 c58 -170
127 -279 251 -394 l71 -65 -7 -43 c-8 -46 -42 -111 -75 -141 -12 -11 -21 -27
-21 -36 0 -14 -16 -18 -92 -25 -170 -16 -191 -14 -221 20 -39 44 -95 162 -107
224 -14 76 -2 134 74 364 36 108 66 202 66 207 0 5 5 21 12 37 11 27 11 26 19
-28 4 -31 18 -85 30 -120z m1133 -521 c8 -61 38 -133 68 -165 62 -66 -87 -230
-261 -283 -133 -42 -343 -37 -450 11 -116 51 -230 176 -222 245 0 6 19 34 40
63 22 29 45 74 51 102 7 27 15 49 19 49 4 0 41 -18 82 -39 101 -53 167 -70
279 -72 119 -2 198 21 301 90 41 27 77 50 80 50 4 1 10 -23 13 -51z"/>
</g>
</svg>
