<?xml version="1.0" standalone="no"?>
<!DOCTYPE svg PUBLIC "-//W3C//DTD SVG 20010904//EN"
 "http://www.w3.org/TR/2001/REC-SVG-20010904/DTD/svg10.dtd">
<svg version="1.0" xmlns="http://www.w3.org/2000/svg"
 width="196.000000pt" height="184.000000pt" viewBox="0 0 196.000000 184.000000"
 preserveAspectRatio="xMidYMid meet">
<metadata>
Created by potrace 1.16, written by Peter Selinger 2001-2019
</metadata>
<g transform="translate(0.000000,184.000000) scale(0.100000,-0.100000)"
fill="#000000" stroke="none">
<path d="M196 1830 c-61 -11 -120 -51 -161 -109 l-30 -43 -3 -731 c-2 -403 0
-746 3 -763 9 -53 60 -118 117 -150 l53 -29 779 -3 c859 -3 844 -4 919 59 21
17 48 50 60 72 l22 42 3 730 c2 659 1 734 -14 774 -22 58 -70 110 -124 135
-44 21 -57 21 -810 22 -421 1 -787 -2 -814 -6z m1604 -92 c33 -17 51 -35 68
-68 l22 -44 0 -691 c0 -451 -4 -703 -11 -728 -15 -56 -61 -103 -113 -116 -31
-8 -277 -11 -803 -11 l-759 0 -44 22 c-33 17 -51 35 -67 68 l-23 44 0 696 c0
424 4 708 10 729 12 41 54 88 95 107 24 11 180 13 805 14 l776 0 44 -22z"/>
<path d="M469 1354 c-21 -25 -26 -816 -6 -833 10 -8 74 -11 217 -9 181 3 204
5 214 21 8 12 8 22 0 35 -10 15 -29 17 -188 14 l-176 -3 0 165 0 166 150 0
c130 0 151 2 157 16 3 9 2 24 -4 33 -8 13 -35 16 -157 19 l-146 3 0 157 0 157
155 -2 c179 -2 208 4 203 45 l-3 27 -201 3 c-178 2 -203 0 -215 -14z"/>
<path d="M1071 1116 c-15 -18 -14 -21 88 -169 l80 -117 -99 -141 c-83 -117
-98 -144 -89 -160 24 -46 54 -21 174 149 32 45 62 79 65 75 4 -5 44 -61 90
-125 48 -68 90 -118 100 -118 19 0 40 19 40 36 0 12 -144 227 -177 265 -12 15
-4 31 77 144 49 71 90 132 90 136 0 15 -33 40 -49 37 -9 -2 -50 -52 -92 -112
-42 -59 -79 -108 -83 -108 -4 1 -40 47 -79 104 -39 57 -76 106 -81 110 -17 12
-43 9 -55 -6z"/>
</g>
</svg>
