<?xml version="1.0" standalone="no"?>
<!DOCTYPE svg PUBLIC "-//W3C//DTD SVG 20010904//EN"
 "http://www.w3.org/TR/2001/REC-SVG-20010904/DTD/svg10.dtd">
<svg version="1.0" xmlns="http://www.w3.org/2000/svg"
 width="161.000000pt" height="198.000000pt" viewBox="0 0 161.000000 198.000000"
 preserveAspectRatio="xMidYMid meet">
<metadata>
Created by potrace 1.16, written by Peter Selinger 2001-2019
</metadata>
<g transform="translate(0.000000,198.000000) scale(0.100000,-0.100000)"
fill="#000000" stroke="none">
<path d="M162 1816 l-162 -165 2 -823 3 -823 800 0 800 0 0 985 0 985 -641 3
-641 2 -161 -164z m1405 -828 l-2 -943 -762 -3 -763 -2 0 780 0 779 153 3 152
3 3 163 2 162 610 0 610 0 -3 -942z m-1267 772 l0 -120 -115 0 c-63 0 -115 4
-115 8 0 8 218 232 226 232 2 0 4 -54 4 -120z"/>
</g>
</svg>
