<?xml version="1.0" standalone="no"?>
<!DOCTYPE svg PUBLIC "-//W3C//DTD SVG 20010904//EN"
 "http://www.w3.org/TR/2001/REC-SVG-20010904/DTD/svg10.dtd">
<svg version="1.0" xmlns="http://www.w3.org/2000/svg"
 width="84.000000pt" height="218.000000pt" viewBox="0 0 84.000000 218.000000"
 preserveAspectRatio="xMidYMid meet">
<metadata>
Created by potrace 1.16, written by Peter Selinger 2001-2019
</metadata>
<g transform="translate(0.000000,218.000000) scale(0.100000,-0.100000)"
fill="#000000" stroke="none">
<path d="M474 2161 c-17 -10 -41 -34 -52 -53 -23 -38 -63 -180 -83 -296 l-12
-72 -31 55 c-67 120 -124 167 -177 144 -64 -26 -64 -79 -3 -205 26 -53 71
-131 99 -174 l53 -78 -42 -11 c-66 -17 -138 -63 -168 -106 -43 -62 -58 -152
-58 -365 0 -285 36 -643 80 -810 36 -131 89 -200 146 -186 89 23 240 318 373
729 82 256 104 350 105 453 1 84 -1 94 -29 139 -27 45 -67 82 -134 125 l-23
16 58 44 c75 55 198 173 235 224 37 50 38 97 4 132 -21 21 -32 24 -58 19 -41
-8 -130 -68 -169 -114 -27 -32 -30 -33 -23 -11 38 136 47 185 48 268 l2 94
-33 29 c-38 34 -65 36 -108 10z m86 -41 c38 -38 21 -179 -45 -380 -38 -112
-112 -258 -124 -244 -17 20 -34 154 -27 215 10 87 54 293 73 341 16 40 64 88
89 88 8 0 23 -9 34 -20z m-360 -256 c65 -70 106 -171 146 -352 4 -20 1 -23
-18 -20 -27 4 -99 106 -168 241 -50 98 -60 143 -38 165 20 20 34 14 78 -34z
m593 -35 c5 -9 7 -28 3 -43 -14 -55 -302 -313 -341 -304 -13 2 -5 21 37 92 61
102 147 200 215 245 50 34 70 36 86 10z m-301 -404 c59 -21 135 -87 159 -140
26 -56 24 -129 -7 -258 l-26 -109 -95 7 c-89 7 -95 6 -91 -11 3 -16 17 -20 83
-27 43 -4 81 -10 84 -13 6 -6 -98 -319 -140 -419 l-32 -76 -65 3 c-45 2 -66
-1 -69 -9 -5 -15 5 -19 69 -28 l47 -6 -17 -37 c-66 -142 -147 -262 -178 -262
-41 0 -88 100 -118 250 -15 77 -51 399 -44 404 1 2 40 -1 86 -7 85 -10 98 -8
89 17 -4 10 -31 16 -90 21 -76 6 -86 10 -91 29 -3 11 -6 110 -6 219 l0 198 53
-5 c120 -13 151 -12 155 5 2 13 -8 18 -47 23 -28 3 -73 9 -101 12 -57 7 -60
14 -35 85 28 77 93 127 198 149 56 12 171 4 229 -15z"/>
</g>
</svg>
