<?xml version="1.0" standalone="no"?>
<!DOCTYPE svg PUBLIC "-//W3C//DTD SVG 20010904//EN"
 "http://www.w3.org/TR/2001/REC-SVG-20010904/DTD/svg10.dtd">
<svg version="1.0" xmlns="http://www.w3.org/2000/svg"
 width="200.000000pt" height="207.000000pt" viewBox="0 0 200.000000 207.000000"
 preserveAspectRatio="xMidYMid meet">
<metadata>
Created by potrace 1.16, written by Peter Selinger 2001-2019
</metadata>
<g transform="translate(0.000000,207.000000) scale(0.100000,-0.100000)"
fill="#000000" stroke="none">
<path d="M984 2053 c-54 -54 -70 -181 -34 -261 11 -24 42 -69 70 -100 60 -68
78 -118 61 -179 -6 -23 -12 -47 -13 -54 -2 -7 5 -15 15 -17 22 -5 47 51 47
108 0 57 -21 101 -79 168 -89 102 -104 184 -53 276 37 65 28 101 -14 59z"/>
<path d="M604 2035 c-72 -110 -55 -232 50 -353 56 -65 73 -118 56 -176 -17
-60 -17 -81 0 -81 25 0 44 55 43 122 -2 70 -16 102 -74 170 -85 98 -100 179
-49 272 16 29 27 57 24 62 -10 17 -34 9 -50 -16z"/>
<path d="M64 1306 c-3 -8 -4 -155 -2 -328 3 -310 4 -314 30 -387 64 -175 188
-294 363 -348 53 -16 98 -18 385 -18 323 0 325 0 401 26 164 56 284 173 334
325 l17 52 96 4 c109 5 163 24 226 78 55 49 79 102 84 191 8 135 -39 224 -145
275 -47 23 -74 29 -149 32 l-93 4 -3 52 -3 51 -768 3 c-657 2 -768 0 -773 -12z
m1500 -323 c0 -238 -3 -299 -17 -352 -46 -173 -174 -302 -344 -346 -79 -21
-653 -22 -729 -1 -125 33 -253 135 -309 247 -51 100 -58 145 -62 442 -3 152
-3 283 0 290 3 9 160 11 733 10 l729 -3 -1 -287z m230 173 c101 -31 156 -102
164 -216 11 -164 -103 -270 -291 -270 -59 0 -68 2 -63 16 3 9 6 121 6 250 l0
234 68 0 c38 0 90 -6 116 -14z"/>
<path d="M223 202 l-223 -2 0 -24 c0 -31 38 -85 79 -113 84 -57 88 -57 711
-61 615 -3 677 1 771 49 45 23 86 74 95 117 l7 32 -274 1 c-577 4 -952 4
-1166 1z m1387 -46 c0 -23 -65 -73 -122 -92 -49 -18 -94 -19 -658 -19 -564 0
-609 1 -658 19 -57 19 -122 69 -122 92 0 12 123 14 780 13 648 0 780 -2 780
-13z"/>
</g>
</svg>
