<?xml version="1.0" standalone="no"?>
<!DOCTYPE svg PUBLIC "-//W3C//DTD SVG 20010904//EN"
 "http://www.w3.org/TR/2001/REC-SVG-20010904/DTD/svg10.dtd">
<svg version="1.0" xmlns="http://www.w3.org/2000/svg"
 width="199.000000pt" height="178.000000pt" viewBox="0 0 199.000000 178.000000"
 preserveAspectRatio="xMidYMid meet">
<metadata>
Created by potrace 1.16, written by Peter Selinger 2001-2019
</metadata>
<g transform="translate(0.000000,178.000000) scale(0.100000,-0.100000)"
fill="#000000" stroke="none">
<path d="M1793 1765 c-3 -10 15 -37 51 -75 63 -66 96 -129 105 -204 5 -39 10
-52 25 -54 17 -4 18 2 14 55 -6 80 -46 162 -114 233 -60 63 -71 69 -81 45z"/>
<path d="M235 1711 c-92 -24 -163 -80 -204 -163 -26 -52 -31 -72 -31 -137 0
-64 5 -86 29 -136 54 -110 72 -118 112 -52 74 121 188 238 335 343 42 30 61
50 57 59 -3 8 -38 31 -78 51 -76 37 -160 51 -220 35z m122 -41 c27 -6 66 -21
87 -34 l39 -23 -62 -42 c-90 -62 -184 -154 -259 -254 l-67 -89 -27 58 c-72
152 1 332 152 379 56 17 76 18 137 5z"/>
<path d="M1490 1711 c-73 -16 -170 -70 -170 -94 0 -7 31 -32 68 -57 91 -61
237 -208 301 -302 28 -43 57 -78 64 -78 20 0 74 91 92 155 40 136 -27 284
-157 347 -58 28 -143 41 -198 29z m166 -56 c48 -20 110 -81 135 -133 33 -68
32 -160 -4 -229 -15 -29 -31 -53 -35 -53 -4 0 -20 21 -36 46 -43 67 -186 215
-268 276 -70 52 -71 52 -48 67 69 48 178 59 256 26z"/>
<path d="M781 1599 c-171 -33 -360 -144 -464 -272 -259 -317 -235 -786 54
-1069 33 -32 59 -60 59 -62 0 -3 -22 -43 -50 -90 -55 -94 -59 -106 -31 -106
13 0 33 25 67 83 26 45 49 84 50 86 2 2 38 -15 81 -37 139 -72 205 -87 383
-87 149 0 158 1 250 33 52 18 120 48 151 66 l56 33 57 -88 c40 -62 63 -89 76
-89 11 0 20 5 20 10 0 6 -28 52 -61 102 l-61 91 45 38 c93 80 183 224 227 364
49 155 34 383 -35 531 -111 240 -316 406 -568 458 -81 17 -233 19 -306 5z
m334 -54 c255 -65 475 -284 540 -537 50 -192 17 -401 -90 -574 -147 -236 -401
-367 -680 -351 -123 7 -195 26 -305 80 -70 34 -102 58 -181 136 -78 79 -102
111 -137 181 -55 113 -73 183 -79 311 -7 136 13 231 72 354 106 219 307 371
547 415 71 12 239 5 313 -15z"/>
<path d="M907 1334 c-4 -4 -7 -106 -7 -226 0 -135 -4 -218 -10 -218 -14 0 -42
-58 -38 -80 2 -14 -34 -56 -116 -139 -84 -84 -117 -124 -113 -135 4 -9 13 -16
21 -16 8 0 65 54 128 120 109 114 116 119 153 118 71 -3 102 77 47 124 l-27
23 0 215 c0 186 -2 215 -15 218 -9 1 -19 0 -23 -4z m42 -488 c15 -18 3 -46
-20 -46 -22 0 -34 22 -25 45 7 19 30 19 45 1z"/>
</g>
</svg>
