<?xml version="1.0" standalone="no"?>
<!DOCTYPE svg PUBLIC "-//W3C//DTD SVG 20010904//EN"
 "http://www.w3.org/TR/2001/REC-SVG-20010904/DTD/svg10.dtd">
<svg version="1.0" xmlns="http://www.w3.org/2000/svg"
 width="129.000000pt" height="232.000000pt" viewBox="0 0 129.000000 232.000000"
 preserveAspectRatio="xMidYMid meet">
<metadata>
Created by potrace 1.16, written by Peter Selinger 2001-2019
</metadata>
<g transform="translate(0.000000,232.000000) scale(0.100000,-0.100000)"
fill="#000000" stroke="none">
<path d="M934 2295 c-14 -14 -190 -357 -391 -763 -532 -1075 -476 -948 -501
-1137 -48 -363 -49 -395 -22 -395 12 0 182 151 313 279 l98 96 426 855 c316
635 426 864 427 891 1 62 -19 85 -131 144 -124 65 -176 72 -219 30z m186 -65
c137 -69 143 -84 80 -209 l-39 -79 -144 76 -143 76 37 77 c36 73 68 109 96
109 8 0 58 -22 113 -50z m-3 -317 c22 -14 22 -16 6 -46 -8 -18 -17 -33 -18
-35 -2 -2 -273 136 -284 145 -3 2 3 19 12 38 l17 35 122 -61 c67 -34 132 -68
145 -76z m-207 -42 c0 -5 -7 -25 -15 -44 -31 -74 -654 -1327 -659 -1327 -4 0
-33 13 -65 30 l-59 29 277 558 c152 307 306 617 340 690 l64 132 58 -30 c33
-16 59 -33 59 -38z m115 -48 c46 -23 54 -30 49 -48 -4 -11 -157 -320 -340
-688 l-334 -667 -59 30 -60 30 38 82 c21 46 132 270 246 498 114 228 245 493
291 589 77 158 100 201 110 201 2 0 28 -12 59 -27z m-785 -1378 c72 -36 130
-67 130 -69 0 -12 -225 -206 -238 -206 -10 0 -28 9 -41 19 l-24 18 19 152 c10
83 19 151 21 151 2 0 62 -29 133 -65z m-163 -343 c-23 -25 -33 -16 -23 23 6
22 9 23 26 13 19 -12 19 -13 -3 -36z"/>
</g>
</svg>
