<?xml version="1.0" standalone="no"?>
<!DOCTYPE svg PUBLIC "-//W3C//DTD SVG 20010904//EN"
 "http://www.w3.org/TR/2001/REC-SVG-20010904/DTD/svg10.dtd">
<svg version="1.0" xmlns="http://www.w3.org/2000/svg"
 width="185.000000pt" height="183.000000pt" viewBox="0 0 185.000000 183.000000"
 preserveAspectRatio="xMidYMid meet">
<metadata>
Created by potrace 1.16, written by Peter Selinger 2001-2019
</metadata>
<g transform="translate(0.000000,183.000000) scale(0.100000,-0.100000)"
fill="#000000" stroke="none">
<path d="M825 1819 c-218 -36 -383 -210 -416 -437 -30 -214 24 -346 336 -805
76 -113 149 -211 160 -217 43 -23 67 1 179 177 59 92 132 204 163 248 60 86
173 313 198 398 32 106 11 267 -51 389 -34 68 -118 147 -202 191 -113 60 -236
78 -367 56z m221 -40 c227 -54 377 -246 377 -479 0 -59 -6 -90 -28 -145 -53
-133 -127 -269 -234 -429 -59 -89 -129 -196 -155 -238 -60 -98 -71 -107 -95
-82 -53 56 -339 501 -391 609 -69 144 -82 187 -82 280 2 230 152 431 358 478
77 18 191 20 250 6z"/>
<path d="M842 1526 c-67 -22 -92 -44 -119 -102 -48 -106 -40 -250 18 -298 105
-88 346 -68 400 34 15 27 19 56 19 128 0 127 -28 190 -104 229 -40 21 -161 26
-214 9z m196 -47 c59 -29 84 -83 86 -188 2 -138 -42 -176 -204 -176 -111 0
-153 17 -176 70 -31 76 -11 216 39 263 58 55 176 69 255 31z"/>
<path d="M1360 546 c0 -14 44 -26 150 -41 120 -17 235 -62 279 -108 37 -40 31
-75 -22 -123 -98 -89 -340 -156 -747 -208 -237 -31 -679 -32 -817 -3 -71 16
-146 47 -158 67 -32 53 303 185 555 220 124 17 130 19 130 37 0 47 -415 -45
-595 -132 -83 -40 -135 -84 -135 -114 0 -51 96 -97 255 -123 117 -19 555 -16
720 5 502 63 756 138 850 249 29 35 34 95 9 133 -39 59 -167 112 -338 140
-114 19 -136 19 -136 1z"/>
</g>
</svg>
