<?xml version="1.0" standalone="no"?>
<!DOCTYPE svg PUBLIC "-//W3C//DTD SVG 20010904//EN"
 "http://www.w3.org/TR/2001/REC-SVG-20010904/DTD/svg10.dtd">
<svg version="1.0" xmlns="http://www.w3.org/2000/svg"
 width="213.000000pt" height="165.000000pt" viewBox="0 0 213.000000 165.000000"
 preserveAspectRatio="xMidYMid meet">
<metadata>
Created by potrace 1.16, written by Peter Selinger 2001-2019
</metadata>
<g transform="translate(0.000000,165.000000) scale(0.100000,-0.100000)"
fill="#000000" stroke="none">
<path d="M1415 1627 c-44 -25 -80 -72 -95 -126 -6 -21 -10 -177 -10 -368 0
-183 -3 -333 -7 -333 -8 0 -30 14 -103 65 -40 27 -51 30 -125 30 -79 0 -86 -2
-173 -47 -117 -61 -172 -65 -248 -16 -72 46 -142 70 -204 70 -63 0 -109 -16
-176 -63 -74 -51 -145 -52 -203 -3 l-31 26 0 254 0 254 611 0 c576 0 610 1
607 18 -3 16 -41 17 -628 17 l-625 0 0 -700 0 -700 1040 -3 c572 -1 1050 0
1063 3 l22 5 0 732 c0 548 -3 741 -12 772 -27 88 -131 149 -217 126 -21 -5
-53 -20 -72 -32 -40 -27 -89 -117 -89 -165 0 -26 -4 -33 -19 -33 -15 0 -20 10
-25 48 -8 64 -61 150 -106 174 -49 25 -125 24 -175 -5z m164 -45 c35 -26 59
-69 70 -125 l8 -47 -153 0 -154 0 6 43 c11 68 40 112 99 146 27 16 92 7 124
-17z m428 -2 c43 -26 66 -63 73 -121 l6 -49 -117 0 c-119 0 -142 -7 -119 -35
9 -11 38 -14 121 -13 l110 1 0 -264 0 -264 -28 -17 c-44 -28 -97 -22 -187 19
l-81 37 0 301 c0 297 0 300 24 341 43 76 132 105 198 64z m-269 -287 l3 -73
-196 0 -195 0 0 68 c0 38 3 72 7 76 5 4 91 6 193 4 l185 -3 3 -72z m2 -208 l0
-85 -195 0 -195 0 0 85 0 85 195 0 195 0 0 -85z m0 -159 l0 -33 -49 5 c-59 5
-106 -9 -191 -59 -39 -23 -81 -39 -105 -41 l-40 -3 -3 69 c-2 38 -1 75 2 83 4
10 45 13 196 13 l190 0 0 -34z m-1225 -77 c22 -6 69 -29 105 -52 60 -39 69
-42 135 -42 66 0 78 4 165 50 80 41 104 49 150 49 56 1 62 -2 184 -79 25 -16
48 -20 117 -20 75 0 90 3 125 26 130 86 190 90 344 19 76 -35 106 -44 151 -44
33 -1 63 5 73 13 15 12 16 -15 16 -353 l0 -366 -1020 0 -1020 0 0 375 0 375
24 -15 c66 -43 156 -37 233 17 82 56 140 68 218 47z"/>
<path d="M465 498 c-16 -6 -49 -24 -72 -41 -33 -23 -54 -30 -93 -31 -40 -1
-50 -4 -50 -18 0 -43 102 -34 169 13 70 51 125 51 226 0 112 -57 166 -57 273
0 72 38 81 41 139 36 47 -3 75 -12 110 -35 93 -59 186 -65 258 -17 89 61 143
70 205 36 120 -67 179 -79 200 -42 15 29 13 31 -20 24 -23 -4 -51 5 -125 42
-84 43 -99 47 -145 43 -37 -4 -65 -15 -106 -43 -83 -58 -130 -59 -236 -6 -46
23 -100 44 -120 47 -50 9 -123 -11 -179 -47 -25 -16 -67 -32 -92 -35 -42 -6
-57 -2 -131 35 -91 45 -161 58 -211 39z"/>
</g>
</svg>
