<?xml version="1.0" standalone="no"?>
<!DOCTYPE svg PUBLIC "-//W3C//DTD SVG 20010904//EN"
 "http://www.w3.org/TR/2001/REC-SVG-20010904/DTD/svg10.dtd">
<svg version="1.0" xmlns="http://www.w3.org/2000/svg"
 width="104.000000pt" height="54.000000pt" viewBox="0 0 104.000000 54.000000"
 preserveAspectRatio="xMidYMid meet">
<metadata>
Created by potrace 1.16, written by Peter Selinger 2001-2019
</metadata>
<g transform="translate(0.000000,54.000000) scale(0.100000,-0.100000)"
fill="#000000" stroke="none">
<path d="M3 524 c-3 -8 -2 -19 3 -24 14 -13 1013 -15 1026 -2 8 8 7 16 -2 27
-11 13 -75 15 -517 15 -448 0 -504 -2 -510 -16z"/>
<path d="M4 35 c-3 -8 -3 -19 1 -25 4 -7 171 -10 516 -10 458 0 510 2 516 16
3 9 0 20 -8 25 -8 5 -240 9 -517 9 -430 0 -503 -2 -508 -15z"/>
</g>
</svg>
