<?xml version="1.0" standalone="no"?>
<!DOCTYPE svg PUBLIC "-//W3C//DTD SVG 20010904//EN"
 "http://www.w3.org/TR/2001/REC-SVG-20010904/DTD/svg10.dtd">
<svg version="1.0" xmlns="http://www.w3.org/2000/svg"
 width="227.000000pt" height="206.000000pt" viewBox="0 0 227.000000 206.000000"
 preserveAspectRatio="xMidYMid meet">
<metadata>
Created by potrace 1.16, written by Peter Selinger 2001-2019
</metadata>
<g transform="translate(0.000000,206.000000) scale(0.100000,-0.100000)"
fill="#000000" stroke="none">
<path d="M730 2029 c-232 -70 -302 -100 -350 -148 -49 -49 -183 -245 -297
-431 -81 -134 -83 -139 -71 -163 11 -22 381 -267 402 -267 8 0 26 15 40 32
l26 33 0 -521 c0 -517 0 -521 21 -540 20 -18 47 -19 613 -22 325 -2 606 0 624
3 18 3 42 15 53 26 18 18 19 37 19 536 l0 517 29 -34 c34 -40 17 -46 167 54
49 33 127 84 174 115 59 39 86 63 88 78 4 27 -53 125 -214 368 -121 184 -164
234 -225 265 -46 24 -366 130 -391 130 -9 0 -38 -10 -65 -22 -44 -21 -62 -23
-228 -23 -161 0 -186 3 -240 23 -32 12 -64 22 -70 21 -5 0 -53 -14 -105 -30z
m99 -69 c23 -109 89 -198 180 -242 36 -18 63 -23 126 -23 72 0 86 3 143 34 35
19 77 52 94 73 36 46 77 141 78 181 0 15 5 27 12 27 29 0 336 -105 368 -126
55 -37 178 -209 345 -483 46 -77 54 -96 43 -107 -7 -7 -71 -49 -143 -94 -71
-45 -145 -93 -163 -107 -18 -14 -34 -23 -35 -21 -1 1 -15 18 -32 36 l-30 33
-5 157 c-4 139 -7 157 -22 160 -17 3 -18 -37 -20 -700 l-3 -703 -620 0 -620 0
-5 700 c-4 613 -7 700 -20 700 -13 0 -15 -25 -18 -155 l-3 -155 -33 -40 -33
-39 -161 102 c-88 57 -171 111 -183 121 l-23 18 59 99 c96 162 256 396 305
444 41 42 59 50 215 102 94 31 175 57 182 57 6 1 16 -22 22 -49z m82 34 c32
-12 92 -18 214 -21 150 -5 177 -3 228 14 54 19 57 19 57 2 0 -40 -43 -130 -81
-169 -138 -142 -356 -104 -434 74 -20 48 -39 116 -31 116 2 0 23 -7 47 -16z"/>
<path d="M1295 1440 c-48 -19 -95 -114 -78 -157 3 -7 -7 -47 -22 -89 -31 -86
-29 -128 10 -167 32 -31 67 -38 125 -25 25 5 85 13 133 17 84 6 90 8 118 39
55 61 33 163 -45 211 -23 14 -47 44 -68 82 -17 33 -43 69 -56 80 -26 20 -81
24 -117 9z m109 -62 c13 -18 31 -49 39 -69 8 -20 27 -45 42 -55 65 -46 76 -60
82 -99 4 -31 0 -46 -16 -67 -19 -24 -29 -27 -108 -32 -49 -3 -110 -8 -136 -12
-86 -11 -113 39 -72 136 16 39 25 78 25 114 0 44 5 60 26 85 37 44 84 43 118
-1z"/>
<path d="M842 1013 c-16 -6 -42 -56 -42 -82 0 -11 12 -33 26 -50 36 -43 84
-43 126 -1 25 26 29 36 24 63 -11 58 -78 93 -134 70z m82 -49 c9 -8 16 -19 16
-22 0 -17 -32 -52 -47 -52 -22 0 -53 29 -53 50 0 38 54 54 84 24z"/>
<path d="M992 684 c-47 -33 -66 -111 -39 -164 16 -32 73 -70 104 -70 62 0 133
66 133 124 0 36 -23 79 -56 105 -33 26 -109 28 -142 5z m129 -53 c38 -38 37
-65 -5 -107 -42 -42 -69 -43 -107 -5 -37 38 -39 82 -4 116 34 35 78 33 116 -4z"/>
</g>
</svg>
