<?xml version="1.0" standalone="no"?>
<!DOCTYPE svg PUBLIC "-//W3C//DTD SVG 20010904//EN"
 "http://www.w3.org/TR/2001/REC-SVG-20010904/DTD/svg10.dtd">
<svg version="1.0" xmlns="http://www.w3.org/2000/svg"
 width="174.000000pt" height="245.000000pt" viewBox="0 0 174.000000 245.000000"
 preserveAspectRatio="xMidYMid meet">
<metadata>
Created by potrace 1.16, written by Peter Selinger 2001-2019
</metadata>
<g transform="translate(0.000000,245.000000) scale(0.100000,-0.100000)"
fill="#000000" stroke="none">
<path d="M563 2434 c-54 -20 -126 -84 -160 -142 -22 -36 -28 -61 -31 -129 -4
-78 -2 -88 27 -148 54 -109 151 -168 276 -168 217 0 364 227 273 423 -34 74
-66 110 -130 145 -43 24 -67 29 -133 32 -54 2 -94 -2 -122 -13z m183 -49 c209
-62 235 -356 40 -457 -155 -80 -345 23 -363 196 -12 116 68 231 187 267 40 12
83 10 136 -6z"/>
<path d="M1204 2136 l-34 -34 0 -98 0 -99 -40 -17 c-52 -22 -52 -45 0 -65 37
-15 40 -19 40 -55 0 -50 21 -91 55 -106 17 -8 95 -12 236 -12 l211 0 34 34 34
34 0 192 0 192 -34 34 -34 34 -217 0 -217 0 -34 -34z m466 -36 c18 -18 20 -33
20 -190 0 -227 19 -210 -238 -210 -141 0 -201 3 -210 12 -7 7 -12 36 -12 64 0
41 -4 56 -20 67 -19 13 -19 13 0 30 18 15 20 30 20 121 0 89 3 107 18 115 10
6 97 11 210 11 179 0 193 -1 212 -20z"/>
<path d="M320 1791 c-105 -33 -191 -121 -221 -225 -5 -17 -30 -174 -55 -348
-42 -294 -44 -319 -30 -352 27 -66 111 -95 176 -61 58 30 79 73 95 191 8 60
16 116 17 124 1 8 5 -215 8 -496 l5 -511 28 -36 c39 -51 81 -71 148 -71 60 1
115 26 143 65 13 19 15 18 48 -15 81 -81 209 -65 275 33 l23 34 1 446 c1 382
3 436 13 374 7 -39 20 -83 30 -98 25 -38 96 -68 141 -59 43 8 91 51 101 90 10
39 -82 663 -108 731 -24 64 -92 137 -156 166 -45 21 -62 22 -352 24 -168 1
-316 -2 -330 -6z m688 -84 c52 -34 96 -93 111 -149 6 -24 29 -166 51 -316 22
-150 43 -290 46 -310 12 -77 -67 -121 -129 -72 -14 11 -28 28 -31 38 -14 44
-66 422 -66 477 0 70 -17 98 -45 75 -13 -11 -15 -96 -15 -657 0 -707 2 -686
-60 -718 -16 -8 -47 -15 -70 -15 -32 0 -48 7 -78 34 l-37 34 -5 364 c-5 355
-5 363 -25 363 -20 0 -20 -8 -25 -350 -3 -239 -9 -356 -17 -370 -29 -51 -62
-70 -124 -70 -53 0 -62 3 -91 33 l-33 32 -5 663 c-4 589 -7 662 -21 665 -34 6
-45 -31 -79 -278 -18 -135 -39 -260 -46 -277 -17 -43 -73 -71 -108 -55 -14 6
-32 21 -40 34 -14 21 -11 51 30 338 49 339 62 386 123 448 42 42 83 62 139 71
24 3 171 4 326 1 l283 -5 41 -28z"/>
</g>
</svg>
