<?xml version="1.0" standalone="no"?>
<!DOCTYPE svg PUBLIC "-//W3C//DTD SVG 20010904//EN"
 "http://www.w3.org/TR/2001/REC-SVG-20010904/DTD/svg10.dtd">
<svg version="1.0" xmlns="http://www.w3.org/2000/svg"
 width="198.000000pt" height="240.000000pt" viewBox="0 0 198.000000 240.000000"
 preserveAspectRatio="xMidYMid meet">
<metadata>
Created by potrace 1.16, written by Peter Selinger 2001-2019
</metadata>
<g transform="translate(0.000000,240.000000) scale(0.100000,-0.100000)"
fill="#000000" stroke="none">
<path d="M679 2373 c-131 -67 -172 -216 -95 -347 30 -51 66 -80 127 -101 143
-51 300 53 316 208 20 192 -176 327 -348 240z m197 -32 c63 -29 114 -110 114
-180 0 -110 -99 -211 -206 -211 -91 0 -180 80 -198 180 -14 79 44 182 122 216
41 19 121 16 168 -5z"/>
<path d="M1505 2144 c-16 -8 -76 -73 -132 -144 -98 -123 -104 -129 -145 -134
-24 -3 -167 -8 -318 -11 -151 -4 -294 -11 -318 -17 -41 -10 -334 -174 -400
-224 -43 -33 -62 -74 -127 -268 -66 -197 -74 -240 -51 -285 42 -81 175 -97
221 -27 10 14 39 101 66 193 27 92 54 172 61 179 7 6 47 30 89 52 l76 42 68
-253 c37 -138 76 -268 86 -288 10 -21 95 -121 188 -223 l169 -186 32 -138 c41
-175 86 -327 106 -357 32 -50 126 -70 183 -40 40 20 79 70 86 108 4 19 0 60
-9 94 -9 34 -36 147 -60 251 -25 105 -51 204 -60 220 -8 16 -60 78 -115 138
-56 60 -101 111 -101 114 0 5 267 40 305 40 13 0 78 -53 165 -135 182 -170
210 -190 265 -189 51 1 110 35 130 74 21 40 19 104 -5 150 -26 51 -371 377
-424 401 -50 23 -121 24 -245 4 -52 -9 -96 -13 -99 -11 -2 3 -26 76 -52 163
l-48 158 127 11 c139 11 166 21 222 81 45 48 196 238 221 278 40 67 13 151
-58 181 -42 18 -62 17 -99 -2z m104 -50 c23 -19 31 -34 31 -58 0 -38 -4 -44
-142 -217 -130 -165 -133 -166 -318 -176 -72 -3 -133 -9 -135 -13 -2 -3 9 -49
25 -101 16 -51 42 -140 60 -196 35 -119 23 -113 175 -88 138 23 183 20 236
-14 42 -28 318 -286 368 -344 34 -41 40 -113 12 -149 -32 -40 -82 -53 -125
-33 -19 9 -101 79 -183 155 -81 77 -158 145 -171 152 -19 10 -57 8 -210 -11
-103 -12 -191 -27 -196 -32 -6 -5 -2 -17 10 -31 11 -13 70 -78 131 -145 l111
-122 27 -118 c15 -65 42 -182 61 -260 21 -85 32 -153 28 -168 -9 -37 -69 -85
-105 -85 -49 0 -85 25 -104 72 -9 24 -41 137 -71 252 -41 158 -60 216 -78 235
-130 142 -293 322 -312 347 -21 27 -82 231 -164 552 -6 24 -17 45 -24 48 -6 2
-58 -21 -115 -52 -119 -65 -109 -49 -174 -274 -50 -169 -63 -190 -124 -190
-25 0 -43 8 -65 30 -27 28 -30 35 -24 72 8 51 90 305 121 373 12 28 33 60 46
71 38 34 351 214 389 224 19 5 174 13 345 18 218 6 318 13 337 22 15 7 73 70
128 141 55 70 106 130 113 132 28 12 57 5 86 -19z"/>
<path d="M405 611 c-3 -6 65 -83 152 -173 86 -90 180 -187 207 -216 l51 -52
-88 6 c-83 7 -87 6 -87 -13 0 -19 9 -21 118 -30 64 -5 121 -8 125 -5 8 4 8
227 0 249 -7 17 -33 17 -34 1 -1 -7 0 -51 0 -98 l2 -85 -208 213 c-114 117
-213 213 -220 212 -6 0 -14 -4 -18 -9z"/>
</g>
</svg>
