<?xml version="1.0" standalone="no"?>
<!DOCTYPE svg PUBLIC "-//W3C//DTD SVG 20010904//EN"
 "http://www.w3.org/TR/2001/REC-SVG-20010904/DTD/svg10.dtd">
<svg version="1.0" xmlns="http://www.w3.org/2000/svg"
 width="162.000000pt" height="180.000000pt" viewBox="0 0 162.000000 180.000000"
 preserveAspectRatio="xMidYMid meet">
<metadata>
Created by potrace 1.16, written by Peter Selinger 2001-2019
</metadata>
<g transform="translate(0.000000,180.000000) scale(0.100000,-0.100000)"
fill="#000000" stroke="none">
<path d="M111 1783 c-5 -10 -32 -78 -60 -151 l-51 -134 0 -737 c0 -560 3 -740
12 -749 9 -9 200 -12 800 -12 770 0 788 0 798 19 7 14 9 304 8 898 l-3 878
-747 3 c-704 2 -748 1 -757 -15z m1459 -128 c0 -58 -1 -107 -2 -110 -4 -6
-1491 -7 -1498 -1 -3 2 13 52 35 110 l40 106 712 0 713 0 0 -105z m4 -888 l-2
-722 -261 -3 -261 -2 0 234 c0 252 -3 273 -56 335 -45 54 -98 76 -185 76 -67
0 -81 -3 -125 -30 -54 -34 -88 -78 -104 -134 -5 -20 -10 -136 -10 -258 l0
-223 -265 0 -265 0 0 725 0 725 768 0 767 0 -1 -723z m-703 -128 c53 -18 99
-58 120 -103 16 -36 19 -68 19 -268 l0 -228 -200 0 -200 0 0 213 c0 116 5 230
10 251 25 108 142 171 251 135z"/>
<path d="M225 1277 c-3 -7 -4 -87 -3 -177 l3 -165 120 0 120 0 0 175 0 175
-118 3 c-90 2 -119 0 -122 -11z m205 -167 l0 -140 -85 0 -85 0 0 140 0 140 85
0 85 0 0 -140z"/>
<path d="M691 1276 c-8 -9 -11 -63 -9 -177 l3 -164 120 0 120 0 0 175 0 175
-111 3 c-86 2 -114 -1 -123 -12z m199 -166 l0 -140 -85 0 -85 0 0 140 0 140
85 0 85 0 0 -140z"/>
<path d="M1151 1276 c-8 -9 -11 -65 -9 -177 l3 -164 119 -3 c89 -2 121 1 128
10 4 7 8 86 8 174 0 139 -2 163 -16 168 -9 3 -62 6 -119 6 -75 0 -106 -4 -114
-14z m204 -166 l0 -135 -87 -3 -88 -3 0 141 0 141 88 -3 87 -3 0 -135z"/>
</g>
</svg>
