<?xml version="1.0" standalone="no"?>
<!DOCTYPE svg PUBLIC "-//W3C//DTD SVG 20010904//EN"
 "http://www.w3.org/TR/2001/REC-SVG-20010904/DTD/svg10.dtd">
<svg version="1.0" xmlns="http://www.w3.org/2000/svg"
 width="216.000000pt" height="267.000000pt" viewBox="0 0 216.000000 267.000000"
 preserveAspectRatio="xMidYMid meet">
<metadata>
Created by potrace 1.16, written by Peter Selinger 2001-2019
</metadata>
<g transform="translate(0.000000,267.000000) scale(0.100000,-0.100000)"
fill="#000000" stroke="none">
<path d="M1057 2663 c-4 -3 -7 -48 -7 -100 0 -77 3 -95 16 -100 35 -13 49 11
52 88 4 96 -2 119 -32 119 -12 0 -26 -3 -29 -7z"/>
<path d="M532 2488 c-21 -21 -13 -38 50 -109 50 -56 68 -69 88 -67 46 6 36 39
-35 116 -68 73 -82 81 -103 60z"/>
<path d="M1535 2425 c-51 -57 -65 -79 -60 -95 13 -39 50 -24 114 47 62 68 71
89 49 111 -21 21 -34 13 -103 -63z"/>
<path d="M985 2336 c-80 -19 -145 -55 -207 -114 -97 -92 -138 -187 -138 -317
0 -126 41 -225 135 -325 29 -30 58 -66 65 -79 7 -13 15 -74 19 -136 8 -126 23
-159 87 -190 55 -26 251 -19 291 11 50 38 65 77 73 187 3 56 12 113 19 127 8
14 37 50 66 80 94 100 135 198 135 326 0 135 -59 260 -163 342 -110 88 -251
120 -382 88z m268 -101 c71 -35 140 -107 175 -183 23 -49 27 -70 27 -147 0
-77 -4 -98 -27 -148 -15 -32 -54 -86 -86 -120 -68 -70 -87 -105 -103 -177
l-11 -50 -54 0 -54 0 0 164 0 164 47 23 c58 29 97 82 82 110 -15 28 -41 23
-79 -16 -35 -36 -82 -52 -119 -40 -11 3 -35 22 -53 41 -34 36 -58 43 -77 20
-25 -29 23 -92 92 -121 l37 -15 0 -165 0 -165 -59 0 -58 0 -7 46 c-9 66 -32
108 -94 171 -32 33 -68 84 -86 122 -28 59 -31 76 -31 156 0 76 5 99 27 146 44
96 122 167 226 206 25 9 69 12 132 10 81 -3 104 -7 153 -32z m-20 -917 c-16
-73 -55 -93 -177 -86 -86 4 -111 20 -122 76 l-6 32 155 0 155 0 -5 -22z"/>
<path d="M315 1940 c-13 -41 11 -51 108 -48 94 3 118 15 104 52 -5 13 -23 16
-106 16 -92 0 -100 -2 -106 -20z"/>
<path d="M1651 1946 c-15 -18 -4 -45 23 -52 12 -3 54 -4 95 -2 77 3 101 17 88
52 -5 13 -23 16 -100 16 -68 0 -98 -4 -106 -14z"/>
<path d="M167 1296 c-13 -14 -17 -35 -17 -97 l0 -79 -58 0 c-98 0 -92 33 -92
-491 0 -395 2 -457 16 -477 l15 -22 427 0 c235 -1 447 -5 472 -9 37 -8 54 -19
97 -67 l53 -59 57 57 c32 30 68 61 80 67 15 8 159 11 467 11 391 0 446 2 460
16 14 14 16 71 16 478 0 530 6 496 -88 496 l-52 0 0 73 c0 51 -5 79 -17 96
-15 23 -20 24 -107 18 -294 -20 -581 -128 -757 -286 l-56 -50 -29 30 c-43 45
-209 152 -289 187 -153 66 -326 108 -490 119 -78 5 -93 3 -108 -11z m306 -91
c212 -44 422 -149 530 -264 l47 -50 0 -371 c0 -294 -3 -370 -12 -364 -7 4 -36
23 -64 41 -154 97 -371 156 -696 189 l-58 5 0 423 0 422 88 -7 c48 -4 122 -15
165 -24z m1467 -396 l1 -424 -98 -6 c-233 -15 -525 -101 -667 -197 -26 -18
-49 -32 -52 -32 -2 0 -4 168 -4 373 l0 374 58 55 c157 150 409 253 677 277 44
4 81 6 82 6 2 -1 3 -192 3 -426z m-1790 -114 l0 -355 23 -14 c14 -9 66 -16
147 -20 132 -6 279 -35 405 -80 l70 -25 -362 0 -363 -1 0 425 0 425 40 0 40 0
0 -355z m1940 -70 l0 -425 -355 -2 c-194 -2 -351 0 -347 4 14 12 198 66 282
83 47 9 134 19 195 22 96 5 112 9 132 29 l23 23 0 346 0 345 35 0 35 0 0 -425z"/>
</g>
</svg>
