<?xml version="1.0" standalone="no"?>
<!DOCTYPE svg PUBLIC "-//W3C//DTD SVG 20010904//EN"
 "http://www.w3.org/TR/2001/REC-SVG-20010904/DTD/svg10.dtd">
<svg version="1.0" xmlns="http://www.w3.org/2000/svg"
 width="205.000000pt" height="258.000000pt" viewBox="0 0 205.000000 258.000000"
 preserveAspectRatio="xMidYMid meet">
<metadata>
Created by potrace 1.16, written by Peter Selinger 2001-2019
</metadata>
<g transform="translate(0.000000,258.000000) scale(0.100000,-0.100000)"
fill="#000000" stroke="none">
<path d="M890 2574 c-196 -38 -353 -123 -483 -264 -99 -107 -168 -256 -212
-455 -17 -76 -20 -82 -72 -129 -95 -86 -137 -211 -114 -348 28 -172 133 -268
308 -285 l62 -6 52 -86 c29 -47 77 -112 107 -143 l54 -57 -64 -31 c-245 -123
-396 -290 -448 -497 -27 -102 -41 -232 -29 -255 9 -17 59 -18 977 -16 l967 3
-1 90 c-3 168 -63 321 -183 461 -78 91 -131 134 -246 195 -44 23 -82 44 -84
45 -2 2 22 31 54 66 32 35 82 100 111 144 l54 82 55 7 c70 8 165 56 206 103
18 20 44 61 58 92 23 48 26 68 26 155 0 93 -2 105 -33 167 -21 43 -51 83 -85
114 -51 46 -52 48 -64 128 -42 292 -209 523 -468 647 -119 57 -181 71 -340 74
-77 2 -151 1 -165 -1z m342 -103 c129 -33 259 -110 343 -203 64 -70 139 -186
163 -251 20 -53 48 -205 39 -213 -3 -3 -21 -2 -40 1 -29 6 -36 12 -41 38 -9
46 -65 164 -107 228 -57 84 -148 163 -242 208 -124 59 -201 74 -354 69 -117
-4 -135 -7 -207 -38 -204 -86 -344 -227 -412 -417 -15 -43 -28 -79 -29 -80 -1
-2 -16 -6 -35 -9 l-33 -7 6 45 c10 71 70 240 108 303 106 177 310 312 522 346
76 12 232 2 319 -20z m-17 -231 c142 -44 273 -145 332 -257 36 -68 83 -211 83
-254 0 -34 3 -33 -46 -13 -67 28 -148 90 -229 176 -44 46 -88 87 -97 91 -12 4
-33 -7 -68 -37 -63 -54 -224 -135 -348 -176 -95 -32 -263 -59 -361 -60 l-54 0
7 52 c31 234 225 439 466 493 86 20 224 13 315 -15z m98 -435 c81 -77 169
-139 240 -168 84 -33 78 -14 75 -266 l-3 -226 -52 -90 c-82 -141 -198 -236
-355 -293 -101 -36 -249 -38 -353 -4 -161 54 -274 144 -357 287 -78 134 -78
134 -85 365 l-6 208 69 6 c309 28 507 88 694 210 30 19 57 36 60 36 3 0 36
-29 73 -65z m-971 -355 l3 -270 -26 0 c-38 0 -108 27 -146 56 -103 79 -112
305 -15 402 43 43 114 81 154 82 l27 0 3 -270z m1486 233 c60 -28 98 -73 118
-139 27 -90 10 -218 -37 -278 -28 -36 -96 -74 -146 -82 l-43 -7 0 272 0 271
28 -6 c15 -3 51 -17 80 -31z m-1092 -972 c112 -51 282 -77 397 -61 62 9 91 18
219 67 l47 17 62 -29 c83 -39 182 -106 242 -164 108 -103 207 -308 207 -429
l0 -32 -885 0 -885 0 0 44 c0 57 33 163 78 251 25 49 62 96 123 157 76 76 100
93 200 142 63 31 123 56 134 56 11 0 38 -9 61 -19z"/>
<path d="M678 1465 c-15 -33 -1 -59 34 -63 31 -4 50 19 46 55 -2 23 -8 29 -35
31 -27 3 -35 -1 -45 -23z"/>
<path d="M1315 1460 c-22 -24 -13 -66 16 -75 41 -13 78 52 47 83 -18 18 -43
15 -63 -8z"/>
</g>
</svg>
