<?xml version="1.0" standalone="no"?>
<!DOCTYPE svg PUBLIC "-//W3C//DTD SVG 20010904//EN"
 "http://www.w3.org/TR/2001/REC-SVG-20010904/DTD/svg10.dtd">
<svg version="1.0" xmlns="http://www.w3.org/2000/svg"
 width="174.000000pt" height="207.000000pt" viewBox="0 0 174.000000 207.000000"
 preserveAspectRatio="xMidYMid meet">
<metadata>
Created by potrace 1.16, written by Peter Selinger 2001-2019
</metadata>
<g transform="translate(0.000000,207.000000) scale(0.100000,-0.100000)"
fill="#000000" stroke="none">
<path d="M848 1870 l-3 -201 -119 110 c-72 66 -125 107 -133 104 -8 -3 -13 -9
-11 -13 2 -4 63 -62 136 -129 l132 -122 0 -286 0 -285 -48 29 c-469 275 -420
239 -436 323 -37 193 -71 298 -91 278 -3 -3 11 -74 30 -158 20 -84 34 -157 33
-161 -2 -5 -75 34 -163 86 -111 66 -162 91 -170 84 -13 -14 -3 -21 178 -125
81 -47 147 -87 147 -89 0 -2 -72 -26 -160 -54 -87 -28 -162 -56 -165 -61 -15
-24 27 -16 189 35 l176 56 230 -133 c126 -73 229 -135 229 -138 0 -3 -106 -67
-236 -143 l-236 -137 -169 55 c-153 51 -198 59 -183 35 3 -5 75 -32 161 -60
85 -29 154 -53 152 -55 -2 -2 -70 -42 -153 -90 -168 -97 -173 -101 -159 -115
6 -6 46 11 114 52 58 33 131 76 164 95 l58 33 -6 -32 c-4 -18 -19 -93 -35
-166 -25 -116 -26 -133 -12 -130 12 3 25 45 54 178 21 95 39 175 40 175 1 1
107 63 235 138 l232 136 0 -279 0 -279 -57 -53 c-175 -161 -218 -207 -200
-213 12 -5 47 22 134 105 l118 113 5 -189 c4 -155 8 -189 19 -189 12 0 15 32
15 192 l1 192 40 -37 c22 -20 77 -72 122 -116 62 -60 86 -77 100 -72 19 8 -7
35 -186 199 l-74 68 -3 274 c-1 151 1 275 6 275 11 0 441 -248 457 -263 7 -7
29 -88 49 -182 20 -93 40 -173 43 -177 3 -4 11 -4 17 0 7 5 0 56 -23 162 -18
85 -32 158 -30 162 1 3 73 -36 160 -88 145 -86 177 -99 177 -74 0 4 -64 45
-142 90 -79 46 -151 89 -161 95 -16 11 3 20 142 65 108 34 161 56 161 66 0 8
-3 14 -7 14 -4 0 -85 -25 -180 -55 l-173 -56 -192 112 c-106 62 -215 125 -242
140 l-49 27 24 15 c31 19 352 207 404 237 l40 23 179 -56 c98 -31 183 -54 187
-51 16 9 10 22 -13 29 -13 4 -88 27 -167 53 -129 41 -141 47 -125 59 11 8 85
52 167 99 130 75 164 104 124 104 -7 0 -81 -40 -164 -89 -84 -49 -153 -86
-153 -81 0 11 59 289 65 308 3 6 -4 12 -13 12 -14 0 -21 -17 -36 -87 -49 -238
-57 -262 -90 -282 -111 -67 -427 -252 -433 -254 -8 -2 -11 550 -3 561 3 4 65
61 138 126 105 95 130 122 121 133 -12 14 -20 8 -186 -149 -40 -37 -74 -68
-75 -68 -2 0 -3 92 -2 205 0 190 -1 205 -18 205 -16 0 -18 -16 -20 -200z"/>
</g>
</svg>
