<?xml version="1.0" standalone="no"?>
<!DOCTYPE svg PUBLIC "-//W3C//DTD SVG 20010904//EN"
 "http://www.w3.org/TR/2001/REC-SVG-20010904/DTD/svg10.dtd">
<svg version="1.0" xmlns="http://www.w3.org/2000/svg"
 width="151.000000pt" height="152.000000pt" viewBox="0 0 151.000000 152.000000"
 preserveAspectRatio="xMidYMid meet">
<metadata>
Created by potrace 1.16, written by Peter Selinger 2001-2019
</metadata>
<g transform="translate(0.000000,152.000000) scale(0.100000,-0.100000)"
fill="#000000" stroke="none">
<path d="M615 1506 c-158 -30 -293 -105 -406 -224 -89 -94 -131 -163 -172
-279 -26 -74 -31 -107 -35 -208 -6 -192 34 -328 143 -480 214 -300 632 -398
964 -225 173 90 307 248 368 435 20 64 27 107 31 211 4 128 4 132 -17 139 -11
3 -25 3 -31 0 -5 -3 -10 -46 -10 -96 0 -116 -23 -226 -65 -314 -92 -193 -252
-325 -457 -377 -116 -29 -290 -22 -401 17 -324 113 -523 463 -453 795 46 217
178 385 383 489 86 43 170 61 289 61 163 0 283 -39 420 -136 50 -35 144 -130
144 -145 0 -2 -55 -4 -122 -4 l-123 0 0 -25 0 -25 164 -3 c112 -2 168 1 177 9
21 17 20 311 -1 329 -12 10 -18 10 -30 0 -12 -10 -15 -37 -15 -123 l0 -110
-40 46 c-88 100 -243 193 -377 228 -101 25 -240 32 -328 15z"/>
</g>
</svg>
