<?xml version="1.0" standalone="no"?>
<!DOCTYPE svg PUBLIC "-//W3C//DTD SVG 20010904//EN"
 "http://www.w3.org/TR/2001/REC-SVG-20010904/DTD/svg10.dtd">
<svg version="1.0" xmlns="http://www.w3.org/2000/svg"
 width="256.000000pt" height="257.000000pt" viewBox="0 0 256.000000 257.000000"
 preserveAspectRatio="xMidYMid meet">
<metadata>
Created by potrace 1.16, written by Peter Selinger 2001-2019
</metadata>
<g transform="translate(0.000000,257.000000) scale(0.100000,-0.100000)"
fill="#000000" stroke="none">
<path d="M748 2548 c-39 -62 -54 -139 -38 -199 7 -24 29 -72 51 -108 60 -99
63 -162 13 -236 -22 -34 -24 -40 -10 -53 23 -23 45 -7 73 54 22 48 25 66 21
125 -5 60 -11 77 -49 136 -42 64 -44 71 -44 139 0 60 4 78 23 104 13 17 21 38
18 46 -8 22 -42 17 -58 -8z"/>
<path d="M1231 2544 c-31 -39 -44 -90 -39 -159 3 -53 10 -72 48 -130 36 -56
45 -78 48 -126 4 -50 0 -68 -24 -114 -20 -41 -25 -58 -16 -67 28 -28 74 32 93
120 14 71 0 128 -53 210 -55 85 -61 140 -24 217 15 30 25 59 21 65 -11 17 -33
11 -54 -16z"/>
<path d="M1696 2518 c-46 -92 -34 -172 43 -292 42 -67 44 -147 5 -213 -27 -47
-26 -73 4 -73 12 0 29 18 48 53 24 43 29 64 29 122 0 65 -3 76 -42 140 -23 39
-47 85 -54 103 -14 41 -5 107 21 150 27 44 25 62 -4 62 -19 0 -30 -11 -50 -52z"/>
<path d="M1154 1768 c-43 -11 -64 -45 -64 -105 l0 -53 -328 0 c-320 0 -329 -1
-372 -22 -65 -34 -99 -82 -112 -161 l-11 -67 -122 0 c-138 0 -135 1 -135 -75
0 -70 30 -96 154 -135 l104 -33 4 -276 c4 -259 5 -280 27 -334 43 -108 130
-194 245 -241 50 -20 67 -21 711 -24 590 -2 667 -1 729 14 127 31 238 129 288
254 21 51 22 75 26 331 l4 276 103 33 c119 37 145 58 152 123 9 80 1 86 -139
89 l-122 3 -3 35 c-11 103 -64 178 -140 199 -23 7 -163 11 -355 11 l-318 0 0
35 c0 47 -23 101 -50 115 -25 13 -234 19 -276 8z m256 -63 c6 -8 14 -32 16
-55 l4 -40 -145 0 -145 0 0 43 c0 24 5 48 12 55 19 19 242 16 258 -3z m733
-159 c18 -7 42 -24 54 -37 24 -26 56 -129 44 -142 -4 -4 -437 -6 -962 -5
l-954 3 3 40 c5 65 32 107 82 133 l44 22 828 0 c680 0 834 -2 861 -14z m-1873
-305 l0 -69 -92 29 c-96 30 -118 46 -118 86 0 23 2 23 105 23 l105 0 0 -69z
m1980 -233 c0 -349 -8 -446 -44 -516 -33 -65 -122 -145 -194 -174 l-57 -23
-670 0 -670 0 -57 23 c-72 29 -161 109 -196 176 l-27 51 -3 383 -3 382 961 0
960 0 0 -302z m260 288 c0 -48 -19 -64 -102 -91 -46 -14 -89 -29 -95 -31 -10
-4 -13 12 -13 65 l0 71 105 0 c85 0 105 -3 105 -14z"/>
<path d="M727 154 c-4 -4 -7 -27 -7 -51 l0 -43 -349 0 c-298 0 -350 -2 -361
-15 -10 -12 -10 -18 0 -30 11 -13 164 -15 1270 -15 1106 0 1259 2 1270 15 10
12 10 18 0 30 -11 13 -63 15 -356 15 l-344 0 0 51 c0 47 -2 50 -22 47 -20 -3
-23 -10 -26 -50 l-3 -48 -244 0 -244 0 -3 48 c-3 39 -6 47 -23 47 -17 0 -20
-8 -23 -47 l-3 -48 -244 0 -244 0 -3 47 c-2 34 -8 49 -18 51 -9 1 -19 0 -23
-4z"/>
</g>
</svg>
