<?xml version="1.0" standalone="no"?>
<!DOCTYPE svg PUBLIC "-//W3C//DTD SVG 20010904//EN"
 "http://www.w3.org/TR/2001/REC-SVG-20010904/DTD/svg10.dtd">
<svg version="1.0" xmlns="http://www.w3.org/2000/svg"
 width="189.000000pt" height="203.000000pt" viewBox="0 0 189.000000 203.000000"
 preserveAspectRatio="xMidYMid meet">
<metadata>
Created by potrace 1.16, written by Peter Selinger 2001-2019
</metadata>
<g transform="translate(0.000000,203.000000) scale(0.100000,-0.100000)"
fill="#000000" stroke="none">
<path d="M885 1355 l-670 -676 -99 -249 c-68 -170 -96 -254 -90 -260 7 -7 25
-5 55 8 24 10 138 54 254 97 l210 78 654 651 c444 443 659 664 672 691 26 56
23 92 -10 151 -33 58 -130 151 -178 171 -18 7 -54 13 -80 13 l-48 1 -670 -676z
m808 604 c60 -39 122 -112 143 -165 15 -38 15 -45 0 -76 -9 -19 -47 -64 -84
-101 l-69 -68 -135 140 -135 139 81 81 c96 96 121 102 199 50z m-45 -437 c1
-4 -247 -256 -551 -560 l-552 -552 -135 135 -134 135 255 257 c140 142 388
393 552 559 l298 301 132 -134 c73 -74 133 -137 135 -141z m-1272 -1006 c71
-68 126 -127 123 -130 -6 -6 -345 -135 -397 -151 -22 -6 -22 -6 -9 27 8 18 45
111 83 205 38 95 69 173 70 173 1 0 59 -56 130 -124z"/>
<path d="M2 23 c3 -17 48 -18 793 -18 696 0 790 2 790 15 0 13 -96 15 -793 18
-752 2 -793 1 -790 -15z"/>
</g>
</svg>
