<?xml version="1.0" standalone="no"?>
<!DOCTYPE svg PUBLIC "-//W3C//DTD SVG 20010904//EN"
 "http://www.w3.org/TR/2001/REC-SVG-20010904/DTD/svg10.dtd">
<svg version="1.0" xmlns="http://www.w3.org/2000/svg"
 width="174.000000pt" height="88.000000pt" viewBox="0 0 174.000000 88.000000"
 preserveAspectRatio="xMidYMid meet">
<metadata>
Created by potrace 1.16, written by Peter Selinger 2001-2019
</metadata>
<g transform="translate(0.000000,88.000000) scale(0.100000,-0.100000)"
fill="#000000" stroke="none">
<path d="M55 868 c-55 -30 -55 -23 -55 -421 0 -399 1 -411 55 -435 16 -8 79
-12 166 -12 l141 0 29 29 c29 29 29 31 29 140 l0 111 445 0 445 0 0 -92 c0
-104 17 -154 60 -175 32 -16 279 -18 314 -2 53 25 56 46 56 429 0 377 -2 394
-52 421 -29 16 -299 14 -329 -1 -34 -19 -49 -71 -49 -175 l0 -95 -442 2 -443
3 -5 115 c-3 63 -9 121 -14 129 -19 30 -74 41 -203 41 -74 0 -136 -5 -148 -12z
m310 -53 l25 -24 0 -349 c0 -439 16 -402 -179 -402 -127 0 -139 2 -157 21 -18
20 -19 41 -19 381 l0 360 24 19 c20 17 40 19 153 19 124 0 130 -1 153 -25z
m1309 4 l26 -20 0 -360 c0 -346 -1 -360 -20 -379 -18 -18 -33 -20 -155 -20
-122 0 -137 2 -155 20 -19 19 -20 33 -20 371 0 229 4 357 11 370 16 31 45 38
170 38 103 1 119 -1 143 -20z m-364 -379 l0 -120 -445 0 -445 0 0 113 c0 63 3
117 7 120 3 4 204 7 445 7 l438 0 0 -120z"/>
</g>
</svg>
