<?xml version="1.0" standalone="no"?>
<!DOCTYPE svg PUBLIC "-//W3C//DTD SVG 20010904//EN"
 "http://www.w3.org/TR/2001/REC-SVG-20010904/DTD/svg10.dtd">
<svg version="1.0" xmlns="http://www.w3.org/2000/svg"
 width="185.000000pt" height="185.000000pt" viewBox="0 0 185.000000 185.000000"
 preserveAspectRatio="xMidYMid meet">
<metadata>
Created by potrace 1.16, written by Peter Selinger 2001-2019
</metadata>
<g transform="translate(0.000000,185.000000) scale(0.100000,-0.100000)"
fill="#000000" stroke="none">
<path d="M731 1835 c-381 -83 -661 -374 -721 -749 -18 -107 -8 -310 19 -406
31 -109 101 -243 174 -336 112 -141 306 -265 492 -315 116 -32 325 -32 448 -1
335 84 581 326 679 669 33 113 32 340 -1 463 -48 180 -135 325 -269 451 -123
116 -264 188 -434 223 -95 20 -298 20 -387 1z m424 -54 c254 -67 449 -230 565
-472 63 -133 83 -221 83 -379 1 -149 -19 -246 -72 -365 -193 -425 -697 -630
-1130 -459 -201 80 -373 238 -470 431 -83 167 -112 389 -73 574 35 170 124
331 248 450 132 125 266 196 444 234 93 21 301 13 405 -14z"/>
</g>
</svg>
