<?xml version="1.0" standalone="no"?>
<!DOCTYPE svg PUBLIC "-//W3C//DTD SVG 20010904//EN"
 "http://www.w3.org/TR/2001/REC-SVG-20010904/DTD/svg10.dtd">
<svg version="1.0" xmlns="http://www.w3.org/2000/svg"
 width="185.000000pt" height="184.000000pt" viewBox="0 0 185.000000 184.000000"
 preserveAspectRatio="xMidYMid meet">
<metadata>
Created by potrace 1.16, written by Peter Selinger 2001-2019
</metadata>
<g transform="translate(0.000000,184.000000) scale(0.100000,-0.100000)"
fill="#000000" stroke="none">
<path d="M757 1830 c-247 -44 -470 -187 -601 -385 -49 -72 -110 -204 -131
-280 -26 -93 -31 -312 -10 -416 94 -468 539 -796 1001 -739 131 16 197 35 309
90 190 93 337 238 430 425 58 116 85 223 92 360 18 365 -168 690 -493 857
-140 73 -212 90 -394 94 -85 1 -177 -1 -203 -6z m328 -39 c17 -4 -35 -5 -114
-4 -80 2 -147 6 -150 8 -7 7 230 4 264 -4z m-308 -16 l21 -15 -53 -117 -53
-118 -74 -25 c-40 -14 -107 -44 -148 -66 l-75 -41 -70 44 c-38 23 -74 44 -79
47 -16 5 78 100 150 152 82 59 191 112 278 134 88 23 78 23 103 5z m408 -49
c39 -12 66 -31 118 -83 77 -78 149 -172 145 -189 -2 -6 -32 -64 -68 -128 -60
-107 -67 -116 -89 -110 -47 11 -187 24 -258 24 l-71 0 -55 78 c-30 42 -80 102
-111 132 -31 30 -56 63 -56 73 0 19 75 190 94 216 15 19 280 9 351 -13z m241
-73 c45 -29 109 -83 144 -120 72 -77 154 -198 145 -214 -4 -6 -27 9 -55 35
-27 25 -76 63 -109 84 -41 27 -79 64 -121 120 -33 45 -89 106 -123 137 l-62
57 50 -23 c28 -13 86 -47 131 -76z m-639 -251 c75 -84 133 -164 133 -182 0
-18 -189 -300 -205 -307 -23 -8 -203 26 -265 50 -46 19 -57 28 -67 57 -28 83
1 313 43 345 55 41 227 114 271 115 15 0 43 -24 90 -78z m-501 12 c86 -51 85
-50 68 -113 -21 -80 -28 -198 -15 -263 l10 -58 -48 -63 c-26 -35 -63 -89 -82
-120 -38 -63 -39 -63 -124 -18 -49 25 -50 27 -56 81 -9 76 8 237 33 318 33
108 122 272 147 272 4 0 34 -16 67 -36z m1257 -18 c29 -19 77 -58 108 -88 55
-53 56 -57 68 -132 12 -86 14 -147 5 -223 l-7 -51 -61 -11 c-33 -5 -82 -13
-107 -16 l-46 -7 -23 64 c-26 72 -83 190 -112 230 -19 27 -19 28 3 70 34 67
110 198 115 198 3 0 28 -15 57 -34z m230 -208 c36 -129 48 -277 30 -382 l-6
-38 -23 57 c-21 52 -22 63 -13 137 9 75 -1 254 -17 279 -3 5 -1 9 3 9 5 0 16
-28 26 -62z m-500 -8 c44 -12 50 -17 88 -81 22 -38 55 -107 73 -155 29 -74 32
-92 24 -123 -15 -57 -94 -211 -135 -266 -39 -50 -39 -50 -103 -53 -59 -3 -235
12 -286 24 -25 6 -83 105 -147 249 l-44 101 59 84 c33 47 81 120 106 164 l47
78 135 -5 c74 -3 157 -11 183 -17z m-788 -266 c44 -13 112 -28 151 -34 l72
-11 17 -47 c10 -26 48 -107 85 -180 l68 -132 -85 -115 c-99 -133 -96 -131
-238 -95 -123 32 -176 60 -218 117 -48 66 -94 166 -109 237 -11 53 -11 60 10
99 43 81 136 197 152 190 8 -3 51 -16 95 -29z m1256 -111 c33 -87 31 -153 -8
-236 -38 -81 -120 -200 -165 -243 -40 -38 -80 -52 -168 -60 l-67 -7 -12 90
c-6 49 -11 97 -11 105 0 9 29 60 65 113 35 53 79 134 96 180 l32 83 91 15 c50
8 99 15 108 16 11 1 23 -17 39 -56z m-1615 -83 c49 -21 50 -22 62 -78 14 -66
68 -184 113 -248 31 -42 31 -44 15 -69 l-17 -25 -50 57 c-85 97 -142 205 -183
341 -11 40 -12 53 -3 49 6 -3 35 -15 63 -27z m944 -251 c47 -5 111 -9 142 -9
l57 0 6 -42 c4 -24 7 -72 8 -108 l2 -65 -70 -37 c-83 -44 -208 -88 -250 -88
-40 0 -123 43 -181 94 l-47 42 65 85 c35 47 73 100 84 118 18 31 22 32 59 26
22 -3 78 -11 125 -16z m-643 -170 c56 -24 196 -59 236 -59 20 0 45 -14 80 -45
28 -24 78 -59 111 -76 77 -40 75 -38 52 -55 -42 -30 -188 -9 -321 47 -80 33
-206 111 -239 148 -18 20 -18 22 -1 41 22 25 22 25 82 -1z m1013 -89 c-45 -36
-194 -108 -265 -129 -67 -19 -224 -45 -232 -38 -9 10 39 35 97 51 36 9 112 40
170 69 78 39 120 53 165 58 33 3 67 6 75 7 9 1 5 -6 -10 -18z"/>
</g>
</svg>
