<?xml version="1.0" standalone="no"?>
<!DOCTYPE svg PUBLIC "-//W3C//DTD SVG 20010904//EN"
 "http://www.w3.org/TR/2001/REC-SVG-20010904/DTD/svg10.dtd">
<svg version="1.0" xmlns="http://www.w3.org/2000/svg"
 width="333.000000pt" height="87.000000pt" viewBox="0 0 333.000000 87.000000"
 preserveAspectRatio="xMidYMid meet">
<metadata>
Created by potrace 1.16, written by Peter Selinger 2001-2019
</metadata>
<g transform="translate(0.000000,87.000000) scale(0.100000,-0.100000)"
fill="#000000" stroke="none">
<path d="M12 858 c-18 -18 -17 -817 1 -841 11 -16 120 -17 1662 -15 l1650 3 0
430 0 430 -1650 3 c-1276 1 -1654 -1 -1663 -10z m448 -249 c-2 -212 2 -229 42
-208 16 9 18 27 18 209 l0 200 120 0 119 0 3 -127 3 -128 25 0 25 0 3 128 3
127 124 0 125 0 2 -182 3 -183 25 0 25 0 3 183 2 182 125 0 124 0 3 -127 c3
-116 5 -128 22 -131 30 -6 36 16 36 141 l0 117 125 0 125 0 2 -182 3 -183 25
0 25 0 3 183 2 182 125 0 124 0 3 -127 3 -128 25 0 25 0 3 128 3 127 124 0
125 0 2 -182 3 -183 25 0 25 0 3 183 2 182 125 0 125 0 0 -119 c0 -96 3 -121
16 -132 11 -9 20 -10 32 -2 14 9 17 29 17 132 l0 121 123 0 122 0 0 -204 c0
-213 2 -225 43 -204 15 8 17 28 17 208 l0 200 140 0 140 0 0 -375 0 -375
-1600 0 -1600 0 0 375 0 375 195 0 196 0 -1 -201z"/>
</g>
</svg>
