<?xml version="1.0" standalone="no"?>
<!DOCTYPE svg PUBLIC "-//W3C//DTD SVG 20010904//EN"
 "http://www.w3.org/TR/2001/REC-SVG-20010904/DTD/svg10.dtd">
<svg version="1.0" xmlns="http://www.w3.org/2000/svg"
 width="175.000000pt" height="176.000000pt" viewBox="0 0 175.000000 176.000000"
 preserveAspectRatio="xMidYMid meet">
<metadata>
Created by potrace 1.16, written by Peter Selinger 2001-2019
</metadata>
<g transform="translate(0.000000,176.000000) scale(0.100000,-0.100000)"
fill="#000000" stroke="none">
<path d="M756 1749 c-352 -54 -620 -281 -726 -614 -28 -89 -38 -290 -20 -403
53 -332 301 -607 630 -702 107 -31 290 -38 399 -16 422 86 712 440 711 870 0
89 -27 231 -59 316 -78 207 -261 397 -462 482 -145 61 -339 88 -473 67z m327
-58 c287 -74 515 -296 598 -583 29 -101 36 -277 16 -383 -33 -174 -109 -318
-231 -440 -175 -174 -382 -253 -631 -242 -98 4 -138 10 -215 35 -380 124 -628
507 -580 898 14 116 33 182 80 277 176 352 579 536 963 438z"/>
<path d="M698 1286 c-7 -14 -50 -52 -95 -85 -66 -48 -83 -66 -83 -86 0 -14 2
-25 5 -25 3 0 47 32 99 70 52 39 97 70 100 70 3 0 6 -173 6 -385 0 -378 0
-385 20 -385 20 0 20 7 20 425 l0 425 -30 0 c-21 0 -33 -7 -42 -24z"/>
<path d="M1130 1120 c0 -34 -3 -40 -20 -40 -33 0 -94 -36 -127 -73 -97 -111
-42 -297 100 -336 46 -13 47 -15 47 -52 0 -32 3 -39 20 -39 17 0 20 7 20 45 0
39 3 45 22 45 12 0 41 12 66 26 39 23 42 28 30 41 -13 12 -20 11 -59 -9 -199
-104 -355 163 -169 290 58 39 162 22 205 -34 8 -11 13 -11 28 0 16 12 14 16
-22 49 -21 19 -53 38 -70 42 -28 6 -31 10 -31 46 0 32 -3 39 -20 39 -17 0 -20
-7 -20 -40z"/>
</g>
</svg>
