<?xml version="1.0" standalone="no"?>
<!DOCTYPE svg PUBLIC "-//W3C//DTD SVG 20010904//EN"
 "http://www.w3.org/TR/2001/REC-SVG-20010904/DTD/svg10.dtd">
<svg version="1.0" xmlns="http://www.w3.org/2000/svg"
 width="228.000000pt" height="209.000000pt" viewBox="0 0 228.000000 209.000000"
 preserveAspectRatio="xMidYMid meet">
<metadata>
Created by potrace 1.16, written by Peter Selinger 2001-2019
</metadata>
<g transform="translate(0.000000,209.000000) scale(0.100000,-0.100000)"
fill="#000000" stroke="none">
<path d="M1001 2074 c-138 -37 -240 -123 -309 -262 l-47 -95 0 -141 c0 -139 1
-142 32 -207 41 -83 138 -183 219 -226 153 -81 315 -81 479 -1 77 37 168 123
208 196 74 136 75 348 3 490 -31 62 -146 169 -218 204 -117 57 -253 73 -367
42z m255 -65 c207 -63 324 -214 324 -419 0 -129 -41 -232 -126 -317 -134 -134
-347 -167 -517 -81 -77 38 -162 125 -202 203 -29 57 -30 66 -30 185 0 120 1
128 32 192 55 117 167 213 283 244 70 19 160 16 236 -7z"/>
<path d="M127 1590 c-47 -9 -92 -50 -113 -105 -13 -36 -15 -92 -12 -416 3
-326 5 -379 20 -412 11 -23 90 -110 203 -222 207 -205 222 -227 233 -353 7
-76 8 -77 36 -80 l29 -4 -5 90 c-8 145 -25 171 -247 396 -152 154 -191 199
-200 231 -7 26 -11 161 -11 375 0 304 2 339 19 376 13 28 30 46 55 58 59 28
103 5 132 -69 13 -36 15 -73 10 -246 -3 -112 -6 -216 -6 -231 -1 -15 8 -44 19
-65 23 -47 278 -333 296 -333 19 0 38 27 29 42 -5 7 -63 76 -129 153 -134 154
-146 172 -147 217 -2 56 55 74 120 39 19 -9 119 -100 224 -201 137 -133 197
-197 212 -230 19 -42 21 -66 24 -323 l3 -277 31 0 30 0 -4 283 c-5 375 11 338
-241 583 -227 222 -258 244 -338 244 l-57 0 -4 178 c-3 167 -4 179 -28 221
-41 73 -95 97 -183 81z"/>
<path d="M2018 1575 c-14 -8 -37 -36 -50 -62 -21 -44 -23 -63 -26 -225 l-3
-177 -53 0 c-31 1 -66 -6 -85 -16 -18 -9 -105 -85 -194 -169 -325 -309 -301
-258 -305 -639 l-4 -287 31 0 30 0 3 278 3 277 28 56 c23 47 60 86 229 239
193 176 203 183 249 188 42 4 49 2 65 -23 17 -26 17 -28 -4 -68 -11 -23 -77
-106 -146 -185 -69 -78 -126 -146 -126 -150 1 -21 20 -34 41 -28 30 9 256 264
285 321 20 41 21 52 16 277 -5 253 -1 287 44 329 53 50 140 13 165 -71 7 -22
9 -159 7 -380 l-3 -345 -27 -45 c-14 -25 -102 -119 -193 -210 -107 -106 -175
-182 -191 -212 -23 -45 -43 -146 -44 -215 0 -30 3 -33 29 -33 28 0 28 1 34 75
10 130 32 164 241 372 133 131 188 192 197 220 11 29 14 124 14 418 0 374 0
381 -22 422 -34 63 -69 83 -145 83 -35 -1 -75 -7 -90 -15z"/>
</g>
</svg>
