<?xml version="1.0" standalone="no"?>
<!DOCTYPE svg PUBLIC "-//W3C//DTD SVG 20010904//EN"
 "http://www.w3.org/TR/2001/REC-SVG-20010904/DTD/svg10.dtd">
<svg version="1.0" xmlns="http://www.w3.org/2000/svg"
 width="227.000000pt" height="198.000000pt" viewBox="0 0 227.000000 198.000000"
 preserveAspectRatio="xMidYMid meet">
<metadata>
Created by potrace 1.16, written by Peter Selinger 2001-2019
</metadata>
<g transform="translate(0.000000,198.000000) scale(0.100000,-0.100000)"
fill="#000000" stroke="none">
<path d="M283 1960 c-62 -25 -124 -90 -141 -148 -18 -59 -14 -151 7 -197 23
-51 98 -118 149 -133 129 -39 268 25 320 147 19 46 18 145 -2 193 -55 128
-203 189 -333 138z m187 -70 c52 -27 92 -87 98 -149 8 -90 -48 -171 -141 -201
-111 -35 -237 63 -237 185 0 45 28 112 56 136 61 52 155 64 224 29z"/>
<path d="M1835 1971 c-133 -33 -218 -174 -186 -308 38 -156 210 -237 357 -169
207 96 187 406 -30 471 -53 16 -92 17 -141 6z m155 -81 c116 -59 132 -234 29
-313 -79 -60 -177 -56 -249 9 -95 86 -75 244 38 304 50 26 131 26 182 0z"/>
<path d="M1025 1949 c-99 -49 -150 -140 -143 -250 16 -221 275 -319 431 -162
122 122 93 322 -58 405 -64 35 -167 38 -230 7z m216 -73 c52 -35 79 -90 79
-161 0 -62 -14 -97 -57 -137 -60 -57 -155 -67 -228 -24 -60 36 -100 116 -91
184 8 62 50 121 106 150 58 30 134 25 191 -12z"/>
<path d="M207 1385 c-73 -27 -143 -90 -183 -165 -17 -31 -19 -64 -22 -305 -4
-303 1 -350 50 -409 54 -66 89 -76 280 -76 91 0 173 -3 182 -6 14 -5 16 -32
16 -198 0 -152 3 -196 14 -212 12 -15 18 -17 33 -8 16 10 18 29 18 222 0 278
20 255 -240 262 -215 6 -228 9 -270 81 -19 32 -20 52 -20 304 0 149 4 283 8
298 10 38 82 114 131 139 32 17 53 20 110 16 81 -5 134 -29 183 -80 47 -49 53
-75 53 -224 l0 -134 -78 0 c-106 0 -112 -7 -112 -127 0 -123 0 -123 163 -123
142 0 193 -13 224 -58 16 -24 19 -58 23 -296 5 -245 7 -270 23 -280 15 -9 21
-7 33 9 13 17 15 61 12 280 -3 249 -4 262 -25 298 -13 21 -23 40 -23 43 0 2
157 4 349 4 l348 0 -21 -42 c-20 -41 -21 -58 -21 -312 0 -240 2 -270 17 -279
12 -8 21 -7 32 2 14 12 16 48 16 273 0 287 3 303 63 335 24 13 63 18 162 21
165 5 165 5 165 121 0 121 -8 131 -106 131 l-74 0 0 138 c0 113 4 144 19 179
33 72 137 123 251 123 49 0 66 -5 106 -32 27 -18 62 -53 79 -76 l30 -44 3
-278 c5 -409 10 -402 -291 -410 l-189 -5 -24 -28 c-24 -28 -24 -31 -24 -238 0
-178 2 -211 15 -215 8 -4 22 -1 30 6 12 10 15 47 15 206 0 181 1 194 19 204
11 6 92 10 188 10 188 0 226 10 276 69 45 54 49 84 45 401 -3 264 -5 299 -21
329 -34 61 -95 117 -159 146 -53 24 -70 27 -122 22 -134 -13 -239 -72 -284
-160 -23 -43 -26 -63 -30 -197 l-5 -150 -512 0 -513 0 -4 148 c-4 155 -14 193
-67 249 -89 94 -239 136 -344 98z m1631 -617 l-3 -63 -707 -3 -708 -2 0 65 0
65 710 0 711 0 -3 -62z"/>
<path d="M960 1366 c-78 -23 -99 -35 -150 -82 -66 -62 -85 -113 -85 -234 0
-84 2 -95 19 -98 29 -6 36 10 42 94 6 104 26 156 76 198 54 47 114 66 229 73
175 11 316 -40 363 -131 14 -28 21 -68 25 -135 6 -94 6 -96 31 -96 25 0 25 2
28 89 4 117 -15 174 -78 236 -73 74 -134 93 -310 97 -100 2 -159 -1 -190 -11z"/>
</g>
</svg>
