<?xml version="1.0" standalone="no"?>
<!DOCTYPE svg PUBLIC "-//W3C//DTD SVG 20010904//EN"
 "http://www.w3.org/TR/2001/REC-SVG-20010904/DTD/svg10.dtd">
<svg version="1.0" xmlns="http://www.w3.org/2000/svg"
 width="132.000000pt" height="216.000000pt" viewBox="0 0 132.000000 216.000000"
 preserveAspectRatio="xMidYMid meet">
<metadata>
Created by potrace 1.16, written by Peter Selinger 2001-2019
</metadata>
<g transform="translate(0.000000,216.000000) scale(0.100000,-0.100000)"
fill="#000000" stroke="none">
<path d="M560 2139 c-113 -51 -155 -152 -127 -308 8 -44 7 -44 -11 -27 -60 53
-218 74 -290 37 -85 -44 -132 -122 -132 -218 1 -134 97 -226 251 -240 l58 -6
-49 -44 c-120 -107 -135 -269 -34 -369 118 -119 316 -84 397 71 15 28 16 9 16
-275 l0 -305 -22 45 c-30 64 -130 160 -201 193 -80 38 -175 58 -254 55 l-67
-3 2 -48 c2 -63 58 -181 115 -243 86 -95 208 -151 345 -161 l82 -6 3 -141 c3
-117 6 -141 18 -141 12 0 16 19 18 103 l3 102 32 0 c102 0 228 61 309 149 70
77 128 201 128 278 0 33 0 33 -48 33 -153 0 -307 -89 -387 -224 l-35 -60 0
339 0 340 35 -53 c44 -64 94 -99 168 -114 48 -10 64 -9 109 5 193 61 228 286
68 430 l-49 44 58 6 c156 14 250 106 251 245 0 151 -96 239 -251 230 -62 -4
-87 -10 -132 -36 l-56 -31 11 29 c5 17 8 67 7 113 -4 71 -8 88 -34 127 -62 92
-199 127 -305 79z m196 -38 c23 -10 54 -36 70 -57 25 -32 29 -48 32 -114 3
-62 -1 -90 -22 -150 -14 -43 -22 -78 -17 -83 5 -5 34 11 67 39 32 26 77 55 99
65 45 21 138 25 182 8 67 -25 116 -104 115 -185 -1 -127 -106 -204 -278 -204
-88 0 -102 -13 -53 -49 122 -92 168 -159 169 -244 0 -87 -46 -152 -129 -182
-55 -19 -77 -19 -132 0 -85 30 -120 80 -184 264 -8 21 -32 -5 -40 -42 -28
-129 -137 -237 -241 -237 -65 0 -147 53 -175 114 -51 112 -7 206 155 329 20
16 34 32 31 38 -4 5 -41 9 -84 9 -96 0 -170 21 -217 62 -48 43 -64 77 -64 143
0 120 78 197 200 197 73 0 130 -25 199 -86 41 -36 56 -44 66 -36 11 9 10 19
-6 54 -30 68 -44 173 -30 223 32 117 171 177 287 124z m-456 -1407 c145 -34
262 -140 311 -282 28 -80 27 -82 -33 -82 -148 1 -305 86 -381 207 -23 37 -67
144 -67 163 0 15 97 12 170 -6z m805 -96 c-4 -18 -22 -66 -40 -105 -61 -132
-184 -224 -319 -239 l-59 -7 7 39 c18 99 94 214 181 274 52 36 148 69 198 70
38 0 39 0 32 -32z"/>
<path d="M585 1651 c-139 -64 -154 -251 -27 -332 85 -54 204 -31 258 51 105
158 -61 360 -231 281z m149 -44 c132 -75 78 -277 -73 -277 -114 0 -182 109
-132 212 39 81 128 109 205 65z"/>
</g>
</svg>
