<?xml version="1.0" standalone="no"?>
<!DOCTYPE svg PUBLIC "-//W3C//DTD SVG 20010904//EN"
 "http://www.w3.org/TR/2001/REC-SVG-20010904/DTD/svg10.dtd">
<svg version="1.0" xmlns="http://www.w3.org/2000/svg"
 width="160.000000pt" height="159.000000pt" viewBox="0 0 160.000000 159.000000"
 preserveAspectRatio="xMidYMid meet">
<metadata>
Created by potrace 1.16, written by Peter Selinger 2001-2019
</metadata>
<g transform="translate(0.000000,159.000000) scale(0.100000,-0.100000)"
fill="#000000" stroke="none">
<path d="M689 1581 c-86 -12 -196 -49 -284 -94 -61 -32 -102 -63 -170 -132
-176 -176 -242 -347 -232 -595 6 -144 23 -213 77 -325 97 -197 288 -352 510
-412 91 -25 319 -25 410 0 288 78 513 305 574 580 61 273 -8 533 -192 729
-107 113 -247 196 -393 232 -79 19 -224 28 -300 17z m306 -66 c137 -37 293
-137 384 -247 59 -72 123 -194 146 -283 49 -184 18 -412 -77 -573 -49 -83
-161 -196 -245 -249 -41 -25 -113 -59 -161 -76 -74 -26 -106 -31 -210 -35
-140 -5 -213 6 -320 49 -221 88 -384 270 -443 498 -25 91 -29 257 -10 346 79
364 393 606 766 590 61 -2 137 -12 170 -20z"/>
<path d="M502 968 c-47 -23 -37 -101 14 -114 65 -16 111 59 65 105 -23 23 -44
25 -79 9z"/>
<path d="M1012 957 c-12 -13 -22 -33 -22 -45 0 -31 35 -62 68 -62 57 0 83 69
42 110 -27 27 -62 25 -88 -3z"/>
<path d="M493 533 c-10 -26 93 -116 164 -144 78 -30 196 -30 271 -1 98 38 192
126 164 154 -8 8 -23 0 -59 -32 -77 -69 -143 -95 -238 -95 -96 0 -169 29 -234
94 -45 45 -58 50 -68 24z"/>
</g>
</svg>
