<?xml version="1.0" standalone="no"?>
<!DOCTYPE svg PUBLIC "-//W3C//DTD SVG 20010904//EN"
 "http://www.w3.org/TR/2001/REC-SVG-20010904/DTD/svg10.dtd">
<svg version="1.0" xmlns="http://www.w3.org/2000/svg"
 width="163.000000pt" height="261.000000pt" viewBox="0 0 163.000000 261.000000"
 preserveAspectRatio="xMidYMid meet">
<metadata>
Created by potrace 1.16, written by Peter Selinger 2001-2019
</metadata>
<g transform="translate(0.000000,261.000000) scale(0.100000,-0.100000)"
fill="#000000" stroke="none">
<path d="M1515 2585 c-168 -58 -365 -176 -467 -279 -97 -99 -154 -205 -200
-374 -28 -105 -31 -297 -5 -399 l19 -71 -42 -129 c-23 -70 -50 -164 -60 -208
l-18 -80 -1 125 c-1 69 -8 156 -16 194 -40 191 -185 380 -383 499 -101 61
-254 127 -301 130 -31 2 -36 -1 -39 -22 -5 -29 21 -189 53 -334 72 -322 215
-487 500 -577 55 -17 107 -35 115 -39 23 -12 48 -108 39 -150 -26 -123 -42
-309 -46 -561 -4 -229 -2 -278 10 -294 8 -11 21 -17 29 -13 13 5 16 51 21 329
4 260 9 349 26 458 28 180 81 401 128 533 l38 108 100 45 c142 63 246 129 331
207 130 121 202 253 243 442 38 176 55 447 29 473 -16 16 -21 15 -103 -13z
m55 -137 c0 -201 -35 -373 -104 -513 -85 -171 -188 -268 -394 -371 -62 -32
-114 -55 -117 -53 -7 8 62 136 192 351 77 127 123 213 120 223 -11 27 -35 16
-65 -27 -52 -77 -177 -291 -238 -405 -32 -62 -62 -113 -65 -113 -10 0 -19 95
-19 193 0 281 139 528 379 671 69 42 279 135 304 136 4 0 7 -42 7 -92z m-1401
-556 c242 -105 429 -294 490 -496 12 -38 24 -110 27 -160 6 -104 16 -108 -85
34 -119 168 -210 266 -235 257 -28 -11 -17 -33 65 -128 95 -111 226 -302 210
-307 -17 -6 -140 37 -206 71 -84 44 -201 164 -248 253 -42 81 -78 207 -107
373 -23 130 -24 141 -10 141 5 0 50 -17 99 -38z"/>
</g>
</svg>
