<?xml version="1.0" standalone="no"?>
<!DOCTYPE svg PUBLIC "-//W3C//DTD SVG 20010904//EN"
 "http://www.w3.org/TR/2001/REC-SVG-20010904/DTD/svg10.dtd">
<svg version="1.0" xmlns="http://www.w3.org/2000/svg"
 width="146.000000pt" height="180.000000pt" viewBox="0 0 146.000000 180.000000"
 preserveAspectRatio="xMidYMid meet">
<metadata>
Created by potrace 1.16, written by Peter Selinger 2001-2019
</metadata>
<g transform="translate(0.000000,180.000000) scale(0.100000,-0.100000)"
fill="#000000" stroke="none">
<path d="M166 1625 c-91 -96 -166 -179 -166 -185 0 -16 332 -360 347 -360 27
0 22 23 -13 63 -20 23 -86 92 -145 153 -60 61 -109 114 -109 118 0 4 177 6
393 3 433 -4 447 -6 576 -72 138 -71 240 -177 306 -320 86 -185 86 -394 0
-582 -78 -169 -206 -286 -389 -356 l-81 -31 -370 -6 c-339 -5 -370 -6 -373
-22 -2 -11 5 -19 21 -23 14 -4 175 -5 358 -3 378 5 407 10 564 91 121 62 236
181 297 307 57 116 78 208 78 337 0 122 -18 209 -64 307 -85 185 -234 317
-434 385 l-77 26 -402 3 c-222 2 -403 5 -403 8 0 3 37 44 83 92 46 48 109 114
140 148 55 59 71 94 43 94 -7 0 -88 -79 -180 -175z"/>
</g>
</svg>
