<?xml version="1.0" standalone="no"?>
<!DOCTYPE svg PUBLIC "-//W3C//DTD SVG 20010904//EN"
 "http://www.w3.org/TR/2001/REC-SVG-20010904/DTD/svg10.dtd">
<svg version="1.0" xmlns="http://www.w3.org/2000/svg"
 width="157.000000pt" height="164.000000pt" viewBox="0 0 157.000000 164.000000"
 preserveAspectRatio="xMidYMid meet">
<metadata>
Created by potrace 1.16, written by Peter Selinger 2001-2019
</metadata>
<g transform="translate(0.000000,164.000000) scale(0.100000,-0.100000)"
fill="#000000" stroke="none">
<path d="M656 1630 c-288 -52 -519 -258 -617 -550 -37 -112 -50 -279 -30 -395
72 -414 418 -705 811 -682 505 29 858 546 714 1045 -80 277 -287 487 -554 562
-85 24 -248 34 -324 20z m339 -84 c244 -82 418 -273 496 -546 8 -27 13 -100
14 -180 0 -114 -4 -147 -23 -210 -106 -336 -381 -550 -706 -550 -115 0 -199
20 -301 70 -196 97 -339 277 -395 495 -28 108 -27 282 0 391 66 257 250 458
490 533 93 29 103 30 230 27 93 -3 130 -9 195 -30z"/>
<path d="M731 1296 c-70 -74 2 -183 90 -136 47 26 59 101 22 143 -24 26 -84
22 -112 -7z"/>
<path d="M610 975 c-18 -22 -5 -45 27 -46 15 0 48 -2 73 -3 l45 -2 -3 -265 -3
-264 -69 -3 c-51 -2 -70 -7 -74 -19 -15 -38 9 -44 183 -41 l166 3 0 25 c0 24
-3 25 -67 28 l-68 3 0 287 c0 211 -3 291 -12 300 -18 18 -182 16 -198 -3z"/>
</g>
</svg>
