<?xml version="1.0" standalone="no"?>
<!DOCTYPE svg PUBLIC "-//W3C//DTD SVG 20010904//EN"
 "http://www.w3.org/TR/2001/REC-SVG-20010904/DTD/svg10.dtd">
<svg version="1.0" xmlns="http://www.w3.org/2000/svg"
 width="78.000000pt" height="233.000000pt" viewBox="0 0 78.000000 233.000000"
 preserveAspectRatio="xMidYMid meet">
<metadata>
Created by potrace 1.16, written by Peter Selinger 2001-2019
</metadata>
<g transform="translate(0.000000,233.000000) scale(0.100000,-0.100000)"
fill="#000000" stroke="none">
<path d="M68 2323 c-15 -2 -37 -16 -48 -30 -20 -25 -20 -37 -20 -1135 l0
-1109 25 -24 24 -25 336 0 337 0 29 29 29 29 0 1102 c0 770 -3 1107 -11 1122
-23 44 -59 48 -376 47 -164 -1 -310 -4 -325 -6z m656 -65 c11 -16 16 -46 16
-105 l0 -83 -156 0 c-143 0 -155 -1 -152 -17 3 -16 21 -19 153 -23 l150 -5 3
-87 3 -88 -83 0 c-144 0 -151 -37 -8 -42 l85 -3 0 -85 0 -85 -145 -1 c-180 -1
-180 -1 -180 -19 0 -8 1 -16 3 -16 1 -1 74 -4 162 -8 l160 -6 0 -90 0 -90 -92
-5 c-95 -5 -136 -21 -92 -36 13 -4 60 -10 104 -13 l80 -6 0 -80 0 -80 -170 -5
c-142 -4 -170 -7 -170 -20 0 -13 27 -15 173 -18 l173 -2 -3 -83 -3 -82 -87 -3
c-79 -2 -88 -5 -88 -22 0 -17 9 -20 88 -22 l87 -3 0 -80 0 -80 -170 -6 c-93
-3 -171 -6 -172 -7 -2 -1 -3 -11 -3 -22 0 -19 7 -20 175 -20 l175 0 0 -79 c0
-52 -4 -82 -13 -89 -7 -6 -49 -12 -92 -14 -63 -2 -80 -6 -80 -18 0 -12 18 -16
93 -18 l93 -3 -3 -87 -3 -87 -167 -5 c-91 -3 -170 -8 -174 -13 -22 -22 24 -31
182 -35 l167 -5 -6 -91 c-9 -133 16 -125 -354 -126 -216 0 -309 3 -319 11 -20
16 -21 2215 -1 2222 6 3 155 6 329 6 317 1 317 1 332 -21z"/>
</g>
</svg>
