<?xml version="1.0" standalone="no"?>
<!DOCTYPE svg PUBLIC "-//W3C//DTD SVG 20010904//EN"
 "http://www.w3.org/TR/2001/REC-SVG-20010904/DTD/svg10.dtd">
<svg version="1.0" xmlns="http://www.w3.org/2000/svg"
 width="159.000000pt" height="192.000000pt" viewBox="0 0 159.000000 192.000000"
 preserveAspectRatio="xMidYMid meet">
<metadata>
Created by potrace 1.16, written by Peter Selinger 2001-2019
</metadata>
<g transform="translate(0.000000,192.000000) scale(0.100000,-0.100000)"
fill="#000000" stroke="none">
<path d="M47 1909 c-48 -28 -47 -8 -47 -946 0 -853 1 -879 20 -910 12 -21 32
-36 57 -43 27 -8 251 -10 746 -8 l709 3 29 33 29 32 0 894 0 894 -26 31 -26
31 -736 0 c-482 -1 -743 -4 -755 -11z m1486 -51 c16 -19 17 -76 17 -898 0
-846 -1 -877 -19 -894 -17 -16 -73 -17 -732 -16 -701 0 -714 1 -734 21 -20 19
-20 32 -20 893 0 844 1 875 19 895 19 21 22 21 715 23 383 2 705 1 716 0 11
-2 28 -13 38 -24z"/>
<path d="M285 1439 c-4 -6 -3 -15 2 -20 5 -5 215 -8 514 -7 440 3 504 5 504
18 0 13 -64 15 -507 18 -359 1 -509 -1 -513 -9z"/>
<path d="M287 1073 c-4 -3 -7 -12 -7 -20 0 -11 92 -13 511 -13 481 0 510 1
507 18 -3 16 -36 17 -504 20 -275 1 -504 -1 -507 -5z"/>
<path d="M287 693 c-4 -3 -7 -12 -7 -20 0 -11 68 -13 368 -13 203 0 372 3 375
7 4 3 2 12 -4 20 -9 10 -82 13 -369 13 -196 0 -360 -3 -363 -7z"/>
</g>
</svg>
