<?xml version="1.0" standalone="no"?>
<!DOCTYPE svg PUBLIC "-//W3C//DTD SVG 20010904//EN"
 "http://www.w3.org/TR/2001/REC-SVG-20010904/DTD/svg10.dtd">
<svg version="1.0" xmlns="http://www.w3.org/2000/svg"
 width="130.000000pt" height="205.000000pt" viewBox="0 0 130.000000 205.000000"
 preserveAspectRatio="xMidYMid meet">
<metadata>
Created by potrace 1.16, written by Peter Selinger 2001-2019
</metadata>
<g transform="translate(0.000000,205.000000) scale(0.100000,-0.100000)"
fill="#000000" stroke="none">
<path d="M680 2043 c-154 -26 -303 -128 -370 -255 -56 -105 -62 -140 -67 -410
l-5 -248 -97 0 c-62 0 -101 -4 -109 -12 -8 -8 -12 -53 -12 -135 0 -147 -2
-145 131 -142 l91 2 -1 -146 c-2 -148 -15 -226 -47 -289 -23 -45 -111 -135
-156 -160 l-39 -22 3 -111 3 -110 619 -3 c449 -1 623 1 632 9 19 15 20 269 2
287 -9 9 -111 12 -398 12 l-386 0 22 68 c30 90 44 199 44 345 l0 122 205 -3
c132 -2 212 1 225 8 18 10 20 21 20 130 0 65 -3 125 -6 134 -5 14 -35 16 -226
16 l-219 0 3 223 c3 221 3 222 31 280 44 89 115 127 211 113 89 -14 171 -96
216 -216 19 -51 26 -60 47 -60 30 0 213 93 239 121 18 20 17 22 -28 112 -99
199 -202 292 -369 332 -60 14 -153 18 -209 8z m229 -62 c130 -40 214 -117 294
-270 l47 -89 -27 -20 c-32 -23 -149 -82 -160 -82 -4 0 -21 30 -37 66 -59 130
-157 205 -272 205 -79 1 -136 -24 -184 -78 -68 -77 -75 -114 -75 -383 l0 -235
223 -3 222 -2 0 -100 0 -100 -222 -2 -223 -3 -6 -195 c-6 -208 -17 -267 -64
-361 -14 -27 -23 -54 -20 -59 4 -6 162 -10 411 -10 l404 0 0 -105 0 -105 -590
0 -590 0 0 73 1 72 40 25 c97 59 177 185 199 311 6 35 10 129 8 209 l-3 145
-107 3 -108 3 0 99 0 99 108 3 107 3 6 270 c5 248 7 275 28 333 53 146 177
255 331 292 66 15 195 11 259 -9z"/>
</g>
</svg>
