<?xml version="1.0" standalone="no"?>
<!DOCTYPE svg PUBLIC "-//W3C//DTD SVG 20010904//EN"
 "http://www.w3.org/TR/2001/REC-SVG-20010904/DTD/svg10.dtd">
<svg version="1.0" xmlns="http://www.w3.org/2000/svg"
 width="171.000000pt" height="169.000000pt" viewBox="0 0 171.000000 169.000000"
 preserveAspectRatio="xMidYMid meet">
<metadata>
Created by potrace 1.16, written by Peter Selinger 2001-2019
</metadata>
<g transform="translate(0.000000,169.000000) scale(0.100000,-0.100000)"
fill="#000000" stroke="none">
<path d="M725 1685 c-5 -2 -44 -11 -85 -20 -208 -48 -411 -200 -520 -391 -248
-433 -85 -962 367 -1188 121 -60 209 -80 358 -81 143 0 240 20 361 75 257 116
453 370 495 643 14 87 6 250 -16 332 -24 88 -106 251 -162 320 -112 138 -291
253 -457 295 -60 15 -110 20 -205 19 -69 0 -130 -2 -136 -4z m306 -51 c38 -9
97 -26 130 -39 63 -25 211 -118 243 -154 18 -20 14 -24 -549 -583 -312 -310
-573 -563 -578 -563 -20 0 -108 120 -148 201 -63 130 -82 223 -77 378 4 113 9
143 35 221 45 130 97 218 183 306 119 122 255 199 415 234 86 19 262 18 346
-1z m475 -306 c58 -77 116 -200 140 -293 27 -105 25 -286 -5 -389 -61 -217
-216 -407 -411 -506 -292 -147 -603 -124 -859 65 l-64 47 569 569 c313 313
572 569 576 569 5 0 29 -28 54 -62z"/>
</g>
</svg>
