<?xml version="1.0" standalone="no"?>
<!DOCTYPE svg PUBLIC "-//W3C//DTD SVG 20010904//EN"
 "http://www.w3.org/TR/2001/REC-SVG-20010904/DTD/svg10.dtd">
<svg version="1.0" xmlns="http://www.w3.org/2000/svg"
 width="186.000000pt" height="185.000000pt" viewBox="0 0 186.000000 185.000000"
 preserveAspectRatio="xMidYMid meet">
<metadata>
Created by potrace 1.16, written by Peter Selinger 2001-2019
</metadata>
<g transform="translate(0.000000,185.000000) scale(0.100000,-0.100000)"
fill="#000000" stroke="none">
<path d="M731 1829 c-213 -46 -437 -196 -558 -375 -244 -359 -224 -811 50
-1131 114 -133 231 -211 412 -273 110 -38 131 -42 250 -47 218 -9 383 34 553
146 202 133 338 324 398 561 29 113 26 335 -4 449 -74 274 -248 482 -505 605
-129 62 -197 77 -362 82 -114 3 -158 0 -234 -17z m376 -55 c161 -33 300 -105
420 -217 111 -104 185 -224 239 -387 26 -78 28 -97 28 -240 0 -140 -3 -164
-28 -245 -74 -243 -229 -427 -451 -535 -154 -75 -201 -85 -400 -84 -167 0
-172 1 -260 33 -247 90 -416 244 -519 475 -58 127 -70 187 -70 336 0 109 4
151 22 220 91 340 353 582 707 654 53 10 243 5 312 -10z"/>
<path d="M901 1581 c-7 -12 -11 -114 -11 -278 l0 -258 -30 -17 c-37 -21 -64
-79 -55 -119 7 -32 54 -76 90 -85 13 -3 40 -1 60 6 l35 12 117 -112 c65 -61
124 -109 132 -108 7 2 19 11 25 21 10 16 -5 34 -112 135 -116 111 -123 119
-122 156 0 33 -6 45 -41 78 l-40 38 2 273 c2 268 1 272 -19 275 -13 2 -25 -5
-31 -17z m47 -613 c7 -7 12 -21 12 -33 0 -12 -5 -26 -12 -33 -28 -28 -78 -7
-78 33 0 12 5 26 12 33 7 7 21 12 33 12 12 0 26 -5 33 -12z"/>
</g>
</svg>
