<?xml version="1.0" standalone="no"?>
<!DOCTYPE svg PUBLIC "-//W3C//DTD SVG 20010904//EN"
 "http://www.w3.org/TR/2001/REC-SVG-20010904/DTD/svg10.dtd">
<svg version="1.0" xmlns="http://www.w3.org/2000/svg"
 width="203.000000pt" height="217.000000pt" viewBox="0 0 203.000000 217.000000"
 preserveAspectRatio="xMidYMid meet">
<metadata>
Created by potrace 1.16, written by Peter Selinger 2001-2019
</metadata>
<g transform="translate(0.000000,217.000000) scale(0.100000,-0.100000)"
fill="#000000" stroke="none">
<path d="M441 2156 c-33 -18 -50 -53 -51 -103 l0 -41 -148 -4 c-164 -3 -185
-10 -222 -71 -19 -31 -20 -58 -20 -927 0 -1014 -6 -945 80 -988 l45 -22 902 2
c892 3 902 3 930 24 15 11 38 40 51 65 l22 44 -2 885 c-3 811 -4 888 -20 916
-33 61 -57 69 -220 72 l-148 4 0 50 c0 41 -5 54 -29 79 -64 64 -151 12 -151
-91 l0 -40 -445 0 -445 0 0 51 c0 43 -5 55 -29 80 -32 31 -62 36 -100 15z m73
-62 c8 -20 8 -248 0 -268 -7 -19 -45 -21 -62 -4 -17 17 -17 259 0 276 17 17
55 15 62 -4z m1070 0 c8 -20 8 -248 0 -268 -7 -19 -45 -21 -62 -4 -8 8 -12 53
-12 138 0 85 4 130 12 138 17 17 55 15 62 -4z m-1194 -215 c0 -65 2 -73 29
-100 20 -20 39 -29 61 -29 22 0 41 9 61 29 27 27 29 35 29 100 l0 71 445 2
445 3 0 -63 c0 -94 32 -142 94 -142 14 0 38 11 53 24 25 22 29 32 33 101 l5
77 140 -1 c192 -2 185 7 185 -227 l0 -174 -960 0 -960 0 0 165 c0 172 6 205
44 224 18 10 269 21 289 13 4 -2 7 -35 7 -73z m1580 -1076 c0 -663 -1 -689
-20 -713 l-19 -25 -911 -3 -911 -2 -30 29 -29 29 0 686 0 686 960 0 960 0 0
-687z"/>
<path d="M795 1153 c-11 -2 -30 -6 -43 -9 -35 -7 -109 -81 -122 -120 -26 -78
25 -91 57 -15 25 60 59 83 129 89 64 5 105 -9 139 -50 30 -35 34 -102 10 -148
-17 -34 -81 -70 -122 -70 -79 -1 -66 -51 16 -61 28 -4 63 -14 77 -23 62 -41
82 -131 44 -194 -38 -62 -148 -90 -224 -58 -35 15 -86 73 -86 98 0 22 -27 41
-46 34 -13 -5 -15 -14 -10 -38 32 -160 276 -214 390 -88 81 90 65 213 -36 279
l-37 24 38 27 c123 89 75 284 -79 319 -47 11 -61 12 -95 4z"/>
<path d="M1242 1072 c-77 -50 -102 -72 -100 -86 2 -11 8 -21 14 -23 6 -2 47
21 92 51 l82 54 0 -308 c0 -265 2 -309 15 -320 36 -30 40 -1 43 329 3 314 -2
371 -30 371 -7 0 -59 -30 -116 -68z"/>
</g>
</svg>
