<?xml version="1.0" standalone="no"?>
<!DOCTYPE svg PUBLIC "-//W3C//DTD SVG 20010904//EN"
 "http://www.w3.org/TR/2001/REC-SVG-20010904/DTD/svg10.dtd">
<svg version="1.0" xmlns="http://www.w3.org/2000/svg"
 width="106.000000pt" height="232.000000pt" viewBox="0 0 106.000000 232.000000"
 preserveAspectRatio="xMidYMid meet">
<metadata>
Created by potrace 1.16, written by Peter Selinger 2001-2019
</metadata>
<g transform="translate(0.000000,232.000000) scale(0.100000,-0.100000)"
fill="#000000" stroke="none">
<path d="M522 2301 c-109 -38 -176 -123 -170 -218 l3 -53 -72 -31 c-78 -34
-102 -54 -86 -70 6 -6 37 3 89 25 l79 35 27 -52 c85 -166 256 -205 405 -91 68
52 93 162 58 259 -8 21 -12 41 -10 43 2 2 43 14 91 26 94 24 122 46 57 46 -21
0 -67 -7 -102 -15 l-65 -16 -44 51 c-24 28 -57 57 -73 65 -38 20 -123 18 -187
-4z m216 -76 l44 -49 -188 -63 c-103 -35 -192 -63 -196 -63 -4 0 -8 16 -8 36
0 110 116 198 250 190 50 -3 57 -6 98 -51z m87 -216 c0 -56 -4 -71 -27 -102
-41 -52 -125 -91 -187 -85 -66 7 -135 48 -165 101 -50 87 -60 77 156 150 l193
64 15 -31 c8 -17 15 -60 15 -97z"/>
<path d="M481 1717 c-19 -6 -54 -29 -77 -51 -39 -37 -43 -39 -53 -23 -25 39
-73 57 -151 57 -92 0 -151 -24 -180 -72 -19 -31 -20 -50 -20 -276 0 -263 4
-285 54 -332 25 -23 36 -25 114 -25 48 0 100 2 115 5 26 5 30 1 42 -35 8 -22
30 -54 50 -72 l36 -31 -21 -79 c-20 -68 -149 -428 -209 -581 -23 -58 -21 -86
11 -140 25 -42 65 -62 122 -62 53 0 90 15 110 44 11 18 118 290 196 499 12 33
26 55 30 50 18 -20 51 -132 90 -308 23 -105 49 -203 59 -220 24 -43 76 -67
130 -62 52 6 89 31 115 78 l19 35 -37 194 c-49 260 -63 308 -140 493 l-66 158
0 242 c0 256 -9 346 -40 407 -25 49 -80 96 -127 109 -47 14 -127 12 -172 -2z
m161 -37 c44 -13 102 -74 119 -127 7 -24 13 -140 16 -318 l4 -280 69 -175 c83
-212 90 -235 135 -472 25 -130 33 -193 26 -206 -37 -68 -135 -78 -175 -17 -8
13 -33 106 -55 207 -48 222 -62 262 -163 451 -73 137 -78 150 -64 166 30 33
37 117 30 349 -5 153 -10 222 -18 219 -20 -7 -24 -52 -25 -283 -1 -218 -2
-233 -22 -258 -16 -21 -29 -26 -64 -26 -37 0 -47 5 -71 33 l-27 32 6 276 c6
294 11 324 60 378 49 53 137 73 219 51z m-340 -49 c31 -28 33 -33 30 -88 -2
-32 -6 -153 -10 -270 -4 -136 -11 -216 -18 -223 -18 -18 -167 -25 -203 -10
-55 22 -61 52 -61 312 0 200 2 237 16 257 24 34 71 50 146 51 61 0 71 -3 100
-29z m260 -870 l57 -108 -85 -219 c-47 -120 -97 -249 -111 -287 -30 -80 -60
-107 -115 -107 -50 0 -98 43 -98 89 0 16 38 130 84 253 82 220 137 382 151
445 6 28 18 39 50 42 6 0 36 -48 67 -108z"/>
</g>
</svg>
