<?xml version="1.0" standalone="no"?>
<!DOCTYPE svg PUBLIC "-//W3C//DTD SVG 20010904//EN"
 "http://www.w3.org/TR/2001/REC-SVG-20010904/DTD/svg10.dtd">
<svg version="1.0" xmlns="http://www.w3.org/2000/svg"
 width="144.000000pt" height="216.000000pt" viewBox="0 0 144.000000 216.000000"
 preserveAspectRatio="xMidYMid meet">
<metadata>
Created by potrace 1.16, written by Peter Selinger 2001-2019
</metadata>
<g transform="translate(0.000000,216.000000) scale(0.100000,-0.100000)"
fill="#000000" stroke="none">
<path d="M1250 2144 c-93 -24 -211 -88 -282 -153 -103 -95 -189 -245 -205
-357 -6 -44 -23 -72 -23 -38 0 40 -75 168 -140 237 -118 126 -261 190 -459
206 -63 5 -113 5 -123 -1 -23 -11 -23 -58 -2 -168 19 -103 47 -179 92 -250 45
-72 74 -103 150 -157 85 -61 181 -99 326 -128 67 -13 129 -27 139 -30 15 -6
17 -24 17 -172 l0 -166 -311 4 c-284 4 -313 3 -322 -13 -8 -12 -8 -49 1 -129
16 -140 29 -168 79 -169 19 0 23 -9 33 -72 6 -40 22 -131 35 -203 14 -71 30
-166 36 -210 13 -94 29 -129 72 -155 30 -19 53 -20 387 -20 454 0 436 -8 470
211 11 68 32 198 48 289 28 165 29 165 57 170 54 10 67 44 69 176 l1 119 -308
3 -307 2 2 228 3 227 69 8 c347 38 562 259 583 597 4 73 3 103 -7 115 -16 19
-104 19 -180 -1z m147 -111 c-11 -165 -81 -322 -184 -413 -62 -54 -186 -115
-277 -135 -127 -28 -126 -25 36 137 111 111 143 150 134 157 -18 15 -155 -106
-253 -222 l-76 -92 7 68 c9 92 47 208 93 286 98 164 310 298 477 300 l49 1 -6
-87z m-1217 -37 c137 -10 278 -74 377 -173 102 -102 180 -289 171 -412 l-3
-44 -84 102 c-89 107 -168 181 -195 181 -30 0 -16 -29 39 -77 30 -26 87 -86
127 -132 l72 -84 -50 7 c-330 47 -528 223 -580 517 -20 112 -16 130 23 124 15
-2 62 -6 103 -9z m678 -1066 l505 0 -6 -89 c-9 -144 64 -127 -599 -133 -420
-4 -576 -3 -585 6 -9 9 -33 164 -33 217 0 9 27 10 107 6 58 -4 333 -7 611 -7z
m385 -337 c-7 -43 -29 -172 -48 -288 -34 -200 -37 -211 -65 -237 l-30 -28
-350 0 c-347 0 -349 0 -375 23 -24 20 -29 42 -69 267 -24 135 -46 264 -50 287
l-6 42 47 4 c27 2 253 4 504 5 l456 2 -14 -77z"/>
</g>
</svg>
