<?xml version="1.0" standalone="no"?>
<!DOCTYPE svg PUBLIC "-//W3C//DTD SVG 20010904//EN"
 "http://www.w3.org/TR/2001/REC-SVG-20010904/DTD/svg10.dtd">
<svg version="1.0" xmlns="http://www.w3.org/2000/svg"
 width="206.000000pt" height="167.000000pt" viewBox="0 0 206.000000 167.000000"
 preserveAspectRatio="xMidYMid meet">
<metadata>
Created by potrace 1.16, written by Peter Selinger 2001-2019
</metadata>
<g transform="translate(0.000000,167.000000) scale(0.100000,-0.100000)"
fill="#000000" stroke="none">
<path d="M773 1658 c-13 -6 -45 -55 -78 -119 -32 -59 -62 -112 -68 -117 -7 -5
-40 -12 -74 -16 l-63 -7 0 30 c0 59 -44 76 -181 69 -89 -4 -109 -16 -109 -69
0 -25 -4 -27 -51 -31 -56 -6 -93 -28 -126 -78 l-23 -33 0 -586 c0 -653 -2
-631 69 -678 l34 -23 927 0 927 0 34 23 c72 48 70 23 67 689 -3 589 -3 597
-24 625 -44 58 -57 61 -324 68 -287 7 -261 -3 -335 138 -73 140 -39 127 -329
126 -155 0 -259 -4 -273 -11z m509 -45 c8 -10 39 -63 69 -117 77 -142 62 -136
356 -136 241 0 242 0 270 -24 l28 -24 5 -584 c3 -320 1 -598 -3 -616 -5 -21
-20 -40 -40 -52 -31 -19 -58 -20 -940 -20 l-907 0 -38 34 -37 34 -3 577 c-2
519 -1 579 14 611 29 61 45 64 317 64 291 0 273 -7 347 140 27 54 56 105 65
114 14 14 48 16 249 16 209 0 234 -2 248 -17z m-834 -185 l3 -28 -105 0 -106
0 0 30 0 31 103 -3 102 -3 3 -27z"/>
<path d="M885 1172 c-232 -80 -369 -310 -321 -538 32 -154 138 -293 273 -356
58 -28 82 -33 164 -36 158 -7 252 31 361 146 97 102 138 199 138 327 0 212
-132 394 -331 456 -79 25 -214 25 -284 1z m264 -41 c125 -39 218 -120 274
-239 29 -62 32 -75 32 -172 0 -97 -3 -110 -32 -173 -44 -92 -136 -187 -222
-230 -62 -30 -72 -32 -176 -32 -101 0 -115 2 -168 28 -132 65 -237 206 -257
346 -28 200 96 408 283 472 70 25 188 24 266 0z"/>
<path d="M945 977 c-124 -51 -184 -133 -185 -253 -1 -231 228 -358 423 -234
64 40 107 129 107 219 0 89 -15 135 -57 182 -57 63 -113 91 -191 95 -39 2 -80
-2 -97 -9z m204 -60 c89 -59 127 -167 97 -271 -31 -105 -111 -165 -219 -166
-131 0 -227 101 -227 240 0 95 49 171 135 212 60 28 159 21 214 -15z"/>
</g>
</svg>
