<?xml version="1.0" standalone="no"?>
<!DOCTYPE svg PUBLIC "-//W3C//DTD SVG 20010904//EN"
 "http://www.w3.org/TR/2001/REC-SVG-20010904/DTD/svg10.dtd">
<svg version="1.0" xmlns="http://www.w3.org/2000/svg"
 width="161.000000pt" height="161.000000pt" viewBox="0 0 161.000000 161.000000"
 preserveAspectRatio="xMidYMid meet">
<metadata>
Created by potrace 1.16, written by Peter Selinger 2001-2019
</metadata>
<g transform="translate(0.000000,161.000000) scale(0.100000,-0.100000)"
fill="#000000" stroke="none">
<path d="M625 1594 c-147 -33 -260 -93 -373 -199 -107 -101 -174 -205 -222
-345 -34 -100 -40 -314 -11 -435 64 -269 265 -487 529 -578 71 -24 109 -30
208 -34 142 -6 225 6 337 49 204 78 386 261 463 464 169 445 -84 945 -541
1070 -87 23 -301 28 -390 8z m365 -59 c144 -35 311 -143 402 -262 61 -78 115
-189 139 -281 24 -93 26 -268 4 -360 -79 -334 -390 -582 -731 -582 -115 0
-216 25 -334 82 -91 44 -115 62 -196 142 -80 80 -98 105 -142 196 -223 461 42
990 540 1080 70 12 237 4 318 -15z"/>
<path d="M782 1488 c-18 -18 -15 -113 4 -129 14 -11 18 -10 30 6 26 35 14 135
-16 135 -3 0 -11 -5 -18 -12z"/>
<path d="M450 1388 c1 -39 33 -93 58 -96 29 -4 29 24 2 78 -23 46 -60 56 -60
18z"/>
<path d="M1111 1397 c-6 -8 -18 -31 -26 -52 -18 -41 -9 -63 20 -51 19 7 59 92
50 106 -9 14 -31 12 -44 -3z"/>
<path d="M781 1186 c-8 -10 -11 -58 -10 -148 l1 -134 -31 -31 c-41 -41 -43
-92 -5 -130 22 -22 32 -25 74 -21 l48 5 99 -99 c93 -94 133 -118 133 -81 0 9
-45 63 -100 118 -91 92 -100 106 -100 139 0 28 -7 45 -30 68 l-30 30 0 137 c0
93 -4 141 -12 149 -16 16 -23 15 -37 -2z m45 -357 c14 -15 16 -24 8 -37 -28
-43 -87 -13 -66 33 14 30 33 32 58 4z"/>
<path d="M207 1163 c-16 -15 -4 -34 36 -58 24 -14 51 -25 60 -25 31 0 18 37
-23 64 -40 26 -61 32 -73 19z"/>
<path d="M1317 1144 c-39 -25 -47 -56 -17 -62 21 -4 112 56 107 71 -7 21 -51
17 -90 -9z"/>
<path d="M1371 831 c-8 -5 -11 -16 -8 -25 6 -14 19 -16 69 -14 55 3 63 5 63
23 0 17 -8 20 -55 23 -30 1 -61 -2 -69 -7z"/>
<path d="M107 816 c-10 -24 18 -37 75 -34 45 3 53 6 53 23 0 18 -8 20 -61 23
-47 2 -63 -1 -67 -12z"/>
<path d="M1287 533 c-16 -15 -4 -33 44 -63 45 -30 52 -31 66 -17 19 19 12 31
-38 62 -39 25 -60 30 -72 18z"/>
<path d="M242 504 c-44 -26 -53 -56 -20 -62 24 -5 98 47 98 69 0 26 -27 24
-78 -7z"/>
<path d="M476 298 c-30 -47 -40 -78 -28 -90 6 -6 18 -8 26 -5 17 7 56 78 56
102 0 23 -38 18 -54 -7z"/>
<path d="M1080 305 c0 -24 25 -78 42 -93 12 -10 17 -10 26 0 7 9 3 26 -12 58
-21 45 -56 67 -56 35z"/>
<path d="M782 248 c-14 -14 -16 -107 -2 -128 7 -12 13 -12 27 -4 33 20 27 144
-6 144 -4 0 -12 -5 -19 -12z"/>
</g>
</svg>
