<?xml version="1.0" standalone="no"?>
<!DOCTYPE svg PUBLIC "-//W3C//DTD SVG 20010904//EN"
 "http://www.w3.org/TR/2001/REC-SVG-20010904/DTD/svg10.dtd">
<svg version="1.0" xmlns="http://www.w3.org/2000/svg"
 width="216.000000pt" height="217.000000pt" viewBox="0 0 216.000000 217.000000"
 preserveAspectRatio="xMidYMid meet">
<metadata>
Created by potrace 1.16, written by Peter Selinger 2001-2019
</metadata>
<g transform="translate(0.000000,217.000000) scale(0.100000,-0.100000)"
fill="#000000" stroke="none">
<path d="M955 2159 c-436 -46 -806 -368 -916 -798 -130 -507 116 -1039 584
-1261 144 -69 241 -92 410 -98 165 -5 256 6 376 44 272 88 504 287 630 540 82
165 114 304 114 494 -1 302 -95 537 -301 752 -181 188 -403 297 -667 328 -100
11 -116 11 -230 -1z m316 -65 c325 -61 620 -298 749 -602 62 -146 75 -219 74
-417 0 -152 -4 -192 -22 -257 -101 -367 -375 -641 -738 -738 -102 -27 -283
-37 -395 -21 -289 43 -542 202 -706 446 -245 363 -230 863 35 1209 153 201
390 344 636 385 87 15 278 12 367 -5z"/>
<path d="M1062 1878 c-9 -9 -12 -99 -12 -342 l-1 -331 -32 -20 c-18 -11 -40
-37 -51 -58 -16 -34 -17 -44 -7 -79 23 -76 95 -113 164 -84 l34 14 134 -134
c74 -74 139 -134 145 -134 6 0 17 7 25 16 11 13 -7 34 -127 155 l-139 139 3
53 c3 46 0 58 -23 85 -14 17 -35 34 -45 37 -19 6 -20 18 -20 339 0 322 -3 356
-30 356 -3 0 -11 -5 -18 -12z m68 -748 c44 -44 11 -120 -52 -120 -17 0 -40 7
-50 17 -23 20 -24 80 -1 105 22 24 77 24 103 -2z"/>
</g>
</svg>
