<?xml version="1.0" standalone="no"?>
<!DOCTYPE svg PUBLIC "-//W3C//DTD SVG 20010904//EN"
 "http://www.w3.org/TR/2001/REC-SVG-20010904/DTD/svg10.dtd">
<svg version="1.0" xmlns="http://www.w3.org/2000/svg"
 width="171.000000pt" height="147.000000pt" viewBox="0 0 171.000000 147.000000"
 preserveAspectRatio="xMidYMid meet">
<metadata>
Created by potrace 1.16, written by Peter Selinger 2001-2019
</metadata>
<g transform="translate(0.000000,147.000000) scale(0.100000,-0.100000)"
fill="#000000" stroke="none">
<path d="M1483 1450 c-18 -10 -74 -70 -125 -132 -241 -293 -738 -888 -741
-888 -2 0 -84 88 -182 195 -98 108 -190 202 -206 210 -38 20 -85 18 -135 -4
-76 -34 -112 -119 -81 -192 13 -32 444 -526 525 -602 38 -36 96 -46 140 -23
18 9 143 152 308 353 153 186 366 444 472 573 234 282 252 309 252 367 0 54
-18 90 -65 132 -29 25 -44 31 -83 31 -29 0 -59 -8 -79 -20z m132 -64 c30 -30
40 -68 29 -106 -10 -32 -953 -1183 -989 -1206 -14 -9 -33 -12 -49 -8 -32 8
-532 571 -542 610 -4 14 -2 36 5 50 13 30 67 64 101 64 28 0 105 -76 300 -295
70 -79 133 -141 145 -143 16 -2 109 105 444 508 232 280 434 519 448 530 35
27 78 26 108 -4z"/>
</g>
</svg>
