<?xml version="1.0" standalone="no"?>
<!DOCTYPE svg PUBLIC "-//W3C//DTD SVG 20010904//EN"
 "http://www.w3.org/TR/2001/REC-SVG-20010904/DTD/svg10.dtd">
<svg version="1.0" xmlns="http://www.w3.org/2000/svg"
 width="225.000000pt" height="242.000000pt" viewBox="0 0 225.000000 242.000000"
 preserveAspectRatio="xMidYMid meet">
<metadata>
Created by potrace 1.16, written by Peter Selinger 2001-2019
</metadata>
<g transform="translate(0.000000,242.000000) scale(0.100000,-0.100000)"
fill="#000000" stroke="none">
<path d="M966 2404 c-179 -43 -348 -180 -431 -349 -49 -99 -68 -182 -68 -300
1 -122 19 -202 75 -315 54 -111 159 -218 269 -275 l76 -39 -86 -22 c-385 -99
-676 -376 -766 -729 -31 -121 -45 -341 -23 -363 9 -9 270 -12 1114 -12 975 0
1103 2 1114 15 19 23 6 249 -20 354 -68 276 -261 511 -530 646 -91 45 -218 91
-281 101 -22 4 -39 9 -39 13 0 3 30 22 68 41 101 52 217 172 271 280 55 114
74 206 68 340 -8 181 -65 307 -197 440 -85 86 -191 147 -301 174 -80 20 -232
20 -313 0z m304 -79 c130 -35 269 -134 339 -244 115 -178 128 -396 36 -588
-71 -147 -234 -278 -390 -313 -71 -16 -220 -14 -289 5 -147 39 -293 159 -360
295 -92 190 -86 406 19 586 64 110 216 223 346 258 71 19 229 20 299 1z m18
-1265 c356 -45 664 -257 803 -553 39 -85 75 -232 82 -339 l6 -88 -1051 0
-1051 0 6 98 c17 247 106 435 289 608 107 100 226 171 368 218 182 61 363 79
548 56z"/>
</g>
</svg>
