<?xml version="1.0" standalone="no"?>
<!DOCTYPE svg PUBLIC "-//W3C//DTD SVG 20010904//EN"
 "http://www.w3.org/TR/2001/REC-SVG-20010904/DTD/svg10.dtd">
<svg version="1.0" xmlns="http://www.w3.org/2000/svg"
 width="197.000000pt" height="199.000000pt" viewBox="0 0 197.000000 199.000000"
 preserveAspectRatio="xMidYMid meet">
<metadata>
Created by potrace 1.16, written by Peter Selinger 2001-2019
</metadata>
<g transform="translate(0.000000,199.000000) scale(0.100000,-0.100000)"
fill="#000000" stroke="none">
<path d="M383 1969 c-50 -24 -109 -87 -131 -138 -20 -46 -20 -155 0 -202 77
-177 316 -214 441 -68 117 136 67 346 -98 415 -52 22 -161 18 -212 -7z m191
-33 c166 -69 185 -301 32 -391 -27 -15 -67 -29 -98 -32 -107 -10 -213 80 -225
192 -19 162 145 292 291 231z"/>
<path d="M1495 1583 c-101 -53 -142 -168 -96 -268 60 -132 239 -161 335 -54
45 49 56 76 56 140 0 82 -46 152 -122 184 -48 19 -134 19 -173 -2z m165 -45
c87 -44 114 -156 57 -232 -78 -102 -237 -81 -282 38 -30 79 3 162 78 196 55
26 93 25 147 -2z"/>
<path d="M244 1379 c-65 -15 -144 -69 -181 -122 -56 -83 -63 -124 -63 -378 0
-242 4 -265 48 -312 31 -33 112 -77 141 -77 20 0 21 -7 23 -242 3 -208 5 -243
18 -243 13 0 15 63 18 499 2 498 0 529 -30 510 -4 -3 -8 -113 -8 -245 l0 -240
-23 7 c-50 15 -97 45 -119 76 -22 32 -23 38 -23 263 0 272 8 309 84 385 69 69
113 81 317 87 275 9 367 -18 441 -129 45 -68 53 -123 53 -354 0 -187 -2 -208
-21 -245 -15 -31 -32 -46 -72 -65 l-52 -24 -3 237 c-2 241 -10 287 -38 249 -9
-13 -10 -137 -7 -504 3 -268 9 -491 13 -496 25 -26 30 14 30 238 l0 233 45 13
c58 16 122 71 136 118 7 24 9 124 7 282 -3 241 -3 246 -30 302 -31 66 -90 127
-156 159 -45 23 -58 24 -277 26 -126 1 -248 -3 -271 -8z"/>
<path d="M1400 1141 c-74 -24 -129 -73 -172 -154 -21 -39 -23 -57 -26 -250 -3
-179 -1 -212 13 -233 23 -35 74 -64 113 -64 l32 0 0 -215 c0 -189 2 -216 16
-222 9 -3 20 0 25 8 5 8 9 195 9 417 0 360 -2 403 -16 409 -9 3 -20 0 -25 -8
-5 -8 -9 -87 -9 -176 l0 -163 -35 0 c-25 0 -44 8 -61 25 l-26 26 4 188 c3 186
3 188 33 246 59 115 135 142 370 133 105 -4 117 -7 162 -34 59 -36 99 -100
114 -178 6 -32 9 -126 7 -208 l-3 -150 -28 -24 c-16 -14 -41 -24 -58 -24 l-29
0 0 169 c0 128 -3 171 -13 180 -34 28 -37 -4 -37 -408 0 -220 4 -402 9 -410 8
-12 12 -12 25 -2 14 12 16 44 16 220 l0 206 34 2 c50 2 91 28 110 68 15 31 17
63 14 228 -3 213 -11 244 -78 321 -64 72 -92 81 -290 83 -96 1 -186 -2 -200
-6z"/>
<path d="M477 593 c-4 -3 -7 -136 -7 -295 0 -278 1 -288 19 -288 11 0 22 8 25
18 9 32 4 537 -5 554 -10 19 -21 23 -32 11z"/>
</g>
</svg>
