<?xml version="1.0" standalone="no"?>
<!DOCTYPE svg PUBLIC "-//W3C//DTD SVG 20010904//EN"
 "http://www.w3.org/TR/2001/REC-SVG-20010904/DTD/svg10.dtd">
<svg version="1.0" xmlns="http://www.w3.org/2000/svg"
 width="241.000000pt" height="147.000000pt" viewBox="0 0 241.000000 147.000000"
 preserveAspectRatio="xMidYMid meet">
<metadata>
Created by potrace 1.16, written by Peter Selinger 2001-2019
</metadata>
<g transform="translate(0.000000,147.000000) scale(0.100000,-0.100000)"
fill="#000000" stroke="none">
<path d="M47 1459 c-47 -28 -47 -25 -47 -723 0 -487 3 -662 12 -681 26 -58
-31 -55 1202 -55 l1135 0 28 24 28 24 0 687 0 687 -28 24 -28 24 -1142 0
c-757 -1 -1148 -4 -1160 -11z m2291 -45 l22 -15 0 -663 c0 -501 -3 -665 -12
-674 -17 -17 -2269 -17 -2286 0 -9 9 -12 173 -12 674 l0 663 22 15 c20 14 144
16 1133 16 989 0 1113 -2 1133 -16z"/>
<path d="M345 1271 c-24 -73 -79 -130 -140 -146 l-50 -12 0 -373 0 -372 49
-19 c66 -25 100 -59 133 -135 l27 -64 841 0 841 0 23 54 c30 74 76 123 134
145 l48 18 0 374 -1 374 -27 6 c-74 15 -121 62 -158 157 l-17 42 -843 0 -843
0 -17 -49z m1683 -35 c23 -62 68 -113 126 -141 l56 -27 0 -332 0 -332 -36 -13
c-50 -18 -116 -86 -140 -144 l-19 -47 -810 0 -810 0 -18 44 c-25 62 -80 121
-129 142 l-43 17 3 337 3 338 29 5 c44 9 105 70 131 132 l24 55 810 0 811 0
12 -34z"/>
<path d="M1093 1165 c-124 -34 -222 -115 -280 -233 -38 -75 -38 -77 -38 -196
0 -116 1 -124 33 -188 54 -112 142 -187 264 -229 52 -18 79 -20 156 -16 81 4
102 9 167 41 228 113 313 364 200 592 -91 185 -304 282 -502 229z m245 -56
c75 -25 145 -80 191 -150 47 -70 60 -110 68 -200 13 -155 -78 -309 -221 -375
-80 -37 -156 -48 -234 -34 -239 41 -383 273 -312 502 27 87 72 153 143 204
107 80 235 98 365 53z"/>
<path d="M1187 1044 c-4 -4 -7 -20 -7 -36 0 -19 -5 -28 -15 -28 -58 0 -115
-69 -115 -138 0 -36 6 -50 33 -77 19 -19 52 -38 77 -45 96 -26 131 -42 143
-67 16 -37 -2 -75 -46 -97 -52 -25 -101 -15 -144 31 -32 33 -62 41 -70 16 -7
-20 57 -82 97 -94 31 -9 40 -17 42 -38 4 -37 42 -36 46 0 2 20 10 28 31 32 74
15 125 104 98 170 -18 43 -50 62 -134 83 -84 22 -129 60 -118 102 9 38 43 71
81 78 42 8 68 -1 108 -37 29 -25 35 -27 52 -14 18 13 18 15 -15 49 -20 21 -49
38 -67 42 -28 5 -33 11 -36 37 -3 30 -25 47 -41 31z"/>
</g>
</svg>
