<?xml version="1.0" standalone="no"?>
<!DOCTYPE svg PUBLIC "-//W3C//DTD SVG 20010904//EN"
 "http://www.w3.org/TR/2001/REC-SVG-20010904/DTD/svg10.dtd">
<svg version="1.0" xmlns="http://www.w3.org/2000/svg"
 width="205.000000pt" height="214.000000pt" viewBox="0 0 205.000000 214.000000"
 preserveAspectRatio="xMidYMid meet">
<metadata>
Created by potrace 1.16, written by Peter Selinger 2001-2019
</metadata>
<g transform="translate(0.000000,214.000000) scale(0.100000,-0.100000)"
fill="#000000" stroke="none">
<path d="M1160 2078 c-162 -33 -305 -64 -317 -69 l-23 -9 0 -305 c0 -168 -1
-305 -3 -305 -1 0 -20 9 -42 20 -68 35 -160 22 -221 -32 -47 -42 -64 -77 -64
-138 0 -62 19 -94 73 -122 58 -29 160 -22 217 16 78 52 80 59 80 337 l0 245
293 62 c160 34 295 62 300 62 4 0 7 -76 7 -169 l0 -169 -37 20 c-53 27 -132
19 -187 -19 -89 -62 -113 -190 -49 -255 36 -36 95 -49 158 -36 50 11 126 71
144 115 8 20 11 141 9 418 -3 382 -3 390 -23 392 -11 1 -153 -25 -315 -59z
m298 -85 l-3 -107 -270 -58 c-148 -32 -283 -61 -298 -65 l-28 -6 3 109 3 108
275 57 c151 32 282 60 290 62 8 3 19 5 23 6 4 0 6 -47 5 -106z m-71 -504 c80
-30 99 -109 42 -174 -42 -48 -78 -65 -134 -65 -38 0 -52 5 -76 29 -57 58 -28
154 61 199 50 25 66 27 107 11z m-606 -130 c16 -11 32 -32 35 -45 9 -36 -2
-93 -23 -116 -48 -53 -153 -74 -213 -43 -38 19 -50 43 -50 96 0 37 6 48 44 85
25 23 57 45 73 47 47 8 104 -2 134 -24z"/>
<path d="M320 891 c-104 -32 -170 -115 -170 -216 0 -169 183 -275 338 -196 81
41 133 143 117 229 -23 128 -165 219 -285 183z m148 -58 c42 -20 87 -80 96
-128 20 -107 -78 -215 -194 -215 -36 1 -101 33 -132 66 -68 73 -64 178 10 247
60 57 141 68 220 30z"/>
<path d="M958 890 c-97 -29 -158 -112 -158 -214 1 -101 73 -193 172 -216 266
-64 391 301 143 416 -51 24 -107 29 -157 14z m115 -41 c47 -13 106 -63 123
-106 41 -96 -12 -206 -115 -241 -51 -18 -82 -15 -139 14 -198 99 -83 393 131
333z"/>
<path d="M1596 886 c-134 -50 -190 -190 -127 -314 66 -128 240 -159 351 -64
154 131 72 371 -134 388 -31 3 -67 -2 -90 -10z m127 -37 c128 -35 177 -193 91
-289 -87 -96 -229 -87 -300 17 -64 95 -18 229 91 268 49 17 69 18 118 4z"/>
<path d="M216 394 c-101 -32 -181 -109 -205 -196 -17 -61 -11 -193 9 -193 12
0 16 19 21 91 7 108 31 161 97 211 67 50 135 66 267 61 96 -4 120 -8 166 -31
30 -14 67 -39 81 -54 27 -28 27 -29 12 -72 -20 -59 -16 -206 6 -206 12 0 16
20 21 96 7 117 34 174 107 220 69 43 112 52 247 47 100 -4 128 -8 165 -27 104
-53 142 -115 150 -246 4 -71 8 -90 20 -90 21 0 26 131 7 196 l-15 49 49 44
c66 59 119 76 240 76 171 0 244 -30 314 -129 27 -39 30 -52 35 -139 4 -77 8
-97 20 -97 12 0 15 18 15 100 0 91 -3 104 -27 146 -33 57 -87 105 -147 133
-40 18 -65 21 -196 21 -144 0 -152 -1 -207 -28 -31 -15 -70 -43 -86 -62 l-30
-33 -46 43 c-69 67 -149 88 -309 83 -105 -3 -130 -7 -177 -29 -30 -14 -69 -40
-86 -57 l-31 -31 -28 29 c-15 15 -55 41 -88 56 -56 25 -74 28 -192 31 -97 2
-143 -1 -179 -13z"/>
</g>
</svg>
