<?xml version="1.0" standalone="no"?>
<!DOCTYPE svg PUBLIC "-//W3C//DTD SVG 20010904//EN"
 "http://www.w3.org/TR/2001/REC-SVG-20010904/DTD/svg10.dtd">
<svg version="1.0" xmlns="http://www.w3.org/2000/svg"
 width="237.000000pt" height="218.000000pt" viewBox="0 0 237.000000 218.000000"
 preserveAspectRatio="xMidYMid meet">
<metadata>
Created by potrace 1.16, written by Peter Selinger 2001-2019
</metadata>
<g transform="translate(0.000000,218.000000) scale(0.100000,-0.100000)"
fill="#000000" stroke="none">
<path d="M117 2162 c-15 -17 -17 -72 -17 -590 l0 -572 -28 0 c-48 0 -72 -36
-72 -108 0 -49 4 -66 20 -82 20 -20 33 -20 1164 -20 l1145 0 20 26 c31 39 30
132 -2 162 -13 12 -33 22 -45 22 l-22 0 0 568 c0 497 -2 570 -16 590 l-15 22
-1058 0 c-1012 0 -1059 -1 -1074 -18z m2096 -21 l27 -11 0 -565 0 -565 -100 0
-100 0 0 53 c0 64 -24 114 -69 144 -32 22 -43 23 -215 23 -163 0 -184 -2 -214
-20 -49 -30 -72 -75 -72 -142 l0 -58 -665 0 -665 0 0 563 c0 405 3 566 11 574
15 15 2023 19 2062 4z m-265 -977 c33 -23 52 -67 52 -119 l0 -45 -245 0 -245
0 0 45 c0 26 7 59 15 75 29 56 44 60 230 60 138 0 175 -3 193 -16z m370 -216
c16 -16 15 -93 -2 -107 -10 -8 -316 -10 -1142 -9 l-1129 3 -3 39 c-2 22 -1 50
2 63 l6 23 1128 0 c864 0 1131 -3 1140 -12z"/>
<path d="M422 647 c-85 -31 -142 -114 -142 -205 0 -68 19 -111 68 -159 l41
-39 -42 -12 c-67 -19 -131 -73 -162 -136 -26 -53 -28 -86 -6 -86 6 0 22 25 37
56 32 69 94 116 181 140 156 42 314 -24 373 -158 12 -27 25 -48 31 -48 36 0 4
93 -55 158 -20 22 -60 50 -91 63 -30 13 -55 26 -55 29 0 3 13 13 29 23 69 41
101 162 67 252 -40 103 -168 160 -274 122z m143 -46 c71 -33 105 -86 105 -164
-1 -132 -159 -217 -270 -143 -121 80 -100 263 37 311 52 19 81 18 128 -4z"/>
<path d="M1099 633 c-76 -39 -112 -93 -117 -177 -5 -77 12 -120 69 -171 43
-39 46 -45 24 -45 -30 0 -112 -49 -146 -87 -58 -65 -86 -153 -49 -153 6 0 19
20 30 44 27 64 82 120 143 146 76 34 202 34 274 1 61 -27 117 -84 145 -147 10
-24 23 -44 29 -44 36 0 0 102 -57 161 -20 20 -59 47 -87 60 -29 13 -54 24 -56
25 -2 2 14 18 35 36 151 133 56 378 -148 378 -19 0 -59 -12 -89 -27z m167 -32
c92 -42 131 -155 83 -241 -70 -125 -246 -124 -310 3 -45 87 -5 197 85 238 52
24 90 24 142 0z"/>
<path d="M1816 645 c-21 -7 -54 -28 -73 -47 -94 -89 -97 -217 -7 -307 25 -24
43 -44 42 -45 -59 -22 -130 -71 -159 -110 -43 -57 -63 -111 -45 -125 16 -13
32 -1 39 31 13 50 69 112 132 143 53 26 70 30 145 30 68 0 96 -5 137 -24 61
-27 116 -84 143 -147 11 -24 24 -44 30 -44 37 0 9 88 -49 153 -35 39 -116 87
-148 87 -13 1 -7 10 21 32 43 36 86 117 86 163 0 60 -22 109 -69 156 -65 66
-141 84 -225 54z m139 -44 c57 -25 102 -81 110 -133 17 -115 -96 -224 -206
-199 -92 21 -144 83 -144 171 0 72 34 128 97 159 52 26 90 26 143 2z"/>
</g>
</svg>
