<?xml version="1.0" standalone="no"?>
<!DOCTYPE svg PUBLIC "-//W3C//DTD SVG 20010904//EN"
 "http://www.w3.org/TR/2001/REC-SVG-20010904/DTD/svg10.dtd">
<svg version="1.0" xmlns="http://www.w3.org/2000/svg"
 width="183.000000pt" height="182.000000pt" viewBox="0 0 183.000000 182.000000"
 preserveAspectRatio="xMidYMid meet">
<metadata>
Created by potrace 1.16, written by Peter Selinger 2001-2019
</metadata>
<g transform="translate(0.000000,182.000000) scale(0.100000,-0.100000)"
fill="#000000" stroke="none">
<path d="M743 1805 c-266 -48 -488 -205 -622 -439 -161 -283 -161 -627 1 -914
52 -92 223 -270 310 -320 157 -92 300 -132 477 -132 261 0 466 84 647 264 102
103 153 175 199 285 112 264 94 570 -47 818 -55 98 -189 239 -287 304 -189
124 -450 175 -678 134z m398 -54 c331 -90 570 -346 633 -680 90 -472 -223
-928 -701 -1021 -82 -16 -308 -8 -388 14 -275 76 -508 297 -601 568 -49 145
-57 350 -19 498 72 278 282 505 555 602 147 52 370 60 521 19z"/>
<path d="M840 1201 c-96 -31 -177 -108 -206 -193 -22 -67 -16 -187 14 -244 23
-45 84 -104 134 -130 50 -26 173 -31 239 -9 70 24 149 101 172 169 68 199 -59
399 -261 411 -37 3 -78 1 -92 -4z m186 -59 c94 -48 150 -149 142 -255 -12
-143 -112 -237 -253 -237 -80 0 -120 16 -179 70 -69 64 -95 171 -64 272 21 69
98 143 178 169 40 13 133 3 176 -19z"/>
<path d="M863 1025 c-90 -39 -97 -184 -11 -231 31 -18 93 -17 127 1 85 44 76
193 -14 231 -42 17 -61 17 -102 -1z m108 -54 c57 -58 23 -151 -56 -151 -117 0
-109 175 8 179 10 1 32 -12 48 -28z"/>
</g>
</svg>
