<?xml version="1.0" standalone="no"?>
<!DOCTYPE svg PUBLIC "-//W3C//DTD SVG 20010904//EN"
 "http://www.w3.org/TR/2001/REC-SVG-20010904/DTD/svg10.dtd">
<svg version="1.0" xmlns="http://www.w3.org/2000/svg"
 width="225.000000pt" height="151.000000pt" viewBox="0 0 225.000000 151.000000"
 preserveAspectRatio="xMidYMid meet">
<metadata>
Created by potrace 1.16, written by Peter Selinger 2001-2019
</metadata>
<g transform="translate(0.000000,151.000000) scale(0.100000,-0.100000)"
fill="#000000" stroke="none">
<path d="M75 1491 c-79 -36 -75 2 -75 -731 0 -722 -2 -699 65 -740 32 -20 47
-20 1070 -20 l1037 0 39 39 39 39 -2 680 c-3 664 -3 680 -23 702 -46 52 -12
50 -1097 50 -963 0 -1015 -1 -1053 -19z m2106 -48 c11 -12 10 -16 -1 -23 -8
-5 -159 -117 -334 -249 l-320 -240 -13 27 c-62 120 -217 155 -334 76 l-50 -33
-43 29 c-100 68 -211 63 -292 -12 -24 -22 -46 -49 -50 -60 -3 -11 -12 -17 -19
-14 -8 2 -160 114 -339 248 -217 163 -322 246 -315 253 6 6 332 12 922 15
1085 6 1171 5 1188 -17z m-1795 -303 l332 -249 1 -62 c1 -92 42 -172 134 -263
76 -77 246 -196 277 -196 30 0 198 118 271 190 86 85 130 169 137 263 l5 69
321 240 c177 133 327 245 334 251 9 7 12 -121 12 -636 l0 -645 -26 -31 -26
-31 -1025 0 c-683 0 -1031 3 -1044 10 -49 27 -49 24 -49 705 0 349 3 635 7
635 3 0 156 -112 339 -250z m611 -112 c31 -7 58 -24 83 -50 44 -45 55 -47 81
-14 35 44 85 68 147 69 68 2 109 -19 156 -76 29 -36 31 -45 31 -115 0 -68 -4
-84 -34 -140 -40 -74 -122 -154 -243 -236 l-88 -59 -84 56 c-213 142 -309 282
-285 413 13 66 45 110 103 139 57 28 69 30 133 13z"/>
</g>
</svg>
