<?xml version="1.0" standalone="no"?>
<!DOCTYPE svg PUBLIC "-//W3C//DTD SVG 20010904//EN"
 "http://www.w3.org/TR/2001/REC-SVG-20010904/DTD/svg10.dtd">
<svg version="1.0" xmlns="http://www.w3.org/2000/svg"
 width="208.000000pt" height="154.000000pt" viewBox="0 0 208.000000 154.000000"
 preserveAspectRatio="xMidYMid meet">
<metadata>
Created by potrace 1.16, written by Peter Selinger 2001-2019
</metadata>
<g transform="translate(0.000000,154.000000) scale(0.100000,-0.100000)"
fill="#000000" stroke="none">
<path d="M375 1525 c-83 -19 -217 -69 -300 -113 l-70 -37 -3 -671 c-2 -566 0
-673 12 -683 10 -9 272 -12 1030 -12 559 0 1021 3 1026 6 6 4 10 263 10 685
l0 680 -93 44 c-189 91 -319 121 -495 114 -139 -6 -238 -30 -365 -91 l-89 -42
-95 47 c-131 64 -238 88 -389 87 -66 -1 -146 -7 -179 -14z m325 -39 c82 -15
205 -59 272 -99 l43 -25 -3 -652 -2 -651 -36 22 c-125 77 -199 94 -409 94
-190 0 -277 -16 -432 -79 l-83 -33 0 643 0 644 70 35 c195 98 398 134 580 101z
m961 -1 c100 -17 196 -49 302 -99 l77 -37 0 -643 0 -644 -68 29 c-38 15 -116
41 -173 56 -96 25 -118 28 -289 27 -174 0 -190 -1 -265 -27 -44 -14 -104 -42
-132 -61 l-53 -35 0 658 0 658 78 36 c194 90 345 114 523 82z m-923 -1361 c42
-8 100 -26 127 -39 l50 -23 -374 -1 c-206 -1 -372 1 -370 3 8 8 165 49 234 61
98 18 242 18 333 -1z m937 1 c50 -8 126 -26 170 -39 l80 -25 -382 0 c-211 -1
-383 1 -383 3 0 3 26 14 58 26 127 49 296 62 457 35z"/>
</g>
</svg>
