<?xml version="1.0" standalone="no"?>
<!DOCTYPE svg PUBLIC "-//W3C//DTD SVG 20010904//EN"
 "http://www.w3.org/TR/2001/REC-SVG-20010904/DTD/svg10.dtd">
<svg version="1.0" xmlns="http://www.w3.org/2000/svg"
 width="151.000000pt" height="108.000000pt" viewBox="0 0 151.000000 108.000000"
 preserveAspectRatio="xMidYMid meet">
<metadata>
Created by potrace 1.16, written by Peter Selinger 2001-2019
</metadata>
<g transform="translate(0.000000,108.000000) scale(0.100000,-0.100000)"
fill="#000000" stroke="none">
<path d="M350 1066 c-127 -36 -216 -100 -167 -119 7 -3 49 13 93 34 54 27 98
41 141 46 113 11 186 -14 433 -149 103 -57 180 -78 280 -78 91 0 163 19 247
66 69 38 76 45 67 68 -9 23 -18 20 -85 -19 -151 -88 -317 -87 -479 2 -280 156
-391 188 -530 149z"/>
<path d="M256 675 c-77 -20 -244 -99 -252 -120 -4 -9 -2 -21 4 -27 7 -7 38 3
104 35 107 53 195 77 288 77 113 0 203 -32 385 -139 38 -22 105 -53 150 -68
71 -25 94 -28 205 -28 118 1 129 2 205 33 100 41 159 81 163 110 5 31 -16 28
-84 -13 -87 -53 -160 -76 -251 -82 -141 -10 -226 16 -418 124 -151 85 -216
106 -340 109 -65 2 -121 -2 -159 -11z"/>
<path d="M235 282 c-123 -42 -192 -94 -155 -117 5 -3 53 16 106 42 97 48 97
48 198 47 122 0 169 -16 330 -112 203 -120 291 -150 414 -138 105 9 282 95
282 137 0 29 -31 23 -89 -15 -77 -52 -142 -71 -241 -70 -107 1 -153 19 -329
124 -224 134 -351 159 -516 102z"/>
</g>
</svg>
