<?xml version="1.0" standalone="no"?>
<!DOCTYPE svg PUBLIC "-//W3C//DTD SVG 20010904//EN"
 "http://www.w3.org/TR/2001/REC-SVG-20010904/DTD/svg10.dtd">
<svg version="1.0" xmlns="http://www.w3.org/2000/svg"
 width="199.000000pt" height="199.000000pt" viewBox="0 0 199.000000 199.000000"
 preserveAspectRatio="xMidYMid meet">
<metadata>
Created by potrace 1.16, written by Peter Selinger 2001-2019
</metadata>
<g transform="translate(0.000000,199.000000) scale(0.100000,-0.100000)"
fill="#000000" stroke="none">
<path d="M828 1975 c-398 -65 -690 -332 -800 -733 -31 -111 -31 -371 0 -484
79 -291 253 -509 510 -641 395 -203 852 -130 1167 187 285 286 362 740 190
1112 -126 273 -369 474 -657 544 -111 27 -297 34 -410 15z m381 -65 c117 -24
287 -106 381 -182 173 -142 294 -356 330 -581 17 -106 8 -299 -20 -396 -46
-164 -117 -288 -229 -404 -182 -189 -412 -287 -676 -288 -261 0 -470 87 -661
276 -141 140 -219 279 -260 467 -20 89 -22 289 -5 373 47 230 154 412 318 545
124 100 256 162 413 195 100 20 298 18 409 -5z"/>
<path d="M974 1727 c-3 -8 -4 -39 -2 -68 3 -46 6 -54 23 -54 18 0 20 7 20 65
0 54 -3 65 -18 68 -9 2 -20 -3 -23 -11z"/>
<path d="M572 1597 c-16 -19 19 -81 47 -85 27 -4 28 20 0 64 -23 37 -31 41
-47 21z"/>
<path d="M1366 1578 c-24 -38 -24 -78 -1 -78 17 0 45 50 45 80 0 27 -26 26
-44 -2z"/>
<path d="M983 1443 c-10 -4 -13 -52 -13 -197 0 -180 -1 -194 -20 -211 -11 -10
-20 -30 -20 -44 0 -19 -17 -43 -61 -86 -34 -33 -106 -109 -161 -168 -94 -102
-112 -134 -81 -144 7 -3 85 70 174 161 144 148 165 166 195 166 57 0 91 58 60
105 -9 14 -21 25 -26 25 -6 0 -10 73 -10 189 0 191 -5 216 -37 204z m30 -458
c1 -5 -6 -11 -15 -13 -11 -2 -18 3 -18 13 0 17 30 18 33 0z"/>
<path d="M214 1005 c-11 -27 7 -35 76 -35 69 0 93 13 67 39 -17 17 -136 14
-143 -4z"/>
<path d="M1634 1005 c-11 -27 10 -36 77 -33 56 3 64 5 64 23 0 18 -8 20 -68
23 -54 2 -68 0 -73 -13z"/>
<path d="M1347 473 c-13 -12 -7 -33 18 -73 17 -26 30 -38 40 -34 22 9 18 34
-10 77 -26 37 -36 43 -48 30z"/>
<path d="M591 436 c-26 -41 -27 -66 -3 -66 18 0 62 60 62 85 0 28 -38 16 -59
-19z"/>
<path d="M982 381 c-9 -5 -12 -28 -10 -72 3 -56 5 -64 23 -64 17 0 20 8 23 61
3 63 -11 91 -36 75z"/>
</g>
</svg>
