<?xml version="1.0" standalone="no"?>
<!DOCTYPE svg PUBLIC "-//W3C//DTD SVG 20010904//EN"
 "http://www.w3.org/TR/2001/REC-SVG-20010904/DTD/svg10.dtd">
<svg version="1.0" xmlns="http://www.w3.org/2000/svg"
 width="202.000000pt" height="213.000000pt" viewBox="0 0 202.000000 213.000000"
 preserveAspectRatio="xMidYMid meet">
<metadata>
Created by potrace 1.16, written by Peter Selinger 2001-2019
</metadata>
<g transform="translate(0.000000,213.000000) scale(0.100000,-0.100000)"
fill="#000000" stroke="none">
<path d="M374 2111 c-180 -49 -308 -160 -354 -308 -87 -283 122 -533 469 -560
l85 -6 80 -78 80 -77 -91 -138 c-51 -77 -95 -151 -98 -166 -12 -46 8 -66 73
-74 l59 -6 12 -134 c15 -161 25 -199 60 -235 38 -38 88 -49 218 -49 l112 0 3
-137 c3 -115 6 -138 18 -138 13 0 15 24 18 149 2 101 -1 153 -9 162 -9 11 -45
14 -153 14 -157 0 -172 5 -199 62 -8 19 -20 95 -28 178 -6 80 -16 150 -21 156
-5 7 -33 15 -63 19 -44 5 -55 10 -55 25 0 21 168 280 181 280 5 0 9 -5 9 -11
0 -6 10 -9 23 -7 21 3 22 8 27 134 l5 131 63 53 c74 60 135 149 153 220 12 48
15 51 65 69 288 108 592 28 759 -199 136 -185 130 -461 -16 -768 -28 -59 -55
-120 -60 -136 -9 -31 -14 -524 -5 -533 3 -3 12 0 20 6 12 10 15 60 18 269 l4
257 56 115 c70 142 95 217 114 345 35 229 -24 415 -176 559 -172 162 -439 218
-675 142 -44 -14 -83 -26 -87 -26 -5 0 -8 17 -8 38 0 127 -92 270 -221 345
-120 69 -328 95 -465 58z m283 -37 c150 -31 267 -115 325 -232 31 -62 33 -74
33 -167 0 -95 -2 -103 -34 -163 -32 -59 -73 -103 -154 -165 l-37 -28 0 -116 0
-117 -99 97 -98 97 -52 0 c-29 0 -87 7 -129 16 -159 32 -276 114 -334 232 -30
60 -33 76 -33 152 0 79 3 92 38 163 29 59 51 87 95 123 131 107 300 145 479
108z"/>
<path d="M272 1708 c-32 -32 0 -78 42 -62 30 11 14 74 -19 74 -6 0 -16 -5 -23
-12z"/>
<path d="M519 1713 c-22 -5 -30 -38 -15 -59 25 -34 83 7 60 43 -12 19 -22 22
-45 16z"/>
<path d="M746 1704 c-19 -19 -20 -25 -3 -48 19 -26 61 -18 65 12 7 44 -32 67
-62 36z"/>
</g>
</svg>
