<?xml version="1.0" standalone="no"?>
<!DOCTYPE svg PUBLIC "-//W3C//DTD SVG 20010904//EN"
 "http://www.w3.org/TR/2001/REC-SVG-20010904/DTD/svg10.dtd">
<svg version="1.0" xmlns="http://www.w3.org/2000/svg"
 width="115.000000pt" height="220.000000pt" viewBox="0 0 115.000000 220.000000"
 preserveAspectRatio="xMidYMid meet">
<metadata>
Created by potrace 1.16, written by Peter Selinger 2001-2019
</metadata>
<g transform="translate(0.000000,220.000000) scale(0.100000,-0.100000)"
fill="#000000" stroke="none">
<path d="M490 2191 c-127 -41 -210 -168 -197 -297 24 -235 309 -332 478 -163
41 41 79 131 79 188 0 99 -66 208 -154 253 -44 23 -161 34 -206 19z m175 -55
c92 -43 135 -112 135 -213 -1 -134 -100 -233 -234 -233 -146 0 -256 137 -225
281 32 147 190 228 324 165z"/>
<path d="M170 1591 c-68 -21 -123 -66 -154 -128 -14 -28 -16 -78 -16 -358 0
-310 1 -328 20 -355 25 -35 87 -60 150 -60 l50 0 0 -272 c0 -256 1 -274 21
-316 13 -26 38 -54 62 -70 l41 -27 231 0 232 0 37 29 c71 54 76 75 76 384 l0
272 64 0 c76 0 121 25 149 84 16 34 18 66 15 344 -3 292 -4 309 -25 347 -28
52 -68 89 -123 114 -43 20 -63 21 -425 20 -209 0 -391 -4 -405 -8z m794 -42
c55 -15 120 -84 134 -141 15 -60 16 -548 1 -601 -14 -51 -57 -77 -126 -77
l-53 0 0 270 c0 263 0 270 -20 270 -20 0 -20 -7 -20 -557 l0 -558 -23 -39
c-33 -58 -75 -76 -179 -76 l-88 0 0 365 c0 358 0 365 -20 365 -20 0 -20 -7
-20 -366 l0 -366 -99 4 c-95 3 -101 4 -132 33 -60 57 -59 43 -59 645 0 543 0
550 -20 550 -20 0 -20 -7 -20 -271 l0 -271 -61 4 c-54 4 -66 9 -90 36 l-29 32
0 306 c0 264 2 311 17 341 18 40 68 82 115 100 44 15 736 18 792 2z"/>
</g>
</svg>
