<?xml version="1.0" standalone="no"?>
<!DOCTYPE svg PUBLIC "-//W3C//DTD SVG 20010904//EN"
 "http://www.w3.org/TR/2001/REC-SVG-20010904/DTD/svg10.dtd">
<svg version="1.0" xmlns="http://www.w3.org/2000/svg"
 width="161.000000pt" height="220.000000pt" viewBox="0 0 161.000000 220.000000"
 preserveAspectRatio="xMidYMid meet">
<metadata>
Created by potrace 1.16, written by Peter Selinger 2001-2019
</metadata>
<g transform="translate(0.000000,220.000000) scale(0.100000,-0.100000)"
fill="#000000" stroke="none">
<path d="M689 2186 c-54 -19 -103 -52 -141 -94 -34 -38 -35 -38 -99 -34 -155
10 -278 -109 -279 -268 0 -108 58 -201 156 -248 l34 -16 0 -147 c0 -144 0
-147 -23 -153 -64 -16 -102 -107 -86 -208 10 -65 33 -97 85 -123 30 -15 45
-31 59 -63 22 -54 92 -140 139 -172 20 -14 36 -27 36 -30 0 -3 -26 -16 -58
-29 -31 -14 -121 -55 -199 -92 -161 -76 -221 -126 -266 -220 -45 -97 -64 -284
-27 -284 12 0 17 19 22 86 12 145 63 247 154 309 25 18 130 71 233 118 l186
85 62 -17 c81 -21 167 -20 241 3 l60 18 129 -56 c187 -83 279 -131 322 -168
80 -68 131 -183 131 -297 0 -74 11 -96 35 -76 14 12 16 26 10 88 -13 134 -61
240 -142 312 -45 39 -208 124 -375 195 l-66 29 37 26 c51 37 107 105 134 162
18 37 34 54 67 71 66 33 84 64 88 153 3 45 -1 86 -8 104 -16 38 -65 80 -92 80
-19 0 -20 4 -14 53 3 28 6 95 6 148 l0 95 33 16 c50 24 95 65 124 115 37 63
44 171 15 235 -49 111 -146 173 -261 166 l-66 -4 -50 51 c-65 67 -137 95 -238
95 -40 -1 -88 -7 -108 -14z m216 -43 c34 -11 66 -34 109 -78 53 -53 64 -60 86
-54 189 54 354 -145 265 -320 -28 -55 -62 -88 -123 -115 l-42 -19 0 -76 c0
-42 -3 -100 -6 -128 l-7 -53 -393 0 -394 0 0 125 0 125 -40 20 c-99 50 -149
125 -150 219 0 68 27 127 80 175 49 44 105 60 182 51 l58 -7 45 50 c85 95 209
127 330 85z m285 -908 c0 -20 10 -29 47 -47 61 -29 75 -56 70 -135 -4 -76 -27
-112 -83 -131 -33 -11 -42 -20 -62 -66 -37 -84 -110 -159 -200 -203 -71 -36
-82 -38 -167 -38 -82 0 -97 3 -158 33 -87 43 -157 112 -200 198 -29 57 -41 71
-68 79 -50 15 -73 54 -77 134 -4 60 -1 70 21 96 13 16 40 34 58 40 26 9 35 18
37 38 l3 27 390 0 389 0 0 -25z"/>
<path d="M567 303 c-14 -13 -7 -53 11 -62 24 -13 52 4 52 33 0 29 -44 49 -63
29z"/>
<path d="M570 60 c-16 -16 -18 -25 -10 -40 12 -22 40 -26 58 -8 18 18 14 46
-8 58 -15 8 -24 6 -40 -10z"/>
</g>
</svg>
