<?xml version="1.0" standalone="no"?>
<!DOCTYPE svg PUBLIC "-//W3C//DTD SVG 20010904//EN"
 "http://www.w3.org/TR/2001/REC-SVG-20010904/DTD/svg10.dtd">
<svg version="1.0" xmlns="http://www.w3.org/2000/svg"
 width="252.000000pt" height="253.000000pt" viewBox="0 0 252.000000 253.000000"
 preserveAspectRatio="xMidYMid meet">
<metadata>
Created by potrace 1.16, written by Peter Selinger 2001-2019
</metadata>
<g transform="translate(0.000000,253.000000) scale(0.100000,-0.100000)"
fill="#000000" stroke="none">
<path d="M1098 2507 c-160 -55 -279 -185 -323 -354 -19 -72 -19 -212 0 -282
59 -223 255 -381 472 -381 144 0 251 45 353 149 273 276 157 758 -208 871 -90
28 -206 27 -294 -3z m327 -91 c275 -136 337 -512 119 -729 -272 -273 -714 -67
-714 332 0 155 96 319 228 389 80 43 122 52 216 47 65 -3 91 -9 151 -39z"/>
<path d="M135 1529 c-82 -31 -134 -104 -135 -189 0 -33 35 -147 137 -433 152
-429 160 -444 256 -492 100 -49 216 -43 297 16 l40 29 2 -221 c3 -191 5 -223
19 -232 9 -6 24 -7 33 -4 14 6 16 42 16 366 0 231 -4 362 -10 366 -6 3 -19 4
-29 0 -15 -4 -21 -22 -31 -88 -6 -45 -18 -92 -26 -105 -38 -59 -146 -98 -222
-81 -55 12 -119 55 -138 92 -29 54 -274 757 -274 783 0 78 81 143 162 130 55
-9 92 -30 121 -68 14 -18 70 -163 126 -323 55 -159 107 -301 114 -315 16 -31
60 -35 65 -6 2 10 -24 100 -59 199 l-62 181 48 43 c66 58 173 108 272 128 122
25 771 17 853 -9 78 -26 158 -68 217 -115 l51 -40 -50 -143 c-87 -246 -84
-236 -66 -254 37 -38 49 -16 163 308 96 274 114 318 147 354 68 74 172 82 235
19 53 -53 49 -74 -93 -480 -69 -198 -133 -373 -143 -390 -65 -111 -254 -128
-340 -30 -30 34 -35 51 -49 149 -8 55 -30 78 -56 57 -14 -12 -16 -56 -16 -361
0 -369 1 -377 47 -368 17 3 18 21 21 231 1 125 5 227 8 227 3 0 20 -11 37 -23
81 -60 204 -70 292 -25 97 50 123 90 199 308 200 574 208 599 201 643 -20 117
-117 187 -241 174 -124 -13 -189 -80 -245 -254 l-23 -72 -35 28 c-65 51 -135
89 -216 118 l-80 28 -384 3 c-330 3 -395 1 -460 -13 -96 -21 -201 -70 -269
-124 -52 -41 -52 -41 -60 -19 -5 13 -21 59 -37 102 -47 132 -123 195 -240 202
-33 2 -73 -1 -90 -7z"/>
</g>
</svg>
