<?xml version="1.0" standalone="no"?>
<!DOCTYPE svg PUBLIC "-//W3C//DTD SVG 20010904//EN"
 "http://www.w3.org/TR/2001/REC-SVG-20010904/DTD/svg10.dtd">
<svg version="1.0" xmlns="http://www.w3.org/2000/svg"
 width="260.000000pt" height="217.000000pt" viewBox="0 0 260.000000 217.000000"
 preserveAspectRatio="xMidYMid meet">
<metadata>
Created by potrace 1.16, written by Peter Selinger 2001-2019
</metadata>
<g transform="translate(0.000000,217.000000) scale(0.100000,-0.100000)"
fill="#000000" stroke="none">
<path d="M10 2155 c-6 -8 -10 -22 -8 -32 3 -17 20 -18 203 -21 110 -1 203 -6
207 -10 4 -4 91 -356 194 -782 102 -426 194 -793 203 -815 17 -38 74 -98 102
-107 10 -3 6 -14 -13 -37 -80 -94 -54 -247 54 -318 37 -25 51 -28 122 -28 73
0 85 3 124 29 99 68 129 208 62 298 -12 16 -20 31 -18 33 7 7 708 10 708 3 0
-4 -5 -10 -11 -14 -21 -13 -49 -89 -49 -137 0 -125 93 -217 220 -217 72 0 122
22 169 76 42 47 51 73 51 140 0 57 -23 118 -56 144 -15 14 -15 15 6 20 33 8
47 34 31 54 -12 14 -84 16 -680 16 -642 0 -667 1 -698 20 -18 10 -40 31 -49
45 -15 23 -54 161 -54 193 0 9 143 12 683 12 l684 0 62 31 c94 47 123 93 160
254 125 536 180 797 172 818 -21 54 16 52 -795 55 -413 1 -863 3 -1000 5
l-250 2 -22 90 c-12 50 -25 103 -28 118 -4 16 -18 40 -31 53 -24 24 -25 24
-233 24 -171 0 -212 -3 -222 -15z m2509 -361 c3 -3 -141 -657 -179 -813 -22
-85 -40 -114 -99 -156 l-43 -30 -696 0 -696 0 -59 245 c-32 135 -87 364 -121
509 l-64 263 977 -7 c537 -4 978 -9 980 -11z m-1353 -1465 c103 -96 45 -259
-92 -259 -141 0 -200 196 -81 271 46 29 136 23 173 -12z m1025 8 c64 -43 86
-121 50 -187 -29 -56 -76 -83 -137 -78 -82 7 -135 61 -136 141 -2 86 58 147
143 147 31 0 57 -7 80 -23z"/>
</g>
</svg>
