<?xml version="1.0" standalone="no"?>
<!DOCTYPE svg PUBLIC "-//W3C//DTD SVG 20010904//EN"
 "http://www.w3.org/TR/2001/REC-SVG-20010904/DTD/svg10.dtd">
<svg version="1.0" xmlns="http://www.w3.org/2000/svg"
 width="143.000000pt" height="218.000000pt" viewBox="0 0 143.000000 218.000000"
 preserveAspectRatio="xMidYMid meet">
<metadata>
Created by potrace 1.16, written by Peter Selinger 2001-2019
</metadata>
<g transform="translate(0.000000,218.000000) scale(0.100000,-0.100000)"
fill="#000000" stroke="none">
<path d="M663 2096 c-24 -48 -50 -87 -60 -89 -10 -3 -53 -8 -96 -12 -56 -5
-80 -11 -84 -22 -4 -9 19 -40 64 -86 l69 -72 -19 -94 c-25 -124 -21 -128 87
-73 45 23 88 42 94 42 6 0 50 -19 97 -42 110 -55 113 -51 86 78 l-20 99 65 62
c87 82 85 95 -21 106 -44 5 -86 11 -92 13 -7 2 -32 42 -55 89 -26 52 -48 85
-58 85 -10 0 -32 -33 -57 -84z m96 -66 l31 -70 44 0 c24 0 58 -3 76 -6 l32 -7
-53 -53 -52 -53 11 -69 c7 -39 15 -78 18 -87 5 -12 -14 -6 -72 23 l-79 40 -74
-41 c-72 -39 -74 -40 -68 -16 3 13 11 53 18 88 l12 64 -58 52 -59 52 40 6 c21
4 57 7 80 7 40 0 40 0 74 70 19 39 37 70 41 70 3 0 20 -31 38 -70z"/>
<path d="M12 1558 c-19 -19 -17 -1531 2 -1547 9 -8 204 -10 712 -9 l699 3 0
780 0 780 -700 3 c-537 2 -704 -1 -713 -10z m1378 -773 l0 -735 -235 0 -235 0
0 320 0 320 85 0 84 0 3 -117 c3 -114 4 -118 26 -121 l23 -3 -3 143 -3 143
-130 0 -130 0 -3 -115 -3 -115 -147 2 -147 2 -1 88 c-1 48 -2 101 -3 116 l-1
28 -132 -3 -133 -3 0 -140 c0 -138 0 -140 23 -143 22 -3 22 -2 22 117 l0 121
90 0 90 0 0 -320 0 -320 -240 0 -240 0 0 735 0 735 670 0 670 0 0 -735z m-520
-530 l0 -206 -147 3 -148 3 -3 190 c-1 104 0 195 2 202 4 10 42 13 151 13
l145 0 0 -205z"/>
<path d="M304 1277 c-2 -7 -3 -76 -2 -152 l3 -140 124 -3 c76 -2 128 1 135 8
13 13 16 270 3 288 -14 18 -256 17 -263 -1z m224 -139 l-3 -103 -87 -3 -88 -3
0 106 0 105 90 0 91 0 -3 -102z"/>
<path d="M875 1277 c-3 -7 -4 -76 -3 -152 l3 -140 130 0 130 0 0 150 0 150
-128 3 c-99 2 -129 0 -132 -11z m215 -142 l0 -105 -85 0 -85 0 0 105 0 105 85
0 85 0 0 -105z"/>
</g>
</svg>
