<?xml version="1.0" standalone="no"?>
<!DOCTYPE svg PUBLIC "-//W3C//DTD SVG 20010904//EN"
 "http://www.w3.org/TR/2001/REC-SVG-20010904/DTD/svg10.dtd">
<svg version="1.0" xmlns="http://www.w3.org/2000/svg"
 width="150.000000pt" height="196.000000pt" viewBox="0 0 150.000000 196.000000"
 preserveAspectRatio="xMidYMid meet">
<metadata>
Created by potrace 1.16, written by Peter Selinger 2001-2019
</metadata>
<g transform="translate(0.000000,196.000000) scale(0.100000,-0.100000)"
fill="#000000" stroke="none">
<path d="M16 1944 c-14 -14 -16 -115 -16 -964 l0 -949 22 -15 c29 -20 62 -20
82 0 14 14 16 70 16 466 0 425 1 450 18 443 76 -29 157 -39 322 -39 153 0 199
4 365 33 238 41 395 44 520 10 116 -31 136 -34 146 -18 11 18 12 820 0 837
-11 18 -135 49 -243 61 -109 12 -252 1 -453 -35 -259 -46 -530 -37 -647 23
-26 13 -28 18 -28 78 0 53 -3 66 -19 75 -29 15 -67 12 -85 -6z m72 -968 l-3
-931 -22 -3 -23 -3 0 939 c0 743 3 941 13 945 37 13 37 14 35 -947z m1232 784
c36 -6 82 -16 103 -22 l37 -11 0 -123 0 -123 -40 14 c-23 8 -77 20 -120 27
l-80 12 0 122 c0 111 2 122 18 119 9 -2 46 -9 82 -15z m-1075 -31 c44 -10 92
-19 108 -19 l27 0 0 -125 c0 -124 0 -125 -23 -125 -27 0 -169 35 -209 51 l-28
11 0 120 c0 120 0 120 23 113 12 -4 58 -15 102 -26z m685 -94 c0 -69 -1 -125
-2 -125 -2 -1 -60 -11 -130 -24 l-128 -22 0 126 0 127 113 20 c61 12 120 21
130 22 15 1 17 -11 17 -124z m268 -246 l-3 -120 -65 -4 c-36 -2 -93 -7 -127
-11 l-63 -6 0 120 0 121 58 6 c31 4 62 8 67 10 6 2 38 4 73 4 l63 1 -3 -121z
m-540 -73 l-3 -121 -80 -6 c-44 -3 -104 -3 -132 -1 l-53 5 0 117 c0 64 2 119
4 121 3 2 64 5 136 5 l131 1 -3 -121z m730 -108 l72 -21 0 -127 0 -128 -50 19
c-27 10 -81 24 -120 30 l-70 12 0 125 0 125 48 -7 c26 -3 80 -16 120 -28z
m-1188 -7 c38 -11 94 -23 124 -26 l56 -7 0 -124 c0 -93 -3 -124 -12 -124 -32
0 -148 22 -195 37 l-53 17 0 123 c0 68 2 123 5 123 3 0 36 -9 75 -19z m730
-104 l0 -122 -117 -19 c-65 -10 -124 -21 -130 -24 -10 -3 -13 25 -13 120 l0
125 108 20 c169 32 152 44 152 -100z"/>
</g>
</svg>
