<?xml version="1.0" standalone="no"?>
<!DOCTYPE svg PUBLIC "-//W3C//DTD SVG 20010904//EN"
 "http://www.w3.org/TR/2001/REC-SVG-20010904/DTD/svg10.dtd">
<svg version="1.0" xmlns="http://www.w3.org/2000/svg"
 width="166.000000pt" height="177.000000pt" viewBox="0 0 166.000000 177.000000"
 preserveAspectRatio="xMidYMid meet">
<metadata>
Created by potrace 1.16, written by Peter Selinger 2001-2019
</metadata>
<g transform="translate(0.000000,177.000000) scale(0.100000,-0.100000)"
fill="#000000" stroke="none">
<path d="M670 1756 c-320 -74 -553 -303 -643 -631 -30 -108 -32 -364 -3 -468
84 -313 293 -537 586 -629 64 -19 96 -23 215 -23 119 0 151 4 215 23 248 78
450 264 546 502 54 131 67 205 67 365 0 177 -17 257 -87 400 -104 216 -285
374 -511 445 -87 28 -299 37 -385 16z m286 -31 c305 -53 555 -292 640 -610 29
-107 26 -351 -4 -460 -83 -294 -301 -519 -578 -596 -99 -28 -255 -30 -359 -5
-161 39 -334 152 -437 287 -205 268 -241 624 -94 933 131 277 402 456 702 465
23 0 81 -6 130 -14z"/>
<path d="M499 1131 c-48 -48 -37 -116 22 -147 79 -40 165 47 125 125 -31 60
-99 70 -147 22z m105 -27 c33 -33 7 -94 -41 -94 -25 0 -63 32 -63 53 0 47 70
75 104 41z"/>
<path d="M1035 1138 c-15 -14 -28 -38 -31 -59 -5 -31 -1 -42 24 -70 25 -28 37
-34 72 -34 34 0 47 6 66 28 75 87 -44 210 -131 135z m103 -30 c20 -20 15 -76
-7 -88 -59 -31 -112 22 -81 81 12 22 68 27 88 7z"/>
<path d="M465 640 c-18 -28 61 -112 145 -155 154 -78 338 -68 478 25 65 44
122 114 105 131 -7 7 -31 -11 -74 -54 -90 -89 -147 -111 -294 -112 -94 0 -117
3 -160 23 -73 34 -120 69 -151 113 -27 40 -38 46 -49 29z"/>
</g>
</svg>
