<?xml version="1.0" standalone="no"?>
<!DOCTYPE svg PUBLIC "-//W3C//DTD SVG 20010904//EN"
 "http://www.w3.org/TR/2001/REC-SVG-20010904/DTD/svg10.dtd">
<svg version="1.0" xmlns="http://www.w3.org/2000/svg"
 width="161.000000pt" height="213.000000pt" viewBox="0 0 161.000000 213.000000"
 preserveAspectRatio="xMidYMid meet">
<metadata>
Created by potrace 1.16, written by Peter Selinger 2001-2019
</metadata>
<g transform="translate(0.000000,213.000000) scale(0.100000,-0.100000)"
fill="#000000" stroke="none">
<path d="M780 2108 c-48 -33 -72 -70 -77 -122 -3 -25 -7 -46 -10 -46 -2 0 -18
10 -34 23 -24 17 -44 22 -89 22 -71 0 -105 -21 -137 -85 -23 -44 -23 -49 -23
-465 l0 -420 -41 75 c-71 131 -111 183 -159 208 -108 55 -210 -4 -210 -120 0
-44 139 -462 209 -630 37 -87 95 -181 135 -218 78 -71 126 -175 126 -272 0
-35 4 -50 16 -55 27 -10 33 10 24 90 -12 104 -42 166 -127 259 -87 96 -119
159 -221 448 -118 335 -125 357 -119 397 16 98 116 107 195 18 20 -23 72 -110
115 -193 l77 -150 53 -12 c247 -58 406 -180 472 -362 13 -35 29 -63 36 -63 22
0 13 72 -16 130 -75 155 -228 267 -443 326 l-83 22 3 478 c3 467 3 478 24 506
11 15 40 35 63 43 39 14 44 13 78 -5 20 -11 46 -33 57 -48 20 -27 21 -42 24
-378 3 -338 4 -349 23 -349 18 0 19 11 19 419 l0 418 23 34 c39 58 98 74 157
44 64 -33 64 -36 70 -505 4 -369 7 -425 20 -425 13 0 16 48 20 350 5 328 6
352 25 385 12 20 38 43 59 54 36 17 43 18 79 5 22 -8 50 -27 61 -42 20 -27 21
-42 26 -425 5 -389 5 -397 25 -397 19 0 20 8 25 283 l5 284 28 24 c40 35 97
33 138 -4 32 -28 32 -31 40 -148 14 -217 30 -764 24 -827 -13 -136 -36 -211
-106 -358 -67 -139 -70 -150 -76 -237 -6 -89 -5 -92 16 -92 18 0 21 6 21 44 0
83 20 152 80 271 33 66 70 156 81 200 30 116 34 308 15 739 -18 420 -19 424
-96 464 -54 27 -84 28 -135 2 -22 -11 -39 -20 -40 -20 0 0 0 33 0 73 -1 92 -8
119 -46 161 -54 63 -148 72 -215 21 l-31 -24 -6 45 c-13 123 -151 197 -247
132z"/>
</g>
</svg>
