<?xml version="1.0" standalone="no"?>
<!DOCTYPE svg PUBLIC "-//W3C//DTD SVG 20010904//EN"
 "http://www.w3.org/TR/2001/REC-SVG-20010904/DTD/svg10.dtd">
<svg version="1.0" xmlns="http://www.w3.org/2000/svg"
 width="234.000000pt" height="128.000000pt" viewBox="0 0 234.000000 128.000000"
 preserveAspectRatio="xMidYMid meet">
<metadata>
Created by potrace 1.16, written by Peter Selinger 2001-2019
</metadata>
<g transform="translate(0.000000,128.000000) scale(0.100000,-0.100000)"
fill="#000000" stroke="none">
<path d="M685 1259 c-124 -40 -207 -121 -323 -317 -53 -88 -54 -90 -99 -96
-104 -14 -185 -73 -233 -168 -28 -58 -30 -68 -30 -179 0 -124 8 -159 43 -197
37 -40 79 -56 155 -62 l73 -5 18 -53 c24 -69 67 -121 125 -151 92 -48 209 -36
288 29 39 32 88 120 88 157 l0 23 369 0 369 0 7 -37 c9 -50 26 -81 68 -124
142 -145 396 -73 432 124 l7 37 74 0 c89 0 128 15 171 63 73 83 69 281 -7 392
-58 84 -142 133 -255 150 -50 7 -51 8 -160 142 -124 152 -178 204 -250 241
-97 49 -124 52 -510 51 -329 0 -365 -2 -420 -20z m405 -214 l0 -195 -365 0
c-352 0 -365 1 -356 18 26 49 118 191 144 224 41 52 123 106 193 128 47 15 91
19 222 19 l162 1 0 -195z m399 184 c120 -27 196 -88 349 -277 l83 -102 -396 0
-395 0 0 195 0 195 158 0 c86 0 177 -5 201 -11z m598 -444 c75 -22 136 -74
172 -146 28 -56 31 -72 31 -153 0 -152 -38 -199 -169 -204 l-77 -4 -13 51
c-15 60 -75 132 -135 163 -30 16 -60 22 -111 22 -80 1 -128 -20 -182 -76 -33
-34 -72 -110 -73 -140 0 -17 -24 -18 -369 -18 l-368 0 -7 39 c-9 59 -63 129
-126 165 -46 26 -65 30 -125 31 -59 0 -78 -5 -123 -29 -63 -35 -106 -90 -123
-158 l-13 -50 -73 4 c-82 4 -117 23 -146 79 -25 48 -21 236 7 293 26 52 79
104 130 127 39 18 85 19 942 19 770 0 908 -2 951 -15z m-1462 -334 c52 -24 91
-66 110 -120 30 -86 13 -157 -54 -222 -91 -88 -201 -88 -291 0 -61 58 -78 111
-61 191 27 134 172 208 296 151z m1251 0 c81 -37 133 -135 119 -223 -9 -56
-19 -75 -64 -121 -62 -66 -155 -80 -241 -37 -156 79 -150 315 10 384 48 21
127 19 176 -3z"/>
</g>
</svg>
