<?xml version="1.0" standalone="no"?>
<!DOCTYPE svg PUBLIC "-//W3C//DTD SVG 20010904//EN"
 "http://www.w3.org/TR/2001/REC-SVG-20010904/DTD/svg10.dtd">
<svg version="1.0" xmlns="http://www.w3.org/2000/svg"
 width="263.000000pt" height="194.000000pt" viewBox="0 0 263.000000 194.000000"
 preserveAspectRatio="xMidYMid meet">
<metadata>
Created by potrace 1.16, written by Peter Selinger 2001-2019
</metadata>
<g transform="translate(0.000000,194.000000) scale(0.100000,-0.100000)"
fill="#000000" stroke="none">
<path d="M669 1926 c-110 -31 -198 -101 -264 -211 -52 -87 -74 -168 -96 -360
-25 -219 -25 -367 -1 -415 23 -46 83 -76 173 -85 l70 -7 -3 -51 c-3 -57 1 -54
-120 -100 -116 -45 -188 -89 -270 -166 -113 -106 -148 -201 -151 -415 -2 -92
0 -111 13 -111 12 0 17 29 27 146 8 99 19 163 33 202 40 106 170 220 336 295
83 38 91 38 99 12 11 -36 57 -80 109 -107 60 -31 184 -42 253 -24 57 16 133
69 162 114 31 47 35 46 186 -28 116 -56 199 -120 240 -186 39 -61 57 -143 64
-288 5 -118 8 -136 24 -139 15 -3 17 7 17 105 0 194 -31 308 -105 390 l-43 49
104 47 c57 26 108 47 113 47 5 0 19 -13 30 -28 11 -15 43 -41 73 -58 49 -27
60 -29 158 -29 118 0 162 16 231 81 35 34 36 34 75 20 82 -28 201 -96 252
-141 90 -81 118 -160 130 -365 6 -93 10 -115 22 -115 13 0 15 19 13 118 -3
145 -14 212 -48 280 -50 100 -137 170 -298 239 -84 36 -137 70 -137 89 0 3 19
12 43 18 155 40 217 154 188 344 -7 45 -19 150 -26 234 -11 132 -16 160 -42
215 -35 74 -108 158 -168 193 -60 36 -215 68 -285 61 -66 -8 -162 -51 -213
-95 -54 -48 -115 -145 -137 -220 -17 -57 -30 -165 -56 -466 -4 -41 -2 -87 5
-112 22 -79 93 -137 186 -150 44 -6 53 -15 37 -40 -7 -11 -266 -133 -283 -133
-4 0 -34 16 -66 35 -32 19 -105 53 -163 76 -130 52 -140 60 -140 114 l0 42 73
7 c77 8 142 31 169 62 43 49 48 168 14 350 -13 71 -27 158 -30 194 -16 153
-66 272 -149 355 -64 63 -124 92 -224 110 -94 17 -143 17 -204 1z m196 -39
c113 -22 186 -69 248 -159 49 -71 74 -149 92 -282 8 -61 22 -145 31 -186 9
-41 17 -121 18 -177 1 -88 -2 -105 -20 -130 -24 -33 -64 -48 -151 -58 -61 -7
-63 -6 -63 17 0 12 16 45 35 73 57 80 95 239 95 401 0 56 -8 68 -57 79 -48 10
-108 59 -149 120 -20 30 -41 55 -46 55 -6 0 -38 -25 -71 -56 -79 -71 -179
-120 -287 -141 -47 -9 -91 -17 -97 -19 -10 -2 -13 -33 -13 -111 0 -166 29
-273 95 -351 14 -16 25 -39 25 -51 0 -19 -4 -20 -62 -15 -76 7 -129 30 -145
64 -27 53 -8 367 33 560 21 98 63 186 119 248 55 61 97 89 173 113 69 22 106
23 197 6z m1097 -142 c49 -8 104 -22 124 -31 63 -30 138 -108 174 -180 30 -62
34 -79 42 -203 4 -75 13 -163 18 -196 14 -86 12 -200 -4 -238 -23 -54 -76 -91
-158 -111 -27 -6 -28 -5 -28 39 0 36 6 54 30 83 62 78 89 184 90 355 0 100 -7
113 -68 121 -62 8 -124 52 -152 106 -11 22 -25 40 -31 40 -6 0 -31 -18 -56
-40 -25 -22 -71 -52 -101 -66 -52 -25 -175 -53 -233 -54 -15 0 -30 -7 -33 -16
-10 -27 -7 -240 5 -296 13 -60 41 -120 75 -161 16 -19 24 -41 24 -68 0 -47
-12 -49 -94 -18 -59 22 -88 55 -101 117 -8 38 20 370 40 478 16 88 57 173 111
233 60 67 124 100 234 120 3 0 44 -6 92 -14z m-1062 -174 c0 -26 94 -110 151
-135 l61 -28 -7 -97 c-15 -200 -66 -319 -168 -386 -170 -112 -365 -36 -439
173 -14 39 -22 93 -26 172 l-5 115 84 17 c99 21 225 80 289 137 46 41 60 48
60 32z m1112 -131 c22 -38 98 -87 150 -95 l40 -7 -4 -137 c-3 -131 -4 -139
-36 -203 -20 -40 -49 -81 -74 -103 -47 -39 -132 -75 -182 -75 -97 0 -205 69
-251 160 -28 55 -45 146 -45 240 0 87 7 110 34 110 85 1 249 61 311 114 17 14
32 25 35 26 3 0 13 -14 22 -30z m-1037 -609 c0 -57 4 -75 23 -101 29 -39 23
-59 -30 -104 -109 -94 -307 -86 -392 14 -31 38 -32 43 -5 79 14 20 23 50 26
95 3 36 8 66 10 66 2 0 23 -10 46 -22 33 -17 59 -22 122 -22 70 0 87 3 140 31
33 17 60 31 60 32 0 1 0 -30 0 -68z m1115 -43 c0 -36 7 -64 21 -87 l20 -34
-32 -33 c-64 -66 -202 -93 -300 -59 -24 9 -61 32 -81 52 l-37 36 19 25 c15 18
20 40 20 84 0 54 2 59 18 53 120 -53 205 -56 290 -12 26 13 50 25 55 26 4 0 7
-23 7 -51z"/>
<path d="M280 105 c0 -96 2 -106 18 -103 15 3 17 16 17 103 0 87 -2 100 -17
103 -16 3 -18 -7 -18 -103z"/>
<path d="M1267 203 c-4 -3 -7 -51 -7 -105 0 -89 2 -99 18 -96 14 3 17 16 20
83 4 105 -6 143 -31 118z"/>
<path d="M2342 108 c2 -70 7 -103 16 -106 9 -3 12 22 12 102 0 89 -3 106 -15
106 -13 0 -15 -16 -13 -102z"/>
</g>
</svg>
