<?xml version="1.0" standalone="no"?>
<!DOCTYPE svg PUBLIC "-//W3C//DTD SVG 20010904//EN"
 "http://www.w3.org/TR/2001/REC-SVG-20010904/DTD/svg10.dtd">
<svg version="1.0" xmlns="http://www.w3.org/2000/svg"
 width="222.000000pt" height="321.000000pt" viewBox="0 0 222.000000 321.000000"
 preserveAspectRatio="xMidYMid meet">
<metadata>
Created by potrace 1.16, written by Peter Selinger 2001-2019
</metadata>
<g transform="translate(0.000000,321.000000) scale(0.100000,-0.100000)"
fill="#000000" stroke="none">
<path d="M927 3195 c-406 -68 -743 -365 -876 -772 -44 -133 -54 -220 -48 -395
4 -124 10 -171 31 -248 186 -666 921 -1015 1531 -726 621 294 842 1045 477
1626 -242 385 -681 588 -1115 515z m436 -93 c300 -81 569 -318 693 -612 53
-126 76 -230 82 -366 13 -313 -87 -573 -303 -790 -94 -95 -173 -150 -300 -210
-157 -75 -221 -88 -430 -88 -168 0 -186 2 -270 28 -174 53 -310 133 -442 259
-368 352 -426 908 -142 1347 63 97 228 255 327 314 93 55 235 111 332 132 99
20 353 12 453 -14z"/>
<path d="M1082 3018 c-7 -7 -12 -40 -12 -79 0 -59 3 -68 20 -74 36 -11 50 12
50 79 0 59 -11 86 -35 86 -6 0 -16 -5 -23 -12z"/>
<path d="M613 2864 c-7 -20 36 -103 64 -121 16 -11 23 -10 39 2 19 14 18 16
-13 72 -24 45 -37 59 -57 61 -18 2 -28 -2 -33 -14z"/>
<path d="M1515 2827 c-36 -54 -38 -80 -8 -91 21 -8 45 15 74 68 46 88 -10 107
-66 23z"/>
<path d="M281 2542 c-13 -24 -5 -34 58 -71 63 -37 96 -38 96 -2 0 19 -12 32
-55 58 -62 37 -85 41 -99 15z"/>
<path d="M1320 2378 c-156 -175 -164 -183 -196 -180 -19 2 -50 -2 -69 -8 -34
-11 -39 -9 -178 75 -91 54 -150 83 -160 79 -20 -7 -32 -43 -19 -56 5 -5 68
-44 138 -87 l129 -77 5 -46 c6 -53 30 -84 77 -104 60 -26 124 -13 166 34 25
28 33 86 15 114 -15 22 -10 29 148 206 90 100 164 188 164 195 0 18 -21 37
-41 37 -9 0 -90 -82 -179 -182z m-163 -284 c12 -19 12 -24 -2 -38 -33 -33
-115 -12 -115 29 0 39 93 45 117 9z"/>
<path d="M1837 2531 c-64 -37 -70 -45 -62 -70 9 -29 38 -26 102 10 60 34 72
51 53 74 -18 21 -38 18 -93 -14z"/>
<path d="M187 2094 c-4 -4 -7 -18 -7 -30 0 -29 24 -36 101 -32 53 3 54 4 54
33 l0 30 -70 3 c-39 1 -74 0 -78 -4z"/>
<path d="M1880 2085 c-6 -8 -10 -22 -8 -32 3 -15 15 -18 75 -21 64 -3 73 -1
83 18 19 35 -3 50 -75 50 -42 0 -66 -5 -75 -15z"/>
<path d="M333 1669 c-40 -23 -53 -37 -53 -54 0 -39 33 -40 97 -2 46 26 58 39
58 58 0 35 -39 35 -102 -2z"/>
<path d="M1780 1685 c-19 -23 -7 -39 54 -74 64 -36 69 -37 90 -16 22 23 11 41
-50 75 -61 34 -76 36 -94 15z"/>
<path d="M663 1386 c-10 -13 -27 -42 -37 -64 -15 -34 -17 -44 -6 -57 25 -30
47 -17 81 49 28 54 31 66 20 80 -19 22 -36 20 -58 -8z"/>
<path d="M1494 1395 c-18 -13 -18 -16 11 -71 37 -70 57 -86 82 -61 16 16 16
20 -10 71 -31 64 -55 82 -83 61z"/>
<path d="M1082 1278 c-7 -7 -12 -41 -12 -80 0 -54 3 -70 16 -75 33 -12 49 11
52 76 4 79 -21 114 -56 79z"/>
<path d="M607 164 c1 -86 4 -159 7 -162 4 -3 6 67 6 156 0 89 -3 162 -7 162
-5 0 -7 -70 -6 -156z"/>
</g>
</svg>
