<?xml version="1.0" standalone="no"?>
<!DOCTYPE svg PUBLIC "-//W3C//DTD SVG 20010904//EN"
 "http://www.w3.org/TR/2001/REC-SVG-20010904/DTD/svg10.dtd">
<svg version="1.0" xmlns="http://www.w3.org/2000/svg"
 width="95.000000pt" height="237.000000pt" viewBox="0 0 95.000000 237.000000"
 preserveAspectRatio="xMidYMid meet">
<metadata>
Created by potrace 1.16, written by Peter Selinger 2001-2019
</metadata>
<g transform="translate(0.000000,237.000000) scale(0.100000,-0.100000)"
fill="#000000" stroke="none">
<path d="M376 2355 c-49 -17 -110 -76 -136 -132 -75 -159 50 -353 226 -353 97
0 180 51 225 140 65 126 9 280 -124 341 -50 22 -135 24 -191 4z m195 -58 c71
-38 118 -138 100 -217 -22 -97 -104 -165 -201 -164 -128 0 -221 109 -204 237
7 58 54 124 104 149 52 27 146 24 201 -5z"/>
<path d="M390 1804 c-202 -35 -315 -100 -366 -209 -23 -49 -24 -56 -24 -373 0
-349 1 -358 55 -400 14 -11 48 -28 75 -38 l50 -18 0 -377 c0 -311 2 -378 14
-382 7 -3 19 0 25 6 8 8 11 212 11 729 l0 718 -25 0 -25 0 0 -321 0 -320 -22
6 c-46 14 -87 46 -97 77 -7 20 -11 141 -11 331 0 284 1 303 21 344 66 136 323
213 559 168 55 -11 152 -59 194 -96 73 -64 76 -75 76 -416 0 -346 -2 -358 -75
-393 -23 -11 -44 -20 -48 -20 -4 0 -7 144 -7 320 l0 320 -25 0 -25 0 0 -724
c0 -652 2 -724 16 -730 9 -3 20 -4 25 0 5 3 9 167 9 383 l0 377 53 17 c60 19
89 45 112 99 12 31 15 90 15 350 0 293 -2 316 -21 358 -58 128 -210 208 -409
215 -58 2 -116 2 -130 -1z"/>
<path d="M455 818 c-3 -7 -4 -193 -3 -413 3 -392 3 -400 23 -400 20 0 20 7 20
410 0 383 -1 410 -18 413 -9 2 -19 -2 -22 -10z"/>
</g>
</svg>
