<?xml version="1.0" standalone="no"?>
<!DOCTYPE svg PUBLIC "-//W3C//DTD SVG 20010904//EN"
 "http://www.w3.org/TR/2001/REC-SVG-20010904/DTD/svg10.dtd">
<svg version="1.0" xmlns="http://www.w3.org/2000/svg"
 width="222.000000pt" height="223.000000pt" viewBox="0 0 222.000000 223.000000"
 preserveAspectRatio="xMidYMid meet">
<metadata>
Created by potrace 1.16, written by Peter Selinger 2001-2019
</metadata>
<g transform="translate(0.000000,223.000000) scale(0.100000,-0.100000)"
fill="#000000" stroke="none">
<path d="M1094 2217 c-2 -7 -3 -93 -2 -192 3 -162 5 -180 21 -183 16 -3 17 11
17 192 0 169 -2 196 -15 196 -9 0 -18 -6 -21 -13z"/>
<path d="M325 1900 c-3 -5 -2 -18 4 -27 14 -26 230 -228 244 -228 35 0 6 42
-101 148 -116 114 -134 128 -147 107z"/>
<path d="M1752 1784 c-114 -108 -143 -149 -105 -149 22 0 253 225 253 246 0
10 -6 19 -12 19 -7 0 -68 -52 -136 -116z"/>
<path d="M960 1704 c-216 -58 -380 -225 -436 -444 -22 -88 -15 -249 16 -339
46 -132 169 -275 288 -335 180 -91 390 -93 569 -4 126 62 245 200 294 340 31
87 38 257 14 348 -54 211 -226 381 -440 435 -75 19 -232 18 -305 -1z m341 -56
c95 -35 153 -72 218 -138 216 -219 214 -568 -4 -785 -299 -299 -812 -173 -938
230 -31 99 -30 244 1 337 66 193 239 343 442 382 62 12 216 -2 281 -26z"/>
<path d="M4 1129 c-15 -25 20 -29 197 -27 166 3 184 5 187 21 3 16 -11 17
-187 17 -126 0 -192 -4 -197 -11z"/>
<path d="M1852 1123 c3 -16 20 -18 183 -18 163 0 180 2 183 18 3 16 -11 17
-183 17 -172 0 -186 -1 -183 -17z"/>
<path d="M436 477 c-121 -116 -140 -144 -107 -155 16 -5 262 239 259 257 -2 8
-8 16 -13 18 -6 2 -68 -52 -139 -120z"/>
<path d="M1635 589 c-9 -14 228 -264 250 -264 42 0 21 33 -96 151 -119 120
-141 136 -154 113z"/>
<path d="M1094 367 c-2 -7 -3 -91 -2 -187 3 -148 5 -175 18 -175 13 0 15 29
18 188 2 164 0 187 -13 187 -9 0 -18 -6 -21 -13z"/>
</g>
</svg>
