<?xml version="1.0" standalone="no"?>
<!DOCTYPE svg PUBLIC "-//W3C//DTD SVG 20010904//EN"
 "http://www.w3.org/TR/2001/REC-SVG-20010904/DTD/svg10.dtd">
<svg version="1.0" xmlns="http://www.w3.org/2000/svg"
 width="188.000000pt" height="87.000000pt" viewBox="0 0 188.000000 87.000000"
 preserveAspectRatio="xMidYMid meet">
<metadata>
Created by potrace 1.16, written by Peter Selinger 2001-2019
</metadata>
<g transform="translate(0.000000,87.000000) scale(0.100000,-0.100000)"
fill="#000000" stroke="none">
<path d="M1718 858 c-24 -6 -82 -48 -163 -116 -269 -227 -280 -232 -478 -231
-73 0 -154 4 -182 8 l-50 7 35 7 c19 3 100 8 180 9 133 3 150 5 194 28 62 32
89 77 83 140 -4 34 -12 51 -36 72 l-31 28 -333 0 c-432 0 -399 9 -739 -209
-182 -116 -213 -141 -190 -155 5 -3 96 52 203 121 225 146 309 188 399 203 36
5 194 10 351 10 275 0 287 -1 313 -21 35 -28 36 -85 2 -126 -37 -44 -91 -55
-298 -62 -123 -4 -191 -10 -199 -18 -16 -16 -4 -41 25 -53 44 -16 244 -33 341
-28 131 7 184 34 373 192 176 146 205 166 248 166 39 0 84 -34 84 -64 0 -55
-91 -162 -290 -341 -151 -135 -195 -168 -269 -197 -54 -21 -72 -23 -436 -28
-379 -5 -380 -5 -440 -31 -84 -35 -245 -137 -245 -155 0 -24 22 -16 125 47
163 101 159 100 527 99 358 0 422 6 523 55 104 50 394 309 491 439 37 49 44
65 44 105 0 58 -20 87 -68 101 -42 11 -44 11 -94 -2z"/>
</g>
</svg>
