<?xml version="1.0" standalone="no"?>
<!DOCTYPE svg PUBLIC "-//W3C//DTD SVG 20010904//EN"
 "http://www.w3.org/TR/2001/REC-SVG-20010904/DTD/svg10.dtd">
<svg version="1.0" xmlns="http://www.w3.org/2000/svg"
 width="189.000000pt" height="98.000000pt" viewBox="0 0 189.000000 98.000000"
 preserveAspectRatio="xMidYMid meet">
<metadata>
Created by potrace 1.16, written by Peter Selinger 2001-2019
</metadata>
<g transform="translate(0.000000,98.000000) scale(0.100000,-0.100000)"
fill="#000000" stroke="none">
<path d="M1384 969 c-4 -7 84 -102 212 -230 l219 -219 -905 -2 c-897 -3 -905
-3 -905 -23 0 -20 8 -20 903 -25 l902 -5 -215 -215 c-118 -118 -215 -220 -215
-227 0 -40 43 -5 266 218 134 134 244 248 244 254 0 14 -473 485 -487 485 -6
0 -15 -5 -19 -11z"/>
</g>
</svg>
