<?xml version="1.0" standalone="no"?>
<!DOCTYPE svg PUBLIC "-//W3C//DTD SVG 20010904//EN"
 "http://www.w3.org/TR/2001/REC-SVG-20010904/DTD/svg10.dtd">
<svg version="1.0" xmlns="http://www.w3.org/2000/svg"
 width="146.000000pt" height="164.000000pt" viewBox="0 0 146.000000 164.000000"
 preserveAspectRatio="xMidYMid meet">
<metadata>
Created by potrace 1.16, written by Peter Selinger 2001-2019
</metadata>
<g transform="translate(0.000000,164.000000) scale(0.100000,-0.100000)"
fill="#000000" stroke="none">
<path d="M1030 1624 c-157 -42 -260 -140 -300 -285 l-15 -58 -34 65 c-43 82
-160 209 -180 195 -12 -7 0 -25 55 -84 42 -45 82 -101 103 -142 32 -67 60
-169 49 -180 -3 -3 -47 11 -99 31 -114 44 -181 51 -273 30 -92 -22 -158 -59
-215 -122 -92 -100 -126 -216 -118 -389 18 -346 225 -634 487 -676 55 -9 78
-7 156 11 90 21 92 21 160 4 166 -44 302 -4 433 127 142 143 221 347 221 575
0 140 -19 219 -71 297 -64 98 -188 170 -306 179 -18 1 -33 5 -33 8 1 3 18 17
40 32 81 56 141 169 162 306 10 62 10 75 -3 83 -22 14 -157 9 -219 -7z m187
-73 c-13 -125 -81 -241 -174 -298 -65 -40 -222 -111 -262 -119 l-33 -7 4 99
c3 80 9 110 30 155 67 145 199 222 392 228 l49 1 -6 -59z m-650 -407 c180 -69
161 -68 316 -8 105 41 182 45 278 14 114 -36 195 -113 241 -229 32 -82 32
-291 0 -406 -40 -140 -96 -240 -187 -331 -128 -129 -239 -167 -381 -130 -78
20 -120 20 -198 0 -140 -37 -269 6 -391 130 -147 149 -227 389 -204 616 10
105 41 179 101 246 109 119 272 157 425 98z"/>
</g>
</svg>
