<?xml version="1.0" standalone="no"?>
<!DOCTYPE svg PUBLIC "-//W3C//DTD SVG 20010904//EN"
 "http://www.w3.org/TR/2001/REC-SVG-20010904/DTD/svg10.dtd">
<svg version="1.0" xmlns="http://www.w3.org/2000/svg"
 width="206.000000pt" height="177.000000pt" viewBox="0 0 206.000000 177.000000"
 preserveAspectRatio="xMidYMid meet">
<metadata>
Created by potrace 1.16, written by Peter Selinger 2001-2019
</metadata>
<g transform="translate(0.000000,177.000000) scale(0.100000,-0.100000)"
fill="#000000" stroke="none">
<path d="M95 1756 c-41 -18 -83 -69 -90 -109 -3 -18 -5 -298 -3 -624 3 -580 3
-592 24 -619 11 -15 33 -37 48 -48 26 -20 41 -21 420 -24 l392 -3 0 -139 0
-140 -172 0 c-127 0 -174 -3 -182 -13 -30 -36 -8 -37 499 -35 486 3 494 3 494
23 0 19 -8 20 -172 23 l-173 2 0 140 0 139 393 3 392 3 33 23 c64 47 62 19 62
695 l0 614 -22 33 c-13 18 -39 41 -58 51 -33 18 -78 19 -945 19 -734 -1 -916
-3 -940 -14z m1872 -53 c53 -35 53 -36 53 -653 0 -471 -2 -577 -14 -605 -29
-69 24 -65 -982 -65 l-906 0 -34 34 -34 34 0 591 c0 506 2 596 15 621 33 64
-30 60 968 60 838 0 910 -1 934 -17z m-827 -1513 l0 -140 -105 0 -105 0 0 140
0 140 105 0 105 0 0 -140z"/>
<path d="M869 1536 c-214 -75 -349 -268 -349 -496 0 -143 48 -258 150 -361
105 -106 215 -152 365 -152 179 0 324 81 426 237 110 167 110 395 0 562 -69
105 -165 179 -280 214 -92 29 -225 27 -312 -4z m230 -55 c33 -31 78 -119 83
-161 3 -23 -1 -25 -57 -33 -84 -11 -245 1 -245 19 0 32 43 124 76 162 30 36
41 42 74 42 28 0 46 -7 69 -29z m-213 -26 c-14 -21 -33 -62 -43 -92 -19 -61
-23 -62 -113 -22 l-45 20 40 35 c39 34 174 108 182 100 2 -2 -7 -20 -21 -41z
m399 -21 c28 -17 59 -41 69 -52 19 -22 19 -22 -25 -41 -88 -38 -83 -40 -113
43 -15 41 -34 80 -42 87 -8 6 -14 15 -14 20 0 11 61 -17 125 -57z m-599 -131
c14 -9 49 -24 77 -33 29 -9 51 -20 50 -24 0 -3 -4 -44 -8 -91 l-7 -85 -114 0
c-130 0 -125 -5 -99 94 13 49 63 156 73 156 1 0 14 -7 28 -17z m748 -25 c28
-49 56 -139 56 -180 l0 -28 -115 0 -115 0 0 58 c0 31 -3 73 -6 93 -6 35 -5 37
27 43 19 3 52 17 74 30 22 13 43 25 47 25 4 1 18 -18 32 -41z m-230 -72 c3
-16 6 -53 6 -82 l0 -54 -181 0 -181 0 7 78 c4 42 8 79 10 82 2 3 77 5 168 5
l165 0 6 -29z m-403 -225 c0 -25 4 -67 8 -93 l8 -48 -36 -11 c-20 -6 -55 -22
-78 -35 -23 -13 -44 -24 -48 -24 -14 0 -75 150 -81 200 l-6 56 116 0 116 0 1
-45z m409 -12 c0 -31 -3 -69 -6 -85 l-6 -29 -167 0 -168 0 -7 79 c-3 43 -3 83
0 88 3 5 84 7 180 6 l174 -3 0 -56z m282 26 c-5 -53 -33 -139 -58 -183 l-25
-42 -42 24 c-23 13 -58 29 -79 35 l-36 12 5 82 c2 45 7 88 9 95 3 11 29 13
117 10 l112 -3 -3 -30z m-325 -191 c19 -5 22 -11 17 -33 -20 -89 -99 -191
-149 -191 -50 0 -131 100 -149 187 -6 28 -4 32 16 36 36 7 240 7 265 1z m-323
-81 c10 -28 31 -70 47 -93 29 -40 30 -42 7 -35 -47 15 -134 64 -172 97 l-39
34 28 18 c35 23 98 45 106 37 4 -3 14 -29 23 -58z m484 35 c23 -11 42 -24 42
-28 0 -17 -86 -82 -146 -111 -75 -35 -95 -37 -67 -6 24 26 67 110 77 150 7 32
17 31 94 -5z"/>
</g>
</svg>
