<?xml version="1.0" standalone="no"?>
<!DOCTYPE svg PUBLIC "-//W3C//DTD SVG 20010904//EN"
 "http://www.w3.org/TR/2001/REC-SVG-20010904/DTD/svg10.dtd">
<svg version="1.0" xmlns="http://www.w3.org/2000/svg"
 width="202.000000pt" height="263.000000pt" viewBox="0 0 202.000000 263.000000"
 preserveAspectRatio="xMidYMid meet">
<metadata>
Created by potrace 1.16, written by Peter Selinger 2001-2019
</metadata>
<g transform="translate(0.000000,263.000000) scale(0.100000,-0.100000)"
fill="#000000" stroke="none">
<path d="M915 2619 c-251 -42 -445 -272 -445 -529 0 -239 167 -455 396 -514
371 -96 722 221 664 600 -25 167 -137 317 -292 393 -113 55 -206 70 -323 50z
m202 -63 c112 -30 217 -104 284 -203 121 -175 95 -437 -59 -596 -178 -184
-494 -185 -677 -2 -158 159 -181 414 -53 605 62 94 176 173 285 199 58 14 162
12 220 -3z"/>
<path d="M604 1460 c-252 -34 -471 -213 -567 -462 l-32 -83 0 -350 0 -350 30
-54 c72 -129 204 -187 337 -147 101 30 136 67 455 491 66 88 134 184 150 213
l30 53 39 -67 c54 -93 398 -548 461 -611 153 -151 390 -109 482 86 l26 56 0
320 c0 357 -3 379 -65 510 -69 144 -186 263 -325 330 -134 65 -159 68 -580 71
-209 1 -408 -2 -441 -6z m851 -65 c209 -44 398 -210 474 -418 l26 -72 0 -341
0 -341 -30 -49 c-44 -70 -108 -107 -195 -112 -56 -3 -74 0 -116 21 -28 14 -66
43 -86 65 -78 86 -428 564 -458 625 -29 60 -32 74 -34 170 -1 90 2 108 18 126
24 27 95 29 138 4 16 -10 140 -143 276 -296 238 -269 271 -300 280 -255 4 22
-472 563 -525 597 -56 37 -137 40 -183 9 l-35 -24 -35 24 c-29 20 -44 23 -92
20 -77 -6 -114 -33 -246 -186 -60 -70 -168 -196 -240 -279 -128 -148 -147
-183 -103 -183 9 0 120 119 255 275 131 151 253 284 271 295 45 28 116 27 141
-1 16 -18 19 -37 19 -128 -1 -128 -13 -160 -127 -316 -111 -153 -363 -477
-389 -502 -94 -86 -250 -82 -336 8 -64 68 -68 85 -71 391 -4 328 5 397 68 524
88 179 275 322 461 353 30 5 223 9 429 10 294 0 390 -3 445 -14z"/>
</g>
</svg>
