<?xml version="1.0" standalone="no"?>
<!DOCTYPE svg PUBLIC "-//W3C//DTD SVG 20010904//EN"
 "http://www.w3.org/TR/2001/REC-SVG-20010904/DTD/svg10.dtd">
<svg version="1.0" xmlns="http://www.w3.org/2000/svg"
 width="156.000000pt" height="234.000000pt" viewBox="0 0 156.000000 234.000000"
 preserveAspectRatio="xMidYMid meet">
<metadata>
Created by potrace 1.16, written by Peter Selinger 2001-2019
</metadata>
<g transform="translate(0.000000,234.000000) scale(0.100000,-0.100000)"
fill="#000000" stroke="none">
<path d="M724 2316 c-27 -13 -67 -43 -87 -67 -94 -109 -87 -261 16 -363 60
-59 104 -76 198 -76 109 1 187 48 237 145 51 99 27 239 -55 317 -74 70 -210
90 -309 44z m226 -36 c140 -72 168 -263 53 -372 -65 -62 -181 -80 -259 -40
-79 41 -134 131 -134 219 1 37 35 111 68 146 70 74 181 93 272 47z"/>
<path d="M610 1740 c-19 -10 -47 -29 -62 -42 -49 -41 -235 -288 -247 -327 -6
-21 -11 -98 -11 -171 0 -126 -1 -133 -25 -162 -22 -26 -25 -39 -25 -109 l0
-79 -86 0 c-148 0 -154 -11 -154 -280 0 -211 8 -252 55 -270 15 -6 94 -10 176
-10 82 0 149 -2 149 -4 0 -2 -11 -24 -25 -47 -61 -108 3 -239 116 -239 65 0
98 33 165 164 56 110 64 119 100 132 58 20 64 34 65 158 0 103 3 119 38 216
l39 105 14 -35 c8 -19 36 -80 61 -135 25 -55 76 -199 112 -320 78 -258 89
-275 177 -283 48 -4 58 -1 86 23 38 32 62 74 62 107 0 13 -32 122 -70 243 -39
121 -70 224 -70 229 0 5 -40 96 -90 202 l-90 192 0 133 c1 131 1 133 18 106
16 -27 264 -231 310 -256 45 -24 115 -4 146 41 9 13 16 43 16 69 0 63 -23 89
-160 184 -60 41 -120 89 -133 105 -14 17 -49 77 -77 134 -57 117 -120 194
-183 225 -38 19 -61 21 -203 21 -137 -1 -164 -4 -194 -20z m378 -34 c52 -27
123 -115 164 -204 60 -131 88 -162 229 -263 70 -49 130 -97 133 -105 3 -9 6
-31 6 -49 0 -38 -37 -75 -75 -75 -30 0 -294 208 -327 257 -14 21 -31 55 -37
76 -9 27 -18 37 -29 35 -15 -3 -17 -26 -20 -197 l-2 -194 89 -191 c71 -151
104 -240 161 -425 48 -155 70 -241 65 -258 -10 -40 -50 -73 -89 -73 -67 0 -81
23 -155 265 -68 222 -205 555 -227 555 -7 0 -25 -39 -40 -87 l-29 -86 -3 55
c-2 45 -8 62 -29 82 -23 23 -33 26 -99 26 l-73 0 4 28 c6 34 51 433 60 528 4
42 3 74 -3 78 -9 6 -150 -142 -169 -179 -6 -11 -12 -85 -12 -164 -1 -79 -6
-152 -11 -161 -5 -10 -22 -23 -39 -29 -24 -10 -34 -10 -59 3 -16 8 -32 23 -36
31 -3 9 -6 94 -6 188 0 203 -6 186 140 371 58 73 111 130 139 148 44 28 47 28
198 28 113 0 161 -4 181 -14z m-383 -498 c-10 -95 -19 -174 -20 -176 -1 -1
-16 5 -34 15 l-31 18 0 108 0 108 47 54 c26 30 49 52 51 50 3 -2 -4 -82 -13
-177z m-57 -200 c7 -7 12 -42 12 -85 l0 -73 -140 0 -140 0 0 78 1 77 20 -38
c49 -94 195 -78 215 23 7 33 14 36 32 18z m196 -214 c14 -13 16 -48 16 -229 0
-202 -1 -215 -19 -225 -13 -6 -140 -10 -345 -10 -324 0 -325 0 -340 22 -23 33
-23 403 0 436 15 22 16 22 344 22 285 0 331 -2 344 -16z m-144 -606 c-28 -57
-62 -113 -76 -126 -37 -33 -79 -29 -120 12 -45 45 -46 90 -4 164 l30 52 110 0
109 0 -49 -102z"/>
</g>
</svg>
