<?xml version="1.0" standalone="no"?>
<!DOCTYPE svg PUBLIC "-//W3C//DTD SVG 20010904//EN"
 "http://www.w3.org/TR/2001/REC-SVG-20010904/DTD/svg10.dtd">
<svg version="1.0" xmlns="http://www.w3.org/2000/svg"
 width="201.000000pt" height="220.000000pt" viewBox="0 0 201.000000 220.000000"
 preserveAspectRatio="xMidYMid meet">
<metadata>
Created by potrace 1.16, written by Peter Selinger 2001-2019
</metadata>
<g transform="translate(0.000000,220.000000) scale(0.100000,-0.100000)"
fill="#000000" stroke="none">
<path d="M454 2177 c-20 -18 -28 -35 -31 -74 l-5 -51 -158 -4 c-173 -3 -186
-7 -234 -72 -21 -27 -21 -36 -24 -937 -2 -875 -2 -912 17 -953 14 -33 29 -48
63 -65 l45 -21 891 2 c881 3 891 3 919 24 15 11 38 40 51 65 l22 44 -2 907 -3
906 -31 38 c-43 53 -77 62 -235 63 l-136 1 -5 52 c-4 40 -11 57 -32 75 -29 25
-74 30 -108 12 -24 -13 -48 -67 -48 -109 l0 -30 -400 0 -400 0 0 30 c0 42 -24
96 -48 109 -34 18 -79 13 -108 -12z m85 -41 c8 -9 11 -56 9 -141 -3 -111 -5
-129 -21 -139 -15 -9 -22 -7 -38 13 -16 20 -19 39 -19 126 0 57 4 115 10 129
10 29 40 35 59 12z m995 -8 c12 -17 16 -49 16 -129 0 -91 -3 -110 -19 -130
-16 -20 -23 -22 -38 -13 -16 10 -18 28 -21 139 -3 127 3 155 34 155 7 0 20
-10 28 -22z m-1112 -204 c3 -69 6 -79 31 -100 30 -26 75 -31 109 -13 28 15 48
70 48 134 l0 55 400 0 400 0 0 -55 c0 -64 20 -119 48 -134 34 -18 79 -13 109
13 25 21 28 31 31 100 l4 76 124 0 c211 0 225 -13 225 -217 l0 -138 -950 -3
-951 -2 0 130 c0 131 11 187 41 206 25 15 84 22 205 23 l122 1 4 -76z m1528
-1073 l-5 -739 -24 -26 -24 -26 -889 0 c-618 0 -895 3 -910 11 -48 26 -48 30
-48 799 l0 720 953 0 952 0 -5 -739z"/>
<path d="M695 1108 c-3 -7 -4 -148 -3 -313 l3 -300 305 0 305 0 0 310 0 310
-303 3 c-238 2 -304 0 -307 -10z m565 -303 l0 -265 -260 0 -260 0 0 265 0 265
260 0 260 0 0 -265z"/>
<path d="M1050 845 l-104 -105 -37 36 c-39 38 -69 41 -69 6 0 -21 79 -102 101
-102 8 0 67 53 132 118 87 87 116 123 111 135 -3 9 -11 17 -18 17 -6 0 -58
-47 -116 -105z"/>
</g>
</svg>
