<?xml version="1.0" standalone="no"?>
<!DOCTYPE svg PUBLIC "-//W3C//DTD SVG 20010904//EN"
 "http://www.w3.org/TR/2001/REC-SVG-20010904/DTD/svg10.dtd">
<svg version="1.0" xmlns="http://www.w3.org/2000/svg"
 width="211.000000pt" height="182.000000pt" viewBox="0 0 211.000000 182.000000"
 preserveAspectRatio="xMidYMid meet">
<metadata>
Created by potrace 1.16, written by Peter Selinger 2001-2019
</metadata>
<g transform="translate(0.000000,182.000000) scale(0.100000,-0.100000)"
fill="#000000" stroke="none">
<path d="M653 1808 c-6 -7 -83 -213 -171 -458 -88 -245 -233 -643 -321 -885
-89 -242 -161 -446 -161 -452 0 -7 9 -13 19 -13 14 0 25 14 39 53 176 471 632
1743 628 1753 -7 17 -20 18 -33 2z"/>
<path d="M1030 1700 c0 -118 1 -121 21 -118 21 3 22 8 21 118 -1 108 -2 115
-21 118 -20 3 -21 -1 -21 -118z"/>
<path d="M1424 1806 c-3 -8 80 -250 184 -538 104 -287 250 -689 323 -892 73
-202 140 -371 147 -374 7 -2 17 -1 23 5 5 5 -81 256 -220 638 -125 347 -272
753 -326 903 -93 259 -115 301 -131 258z"/>
<path d="M1030 1115 c0 -156 1 -165 19 -165 11 0 21 4 23 10 2 5 2 80 0 165
-3 146 -4 155 -22 155 -19 0 -20 -8 -20 -165z"/>
<path d="M1030 286 c0 -279 0 -286 20 -286 11 0 20 3 20 8 1 4 1 131 1 282 1
272 1 275 -20 278 -21 3 -21 2 -21 -282z"/>
</g>
</svg>
