<?xml version="1.0" standalone="no"?>
<!DOCTYPE svg PUBLIC "-//W3C//DTD SVG 20010904//EN"
 "http://www.w3.org/TR/2001/REC-SVG-20010904/DTD/svg10.dtd">
<svg version="1.0" xmlns="http://www.w3.org/2000/svg"
 width="176.000000pt" height="178.000000pt" viewBox="0 0 176.000000 178.000000"
 preserveAspectRatio="xMidYMid meet">
<metadata>
Created by potrace 1.16, written by Peter Selinger 2001-2019
</metadata>
<g transform="translate(0.000000,178.000000) scale(0.100000,-0.100000)"
fill="#000000" stroke="none">
<path d="M1214 1767 c-3 -8 -4 -54 -2 -103 3 -81 5 -89 23 -89 18 0 20 8 23
80 2 44 0 90 -3 102 -6 25 -33 31 -41 10z"/>
<path d="M860 1617 c0 -16 131 -147 147 -147 33 0 19 28 -43 91 -64 64 -104
86 -104 56z"/>
<path d="M1512 1567 c-62 -63 -78 -97 -44 -97 23 0 157 135 148 149 -15 23
-44 9 -104 -52z"/>
<path d="M1122 1489 c-56 -28 -109 -91 -127 -153 -19 -62 -19 -80 0 -142 31
-105 125 -174 235 -174 100 0 175 46 223 135 30 56 30 164 0 220 -27 51 -78
100 -125 119 -55 23 -154 21 -206 -5z m195 -43 c77 -36 108 -88 108 -181 0
-93 -31 -145 -108 -181 -80 -37 -149 -28 -214 29 -121 106 -86 289 66 343 53
19 90 17 148 -10z"/>
<path d="M802 1282 c-91 -2 -103 -5 -100 -20 3 -15 17 -17 113 -17 93 0 110 2
113 16 4 22 -8 24 -126 21z"/>
<path d="M1540 1260 c0 -20 5 -21 107 -18 93 3 108 5 111 21 3 15 -7 17 -107
17 -105 0 -111 -1 -111 -20z"/>
<path d="M926 981 c-47 -47 -67 -74 -63 -85 4 -9 12 -16 18 -16 19 0 152 137
147 152 -10 29 -36 16 -102 -51z"/>
<path d="M1444 1039 c-6 -11 132 -159 149 -159 4 0 10 7 14 16 4 11 -16 38
-63 85 -68 68 -86 79 -100 58z"/>
<path d="M1217 953 c-11 -11 -8 -201 3 -208 6 -4 17 -1 25 5 19 16 21 180 3
198 -14 14 -22 15 -31 5z"/>
<path d="M375 780 c-111 -18 -199 -64 -272 -144 -55 -60 -91 -128 -95 -178
l-3 -33 210 -5 210 -5 3 -137 c3 -136 2 -138 -20 -143 -13 -3 -97 -23 -188
-45 -91 -22 -175 -42 -188 -45 -24 -6 -32 -45 -8 -45 8 0 106 22 217 50 264
65 338 74 529 67 125 -5 180 -12 285 -37 225 -54 336 -70 486 -70 76 0 140 4
143 8 14 23 -20 30 -169 35 -100 4 -194 14 -250 26 -405 88 -368 83 -554 82
-96 0 -189 -3 -208 -7 l-33 -6 0 136 0 136 223 2 222 3 -3 34 c-4 52 -60 147
-115 197 -64 57 -174 110 -257 123 -72 12 -92 12 -165 1z m198 -55 c32 -8 76
-24 99 -36 61 -31 144 -114 173 -173 l26 -51 -407 -3 c-224 -1 -409 0 -411 2
-8 8 45 101 80 141 96 111 281 161 440 120z"/>
</g>
</svg>
