<?xml version="1.0" standalone="no"?>
<!DOCTYPE svg PUBLIC "-//W3C//DTD SVG 20010904//EN"
 "http://www.w3.org/TR/2001/REC-SVG-20010904/DTD/svg10.dtd">
<svg version="1.0" xmlns="http://www.w3.org/2000/svg"
 width="219.000000pt" height="201.000000pt" viewBox="0 0 219.000000 201.000000"
 preserveAspectRatio="xMidYMid meet">
<metadata>
Created by potrace 1.16, written by Peter Selinger 2001-2019
</metadata>
<g transform="translate(0.000000,201.000000) scale(0.100000,-0.100000)"
fill="#000000" stroke="none">
<path d="M1122 1995 c-45 -20 -1070 -1033 -1100 -1087 -18 -34 -22 -57 -22
-135 0 -99 19 -160 58 -182 46 -27 46 -28 18 -57 -61 -65 -70 -96 -74 -257 -2
-82 -1 -159 2 -172 10 -40 64 -94 100 -100 39 -8 1945 308 1993 329 17 8 44
32 60 52 l28 37 0 197 c0 194 0 197 -25 235 l-26 38 26 51 c22 46 25 63 25
166 0 152 -6 162 -158 293 -429 366 -689 576 -734 591 -57 20 -127 20 -171 1z
m128 -36 c59 -13 49 -5 464 -352 406 -339 426 -359 426 -416 0 -25 50 -14
-490 -110 -1004 -180 -1531 -271 -1570 -271 -39 0 -40 1 -34 28 4 15 13 38 20
52 7 14 176 187 376 385 584 579 692 683 719 688 13 2 27 5 31 6 4 0 30 -4 58
-10z m900 -881 c0 -24 -11 -68 -23 -98 l-22 -55 -110 -6 c-69 -4 -295 -38
-610 -93 -275 -48 -654 -114 -842 -146 -188 -32 -355 -66 -371 -74 -26 -13
-31 -13 -59 4 -44 27 -63 59 -63 107 0 39 2 43 25 43 25 0 1116 191 1705 299
179 33 335 60 348 60 19 1 22 -4 22 -41z m-118 -204 l37 -6 -28 -42 c-16 -22
-53 -64 -83 -92 -106 -100 -232 -120 -407 -63 -145 47 -200 35 -308 -63 -112
-101 -204 -115 -381 -58 -96 31 -107 32 -154 21 -31 -7 -77 -30 -116 -58 -105
-75 -149 -83 -247 -46 -43 16 -155 84 -155 95 0 10 74 25 335 68 132 23 499
85 815 140 316 54 589 101 605 103 17 2 35 5 40 5 6 1 27 -1 47 -4z m97 -61
c16 -35 26 -123 17 -157 -13 -52 27 -42 -811 -191 -297 -52 -639 -113 -760
-134 -375 -67 -440 -76 -482 -65 l-38 9 0 77 c0 69 3 81 30 119 46 65 54 67
111 26 140 -101 255 -123 349 -67 28 16 69 44 92 61 61 46 108 48 229 9 86
-28 109 -31 174 -27 92 6 145 29 226 98 101 87 149 96 274 54 217 -74 399 -19
522 156 23 32 45 59 48 59 4 0 12 -12 19 -27z m21 -289 c0 -64 -22 -118 -57
-141 -35 -23 -1957 -345 -1988 -333 -39 15 -55 49 -55 116 l0 61 43 -9 c35 -8
96 -1 367 47 974 169 1618 287 1645 299 44 22 45 21 45 -40z"/>
</g>
</svg>
