<?xml version="1.0" standalone="no"?>
<!DOCTYPE svg PUBLIC "-//W3C//DTD SVG 20010904//EN"
 "http://www.w3.org/TR/2001/REC-SVG-20010904/DTD/svg10.dtd">
<svg version="1.0" xmlns="http://www.w3.org/2000/svg"
 width="176.000000pt" height="204.000000pt" viewBox="0 0 176.000000 204.000000"
 preserveAspectRatio="xMidYMid meet">
<metadata>
Created by potrace 1.16, written by Peter Selinger 2001-2019
</metadata>
<g transform="translate(0.000000,204.000000) scale(0.100000,-0.100000)"
fill="#000000" stroke="none">
<path d="M5 2028 c-3 -7 -4 -465 -3 -1018 l3 -1005 875 0 875 0 0 1015 0 1015
-873 3 c-693 2 -874 0 -877 -10z m865 -498 l0 -480 -415 0 -415 0 0 480 0 480
415 0 415 0 0 -480z m858 -2 l2 -478 -415 0 -415 0 0 480 0 480 413 -2 412 -3
3 -477z m-858 -998 l0 -490 -415 0 -415 0 0 490 0 490 415 0 415 0 0 -490z
m858 -2 l2 -488 -415 0 -415 0 0 490 0 490 413 -2 412 -3 3 -487z"/>
</g>
</svg>
