<?xml version="1.0" standalone="no"?>
<!DOCTYPE svg PUBLIC "-//W3C//DTD SVG 20010904//EN"
 "http://www.w3.org/TR/2001/REC-SVG-20010904/DTD/svg10.dtd">
<svg version="1.0" xmlns="http://www.w3.org/2000/svg"
 width="177.000000pt" height="200.000000pt" viewBox="0 0 177.000000 200.000000"
 preserveAspectRatio="xMidYMid meet">
<metadata>
Created by potrace 1.16, written by Peter Selinger 2001-2019
</metadata>
<g transform="translate(0.000000,200.000000) scale(0.100000,-0.100000)"
fill="#000000" stroke="none">
<path d="M1190 1989 c-144 -28 -255 -134 -310 -294 l-17 -50 -31 60 c-31 62
-109 157 -143 176 -15 7 -21 6 -25 -6 -4 -10 15 -37 54 -80 34 -35 74 -92 91
-127 29 -62 70 -232 58 -244 -3 -3 -64 8 -134 25 -192 46 -302 41 -433 -23
-192 -93 -312 -330 -297 -586 21 -345 288 -735 565 -825 54 -18 168 -17 287 2
28 5 70 5 95 1 227 -40 348 -1 507 161 123 125 219 283 267 442 74 241 51 460
-65 633 -82 124 -168 182 -312 213 -86 18 -167 12 -314 -23 -57 -13 -107 -24
-112 -24 -5 0 -11 15 -13 34 l-4 34 106 4 c93 3 113 7 170 34 36 18 84 48 107
68 55 48 117 171 133 264 16 95 11 124 -20 133 -35 10 -156 9 -210 -2z m196
-42 c8 -21 -12 -126 -36 -189 -26 -70 -99 -154 -167 -190 -56 -31 -130 -44
-222 -40 l-64 3 6 70 c14 170 138 318 291 349 70 14 186 12 192 -3z m-660
-537 c145 -36 175 -37 306 -5 258 64 414 33 544 -108 62 -67 107 -149 131
-240 25 -92 22 -278 -6 -382 -64 -240 -256 -502 -433 -589 -96 -48 -170 -56
-292 -32 -80 16 -90 16 -168 1 -199 -41 -299 -5 -473 170 -121 121 -170 195
-228 340 -93 234 -87 465 18 640 127 212 316 276 601 205z"/>
</g>
</svg>
