<?xml version="1.0" standalone="no"?>
<!DOCTYPE svg PUBLIC "-//W3C//DTD SVG 20010904//EN"
 "http://www.w3.org/TR/2001/REC-SVG-20010904/DTD/svg10.dtd">
<svg version="1.0" xmlns="http://www.w3.org/2000/svg"
 width="167.000000pt" height="195.000000pt" viewBox="0 0 167.000000 195.000000"
 preserveAspectRatio="xMidYMid meet">
<metadata>
Created by potrace 1.16, written by Peter Selinger 2001-2019
</metadata>
<g transform="translate(0.000000,195.000000) scale(0.100000,-0.100000)"
fill="#000000" stroke="none">
<path d="M827 1944 c-4 -4 -7 -68 -7 -143 l0 -136 -84 84 c-77 77 -106 92
-106 56 0 -7 43 -54 95 -103 l95 -90 0 -172 0 -173 -90 87 c-77 74 -93 86
-106 75 -13 -11 0 -28 91 -119 l106 -106 -3 -91 -3 -91 -244 141 -244 142 -38
124 c-21 68 -42 128 -46 132 -5 5 -14 4 -22 0 -11 -7 -7 -29 21 -120 l35 -110
-46 26 c-25 15 -82 48 -126 74 -77 45 -109 52 -103 22 2 -8 56 -45 120 -81 65
-37 118 -69 118 -72 0 -3 -35 -14 -77 -23 -114 -26 -143 -37 -143 -53 0 -21
31 -18 169 16 77 19 128 27 135 21 11 -9 327 -193 423 -247 29 -16 53 -31 52
-34 0 -3 -110 -69 -245 -147 l-245 -142 -134 32 c-105 24 -138 28 -147 19 -20
-20 0 -29 114 -54 60 -13 108 -25 108 -28 0 -3 -56 -36 -125 -73 -69 -37 -125
-71 -125 -76 0 -4 5 -12 11 -18 8 -8 45 8 132 57 67 38 123 67 124 66 1 0 -12
-46 -28 -100 -34 -117 -34 -116 -10 -116 15 0 24 15 41 73 11 39 29 97 39 126
l17 55 192 112 c106 62 217 127 247 144 l55 31 0 -99 0 -99 -105 -88 c-58 -49
-105 -94 -105 -102 0 -29 37 -10 122 62 l88 75 0 -166 0 -166 -95 -101 c-52
-56 -95 -107 -95 -114 0 -32 41 -6 110 69 l75 82 5 -144 c4 -120 8 -145 20
-145 13 0 15 24 18 144 l3 145 84 -84 c62 -62 88 -81 96 -73 14 14 -8 44 -106
143 l-75 75 0 169 0 168 68 -59 c93 -82 123 -104 133 -97 20 12 3 33 -96 119
l-104 90 -1 102 0 101 238 -140 c130 -77 242 -145 249 -152 6 -6 25 -63 43
-126 34 -122 49 -151 67 -128 8 9 3 40 -18 112 -17 54 -29 100 -27 101 2 2 57
-27 122 -65 66 -38 123 -67 128 -64 24 15 -3 40 -112 104 -66 39 -120 72 -120
74 0 2 43 11 95 21 102 19 138 36 119 55 -8 8 -44 4 -132 -15 -67 -15 -130
-25 -141 -23 -20 3 -480 269 -481 278 0 3 109 69 242 146 l242 141 111 -28
c121 -31 150 -35 161 -18 10 16 -6 23 -116 49 -55 13 -100 26 -100 29 1 3 54
36 118 72 65 37 118 73 120 82 6 29 -21 20 -139 -47 -63 -36 -115 -63 -116
-62 -1 1 10 47 26 102 20 70 25 103 18 112 -18 22 -32 -5 -67 -131 -27 -95
-38 -121 -59 -136 -30 -21 -461 -271 -467 -271 -2 0 -4 39 -4 87 l0 88 111
111 c96 97 108 112 95 124 -14 11 -29 0 -111 -81 l-95 -93 0 181 0 180 95 87
c52 48 95 94 95 101 0 30 -30 21 -71 -22 -24 -24 -61 -59 -83 -76 l-39 -31 4
134 c3 116 2 135 -11 138 -9 1 -19 0 -23 -4z"/>
</g>
</svg>
