<?xml version="1.0" standalone="no"?>
<!DOCTYPE svg PUBLIC "-//W3C//DTD SVG 20010904//EN"
 "http://www.w3.org/TR/2001/REC-SVG-20010904/DTD/svg10.dtd">
<svg version="1.0" xmlns="http://www.w3.org/2000/svg"
 width="193.000000pt" height="182.000000pt" viewBox="0 0 193.000000 182.000000"
 preserveAspectRatio="xMidYMid meet">
<metadata>
Created by potrace 1.16, written by Peter Selinger 2001-2019
</metadata>
<g transform="translate(0.000000,182.000000) scale(0.100000,-0.100000)"
fill="#000000" stroke="none">
<path d="M15 1810 c-3 -5 -6 -380 -5 -832 l0 -823 23 -45 c13 -26 41 -58 66
-75 l43 -30 828 0 828 0 43 30 c23 17 52 43 63 58 21 28 21 34 21 715 l0 687
-127 3 -128 3 0 147 c0 102 -4 152 -12 160 -16 16 -1633 18 -1643 2z m1615
-865 c5 -772 6 -832 23 -863 l18 -32 -760 2 c-749 3 -760 3 -787 24 -15 11
-36 32 -47 46 -18 24 -19 59 -24 836 l-6 811 54 4 c30 2 385 3 789 3 l735 -1
5 -830z m253 353 c4 -83 7 -370 7 -636 0 -473 -1 -487 -21 -529 -21 -44 -39
-59 -90 -73 -19 -6 -34 -4 -48 7 -51 35 -50 26 -57 727 l-7 656 105 0 105 0 6
-152z"/>
<path d="M247 1523 c-11 -10 -8 -281 2 -287 5 -4 16 -3 25 0 13 5 16 23 16
101 0 86 2 96 25 118 29 30 55 32 85 7 21 -17 23 -28 24 -115 2 -103 12 -131
41 -107 12 10 15 34 15 110 0 84 -3 101 -23 131 -30 46 -86 61 -130 35 -27
-15 -31 -15 -39 -2 -9 17 -30 21 -41 9z"/>
<path d="M610 1517 c-13 -7 -35 -28 -48 -47 -20 -30 -23 -44 -20 -99 4 -58 7
-66 40 -97 20 -18 51 -36 70 -39 64 -12 151 36 121 66 -9 9 -20 8 -48 -5 -45
-22 -87 -14 -115 21 -11 14 -20 30 -20 34 0 5 40 9 88 9 112 0 128 10 113 67
-22 82 -110 126 -181 90z m107 -61 c15 -13 25 -27 22 -31 -4 -3 -40 -5 -80 -3
l-74 3 27 28 c33 33 68 35 105 3z"/>
<path d="M1162 1518 c-5 -7 -22 -55 -38 -106 l-27 -92 -28 85 c-15 47 -33 93
-40 101 -12 14 -15 14 -29 -4 -9 -11 -27 -56 -41 -101 l-24 -82 -31 98 c-24
80 -34 98 -49 98 -11 0 -21 -8 -23 -18 -5 -22 66 -237 84 -257 22 -22 38 2 70
104 l28 89 30 -91 c52 -153 64 -149 124 38 38 118 40 150 12 150 -4 0 -12 -6
-18 -12z"/>
<path d="M1276 1509 c-19 -15 -26 -30 -26 -55 0 -42 23 -66 90 -95 39 -17 50
-26 50 -45 0 -39 -60 -43 -102 -7 -23 21 -50 9 -46 -19 2 -16 17 -28 51 -42
44 -18 51 -19 90 -6 50 18 73 56 59 98 -6 19 -28 37 -73 62 -71 39 -86 65 -43
76 18 5 38 1 60 -11 57 -31 78 11 22 45 -43 26 -98 26 -132 -1z"/>
<path d="M236 693 c-4 -168 -3 -310 2 -315 4 -4 141 -7 303 -6 l294 3 3 313 2
312 -298 0 -299 0 -7 -307z m564 -8 l0 -265 -260 0 -260 0 0 265 0 265 260 0
260 0 0 -265z"/>
<path d="M993 985 c-3 -9 -1 -21 4 -26 5 -5 97 -8 224 -7 206 3 214 4 214 23
0 19 -8 20 -218 23 -191 2 -218 0 -224 -13z"/>
<path d="M1007 733 c-9 -9 -9 -43 1 -44 12 -2 36 -2 240 -1 181 2 192 3 192
21 0 10 -7 22 -16 25 -21 8 -409 8 -417 -1z"/>
<path d="M993 405 c-3 -9 -1 -21 4 -26 5 -5 97 -8 224 -7 206 3 214 4 214 23
0 19 -8 20 -218 23 -191 2 -218 0 -224 -13z"/>
</g>
</svg>
