<?xml version="1.0" standalone="no"?>
<!DOCTYPE svg PUBLIC "-//W3C//DTD SVG 20010904//EN"
 "http://www.w3.org/TR/2001/REC-SVG-20010904/DTD/svg10.dtd">
<svg version="1.0" xmlns="http://www.w3.org/2000/svg"
 width="163.000000pt" height="168.000000pt" viewBox="0 0 163.000000 168.000000"
 preserveAspectRatio="xMidYMid meet">
<metadata>
Created by potrace 1.16, written by Peter Selinger 2001-2019
</metadata>
<g transform="translate(0.000000,168.000000) scale(0.100000,-0.100000)"
fill="#000000" stroke="none">
<path d="M83 1664 c-18 -9 -43 -33 -55 -53 l-23 -36 0 -735 0 -735 23 -36 c44
-72 10 -69 792 -69 760 0 727 -2 780 55 l25 27 3 746 c2 732 2 748 -18 780
-11 18 -34 41 -52 52 -32 19 -52 20 -738 20 -626 0 -709 -2 -737 -16z m1441
-34 c44 -16 66 -65 66 -147 l0 -73 -770 0 -770 0 0 81 c0 79 1 82 34 115 l34
34 690 0 c425 0 701 -4 716 -10z m66 -891 l0 -631 -34 -34 -34 -34 -696 0
c-756 0 -739 -1 -764 55 -9 19 -12 188 -12 650 l0 625 770 0 770 0 0 -631z"/>
<path d="M315 1137 c-3 -7 -4 -116 -3 -242 l3 -230 507 -3 508 -2 5 22 c3 13
4 122 3 243 l-3 220 -508 3 c-405 2 -509 0 -512 -11z m985 -232 l0 -205 -475
0 -475 0 0 205 0 205 475 0 475 0 0 -205z"/>
<path d="M312 463 c3 -17 32 -18 458 -18 398 0 455 2 455 15 0 13 -59 15 -458
18 -433 2 -458 1 -455 -15z"/>
<path d="M310 240 c0 -20 7 -20 300 -20 293 0 300 0 300 20 0 20 -7 20 -300
20 -293 0 -300 0 -300 -20z"/>
</g>
</svg>
