<?xml version="1.0" standalone="no"?>
<!DOCTYPE svg PUBLIC "-//W3C//DTD SVG 20010904//EN"
 "http://www.w3.org/TR/2001/REC-SVG-20010904/DTD/svg10.dtd">
<svg version="1.0" xmlns="http://www.w3.org/2000/svg"
 width="203.000000pt" height="120.000000pt" viewBox="0 0 203.000000 120.000000"
 preserveAspectRatio="xMidYMid meet">
<metadata>
Created by potrace 1.16, written by Peter Selinger 2001-2019
</metadata>
<g transform="translate(0.000000,120.000000) scale(0.100000,-0.100000)"
fill="#000000" stroke="none">
<path d="M29 1171 l-29 -29 0 -565 c0 -506 2 -565 16 -571 29 -11 199 -7 212
6 7 7 12 42 12 85 l0 73 870 0 869 0 3 -83 c3 -74 5 -82 23 -82 20 0 20 7 20
320 0 302 -1 322 -20 353 -11 18 -36 43 -55 55 -35 22 -41 22 -547 25 l-513 3
-6 27 c-26 120 -79 194 -166 233 -47 21 -68 24 -183 24 -120 0 -134 -2 -180
-26 -34 -17 -59 -40 -80 -71 -16 -26 -32 -47 -35 -47 -3 -1 -4 41 -2 91 6 158
-24 208 -125 208 -47 0 -59 -4 -84 -29z m144 -29 c15 -16 16 -75 17 -557 l2
-540 -76 -3 -76 -3 0 542 c0 491 2 544 17 561 22 24 94 25 116 0z m520 -155
c73 -31 126 -98 146 -186 l9 -41 -300 0 -299 0 7 38 c16 89 59 156 118 183 52
23 267 27 319 6z m1249 -306 c33 -29 33 -30 36 -135 l4 -106 -871 0 -871 0 0
135 0 135 835 0 835 0 32 -29z m38 -378 l0 -93 -870 0 -870 0 0 93 0 92 870 0
870 0 0 -92z"/>
</g>
</svg>
