<?xml version="1.0" standalone="no"?>
<!DOCTYPE svg PUBLIC "-//W3C//DTD SVG 20010904//EN"
 "http://www.w3.org/TR/2001/REC-SVG-20010904/DTD/svg10.dtd">
<svg version="1.0" xmlns="http://www.w3.org/2000/svg"
 width="181.000000pt" height="221.000000pt" viewBox="0 0 181.000000 221.000000"
 preserveAspectRatio="xMidYMid meet">
<metadata>
Created by potrace 1.16, written by Peter Selinger 2001-2019
</metadata>
<g transform="translate(0.000000,221.000000) scale(0.100000,-0.100000)"
fill="#000000" stroke="none">
<path d="M1087 2203 c-4 -3 -7 -13 -7 -22 0 -8 -9 -34 -21 -57 -19 -41 -65
-73 -141 -98 -29 -9 -10 -31 36 -44 54 -14 103 -63 120 -122 18 -63 42 -65 57
-5 16 62 63 111 122 127 63 16 63 40 1 56 -61 17 -109 65 -125 125 -10 43 -25
57 -42 40z m81 -168 c17 -11 31 -22 32 -25 0 -3 -13 -14 -30 -23 -16 -10 -37
-31 -46 -47 l-18 -29 -39 45 c-21 24 -45 44 -53 44 -8 0 -14 5 -14 10 0 6 6
10 13 10 16 0 59 45 77 78 l12 24 17 -34 c10 -18 32 -42 49 -53z"/>
<path d="M1514 1753 c-25 -79 -40 -96 -100 -116 -49 -18 -50 -35 -1 -52 52
-18 83 -49 100 -99 18 -53 39 -53 49 0 10 49 49 89 98 101 50 13 51 39 3 52
-56 15 -79 36 -99 86 -17 46 -40 59 -50 28z m52 -173 l-30 -35 -32 32 -32 33
31 33 32 33 31 -30 31 -31 -31 -35z"/>
<path d="M830 1723 c-57 -10 -748 -186 -778 -199 -51 -21 -56 -50 -31 -173 32
-162 165 -733 198 -851 46 -161 52 -164 317 -98 l171 42 109 -111 c105 -106
114 -112 235 -171 106 -50 134 -69 170 -111 42 -48 79 -66 79 -38 0 7 -21 36
-46 65 -38 43 -66 62 -153 104 -194 92 -218 115 -523 493 -180 225 -203 275
-144 324 37 31 70 5 208 -159 75 -90 141 -159 151 -159 38 -2 21 23 -198 279
-125 146 -165 204 -165 240 0 36 29 60 72 60 34 0 42 -7 119 -102 283 -352
296 -367 313 -339 3 5 -78 112 -180 238 -102 125 -193 243 -202 260 -19 39 -6
78 32 93 51 19 37 34 391 -399 66 -80 93 -101 102 -75 2 5 -80 112 -182 236
-102 125 -185 231 -185 236 0 6 12 20 27 32 31 24 65 22 109 -6 23 -16 208
-230 398 -463 43 -53 82 -97 87 -99 5 -2 12 4 15 13 4 10 -5 30 -23 53 -43 53
-49 67 -76 175 -24 93 -24 98 -7 107 31 17 77 11 104 -12 34 -30 217 -340 251
-426 20 -51 29 -94 35 -177 9 -131 23 -165 104 -245 43 -41 59 -51 67 -43 9 9
0 26 -37 68 -88 101 -85 93 -95 211 -15 178 -28 210 -185 475 -67 112 -105
166 -127 180 -34 20 -97 25 -127 9 -17 -9 -21 1 -50 128 -48 205 -47 204 -79
253 -39 62 -95 89 -182 88 -35 -1 -75 -4 -89 -6z m174 -47 c32 -13 76 -62 89
-98 3 -10 24 -95 46 -190 22 -95 49 -203 59 -240 11 -38 17 -68 13 -67 -6 0
-33 32 -211 245 -129 154 -181 188 -254 164 -20 -6 -42 -21 -50 -31 -12 -18
-18 -19 -53 -9 -78 24 -155 -43 -139 -120 4 -25 2 -27 -27 -28 -43 -1 -87 -50
-87 -95 0 -32 26 -93 56 -134 15 -21 15 -22 -10 -29 -32 -8 -62 -44 -71 -84
-11 -49 32 -122 178 -305 90 -112 132 -172 124 -176 -26 -14 -296 -79 -329
-79 -20 0 -40 6 -46 13 -22 26 -161 590 -232 941 l-23 110 21 16 c16 13 582
161 777 203 45 10 138 6 169 -7z"/>
</g>
</svg>
