<?xml version="1.0" standalone="no"?>
<!DOCTYPE svg PUBLIC "-//W3C//DTD SVG 20010904//EN"
 "http://www.w3.org/TR/2001/REC-SVG-20010904/DTD/svg10.dtd">
<svg version="1.0" xmlns="http://www.w3.org/2000/svg"
 width="202.000000pt" height="202.000000pt" viewBox="0 0 202.000000 202.000000"
 preserveAspectRatio="xMidYMid meet">
<metadata>
Created by potrace 1.16, written by Peter Selinger 2001-2019
</metadata>
<g transform="translate(0.000000,202.000000) scale(0.100000,-0.100000)"
fill="#000000" stroke="none">
<path d="M982 2008 c-9 -9 -12 -87 -12 -289 0 -239 2 -280 16 -293 8 -9 19
-16 24 -16 5 0 16 7 24 16 14 13 16 53 16 285 0 167 -4 278 -10 290 -12 21
-40 25 -58 7z"/>
<path d="M328 1689 c-10 -5 -18 -18 -18 -27 0 -10 85 -102 189 -206 158 -158
192 -187 210 -181 48 15 26 46 -167 238 -104 103 -190 187 -193 187 -2 0 -12
-5 -21 -11z"/>
<path d="M1479 1513 c-193 -191 -207 -211 -167 -237 15 -9 45 16 208 179 104
104 190 198 190 207 0 10 -9 22 -21 29 -19 10 -38 -6 -210 -178z"/>
<path d="M9 1024 c-9 -11 -10 -20 -2 -32 9 -15 40 -17 294 -17 l284 0 0 30 0
30 -281 3 c-248 2 -283 0 -295 -14z"/>
<path d="M1429 1024 c-9 -11 -10 -20 -2 -32 9 -15 41 -17 279 -20 148 -1 279
0 292 3 18 4 23 11 20 33 l-3 27 -286 3 c-252 2 -288 0 -300 -14z"/>
<path d="M498 553 c-192 -191 -206 -212 -166 -237 15 -9 46 18 205 174 103
102 189 193 191 203 4 20 -14 47 -31 47 -6 0 -96 -84 -199 -187z"/>
<path d="M1307 729 c-9 -6 -17 -18 -17 -27 0 -10 86 -103 190 -207 163 -163
193 -188 208 -179 39 25 26 44 -154 226 -99 99 -186 183 -194 188 -9 5 -23 4
-33 -1z"/>
<path d="M982 598 c-9 -9 -12 -87 -12 -289 0 -153 3 -284 6 -293 7 -19 45 -21
62 -4 9 9 12 87 12 289 0 239 -2 280 -16 293 -19 19 -36 20 -52 4z"/>
</g>
</svg>
