<?xml version="1.0" standalone="no"?>
<!DOCTYPE svg PUBLIC "-//W3C//DTD SVG 20010904//EN"
 "http://www.w3.org/TR/2001/REC-SVG-20010904/DTD/svg10.dtd">
<svg version="1.0" xmlns="http://www.w3.org/2000/svg"
 width="203.000000pt" height="183.000000pt" viewBox="0 0 203.000000 183.000000"
 preserveAspectRatio="xMidYMid meet">
<metadata>
Created by potrace 1.16, written by Peter Selinger 2001-2019
</metadata>
<g transform="translate(0.000000,183.000000) scale(0.100000,-0.100000)"
fill="#000000" stroke="none">
<path d="M1595 1743 c-110 -47 -403 -169 -650 -273 l-450 -187 -185 -5 c-194
-4 -222 -10 -263 -56 -44 -49 -46 -72 -47 -577 0 -301 4 -494 10 -517 15 -52
53 -94 103 -113 38 -14 135 -15 922 -13 l880 3 35 22 c20 12 46 40 58 61 22
40 22 42 22 557 0 362 -3 523 -11 538 -24 47 -62 76 -113 87 -35 8 -249 10
-674 8 -342 -2 -622 -1 -622 2 0 3 57 29 128 59 996 418 1087 457 1087 471 0
8 -7 15 -15 16 -8 1 -105 -36 -215 -83z m335 -521 c72 -35 71 -26 68 -589 -3
-489 -4 -502 -24 -530 -11 -15 -36 -36 -55 -46 -32 -16 -91 -17 -916 -15
l-882 3 -31 30 c-17 16 -35 45 -41 65 -6 22 -9 209 -7 527 l3 493 31 31 c17
17 47 35 65 39 19 4 421 8 894 9 800 1 862 0 895 -17z"/>
<path d="M1387 1010 c-118 -20 -226 -104 -280 -218 -29 -60 -32 -76 -32 -157
1 -121 28 -189 104 -265 95 -95 207 -133 326 -113 129 22 231 97 287 211 31
62 33 74 33 167 0 87 -3 107 -27 157 -54 115 -162 197 -288 217 -36 6 -67 10
-70 10 -3 -1 -27 -5 -53 -9z m154 -46 c107 -31 199 -116 235 -216 25 -71 20
-177 -12 -248 -31 -70 -105 -145 -179 -180 -75 -37 -188 -35 -270 3 -294 138
-259 559 54 643 63 17 108 17 172 -2z"/>
<path d="M204 959 c-3 -6 -2 -15 3 -20 5 -5 158 -8 368 -7 333 3 360 4 363 21
3 16 -19 17 -362 17 -252 0 -367 -3 -372 -11z"/>
<path d="M204 669 c-14 -24 30 -29 256 -29 315 1 460 9 460 26 0 12 -63 14
-354 14 -250 0 -357 -3 -362 -11z"/>
</g>
</svg>
