<?xml version="1.0" standalone="no"?>
<!DOCTYPE svg PUBLIC "-//W3C//DTD SVG 20010904//EN"
 "http://www.w3.org/TR/2001/REC-SVG-20010904/DTD/svg10.dtd">
<svg version="1.0" xmlns="http://www.w3.org/2000/svg"
 width="92.000000pt" height="238.000000pt" viewBox="0 0 92.000000 238.000000"
 preserveAspectRatio="xMidYMid meet">
<metadata>
Created by potrace 1.16, written by Peter Selinger 2001-2019
</metadata>
<g transform="translate(0.000000,238.000000) scale(0.100000,-0.100000)"
fill="#000000" stroke="none">
<path d="M245 2356 c-24 -24 -25 -30 -25 -146 l0 -120 25 0 c18 0 25 -5 25
-18 0 -36 -61 -138 -135 -227 -105 -126 -118 -155 -126 -295 -11 -180 -10
-1390 1 -1429 11 -40 42 -76 85 -99 26 -15 72 -17 365 -17 l335 0 42 24 c29
16 50 39 63 66 19 40 20 62 20 757 0 441 -4 736 -10 769 -15 77 -49 141 -136
249 -75 95 -124 175 -124 205 0 12 6 14 26 9 15 -4 29 -2 33 4 3 5 4 62 1 126
-7 167 3 160 -245 164 l-194 4 -26 -26z m395 -29 c24 -12 25 -18 28 -105 l3
-92 -206 0 -205 0 0 93 c0 59 4 97 12 105 17 17 334 16 368 -1z m-25 -282 c15
-52 31 -77 130 -205 45 -58 89 -118 97 -135 24 -47 38 -129 38 -225 l0 -89
-57 -11 c-35 -8 -105 -10 -178 -8 -109 4 -132 9 -250 48 -120 41 -138 44 -237
44 l-108 1 0 81 c0 112 17 153 111 264 95 112 126 163 142 230 l12 51 144 -3
144 -3 12 -40z m-228 -667 c127 -41 130 -42 278 -42 83 -1 165 2 183 6 l32 8
0 -601 c0 -661 1 -646 -61 -683 -27 -16 -61 -18 -360 -18 -364 0 -359 0 -399
65 -19 31 -20 55 -20 669 l0 637 43 4 c90 10 176 -3 304 -45z"/>
</g>
</svg>
