<?xml version="1.0" standalone="no"?>
<!DOCTYPE svg PUBLIC "-//W3C//DTD SVG 20010904//EN"
 "http://www.w3.org/TR/2001/REC-SVG-20010904/DTD/svg10.dtd">
<svg version="1.0" xmlns="http://www.w3.org/2000/svg"
 width="181.000000pt" height="208.000000pt" viewBox="0 0 181.000000 208.000000"
 preserveAspectRatio="xMidYMid meet">
<metadata>
Created by potrace 1.16, written by Peter Selinger 2001-2019
</metadata>
<g transform="translate(0.000000,208.000000) scale(0.100000,-0.100000)"
fill="#000000" stroke="none">
<path d="M695 2064 c-275 -50 -487 -196 -599 -413 -67 -130 -88 -219 -88 -366
0 -180 42 -316 157 -501 25 -39 51 -97 60 -129 18 -70 20 -279 5 -489 -8 -102
-7 -142 1 -152 17 -20 911 -21 927 -1 7 8 13 67 14 138 l3 124 160 5 c174 5
205 14 243 67 38 55 51 132 52 316 l0 97 64 0 c59 0 66 2 90 31 35 42 33 71
-14 159 -139 259 -140 262 -140 355 0 215 -73 395 -220 546 -183 186 -440 262
-715 213z m400 -68 c109 -37 198 -92 274 -169 146 -148 210 -300 215 -513 l3
-111 66 -129 c36 -71 76 -149 90 -173 21 -36 24 -49 15 -65 -16 -31 -22 -33
-94 -30 -44 2 -66 -1 -69 -9 -3 -7 -8 -91 -13 -188 -9 -196 -19 -226 -81 -263
-29 -17 -51 -19 -182 -17 -147 2 -149 2 -174 -23 -24 -24 -25 -31 -25 -141 l0
-115 -426 0 -426 0 6 83 c15 212 18 395 6 470 -13 90 -28 129 -76 204 -55 87
-102 187 -126 270 -33 113 -32 307 1 413 75 242 241 414 472 489 130 43 188
51 329 47 115 -2 147 -7 215 -30z"/>
<path d="M794 1623 c-65 -92 -167 -235 -227 -316 -61 -83 -107 -155 -105 -165
3 -15 21 -17 146 -20 141 -3 142 -3 137 -25 -14 -62 -75 -373 -75 -384 0 -35
35 -4 96 85 38 53 137 193 221 310 84 117 153 221 153 231 0 26 -26 31 -162
31 -65 0 -118 2 -118 5 0 14 53 278 66 329 13 51 13 61 1 73 -12 13 -30 -8
-133 -154z m45 -118 c-16 -72 -29 -140 -29 -152 0 -29 16 -32 157 -36 l112 -2
-86 -120 c-48 -66 -124 -173 -170 -239 -45 -65 -83 -113 -83 -108 0 6 14 75
31 152 17 78 28 148 25 156 -4 11 -32 14 -136 14 -71 0 -130 3 -130 6 0 3 47
69 103 147 57 78 132 182 166 230 35 49 64 87 66 85 2 -2 -9 -62 -26 -133z"/>
</g>
</svg>
