<?xml version="1.0" standalone="no"?>
<!DOCTYPE svg PUBLIC "-//W3C//DTD SVG 20010904//EN"
 "http://www.w3.org/TR/2001/REC-SVG-20010904/DTD/svg10.dtd">
<svg version="1.0" xmlns="http://www.w3.org/2000/svg"
 width="249.000000pt" height="193.000000pt" viewBox="0 0 249.000000 193.000000"
 preserveAspectRatio="xMidYMid meet">
<metadata>
Created by potrace 1.16, written by Peter Selinger 2001-2019
</metadata>
<g transform="translate(0.000000,193.000000) scale(0.100000,-0.100000)"
fill="#000000" stroke="none">
<path d="M611 1915 c-137 -39 -247 -129 -308 -253 -35 -69 -37 -81 -38 -166 0
-111 33 -266 75 -352 17 -34 55 -86 89 -120 55 -55 59 -62 53 -93 -7 -31 -14
-36 -96 -72 -205 -88 -317 -201 -361 -365 -11 -40 -18 -124 -22 -266 -6 -204
-6 -208 14 -208 19 0 21 9 27 193 4 105 12 217 18 247 29 152 159 287 348 363
l65 26 8 -22 c60 -161 327 -187 429 -42 29 41 35 45 63 39 131 -28 283 -130
341 -229 49 -85 56 -120 68 -360 9 -193 13 -230 26 -230 12 0 15 22 18 130 4
178 -11 336 -38 408 -12 33 -42 84 -67 114 l-45 55 28 24 c34 28 184 104 205
104 9 0 25 -23 38 -55 27 -66 92 -127 158 -149 59 -20 156 -20 215 0 84 28
158 112 158 178 0 14 5 26 10 26 6 0 41 -15 78 -34 116 -59 197 -144 243 -257
20 -48 23 -81 29 -287 8 -232 14 -272 42 -244 8 8 9 72 2 256 l-10 245 -42 84
c-59 120 -136 190 -288 262 -73 36 -120 65 -131 81 -17 26 -17 27 23 58 137
108 203 248 204 433 0 197 -86 346 -248 425 -64 32 -72 33 -183 33 -113 0
-116 -1 -191 -38 -140 -69 -220 -185 -240 -347 -28 -222 57 -424 222 -531 l25
-17 -24 -26 c-13 -14 -47 -33 -75 -42 -87 -28 -178 -73 -231 -113 l-51 -38
-39 28 c-47 33 -165 84 -216 94 -31 6 -38 12 -43 37 -12 59 -6 73 48 126 59
58 105 136 131 222 23 77 31 244 16 321 -39 198 -204 345 -398 355 -51 3 -97
-1 -132 -11z m259 -66 c122 -58 214 -180 227 -303 l6 -58 -59 30 c-69 35 -102
64 -138 121 -14 22 -31 41 -37 41 -6 0 -28 -14 -49 -30 -96 -76 -255 -111
-365 -80 -44 12 -48 12 -70 -11 -13 -13 -36 -46 -50 -74 l-27 -50 4 76 c10
163 122 299 293 355 67 22 200 14 265 -17z m1095 -28 c35 -16 84 -48 109 -71
53 -49 103 -144 112 -212 7 -48 7 -48 -22 -48 -67 1 -171 22 -226 47 -54 24
-128 90 -140 124 -4 10 -23 -3 -66 -44 -80 -75 -152 -109 -240 -110 l-67 -2 3
35 c1 19 14 59 28 89 90 197 317 282 509 192z m-1070 -244 c17 -23 55 -56 85
-74 115 -66 115 -66 118 -105 13 -155 -102 -349 -245 -416 -49 -22 -72 -27
-148 -27 -111 0 -164 22 -245 105 -63 64 -103 139 -120 225 -10 54 -10 67 9
119 11 32 32 73 46 92 22 29 30 33 53 27 47 -13 185 -8 242 10 30 9 80 32 110
51 30 19 57 34 60 34 3 1 19 -18 35 -41z m992 -64 c80 -42 119 -53 215 -61
l83 -7 3 -50 c10 -147 -88 -306 -240 -391 -48 -26 -62 -29 -143 -29 -71 0
-100 5 -137 22 -145 66 -248 232 -248 398 l0 62 78 5 c90 5 180 42 246 100
l40 35 22 -27 c13 -15 49 -40 81 -57z m-987 -614 c0 -155 -210 -225 -332 -110
-32 30 -41 45 -44 81 -7 64 3 75 52 53 55 -24 192 -22 259 4 28 11 53 18 58
16 4 -2 7 -22 7 -44z m857 28 c49 -8 75 -7 126 6 l65 16 46 -44 c52 -51 57
-74 26 -135 -22 -44 -60 -74 -121 -95 -111 -39 -250 9 -298 103 -35 69 -35 79
-2 96 16 9 38 30 48 46 12 21 22 28 33 24 8 -4 43 -12 77 -17z"/>
<path d="M267 373 c-9 -8 -9 -316 -1 -337 9 -25 33 -19 40 9 11 45 -6 335 -20
335 -7 0 -16 -3 -19 -7z"/>
<path d="M1137 374 c-4 -4 -7 -90 -7 -191 0 -170 1 -184 18 -181 15 3 17 20
17 187 0 174 -5 208 -28 185z"/>
<path d="M2216 338 c-3 -7 -6 -82 -9 -166 -3 -111 -1 -155 8 -162 9 -7 16 -6
24 4 17 20 11 328 -6 334 -7 2 -15 -2 -17 -10z"/>
</g>
</svg>
