<?xml version="1.0" standalone="no"?>
<!DOCTYPE svg PUBLIC "-//W3C//DTD SVG 20010904//EN"
 "http://www.w3.org/TR/2001/REC-SVG-20010904/DTD/svg10.dtd">
<svg version="1.0" xmlns="http://www.w3.org/2000/svg"
 width="193.000000pt" height="115.000000pt" viewBox="0 0 193.000000 115.000000"
 preserveAspectRatio="xMidYMid meet">
<metadata>
Created by potrace 1.16, written by Peter Selinger 2001-2019
</metadata>
<g transform="translate(0.000000,115.000000) scale(0.100000,-0.100000)"
fill="#000000" stroke="none">
<path d="M473 1139 c-196 -33 -364 -172 -440 -365 -25 -62 -27 -82 -27 -194 0
-104 3 -135 22 -188 71 -198 231 -337 437 -379 152 -31 310 8 443 108 l52 40
43 -35 c85 -70 244 -126 357 -126 160 0 350 94 448 222 91 120 128 238 118
384 -16 268 -206 478 -479 531 -84 16 -94 16 -179 -1 -103 -19 -207 -67 -268
-122 l-40 -36 -41 37 c-54 48 -166 101 -254 120 -77 16 -114 17 -192 4z m238
-59 c69 -21 138 -59 189 -103 l32 -27 -30 -38 c-149 -189 -150 -491 -2 -678
l31 -37 -28 -29 c-43 -45 -177 -106 -260 -119 -226 -33 -453 89 -550 298 -98
213 -61 434 102 599 108 110 208 153 361 153 65 1 111 -5 155 -19z m784 5
c222 -58 395 -284 395 -516 0 -186 -124 -385 -291 -466 -71 -35 -173 -63 -232
-63 -113 0 -290 65 -352 130 l-29 30 21 22 c64 70 126 245 125 351 -2 119 -39
234 -108 329 l-35 50 23 20 c96 84 211 127 338 128 47 0 112 -7 145 -15z
m-484 -232 c66 -107 95 -265 70 -386 -13 -59 -65 -173 -101 -217 l-20 -25 -20
25 c-46 58 -90 152 -105 227 -11 53 -5 180 11 234 19 65 36 99 77 161 30 44
33 46 50 31 10 -9 27 -31 38 -50z"/>
</g>
</svg>
