<?xml version="1.0" standalone="no"?>
<!DOCTYPE svg PUBLIC "-//W3C//DTD SVG 20010904//EN"
 "http://www.w3.org/TR/2001/REC-SVG-20010904/DTD/svg10.dtd">
<svg version="1.0" xmlns="http://www.w3.org/2000/svg"
 width="180.000000pt" height="201.000000pt" viewBox="0 0 180.000000 201.000000"
 preserveAspectRatio="xMidYMid meet">
<metadata>
Created by potrace 1.16, written by Peter Selinger 2001-2019
</metadata>
<g transform="translate(0.000000,201.000000) scale(0.100000,-0.100000)"
fill="#000000" stroke="none">
<path d="M745 1991 c-149 -37 -258 -110 -338 -228 -85 -124 -117 -253 -117
-468 0 -214 -37 -469 -85 -588 -14 -33 -25 -71 -25 -84 0 -33 40 -70 110 -101
l59 -27 -67 -35 c-84 -43 -189 -145 -225 -220 -50 -103 -74 -240 -42 -240 8 0
17 10 19 23 21 110 31 144 57 196 35 69 128 162 207 204 28 15 83 39 121 52
l70 23 31 -48 c119 -185 365 -243 597 -140 50 22 134 98 165 149 12 20 22 37
23 39 4 5 136 -42 195 -71 83 -41 178 -133 213 -209 15 -31 33 -92 40 -135 10
-58 18 -79 30 -81 35 -7 12 141 -39 246 -37 76 -135 171 -222 214 l-71 36 74
35 c43 21 81 46 91 62 17 27 17 29 -9 104 -61 173 -84 313 -97 592 -5 108 -14
217 -19 240 -31 138 -97 256 -185 336 -132 119 -369 172 -561 124z m293 -37
c107 -22 199 -73 270 -148 117 -126 148 -225 162 -516 14 -286 32 -401 91
-572 36 -102 35 -105 -45 -145 -102 -52 -124 -56 -196 -37 -83 22 -108 46
-126 120 -21 91 -19 101 39 163 107 116 149 247 151 465 l1 139 -52 13 c-78
20 -130 50 -188 108 -44 44 -97 133 -119 199 -8 24 -22 14 -43 -31 -56 -119
-287 -253 -487 -281 -36 -5 -71 -13 -77 -17 -16 -10 -6 -227 16 -324 23 -105
83 -224 145 -290 49 -52 51 -57 46 -98 -6 -48 -35 -109 -64 -135 -10 -10 -48
-25 -83 -34 -62 -16 -65 -15 -132 7 -37 13 -84 37 -104 54 l-36 32 22 42 c53
103 87 319 100 625 8 185 13 222 35 293 91 285 361 433 674 368z m-4 -325 c47
-97 188 -214 284 -234 l32 -7 0 -99 c0 -230 -72 -401 -211 -504 -256 -188
-581 -43 -664 296 -9 35 -19 117 -22 181 l-6 117 29 6 c230 51 396 132 490
238 21 25 41 45 44 46 3 0 14 -17 24 -40z m111 -936 c15 -84 28 -118 58 -148
18 -18 39 -34 47 -37 23 -7 -29 -80 -88 -123 -83 -60 -151 -80 -277 -80 -105
0 -114 2 -177 33 -64 31 -168 128 -168 155 0 7 14 20 30 29 36 21 65 66 87
138 9 30 17 56 18 57 1 1 28 -9 61 -22 114 -46 245 -42 344 10 25 13 48 24 52
24 4 1 10 -16 13 -36z"/>
<path d="M1091 1296 c-20 -24 -10 -70 16 -74 30 -4 49 32 34 64 -12 27 -33 31
-50 10z"/>
<path d="M658 1274 c-14 -30 -1 -59 27 -59 28 0 41 29 27 59 -15 33 -39 33
-54 0z"/>
<path d="M787 983 c-28 -27 32 -63 107 -63 59 0 102 14 110 37 8 21 -17 26
-50 8 -39 -20 -72 -19 -119 5 -46 23 -40 22 -48 13z"/>
</g>
</svg>
