<?xml version="1.0" standalone="no"?>
<!DOCTYPE svg PUBLIC "-//W3C//DTD SVG 20010904//EN"
 "http://www.w3.org/TR/2001/REC-SVG-20010904/DTD/svg10.dtd">
<svg version="1.0" xmlns="http://www.w3.org/2000/svg"
 width="225.000000pt" height="220.000000pt" viewBox="0 0 225.000000 220.000000"
 preserveAspectRatio="xMidYMid meet">
<metadata>
Created by potrace 1.16, written by Peter Selinger 2001-2019
</metadata>
<g transform="translate(0.000000,220.000000) scale(0.100000,-0.100000)"
fill="#000000" stroke="none">
<path d="M979 2191 c-191 -61 -375 -281 -439 -525 l-22 -82 -66 -12 c-107 -18
-223 -81 -312 -171 -158 -159 -183 -300 -75 -419 50 -56 102 -84 221 -121
l100 -31 24 -82 c42 -145 124 -294 224 -405 64 -71 46 -103 -57 -103 -71 0
-112 -17 -156 -65 -50 -55 -56 -101 -16 -141 l25 -25 199 3 c188 3 201 4 229
25 28 20 31 21 44 6 32 -39 66 -43 391 -43 182 0 338 5 373 11 72 13 144 48
206 100 l46 39 44 -20 c74 -34 177 -21 231 28 112 101 42 332 -99 332 l-31 0
-7 105 c-14 214 -71 354 -195 475 -108 106 -239 179 -379 211 -64 15 -224 12
-361 -6 -170 -22 -202 -21 -233 13 -58 61 -57 65 36 117 163 91 315 231 380
348 68 122 83 226 42 274 -21 25 -31 28 -78 27 -33 -1 -75 -11 -112 -28 -32
-14 -60 -26 -62 -26 -2 0 1 12 6 26 16 42 12 119 -7 143 -20 24 -74 35 -114
22z m76 -45 c15 -11 17 -22 12 -68 -8 -79 -27 -110 -138 -224 -127 -132 -264
-342 -243 -375 12 -20 32 -7 48 34 44 114 195 300 328 404 105 81 234 122 258
83 25 -39 -9 -164 -70 -257 -71 -107 -256 -262 -396 -329 l-74 -35 25 -48 c13
-26 40 -62 60 -79 31 -28 43 -32 93 -32 32 0 95 5 140 10 192 24 261 27 340
15 149 -24 275 -90 393 -205 118 -115 173 -247 185 -440 17 -274 -135 -509
-356 -548 -70 -13 -700 -3 -717 10 -30 24 -2 87 51 115 23 13 66 18 163 21
160 5 177 15 109 61 -88 61 -135 149 -136 251 0 152 125 292 283 315 73 11 80
40 8 37 -108 -4 -244 -100 -297 -208 -59 -121 -39 -262 51 -362 l45 -50 -108
-3 c-129 -5 -156 -18 -221 -103 -25 -34 -58 -64 -77 -72 -44 -18 -364 -20
-382 -2 -22 22 -13 50 27 88 36 34 46 39 113 45 90 9 113 17 133 49 16 25 37
95 50 169 5 29 2 39 -11 44 -21 8 -30 -9 -38 -69 -7 -50 -7 -50 -28 -32 -79
71 -190 267 -227 400 -29 107 -29 107 -133 138 -149 45 -220 91 -259 167 -28
55 -24 105 13 180 72 143 247 268 410 292 l75 11 12 65 c19 105 55 195 114
284 84 125 188 215 295 253 47 17 54 17 77 0z m1085 -1713 c15 -9 38 -33 49
-53 52 -92 2 -208 -97 -226 -35 -7 -119 9 -135 25 -4 4 8 38 27 76 19 37 42
96 52 131 16 60 19 64 46 64 17 0 43 -7 58 -17z"/>
<path d="M316 1308 c-20 -11 -21 -52 0 -72 36 -37 83 -2 65 47 -11 27 -40 39
-65 25z"/>
</g>
</svg>
