<?xml version="1.0" standalone="no"?>
<!DOCTYPE svg PUBLIC "-//W3C//DTD SVG 20010904//EN"
 "http://www.w3.org/TR/2001/REC-SVG-20010904/DTD/svg10.dtd">
<svg version="1.0" xmlns="http://www.w3.org/2000/svg"
 width="233.000000pt" height="204.000000pt" viewBox="0 0 233.000000 204.000000"
 preserveAspectRatio="xMidYMid meet">
<metadata>
Created by potrace 1.16, written by Peter Selinger 2001-2019
</metadata>
<g transform="translate(0.000000,204.000000) scale(0.100000,-0.100000)"
fill="#000000" stroke="none">
<path d="M765 2016 c-175 -44 -319 -116 -381 -189 -60 -71 -100 -198 -210
-676 -122 -529 -167 -775 -168 -926 -1 -44 2 -51 25 -62 37 -18 131 -41 198
-49 l59 -6 17 53 c10 30 42 118 71 195 59 156 105 313 139 474 l22 105 6 -437
c3 -276 9 -444 16 -456 15 -28 47 -31 476 -38 448 -7 688 4 718 35 18 18 20
45 25 455 3 240 6 435 8 433 2 -1 13 -50 24 -107 29 -137 79 -302 142 -464 28
-72 58 -156 67 -186 l17 -55 61 2 c69 3 218 47 226 66 5 13 -5 133 -23 278
-16 129 -165 802 -241 1083 -48 182 -85 262 -142 311 -79 69 -253 143 -414
176 -52 11 -71 10 -141 -5 -101 -22 -282 -23 -383 -2 -93 20 -105 20 -214 -8z
m659 -38 c-21 -69 -75 -126 -153 -162 -91 -41 -217 -21 -298 48 -31 26 -80
112 -70 122 3 3 32 0 64 -7 82 -19 344 -16 403 4 61 20 62 20 54 -5z m-557
-31 c39 -145 248 -237 405 -177 80 30 162 106 185 172 18 49 18 49 53 43 59
-11 192 -56 256 -86 125 -59 170 -110 213 -243 62 -187 245 -979 279 -1209 11
-70 13 -68 -136 -108 l-103 -28 -21 47 c-87 200 -159 505 -211 887 -9 68 -16
90 -27 90 -13 0 -16 -69 -21 -540 -3 -297 -6 -540 -7 -541 -1 -1 -73 -7 -159
-15 -278 -25 -952 -13 -982 16 -3 4 -5 247 -3 542 l3 534 -23 -3 c-20 -3 -23
-12 -39 -139 -32 -256 -87 -502 -157 -709 -43 -124 -60 -170 -64 -170 -24 0
-248 68 -248 75 0 19 42 232 85 430 119 547 198 857 241 936 50 92 154 154
359 214 108 32 109 32 122 -18z m-673 -1652 c48 -13 90 -26 92 -28 2 -2 -3
-27 -12 -57 l-16 -53 -49 6 c-27 3 -77 14 -110 23 l-61 17 7 36 c15 92 16 93
38 86 12 -4 62 -17 111 -30z m2080 -11 c11 -80 11 -79 -51 -98 -32 -9 -79 -20
-105 -25 l-47 -8 -16 54 c-17 60 -14 73 18 74 12 0 56 11 97 24 41 12 80 23
86 24 6 1 14 -20 18 -45z m-549 -144 c-1 -39 -4 -73 -6 -75 -2 -2 -105 -9
-229 -16 -220 -11 -713 -6 -840 9 l-55 7 -3 69 -3 69 60 -6 c204 -22 491 -29
693 -17 117 6 242 15 278 19 118 15 108 21 105 -59z"/>
</g>
</svg>
