<?xml version="1.0" standalone="no"?>
<!DOCTYPE svg PUBLIC "-//W3C//DTD SVG 20010904//EN"
 "http://www.w3.org/TR/2001/REC-SVG-20010904/DTD/svg10.dtd">
<svg version="1.0" xmlns="http://www.w3.org/2000/svg"
 width="247.000000pt" height="118.000000pt" viewBox="0 0 247.000000 118.000000"
 preserveAspectRatio="xMidYMid meet">
<metadata>
Created by potrace 1.16, written by Peter Selinger 2001-2019
</metadata>
<g transform="translate(0.000000,118.000000) scale(0.100000,-0.100000)"
fill="#000000" stroke="none">
<path d="M1090 1171 c-49 -15 -96 -45 -154 -97 -33 -30 -78 -63 -101 -74 -117
-57 -284 -48 -518 26 -77 24 -160 44 -183 44 -39 0 -43 -2 -58 -39 -19 -49
-51 -207 -66 -321 -15 -126 -13 -685 3 -698 8 -7 130 -11 348 -11 375 -2 356
-5 366 69 4 30 10 40 20 36 7 -3 44 -11 81 -17 37 -6 132 -27 212 -47 l145
-37 380 0 c375 0 382 0 506 27 212 45 307 87 359 160 42 58 47 96 21 181 -25
83 -42 110 -100 154 -59 45 -147 69 -354 97 -202 27 -270 52 -307 111 -12 19
-35 45 -51 59 -29 25 -29 26 -13 51 16 25 16 27 0 43 -16 16 -19 16 -48 -1
-30 -17 -31 -17 -80 14 l-49 32 21 21 c11 12 20 34 20 48 0 34 -32 43 -57 16
-33 -37 -47 -39 -87 -12 l-37 25 18 30 c16 27 16 30 0 46 -14 15 -20 15 -42 3
-24 -13 -28 -12 -55 18 -43 48 -84 60 -140 43z m81 -84 c45 -30 47 -48 9 -101
-27 -37 -30 -47 -21 -65 16 -29 35 -26 79 13 l38 35 32 -21 c18 -11 32 -22 32
-24 0 -3 -10 -18 -21 -34 -12 -16 -19 -36 -16 -44 9 -24 47 -19 69 9 25 32 33
32 89 -7 l47 -32 -40 -47 c-41 -49 -44 -73 -12 -86 10 -4 31 10 63 41 l47 46
33 -34 c31 -32 33 -38 27 -82 -6 -48 -50 -140 -70 -147 -6 -2 -62 0 -125 6
-172 15 -312 -1 -406 -47 -40 -20 -101 -62 -139 -97 l-67 -62 -87 18 c-48 9
-94 19 -103 21 -12 3 -18 22 -23 73 -16 158 -128 296 -318 390 -60 30 -114 51
-123 48 -8 -4 -15 -17 -15 -31 0 -21 15 -33 110 -82 173 -90 269 -203 278
-327 l5 -60 -233 6 c-128 3 -235 9 -238 12 -4 3 -8 52 -10 108 -5 118 28 369
59 457 10 30 19 56 19 57 0 10 53 -3 180 -43 132 -41 157 -46 275 -51 194 -8
263 14 395 127 59 51 105 79 131 80 9 0 31 -10 50 -23z m619 -493 c36 -12 135
-32 220 -43 184 -25 239 -41 302 -87 59 -42 72 -79 37 -107 -67 -54 -250 -120
-377 -136 -170 -21 -476 -24 -661 -7 -165 16 -383 55 -399 70 -11 12 74 82
139 115 90 45 153 54 314 47 77 -4 162 -8 190 -9 l50 -2 33 55 c18 30 38 74
45 98 9 32 15 41 27 36 8 -4 44 -17 80 -30z m-1220 -308 c61 -4 282 -52 450
-98 107 -29 338 -47 600 -48 365 0 497 21 670 106 58 29 107 50 109 48 2 -2
-2 -18 -9 -35 -28 -66 -154 -123 -356 -163 -273 -53 -797 -43 -1009 19 -50 15
-130 33 -180 40 -49 8 -107 17 -127 21 -34 6 -38 4 -48 -20 -5 -15 -10 -41
-10 -57 l0 -29 -102 -1 c-57 -1 -190 -2 -296 -2 l-192 -2 0 117 0 117 218 -5
c119 -2 246 -6 282 -8z"/>
</g>
</svg>
