<?xml version="1.0" standalone="no"?>
<!DOCTYPE svg PUBLIC "-//W3C//DTD SVG 20010904//EN"
 "http://www.w3.org/TR/2001/REC-SVG-20010904/DTD/svg10.dtd">
<svg version="1.0" xmlns="http://www.w3.org/2000/svg"
 width="226.000000pt" height="166.000000pt" viewBox="0 0 226.000000 166.000000"
 preserveAspectRatio="xMidYMid meet">
<metadata>
Created by potrace 1.16, written by Peter Selinger 2001-2019
</metadata>
<g transform="translate(0.000000,166.000000) scale(0.100000,-0.100000)"
fill="#000000" stroke="none">
<path d="M144 1644 c-55 -19 -96 -55 -120 -108 l-24 -51 2 -665 c3 -659 3
-665 25 -705 27 -51 66 -79 135 -100 49 -14 159 -15 989 -13 l934 3 56 28 c38
18 66 41 85 69 l29 41 0 681 c0 631 -1 683 -18 713 -22 41 -52 70 -98 94 -35
17 -80 18 -1000 21 -674 2 -973 0 -995 -8z m316 -814 l0 -760 -136 0 c-156 0
-190 10 -230 69 l-24 36 0 653 c0 712 -2 688 57 730 39 28 52 30 201 31 l132
1 0 -760z m1278 -3 l2 -757 -607 2 -608 3 -3 758 -2 757 607 -2 608 -3 3 -758z
m384 733 c72 -49 68 -6 68 -733 l0 -654 -22 -33 c-41 -60 -75 -70 -230 -70
l-138 0 0 761 0 761 143 -4 c133 -3 146 -5 179 -28z"/>
<path d="M214 1346 c-91 -40 -108 -157 -33 -221 37 -30 115 -35 159 -9 32 19
60 72 60 112 0 33 -31 86 -62 106 -35 22 -89 28 -124 12z m99 -74 c38 -33 6
-112 -46 -112 -12 0 -33 7 -45 16 -18 12 -22 24 -20 52 2 31 9 40 37 54 35 17
43 16 74 -10z"/>
<path d="M192 610 c-36 -22 -62 -72 -62 -118 0 -35 36 -92 70 -110 39 -20 125
-10 155 18 54 51 54 149 0 200 -36 33 -118 39 -163 10z m120 -57 c39 -35 8
-123 -45 -123 -12 0 -33 7 -45 16 -31 21 -31 87 0 108 29 21 67 20 90 -1z"/>
<path d="M906 1188 c-14 -19 -16 -70 -16 -355 0 -324 0 -332 21 -346 11 -8 30
-12 42 -9 27 6 405 242 465 290 53 42 58 84 15 124 -44 41 -473 318 -494 318
-10 0 -25 -10 -33 -22z m272 -198 c121 -80 220 -149 219 -153 -2 -9 -439 -298
-443 -294 -6 6 -9 597 -3 595 3 -2 105 -68 227 -148z"/>
<path d="M1929 1335 c-38 -20 -63 -78 -56 -129 4 -30 15 -50 41 -73 31 -28 43
-33 87 -33 46 0 55 4 90 39 33 32 39 45 39 80 0 83 -49 131 -132 131 -24 -1
-55 -7 -69 -15z m114 -57 c27 -22 31 -61 7 -91 -37 -46 -101 -32 -114 26 -12
53 63 98 107 65z"/>
<path d="M1929 613 c-58 -36 -75 -126 -36 -184 28 -42 60 -59 114 -59 125 0
171 179 63 244 -36 21 -107 20 -141 -1z m114 -55 c9 -7 20 -27 23 -45 5 -26 1
-37 -19 -57 -34 -34 -70 -33 -96 0 -27 35 -26 59 4 89 26 27 62 32 88 13z"/>
</g>
</svg>
