<?xml version="1.0" standalone="no"?>
<!DOCTYPE svg PUBLIC "-//W3C//DTD SVG 20010904//EN"
 "http://www.w3.org/TR/2001/REC-SVG-20010904/DTD/svg10.dtd">
<svg version="1.0" xmlns="http://www.w3.org/2000/svg"
 width="182.000000pt" height="182.000000pt" viewBox="0 0 182.000000 182.000000"
 preserveAspectRatio="xMidYMid meet">
<metadata>
Created by potrace 1.16, written by Peter Selinger 2001-2019
</metadata>
<g transform="translate(0.000000,182.000000) scale(0.100000,-0.100000)"
fill="#000000" stroke="none">
<path d="M771 1810 c-243 -34 -474 -176 -612 -376 -44 -64 -104 -195 -129
-284 -31 -107 -38 -295 -15 -415 53 -284 226 -508 493 -639 269 -134 603 -121
861 31 215 128 375 350 426 593 36 170 28 323 -25 482 -50 148 -120 257 -236
369 -120 114 -235 178 -394 218 -97 25 -270 35 -369 21z m329 -55 c162 -34
322 -126 440 -252 89 -95 148 -195 190 -321 29 -86 34 -113 37 -232 4 -96 1
-155 -10 -205 -58 -274 -238 -502 -491 -621 -111 -52 -176 -66 -331 -71 -125
-4 -150 -2 -237 21 -167 43 -306 124 -424 249 -383 403 -280 1066 209 1346 71
41 216 88 307 100 91 12 214 6 310 -14z"/>
<path d="M1029 945 l-233 -296 -32 33 c-17 18 -78 83 -134 143 -56 61 -108
113 -115 117 -7 4 -18 1 -24 -6 -10 -11 18 -46 141 -178 84 -89 159 -163 165
-163 18 0 494 607 491 624 -2 8 -8 16 -14 18 -7 2 -117 -129 -245 -292z"/>
</g>
</svg>
