<?xml version="1.0" standalone="no"?>
<!DOCTYPE svg PUBLIC "-//W3C//DTD SVG 20010904//EN"
 "http://www.w3.org/TR/2001/REC-SVG-20010904/DTD/svg10.dtd">
<svg version="1.0" xmlns="http://www.w3.org/2000/svg"
 width="171.000000pt" height="167.000000pt" viewBox="0 0 171.000000 167.000000"
 preserveAspectRatio="xMidYMid meet">
<metadata>
Created by potrace 1.16, written by Peter Selinger 2001-2019
</metadata>
<g transform="translate(0.000000,167.000000) scale(0.100000,-0.100000)"
fill="#000000" stroke="none">
<path d="M810 1628 c-6 -24 -20 -77 -31 -118 -11 -41 -53 -156 -92 -255 l-73
-180 -59 -6 c-33 -4 -139 -8 -235 -9 -96 -1 -206 -5 -245 -9 -118 -10 -110
-21 137 -204 117 -86 221 -163 232 -170 18 -13 15 -26 -73 -318 -50 -167 -91
-312 -91 -322 0 -37 31 -27 122 40 160 118 250 179 342 231 75 43 92 50 110
40 32 -17 340 -223 434 -290 85 -61 115 -69 120 -30 4 23 -54 231 -132 482
-37 116 -43 147 -33 155 7 6 115 86 240 179 223 166 254 196 210 210 -15 4
-532 36 -594 36 -10 0 -20 11 -24 28 -3 15 -38 97 -77 182 -40 85 -86 202
-104 260 -26 85 -36 106 -52 108 -17 3 -23 -5 -32 -40z m135 -307 c26 -57 59
-138 74 -179 25 -73 28 -77 66 -88 22 -6 155 -17 295 -24 140 -7 256 -13 257
-14 1 -1 -99 -76 -223 -168 -176 -132 -224 -172 -224 -190 0 -12 29 -117 64
-233 82 -269 107 -357 98 -353 -4 2 -91 60 -192 129 -266 182 -316 212 -339
204 -29 -9 -227 -137 -360 -233 -63 -45 -116 -80 -118 -78 -4 4 69 255 138
474 22 69 27 98 19 112 -5 10 -102 85 -215 167 -113 81 -205 150 -205 154 0 6
242 18 409 20 143 1 152 4 175 64 11 28 41 102 67 165 25 63 59 153 74 200 14
47 29 92 31 100 3 8 17 -16 33 -55 15 -38 49 -117 76 -174z"/>
<path d="M1367 1488 c-65 -89 -117 -168 -117 -176 0 -6 7 -12 15 -15 9 -4 28
9 49 35 42 49 106 154 106 174 0 25 -28 15 -53 -18z"/>
<path d="M314 1455 c-8 -20 113 -165 137 -165 35 0 20 35 -47 108 -68 74 -81
82 -90 57z"/>
</g>
</svg>
