<?xml version="1.0" standalone="no"?>
<!DOCTYPE svg PUBLIC "-//W3C//DTD SVG 20010904//EN"
 "http://www.w3.org/TR/2001/REC-SVG-20010904/DTD/svg10.dtd">
<svg version="1.0" xmlns="http://www.w3.org/2000/svg"
 width="182.000000pt" height="180.000000pt" viewBox="0 0 182.000000 180.000000"
 preserveAspectRatio="xMidYMid meet">
<metadata>
Created by potrace 1.16, written by Peter Selinger 2001-2019
</metadata>
<g transform="translate(0.000000,180.000000) scale(0.100000,-0.100000)"
fill="#000000" stroke="none">
<path d="M744 1790 c-181 -33 -338 -115 -469 -245 -195 -193 -285 -417 -272
-680 8 -178 51 -316 142 -456 117 -181 281 -305 495 -374 70 -23 109 -28 224
-33 200 -7 336 22 484 104 472 259 617 878 308 1309 -121 169 -312 303 -508
357 -83 23 -319 33 -404 18z m391 -55 c154 -42 335 -157 435 -277 208 -249
265 -570 154 -867 -75 -200 -248 -384 -446 -475 -232 -108 -510 -108 -737 0
-411 193 -604 669 -445 1093 43 114 101 200 208 307 90 89 113 106 206 152
150 74 237 93 420 88 93 -3 167 -10 205 -21z"/>
<path d="M887 1454 c-4 -4 -7 -35 -7 -70 l0 -62 -45 -6 c-61 -10 -134 -61
-162 -115 -59 -113 2 -238 142 -290 30 -12 60 -21 66 -21 6 0 8 -66 7 -177
l-3 -178 -40 4 c-73 6 -136 52 -158 114 -9 25 -43 18 -39 -8 12 -69 87 -130
180 -147 l62 -12 0 -68 c0 -61 2 -69 18 -66 14 3 18 16 20 69 l3 67 59 11
c166 33 244 212 144 330 -28 33 -109 75 -166 86 l-38 7 0 179 c0 200 -4 190
73 168 47 -13 106 -63 124 -106 9 -22 20 -33 33 -33 24 0 25 11 4 53 -37 73
-107 122 -189 133 l-44 7 -3 66 c-2 50 -7 67 -18 69 -9 1 -19 0 -23 -4z m3
-343 c-1 -93 -4 -172 -7 -175 -11 -11 -108 35 -140 66 -67 65 -69 152 -3 218
38 38 80 57 128 59 l23 1 -1 -169z m147 -263 c81 -38 117 -109 93 -185 -22
-67 -86 -117 -160 -124 l-35 -4 -3 173 -2 174 32 -7 c18 -4 52 -16 75 -27z"/>
</g>
</svg>
