<?xml version="1.0" standalone="no"?>
<!DOCTYPE svg PUBLIC "-//W3C//DTD SVG 20010904//EN"
 "http://www.w3.org/TR/2001/REC-SVG-20010904/DTD/svg10.dtd">
<svg version="1.0" xmlns="http://www.w3.org/2000/svg"
 width="185.000000pt" height="208.000000pt" viewBox="0 0 185.000000 208.000000"
 preserveAspectRatio="xMidYMid meet">
<metadata>
Created by potrace 1.16, written by Peter Selinger 2001-2019
</metadata>
<g transform="translate(0.000000,208.000000) scale(0.100000,-0.100000)"
fill="#000000" stroke="none">
<path d="M377 2070 c-56 -14 -77 -28 -77 -51 0 -12 42 -63 106 -129 l105 -108
-21 -80 -21 -79 -77 -21 -77 -22 -112 112 c-117 116 -133 124 -153 73 -32 -85
-19 -210 33 -308 73 -139 254 -235 396 -209 48 9 51 8 80 -22 l31 -32 -71 -69
c-41 -41 -81 -93 -97 -125 -25 -51 -27 -66 -32 -217 l-5 -163 -192 -193 c-196
-196 -226 -237 -170 -237 18 0 77 54 225 204 161 163 202 210 203 233 1 15 2
89 3 163 1 126 3 138 28 185 30 57 171 199 213 215 35 13 304 -14 345 -35 26
-13 50 -52 50 -81 0 -29 -29 -71 -58 -83 -22 -9 -54 -9 -131 -2 -144 15 -168
14 -176 -6 -4 -12 1 -23 15 -33 100 -70 150 -156 150 -254 -1 -34 -7 -79 -15
-101 -18 -50 -19 -70 -2 -84 30 -25 69 45 83 148 8 61 -17 161 -56 221 -16 24
-28 45 -27 46 1 1 37 -1 80 -3 69 -5 77 -8 77 -26 0 -27 44 -83 80 -102 16 -8
44 -15 63 -15 30 0 35 -4 40 -29 8 -40 52 -88 94 -102 52 -17 105 2 168 62
l51 49 126 -128 c143 -144 152 -163 119 -237 -16 -37 -29 -50 -66 -66 -75 -33
-98 -21 -257 138 -116 115 -141 136 -155 127 -26 -16 -26 -27 2 -69 l26 -38
-58 -59 c-74 -75 -137 -106 -238 -117 l-78 -9 -129 -129 c-70 -70 -127 -134
-126 -142 2 -8 11 -19 20 -25 15 -9 36 7 140 110 l123 122 77 11 c106 15 159
43 249 128 l75 72 85 -85 c55 -55 98 -90 126 -100 82 -32 185 4 232 79 27 45
35 86 26 144 -6 44 -16 56 -141 183 l-134 136 31 30 c44 41 72 107 65 150 -9
46 -50 91 -95 105 -34 10 -37 14 -33 40 9 63 -59 149 -118 149 -28 0 -30 3
-30 35 0 78 -66 140 -140 133 -34 -3 -40 -1 -40 15 0 65 -68 127 -139 127 -51
0 -85 -17 -131 -64 l-34 -36 -36 35 -36 36 10 55 c30 165 -70 351 -228 425
-71 33 -173 45 -239 29z m198 -81 c67 -25 141 -94 175 -164 22 -45 25 -63 25
-172 l0 -122 43 -44 42 -43 -103 -102 c-57 -56 -108 -102 -113 -102 -4 0 -25
17 -47 38 l-38 37 -107 0 c-122 0 -165 15 -244 84 -68 61 -101 129 -106 226
l-4 80 94 -92 c66 -66 100 -93 118 -93 32 0 170 39 196 55 15 9 28 43 49 120
l28 107 -96 96 c-54 54 -97 101 -97 105 0 16 131 6 185 -14z m550 -484 c47
-46 26 -93 -93 -209 l-60 -58 -98 11 c-54 6 -99 13 -101 14 -1 2 57 63 131
135 115 114 137 132 165 132 21 0 41 -9 56 -25z m185 -142 c35 -45 21 -76 -74
-172 l-84 -84 -17 37 c-9 19 -33 45 -52 57 l-35 22 68 66 c38 36 80 74 94 83
37 26 75 23 100 -9z m125 -149 c8 -4 22 -19 31 -35 12 -25 12 -33 0 -61 -19
-46 -257 -278 -284 -278 -50 0 -92 40 -92 88 0 10 62 80 138 155 140 139 158
150 207 131z m139 -195 c19 -15 26 -29 26 -56 0 -32 -11 -47 -101 -139 -105
-106 -138 -127 -176 -113 -30 11 -56 54 -49 82 8 32 228 247 253 247 11 0 32
-9 47 -21z"/>
</g>
</svg>
