<?xml version="1.0" standalone="no"?>
<!DOCTYPE svg PUBLIC "-//W3C//DTD SVG 20010904//EN"
 "http://www.w3.org/TR/2001/REC-SVG-20010904/DTD/svg10.dtd">
<svg version="1.0" xmlns="http://www.w3.org/2000/svg"
 width="193.000000pt" height="106.000000pt" viewBox="0 0 193.000000 106.000000"
 preserveAspectRatio="xMidYMid meet">
<metadata>
Created by potrace 1.16, written by Peter Selinger 2001-2019
</metadata>
<g transform="translate(0.000000,106.000000) scale(0.100000,-0.100000)"
fill="#000000" stroke="none">
<path d="M393 1046 c-268 -65 -436 -343 -378 -627 34 -171 127 -298 267 -364
195 -93 414 -58 563 90 208 206 209 565 1 770 -126 124 -287 171 -453 131z
m188 -46 c211 -40 370 -244 369 -474 -1 -290 -261 -518 -529 -462 -174 36
-293 149 -345 325 -18 62 -21 193 -5 261 39 170 180 310 349 346 71 16 95 16
161 4z"/>
<path d="M1227 1049 c-16 -9 -17 -45 -17 -508 0 -431 2 -500 15 -511 12 -10
18 -10 30 0 12 10 15 45 15 195 l0 183 83 76 82 76 25 -28 c14 -15 115 -137
224 -270 157 -190 204 -242 223 -242 12 0 23 6 23 13 0 6 -102 135 -225 285
-124 151 -225 277 -225 282 0 4 97 101 215 216 119 114 214 212 212 218 -2 6
-13 12 -25 14 -16 3 -90 -64 -314 -282 l-293 -286 -3 279 c-2 291 -6 312 -45
290z"/>
</g>
</svg>
