<?xml version="1.0" standalone="no"?>
<!DOCTYPE svg PUBLIC "-//W3C//DTD SVG 20010904//EN"
 "http://www.w3.org/TR/2001/REC-SVG-20010904/DTD/svg10.dtd">
<svg version="1.0" xmlns="http://www.w3.org/2000/svg"
 width="165.000000pt" height="164.000000pt" viewBox="0 0 165.000000 164.000000"
 preserveAspectRatio="xMidYMid meet">
<metadata>
Created by potrace 1.16, written by Peter Selinger 2001-2019
</metadata>
<g transform="translate(0.000000,164.000000) scale(0.100000,-0.100000)"
fill="#000000" stroke="none">
<path d="M665 1627 c-3 -7 -4 -156 -3 -330 l3 -317 -326 0 c-289 0 -328 -2
-333 -16 -3 -9 -6 -78 -6 -154 0 -112 3 -140 15 -150 13 -10 81 -12 330 -6
l315 7 2 -328 3 -328 160 0 160 0 3 328 2 329 328 -4 327 -3 3 163 2 162 -330
0 -330 0 -2 328 -3 327 -158 3 c-123 2 -159 0 -162 -11z m275 -340 c0 -199 3
-314 10 -327 10 -19 22 -20 335 -20 l325 0 0 -126 0 -125 -324 7 -324 7 -11
-22 c-8 -15 -11 -111 -9 -331 l3 -310 -117 0 -118 0 0 319 c0 272 -2 320 -15
331 -12 10 -84 11 -330 5 l-315 -7 0 126 0 126 318 0 c234 0 321 3 330 12 9 9
12 96 12 330 l0 319 116 -3 115 -3 -1 -308z"/>
</g>
</svg>
