<?xml version="1.0" standalone="no"?>
<!DOCTYPE svg PUBLIC "-//W3C//DTD SVG 20010904//EN"
 "http://www.w3.org/TR/2001/REC-SVG-20010904/DTD/svg10.dtd">
<svg version="1.0" xmlns="http://www.w3.org/2000/svg"
 width="178.000000pt" height="318.000000pt" viewBox="0 0 178.000000 318.000000"
 preserveAspectRatio="xMidYMid meet">
<metadata>
Created by potrace 1.16, written by Peter Selinger 2001-2019
</metadata>
<g transform="translate(0.000000,318.000000) scale(0.100000,-0.100000)"
fill="#000000" stroke="none">
<path d="M345 3155 c-21 -20 -25 -34 -25 -85 l0 -60 -120 0 -120 0 -38 -34
-37 -34 0 -735 0 -735 25 -27 c52 -57 26 -55 852 -55 496 0 776 4 800 10 24 7
48 24 65 47 l28 36 3 702 c3 773 4 761 -57 802 -30 21 -46 23 -147 23 l-114 0
0 54 c0 70 -29 110 -80 108 -51 -1 -73 -30 -78 -102 l-4 -60 -414 0 -414 0 0
64 c0 58 -3 67 -26 85 -35 28 -69 26 -99 -4z m83 -27 c18 -18 16 -258 -1 -283
-19 -24 -63 -14 -70 17 -7 29 0 256 8 268 9 14 49 12 63 -2z m980 0 c8 -8 12
-57 12 -155 l0 -143 -25 -6 c-49 -12 -55 6 -55 157 0 121 2 139 18 148 23 14
36 13 50 -1z m-1088 -225 c5 -79 17 -99 65 -109 22 -4 38 0 57 16 24 19 27 28
30 93 l3 72 411 3 412 2 4 -76 c3 -69 6 -79 31 -100 36 -31 71 -30 102 1 22
21 25 33 25 100 l0 75 88 0 c179 0 192 -14 192 -215 l0 -135 -850 0 -850 0 0
144 c0 129 2 146 20 169 25 32 41 35 160 33 l95 -1 5 -72z m1420 -853 c0 -397
-3 -546 -12 -565 -26 -57 0 -55 -848 -55 l-782 0 -29 29 -29 29 0 554 0 553
850 -3 850 -2 0 -540z"/>
<path d="M407 2284 c-4 -4 -7 -116 -7 -249 0 -189 3 -245 13 -254 28 -22 37 9
37 126 l0 112 98 3 c78 2 97 6 97 18 0 12 -19 16 -97 18 l-98 3 0 94 0 95 116
0 c105 0 115 2 112 18 -3 15 -19 17 -134 20 -71 1 -133 -1 -137 -4z"/>
<path d="M817 2283 c-4 -3 -7 -118 -7 -254 0 -202 3 -248 14 -252 8 -3 17 -3
20 0 3 4 6 53 6 110 l0 103 64 0 63 0 77 -110 c42 -60 82 -110 87 -110 29 0
14 38 -50 126 l-70 97 42 21 c98 49 103 190 8 253 -30 20 -46 23 -141 23 -59
0 -110 -3 -113 -7z m232 -48 c35 -18 55 -64 48 -111 -11 -69 -57 -94 -172 -94
l-75 0 0 110 0 110 85 0 c56 0 96 -5 114 -15z"/>
<path d="M1320 2036 c0 -140 4 -257 8 -260 4 -2 13 -1 20 3 9 6 12 69 10 257
-3 228 -4 249 -20 252 -17 3 -18 -14 -18 -252z"/>
<path d="M970 395 c0 -62 -1 -65 -19 -55 -39 20 -91 12 -122 -19 -26 -27 -29
-36 -29 -96 0 -60 3 -69 29 -96 31 -31 83 -39 122 -19 13 7 19 7 19 0 0 -5 9
-10 20 -10 19 0 20 7 20 180 0 173 -1 180 -20 180 -18 0 -20 -7 -20 -65z m-25
-100 c35 -34 35 -106 0 -140 -29 -30 -45 -31 -79 -4 -22 18 -26 28 -26 74 0
46 4 56 26 74 34 27 50 26 79 -4z"/>
<path d="M710 425 c0 -18 5 -25 20 -25 15 0 20 7 20 25 0 18 -5 25 -20 25 -15
0 -20 -7 -20 -25z"/>
<path d="M320 270 c0 -163 1 -170 20 -170 18 0 20 7 20 75 l0 75 75 0 c68 0
75 2 75 20 0 18 -7 20 -75 20 l-75 0 0 61 0 61 75 -4 c67 -3 75 -1 75 14 0 16
-11 18 -95 18 l-95 0 0 -170z"/>
<path d="M550 225 c0 -118 1 -125 20 -125 18 0 20 7 20 85 0 72 3 88 20 105
11 11 29 20 39 20 16 0 31 18 31 36 0 11 -59 2 -70 -11 -7 -8 -16 -15 -21 -15
-5 0 -6 7 -3 15 4 10 0 15 -15 15 -20 0 -21 -5 -21 -125z"/>
<path d="M710 225 c0 -118 1 -125 20 -125 19 0 20 7 20 125 0 118 -1 125 -20
125 -19 0 -20 -7 -20 -125z"/>
<path d="M1091 331 c-16 -12 -22 -24 -18 -35 8 -21 20 -20 42 4 32 36 95 21
95 -22 0 -12 -8 -18 -22 -18 -41 0 -98 -21 -118 -42 -64 -69 30 -149 120 -103
26 14 29 14 24 0 -4 -10 0 -15 15 -15 20 0 21 5 21 103 0 95 -2 105 -23 125
-30 28 -101 30 -136 3z m119 -125 c0 -52 -71 -94 -104 -61 -31 32 -13 61 47
75 52 13 57 11 57 -14z"/>
<path d="M1271 343 c2 -5 24 -62 48 -127 41 -111 43 -121 30 -145 -8 -14 -24
-27 -36 -29 -27 -4 -38 -31 -17 -39 9 -3 28 -2 43 3 28 10 40 34 110 233 37
107 38 112 18 109 -17 -2 -27 -21 -51 -95 -17 -51 -33 -93 -36 -93 -3 0 -19
42 -36 93 -26 77 -34 93 -53 95 -13 2 -22 0 -20 -5z"/>
</g>
</svg>
