<?xml version="1.0" standalone="no"?>
<!DOCTYPE svg PUBLIC "-//W3C//DTD SVG 20010904//EN"
 "http://www.w3.org/TR/2001/REC-SVG-20010904/DTD/svg10.dtd">
<svg version="1.0" xmlns="http://www.w3.org/2000/svg"
 width="174.000000pt" height="184.000000pt" viewBox="0 0 174.000000 184.000000"
 preserveAspectRatio="xMidYMid meet">
<metadata>
Created by potrace 1.16, written by Peter Selinger 2001-2019
</metadata>
<g transform="translate(0.000000,184.000000) scale(0.100000,-0.100000)"
fill="#000000" stroke="none">
<path d="M293 1822 c-45 -24 -169 -129 -202 -171 -16 -20 -36 -53 -45 -74 -19
-47 -46 -185 -46 -239 0 -46 58 -207 107 -297 96 -178 359 -502 538 -664 162
-147 337 -256 542 -338 105 -42 135 -44 233 -19 100 25 148 51 225 121 71 65
95 112 95 182 0 69 -10 81 -152 192 -175 136 -233 158 -310 115 -23 -13 -38
-18 -34 -11 4 6 2 11 -3 11 -6 0 -11 -4 -11 -10 0 -17 -88 -70 -118 -70 -45 0
-91 39 -309 266 -230 239 -273 288 -273 315 0 33 28 89 68 138 54 64 62 82 62
139 0 54 -24 108 -117 262 -70 114 -91 140 -129 156 -44 18 -82 17 -121 -4z
m129 -51 c18 -16 69 -89 113 -162 68 -115 79 -142 83 -189 3 -50 1 -59 -30
-98 -68 -89 -78 -106 -89 -144 -17 -65 -4 -91 106 -211 151 -165 410 -419 447
-439 54 -30 88 -23 169 32 57 39 83 50 112 50 50 0 125 -38 196 -99 31 -26 79
-64 106 -85 80 -60 91 -96 54 -169 -29 -55 -115 -138 -172 -165 -117 -55 -223
-56 -351 -6 -231 92 -391 207 -625 450 -287 299 -501 644 -501 810 0 63 25
185 47 228 22 43 99 122 172 177 78 59 114 64 163 20z"/>
<path d="M1265 650 c-3 -5 -2 -10 4 -10 5 0 13 5 16 10 3 6 2 10 -4 10 -5 0
-13 -4 -16 -10z"/>
</g>
</svg>
