<?xml version="1.0" standalone="no"?>
<!DOCTYPE svg PUBLIC "-//W3C//DTD SVG 20010904//EN"
 "http://www.w3.org/TR/2001/REC-SVG-20010904/DTD/svg10.dtd">
<svg version="1.0" xmlns="http://www.w3.org/2000/svg"
 width="198.000000pt" height="199.000000pt" viewBox="0 0 198.000000 199.000000"
 preserveAspectRatio="xMidYMid meet">
<metadata>
Created by potrace 1.16, written by Peter Selinger 2001-2019
</metadata>
<g transform="translate(0.000000,199.000000) scale(0.100000,-0.100000)"
fill="#000000" stroke="none">
<path d="M780 1971 c-179 -38 -334 -120 -470 -248 -99 -93 -157 -172 -215
-294 -75 -159 -90 -235 -89 -439 0 -162 2 -182 28 -264 29 -96 88 -221 138
-294 122 -177 338 -332 554 -398 81 -25 104 -28 254 -28 143 -1 176 2 250 22
689 188 971 992 549 1564 -221 299 -635 456 -999 379z m356 -42 c74 -13 164
-40 164 -50 0 -4 -8 -10 -17 -14 -10 -3 -82 -44 -160 -91 l-143 -85 -160 98
c-121 73 -157 99 -145 105 69 39 333 60 461 37z m-352 -175 l176 -105 0 -148
0 -147 -167 -113 -167 -113 -120 32 c-67 18 -128 36 -136 40 -13 7 -37 114
-82 362 l-12 68 29 31 c70 73 254 199 292 199 6 0 91 -48 187 -106z m639 80
c73 -37 163 -103 221 -163 l49 -50 -33 -193 c-18 -106 -36 -202 -40 -213 -6
-16 -35 -27 -140 -53 l-132 -34 -169 113 -169 112 0 152 0 153 173 100 c94 55
176 101 180 101 4 1 31 -11 60 -25z m-1148 -445 c20 -96 34 -182 33 -191 -2
-10 -61 -67 -133 -127 -126 -107 -130 -110 -133 -83 -11 81 42 310 95 417 35
69 94 167 99 162 2 -2 20 -82 39 -178z m1565 6 c49 -101 78 -218 87 -337 6
-91 5 -93 -13 -77 -10 8 -70 57 -131 108 -80 66 -113 99 -113 115 0 11 14 97
30 191 17 93 30 172 30 175 0 17 78 -107 110 -175z m-522 -300 c1 -1 -28 -88
-64 -193 l-67 -192 -202 0 -202 0 -61 178 c-33 97 -62 184 -64 192 -2 9 57 55
162 126 l165 111 165 -110 c91 -60 166 -111 168 -112z m-829 24 l119 -32 63
-186 c34 -102 65 -192 69 -200 5 -10 -22 -49 -83 -123 l-91 -109 -46 5 c-25 3
-103 8 -175 11 -71 4 -137 9 -146 11 -37 10 -138 270 -142 365 l-2 46 145 126
c80 69 151 124 157 122 7 -2 66 -18 132 -36z m1298 -92 c99 -82 140 -122 138
-135 -2 -9 -9 -46 -15 -82 -20 -110 -87 -279 -122 -307 -7 -6 -87 -14 -178
-18 -91 -3 -174 -9 -186 -11 -16 -4 -37 15 -102 95 -45 55 -85 107 -88 114 -4
12 118 382 131 396 11 11 260 77 270 72 6 -3 74 -59 152 -124z m-506 -475 l86
-107 -81 -187 -81 -188 -55 -11 c-60 -13 -303 -7 -355 9 -35 10 -33 7 -124
216 l-70 158 91 109 91 109 206 -1 206 0 86 -107z m-849 -118 l127 -6 42 -96
c23 -54 55 -126 70 -161 16 -35 29 -68 29 -72 0 -14 -99 28 -185 79 -79 47
-209 161 -267 235 l-31 39 44 -6 c24 -3 101 -8 171 -12z m1309 -1 c-19 -36
-133 -153 -194 -199 -55 -42 -207 -121 -263 -138 -19 -6 -13 13 48 156 39 90
73 166 77 170 3 4 69 11 146 16 215 14 197 14 186 -5z"/>
</g>
</svg>
