<?xml version="1.0" standalone="no"?>
<!DOCTYPE svg PUBLIC "-//W3C//DTD SVG 20010904//EN"
 "http://www.w3.org/TR/2001/REC-SVG-20010904/DTD/svg10.dtd">
<svg version="1.0" xmlns="http://www.w3.org/2000/svg"
 width="207.000000pt" height="225.000000pt" viewBox="0 0 207.000000 225.000000"
 preserveAspectRatio="xMidYMid meet">
<metadata>
Created by potrace 1.16, written by Peter Selinger 2001-2019
</metadata>
<g transform="translate(0.000000,225.000000) scale(0.100000,-0.100000)"
fill="#000000" stroke="none">
<path d="M34 2216 l-34 -34 0 -1057 0 -1057 34 -34 34 -34 767 2 767 3 29 33
29 32 0 446 c0 419 -1 445 -17 442 -17 -3 -18 -33 -21 -438 -2 -429 -2 -434
-24 -457 l-21 -23 -749 0 c-735 0 -748 0 -768 20 -20 20 -20 33 -20 1063 l0
1044 23 21 23 22 741 0 c714 0 742 -1 764 -19 23 -19 24 -24 27 -202 3 -176 9
-208 34 -193 4 3 8 84 8 181 0 194 -7 225 -59 256 -27 16 -90 17 -781 17
l-752 0 -34 -34z"/>
<path d="M1308 1783 c-68 -81 -104 -219 -87 -340 20 -150 132 -297 276 -366
65 -31 74 -32 188 -32 117 0 122 1 195 36 82 39 190 130 190 160 0 31 -20 22
-81 -36 -34 -33 -87 -69 -126 -88 -64 -30 -75 -32 -178 -32 -103 0 -114 2
-176 31 -86 41 -167 122 -210 210 -29 58 -34 80 -37 159 -5 105 10 166 60 247
27 43 30 68 9 68 -4 0 -15 -8 -23 -17z"/>
<path d="M294 1689 c-3 -6 -2 -15 3 -20 5 -5 174 -8 408 -7 372 3 400 4 403
21 3 16 -21 17 -402 17 -281 0 -407 -3 -412 -11z"/>
<path d="M1793 1478 l-154 -153 -89 95 c-73 78 -89 92 -95 77 -8 -20 -10 -17
94 -134 40 -46 81 -83 90 -83 9 0 90 74 180 164 148 148 176 186 139 186 -6 0
-80 -69 -165 -152z"/>
<path d="M294 1259 c-3 -6 -2 -15 3 -20 5 -5 174 -8 408 -7 372 3 400 4 403
21 3 16 -21 17 -402 17 -281 0 -407 -3 -412 -11z"/>
<path d="M294 829 c-3 -6 -2 -15 3 -20 5 -5 221 -8 528 -7 486 3 520 4 523 21
3 16 -27 17 -522 17 -367 0 -527 -3 -532 -11z"/>
<path d="M295 399 c-4 -6 -3 -15 2 -20 5 -5 156 -8 364 -7 307 3 354 5 354 18
0 13 -47 15 -357 18 -251 1 -359 -1 -363 -9z"/>
</g>
</svg>
