<?xml version="1.0" standalone="no"?>
<!DOCTYPE svg PUBLIC "-//W3C//DTD SVG 20010904//EN"
 "http://www.w3.org/TR/2001/REC-SVG-20010904/DTD/svg10.dtd">
<svg version="1.0" xmlns="http://www.w3.org/2000/svg"
 width="176.000000pt" height="185.000000pt" viewBox="0 0 176.000000 185.000000"
 preserveAspectRatio="xMidYMid meet">
<metadata>
Created by potrace 1.16, written by Peter Selinger 2001-2019
</metadata>
<g transform="translate(0.000000,185.000000) scale(0.100000,-0.100000)"
fill="#000000" stroke="none">
<path d="M836 1828 c-7 -13 -40 -90 -71 -171 -78 -201 -72 -194 -176 -178 -77
12 -84 11 -96 -5 -18 -25 -18 -25 33 -201 61 -206 61 -209 35 -223 -34 -18
-84 -9 -97 18 -18 36 -52 72 -68 72 -8 0 -26 -5 -39 -11 -19 -8 -53 -2 -181
35 -87 25 -163 43 -167 40 -19 -11 -6 -48 72 -209 44 -92 79 -171 77 -176 -2
-4 -28 -23 -58 -41 -57 -34 -71 -58 -49 -84 7 -9 85 -50 173 -93 89 -43 167
-84 173 -92 10 -13 5 -29 -32 -90 -80 -133 -65 -148 138 -142 164 5 192 12
249 59 31 26 49 34 72 32 l31 -3 0 -180 c0 -179 0 -180 23 -183 l22 -3 0 180
0 181 25 6 c16 4 33 0 48 -10 93 -68 82 -65 255 -76 145 -10 166 -10 187 4 35
23 31 48 -20 123 -26 38 -45 75 -43 87 2 16 44 41 176 106 95 47 177 92 182
100 22 34 10 50 -55 79 -76 35 -80 8 29 234 75 155 84 181 68 191 -4 2 -55 -9
-112 -25 -58 -17 -126 -36 -151 -43 -34 -10 -58 -11 -97 -3 -59 12 -66 9 -99
-53 -17 -30 -25 -35 -61 -38 -37 -3 -43 0 -54 23 -13 28 -13 24 46 249 36 136
36 140 18 158 -16 17 -25 17 -96 7 -76 -11 -78 -11 -100 12 -13 13 -47 87 -76
164 -29 77 -59 152 -67 168 -17 33 -47 35 -67 5z m94 -208 c70 -185 92 -206
206 -194 l66 7 -7 -34 c-4 -19 -23 -87 -41 -151 -35 -122 -41 -176 -23 -210
21 -39 115 -61 160 -38 10 6 28 29 39 50 l20 40 53 -6 c42 -5 76 0 163 25 60
17 114 31 120 31 6 0 -23 -65 -63 -145 -92 -183 -94 -213 -14 -250 23 -10 41
-21 41 -24 0 -4 -59 -36 -131 -71 -198 -97 -219 -112 -219 -154 0 -25 13 -54
45 -101 38 -55 43 -67 29 -72 -9 -3 -80 -1 -157 5 -134 11 -143 13 -178 42
-42 33 -79 50 -112 50 -20 0 -22 4 -20 62 1 60 2 62 42 89 22 16 117 67 210
114 93 47 171 92 174 99 3 8 0 19 -6 24 -9 7 -71 -19 -211 -90 -112 -56 -202
-96 -207 -91 -5 5 -10 153 -11 328 -3 312 -3 320 -23 320 -20 0 -20 -6 -19
-332 1 -183 -1 -333 -4 -333 -4 0 -98 46 -209 103 -160 81 -204 99 -214 90
-22 -21 11 -43 220 -148 l199 -100 7 -52 c4 -29 5 -59 2 -66 -3 -8 -26 -17
-52 -19 -34 -4 -56 -14 -78 -36 -18 -16 -41 -34 -52 -40 -24 -12 -305 -28
-305 -17 0 5 13 29 30 54 89 139 80 155 -147 263 -71 33 -134 65 -141 70 -9 8
0 16 36 33 83 38 82 52 -13 244 -42 85 -69 151 -62 151 6 0 67 -16 135 -35 95
-26 129 -32 148 -25 38 15 42 13 63 -28 30 -59 99 -79 160 -48 27 14 51 53 51
82 0 8 -20 81 -45 162 -25 81 -45 155 -45 164 0 15 10 17 81 15 76 -2 82 0
103 24 13 15 49 92 81 173 32 81 62 143 66 139 4 -4 31 -69 59 -143z"/>
</g>
</svg>
