<?xml version="1.0" standalone="no"?>
<!DOCTYPE svg PUBLIC "-//W3C//DTD SVG 20010904//EN"
 "http://www.w3.org/TR/2001/REC-SVG-20010904/DTD/svg10.dtd">
<svg version="1.0" xmlns="http://www.w3.org/2000/svg"
 width="132.000000pt" height="195.000000pt" viewBox="0 0 132.000000 195.000000"
 preserveAspectRatio="xMidYMid meet">
<metadata>
Created by potrace 1.16, written by Peter Selinger 2001-2019
</metadata>
<g transform="translate(0.000000,195.000000) scale(0.100000,-0.100000)"
fill="#000000" stroke="none">
<path d="M504 1935 c-223 -48 -431 -253 -489 -480 -17 -68 -20 -256 -4 -325
18 -82 86 -202 168 -300 44 -52 92 -120 108 -150 26 -53 28 -63 34 -255 8
-243 19 -285 96 -360 49 -48 113 -65 238 -65 125 0 192 18 246 67 76 69 82 91
90 328 4 125 12 224 20 245 18 50 67 126 130 198 68 77 114 152 147 240 24 60
26 81 27 207 0 170 -19 242 -93 356 -96 147 -273 271 -426 298 -79 15 -217 13
-292 -4z m310 -45 c43 -11 105 -34 139 -52 83 -44 214 -175 255 -255 88 -168
94 -384 17 -548 -15 -31 -68 -107 -118 -168 -122 -152 -150 -213 -155 -339
l-4 -98 -94 0 -94 0 0 269 0 269 50 17 c93 31 140 95 126 170 -9 44 -39 65
-94 65 -34 0 -49 -6 -72 -28 -31 -31 -50 -86 -50 -144 l0 -38 -54 0 -53 0 -7
56 c-12 102 -57 154 -132 154 -60 0 -88 -35 -81 -103 5 -60 40 -99 111 -126
l51 -19 3 -271 2 -271 -95 0 -95 0 0 54 c0 137 -41 235 -155 371 -84 100 -150
221 -165 304 -15 79 -12 208 5 276 58 227 258 421 479 465 77 15 200 11 280
-10z m-288 -733 c21 -18 29 -37 34 -78 4 -30 6 -56 4 -57 -1 -2 -16 -1 -32 2
-70 16 -124 102 -87 139 23 23 49 21 81 -6z m345 13 c26 -14 25 -69 -1 -103
-11 -14 -40 -32 -65 -40 l-45 -16 0 32 c0 99 52 158 111 127z m-153 -474 l2
-266 -55 0 -55 0 0 271 0 270 53 -4 52 -4 3 -267z m232 -373 l0 -63 -290 0
-290 0 0 63 0 62 290 0 290 0 0 -62z m-10 -113 c0 -24 -41 -89 -74 -118 -23
-20 -54 -34 -93 -42 -75 -16 -238 -9 -278 13 -55 28 -115 106 -115 148 0 5
113 9 280 9 187 0 280 -3 280 -10z"/>
</g>
</svg>
