<?xml version="1.0" standalone="no"?>
<!DOCTYPE svg PUBLIC "-//W3C//DTD SVG 20010904//EN"
 "http://www.w3.org/TR/2001/REC-SVG-20010904/DTD/svg10.dtd">
<svg version="1.0" xmlns="http://www.w3.org/2000/svg"
 width="181.000000pt" height="201.000000pt" viewBox="0 0 181.000000 201.000000"
 preserveAspectRatio="xMidYMid meet">
<metadata>
Created by potrace 1.16, written by Peter Selinger 2001-2019
</metadata>
<g transform="translate(0.000000,201.000000) scale(0.100000,-0.100000)"
fill="#000000" stroke="none">
<path d="M788 2000 c-295 -47 -518 -266 -583 -575 -11 -52 -20 -163 -25 -320
-11 -317 -31 -391 -131 -486 -31 -30 -47 -53 -43 -62 8 -22 123 -111 179 -140
55 -28 144 -56 188 -59 15 -1 27 -5 27 -8 -1 -3 -44 -25 -97 -50 -53 -25 -118
-64 -144 -88 -71 -63 -123 -186 -88 -208 16 -9 33 13 54 70 33 91 100 138 350
247 122 52 155 83 180 165 l18 62 41 -18 c55 -23 136 -40 194 -40 51 0 150 23
194 45 l27 13 21 -62 c31 -93 56 -113 255 -200 204 -89 259 -133 285 -227 13
-46 34 -66 54 -50 30 25 -19 136 -89 200 -41 38 -215 131 -245 131 -5 0 -10 3
-10 8 0 4 17 8 38 10 48 3 123 28 192 63 62 31 168 112 177 135 3 9 -17 36
-54 72 -101 97 -121 178 -133 537 -9 267 -17 310 -79 440 -93 195 -248 327
-446 379 -74 20 -231 28 -307 16z m333 -82 c37 -14 88 -37 115 -53 101 -59
218 -193 268 -308 50 -112 57 -159 66 -432 9 -277 20 -346 65 -436 14 -27 42
-68 63 -91 l36 -40 -29 -24 c-81 -66 -180 -107 -299 -125 -127 -19 -180 10
-211 114 l-15 51 53 47 c128 115 187 294 187 574 0 94 -7 106 -80 125 -122 32
-227 121 -291 244 -19 36 -40 66 -46 66 -7 0 -24 -21 -37 -47 -77 -151 -228
-242 -439 -264 -128 -14 -137 -22 -137 -123 0 -134 19 -293 43 -358 30 -82 88
-169 147 -220 l47 -41 -18 -60 c-10 -34 -27 -69 -37 -80 -33 -32 -94 -39 -194
-22 -103 18 -195 57 -255 109 l-43 37 39 47 c83 99 107 205 115 508 7 264 20
335 88 473 67 138 154 229 279 290 127 62 173 72 324 67 108 -3 141 -8 196
-28z m-98 -428 c30 -50 127 -149 171 -175 23 -12 68 -31 101 -41 33 -10 63
-20 67 -23 14 -12 -11 -305 -31 -372 -41 -130 -130 -235 -247 -290 -255 -122
-557 43 -619 338 -9 39 -15 124 -15 201 l0 132 53 0 c83 0 186 26 274 70 84
41 177 117 202 164 18 33 23 33 44 -4z"/>
</g>
</svg>
