<?xml version="1.0" standalone="no"?>
<!DOCTYPE svg PUBLIC "-//W3C//DTD SVG 20010904//EN"
 "http://www.w3.org/TR/2001/REC-SVG-20010904/DTD/svg10.dtd">
<svg version="1.0" xmlns="http://www.w3.org/2000/svg"
 width="201.000000pt" height="231.000000pt" viewBox="0 0 201.000000 231.000000"
 preserveAspectRatio="xMidYMid meet">
<metadata>
Created by potrace 1.16, written by Peter Selinger 2001-2019
</metadata>
<g transform="translate(0.000000,231.000000) scale(0.100000,-0.100000)"
fill="#000000" stroke="none">
<path d="M20 2290 c-20 -20 -20 -33 -20 -1133 0 -991 2 -1115 16 -1135 l15
-22 970 0 c956 0 969 0 989 20 20 20 20 33 20 1135 0 1102 0 1115 -20 1135
-20 20 -33 20 -985 20 -952 0 -965 0 -985 -20z m1910 -1135 l0 -1075 -925 0
-925 0 0 1075 0 1075 925 0 925 0 0 -1075z"/>
<path d="M270 1981 c-14 -27 -14 -745 0 -772 10 -18 24 -19 303 -19 215 0 296
3 305 12 17 17 17 769 0 786 -9 9 -90 12 -305 12 -279 0 -293 -1 -303 -19z
m540 -386 l0 -335 -235 0 -235 0 0 335 0 335 235 0 235 0 0 -335z"/>
<path d="M1047 1993 c-14 -13 -6 -53 12 -63 13 -6 138 -10 338 -10 344 0 358
2 351 51 l-3 24 -346 3 c-190 1 -348 -1 -352 -5z"/>
<path d="M1047 1743 c-14 -13 -6 -53 12 -63 13 -6 140 -10 344 -10 350 0 353
0 345 52 l-3 23 -346 3 c-190 1 -348 -1 -352 -5z"/>
<path d="M1047 1493 c-11 -11 -8 -48 5 -61 9 -9 99 -12 343 -12 314 0 333 1
349 19 14 15 15 24 6 40 -11 21 -16 21 -354 21 -188 0 -346 -3 -349 -7z"/>
<path d="M1001 942 c-507 -1 -718 -5 -728 -13 -19 -16 -16 -47 6 -59 13 -7
258 -10 726 -10 468 0 713 3 726 10 24 13 25 57 2 67 -10 4 -339 7 -732 5z"/>
<path d="M272 678 c-18 -18 -14 -46 7 -58 25 -13 1428 -12 1454 1 20 11 22 40
5 57 -17 17 -1449 17 -1466 0z"/>
<path d="M272 428 c-18 -18 -14 -46 7 -58 13 -7 259 -10 728 -10 763 0 749 -1
741 51 l-3 24 -730 3 c-560 2 -734 -1 -743 -10z"/>
</g>
</svg>
