<?xml version="1.0" standalone="no"?>
<!DOCTYPE svg PUBLIC "-//W3C//DTD SVG 20010904//EN"
 "http://www.w3.org/TR/2001/REC-SVG-20010904/DTD/svg10.dtd">
<svg version="1.0" xmlns="http://www.w3.org/2000/svg"
 width="116.000000pt" height="179.000000pt" viewBox="0 0 116.000000 179.000000"
 preserveAspectRatio="xMidYMid meet">
<metadata>
Created by potrace 1.16, written by Peter Selinger 2001-2019
</metadata>
<g transform="translate(0.000000,179.000000) scale(0.100000,-0.100000)"
fill="#000000" stroke="none">
<path d="M420 1771 c-136 -44 -243 -123 -318 -235 -76 -114 -97 -185 -96 -331
0 -108 3 -129 32 -213 56 -162 166 -380 404 -799 95 -168 113 -193 134 -193
30 0 48 28 216 330 285 514 347 657 364 845 22 250 -154 506 -405 592 -86 29
-248 31 -331 4z m273 -46 c194 -41 359 -213 398 -413 37 -196 -27 -386 -293
-862 -203 -363 -213 -380 -218 -380 -12 0 -277 476 -379 680 -88 177 -129 293
-140 395 -41 366 275 656 632 580z"/>
<path d="M472 1414 c-139 -69 -175 -247 -74 -364 40 -48 73 -66 141 -81 140
-30 281 87 281 232 0 61 -32 140 -71 176 -72 66 -188 81 -277 37z m183 -43
c84 -38 128 -126 106 -209 -39 -149 -225 -190 -324 -72 -23 27 -47 86 -47 115
0 30 24 88 47 116 54 64 143 85 218 50z"/>
</g>
</svg>
