<?xml version="1.0" standalone="no"?>
<!DOCTYPE svg PUBLIC "-//W3C//DTD SVG 20010904//EN"
 "http://www.w3.org/TR/2001/REC-SVG-20010904/DTD/svg10.dtd">
<svg version="1.0" xmlns="http://www.w3.org/2000/svg"
 width="208.000000pt" height="61.000000pt" viewBox="0 0 208.000000 61.000000"
 preserveAspectRatio="xMidYMid meet">
<metadata>
Created by potrace 1.16, written by Peter Selinger 2001-2019
</metadata>
<g transform="translate(0.000000,61.000000) scale(0.100000,-0.100000)"
fill="#000000" stroke="none">
<path d="M205 598 c-118 -42 -205 -167 -205 -294 0 -110 79 -229 182 -275 70
-30 173 -31 239 -2 138 61 212 209 175 352 -37 145 -146 231 -291 230 -38 0
-83 -5 -100 -11z m210 -52 c186 -86 198 -356 21 -465 -120 -74 -288 -28 -360
99 -27 48 -31 64 -31 130 0 57 6 85 22 115 68 127 221 181 348 121z"/>
<path d="M930 593 c-27 -10 -67 -38 -102 -73 -45 -45 -60 -69 -74 -115 -59
-203 84 -399 291 -399 205 0 341 195 280 401 -18 60 -79 133 -143 170 -58 34
-181 42 -252 16z m215 -42 c52 -24 117 -95 140 -154 54 -143 -39 -316 -188
-347 -211 -43 -386 185 -288 378 25 48 98 115 143 129 54 18 148 15 193 -6z"/>
<path d="M1660 593 c-27 -10 -67 -38 -102 -73 -45 -45 -60 -69 -74 -115 -59
-206 80 -397 289 -398 121 0 214 58 268 168 26 53 32 78 32 133 1 114 -63 221
-166 274 -56 29 -183 35 -247 11z m215 -42 c100 -45 155 -131 155 -240 -1
-152 -108 -263 -257 -264 -193 -2 -322 208 -234 381 25 48 98 115 143 129 54
18 148 15 193 -6z"/>
</g>
</svg>
