<?xml version="1.0" standalone="no"?>
<!DOCTYPE svg PUBLIC "-//W3C//DTD SVG 20010904//EN"
 "http://www.w3.org/TR/2001/REC-SVG-20010904/DTD/svg10.dtd">
<svg version="1.0" xmlns="http://www.w3.org/2000/svg"
 width="159.000000pt" height="212.000000pt" viewBox="0 0 159.000000 212.000000"
 preserveAspectRatio="xMidYMid meet">
<metadata>
Created by potrace 1.16, written by Peter Selinger 2001-2019
</metadata>
<g transform="translate(0.000000,212.000000) scale(0.100000,-0.100000)"
fill="#000000" stroke="none">
<path d="M706 2110 c-279 -71 -572 -501 -677 -996 -30 -141 -33 -390 -6 -498
71 -283 236 -475 485 -566 208 -76 470 -62 662 35 241 122 397 384 416 700 21
344 -140 834 -362 1099 -70 83 -192 176 -271 206 -66 25 -187 34 -247 20z
m196 -71 c301 -101 569 -577 618 -1096 25 -271 -52 -516 -214 -678 -233 -233
-642 -269 -925 -80 -179 118 -286 311 -312 561 -14 128 -3 246 41 431 98 411
351 781 592 864 70 24 125 24 200 -2z"/>
</g>
</svg>
