<?xml version="1.0" standalone="no"?>
<!DOCTYPE svg PUBLIC "-//W3C//DTD SVG 20010904//EN"
 "http://www.w3.org/TR/2001/REC-SVG-20010904/DTD/svg10.dtd">
<svg version="1.0" xmlns="http://www.w3.org/2000/svg"
 width="215.000000pt" height="283.000000pt" viewBox="0 0 215.000000 283.000000"
 preserveAspectRatio="xMidYMid meet">
<metadata>
Created by potrace 1.16, written by Peter Selinger 2001-2019
</metadata>
<g transform="translate(0.000000,283.000000) scale(0.100000,-0.100000)"
fill="#000000" stroke="none">
<path d="M680 2808 c-36 -10 -101 -30 -145 -43 -146 -44 -181 -78 -404 -388
-128 -179 -137 -196 -122 -225 12 -22 264 -243 298 -261 26 -13 44 -8 105 35
l48 34 2 -512 3 -512 615 0 615 0 3 513 2 513 46 -41 c73 -64 73 -64 284 116
151 129 151 129 44 279 -207 293 -286 384 -365 422 -25 12 -112 39 -193 58
l-147 36 -37 -25 c-141 -98 -321 -102 -491 -12 -75 40 -74 40 -161 13z m70
-43 c0 -8 10 -40 22 -72 15 -42 38 -75 82 -119 78 -77 134 -98 245 -92 86 5
138 27 201 84 39 36 110 161 110 194 0 16 11 15 120 -11 177 -42 219 -68 323
-202 100 -129 257 -355 257 -371 0 -13 -275 -256 -289 -256 -3 0 -32 20 -63
45 l-57 45 -3 67 c-2 55 -6 68 -20 71 -17 3 -18 -30 -18 -585 l0 -588 -581 0
-580 0 2 585 c2 518 1 585 -13 588 -17 3 -28 -35 -28 -99 0 -35 -5 -41 -57
-78 -31 -23 -63 -41 -71 -41 -20 0 -282 228 -282 246 0 24 290 424 341 471 39
35 99 62 220 97 134 40 139 41 139 21z m584 -75 c-64 -123 -155 -177 -278
-168 -34 3 -79 15 -101 26 -68 35 -134 117 -159 199 l-7 22 56 -25 c85 -39
151 -54 241 -54 92 0 189 25 245 63 19 13 35 20 37 16 2 -5 -13 -40 -34 -79z"/>
<path d="M1078 3 c7 -3 16 -2 19 1 4 3 -2 6 -13 5 -11 0 -14 -3 -6 -6z"/>
</g>
</svg>
