<?xml version="1.0" standalone="no"?>
<!DOCTYPE svg PUBLIC "-//W3C//DTD SVG 20010904//EN"
 "http://www.w3.org/TR/2001/REC-SVG-20010904/DTD/svg10.dtd">
<svg version="1.0" xmlns="http://www.w3.org/2000/svg"
 width="174.000000pt" height="195.000000pt" viewBox="0 0 174.000000 195.000000"
 preserveAspectRatio="xMidYMid meet">
<metadata>
Created by potrace 1.16, written by Peter Selinger 2001-2019
</metadata>
<g transform="translate(0.000000,195.000000) scale(0.100000,-0.100000)"
fill="#000000" stroke="none">
<path d="M690 1859 c-96 -50 -291 -149 -432 -220 l-258 -130 0 -532 1 -532
435 -223 435 -223 262 134 c144 74 340 174 435 222 l172 88 -2 536 -3 536
-430 217 c-236 120 -432 217 -435 217 -3 0 -84 -40 -180 -90z m572 -165 l391
-196 -394 -200 -393 -201 -111 57 c-60 31 -235 120 -389 197 l-279 141 42 23
c22 13 188 99 368 191 181 92 332 171 338 175 5 5 15 9 22 9 7 0 189 -88 405
-196z m-1186 -243 c9 -9 112 -63 522 -272 l242 -123 0 -494 c0 -272 -4 -492
-8 -490 -9 3 -332 172 -597 311 l-180 95 -3 491 c-1 270 1 491 6 491 4 0 12
-4 18 -9z m1614 -486 l0 -496 -42 -18 c-24 -11 -204 -102 -400 -204 l-358
-184 0 176 0 176 160 240 c88 132 160 247 160 256 0 9 -7 19 -15 23 -18 6 -17
7 -175 -234 -67 -102 -124 -187 -126 -189 -2 -3 -3 118 -2 268 l3 272 395 204
c217 112 396 204 398 205 1 0 2 -223 2 -495z"/>
</g>
</svg>
