<?xml version="1.0" standalone="no"?>
<!DOCTYPE svg PUBLIC "-//W3C//DTD SVG 20010904//EN"
 "http://www.w3.org/TR/2001/REC-SVG-20010904/DTD/svg10.dtd">
<svg version="1.0" xmlns="http://www.w3.org/2000/svg"
 width="172.000000pt" height="221.000000pt" viewBox="0 0 172.000000 221.000000"
 preserveAspectRatio="xMidYMid meet">
<metadata>
Created by potrace 1.16, written by Peter Selinger 2001-2019
</metadata>
<g transform="translate(0.000000,221.000000) scale(0.100000,-0.100000)"
fill="#000000" stroke="none">
<path d="M742 2184 c-185 -92 -173 -370 18 -452 47 -20 136 -19 185 2 187 80
194 367 11 452 -71 33 -145 32 -214 -2z m204 -58 c77 -46 108 -169 65 -254
-68 -133 -257 -129 -322 5 -28 59 -23 146 11 196 55 80 161 103 246 53z"/>
<path d="M625 1654 c-22 -8 -94 -60 -163 -118 -68 -58 -132 -108 -144 -112
-12 -3 -64 -6 -117 -6 -108 0 -147 -12 -180 -54 -42 -53 -12 -135 59 -164 19
-8 80 -11 182 -8 172 4 184 7 276 86 l52 44 0 -106 0 -106 -44 0 c-64 0 -262
-36 -339 -61 -174 -57 -185 -157 -24 -217 62 -24 177 -49 263 -58 32 -3 64 -7
71 -9 7 -2 -6 -48 -38 -129 l-49 -126 0 -208 c0 -188 2 -210 20 -239 37 -61
116 -81 177 -43 59 36 65 54 73 238 l7 167 69 162 c38 90 72 163 75 163 3 0
36 -89 74 -197 83 -243 205 -497 250 -525 60 -36 150 -15 180 42 25 49 17 91
-49 256 -35 88 -81 215 -101 283 -20 68 -39 130 -42 136 -3 9 21 16 84 25 292
40 434 112 389 198 -30 58 -189 112 -397 134 l-119 12 0 98 c0 54 2 98 5 98 3
0 29 -20 59 -44 87 -71 117 -78 305 -74 l163 3 34 37 c43 47 46 93 9 137 -34
40 -70 49 -192 50 -71 0 -111 5 -130 15 -16 8 -75 56 -133 106 -146 125 -161
130 -393 129 -130 0 -193 -5 -222 -15z m453 -63 c21 -10 87 -61 147 -112 60
-50 124 -98 142 -106 20 -8 72 -13 140 -13 82 0 114 -4 131 -16 26 -18 28 -50
5 -76 -14 -16 -34 -18 -170 -18 -108 0 -163 4 -186 14 -18 7 -66 43 -107 80
-76 67 -103 79 -114 50 -12 -32 -6 -478 7 -531 l13 -51 -104 -6 c-87 -6 -372
1 -372 9 0 1 7 18 15 38 11 27 15 89 15 286 1 138 -2 255 -5 261 -13 20 -36 9
-108 -55 -103 -90 -118 -95 -288 -95 -119 0 -146 3 -161 17 -22 20 -23 51 -1
75 14 15 32 18 125 18 69 0 121 5 141 14 18 7 83 57 145 110 62 53 127 103
144 111 25 11 82 14 221 15 165 0 192 -2 225 -19z m-488 -601 c0 -63 -19 -139
-41 -164 -11 -13 -226 20 -318 49 -43 14 -85 33 -95 44 -16 18 -16 20 10 40
51 40 251 87 422 99 21 2 22 -2 22 -68z m705 49 c149 -21 301 -74 293 -102
-12 -39 -211 -99 -375 -113 l-71 -7 -11 39 c-6 21 -11 76 -11 122 l0 83 53 -6
c28 -4 84 -11 122 -16z m-517 -294 c2 -2 -27 -72 -63 -157 l-67 -153 -5 -155
c-6 -168 -16 -205 -58 -216 -34 -8 -72 3 -84 24 -5 10 -10 105 -12 212 l-2
195 47 124 c25 68 49 128 52 133 5 7 183 1 192 -7z m366 -130 c20 -71 62 -193
93 -270 83 -208 84 -212 72 -239 -21 -45 -71 -53 -111 -18 -32 27 -149 285
-214 470 -35 101 -64 185 -64 187 0 6 174 11 181 5 3 -3 22 -63 43 -135z"/>
</g>
</svg>
