<?xml version="1.0" standalone="no"?>
<!DOCTYPE svg PUBLIC "-//W3C//DTD SVG 20010904//EN"
 "http://www.w3.org/TR/2001/REC-SVG-20010904/DTD/svg10.dtd">
<svg version="1.0" xmlns="http://www.w3.org/2000/svg"
 width="110.000000pt" height="198.000000pt" viewBox="0 0 110.000000 198.000000"
 preserveAspectRatio="xMidYMid meet">
<metadata>
Created by potrace 1.16, written by Peter Selinger 2001-2019
</metadata>
<g transform="translate(0.000000,198.000000) scale(0.100000,-0.100000)"
fill="#000000" stroke="none">
<path d="M410 1964 c-158 -41 -277 -139 -349 -286 -42 -85 -61 -158 -61 -232
0 -69 3 -71 152 -74 166 -3 173 0 203 90 12 37 32 80 46 94 73 79 220 86 295
13 45 -43 60 -104 45 -175 -14 -59 -41 -99 -154 -228 -150 -171 -211 -303
-223 -483 -9 -136 -12 -133 165 -133 94 0 143 4 154 12 12 9 20 38 27 98 13
112 47 180 150 295 108 120 165 208 202 307 73 199 23 423 -127 573 -33 33
-85 72 -115 87 -112 54 -295 73 -410 42z m270 -56 c91 -17 173 -61 230 -126
147 -164 171 -380 65 -581 -35 -66 -65 -106 -185 -244 -83 -95 -116 -162 -132
-268 l-13 -84 -114 -3 -114 -3 6 98 c9 169 61 274 230 466 48 53 99 120 113
149 69 136 25 291 -98 342 -44 19 -155 21 -213 5 -62 -17 -131 -94 -152 -169
l-16 -60 -117 0 -116 0 8 72 c13 129 109 283 214 344 130 76 239 93 404 62z"/>
<path d="M465 366 c-62 -28 -115 -110 -115 -178 1 -68 60 -153 123 -177 71
-27 170 -1 220 58 34 41 40 67 35 140 -5 70 -38 120 -98 151 -45 23 -120 26
-165 6z m152 -61 c106 -70 68 -231 -59 -251 -45 -8 -112 26 -133 66 -20 39
-19 105 3 142 34 61 128 82 189 43z"/>
</g>
</svg>
