<?xml version="1.0" standalone="no"?>
<!DOCTYPE svg PUBLIC "-//W3C//DTD SVG 20010904//EN"
 "http://www.w3.org/TR/2001/REC-SVG-20010904/DTD/svg10.dtd">
<svg version="1.0" xmlns="http://www.w3.org/2000/svg"
 width="231.000000pt" height="146.000000pt" viewBox="0 0 231.000000 146.000000"
 preserveAspectRatio="xMidYMid meet">
<metadata>
Created by potrace 1.16, written by Peter Selinger 2001-2019
</metadata>
<g transform="translate(0.000000,146.000000) scale(0.100000,-0.100000)"
fill="#000000" stroke="none">
<path d="M1450 1429 c-53 -27 -104 -71 -280 -245 l-215 -213 4 85 c3 79 1 90
-28 149 -122 248 -463 246 -579 -3 -22 -47 -26 -71 -26 -137 0 -99 31 -171
100 -235 69 -64 124 -85 219 -85 l81 0 -60 -55 c-92 -84 -97 -90 -91 -100 4
-6 14 -10 24 -10 18 0 318 286 632 600 185 187 234 224 311 236 35 6 538 -80
569 -96 29 -16 49 -52 49 -88 0 -43 -52 -98 -101 -107 -19 -3 -122 7 -238 24
-129 19 -212 26 -225 21 -29 -11 -226 -219 -226 -238 0 -8 88 -104 195 -213
107 -109 195 -203 195 -208 0 -4 -21 -19 -47 -33 -27 -13 -70 -38 -98 -56 -73
-46 -148 -59 -230 -39 -36 9 -89 32 -118 51 -158 105 -282 109 -437 16 -86
-52 -128 -68 -192 -76 -72 -8 -166 16 -248 66 -88 53 -141 70 -217 70 -108 0
-195 -32 -166 -61 7 -7 27 -6 64 5 104 31 179 18 299 -53 92 -55 166 -74 261
-69 81 5 86 7 258 99 54 28 77 35 140 37 71 3 80 1 146 -33 200 -106 182 -100
275 -100 94 0 142 15 218 67 65 45 133 68 201 68 70 0 119 -16 209 -69 68 -41
187 -76 217 -65 33 13 11 39 -38 46 -67 9 -102 23 -177 68 -75 45 -176 74
-232 67 -34 -5 -40 -2 -60 26 -12 18 -101 112 -197 209 l-175 178 29 32 c106
118 161 168 185 168 14 0 99 -11 190 -25 248 -37 285 -33 348 39 27 31 32 45
32 87 0 58 -20 99 -61 123 -32 19 -440 95 -549 103 -70 4 -80 2 -140 -28z
m-683 -112 c207 -106 202 -415 -9 -507 -187 -82 -392 53 -391 257 2 213 213
344 400 250z"/>
<path d="M1812 179 c-29 -4 -74 -18 -100 -32 -190 -101 -191 -101 -260 -101
-82 0 -129 15 -208 64 -155 97 -286 95 -452 -8 -74 -45 -153 -66 -226 -58 -48
4 -88 19 -185 68 l-124 63 -86 -1 c-100 -1 -166 -21 -166 -50 0 -22 16 -22 95
1 80 23 127 13 269 -58 l124 -62 102 0 103 0 128 65 c124 63 130 65 204 65 67
0 83 -4 136 -33 166 -91 183 -97 280 -97 97 0 84 -5 288 103 58 31 146 40 211
22 24 -7 72 -30 107 -51 69 -43 139 -67 208 -71 39 -3 45 0 45 17 0 17 -9 21
-55 27 -69 8 -99 20 -180 68 -97 57 -163 72 -258 59z"/>
</g>
</svg>
