<?xml version="1.0" standalone="no"?>
<!DOCTYPE svg PUBLIC "-//W3C//DTD SVG 20010904//EN"
 "http://www.w3.org/TR/2001/REC-SVG-20010904/DTD/svg10.dtd">
<svg version="1.0" xmlns="http://www.w3.org/2000/svg"
 width="233.000000pt" height="111.000000pt" viewBox="0 0 233.000000 111.000000"
 preserveAspectRatio="xMidYMid meet">
<metadata>
Created by potrace 1.16, written by Peter Selinger 2001-2019
</metadata>
<g transform="translate(0.000000,111.000000) scale(0.100000,-0.100000)"
fill="#000000" stroke="none">
<path d="M1035 1104 c-362 -55 -686 -210 -972 -464 -41 -35 -63 -63 -63 -77 0
-32 144 -160 284 -254 515 -343 985 -391 1491 -155 168 79 367 213 495 333 50
47 61 63 56 80 -16 50 -262 236 -449 341 -234 130 -441 191 -672 197 -77 2
-153 1 -170 -1z m270 -59 c130 -34 261 -138 319 -254 127 -250 28 -560 -218
-681 -258 -127 -570 -29 -695 219 -42 82 -53 134 -53 241 1 162 46 262 163
364 52 45 167 103 230 115 72 14 190 12 254 -4z m-527 -81 c-59 -50 -112 -123
-139 -192 -18 -45 -23 -83 -27 -182 -4 -115 -2 -132 22 -204 32 -96 77 -166
146 -230 l52 -49 -33 7 c-56 11 -244 91 -342 145 -116 65 -253 163 -337 241
l-65 60 70 66 c134 125 353 257 565 340 47 18 96 33 108 34 21 0 19 -4 -20
-36z m831 11 c113 -38 274 -121 401 -206 122 -81 250 -191 250 -215 0 -33
-253 -221 -420 -312 -85 -46 -290 -132 -316 -132 -11 0 -1 12 26 34 78 62 148
188 171 310 33 173 -27 372 -149 493 -29 29 -49 53 -44 53 5 0 41 -11 81 -25z"/>
<path d="M1079 737 c-61 -33 -101 -92 -107 -159 -3 -44 1 -62 25 -107 35 -67
90 -101 165 -101 65 0 105 18 150 68 41 45 53 89 45 158 -14 130 -159 203
-278 141z m144 -41 c54 -23 80 -59 84 -118 7 -94 -59 -163 -149 -155 -62 5
-96 29 -120 84 -33 75 -12 138 62 182 41 24 78 27 123 7z"/>
</g>
</svg>
