<?xml version="1.0" standalone="no"?>
<!DOCTYPE svg PUBLIC "-//W3C//DTD SVG 20010904//EN"
 "http://www.w3.org/TR/2001/REC-SVG-20010904/DTD/svg10.dtd">
<svg version="1.0" xmlns="http://www.w3.org/2000/svg"
 width="222.000000pt" height="212.000000pt" viewBox="0 0 222.000000 212.000000"
 preserveAspectRatio="xMidYMid meet">
<metadata>
Created by potrace 1.16, written by Peter Selinger 2001-2019
</metadata>
<g transform="translate(0.000000,212.000000) scale(0.100000,-0.100000)"
fill="#000000" stroke="none">
<path d="M379 2104 c-26 -9 -68 -33 -95 -53 -233 -175 -159 -535 125 -607 121
-30 247 9 333 105 122 135 116 343 -12 471 -86 86 -240 123 -351 84z m204 -70
c64 -22 130 -82 157 -145 18 -42 21 -66 18 -123 -5 -84 -24 -129 -81 -185
-131 -130 -349 -94 -433 72 -53 103 -38 215 38 302 77 87 190 117 301 79z"/>
<path d="M1643 2105 c-180 -56 -283 -232 -238 -407 32 -129 124 -221 254 -254
81 -20 147 -13 229 26 76 36 131 90 168 166 55 112 34 262 -51 362 -85 100
-239 146 -362 107z m212 -79 c28 -12 69 -43 91 -68 188 -204 -20 -522 -291
-444 -108 32 -195 148 -195 261 0 98 72 208 165 251 69 33 161 33 230 0z"/>
<path d="M265 1361 c-98 -24 -187 -100 -234 -200 l-26 -56 -3 -541 c-2 -475
-1 -542 12 -554 9 -7 22 -10 30 -7 13 5 15 83 18 539 l3 533 29 63 c65 140
203 196 349 142 72 -27 121 -71 217 -195 115 -150 211 -215 317 -215 l34 0
-16 -31 c-25 -47 -30 -118 -11 -163 9 -21 16 -40 16 -42 0 -2 -40 -4 -89 -4
-81 0 -94 3 -157 35 -71 36 -115 72 -196 163 -35 40 -53 53 -70 50 -44 -6 -32
-39 42 -120 l71 -77 -1 -323 c0 -270 2 -327 14 -343 12 -16 18 -18 33 -9 17
10 18 34 21 318 1 168 6 306 10 306 4 0 16 -7 27 -16 11 -8 48 -24 83 -34 57
-18 93 -20 311 -20 261 0 341 10 409 50 18 11 35 20 37 20 3 0 6 -138 7 -306
3 -274 5 -308 20 -317 12 -8 21 -7 32 2 14 12 16 55 16 347 l0 333 52 56 c68
73 79 90 72 109 -13 33 -46 14 -132 -73 -126 -130 -162 -145 -355 -149 l-148
-3 -35 35 c-35 35 -36 39 -32 91 8 92 40 114 188 125 146 11 209 52 321 206
104 145 193 205 311 212 37 2 83 -1 104 -8 53 -18 127 -91 155 -153 l24 -52 5
-534 c5 -484 7 -535 22 -544 12 -8 21 -7 32 2 14 12 16 69 16 511 0 292 -4
519 -10 550 -23 121 -96 221 -197 271 -39 19 -64 24 -133 24 -75 0 -93 -4
-152 -32 -83 -39 -148 -99 -244 -224 -82 -106 -132 -147 -196 -160 -76 -15
-354 -11 -393 5 -44 19 -123 92 -188 176 -111 143 -180 198 -282 225 -63 16
-111 18 -160 6z"/>
</g>
</svg>
