<?xml version="1.0" standalone="no"?>
<!DOCTYPE svg PUBLIC "-//W3C//DTD SVG 20010904//EN"
 "http://www.w3.org/TR/2001/REC-SVG-20010904/DTD/svg10.dtd">
<svg version="1.0" xmlns="http://www.w3.org/2000/svg"
 width="98.000000pt" height="107.000000pt" viewBox="0 0 98.000000 107.000000"
 preserveAspectRatio="xMidYMid meet">
<metadata>
Created by potrace 1.16, written by Peter Selinger 2001-2019
</metadata>
<g transform="translate(0.000000,107.000000) scale(0.100000,-0.100000)"
fill="#000000" stroke="none">
<path d="M339 1055 c-127 -25 -232 -99 -285 -199 -31 -59 -28 -86 10 -86 19 0
31 12 54 53 37 66 78 101 162 141 57 26 76 30 155 31 193 1 307 -89 309 -245
2 -116 -53 -143 -348 -171 -197 -18 -292 -59 -359 -156 -23 -31 -30 -56 -34
-106 -7 -86 1 -125 38 -180 73 -111 245 -163 404 -122 94 24 184 73 246 134
l57 56 7 -49 c11 -89 44 -126 125 -140 54 -10 95 5 95 35 0 22 -5 25 -52 29
-36 4 -60 13 -75 27 -21 21 -21 29 -25 360 -4 393 -7 415 -78 488 -51 52 -124
88 -210 104 -73 14 -112 13 -196 -4z m409 -615 c-3 -86 -8 -113 -27 -150 -43
-84 -120 -145 -236 -190 -90 -34 -211 -34 -286 1 -166 78 -167 287 -1 373 46
24 103 35 253 51 164 17 233 30 269 50 23 13 25 12 29 -8 1 -12 1 -69 -1 -127z"/>
</g>
</svg>
