<?xml version="1.0" standalone="no"?>
<!DOCTYPE svg PUBLIC "-//W3C//DTD SVG 20010904//EN"
 "http://www.w3.org/TR/2001/REC-SVG-20010904/DTD/svg10.dtd">
<svg version="1.0" xmlns="http://www.w3.org/2000/svg"
 width="187.000000pt" height="139.000000pt" viewBox="0 0 187.000000 139.000000"
 preserveAspectRatio="xMidYMid meet">
<metadata>
Created by potrace 1.16, written by Peter Selinger 2001-2019
</metadata>
<g transform="translate(0.000000,139.000000) scale(0.100000,-0.100000)"
fill="#000000" stroke="none">
<path d="M1463 1371 c-91 -31 -163 -105 -194 -199 -19 -59 -7 -182 24 -235
130 -221 449 -210 554 21 22 48 25 64 21 141 -3 72 -9 95 -30 133 -77 131
-233 189 -375 139z m212 -45 c60 -28 127 -98 146 -152 44 -129 -15 -270 -138
-330 -177 -87 -383 39 -384 235 -1 194 203 328 376 247z"/>
<path d="M1095 851 c-22 -10 -137 -105 -255 -211 -118 -106 -228 -201 -245
-211 -27 -17 -52 -19 -230 -19 -190 0 -203 -1 -252 -24 -87 -41 -129 -133
-109 -241 9 -45 59 -103 111 -126 36 -17 72 -19 350 -19 l310 0 60 29 c40 19
118 79 238 185 98 86 181 156 185 156 4 0 55 -67 115 -148 59 -81 113 -154
120 -163 30 -39 81 -59 150 -59 88 0 142 26 164 78 28 67 21 79 -273 493 -85
119 -170 229 -190 244 -74 56 -174 71 -249 36z m180 -40 c53 -24 72 -46 210
-241 205 -287 285 -407 291 -437 16 -81 -124 -128 -223 -75 -12 7 -63 69 -113
139 -134 185 -158 213 -183 213 -14 0 -91 -61 -209 -164 -103 -90 -205 -172
-225 -182 -34 -17 -69 -19 -346 -22 -297 -3 -311 -2 -353 18 -58 29 -84 72
-84 142 0 65 26 111 80 142 32 19 56 21 255 26 173 4 224 8 241 20 12 8 120
103 240 210 120 107 235 203 254 212 44 23 114 23 165 -1z"/>
</g>
</svg>
