<?xml version="1.0" standalone="no"?>
<!DOCTYPE svg PUBLIC "-//W3C//DTD SVG 20010904//EN"
 "http://www.w3.org/TR/2001/REC-SVG-20010904/DTD/svg10.dtd">
<svg version="1.0" xmlns="http://www.w3.org/2000/svg"
 width="197.000000pt" height="200.000000pt" viewBox="0 0 197.000000 200.000000"
 preserveAspectRatio="xMidYMid meet">
<metadata>
Created by potrace 1.16, written by Peter Selinger 2001-2019
</metadata>
<g transform="translate(0.000000,200.000000) scale(0.100000,-0.100000)"
fill="#000000" stroke="none">
<path d="M436 1979 c-39 -31 -56 -71 -56 -136 l0 -58 -138 0 c-154 -1 -188
-11 -222 -68 -19 -31 -20 -56 -20 -828 l0 -796 23 -34 c12 -18 34 -39 47 -46
20 -10 223 -13 915 -13 865 0 891 1 922 20 66 40 63 -4 63 880 l0 800 -32 36
c-42 44 -83 54 -218 53 l-105 -2 -5 72 c-4 63 -9 74 -37 102 -60 61 -175 44
-205 -29 -6 -15 -12 -53 -14 -85 l-3 -58 -358 0 -358 0 -5 68 c-3 37 -11 78
-18 90 -29 53 -127 70 -176 32z m113 -34 c16 -8 31 -22 35 -30 3 -9 6 -79 6
-156 0 -135 -1 -141 -25 -164 -34 -35 -78 -33 -117 5 l-30 30 4 141 c3 140 3
141 31 165 32 28 56 30 96 9z m992 -14 l29 -29 0 -140 c0 -134 -1 -140 -25
-166 -33 -36 -83 -36 -119 0 -26 26 -26 29 -26 168 0 147 4 162 45 184 34 19
65 13 96 -17z m-1161 -253 c0 -97 42 -147 123 -148 85 0 130 53 129 152 l-1
58 362 0 362 0 1 -58 c3 -99 47 -152 129 -152 83 0 125 50 125 150 l0 60 131
0 131 0 29 -29 29 -29 0 -161 0 -161 -946 0 -945 0 3 166 3 166 28 24 c27 23
35 24 168 24 l139 0 0 -62z m1550 -969 l0 -611 -29 -29 -29 -29 -887 0 -887 0
-29 29 -29 29 0 611 0 611 945 0 945 0 0 -611z"/>
<path d="M913 992 c-65 -42 -103 -73 -103 -84 0 -29 26 -21 113 36 l82 55 5
-337 c5 -329 5 -337 25 -337 20 0 20 7 20 365 0 358 0 365 -20 367 -11 2 -66
-28 -122 -65z"/>
</g>
</svg>
