<?xml version="1.0" standalone="no"?>
<!DOCTYPE svg PUBLIC "-//W3C//DTD SVG 20010904//EN"
 "http://www.w3.org/TR/2001/REC-SVG-20010904/DTD/svg10.dtd">
<svg version="1.0" xmlns="http://www.w3.org/2000/svg"
 width="136.000000pt" height="217.000000pt" viewBox="0 0 136.000000 217.000000"
 preserveAspectRatio="xMidYMid meet">
<metadata>
Created by potrace 1.16, written by Peter Selinger 2001-2019
</metadata>
<g transform="translate(0.000000,217.000000) scale(0.100000,-0.100000)"
fill="#000000" stroke="none">
<path d="M73 2150 c-45 -27 -66 -73 -60 -129 4 -38 12 -52 45 -81 l39 -35 1
-150 c1 -83 2 -227 2 -322 0 -169 0 -172 25 -202 l26 -30 -42 -11 c-24 -7 -58
-27 -76 -45 -28 -28 -33 -40 -33 -78 0 -37 5 -50 28 -72 26 -25 29 -33 31
-111 5 -190 98 -361 256 -469 52 -36 54 -40 50 -74 -26 -181 -45 -318 -45
-328 0 -19 693 -19 709 0 8 10 4 58 -14 183 -14 93 -25 174 -25 180 0 6 22 25
50 43 147 95 249 290 250 477 0 63 3 73 25 92 32 28 48 68 40 103 -8 37 -65
85 -115 99 l-39 11 20 20 c11 11 24 31 29 45 6 14 10 163 10 339 0 307 0 315
21 325 28 15 59 69 59 103 0 45 -26 95 -62 117 -32 19 -49 20 -603 20 -548 0
-571 -1 -602 -20z m1198 -49 c38 -38 39 -80 2 -121 l-28 -30 -565 -1 c-311 -1
-573 2 -583 6 -23 9 -47 56 -47 90 0 16 12 38 29 56 l29 29 567 0 567 0 29
-29z m-51 -511 l0 -310 -29 -32 -29 -33 -454 -3 c-249 -2 -468 0 -487 3 -18 4
-44 17 -57 30 l-24 24 0 316 0 315 540 0 540 0 0 -310z m31 -448 c52 -26 73
-59 59 -96 -19 -52 -13 -51 -635 -51 -533 0 -583 1 -607 17 -70 46 -25 126 83
147 24 5 271 9 549 8 503 -2 505 -2 551 -25z m-1 -242 c-1 -148 -56 -278 -164
-386 -115 -114 -237 -164 -406 -164 -178 0 -301 50 -420 169 -109 110 -160
229 -160 371 l0 65 575 0 575 0 0 -55z m-654 -591 c88 -13 195 -2 291 30 32
11 59 19 59 18 4 -4 35 -198 40 -254 l7 -63 -312 0 c-294 0 -311 1 -311 18 0
23 28 238 36 274 l5 26 54 -19 c30 -10 89 -24 131 -30z"/>
</g>
</svg>
