<?xml version="1.0" standalone="no"?>
<!DOCTYPE svg PUBLIC "-//W3C//DTD SVG 20010904//EN"
 "http://www.w3.org/TR/2001/REC-SVG-20010904/DTD/svg10.dtd">
<svg version="1.0" xmlns="http://www.w3.org/2000/svg"
 width="225.000000pt" height="259.000000pt" viewBox="0 0 225.000000 259.000000"
 preserveAspectRatio="xMidYMid meet">
<metadata>
Created by potrace 1.16, written by Peter Selinger 2001-2019
</metadata>
<g transform="translate(0.000000,259.000000) scale(0.100000,-0.100000)"
fill="#000000" stroke="none">
<path d="M1495 2572 c-28 -10 -65 -28 -83 -40 -73 -52 -109 -171 -81 -269 17
-62 96 -143 155 -161 159 -47 315 52 331 211 12 113 -53 216 -163 257 -66 24
-94 25 -159 2z m153 -47 c76 -32 122 -102 122 -185 0 -67 -18 -107 -68 -152
-147 -133 -372 0 -330 196 25 117 163 188 276 141z"/>
<path d="M803 2018 c-124 -106 -407 -370 -425 -397 -27 -40 -23 -92 10 -123
52 -48 100 -60 158 -38 30 12 132 97 283 234 79 73 98 86 128 86 48 0 73 -16
73 -47 0 -58 -343 -839 -409 -932 -26 -35 -32 -37 -296 -56 -225 -17 -261 -26
-298 -76 -42 -58 -30 -178 23 -231 36 -36 50 -36 326 2 338 47 406 60 439 82
17 11 74 86 128 167 53 80 106 157 116 171 l19 24 59 -38 c137 -91 236 -171
249 -202 18 -42 11 -102 -32 -315 -28 -138 -32 -175 -25 -215 20 -108 141
-149 222 -76 25 23 33 43 54 147 14 66 41 185 60 265 47 200 57 266 45 311
-14 52 -79 120 -227 239 -71 56 -129 106 -131 110 -2 4 19 61 47 126 27 66 63
154 81 196 17 43 36 80 40 83 5 3 45 -45 90 -106 45 -60 91 -114 103 -118 30
-11 56 -3 287 96 176 76 208 93 227 122 32 48 30 95 -5 131 -63 62 -128 57
-313 -25 -57 -25 -108 -44 -115 -41 -7 3 -43 62 -81 132 -85 160 -148 230
-247 279 -108 54 -180 65 -418 65 l-207 0 -38 -32z m552 -38 c39 -12 89 -33
112 -47 58 -34 132 -117 172 -194 42 -80 105 -188 124 -213 13 -18 19 -17 148
36 193 80 212 85 253 65 19 -9 37 -25 41 -37 9 -28 -18 -67 -58 -85 -147 -66
-390 -165 -404 -165 -32 0 -59 27 -132 134 -39 58 -76 108 -83 112 -6 4 -19
-2 -28 -14 -20 -24 -200 -443 -200 -464 0 -18 33 -49 140 -129 106 -79 174
-142 201 -185 29 -48 26 -123 -11 -274 -16 -69 -41 -187 -55 -262 -27 -156
-34 -172 -76 -194 -64 -33 -129 13 -129 91 0 23 12 103 26 176 46 243 55 305
45 332 -17 43 -446 345 -476 334 -24 -10 -18 -25 25 -55 21 -15 39 -30 40 -34
0 -4 -51 -83 -112 -175 -103 -152 -117 -169 -153 -181 -40 -14 -459 -77 -587
-89 -80 -7 -110 7 -128 62 -27 81 18 148 107 159 26 3 111 10 188 16 233 17
252 19 278 31 53 24 464 951 455 1027 -5 39 -49 65 -117 70 l-60 4 -83 -78
c-129 -122 -251 -230 -275 -243 -58 -30 -135 0 -135 53 0 35 9 45 247 255 233
205 199 191 465 187 139 -3 176 -7 235 -26z"/>
</g>
</svg>
