<?xml version="1.0" standalone="no"?>
<!DOCTYPE svg PUBLIC "-//W3C//DTD SVG 20010904//EN"
 "http://www.w3.org/TR/2001/REC-SVG-20010904/DTD/svg10.dtd">
<svg version="1.0" xmlns="http://www.w3.org/2000/svg"
 width="159.000000pt" height="202.000000pt" viewBox="0 0 159.000000 202.000000"
 preserveAspectRatio="xMidYMid meet">
<metadata>
Created by potrace 1.16, written by Peter Selinger 2001-2019
</metadata>
<g transform="translate(0.000000,202.000000) scale(0.100000,-0.100000)"
fill="#000000" stroke="none">
<path d="M17 2002 c-16 -17 -17 -100 -17 -994 0 -932 1 -976 18 -991 17 -16
85 -17 775 -17 744 0 757 0 777 20 20 20 20 33 20 988 0 961 0 968 -20 990
l-21 22 -758 0 c-722 0 -759 -1 -774 -18z m1521 -990 l2 -962 -32 0 c-18 0
-92 -2 -165 -3 l-132 -2 -5 29 c-3 16 -6 360 -6 766 0 641 -2 739 -15 750 -10
9 -46 11 -122 8 -60 -3 -227 -1 -372 4 -239 7 -266 6 -283 -9 -17 -15 -18 -55
-18 -780 l0 -763 -175 0 -175 0 0 958 c0 527 3 962 7 965 3 4 340 6 747 5
l741 -3 3 -963z m-390 532 c1 -2 2 -340 2 -751 l0 -748 -355 2 c-195 2 -355 5
-355 8 0 3 0 343 0 755 l0 751 353 -7 c193 -3 353 -8 355 -10z"/>
<path d="M973 921 c-35 -22 -49 -56 -39 -96 9 -34 63 -67 96 -59 93 22 93 146
0 168 -16 4 -36 -1 -57 -13z m71 -47 c19 -18 19 -20 6 -45 -6 -10 -19 -19 -28
-19 -36 0 -55 43 -30 68 16 16 33 15 52 -4z"/>
</g>
</svg>
