<?xml version="1.0" standalone="no"?>
<!DOCTYPE svg PUBLIC "-//W3C//DTD SVG 20010904//EN"
 "http://www.w3.org/TR/2001/REC-SVG-20010904/DTD/svg10.dtd">
<svg version="1.0" xmlns="http://www.w3.org/2000/svg"
 width="235.000000pt" height="163.000000pt" viewBox="0 0 235.000000 163.000000"
 preserveAspectRatio="xMidYMid meet">
<metadata>
Created by potrace 1.16, written by Peter Selinger 2001-2019
</metadata>
<g transform="translate(0.000000,163.000000) scale(0.100000,-0.100000)"
fill="#000000" stroke="none">
<path d="M973 1610 c-268 -70 -488 -283 -573 -555 -31 -100 -39 -300 -16 -415
58 -283 275 -520 561 -610 109 -35 312 -40 428 -10 158 39 266 98 380 209 307
296 336 776 67 1108 -103 127 -269 232 -434 273 -107 27 -310 27 -413 0z m375
-65 c94 -19 236 -87 312 -149 122 -101 211 -245 251 -405 30 -120 24 -292 -15
-406 -126 -371 -518 -589 -892 -495 -239 60 -446 248 -528 479 -26 74 -31 103
-34 212 -3 105 0 142 17 210 70 282 285 494 561 555 78 17 238 17 328 -1z"/>
<path d="M840 1078 c-73 -21 -144 -101 -138 -155 2 -22 8 -28 27 -28 18 0 30
11 47 40 31 56 68 77 127 72 53 -5 101 -40 111 -83 9 -33 38 -47 62 -30 16 12
17 18 5 57 -17 58 -75 113 -134 128 -53 13 -60 13 -107 -1z"/>
<path d="M1407 1075 c-48 -17 -83 -48 -109 -98 -26 -51 -21 -81 14 -85 23 -3
29 3 46 42 24 53 62 76 126 76 36 0 52 -6 81 -31 19 -17 38 -42 41 -55 8 -31
34 -46 57 -33 22 13 22 41 -2 87 -24 47 -45 66 -101 91 -52 24 -99 26 -153 6z"/>
<path d="M844 625 c-20 -52 82 -167 182 -205 176 -67 386 -14 485 123 35 48
38 83 7 93 -16 5 -26 1 -37 -14 -9 -11 -28 -36 -43 -55 -17 -21 -55 -49 -95
-69 -62 -30 -76 -33 -158 -33 -78 1 -97 4 -145 29 -65 32 -94 57 -126 109 -25
39 -60 50 -70 22z"/>
<path d="M167 1453 c-20 -19 -2 -54 61 -116 69 -68 90 -78 112 -52 16 20 14
23 -62 104 -61 65 -93 83 -111 64z"/>
<path d="M2086 1391 c-59 -60 -68 -73 -62 -95 11 -45 44 -33 120 43 59 60 68
73 62 95 -11 45 -44 33 -120 -43z"/>
<path d="M9 944 c-9 -11 -10 -20 -2 -32 8 -14 28 -17 109 -17 87 0 99 2 102
18 7 37 -16 47 -108 47 -68 0 -91 -4 -101 -16z"/>
<path d="M2149 944 c-9 -11 -10 -20 -2 -32 15 -25 181 -25 196 0 8 12 7 21 -2
32 -19 23 -173 23 -192 0z"/>
</g>
</svg>
