<?xml version="1.0" standalone="no"?>
<!DOCTYPE svg PUBLIC "-//W3C//DTD SVG 20010904//EN"
 "http://www.w3.org/TR/2001/REC-SVG-20010904/DTD/svg10.dtd">
<svg version="1.0" xmlns="http://www.w3.org/2000/svg"
 width="207.000000pt" height="126.000000pt" viewBox="0 0 207.000000 126.000000"
 preserveAspectRatio="xMidYMid meet">
<metadata>
Created by potrace 1.16, written by Peter Selinger 2001-2019
</metadata>
<g transform="translate(0.000000,126.000000) scale(0.100000,-0.100000)"
fill="#000000" stroke="none">
<path d="M109 1251 c-45 -14 -81 -44 -95 -78 -11 -26 -14 -136 -14 -555 0
-501 1 -524 20 -555 40 -66 6 -63 787 -63 685 0 709 1 740 20 53 32 63 63 63
205 0 126 0 126 23 120 12 -4 106 -50 210 -103 153 -79 190 -95 205 -86 16 10
17 45 17 475 l0 464 -28 3 c-19 2 -84 -26 -221 -97 -107 -56 -197 -101 -200
-101 -3 0 -6 55 -6 123 0 140 -12 178 -70 212 -34 20 -51 20 -720 22 -377 1
-697 -2 -711 -6z m1408 -51 c17 -10 37 -29 44 -42 9 -17 12 -151 12 -535 0
-467 -2 -515 -17 -538 -37 -56 -27 -56 -771 -53 l-684 3 -30 29 -31 30 0 524
c0 351 4 530 11 543 5 11 25 29 42 39 31 19 56 20 712 20 656 0 681 -1 712
-20z m518 -186 c6 -44 5 -824 -2 -824 -1 0 -97 48 -213 106 l-210 106 1 227 0
226 202 102 c111 56 205 102 208 103 4 0 10 -21 14 -46z"/>
</g>
</svg>
