<?xml version="1.0" standalone="no"?>
<!DOCTYPE svg PUBLIC "-//W3C//DTD SVG 20010904//EN"
 "http://www.w3.org/TR/2001/REC-SVG-20010904/DTD/svg10.dtd">
<svg version="1.0" xmlns="http://www.w3.org/2000/svg"
 width="153.000000pt" height="154.000000pt" viewBox="0 0 153.000000 154.000000"
 preserveAspectRatio="xMidYMid meet">
<metadata>
Created by potrace 1.16, written by Peter Selinger 2001-2019
</metadata>
<g transform="translate(0.000000,154.000000) scale(0.100000,-0.100000)"
fill="#000000" stroke="none">
<path d="M16 1524 c-14 -14 -16 -96 -16 -754 0 -658 2 -740 16 -754 14 -14 96
-16 753 -16 560 0 740 3 749 12 9 9 12 190 12 754 0 662 -2 744 -16 758 -14
14 -95 16 -749 16 -654 0 -735 -2 -749 -16z m1464 -754 l0 -720 -715 0 -715 0
0 720 0 720 715 0 715 0 0 -720z"/>
<path d="M292 1248 c-9 -9 -12 -128 -12 -473 0 -435 1 -463 18 -478 17 -15 64
-17 469 -17 423 0 451 1 466 18 15 17 17 64 17 475 0 401 -2 457 -16 471 -14
14 -70 16 -473 16 -342 0 -460 -3 -469 -12z m908 -190 l0 -153 -174 -193 c-96
-106 -178 -193 -181 -194 -4 0 -49 39 -100 86 -52 47 -97 86 -101 86 -4 0 -76
-68 -161 -152 l-153 -152 0 412 0 412 435 0 435 0 0 -152z m0 -483 l0 -245
-427 0 -428 0 115 116 c63 63 132 129 152 145 l38 31 90 -84 c50 -46 97 -84
104 -86 7 -2 88 81 181 183 92 102 169 185 171 185 2 0 4 -110 4 -245z"/>
</g>
</svg>
