<?xml version="1.0" standalone="no"?>
<!DOCTYPE svg PUBLIC "-//W3C//DTD SVG 20010904//EN"
 "http://www.w3.org/TR/2001/REC-SVG-20010904/DTD/svg10.dtd">
<svg version="1.0" xmlns="http://www.w3.org/2000/svg"
 width="150.000000pt" height="198.000000pt" viewBox="0 0 150.000000 198.000000"
 preserveAspectRatio="xMidYMid meet">
<metadata>
Created by potrace 1.16, written by Peter Selinger 2001-2019
</metadata>
<g transform="translate(0.000000,198.000000) scale(0.100000,-0.100000)"
fill="#000000" stroke="none">
<path d="M105 1966 c-37 -17 -80 -62 -94 -99 -8 -19 -11 -304 -11 -884 l0
-856 24 -41 c13 -23 42 -51 64 -64 l40 -22 621 0 c516 0 627 2 649 14 36 19
78 65 91 99 8 19 11 300 11 873 0 737 -2 849 -15 881 -21 50 -42 72 -90 94
-37 17 -79 19 -650 18 -488 0 -616 -2 -640 -13z m1282 -56 c18 -10 40 -34 50
-52 17 -31 18 -86 21 -861 2 -795 2 -830 -17 -871 -14 -33 -29 -48 -63 -65
-44 -21 -51 -21 -634 -21 -650 0 -631 -2 -678 63 -21 28 -21 37 -24 860 -2
567 0 844 8 869 5 20 26 50 45 67 l36 31 612 0 c589 0 613 -1 644 -20z"/>
<path d="M243 1544 c-3 -8 -1 -20 4 -25 5 -5 208 -8 514 -7 496 3 504 3 504
23 0 20 -8 20 -508 23 -454 2 -508 1 -514 -14z"/>
<path d="M240 1200 c0 -20 4 -20 513 -18 447 3 512 5 512 18 0 13 -65 15 -512
18 -509 2 -513 2 -513 -18z"/>
<path d="M243 884 c-3 -8 -1 -20 4 -25 5 -5 158 -8 384 -7 366 3 374 3 374 23
0 20 -8 20 -378 23 -336 2 -378 1 -384 -14z"/>
</g>
</svg>
