<?xml version="1.0" standalone="no"?>
<!DOCTYPE svg PUBLIC "-//W3C//DTD SVG 20010904//EN"
 "http://www.w3.org/TR/2001/REC-SVG-20010904/DTD/svg10.dtd">
<svg version="1.0" xmlns="http://www.w3.org/2000/svg"
 width="155.000000pt" height="165.000000pt" viewBox="0 0 155.000000 165.000000"
 preserveAspectRatio="xMidYMid meet">
<metadata>
Created by potrace 1.16, written by Peter Selinger 2001-2019
</metadata>
<g transform="translate(0.000000,165.000000) scale(0.100000,-0.100000)"
fill="#000000" stroke="none">
<path d="M1242 1638 c-12 -6 -32 -26 -43 -45 -20 -33 -21 -39 -10 -163 l12
-129 -33 -49 c-18 -26 -44 -72 -57 -102 -117 -265 -170 -350 -288 -460 -137
-129 -319 -213 -537 -247 -200 -31 -208 -33 -242 -67 -58 -58 -55 -150 7 -221
39 -44 149 -98 259 -127 123 -32 356 -32 484 0 103 26 245 90 336 152 194 132
359 357 405 552 22 94 20 261 -5 340 -19 62 -65 139 -99 166 -13 11 -17 41
-21 178 l-5 166 -37 34 c-40 36 -81 43 -126 22z m93 -51 c26 -22 27 -25 32
-182 l6 -160 48 -64 c67 -91 84 -150 83 -291 0 -96 -5 -128 -27 -195 -75 -227
-263 -433 -502 -551 -152 -74 -253 -98 -420 -97 -276 1 -505 103 -505 224 0
50 40 95 91 103 314 48 460 95 605 193 176 120 274 255 398 547 16 37 45 90
65 116 l36 48 -9 143 -9 142 27 24 c34 29 48 29 81 0z"/>
<path d="M1293 1138 c-6 -7 -13 -56 -16 -108 -11 -193 -105 -391 -250 -527
-214 -203 -529 -284 -839 -217 -20 5 -29 2 -34 -10 -9 -24 -3 -27 73 -42 160
-31 384 -10 538 51 327 129 551 437 558 766 2 91 -7 116 -30 87z"/>
</g>
</svg>
