<?xml version="1.0" standalone="no"?>
<!DOCTYPE svg PUBLIC "-//W3C//DTD SVG 20010904//EN"
 "http://www.w3.org/TR/2001/REC-SVG-20010904/DTD/svg10.dtd">
<svg version="1.0" xmlns="http://www.w3.org/2000/svg"
 width="214.000000pt" height="87.000000pt" viewBox="0 0 214.000000 87.000000"
 preserveAspectRatio="xMidYMid meet">
<metadata>
Created by potrace 1.16, written by Peter Selinger 2001-2019
</metadata>
<g transform="translate(0.000000,87.000000) scale(0.100000,-0.100000)"
fill="#000000" stroke="none">
<path d="M277 846 c-117 -49 -187 -115 -241 -226 -29 -61 -31 -72 -31 -180 0
-109 2 -119 32 -183 130 -275 475 -340 690 -130 61 59 118 167 128 243 l7 50
354 0 354 0 2 -192 3 -193 25 0 25 0 3 193 2 192 173 0 c174 0 202 5 190 36
-4 11 -41 14 -184 14 l-179 0 0 148 c0 81 5 154 10 162 8 12 51 16 252 20 235
5 243 6 243 25 0 19 -8 20 -244 23 -210 2 -247 0 -268 -14 -43 -27 -53 -71
-53 -224 l0 -140 -353 0 -353 0 -12 57 c-27 130 -117 245 -238 304 -63 31 -77
34 -174 37 -92 2 -112 -1 -163 -22z m305 -59 c118 -58 195 -159 218 -284 29
-163 -57 -328 -212 -410 -48 -25 -62 -28 -158 -28 -95 0 -110 3 -162 28 -77
38 -144 107 -182 187 -28 58 -31 75 -31 160 0 82 4 103 27 152 46 100 137 180
241 214 69 23 193 13 259 -19z"/>
</g>
</svg>
