<?xml version="1.0" standalone="no"?>
<!DOCTYPE svg PUBLIC "-//W3C//DTD SVG 20010904//EN"
 "http://www.w3.org/TR/2001/REC-SVG-20010904/DTD/svg10.dtd">
<svg version="1.0" xmlns="http://www.w3.org/2000/svg"
 width="220.000000pt" height="192.000000pt" viewBox="0 0 220.000000 192.000000"
 preserveAspectRatio="xMidYMid meet">
<metadata>
Created by potrace 1.16, written by Peter Selinger 2001-2019
</metadata>
<g transform="translate(0.000000,192.000000) scale(0.100000,-0.100000)"
fill="#000000" stroke="none">
<path d="M525 1904 c-218 -42 -407 -214 -479 -433 -37 -112 -50 -202 -43 -305
10 -161 52 -272 165 -445 l62 -93 0 -88 c0 -104 -18 -206 -65 -366 -34 -117
-36 -134 -10 -134 22 0 100 280 113 400 l7 73 45 15 c90 29 140 85 161 179 12
50 13 52 53 58 51 9 70 23 56 40 -7 9 -21 10 -47 5 -19 -5 -46 -5 -59 0 -61
24 -120 167 -94 230 39 93 151 107 237 28 12 -11 26 -19 32 -17 5 2 25 33 43
69 28 54 43 71 87 97 30 18 84 42 120 54 101 33 219 97 248 135 32 43 52 98
53 149 0 32 3 37 11 22 29 -50 51 -141 58 -248 10 -132 29 -186 118 -328 29
-47 53 -95 53 -107 0 -30 -25 -54 -58 -55 -15 0 -40 -2 -57 -2 l-30 -2 4 -82
3 -82 -73 -3 c-58 -2 -74 -6 -74 -18 0 -12 15 -16 66 -18 l67 -3 -13 -54 c-30
-130 -103 -174 -291 -175 -142 0 -142 0 -180 -263 -13 -90 -15 -120 -6 -129
21 -21 30 4 52 160 12 85 24 160 27 168 7 18 27 22 153 27 115 5 167 21 213
65 56 53 84 137 94 283 l5 77 40 5 c54 7 98 49 98 94 0 38 -12 64 -74 161 -71
111 -88 163 -97 292 -13 184 -62 296 -180 411 -147 143 -375 200 -614 153z
m380 -58 c44 -15 101 -41 127 -57 69 -45 134 -118 142 -163 10 -53 -10 -138
-43 -183 -31 -43 -127 -98 -221 -128 -30 -10 -86 -33 -124 -53 -66 -34 -81
-51 -142 -150 -1 -2 -16 7 -33 19 -48 35 -144 39 -191 7 -102 -68 -102 -215 0
-332 34 -38 36 -56 15 -117 -19 -54 -49 -86 -100 -110 -55 -26 -65 -24 -65 11
0 43 -18 81 -88 187 -114 175 -157 338 -134 518 38 300 227 520 492 570 114
22 266 14 365 -19z"/>
<path d="M1580 1245 c-5 -6 -7 -15 -3 -18 3 -4 143 -7 310 -7 263 0 303 2 303
15 0 8 -6 15 -12 15 -495 7 -589 6 -598 -5z"/>
<path d="M1577 1006 c-3 -8 -3 -17 0 -20 4 -3 143 -6 310 -6 296 0 303 0 303
20 0 20 -7 20 -304 20 -251 0 -305 -2 -309 -14z"/>
<path d="M1575 779 c-4 -6 -3 -15 2 -20 5 -5 136 -8 314 -7 262 3 304 5 304
18 0 13 -42 15 -307 18 -215 1 -309 -1 -313 -9z"/>
<path d="M1758 553 c-149 -3 -178 -6 -178 -18 0 -13 30 -15 195 -15 160 0 195
2 195 14 0 11 -28 31 -33 24 -1 -1 -82 -4 -179 -5z"/>
</g>
</svg>
