<?xml version="1.0" standalone="no"?>
<!DOCTYPE svg PUBLIC "-//W3C//DTD SVG 20010904//EN"
 "http://www.w3.org/TR/2001/REC-SVG-20010904/DTD/svg10.dtd">
<svg version="1.0" xmlns="http://www.w3.org/2000/svg"
 width="205.000000pt" height="227.000000pt" viewBox="0 0 205.000000 227.000000"
 preserveAspectRatio="xMidYMid meet">
<metadata>
Created by potrace 1.16, written by Peter Selinger 2001-2019
</metadata>
<g transform="translate(0.000000,227.000000) scale(0.100000,-0.100000)"
fill="#000000" stroke="none">
<path d="M43 2260 c-12 -5 -26 -18 -32 -29 -8 -13 -11 -301 -11 -915 l0 -895
26 -20 c26 -21 35 -21 413 -19 335 3 386 5 386 18 0 13 -50 15 -381 18 -306 2
-384 5 -393 16 -8 9 -10 257 -9 897 l3 884 715 0 715 0 3 -493 c2 -463 3 -493
20 -490 16 3 17 36 20 483 1 264 0 490 -3 502 -13 53 -7 53 -757 52 -381 0
-703 -4 -715 -9z"/>
<path d="M285 1870 c-3 -5 -3 -14 0 -20 4 -6 170 -10 466 -10 433 0 460 1 457
18 -3 16 -34 17 -460 20 -300 1 -459 -1 -463 -8z"/>
<path d="M1173 1541 c-63 -40 -63 -39 -63 -473 -1 -392 -1 -393 -20 -357 -10
20 -35 50 -55 67 -29 26 -44 32 -83 32 -91 0 -148 -62 -140 -151 4 -39 26 -83
121 -241 156 -259 196 -307 308 -363 89 -46 161 -57 324 -53 125 4 159 8 206
27 155 62 244 189 269 383 13 104 13 423 0 503 -8 49 -16 66 -45 93 -29 27
-42 32 -82 32 -27 -1 -59 -7 -73 -14 -23 -13 -26 -12 -42 16 -33 52 -107 71
-174 43 -35 -14 -37 -14 -55 9 -33 42 -108 56 -169 32 -13 -5 -15 13 -12 138
4 161 -5 211 -47 258 -37 41 -118 50 -168 19z m138 -50 l29 -29 0 -332 c0
-294 2 -331 16 -337 28 -10 34 19 33 147 l-2 125 36 18 c31 16 43 17 71 7 56
-18 61 -31 66 -169 4 -110 7 -126 23 -129 15 -3 17 7 17 111 0 126 6 141 67
153 31 6 84 -14 100 -38 4 -7 10 -67 13 -133 4 -104 7 -120 23 -123 15 -3 17
7 17 100 l0 104 29 17 c44 26 88 22 121 -11 26 -27 28 -35 35 -148 10 -152 -1
-400 -20 -482 -36 -152 -129 -248 -279 -288 -70 -19 -266 -18 -341 1 -154 40
-219 97 -348 304 -179 288 -193 327 -138 382 38 38 87 39 129 4 17 -14 47 -60
69 -103 39 -79 51 -94 65 -86 4 3 8 208 8 455 l0 451 29 29 c22 21 39 29 66
29 27 0 44 -8 66 -29z"/>
<path d="M285 1529 c-4 -6 -3 -15 2 -20 5 -5 136 -8 314 -7 262 3 304 5 304
18 0 13 -42 15 -307 18 -215 1 -309 -1 -313 -9z"/>
<path d="M285 1189 c-4 -6 -3 -15 2 -20 5 -5 136 -8 314 -7 262 3 304 5 304
18 0 13 -42 15 -307 18 -215 1 -309 -1 -313 -9z"/>
<path d="M285 849 c-16 -25 20 -29 251 -27 205 3 239 5 239 18 0 13 -35 15
-242 18 -168 2 -244 -1 -248 -9z"/>
</g>
</svg>
