<?xml version="1.0" standalone="no"?>
<!DOCTYPE svg PUBLIC "-//W3C//DTD SVG 20010904//EN"
 "http://www.w3.org/TR/2001/REC-SVG-20010904/DTD/svg10.dtd">
<svg version="1.0" xmlns="http://www.w3.org/2000/svg"
 width="332.000000pt" height="482.000000pt" viewBox="0 0 332.000000 482.000000"
 preserveAspectRatio="xMidYMid meet">
<metadata>
Created by potrace 1.16, written by Peter Selinger 2001-2019
</metadata>
<g transform="translate(0.000000,482.000000) scale(0.100000,-0.100000)"
fill="#000000" stroke="none">
<path d="M3306 3113 c3 -940 8 -1710 10 -1712 2 -2 4 766 4 1707 0 1137 -3
1712 -10 1712 -7 0 -8 -570 -4 -1707z"/>
<path d="M1550 4065 c-122 -34 -235 -136 -279 -253 -79 -205 9 -441 201 -538
174 -88 364 -52 501 95 197 211 128 548 -138 673 -81 37 -198 47 -285 23z
m273 -73 c78 -39 148 -111 185 -190 22 -48 26 -71 26 -147 0 -76 -4 -99 -26
-147 -35 -76 -104 -147 -181 -189 -59 -33 -67 -34 -167 -34 -101 0 -108 1
-168 34 -223 121 -269 424 -91 603 81 81 157 109 281 104 62 -2 89 -9 141 -34z"/>
<path d="M1450 3110 c-281 -29 -525 -271 -548 -543 -4 -45 -5 -206 -2 -357 l5
-275 741 -3 c628 -2 743 0 760 12 18 14 19 28 19 308 0 270 -2 300 -23 382
-32 129 -72 197 -172 297 -68 68 -103 94 -170 128 -47 22 -109 46 -139 51 -59
11 -368 11 -471 0z m540 -70 c143 -62 257 -165 315 -284 61 -126 68 -164 72
-449 3 -142 2 -274 -1 -293 l-7 -34 -709 0 -709 0 -7 35 c-3 19 -4 157 -2 307
4 263 5 276 30 345 14 40 37 92 51 115 80 136 251 254 405 278 31 5 158 8 282
6 213 -2 228 -3 280 -26z"/>
<path d="M3314 630 c0 -124 2 -174 3 -112 2 61 2 163 0 225 -1 61 -3 11 -3
-113z"/>
<path d="M2 290 c0 -14 2 -19 5 -12 2 6 2 18 0 25 -3 6 -5 1 -5 -13z"/>
<path d="M4 110 c0 -63 1 -89 3 -57 2 31 2 83 0 115 -2 31 -3 5 -3 -58z"/>
</g>
</svg>
