<?xml version="1.0" standalone="no"?>
<!DOCTYPE svg PUBLIC "-//W3C//DTD SVG 20010904//EN"
 "http://www.w3.org/TR/2001/REC-SVG-20010904/DTD/svg10.dtd">
<svg version="1.0" xmlns="http://www.w3.org/2000/svg"
 width="184.000000pt" height="225.000000pt" viewBox="0 0 184.000000 225.000000"
 preserveAspectRatio="xMidYMid meet">
<metadata>
Created by potrace 1.16, written by Peter Selinger 2001-2019
</metadata>
<g transform="translate(0.000000,225.000000) scale(0.100000,-0.100000)"
fill="#000000" stroke="none">
<path d="M1052 2238 c-7 -7 -12 -16 -12 -21 0 -13 -76 -128 -173 -260 -48 -65
-100 -146 -116 -180 -74 -155 -56 -306 50 -422 183 -199 505 -150 617 94 21
46 26 71 26 146 1 84 -1 95 -37 169 -21 44 -88 149 -150 235 -63 86 -128 177
-147 204 -36 51 -40 53 -58 35z m187 -287 c135 -183 180 -290 165 -396 -14
-109 -79 -197 -182 -247 -59 -29 -76 -33 -147 -33 -103 0 -172 32 -244 110
-64 71 -85 132 -79 232 6 92 56 198 153 323 36 47 89 120 117 162 l51 77 37
-52 c20 -29 78 -108 129 -176z"/>
<path d="M2 703 l3 -528 24 -48 c25 -52 71 -92 128 -113 30 -10 183 -13 759
-14 813 0 793 -2 859 71 58 65 60 80 60 544 l0 420 -200 0 c-261 -1 -343 -17
-710 -140 -243 -82 -295 -96 -390 -106 -129 -13 -330 -2 -467 27 l-28 6 0 184
0 184 330 0 c323 0 330 0 330 20 0 20 -7 20 -350 20 l-351 0 3 -527z m1789
110 c0 -104 1 -287 2 -408 2 -208 1 -222 -19 -260 -28 -52 -50 -71 -103 -90
-38 -13 -142 -15 -755 -15 -751 1 -758 1 -808 47 -11 10 -30 36 -42 58 -20 38
-21 56 -24 338 l-3 298 23 -5 c105 -23 196 -30 343 -30 201 1 287 19 532 108
83 30 200 68 260 84 93 25 141 35 283 56 14 2 89 4 168 5 l142 1 1 -187z"/>
</g>
</svg>
