<?xml version="1.0" standalone="no"?>
<!DOCTYPE svg PUBLIC "-//W3C//DTD SVG 20010904//EN"
 "http://www.w3.org/TR/2001/REC-SVG-20010904/DTD/svg10.dtd">
<svg version="1.0" xmlns="http://www.w3.org/2000/svg"
 width="210.000000pt" height="268.000000pt" viewBox="0 0 210.000000 268.000000"
 preserveAspectRatio="xMidYMid meet">
<metadata>
Created by potrace 1.16, written by Peter Selinger 2001-2019
</metadata>
<g transform="translate(0.000000,268.000000) scale(0.100000,-0.100000)"
fill="#000000" stroke="none">
<path d="M113 2660 c-65 -39 -63 -15 -63 -695 0 -553 2 -621 16 -652 33 -68
28 -67 434 -73 l365 -5 0 -120 0 -120 -125 -3 c-144 -3 -158 -5 -140 -27 11
-13 75 -15 484 -13 439 3 471 4 474 20 3 16 -9 18 -137 18 l-141 0 0 125 0
125 358 0 c400 0 406 1 444 71 17 32 18 72 18 642 0 665 1 649 -59 700 l-33
27 -931 0 c-907 0 -933 -1 -964 -20z m1909 -49 l33 -29 3 -526 3 -526 -986 0
-985 0 0 516 c0 360 3 522 11 537 6 12 21 30 33 39 20 16 84 18 938 18 l918 0
32 -29z m38 -1186 c0 -35 -5 -76 -12 -90 -26 -57 11 -55 -972 -55 -680 0 -912
3 -931 12 -38 17 -55 58 -55 133 l0 65 985 0 985 0 0 -65z m-820 -310 l0 -125
-165 0 -165 0 0 125 0 125 165 0 165 0 0 -125z"/>
<path d="M2 30 c0 -19 2 -27 5 -17 2 9 2 25 0 35 -3 9 -5 1 -5 -18z"/>
</g>
</svg>
