<?xml version="1.0" standalone="no"?>
<!DOCTYPE svg PUBLIC "-//W3C//DTD SVG 20010904//EN"
 "http://www.w3.org/TR/2001/REC-SVG-20010904/DTD/svg10.dtd">
<svg version="1.0" xmlns="http://www.w3.org/2000/svg"
 width="99.000000pt" height="214.000000pt" viewBox="0 0 99.000000 214.000000"
 preserveAspectRatio="xMidYMid meet">
<metadata>
Created by potrace 1.16, written by Peter Selinger 2001-2019
</metadata>
<g transform="translate(0.000000,214.000000) scale(0.100000,-0.100000)"
fill="#000000" stroke="none">
<path d="M624 2121 c-59 -36 -26 43 -379 -911 l-247 -665 12 -260 c6 -143 13
-266 15 -273 3 -6 10 -12 17 -12 6 0 96 84 199 187 l188 186 95 256 c462 1243
466 1254 466 1305 0 84 -50 143 -158 185 -69 28 -165 28 -208 2z m186 -43 c76
-27 126 -72 136 -123 9 -49 -42 -199 -65 -190 -9 4 -83 32 -166 62 -82 31
-154 60 -159 64 -9 8 36 135 57 161 43 53 98 60 197 26z m-58 -313 l127 -47
-19 -50 c-10 -28 -21 -53 -24 -56 -5 -4 -333 112 -343 122 -2 2 6 29 17 59
l21 56 47 -18 c26 -10 104 -40 174 -66z m-199 -104 c37 -14 67 -28 67 -31 0
-14 -420 -1130 -425 -1130 -2 0 -36 12 -75 26 -56 21 -70 30 -65 43 7 17 391
1048 407 1094 6 15 13 27 17 25 4 -2 37 -14 74 -27z m261 -112 c-1 -8 -58
-165 -127 -349 -68 -184 -162 -435 -207 -558 -72 -194 -85 -222 -101 -217 -73
24 -134 55 -131 69 3 16 409 1104 417 1116 8 13 150 -46 149 -61z m-617 -1102
c76 -30 145 -56 155 -60 12 -4 -15 -37 -117 -137 -170 -169 -169 -169 -178 26
-8 159 -9 224 -3 224 3 0 67 -24 143 -53z"/>
</g>
</svg>
