<?xml version="1.0" standalone="no"?>
<!DOCTYPE svg PUBLIC "-//W3C//DTD SVG 20010904//EN"
 "http://www.w3.org/TR/2001/REC-SVG-20010904/DTD/svg10.dtd">
<svg version="1.0" xmlns="http://www.w3.org/2000/svg"
 width="221.000000pt" height="216.000000pt" viewBox="0 0 221.000000 216.000000"
 preserveAspectRatio="xMidYMid meet">
<metadata>
Created by potrace 1.16, written by Peter Selinger 2001-2019
</metadata>
<g transform="translate(0.000000,216.000000) scale(0.100000,-0.100000)"
fill="#000000" stroke="none">
<path d="M375 2141 c-23 -10 -49 -33 -60 -52 -19 -32 -20 -55 -23 -474 l-3
-440 23 -44 c42 -78 54 -81 355 -81 204 0 263 -3 263 -12 -1 -7 -6 -40 -13
-73 l-13 -60 -449 -5 -450 -5 0 -105 0 -105 87 -3 88 -3 2 -332 3 -332 23 -3
22 -3 0 335 0 336 580 0 579 0 1 -332 c0 -196 4 -336 10 -342 6 -6 15 -4 25 4
12 10 15 42 15 186 l0 174 275 0 275 0 2 -182 c3 -175 4 -183 23 -183 20 0 20
8 23 337 l2 337 83 3 82 3 0 105 0 105 -444 5 -444 5 -13 60 c-7 33 -13 65
-13 72 -1 9 69 13 272 15 302 3 307 4 348 71 18 31 19 50 17 489 -3 444 -4
457 -24 485 -48 66 -16 63 -789 63 -659 0 -702 -2 -740 -19z m1445 -44 c59
-20 60 -25 60 -429 l0 -368 -770 0 -770 0 0 358 c0 320 2 361 18 392 9 19 28
40 42 47 35 18 1368 18 1420 0z m60 -888 c0 -47 -12 -74 -41 -89 -14 -8 -237
-11 -732 -11 l-711 1 -24 24 c-16 15 -26 39 -29 70 l-6 46 772 0 771 0 0 -41z
m-631 -196 c5 -21 13 -55 17 -75 l6 -38 -162 0 -162 0 6 38 c4 20 12 54 17 75
l10 37 129 0 129 0 10 -37z m911 -223 l0 -60 -1055 0 -1055 0 0 60 0 60 1055
0 1055 0 0 -60z m-170 -240 l0 -130 -275 0 -275 0 0 130 0 130 275 0 275 0 0
-130z"/>
</g>
</svg>
