<?xml version="1.0" standalone="no"?>
<!DOCTYPE svg PUBLIC "-//W3C//DTD SVG 20010904//EN"
 "http://www.w3.org/TR/2001/REC-SVG-20010904/DTD/svg10.dtd">
<svg version="1.0" xmlns="http://www.w3.org/2000/svg"
 width="139.000000pt" height="139.000000pt" viewBox="0 0 139.000000 139.000000"
 preserveAspectRatio="xMidYMid meet">
<metadata>
Created by potrace 1.16, written by Peter Selinger 2001-2019
</metadata>
<g transform="translate(0.000000,139.000000) scale(0.100000,-0.100000)"
fill="#000000" stroke="none">
<path d="M495 1366 c-217 -70 -390 -238 -459 -446 -116 -352 63 -739 404 -873
99 -39 178 -51 293 -44 191 10 321 69 457 206 141 142 194 275 194 486 1 98
-4 134 -23 195 -38 124 -87 206 -176 296 -144 146 -288 204 -499 204 -98 -1
-134 -5 -191 -24z"/>
</g>
</svg>
