<?xml version="1.0" standalone="no"?>
<!DOCTYPE svg PUBLIC "-//W3C//DTD SVG 20010904//EN"
 "http://www.w3.org/TR/2001/REC-SVG-20010904/DTD/svg10.dtd">
<svg version="1.0" xmlns="http://www.w3.org/2000/svg"
 width="247.000000pt" height="112.000000pt" viewBox="0 0 247.000000 112.000000"
 preserveAspectRatio="xMidYMid meet">
<metadata>
Created by potrace 1.16, written by Peter Selinger 2001-2019
</metadata>
<g transform="translate(0.000000,112.000000) scale(0.100000,-0.100000)"
fill="#000000" stroke="none">
<path d="M1770 1094 c-129 -37 -1109 -294 -1121 -294 -6 0 -99 63 -207 140
l-196 140 -117 0 c-97 0 -118 -3 -123 -16 -3 -8 38 -113 95 -241 55 -124 99
-226 97 -227 -2 -1 -30 -10 -62 -20 -71 -21 -106 -53 -106 -95 0 -54 31 -65
209 -72 86 -4 206 -14 266 -24 61 -9 180 -20 266 -23 l156 -7 -84 -135 c-100
-159 -107 -175 -93 -201 10 -17 22 -19 130 -19 65 0 130 4 143 9 21 8 548 493
637 585 45 47 35 70 -35 74 -64 4 -518 -57 -545 -73 -3 -2 -33 -47 -66 -101
l-59 -96 -155 5 c-85 3 -216 15 -290 26 -74 11 -189 21 -255 22 -141 2 -179 8
-183 31 -4 21 40 45 123 69 40 11 59 21 57 30 -4 15 -66 157 -150 347 l-51
112 87 0 87 0 181 -128 c99 -70 185 -136 190 -147 5 -11 16 -19 24 -19 22 2
789 205 1025 272 182 51 209 56 300 56 106 0 169 -14 274 -61 66 -29 67 -29
-91 -63 -59 -13 -109 -29 -112 -35 -13 -34 12 -34 159 0 82 20 156 33 166 30
9 -3 33 -21 53 -41 61 -59 43 -129 -51 -198 -89 -65 -199 -104 -506 -176 -247
-59 -295 -73 -316 -95 -30 -30 -22 -31 64 -10 33 8 174 41 313 74 204 49 272
69 350 106 159 76 222 139 222 224 0 85 -52 135 -233 222 -153 73 -311 88
-467 43z m-213 -542 c-244 -233 -532 -495 -554 -503 -39 -14 -216 -12 -210 4
4 11 68 115 258 419 l54 87 65 12 c107 19 382 56 427 58 l43 1 -83 -78z"/>
</g>
</svg>
