<?xml version="1.0" standalone="no"?>
<!DOCTYPE svg PUBLIC "-//W3C//DTD SVG 20010904//EN"
 "http://www.w3.org/TR/2001/REC-SVG-20010904/DTD/svg10.dtd">
<svg version="1.0" xmlns="http://www.w3.org/2000/svg"
 width="165.000000pt" height="221.000000pt" viewBox="0 0 165.000000 221.000000"
 preserveAspectRatio="xMidYMid meet">
<metadata>
Created by potrace 1.16, written by Peter Selinger 2001-2019
</metadata>
<g transform="translate(0.000000,221.000000) scale(0.100000,-0.100000)"
fill="#000000" stroke="none">
<path d="M24 2185 l-24 -24 2 -1062 3 -1061 24 -19 c22 -18 50 -19 802 -19
l778 0 21 22 c20 22 20 30 20 934 l0 912 -158 168 -158 169 -642 3 -643 2 -25
-25z m1277 -332 c9 -10 49 -13 160 -13 l149 0 0 -889 c0 -737 -2 -890 -14
-900 -9 -8 -221 -10 -777 -9 l-764 3 -3 1057 -2 1058 617 2 618 3 3 -149 c1
-90 7 -155 13 -163z m166 29 c-61 -1 -117 0 -124 2 -10 4 -13 37 -13 133 l0
128 124 -130 123 -130 -110 -3z"/>
<path d="M267 1873 c-4 -3 -7 -12 -7 -20 0 -11 68 -13 388 -11 336 3 387 5
387 18 0 13 -50 15 -381 18 -209 1 -383 -1 -387 -5z"/>
<path d="M262 1513 c3 -17 38 -18 583 -18 509 0 580 2 580 15 0 13 -73 15
-583 18 -552 2 -583 1 -580 -15z"/>
<path d="M267 1213 c-4 -3 -7 -12 -7 -20 0 -11 101 -13 583 -11 509 3 582 5
582 18 0 13 -72 15 -576 18 -316 1 -579 -1 -582 -5z"/>
<path d="M265 889 c-4 -6 -3 -15 2 -20 5 -5 243 -8 584 -7 502 3 574 5 574 18
0 13 -72 15 -577 18 -410 1 -579 -1 -583 -9z"/>
<path d="M276 604 c-23 -23 -23 -315 0 -338 13 -13 43 -16 168 -16 105 0 156
4 164 12 8 8 12 61 12 175 0 150 -1 163 -19 173 -11 5 -84 10 -165 10 -118 0
-147 -3 -160 -16z m302 -171 l-3 -138 -132 -3 c-73 -1 -134 1 -134 5 -1 4 -3
68 -4 141 l-2 132 139 0 139 0 -3 -137z"/>
<path d="M845 559 c-4 -6 -3 -15 2 -20 5 -5 128 -8 294 -7 245 3 284 5 284 18
0 13 -40 15 -287 18 -201 2 -289 -1 -293 -9z"/>
<path d="M847 283 c-4 -3 -7 -12 -7 -20 0 -11 52 -13 293 -11 252 3 292 5 292
18 0 13 -40 15 -286 18 -157 1 -288 -1 -292 -5z"/>
</g>
</svg>
