<?xml version="1.0" standalone="no"?>
<!DOCTYPE svg PUBLIC "-//W3C//DTD SVG 20010904//EN"
 "http://www.w3.org/TR/2001/REC-SVG-20010904/DTD/svg10.dtd">
<svg version="1.0" xmlns="http://www.w3.org/2000/svg"
 width="192.000000pt" height="180.000000pt" viewBox="0 0 192.000000 180.000000"
 preserveAspectRatio="xMidYMid meet">
<metadata>
Created by potrace 1.16, written by Peter Selinger 2001-2019
</metadata>
<g transform="translate(0.000000,180.000000) scale(0.100000,-0.100000)"
fill="#000000" stroke="none">
<path d="M670 1634 c-146 -90 -328 -203 -405 -251 -77 -47 -143 -91 -147 -97
-13 -19 -9 -201 4 -214 7 -7 36 -12 64 -12 l53 0 -2 -407 -2 -408 -32 -3 c-17
-2 -36 -9 -42 -16 -5 -6 -11 -50 -13 -96 l-3 -85 -70 -1 c-61 -2 -70 -4 -70
-20 0 -18 32 -19 955 -19 948 0 955 0 955 20 0 18 -6 20 -62 19 l-63 -1 0 82
c0 94 -10 113 -60 117 l-35 3 0 408 -1 407 46 0 c25 0 51 5 58 12 8 8 12 48
12 115 l0 103 -52 34 c-29 18 -201 123 -383 233 -181 110 -346 210 -365 221
-19 12 -44 22 -55 21 -11 0 -139 -74 -285 -165z m669 -104 l370 -225 -369 -3
c-203 -1 -539 -1 -747 0 l-378 3 165 101 c91 55 257 158 370 227 113 69 208
125 211 124 4 -1 174 -103 378 -227z m431 -350 l0 -80 -810 0 -810 0 0 80 0
80 810 0 810 0 0 -80z m-1280 -530 l0 -410 -105 0 -105 0 0 410 0 410 105 0
105 0 0 -410z m330 0 l0 -410 -145 0 -145 0 0 410 0 410 145 0 145 0 0 -410z
m250 0 l0 -410 -105 0 -105 0 0 410 0 410 105 0 105 0 0 -410z m330 0 l0 -410
-145 0 -145 0 0 410 0 410 145 0 145 0 0 -410z m250 0 l0 -410 -105 0 -105 0
0 410 0 410 105 0 105 0 0 -410z m100 -530 l0 -80 -780 0 -780 0 0 80 0 80
780 0 780 0 0 -80z"/>
</g>
</svg>
