<?xml version="1.0" standalone="no"?>
<!DOCTYPE svg PUBLIC "-//W3C//DTD SVG 20010904//EN"
 "http://www.w3.org/TR/2001/REC-SVG-20010904/DTD/svg10.dtd">
<svg version="1.0" xmlns="http://www.w3.org/2000/svg"
 width="155.000000pt" height="179.000000pt" viewBox="0 0 155.000000 179.000000"
 preserveAspectRatio="xMidYMid meet">
<metadata>
Created by potrace 1.16, written by Peter Selinger 2001-2019
</metadata>
<g transform="translate(0.000000,179.000000) scale(0.100000,-0.100000)"
fill="#000000" stroke="none">
<path d="M1098 1775 c-95 -19 -150 -46 -213 -106 -53 -50 -125 -170 -125 -208
0 -8 -16 9 -36 39 -45 70 -123 150 -146 150 -37 0 -27 -24 39 -93 77 -82 123
-166 123 -226 0 -23 -3 -41 -7 -41 -5 0 -44 15 -88 32 -74 30 -88 33 -200 33
-115 0 -123 -1 -188 -32 -174 -83 -257 -232 -257 -464 0 -252 79 -477 236
-670 133 -166 273 -220 436 -169 81 25 129 25 229 -1 134 -35 228 -6 346 104
175 164 287 420 300 687 12 250 -71 422 -240 500 -58 27 -173 53 -189 43 -18
-10 -4 7 60 72 74 76 129 175 156 280 14 55 14 61 -1 73 -22 16 -147 14 -235
-3z m187 -79 c-36 -118 -121 -243 -206 -301 -41 -28 -248 -105 -283 -105 -14
0 -14 8 0 126 6 49 51 147 89 192 38 45 100 86 160 105 66 21 86 24 177 26
l76 1 -13 -44z m-650 -422 c56 -19 117 -34 137 -34 20 0 74 14 120 32 77 30
92 32 203 32 109 0 125 -2 177 -26 154 -71 229 -209 229 -421 0 -118 -12 -196
-48 -312 -66 -210 -205 -400 -340 -466 -68 -33 -161 -37 -233 -10 -69 26 -131
27 -205 1 -126 -44 -228 -19 -341 84 -162 146 -274 396 -290 645 -19 280 106
475 326 509 82 13 154 4 265 -34z"/>
</g>
</svg>
