<?xml version="1.0" standalone="no"?>
<!DOCTYPE svg PUBLIC "-//W3C//DTD SVG 20010904//EN"
 "http://www.w3.org/TR/2001/REC-SVG-20010904/DTD/svg10.dtd">
<svg version="1.0" xmlns="http://www.w3.org/2000/svg"
 width="206.000000pt" height="256.000000pt" viewBox="0 0 206.000000 256.000000"
 preserveAspectRatio="xMidYMid meet">
<metadata>
Created by potrace 1.16, written by Peter Selinger 2001-2019
</metadata>
<g transform="translate(0.000000,256.000000) scale(0.100000,-0.100000)"
fill="#000000" stroke="none">
<path d="M920 2553 c-101 -17 -208 -70 -281 -140 -108 -103 -149 -225 -149
-445 0 -119 -1 -122 -27 -151 -25 -25 -28 -36 -28 -95 1 -104 67 -222 133
-237 22 -5 34 -20 65 -89 21 -45 59 -106 84 -135 45 -51 45 -53 41 -112 -7
-90 -27 -111 -124 -127 -43 -7 -124 -31 -179 -53 -238 -95 -350 -207 -399
-396 -23 -90 -58 -415 -46 -427 11 -11 218 -34 312 -35 l57 -1 3 -52 3 -53
650 0 650 0 3 51 3 50 161 13 c88 7 171 16 184 21 29 11 29 12 9 201 -20 197
-31 241 -76 335 -52 110 -130 182 -273 253 -96 48 -265 101 -324 101 -31 0
-58 49 -66 121 l-7 60 47 52 c26 29 64 87 84 131 33 68 43 80 79 96 67 31 121
131 121 228 0 50 -22 110 -45 118 -12 5 -15 29 -15 145 0 223 -29 310 -139
419 -78 77 -142 113 -247 140 -72 19 -195 25 -264 13z m238 -48 c93 -22 165
-60 230 -120 106 -98 142 -199 142 -402 0 -121 0 -123 -28 -154 l-29 -32 -12
79 c-15 93 -25 114 -52 114 -23 0 -95 64 -134 120 -15 22 -33 40 -40 40 -8 0
-37 -16 -66 -35 -68 -44 -152 -72 -259 -86 -75 -9 -174 -6 -221 7 -33 9 -52
-22 -79 -131 l-26 -108 -25 34 c-20 29 -25 48 -27 125 -4 107 10 211 39 289
24 64 109 163 173 200 118 69 277 92 414 60z m212 -545 c36 -18 39 -23 49 -87
6 -37 12 -79 13 -93 5 -39 43 -39 83 0 30 29 34 30 49 15 25 -25 30 -64 18
-125 -16 -76 -57 -132 -108 -148 -38 -12 -43 -18 -68 -80 -69 -176 -206 -275
-381 -274 -157 0 -274 78 -344 227 -18 39 -38 81 -44 94 -7 15 -25 28 -44 33
-91 24 -157 215 -93 273 19 17 21 17 52 -14 39 -38 72 -38 76 -1 1 14 12 66
23 116 l20 91 137 -1 c160 0 228 14 342 72 l75 38 54 -58 c29 -33 70 -68 91
-78z m-89 -902 c6 -13 24 -37 40 -53 27 -29 28 -32 14 -60 -22 -43 -80 -91
-133 -110 -26 -9 -90 -19 -143 -22 -148 -8 -245 21 -307 92 -38 43 -40 74 -8
104 35 33 56 82 56 131 0 36 2 41 18 35 156 -66 260 -69 386 -12 l51 23 7 -53
c4 -29 12 -63 19 -75z m-588 -143 c33 -64 108 -113 208 -135 83 -19 249 -8
321 19 69 27 146 97 155 142 3 17 12 33 19 36 28 11 162 -30 271 -83 187 -90
271 -188 307 -357 20 -89 47 -350 38 -358 -6 -6 -253 -29 -305 -29 -15 0 -17
15 -17 149 0 146 -7 178 -31 154 -6 -6 -11 -96 -12 -209 l-2 -199 -610 0 -610
0 -5 205 c-4 173 -7 205 -20 205 -13 0 -15 -25 -18 -152 l-3 -153 -26 0 c-15
0 -89 5 -165 12 l-138 11 0 26 c0 48 30 296 41 346 21 93 65 173 127 233 82
81 230 156 377 192 70 17 70 17 76 -4 3 -12 13 -35 22 -51z"/>
</g>
</svg>
