<?xml version="1.0" standalone="no"?>
<!DOCTYPE svg PUBLIC "-//W3C//DTD SVG 20010904//EN"
 "http://www.w3.org/TR/2001/REC-SVG-20010904/DTD/svg10.dtd">
<svg version="1.0" xmlns="http://www.w3.org/2000/svg"
 width="265.000000pt" height="291.000000pt" viewBox="0 0 265.000000 291.000000"
 preserveAspectRatio="xMidYMid meet">
<metadata>
Created by potrace 1.16, written by Peter Selinger 2001-2019
</metadata>
<g transform="translate(0.000000,291.000000) scale(0.100000,-0.100000)"
fill="#000000" stroke="none">
<path d="M145 2894 c-48 -18 -100 -66 -126 -116 -19 -37 -19 -69 -17 -1161 l3
-1123 28 -43 c20 -31 44 -50 83 -68 50 -23 68 -25 202 -27 l147 -1 0 25 0 25
-140 8 c-115 6 -148 11 -184 30 -88 44 -81 -53 -81 1180 0 901 2 1093 14 1120
19 44 64 83 111 96 54 15 2094 15 2147 1 41 -12 91 -50 111 -84 9 -16 13 -220
17 -846 l5 -825 25 0 25 0 3 825 2 825 -25 51 c-27 55 -77 98 -136 114 -21 6
-435 10 -1104 9 -911 0 -1076 -3 -1110 -15z"/>
<path d="M586 2171 c-208 -208 -287 -293 -284 -307 9 -50 40 -26 320 253 154
153 284 286 289 296 11 20 -4 47 -25 47 -6 0 -141 -130 -300 -289z"/>
<path d="M1501 2379 c-79 -14 -173 -63 -241 -126 -116 -107 -159 -248 -146
-474 11 -186 52 -303 143 -411 43 -49 44 -54 38 -97 -14 -94 -53 -128 -215
-186 -236 -83 -389 -185 -452 -301 -58 -108 -63 -142 -63 -468 0 -272 2 -300
17 -310 12 -7 21 -7 27 -1 6 6 12 129 14 300 4 314 11 362 63 451 34 57 120
135 200 180 35 19 124 57 198 84 165 59 220 94 252 164 13 28 24 62 24 75 0
18 4 22 18 16 123 -52 203 -64 308 -46 38 7 90 23 116 35 l47 23 7 -41 c17
-105 93 -169 269 -226 132 -43 231 -97 303 -165 136 -128 154 -192 156 -562 1
-286 5 -311 44 -287 15 10 17 38 17 300 0 318 -5 349 -67 465 -36 69 -124 159
-199 205 -50 30 -163 78 -301 128 -105 38 -158 98 -158 178 0 42 5 55 43 101
79 98 117 216 132 412 8 103 -7 234 -35 307 -75 197 -322 319 -559 277z m251
-79 c117 -36 193 -103 245 -217 25 -52 28 -71 31 -200 8 -298 -69 -472 -247
-556 -72 -34 -149 -45 -240 -35 -175 20 -306 153 -348 353 -10 50 -13 114 -11
220 5 178 22 233 95 316 120 133 292 176 475 119z"/>
<path d="M917 403 c-4 -3 -7 -93 -7 -200 0 -164 2 -195 15 -199 8 -4 22 -1 30
6 12 10 15 46 15 194 0 128 -4 186 -12 194 -13 13 -31 16 -41 5z"/>
<path d="M2242 398 c-8 -8 -12 -66 -12 -194 0 -153 2 -184 16 -195 11 -9 20
-10 32 -2 15 9 17 35 20 193 2 181 -2 210 -32 210 -7 0 -17 -5 -24 -12z"/>
</g>
</svg>
