<?xml version="1.0" standalone="no"?>
<!DOCTYPE svg PUBLIC "-//W3C//DTD SVG 20010904//EN"
 "http://www.w3.org/TR/2001/REC-SVG-20010904/DTD/svg10.dtd">
<svg version="1.0" xmlns="http://www.w3.org/2000/svg"
 width="191.000000pt" height="214.000000pt" viewBox="0 0 191.000000 214.000000"
 preserveAspectRatio="xMidYMid meet">
<metadata>
Created by potrace 1.16, written by Peter Selinger 2001-2019
</metadata>
<g transform="translate(0.000000,214.000000) scale(0.100000,-0.100000)"
fill="#000000" stroke="none">
<path d="M1269 2112 c-39 -20 -62 -41 -84 -77 -27 -43 -30 -57 -30 -130 0 -72
3 -86 28 -124 58 -88 161 -126 262 -96 175 50 230 261 101 389 -72 72 -183 87
-277 38z m200 -52 c44 -22 91 -102 91 -154 -1 -149 -196 -230 -297 -124 -43
47 -55 73 -55 128 1 70 34 123 97 158 33 19 121 14 164 -8z"/>
<path d="M615 1780 c-22 -11 -108 -86 -192 -167 -129 -125 -153 -154 -159
-185 -17 -102 107 -193 199 -147 12 6 76 65 143 131 l120 119 70 -12 c38 -7
70 -13 72 -14 1 -1 -34 -69 -79 -151 -119 -216 -149 -283 -149 -328 0 -26 -22
-92 -66 -195 -37 -86 -70 -160 -75 -165 -4 -5 -96 -24 -203 -42 -107 -18 -203
-37 -214 -43 -33 -17 -71 -69 -78 -106 -12 -68 36 -145 104 -164 39 -11 509
67 559 93 63 32 96 79 147 210 l49 125 66 -51 c36 -29 89 -71 117 -94 l50 -43
49 -178 c77 -287 81 -298 120 -332 92 -80 226 -27 242 97 4 35 -65 289 -143
524 l-26 78 -139 125 c-76 69 -139 128 -139 131 0 5 78 145 112 202 l20 33 41
-58 c58 -84 88 -113 114 -113 12 0 123 16 245 36 152 24 233 42 254 55 33 20
64 72 64 108 0 35 -36 95 -68 114 -39 22 -57 22 -228 -9 -79 -14 -150 -24
-157 -21 -7 3 -52 69 -99 148 -91 152 -118 185 -183 217 -46 23 -403 92 -474
92 -26 0 -63 -9 -86 -20z m339 -76 c137 -25 187 -39 216 -58 47 -31 49 -34
158 -216 73 -121 91 -145 113 -148 14 -2 88 8 164 22 177 33 198 33 224 0 27
-34 26 -57 -1 -89 -21 -24 -41 -29 -228 -61 -113 -19 -218 -33 -234 -32 -24 3
-40 19 -93 93 -36 50 -73 91 -83 93 -20 3 -48 -39 -142 -216 -35 -64 -48 -99
-44 -115 3 -12 67 -76 142 -142 75 -66 140 -127 144 -136 18 -33 160 -527 160
-556 0 -39 -48 -83 -90 -83 -63 0 -77 26 -146 280 l-64 235 -44 41 c-24 22
-121 101 -216 174 -174 135 -200 164 -200 223 0 28 59 150 169 350 44 82 81
155 81 163 0 20 -29 30 -139 49 l-94 17 -133 -133 c-123 -122 -136 -133 -170
-133 -28 0 -42 7 -60 28 -31 35 -30 67 0 103 62 74 279 266 314 279 42 15 49
14 296 -32z m-170 -907 l30 -24 -48 -124 c-56 -143 -73 -170 -119 -193 -19 -8
-141 -34 -271 -56 -261 -45 -277 -44 -304 13 -30 62 13 121 96 133 180 26 368
65 378 79 7 9 35 74 64 145 l53 129 46 -39 c25 -21 59 -50 75 -63z"/>
</g>
</svg>
