<?xml version="1.0" standalone="no"?>
<!DOCTYPE svg PUBLIC "-//W3C//DTD SVG 20010904//EN"
 "http://www.w3.org/TR/2001/REC-SVG-20010904/DTD/svg10.dtd">
<svg version="1.0" xmlns="http://www.w3.org/2000/svg"
 width="208.000000pt" height="196.000000pt" viewBox="0 0 208.000000 196.000000"
 preserveAspectRatio="xMidYMid meet">
<metadata>
Created by potrace 1.16, written by Peter Selinger 2001-2019
</metadata>
<g transform="translate(0.000000,196.000000) scale(0.100000,-0.100000)"
fill="#000000" stroke="none">
<path d="M1433 1942 c-71 -25 -129 -67 -164 -119 -17 -24 -92 -175 -168 -336
-165 -349 -185 -391 -188 -396 -2 -2 -67 -19 -145 -36 l-143 -32 -21 63 c-25
79 -65 129 -134 171 -249 151 -540 -68 -454 -343 14 -46 31 -72 73 -115 102
-102 191 -113 396 -48 184 57 338 100 343 95 2 -3 -4 -17 -15 -33 -11 -15 -46
-75 -78 -133 -32 -58 -83 -147 -113 -198 -48 -82 -55 -100 -59 -160 -9 -124
62 -244 175 -295 67 -30 190 -30 249 1 66 34 110 78 140 140 39 79 39 183 1
258 -31 59 -87 117 -140 145 l-38 19 63 118 c34 64 67 125 72 134 9 14 86 31
375 83 389 70 431 83 507 149 51 45 104 148 111 215 6 69 -10 76 -112 49 -88
-22 -690 -157 -692 -155 -1 1 41 76 93 167 52 91 146 257 209 370 134 241 134
233 -4 238 -64 2 -100 -2 -139 -16z m197 -27 c0 -14 -116 -223 -398 -720 -131
-230 -332 -603 -332 -616 0 -4 24 -20 53 -37 131 -74 189 -192 153 -314 -44
-154 -212 -226 -359 -154 -69 34 -113 84 -133 155 -28 94 -20 117 130 379 75
132 136 246 136 254 0 8 -5 19 -10 24 -10 10 156 363 367 783 86 171 112 200
205 232 48 17 188 27 188 14z m405 -642 c-16 -88 -87 -178 -169 -217 -46 -22
-271 -67 -715 -143 -19 -4 -32 -2 -29 3 123 219 119 213 156 223 21 6 111 26
202 46 91 19 248 55 350 79 102 25 191 45 199 45 10 1 12 -8 6 -36z m-1619
-32 c86 -38 146 -116 162 -212 6 -33 12 -45 27 -47 11 -1 76 10 145 26 69 16
126 28 127 27 2 -1 -12 -34 -30 -73 -27 -61 -37 -72 -62 -78 -16 -3 -124 -35
-238 -70 -132 -40 -226 -64 -255 -64 -127 1 -252 125 -252 251 0 196 194 320
376 240z"/>
<path d="M970 986 c-28 -35 11 -93 48 -70 35 22 22 84 -18 84 -10 0 -23 -7
-30 -14z"/>
<path d="M768 460 c-57 -30 -100 -108 -92 -165 9 -66 18 -86 51 -118 45 -45
91 -61 156 -53 98 11 161 88 154 188 -4 66 -39 121 -98 150 -45 24 -124 22
-171 -2z m159 -40 c154 -94 34 -320 -129 -241 -53 25 -78 65 -78 121 0 108
117 175 207 120z"/>
<path d="M246 1175 c-126 -45 -167 -194 -78 -288 52 -56 118 -73 192 -51 72
21 130 98 130 171 -1 71 -66 153 -138 173 -47 13 -58 12 -106 -5z m131 -55
c45 -27 65 -62 65 -115 0 -81 -58 -135 -144 -135 -38 0 -54 6 -82 30 -40 36
-60 87 -51 130 8 36 49 88 79 100 37 15 100 11 133 -10z"/>
</g>
</svg>
