<?xml version="1.0" standalone="no"?>
<!DOCTYPE svg PUBLIC "-//W3C//DTD SVG 20010904//EN"
 "http://www.w3.org/TR/2001/REC-SVG-20010904/DTD/svg10.dtd">
<svg version="1.0" xmlns="http://www.w3.org/2000/svg"
 width="216.000000pt" height="231.000000pt" viewBox="0 0 216.000000 231.000000"
 preserveAspectRatio="xMidYMid meet">
<metadata>
Created by potrace 1.16, written by Peter Selinger 2001-2019
</metadata>
<g transform="translate(0.000000,231.000000) scale(0.100000,-0.100000)"
fill="#000000" stroke="none">
<path d="M1420 2294 c-94 -25 -178 -70 -240 -130 -121 -115 -166 -227 -177
-432 -7 -136 -17 -166 -102 -299 -42 -66 -51 -128 -23 -163 17 -21 30 -25 90
-28 l71 -4 -7 -32 c-7 -33 -7 -53 0 -156 9 -118 45 -202 94 -220 14 -6 83 -10
154 -10 l129 0 3 -112 c2 -93 6 -113 18 -113 12 0 16 21 18 119 2 78 -1 123
-9 132 -9 11 -44 14 -151 14 -133 0 -140 1 -163 24 -27 27 -45 83 -45 143 l0
42 73 3 c56 2 72 6 72 18 0 12 -16 16 -70 18 -38 2 -74 7 -80 12 -8 6 -8 30
-1 79 5 39 6 74 2 78 -4 5 -31 9 -59 10 -29 0 -64 2 -79 2 -25 1 -28 5 -28 36
0 38 18 81 56 130 58 77 76 139 84 289 8 154 25 214 81 299 186 282 626 304
855 43 55 -63 109 -167 125 -243 28 -135 -5 -326 -90 -527 -57 -133 -62 -176
-59 -466 3 -219 5 -255 18 -255 13 0 16 41 20 285 l5 285 51 125 c87 210 99
263 99 430 0 169 -14 219 -91 333 -83 120 -210 210 -345 242 -80 19 -227 18
-299 -1z"/>
<path d="M1177 1674 c-4 -4 -7 -13 -7 -21 0 -11 21 -13 103 -11 83 2 102 6
102 18 0 12 -19 16 -95 18 -53 1 -99 0 -103 -4z"/>
<path d="M534 1390 c-12 -4 -31 -21 -43 -36 -20 -25 -21 -37 -21 -239 l0 -213
-50 1 c-39 1 -55 -4 -76 -24 -14 -13 -30 -33 -34 -44 -6 -16 -15 -19 -54 -16
-40 2 -50 -1 -76 -27 -17 -17 -30 -39 -30 -50 0 -17 -5 -19 -45 -15 -39 5 -47
2 -76 -26 l-31 -31 4 -208 c4 -187 7 -213 28 -267 27 -70 44 -99 79 -138 26
-29 71 -57 91 -57 22 0 8 37 -21 54 -61 36 -119 150 -135 267 l-6 46 50 -5
c47 -4 54 -2 82 27 25 25 35 29 50 21 31 -17 67 -11 98 15 25 21 31 23 42 11
19 -24 66 -29 100 -12 17 8 38 12 46 9 11 -4 1 -20 -40 -63 -59 -62 -113 -158
-103 -184 10 -25 34 -19 42 12 10 43 61 115 115 165 59 55 58 77 -8 116 -91
52 -115 98 -72 141 27 27 64 25 135 -9 104 -50 164 -137 165 -238 0 -85 -60
-227 -131 -307 -34 -39 -37 -56 -10 -56 22 0 68 50 105 112 94 160 102 318 21
424 l-24 31 -3 378 -3 377 -37 34 c-39 35 -78 43 -124 24z m91 -55 l25 -24 0
-344 0 -344 -56 29 c-31 15 -63 28 -70 28 -12 0 -14 56 -14 315 l0 316 25 24
c13 14 34 25 45 25 12 0 32 -11 45 -25z m-165 -501 c6 -14 10 -53 10 -88 0
-61 -1 -63 -32 -77 -18 -8 -41 -29 -52 -47 -16 -29 -17 -39 -7 -72 6 -22 23
-48 36 -58 31 -25 31 -32 0 -32 -48 0 -59 36 -63 207 -5 175 1 193 65 193 27
0 35 -5 43 -26z m-166 -76 c21 -29 23 -280 4 -295 -28 -22 -48 -22 -73 0 -24
21 -26 29 -32 148 -6 120 -5 127 16 148 27 27 66 27 85 -1z m-166 -86 c15 -15
20 -41 25 -121 8 -113 1 -137 -39 -147 -19 -5 -32 -1 -47 15 -19 18 -22 35
-25 125 -4 95 -2 106 17 125 26 26 45 27 69 3z"/>
</g>
</svg>
