<?xml version="1.0" standalone="no"?>
<!DOCTYPE svg PUBLIC "-//W3C//DTD SVG 20010904//EN"
 "http://www.w3.org/TR/2001/REC-SVG-20010904/DTD/svg10.dtd">
<svg version="1.0" xmlns="http://www.w3.org/2000/svg"
 width="202.000000pt" height="265.000000pt" viewBox="0 0 202.000000 265.000000"
 preserveAspectRatio="xMidYMid meet">
<metadata>
Created by potrace 1.16, written by Peter Selinger 2001-2019
</metadata>
<g transform="translate(0.000000,265.000000) scale(0.100000,-0.100000)"
fill="#000000" stroke="none">
<path d="M1366 2636 c-70 -26 -135 -110 -136 -177 0 -23 -5 -27 -41 -33 -104
-17 -189 -102 -189 -189 0 -45 10 -47 255 -47 264 0 272 2 262 65 -14 86 -98
160 -196 172 -58 7 -61 14 -32 79 18 40 57 76 96 87 17 6 254 10 364 8 44 -1
105 -61 120 -118 8 -28 10 -184 9 -484 l-3 -444 -885 0 -885 0 0 88 c0 85 1
90 28 113 15 13 41 24 56 24 37 0 78 -33 86 -70 5 -21 13 -30 26 -30 39 0 13
97 -32 121 -70 37 -130 28 -178 -27 -30 -33 -31 -38 -31 -128 0 -88 -2 -95
-24 -109 -46 -31 -41 -110 8 -137 22 -11 24 -20 29 -133 8 -188 53 -279 165
-334 l57 -28 710 0 710 0 51 27 c117 62 171 167 176 345 2 67 7 103 14 103 6
0 23 9 38 21 21 16 26 29 26 63 0 52 -28 86 -70 86 l-29 0 -3 478 c-3 462 -4
478 -24 517 -11 22 -40 54 -63 70 l-43 30 -191 2 c-145 2 -201 -1 -231 -11z
m8 -270 c34 -14 91 -75 99 -107 5 -17 -7 -18 -209 -21 -208 -3 -214 -2 -214
17 0 31 35 76 77 102 32 19 52 23 126 23 52 0 101 -6 121 -14z m596 -870 c6
-8 10 -25 8 -38 l-3 -23 -951 -3 c-907 -2 -952 -1 -967 16 -15 16 -15 20 -1
40 l15 22 943 0 c811 0 945 -2 956 -14z m-70 -204 c0 -156 -49 -260 -150 -316
l-55 -31 -685 0 c-756 0 -730 -2 -803 64 -63 56 -80 106 -86 249 l-6 122 893
0 892 0 0 -88z"/>
<path d="M1074 2096 c-3 -7 -4 -42 -2 -77 3 -56 5 -64 23 -64 17 0 20 8 23 54
2 30 1 65 -3 78 -6 25 -32 31 -41 9z"/>
<path d="M1237 2102 c-8 -12 -11 -141 -4 -148 3 -4 13 -4 22 0 13 5 15 19 13
78 -3 65 -16 95 -31 70z"/>
<path d="M1384 2086 c-3 -7 -4 -42 -2 -77 2 -49 7 -64 18 -64 12 0 16 17 18
78 2 65 0 77 -13 77 -9 0 -18 -6 -21 -14z"/>
<path d="M1147 1863 c-11 -11 -8 -121 3 -128 30 -19 54 67 34 119 -6 16 -26
21 -37 9z"/>
<path d="M1307 1864 c-10 -10 -8 -106 2 -123 5 -8 16 -11 25 -8 24 9 19 130
-4 135 -9 1 -19 0 -23 -4z"/>
<path d="M1994 110 c0 -63 1 -89 3 -57 2 31 2 83 0 115 -2 31 -3 5 -3 -58z"/>
</g>
</svg>
