<?xml version="1.0" standalone="no"?>
<!DOCTYPE svg PUBLIC "-//W3C//DTD SVG 20010904//EN"
 "http://www.w3.org/TR/2001/REC-SVG-20010904/DTD/svg10.dtd">
<svg version="1.0" xmlns="http://www.w3.org/2000/svg"
 width="230.000000pt" height="168.000000pt" viewBox="0 0 230.000000 168.000000"
 preserveAspectRatio="xMidYMid meet">
<metadata>
Created by potrace 1.16, written by Peter Selinger 2001-2019
</metadata>
<g transform="translate(0.000000,168.000000) scale(0.100000,-0.100000)"
fill="#000000" stroke="none">
<path d="M1394 1641 l-26 -40 51 -86 c28 -48 48 -91 45 -96 -3 -5 -14 -9 -25
-9 -33 0 -171 -58 -229 -96 l-55 -36 -30 18 c-174 103 -259 129 -425 128 -107
-1 -137 -5 -205 -27 -233 -77 -407 -264 -471 -507 -23 -87 -23 -262 0 -350
126 -473 641 -682 1059 -430 l66 40 57 -36 c165 -105 369 -138 559 -89 33 8
98 34 145 57 68 34 103 60 175 133 127 127 183 238 206 411 19 147 -16 322
-93 452 -75 129 -257 277 -384 312 -24 7 -44 16 -44 20 0 4 23 49 51 99 l51
92 -26 39 -26 40 -200 0 -200 0 -26 -39z m401 -31 c5 -15 -11 -52 -54 -128
-33 -58 -58 -108 -56 -110 1 -2 29 -10 62 -19 163 -42 338 -181 416 -330 199
-380 -4 -837 -419 -943 -288 -74 -597 64 -723 322 -54 110 -74 192 -74 308 -1
118 14 181 65 289 l40 85 34 -36 33 -37 -28 -63 c-72 -160 -68 -351 11 -502
44 -83 157 -194 239 -235 219 -107 461 -68 635 104 114 112 168 241 168 400
-1 150 -50 276 -149 383 -177 191 -436 234 -665 111 l-75 -41 -28 34 -28 33
23 19 c44 36 166 87 249 104 46 9 86 17 88 19 2 1 -24 50 -58 108 -60 105 -68
125 -54 138 3 4 82 7 174 7 160 0 168 -1 174 -20z m-936 -255 c189 -45 356
-182 442 -362 85 -178 76 -422 -22 -592 l-31 -53 -24 23 c-35 33 -37 53 -11
106 30 58 57 175 57 240 -1 146 -60 283 -170 393 -121 122 -264 178 -425 167
-145 -10 -269 -70 -370 -179 -200 -215 -200 -551 0 -766 174 -188 423 -232
654 -116 l86 43 28 -31 c36 -39 28 -49 -77 -99 -109 -53 -204 -72 -324 -67
-236 12 -433 141 -537 351 -59 120 -79 212 -72 342 15 288 214 534 485 600 77
18 232 18 311 0z m-8 -155 c60 -18 159 -72 159 -86 0 -3 -8 -18 -19 -32 -29
-42 -71 -149 -87 -221 -35 -168 -2 -380 81 -511 l25 -40 -40 -25 c-72 -46
-141 -67 -231 -72 -155 -10 -284 41 -388 152 -188 201 -188 498 0 699 61 66
161 128 235 145 71 17 197 12 265 -9z m865 6 c219 -58 374 -265 374 -499 0
-128 -50 -246 -147 -348 -149 -156 -389 -195 -583 -93 -77 40 -75 36 -41 91
70 114 108 272 97 403 -9 106 -29 181 -76 277 -22 44 -40 83 -40 86 0 11 74
50 138 73 78 28 196 32 278 10z m-521 -362 c17 -68 20 -182 4 -239 -16 -62
-41 -125 -49 -125 -4 0 -17 31 -29 69 -35 112 -30 254 12 355 l20 48 14 -25
c7 -14 20 -52 28 -83z"/>
</g>
</svg>
