<?xml version="1.0" standalone="no"?>
<!DOCTYPE svg PUBLIC "-//W3C//DTD SVG 20010904//EN"
 "http://www.w3.org/TR/2001/REC-SVG-20010904/DTD/svg10.dtd">
<svg version="1.0" xmlns="http://www.w3.org/2000/svg"
 width="171.000000pt" height="170.000000pt" viewBox="0 0 171.000000 170.000000"
 preserveAspectRatio="xMidYMid meet">
<metadata>
Created by potrace 1.16, written by Peter Selinger 2001-2019
</metadata>
<g transform="translate(0.000000,170.000000) scale(0.100000,-0.100000)"
fill="#000000" stroke="none">
<path d="M835 1688 c-3 -7 -4 -128 -3 -268 3 -247 4 -255 23 -255 19 0 20 7
20 265 0 244 -1 265 -18 268 -9 2 -19 -3 -22 -10z"/>
<path d="M236 1454 c-5 -14 37 -62 181 -206 103 -103 195 -188 204 -188 46 0
18 37 -162 216 -104 104 -195 190 -203 192 -7 2 -16 -5 -20 -14z"/>
<path d="M1256 1281 c-135 -135 -187 -194 -183 -205 4 -9 12 -16 19 -16 7 0
98 85 202 189 135 135 187 194 183 205 -4 9 -12 16 -19 16 -7 0 -98 -85 -202
-189z"/>
<path d="M7 883 c-13 -13 -7 -42 10 -46 10 -2 130 -4 267 -3 227 1 250 3 260
19 9 14 8 20 -4 27 -17 11 -523 14 -533 3z"/>
<path d="M1161 881 c-22 -14 -5 -41 26 -41 15 0 135 -1 266 -2 246 -2 276 3
247 37 -11 13 -50 15 -269 15 -141 0 -262 -4 -270 -9z"/>
<path d="M421 466 c-175 -175 -202 -211 -166 -223 16 -5 399 383 391 396 -4 6
-15 11 -24 11 -10 0 -100 -83 -201 -184z"/>
<path d="M1070 632 c0 -23 374 -397 389 -388 6 4 11 15 11 24 0 23 -360 382
-383 382 -10 0 -17 -8 -17 -18z"/>
<path d="M842 548 c-9 -9 -12 -82 -12 -269 0 -216 2 -259 15 -269 12 -10 18
-10 30 0 13 11 15 51 15 269 -1 273 -8 309 -48 269z"/>
</g>
</svg>
