<?xml version="1.0" standalone="no"?>
<!DOCTYPE svg PUBLIC "-//W3C//DTD SVG 20010904//EN"
 "http://www.w3.org/TR/2001/REC-SVG-20010904/DTD/svg10.dtd">
<svg version="1.0" xmlns="http://www.w3.org/2000/svg"
 width="184.000000pt" height="170.000000pt" viewBox="0 0 184.000000 170.000000"
 preserveAspectRatio="xMidYMid meet">
<metadata>
Created by potrace 1.16, written by Peter Selinger 2001-2019
</metadata>
<g transform="translate(0.000000,170.000000) scale(0.100000,-0.100000)"
fill="#000000" stroke="none">
<path d="M213 1682 c-67 -24 -118 -64 -154 -121 -59 -91 -60 -108 -57 -573 3
-408 4 -425 24 -469 49 -105 145 -173 262 -185 l62 -7 0 -144 c0 -80 5 -153
10 -164 7 -12 21 -19 38 -19 22 0 67 36 215 170 l186 170 388 0 c223 0 403 4
423 10 57 16 126 65 164 117 64 89 68 117 64 583 -3 407 -3 416 -26 461 -34
70 -87 125 -150 156 l-57 28 -670 2 c-623 2 -674 1 -722 -15z m1425 -58 c62
-31 115 -90 136 -152 24 -68 24 -836 0 -905 -21 -63 -82 -129 -146 -158 -53
-24 -56 -24 -455 -27 l-403 -3 -179 -164 c-99 -91 -182 -165 -185 -165 -3 0
-6 69 -6 154 0 111 -3 156 -12 164 -7 5 -45 12 -83 14 -105 7 -181 55 -228
143 -21 39 -22 51 -25 464 -3 474 -1 494 63 568 19 23 58 53 87 67 l52 26 666
0 666 0 52 -26z"/>
</g>
</svg>
