<?xml version="1.0" standalone="no"?>
<!DOCTYPE svg PUBLIC "-//W3C//DTD SVG 20010904//EN"
 "http://www.w3.org/TR/2001/REC-SVG-20010904/DTD/svg10.dtd">
<svg version="1.0" xmlns="http://www.w3.org/2000/svg"
 width="152.000000pt" height="167.000000pt" viewBox="0 0 152.000000 167.000000"
 preserveAspectRatio="xMidYMid meet">
<metadata>
Created by potrace 1.16, written by Peter Selinger 2001-2019
</metadata>
<g transform="translate(0.000000,167.000000) scale(0.100000,-0.100000)"
fill="#000000" stroke="none">
<path d="M602 1650 c-148 -53 -234 -171 -237 -324 l-2 -79 -93 -4 c-117 -5
-175 -27 -194 -75 -9 -21 -18 -115 -25 -248 -6 -118 -14 -238 -16 -267 -3 -29
-8 -92 -11 -140 -3 -48 -10 -121 -15 -161 -5 -40 -9 -107 -9 -149 0 -91 23
-140 82 -173 l39 -22 635 1 c695 1 665 -1 717 61 43 50 48 88 32 234 -7 72
-21 250 -30 396 -23 394 -29 455 -49 485 -26 39 -74 55 -183 60 l-98 5 -3 67
c-7 170 -98 294 -246 338 -72 22 -227 19 -294 -5z m309 -52 c120 -55 180 -142
187 -273 l4 -80 -346 0 -346 0 0 70 c0 118 63 219 170 275 87 46 241 50 331 8z
m-541 -533 c0 -128 1 -135 20 -135 19 0 20 7 20 135 l0 135 343 -2 342 -3 -3
-120 c-2 -123 4 -152 32 -142 14 5 16 26 16 137 l0 130 65 0 c83 0 159 -17
179 -39 15 -16 35 -135 34 -201 0 -42 21 -354 39 -582 16 -204 16 -219 0 -253
-9 -19 -31 -44 -49 -55 -32 -19 -52 -20 -653 -20 -597 0 -621 1 -652 20 -53
32 -67 70 -59 164 4 45 9 95 11 111 2 17 4 57 5 90 1 33 6 92 11 130 5 39 13
177 19 309 11 238 18 281 52 303 19 11 85 20 161 22 l67 1 0 -135z"/>
</g>
</svg>
