<?xml version="1.0" standalone="no"?>
<!DOCTYPE svg PUBLIC "-//W3C//DTD SVG 20010904//EN"
 "http://www.w3.org/TR/2001/REC-SVG-20010904/DTD/svg10.dtd">
<svg version="1.0" xmlns="http://www.w3.org/2000/svg"
 width="212.000000pt" height="217.000000pt" viewBox="0 0 212.000000 217.000000"
 preserveAspectRatio="xMidYMid meet">
<metadata>
Created by potrace 1.16, written by Peter Selinger 2001-2019
</metadata>
<g transform="translate(0.000000,217.000000) scale(0.100000,-0.100000)"
fill="#000000" stroke="none">
<path d="M866 2155 c-86 -22 -171 -71 -226 -132 -94 -102 -125 -209 -118 -399
l4 -116 -29 -30 c-28 -28 -29 -32 -25 -101 8 -119 72 -237 129 -237 11 0 19
-6 19 -13 0 -6 23 -58 50 -114 43 -89 50 -110 50 -163 0 -88 -18 -147 -55
-184 -22 -22 -77 -50 -176 -90 -184 -75 -287 -128 -343 -177 -72 -63 -125
-191 -142 -340 -6 -56 -5 -61 12 -57 15 3 20 16 26 68 10 87 41 185 77 242 50
79 129 127 363 221 l135 54 86 -92 c85 -91 228 -207 318 -259 l46 -26 94 62
c61 40 138 105 222 189 l128 126 147 -59 c239 -96 318 -152 366 -258 26 -57
56 -187 56 -240 0 -24 4 -30 21 -30 19 0 20 4 13 57 -19 162 -67 276 -142 345
-64 57 -132 92 -322 168 -180 71 -213 96 -235 181 -26 96 -20 153 24 239 21
41 44 91 50 111 9 27 20 38 46 48 60 21 115 143 115 256 0 53 -20 95 -45 95
-12 0 -14 15 -9 88 19 275 -91 479 -298 552 -83 29 -339 38 -432 15z m381 -38
c80 -23 140 -57 187 -107 96 -103 130 -210 124 -390 -4 -93 -7 -109 -30 -142
l-25 -37 -7 72 c-10 106 -33 181 -68 214 l-29 28 -192 1 c-208 0 -229 4 -356
68 -49 25 -54 26 -76 12 -93 -61 -142 -171 -146 -322 -1 -41 -4 -74 -8 -74 -3
1 -17 18 -30 38 -52 81 -50 292 4 410 63 136 166 212 333 242 64 12 256 4 319
-13z m-391 -337 c110 -54 170 -65 357 -62 165 3 167 2 191 -21 32 -32 45 -80
56 -211 5 -60 11 -111 14 -113 11 -11 36 8 60 46 34 53 46 59 68 30 16 -18 18
-32 13 -67 -18 -119 -61 -198 -112 -204 -23 -3 -30 -12 -49 -65 -36 -99 -74
-163 -136 -226 -64 -64 -137 -103 -213 -112 -104 -13 -248 45 -325 133 -43 48
-102 156 -121 221 -7 23 -18 44 -23 46 -6 2 -23 6 -38 9 -33 7 -73 85 -90 173
-10 53 -9 65 6 87 9 14 21 26 26 26 6 0 26 -22 46 -50 21 -30 44 -50 55 -50
17 0 19 8 19 78 0 159 28 252 98 325 20 20 37 37 37 37 1 0 28 -13 61 -30z
m44 -1004 c59 -28 74 -31 165 -31 87 0 107 3 156 26 31 15 75 43 97 63 l40 37
7 -53 c12 -94 25 -129 68 -175 l41 -45 -120 -117 c-65 -64 -157 -142 -204
-173 l-85 -57 -35 21 c-83 50 -226 166 -300 246 l-81 86 29 23 c38 29 69 101
78 180 l7 63 35 -32 c20 -17 66 -45 102 -62z"/>
</g>
</svg>
