<?xml version="1.0" standalone="no"?>
<!DOCTYPE svg PUBLIC "-//W3C//DTD SVG 20010904//EN"
 "http://www.w3.org/TR/2001/REC-SVG-20010904/DTD/svg10.dtd">
<svg version="1.0" xmlns="http://www.w3.org/2000/svg"
 width="154.000000pt" height="164.000000pt" viewBox="0 0 154.000000 164.000000"
 preserveAspectRatio="xMidYMid meet">
<metadata>
Created by potrace 1.16, written by Peter Selinger 2001-2019
</metadata>
<g transform="translate(0.000000,164.000000) scale(0.100000,-0.100000)"
fill="#000000" stroke="none">
<path d="M100 1273 l0 -368 -36 -95 c-60 -157 -63 -178 -64 -489 0 -253 1
-286 16 -302 16 -17 35 -19 216 -19 237 0 238 0 238 101 0 58 1 60 23 54 12
-3 49 -20 82 -37 220 -114 200 -111 601 -116 l332 -4 16 23 c35 51 13 227 -43
337 -44 86 -109 143 -232 201 -121 58 -175 108 -215 197 l-24 55 0 395 c0 253
-4 402 -10 415 -10 18 -26 19 -455 19 l-445 0 0 -367z m860 -45 c0 -405 3
-431 56 -528 39 -72 100 -122 221 -181 119 -58 169 -104 214 -194 31 -62 52
-162 38 -171 -14 -8 -426 -3 -524 7 -127 13 -186 28 -242 60 -93 55 -173 91
-213 96 l-40 6 0 77 c0 233 -79 384 -258 489 l-72 43 0 334 0 334 410 0 410 0
0 -372z m-725 -401 c128 -85 194 -227 195 -414 l0 -83 -195 0 -195 0 0 133 c0
142 14 216 64 336 14 36 26 71 26 79 0 14 25 2 105 -51z m291 -555 c39 -11 96
-36 132 -60 81 -52 142 -72 262 -87 19 -2 156 -4 303 -4 290 -1 287 0 273 -56
l-6 -25 -295 0 c-368 0 -419 8 -557 92 -69 41 -185 78 -246 78 -26 0 -33 -4
-30 -17 2 -12 14 -19 36 -21 32 -3 32 -4 32 -56 0 -33 -5 -58 -14 -65 -9 -8
-69 -11 -192 -9 l-179 3 -3 123 -3 122 209 0 c170 0 221 -3 278 -18z"/>
<path d="M142 208 c3 -8 28 -14 66 -16 51 -2 62 0 62 13 0 12 -13 15 -66 15
-48 0 -65 -3 -62 -12z"/>
</g>
</svg>
