<?xml version="1.0" standalone="no"?>
<!DOCTYPE svg PUBLIC "-//W3C//DTD SVG 20010904//EN"
 "http://www.w3.org/TR/2001/REC-SVG-20010904/DTD/svg10.dtd">
<svg version="1.0" xmlns="http://www.w3.org/2000/svg"
 width="162.000000pt" height="218.000000pt" viewBox="0 0 162.000000 218.000000"
 preserveAspectRatio="xMidYMid meet">
<metadata>
Created by potrace 1.16, written by Peter Selinger 2001-2019
</metadata>
<g transform="translate(0.000000,218.000000) scale(0.100000,-0.100000)"
fill="#000000" stroke="none">
<path d="M82 2163 c-18 -9 -44 -35 -58 -58 l-24 -42 2 -979 3 -979 23 -33 c51
-71 9 -67 782 -67 683 0 696 0 730 21 19 11 45 38 57 60 l23 39 -3 977 c-2
973 -2 977 -23 1005 -11 15 -36 38 -54 51 l-33 22 -696 0 c-622 0 -700 -2
-729 -17z m1412 -53 c14 -5 35 -24 46 -42 20 -32 20 -51 20 -971 0 -813 -2
-942 -15 -967 -33 -63 6 -60 -733 -60 -741 0 -719 -2 -741 61 -8 23 -11 309
-11 968 0 919 0 937 20 969 11 18 30 37 43 42 31 12 1338 13 1371 0z"/>
<path d="M324 1735 c-4 -8 -4 -22 0 -30 5 -13 68 -15 489 -15 419 0 486 2 497
15 10 12 10 18 0 30 -19 23 -978 23 -986 0z"/>
<path d="M321 1356 c-9 -11 -10 -20 -1 -35 11 -21 15 -21 357 -19 306 3 347 5
356 19 6 9 7 24 4 33 -6 14 -41 16 -355 16 -292 0 -352 -2 -361 -14z"/>
<path d="M316 964 c-16 -42 3 -44 293 -42 l276 3 3 28 3 27 -284 0 c-254 0
-286 -2 -291 -16z"/>
<path d="M321 582 c-20 -37 3 -42 209 -42 206 0 229 5 209 42 -9 17 -25 18
-209 18 -184 0 -200 -1 -209 -18z"/>
</g>
</svg>
