<?xml version="1.0" standalone="no"?>
<!DOCTYPE svg PUBLIC "-//W3C//DTD SVG 20010904//EN"
 "http://www.w3.org/TR/2001/REC-SVG-20010904/DTD/svg10.dtd">
<svg version="1.0" xmlns="http://www.w3.org/2000/svg"
 width="206.000000pt" height="169.000000pt" viewBox="0 0 206.000000 169.000000"
 preserveAspectRatio="xMidYMid meet">
<metadata>
Created by potrace 1.16, written by Peter Selinger 2001-2019
</metadata>
<g transform="translate(0.000000,169.000000) scale(0.100000,-0.100000)"
fill="#000000" stroke="none">
<path d="M420 1674 c-103 -22 -186 -68 -266 -148 -128 -128 -154 -216 -154
-521 0 -284 27 -376 149 -508 92 -99 194 -143 358 -154 l93 -6 0 -164 c0 -144
2 -164 17 -170 12 -5 27 6 52 34 20 22 90 102 155 177 l120 136 336 0 c369 0
390 3 502 62 73 39 177 146 215 223 49 97 56 147 57 400 1 217 0 234 -22 295
-63 175 -213 308 -391 346 -96 20 -1126 19 -1221 -2z m1235 -49 c146 -38 274
-157 327 -303 18 -48 21 -87 26 -259 3 -130 0 -225 -7 -269 -30 -169 -164
-321 -334 -377 -56 -18 -95 -21 -409 -26 l-346 -6 -127 -145 c-70 -80 -130
-146 -134 -148 -3 -1 -5 55 -3 125 5 180 8 173 -87 173 -168 0 -258 36 -369
146 -52 52 -82 92 -105 141 l-32 68 -3 232 c-4 257 2 308 49 401 35 71 133
169 207 206 104 53 122 54 727 55 474 1 570 -1 620 -14z"/>
</g>
</svg>
