<?xml version="1.0" standalone="no"?>
<!DOCTYPE svg PUBLIC "-//W3C//DTD SVG 20010904//EN"
 "http://www.w3.org/TR/2001/REC-SVG-20010904/DTD/svg10.dtd">
<svg version="1.0" xmlns="http://www.w3.org/2000/svg"
 width="197.000000pt" height="204.000000pt" viewBox="0 0 197.000000 204.000000"
 preserveAspectRatio="xMidYMid meet">
<metadata>
Created by potrace 1.16, written by Peter Selinger 2001-2019
</metadata>
<g transform="translate(0.000000,204.000000) scale(0.100000,-0.100000)"
fill="#000000" stroke="none">
<path d="M875 2029 c-90 -18 -175 -67 -251 -143 -87 -87 -136 -179 -160 -298
-16 -81 -18 -85 -48 -94 -46 -14 -58 -45 -53 -144 6 -129 44 -200 106 -200 14
0 22 -8 26 -27 20 -93 29 -124 51 -173 14 -30 43 -77 65 -106 39 -51 39 -52
29 -100 -21 -95 -44 -111 -240 -169 -69 -20 -151 -50 -183 -67 -67 -36 -145
-116 -175 -182 -27 -57 -44 -162 -40 -252 2 -56 6 -69 20 -72 16 -3 18 6 18
75 0 166 34 258 124 340 60 55 113 80 302 140 l121 38 62 -67 c47 -50 81 -77
137 -104 66 -33 84 -38 172 -42 164 -8 258 30 364 148 61 67 62 67 92 55 17
-7 76 -25 131 -40 136 -37 219 -78 281 -139 73 -73 96 -138 102 -288 4 -107 6
-118 23 -118 17 0 19 9 19 89 0 115 -13 182 -50 258 -56 114 -152 176 -370
238 -176 51 -216 79 -227 161 -5 36 0 46 45 106 54 71 87 149 105 241 9 49 14
57 32 57 71 0 115 114 107 278 -2 38 -33 72 -65 72 -21 0 -24 8 -39 84 -20
108 -66 200 -139 280 -104 113 -211 164 -359 171 -47 2 -107 0 -135 -6z m201
-40 c94 -17 161 -55 240 -133 79 -79 126 -159 149 -258 24 -101 23 -103 -41
-117 -30 -7 -57 -11 -58 -9 -46 74 -110 118 -171 118 -46 0 -109 -34 -140 -74
-24 -32 -33 -36 -71 -36 -39 0 -49 5 -87 44 -49 51 -105 72 -164 61 -28 -5
-52 -21 -91 -61 l-52 -54 -51 11 -51 11 7 47 c18 130 65 223 159 317 122 121
256 164 422 133z m-239 -465 c56 -36 78 -116 49 -172 -46 -88 -149 -102 -214
-27 -43 48 -49 85 -21 141 36 76 120 102 186 58z m429 1 c61 -40 81 -122 44
-183 -25 -41 -97 -76 -137 -66 -93 23 -140 124 -93 202 42 69 122 89 186 47z
m-748 -81 c69 -15 70 -16 77 -52 14 -75 63 -132 133 -153 99 -29 212 58 212
165 0 35 1 36 40 36 38 0 40 -1 40 -32 1 -45 32 -110 65 -136 36 -28 98 -45
138 -37 77 16 147 94 147 164 0 28 3 29 71 45 97 22 116 21 125 -6 17 -54 -5
-205 -34 -231 -9 -9 -32 -17 -51 -19 l-35 -3 -13 -79 c-18 -104 -59 -188 -133
-269 -178 -194 -447 -194 -628 0 -67 72 -107 154 -130 263 l-17 85 -39 6 c-22
4 -45 14 -52 24 -29 39 -44 187 -24 226 13 23 19 23 108 3z m221 -718 c78 -53
141 -71 251 -70 105 0 185 23 245 69 19 14 36 25 39 25 3 0 10 -19 16 -41 6
-23 22 -52 36 -66 l24 -24 -37 -46 c-101 -123 -246 -180 -394 -153 -112 21
-209 79 -270 163 l-29 40 25 29 c14 16 28 47 31 69 4 21 8 39 9 39 2 0 26 -15
54 -34z"/>
</g>
</svg>
