<?xml version="1.0" standalone="no"?>
<!DOCTYPE svg PUBLIC "-//W3C//DTD SVG 20010904//EN"
 "http://www.w3.org/TR/2001/REC-SVG-20010904/DTD/svg10.dtd">
<svg version="1.0" xmlns="http://www.w3.org/2000/svg"
 width="183.000000pt" height="189.000000pt" viewBox="0 0 183.000000 189.000000"
 preserveAspectRatio="xMidYMid meet">
<metadata>
Created by potrace 1.16, written by Peter Selinger 2001-2019
</metadata>
<g transform="translate(0.000000,189.000000) scale(0.100000,-0.100000)"
fill="#000000" stroke="none">
<path d="M20 1870 c-20 -20 -20 -33 -20 -930 l0 -910 24 -15 c20 -14 102 -15
684 -13 l661 3 42 40 c22 22 126 129 230 237 l189 197 0 681 0 681 -25 24 -24
25 -871 0 c-857 0 -870 0 -890 -20z m1731 -40 c18 -10 19 -28 19 -660 l0 -650
-203 0 c-145 0 -206 -3 -215 -12 -9 -9 -12 -73 -12 -225 0 -212 0 -213 -22
-218 -13 -3 -302 -4 -643 -3 l-620 3 -3 875 c-1 481 0 881 3 888 6 16 1665 18
1696 2z m-11 -1373 c0 -1 -79 -81 -175 -177 l-175 -175 0 178 0 177 175 0 c96
0 175 -1 175 -3z"/>
<path d="M254 1475 c-4 -8 -4 -22 0 -30 5 -13 84 -15 653 -13 l648 3 0 25 0
25 -648 3 c-569 2 -648 0 -653 -13z"/>
</g>
</svg>
