<?xml version="1.0" standalone="no"?>
<!DOCTYPE svg PUBLIC "-//W3C//DTD SVG 20010904//EN"
 "http://www.w3.org/TR/2001/REC-SVG-20010904/DTD/svg10.dtd">
<svg version="1.0" xmlns="http://www.w3.org/2000/svg"
 width="287.000000pt" height="248.000000pt" viewBox="0 0 287.000000 248.000000"
 preserveAspectRatio="xMidYMid meet">
<metadata>
Created by potrace 1.16, written by Peter Selinger 2001-2019
</metadata>
<g transform="translate(0.000000,248.000000) scale(0.100000,-0.100000)"
fill="#000000" stroke="none">
<path d="M2150 2464 c-97 -25 -180 -74 -256 -149 -85 -84 -128 -157 -154 -261
-46 -177 -10 -345 127 -604 92 -174 229 -383 363 -553 64 -82 72 -79 167 50
293 397 449 705 469 923 25 264 -165 525 -432 594 -76 20 -210 20 -284 0z
m306 -65 c162 -50 299 -195 339 -360 52 -213 -36 -462 -305 -864 -126 -187
-195 -275 -205 -261 -221 304 -301 428 -388 602 -88 176 -109 243 -115 365 -7
164 30 267 139 384 136 145 337 195 535 134z"/>
<path d="M2209 2165 c-60 -19 -131 -83 -160 -142 -17 -34 -23 -66 -23 -113 -1
-187 172 -312 358 -258 55 16 148 109 164 164 29 98 6 212 -56 277 -66 70
-190 102 -283 72z m203 -81 c114 -80 126 -238 25 -331 -106 -98 -268 -68 -332
60 -54 110 -10 237 100 289 61 29 152 21 207 -18z"/>
<path d="M505 1865 c-38 -9 -108 -34 -155 -57 -68 -33 -101 -58 -165 -122 -48
-48 -93 -105 -112 -141 -94 -180 -96 -386 -6 -605 71 -175 229 -447 403 -695
130 -186 151 -209 175 -201 11 3 66 70 122 149 263 368 431 677 484 888 28
108 23 263 -10 359 -68 197 -244 363 -441 415 -85 23 -214 27 -295 10z m264
-60 c286 -68 485 -355 442 -640 -21 -143 -107 -340 -254 -584 -81 -134 -246
-378 -300 -444 l-23 -29 -66 94 c-230 326 -416 650 -477 834 -57 173 -38 379
49 514 39 61 125 145 191 186 46 29 131 63 194 77 46 11 185 6 244 -8z"/>
<path d="M539 1516 c-130 -46 -208 -164 -197 -300 13 -158 135 -270 293 -270
263 0 394 315 208 498 -77 77 -206 107 -304 72z m189 -62 c180 -75 191 -336
19 -426 -31 -17 -60 -22 -113 -23 -61 0 -77 4 -119 30 -92 57 -138 180 -105
280 16 50 75 114 125 136 50 23 142 24 193 3z"/>
<path d="M1970 799 c-102 -12 -213 -35 -291 -60 -128 -42 -189 -95 -189 -168
0 -46 58 -101 168 -160 86 -46 142 -98 142 -131 0 -30 -44 -74 -107 -108 -167
-89 -484 -132 -822 -112 -72 4 -85 3 -95 -12 -8 -13 -7 -21 2 -30 18 -19 489
-18 592 0 311 56 480 147 480 260 0 69 -34 107 -165 182 -49 28 -100 61 -113
73 -33 31 -26 75 16 104 80 54 270 99 449 109 145 7 155 10 151 37 -3 20 -9
22 -73 23 -38 1 -104 -2 -145 -7z"/>
</g>
</svg>
