<?xml version="1.0" standalone="no"?>
<!DOCTYPE svg PUBLIC "-//W3C//DTD SVG 20010904//EN"
 "http://www.w3.org/TR/2001/REC-SVG-20010904/DTD/svg10.dtd">
<svg version="1.0" xmlns="http://www.w3.org/2000/svg"
 width="199.000000pt" height="198.000000pt" viewBox="0 0 199.000000 198.000000"
 preserveAspectRatio="xMidYMid meet">
<metadata>
Created by potrace 1.16, written by Peter Selinger 2001-2019
</metadata>
<g transform="translate(0.000000,198.000000) scale(0.100000,-0.100000)"
fill="#000000" stroke="none">
<path d="M825 1965 c-174 -32 -298 -84 -430 -182 -180 -133 -302 -315 -361
-538 -24 -88 -27 -120 -28 -260 0 -136 3 -173 23 -245 94 -352 371 -616 740
-707 142 -35 311 -37 451 -4 190 45 402 173 528 319 182 210 267 503 227 779
-34 227 -113 394 -265 557 -208 224 -570 339 -885 281z m419 -60 c210 -61 366
-163 497 -325 205 -255 258 -645 129 -953 -108 -261 -353 -471 -638 -549 -62
-17 -107 -21 -232 -21 -139 -1 -166 2 -254 26 -334 92 -588 343 -673 666 -36
135 -38 335 -4 466 50 197 180 401 331 517 86 67 246 148 338 173 162 42 360
43 506 0z"/>
<path d="M943 1651 c-7 -10 -36 -31 -66 -46 -44 -21 -54 -30 -50 -46 7 -25 20
-24 77 6 26 14 48 25 49 25 1 0 2 -93 2 -207 0 -201 1 -208 20 -208 19 0 20 8
23 248 l2 247 -22 0 c-13 0 -29 -9 -35 -19z"/>
<path d="M720 1045 c0 -13 32 -15 230 -15 198 0 230 2 230 15 0 13 -32 15
-230 15 -198 0 -230 -2 -230 -15z"/>
<path d="M836 780 c-3 -60 -9 -130 -13 -155 -7 -57 10 -60 60 -10 31 31 41 35
86 35 62 0 95 -19 122 -71 35 -70 19 -140 -45 -197 -63 -55 -148 -42 -195 30
-20 31 -27 36 -42 27 -19 -9 -19 -11 0 -47 39 -77 159 -107 241 -61 99 56 131
212 62 298 -53 67 -132 88 -209 56 l-36 -15 7 31 c3 17 6 58 6 90 l0 59 110 0
c103 0 110 1 110 20 0 19 -7 20 -128 20 l-129 0 -7 -110z"/>
</g>
</svg>
