<?xml version="1.0" standalone="no"?>
<!DOCTYPE svg PUBLIC "-//W3C//DTD SVG 20010904//EN"
 "http://www.w3.org/TR/2001/REC-SVG-20010904/DTD/svg10.dtd">
<svg version="1.0" xmlns="http://www.w3.org/2000/svg"
 width="158.000000pt" height="158.000000pt" viewBox="0 0 158.000000 158.000000"
 preserveAspectRatio="xMidYMid meet">
<metadata>
Created by potrace 1.16, written by Peter Selinger 2001-2019
</metadata>
<g transform="translate(0.000000,158.000000) scale(0.100000,-0.100000)"
fill="#000000" stroke="none">
<path d="M594 1560 c-265 -69 -466 -256 -557 -518 -26 -76 -31 -105 -35 -223
-3 -115 -1 -149 17 -218 70 -280 280 -493 561 -571 383 -106 797 100 947 470
42 105 55 192 50 325 -3 101 -9 135 -36 215 -18 52 -46 118 -62 147 -105 183
-292 323 -500 373 -111 26 -285 27 -385 0z m376 -46 c36 -9 108 -36 160 -62
79 -39 109 -60 180 -132 149 -149 209 -287 218 -497 6 -153 -12 -239 -75 -365
-76 -152 -224 -289 -382 -353 -142 -58 -330 -70 -476 -31 -253 68 -456 269
-526 521 -29 104 -31 268 -4 370 77 301 314 517 620 566 67 10 204 2 285 -17z"/>
</g>
</svg>
