<?xml version="1.0" standalone="no"?>
<!DOCTYPE svg PUBLIC "-//W3C//DTD SVG 20010904//EN"
 "http://www.w3.org/TR/2001/REC-SVG-20010904/DTD/svg10.dtd">
<svg version="1.0" xmlns="http://www.w3.org/2000/svg"
 width="174.000000pt" height="178.000000pt" viewBox="0 0 174.000000 178.000000"
 preserveAspectRatio="xMidYMid meet">
<metadata>
Created by potrace 1.16, written by Peter Selinger 2001-2019
</metadata>
<g transform="translate(0.000000,178.000000) scale(0.100000,-0.100000)"
fill="#000000" stroke="none">
<path d="M660 1756 c-313 -83 -549 -325 -636 -652 -25 -93 -25 -310 -1 -408
41 -165 116 -302 230 -422 120 -126 249 -204 417 -250 90 -25 319 -26 409 -1
156 42 258 99 373 206 126 118 214 258 259 413 30 104 38 324 15 439 -34 165
-111 312 -231 434 -127 130 -250 203 -413 244 -115 30 -305 29 -422 -3z m381
-33 c4 -4 -35 -188 -86 -408 -52 -220 -95 -410 -95 -422 l0 -23 420 0 421 0
-6 -62 c-23 -216 -103 -380 -259 -533 -164 -159 -328 -225 -561 -225 -141 0
-228 19 -340 74 -268 129 -445 379 -485 680 -20 146 14 327 89 474 122 240
359 413 626 456 46 7 266 -1 276 -11z m202 -74 c107 -54 243 -175 314 -279 78
-115 124 -245 139 -389 l7 -71 -397 0 c-268 0 -396 3 -396 10 0 17 179 770
185 780 6 10 75 -14 148 -51z"/>
</g>
</svg>
