<?xml version="1.0" standalone="no"?>
<!DOCTYPE svg PUBLIC "-//W3C//DTD SVG 20010904//EN"
 "http://www.w3.org/TR/2001/REC-SVG-20010904/DTD/svg10.dtd">
<svg version="1.0" xmlns="http://www.w3.org/2000/svg"
 width="203.000000pt" height="179.000000pt" viewBox="0 0 203.000000 179.000000"
 preserveAspectRatio="xMidYMid meet">
<metadata>
Created by potrace 1.16, written by Peter Selinger 2001-2019
</metadata>
<g transform="translate(0.000000,179.000000) scale(0.100000,-0.100000)"
fill="#000000" stroke="none">
<path d="M252 1764 c-86 -43 -136 -144 -117 -241 20 -106 112 -183 220 -183
131 0 239 121 221 247 -22 162 -181 249 -324 177z m188 -49 c49 -25 84 -88 84
-149 0 -154 -182 -230 -290 -122 -84 84 -62 218 46 274 50 26 106 25 160 -3z"/>
<path d="M1693 1769 c-86 -42 -127 -117 -121 -220 4 -79 35 -134 98 -175 75
-50 191 -42 263 17 103 85 103 263 1 348 -66 54 -168 67 -241 30z m186 -55
c72 -42 102 -154 62 -231 -59 -117 -242 -119 -301 -2 -49 96 -3 217 95 248 39
13 109 6 144 -15z"/>
<path d="M260 1254 c-46 -20 -87 -59 -113 -109 -20 -36 -22 -58 -25 -247 -5
-292 13 -355 117 -412 47 -25 55 -26 209 -26 l160 0 4 -178 c3 -156 5 -181 23
-212 55 -94 187 -88 237 11 16 29 18 64 18 254 0 121 -5 236 -10 256 -22 77
-98 119 -220 119 l-80 0 0 170 c0 93 -5 191 -11 218 -13 61 -66 127 -123 153
-50 23 -138 24 -186 3z m175 -57 c22 -13 49 -40 62 -62 21 -38 23 -51 23 -244
0 -254 -7 -241 132 -241 103 0 131 -8 160 -44 16 -19 18 -49 18 -263 0 -236
-1 -243 -22 -263 -29 -27 -85 -27 -115 2 -22 21 -23 26 -23 205 0 239 15 223
-202 223 -150 0 -166 2 -202 23 -80 45 -81 48 -84 320 -2 235 -2 243 20 282
44 78 154 107 233 62z"/>
<path d="M1679 1242 c-39 -20 -62 -41 -84 -77 l-30 -48 -3 -204 -3 -203 -80 0
c-118 0 -175 -28 -210 -105 -16 -35 -19 -68 -19 -260 0 -195 3 -225 19 -262
35 -75 108 -101 184 -64 70 34 77 58 77 260 0 128 3 173 13 176 6 2 82 5 168
7 l156 3 58 -228 c32 -125 62 -230 66 -232 4 -3 15 -2 24 1 22 9 19 26 -49
284 l-54 205 38 41 c60 66 65 91 65 344 0 213 -1 227 -22 266 -62 116 -197
157 -314 96z m168 -33 c15 -5 41 -22 57 -37 52 -49 56 -72 56 -304 0 -248 -8
-276 -81 -325 -41 -27 -47 -28 -205 -33 -115 -4 -167 -9 -176 -18 -9 -9 -14
-66 -18 -203 -5 -186 -6 -191 -29 -210 -32 -26 -89 -25 -118 3 -23 21 -23 24
-23 261 l0 239 34 34 c34 34 34 34 131 34 144 0 135 -15 135 218 1 252 13 291
105 333 45 21 91 24 132 8z"/>
<path d="M11 931 c-20 -13 -10 -319 12 -379 22 -57 69 -123 105 -146 l30 -19
-44 -166 c-50 -191 -53 -211 -24 -211 25 0 27 6 76 198 31 122 42 151 54 146
27 -10 192 -26 215 -20 25 6 27 -5 41 -206 7 -108 22 -144 48 -118 13 13 13
35 1 189 -8 96 -18 178 -22 182 -4 4 -60 9 -123 11 -102 3 -122 6 -172 31
-117 58 -148 128 -148 339 0 160 -10 194 -49 169z"/>
<path d="M683 933 c-18 -7 -16 -40 3 -47 9 -3 94 -6 190 -6 l174 0 2 -432 3
-433 23 -3 22 -3 0 435 0 436 174 0 c96 0 181 3 190 6 21 8 21 40 0 48 -19 7
-763 7 -781 -1z"/>
</g>
</svg>
