<?xml version="1.0" standalone="no"?>
<!DOCTYPE svg PUBLIC "-//W3C//DTD SVG 20010904//EN"
 "http://www.w3.org/TR/2001/REC-SVG-20010904/DTD/svg10.dtd">
<svg version="1.0" xmlns="http://www.w3.org/2000/svg"
 width="203.000000pt" height="258.000000pt" viewBox="0 0 203.000000 258.000000"
 preserveAspectRatio="xMidYMid meet">
<metadata>
Created by potrace 1.16, written by Peter Selinger 2001-2019
</metadata>
<g transform="translate(0.000000,258.000000) scale(0.100000,-0.100000)"
fill="#000000" stroke="none">
<path d="M820 2559 c-214 -56 -397 -202 -499 -399 -65 -124 -91 -230 -101
-415 -10 -189 -27 -278 -83 -440 -37 -107 -41 -130 -42 -215 0 -86 3 -99 27
-142 35 -58 87 -102 149 -124 31 -11 49 -25 53 -38 3 -11 4 -21 3 -22 -1 0
-30 -16 -64 -34 -35 -18 -87 -58 -118 -91 -103 -107 -135 -220 -138 -474 -2
-154 -1 -160 18 -160 19 0 21 10 31 180 15 242 38 320 123 417 37 42 145 108
175 108 6 0 31 -32 55 -71 l44 -71 -112 -267 c-61 -146 -111 -274 -111 -284 0
-13 6 -17 22 -15 18 2 40 47 140 283 l118 279 -61 103 c-33 56 -67 122 -74
146 -35 118 -26 390 15 431 25 25 33 17 20 -20 -6 -17 -9 -91 -8 -170 3 -131
4 -139 23 -139 19 0 20 8 25 145 5 145 16 190 45 190 8 0 20 -9 28 -20 12 -18
12 -26 0 -61 -9 -28 -13 -76 -11 -148 3 -98 4 -106 23 -106 18 0 20 9 26 110
6 109 13 145 30 145 20 0 33 -52 39 -150 l5 -105 59 -105 c32 -58 60 -121 63
-140 3 -21 -10 -98 -30 -190 -71 -312 -99 -451 -93 -465 6 -17 32 -20 41 -6 3
5 30 125 61 267 30 142 56 260 58 262 2 2 35 -7 72 -19 91 -30 203 -29 297 1
38 12 70 20 72 18 1 -2 28 -120 59 -263 31 -143 61 -264 66 -269 12 -12 40 0
40 18 0 15 -77 368 -111 511 -30 126 -27 141 46 281 l65 125 0 89 c0 109 21
167 47 128 4 -7 10 -65 13 -128 5 -115 5 -115 30 -115 24 0 25 2 28 83 3 75
-5 140 -23 199 -5 15 0 28 14 42 44 44 62 -3 70 -184 6 -131 7 -140 26 -140
19 0 20 7 20 145 0 80 -3 157 -8 173 -9 34 7 36 28 3 38 -58 36 -380 -3 -469
-11 -25 -43 -80 -72 -122 l-52 -78 27 -66 c84 -206 199 -478 208 -488 5 -7 18
-13 28 -13 11 0 19 6 19 13 0 6 -50 132 -111 279 l-112 268 44 66 c24 37 47
71 50 77 10 15 106 -42 160 -94 95 -92 129 -195 135 -409 3 -85 7 -165 10
-177 6 -32 42 -30 50 2 10 39 -14 345 -32 405 -44 150 -143 260 -292 326 -2 1
0 13 3 27 5 18 19 30 50 41 56 22 130 88 157 140 13 26 23 67 26 111 4 63 -1
85 -47 227 -54 168 -81 296 -81 387 0 328 -130 600 -363 760 -171 117 -428
162 -627 110z m375 -53 c209 -56 383 -203 475 -401 51 -109 69 -189 80 -357
13 -187 31 -280 92 -468 56 -175 59 -224 16 -303 -20 -35 -104 -107 -127 -107
-3 0 -6 66 -6 148 0 204 -22 270 -100 290 l-28 8 2 252 2 251 -23 5 c-191 36
-276 69 -371 141 -74 56 -107 108 -107 167 0 41 -3 48 -19 48 -14 0 -27 -16
-44 -53 -70 -154 -281 -270 -537 -295 l-75 -7 1 -257 1 -258 -24 0 c-14 0 -37
-13 -53 -28 -39 -40 -52 -114 -48 -277 2 -74 2 -135 1 -135 -16 0 -60 27 -92
55 -50 46 -76 116 -68 189 3 28 22 101 42 161 59 178 75 258 86 435 5 91 16
194 24 230 66 290 284 511 570 576 76 17 248 12 330 -10z m95 -654 c86 -41
186 -72 234 -72 l26 0 0 -137 c0 -76 -3 -181 -6 -233 l-7 -96 -37 -15 c-24
-11 -42 -28 -51 -48 -8 -17 -21 -31 -30 -31 -31 0 -59 -45 -70 -111 -12 -76
-25 -90 -148 -152 -80 -40 -89 -42 -170 -42 -98 0 -177 27 -288 97 -58 37 -63
42 -63 76 -1 52 -33 120 -62 127 -13 4 -32 21 -43 38 -11 18 -34 39 -52 47
-39 18 -40 26 -49 285 l-7 190 94 12 c180 21 343 97 444 205 l50 53 75 -76
c60 -61 92 -85 160 -117z m-541 -908 c40 -24 61 -43 61 -55 0 -23 -30 -99 -39
-99 -17 0 -103 190 -86 190 2 0 31 -16 64 -36z m551 -79 c-23 -41 -45 -75 -49
-75 -10 0 -41 66 -41 88 0 23 123 97 128 76 2 -8 -15 -48 -38 -89z m-386 10
c55 -17 164 -20 212 -6 30 8 31 7 42 -34 6 -23 22 -56 34 -71 20 -25 23 -38
20 -100 l-4 -71 -61 -19 c-83 -25 -212 -25 -289 0 l-58 19 0 54 c0 30 -4 63
-10 73 -7 13 -5 21 6 31 23 19 54 84 54 114 0 14 1 25 3 25 1 0 24 -7 51 -15z"/>
<path d="M765 1759 c-22 -17 -64 -42 -92 -56 -37 -17 -53 -30 -53 -44 0 -14 7
-19 26 -19 34 0 134 53 169 90 24 25 26 32 15 45 -17 20 -18 19 -65 -16z"/>
<path d="M1202 1778 c-7 -7 -12 -15 -12 -20 0 -28 155 -122 193 -116 44 6 31
35 -28 62 -31 14 -74 39 -95 56 -43 34 -42 34 -58 18z"/>
<path d="M716 1598 c-19 -27 -21 -77 -4 -113 14 -30 53 -34 68 -6 25 47 1 141
-35 141 -8 0 -21 -10 -29 -22z"/>
<path d="M1256 1598 c-18 -25 -21 -90 -6 -119 24 -44 80 -5 80 56 0 38 -21 79
-42 83 -9 2 -23 -7 -32 -20z"/>
<path d="M950 1244 c-40 -17 -110 -82 -110 -101 0 -29 31 -24 69 10 22 20 58
41 79 48 36 10 45 9 87 -11 25 -12 53 -33 62 -46 17 -27 51 -32 60 -8 8 21
-51 81 -102 105 -48 22 -98 23 -145 3z"/>
</g>
</svg>
