<?xml version="1.0" standalone="no"?>
<!DOCTYPE svg PUBLIC "-//W3C//DTD SVG 20010904//EN"
 "http://www.w3.org/TR/2001/REC-SVG-20010904/DTD/svg10.dtd">
<svg version="1.0" xmlns="http://www.w3.org/2000/svg"
 width="205.000000pt" height="130.000000pt" viewBox="0 0 205.000000 130.000000"
 preserveAspectRatio="xMidYMid meet">
<metadata>
Created by potrace 1.16, written by Peter Selinger 2001-2019
</metadata>
<g transform="translate(0.000000,130.000000) scale(0.100000,-0.100000)"
fill="#000000" stroke="none">
<path d="M142 1288 c-19 -23 -142 -404 -142 -440 0 -98 79 -304 145 -377 71
-79 181 -126 329 -141 103 -11 165 -42 205 -103 19 -29 35 -40 77 -52 39 -11
59 -24 75 -48 104 -151 201 -168 238 -40 18 64 49 83 135 83 52 0 83 6 111 20
29 15 59 20 116 20 93 0 108 -10 179 -116 28 -40 59 -78 69 -84 32 -16 66 -12
89 13 35 37 29 96 -18 197 -60 127 -56 143 53 253 l57 58 0 107 c0 105 1 109
39 183 21 41 62 110 90 153 57 87 65 118 59 213 -5 82 -29 108 -91 100 -51 -7
-81 -37 -123 -119 -25 -50 -45 -75 -81 -99 -63 -44 -225 -139 -236 -139 -4 0
-19 24 -31 53 -24 54 -81 114 -135 141 -16 9 -55 16 -85 16 -70 0 -102 12
-110 43 -3 14 -14 28 -23 32 -10 4 -94 11 -188 16 -93 5 -228 16 -300 24 -417
47 -487 52 -503 33z m345 -58 c153 -16 356 -34 452 -40 96 -6 175 -11 175 -13
1 -1 8 -15 16 -32 17 -33 43 -42 130 -44 81 -2 147 -49 189 -137 45 -94 54
-95 196 -13 146 83 193 123 222 188 31 68 69 111 100 111 33 0 46 -33 41 -110
-3 -61 -8 -75 -49 -136 -25 -38 -66 -105 -90 -149 -43 -79 -44 -81 -48 -193
l-3 -114 -67 -66 c-51 -51 -70 -79 -80 -114 -13 -45 -12 -48 29 -139 48 -106
58 -152 40 -174 -22 -27 -39 -16 -89 58 -27 39 -65 88 -86 107 l-36 35 -96 -3
c-71 -2 -105 -8 -134 -22 -28 -15 -58 -20 -113 -20 -65 0 -78 -3 -104 -25 -16
-13 -37 -46 -47 -72 -21 -56 -33 -73 -50 -73 -21 0 -73 48 -115 105 -31 42
-47 54 -84 65 -34 9 -55 24 -82 57 -49 59 -116 91 -217 104 -137 16 -246 60
-304 121 -57 59 -143 272 -143 352 0 16 30 116 66 222 54 156 70 194 85 194
10 0 143 -13 296 -30z"/>
</g>
</svg>
