<?xml version="1.0" standalone="no"?>
<!DOCTYPE svg PUBLIC "-//W3C//DTD SVG 20010904//EN"
 "http://www.w3.org/TR/2001/REC-SVG-20010904/DTD/svg10.dtd">
<svg version="1.0" xmlns="http://www.w3.org/2000/svg"
 width="208.000000pt" height="227.000000pt" viewBox="0 0 208.000000 227.000000"
 preserveAspectRatio="xMidYMid meet">
<metadata>
Created by potrace 1.16, written by Peter Selinger 2001-2019
</metadata>
<g transform="translate(0.000000,227.000000) scale(0.100000,-0.100000)"
fill="#000000" stroke="none">
<path d="M1175 2260 c-178 -28 -306 -91 -426 -210 -73 -71 -94 -100 -133 -180
-56 -115 -74 -182 -85 -320 -13 -141 -63 -278 -154 -412 -38 -56 -65 -62 -117
-23 -18 13 -49 30 -68 36 -29 10 -38 9 -61 -8 -60 -45 -65 -150 -10 -206 24
-24 35 -28 60 -23 17 3 43 15 59 26 l28 20 6 -23 c3 -12 6 -84 6 -160 0 -133
-1 -137 -19 -127 -51 27 -131 -1 -131 -46 0 -12 -6 -15 -21 -11 -32 9 -67 -9
-90 -45 -19 -31 -20 -45 -16 -198 3 -139 7 -174 25 -220 21 -54 81 -130 102
-130 25 0 21 33 -8 63 -56 60 -65 89 -75 263 -8 132 -7 166 4 190 19 39 53 43
75 9 24 -36 38 -26 44 30 7 63 27 77 74 51 29 -16 34 -23 30 -45 -3 -15 1 -34
9 -46 13 -16 17 -17 31 -6 14 12 16 43 16 228 l0 215 22 -5 c12 -4 27 -2 34 4
20 16 29 -81 29 -316 0 -189 2 -220 15 -220 11 0 17 19 23 75 9 84 3 402 -9
439 l-7 25 35 -22 c19 -12 43 -22 51 -22 13 0 15 -6 9 -32 -8 -38 -7 -88 6
-208 8 -84 26 -134 56 -159 14 -12 13 -17 -3 -49 -20 -41 -35 -101 -51 -207
-13 -79 -38 -143 -75 -187 -30 -35 -32 -58 -6 -58 25 0 75 69 100 135 10 27
24 90 30 140 7 49 22 111 33 138 18 41 25 48 42 43 12 -3 87 -6 167 -6 104 0
150 -4 163 -13 14 -10 19 -32 23 -103 5 -112 10 -134 27 -134 22 0 25 23 17
127 -8 103 -19 136 -51 153 -10 5 -83 10 -162 10 -210 1 -253 26 -265 160 -8
90 0 99 105 102 73 3 87 6 90 20 3 16 -7 18 -106 18 l-109 0 8 43 c4 23 19 67
33 97 29 61 31 85 14 141 -22 76 -72 91 -155 45 -25 -14 -47 -26 -49 -26 -2 0
21 46 51 103 66 126 105 239 105 309 1 131 53 304 124 410 90 136 257 246 429
283 96 21 300 16 392 -9 189 -51 364 -192 443 -356 56 -115 75 -202 76 -330 0
-160 -37 -280 -149 -484 -111 -200 -109 -194 -110 -526 0 -247 2 -285 15 -285
13 0 16 39 21 270 7 305 14 344 80 460 169 297 217 489 175 707 -30 154 -87
267 -191 377 -99 104 -218 173 -361 210 -95 24 -254 34 -339 21z m-982 -1161
c12 -7 35 -23 50 -35 16 -13 39 -24 53 -24 19 0 24 -5 24 -24 0 -23 -3 -24
-34 -19 -26 4 -42 0 -64 -16 -44 -31 -70 -27 -87 13 -10 23 -12 43 -5 64 15
56 24 61 63 41z m377 -15 c12 -30 13 -84 2 -100 -4 -6 -16 -16 -28 -22 -17 -9
-28 -6 -65 19 -46 30 -73 36 -84 19 -5 -8 -11 -7 -21 1 -20 16 -17 39 5 39 10
0 47 16 82 35 77 41 96 43 109 9z"/>
</g>
</svg>
