<?xml version="1.0" standalone="no"?>
<!DOCTYPE svg PUBLIC "-//W3C//DTD SVG 20010904//EN"
 "http://www.w3.org/TR/2001/REC-SVG-20010904/DTD/svg10.dtd">
<svg version="1.0" xmlns="http://www.w3.org/2000/svg"
 width="147.000000pt" height="173.000000pt" viewBox="0 0 147.000000 173.000000"
 preserveAspectRatio="xMidYMid meet">
<metadata>
Created by potrace 1.16, written by Peter Selinger 2001-2019
</metadata>
<g transform="translate(0.000000,173.000000) scale(0.100000,-0.100000)"
fill="#000000" stroke="none">
<path d="M497 1723 c-14 -14 -5 -28 74 -108 l80 -83 -63 -7 c-156 -16 -278
-74 -388 -185 -84 -84 -147 -194 -177 -310 -22 -86 -22 -254 0 -340 46 -179
169 -338 322 -417 113 -57 153 -69 172 -51 13 13 12 17 -2 32 -9 9 -23 16 -31
16 -34 0 -166 75 -222 125 -125 114 -192 260 -200 435 -7 182 47 334 163 459
99 107 213 166 348 180 l68 7 -72 -72 c-62 -62 -71 -75 -59 -88 7 -9 17 -16
23 -16 16 0 207 192 207 208 0 21 -200 222 -220 222 -9 0 -20 -3 -23 -7z"/>
<path d="M964 1487 c-7 -20 3 -37 20 -37 8 0 51 -19 97 -42 116 -58 211 -153
268 -269 92 -188 93 -377 0 -566 -90 -186 -268 -312 -462 -329 l-72 -6 63 64
c62 64 75 93 46 105 -11 4 -45 -23 -110 -88 -52 -51 -94 -100 -94 -107 0 -7
43 -58 97 -113 68 -70 103 -99 120 -99 41 0 26 32 -54 112 l-78 78 50 0 c215
1 441 145 539 344 172 347 43 758 -289 921 -87 44 -132 54 -141 32z"/>
</g>
</svg>
