<?xml version="1.0" standalone="no"?>
<!DOCTYPE svg PUBLIC "-//W3C//DTD SVG 20010904//EN"
 "http://www.w3.org/TR/2001/REC-SVG-20010904/DTD/svg10.dtd">
<svg version="1.0" xmlns="http://www.w3.org/2000/svg"
 width="186.000000pt" height="189.000000pt" viewBox="0 0 186.000000 189.000000"
 preserveAspectRatio="xMidYMid meet">
<metadata>
Created by potrace 1.16, written by Peter Selinger 2001-2019
</metadata>
<g transform="translate(0.000000,189.000000) scale(0.100000,-0.100000)"
fill="#000000" stroke="none">
<path d="M1370 1871 c-5 -11 -10 -53 -10 -93 l0 -73 -430 -4 -430 -4 0 80 c0
81 -9 103 -42 103 -27 0 -38 -32 -38 -108 l0 -70 -138 -4 c-152 -4 -177 -12
-230 -72 -17 -20 -36 -53 -42 -73 -8 -27 -10 -245 -8 -718 3 -641 4 -682 22
-715 26 -49 55 -79 99 -101 36 -19 64 -19 810 -17 l774 3 48 30 c36 22 57 45
77 84 l28 53 0 672 c0 442 -4 684 -11 709 -13 47 -67 109 -117 133 -29 14 -64
18 -159 18 l-123 1 0 73 c0 85 -11 112 -45 112 -14 0 -29 -8 -35 -19z m-10
-320 c0 -81 12 -111 45 -111 33 0 45 30 45 111 l0 79 113 0 c187 0 217 -30
217 -217 l0 -113 -832 -2 c-458 0 -842 -1 -853 -2 -25 -1 -30 40 -20 163 6 76
10 87 40 120 l33 36 136 3 136 4 0 -77 c0 -83 11 -115 39 -115 33 0 42 25 41
107 -1 43 -1 81 -1 86 1 4 195 7 431 7 l430 0 0 -79z m425 -663 c10 -486 5
-694 -18 -736 -39 -72 8 -68 -827 -76 -671 -6 -753 -5 -780 9 -39 20 -68 67
-74 120 -3 22 -8 259 -11 527 l-6 488 718 2 c395 2 779 4 854 6 l137 3 7 -343z"/>
<path d="M1069 706 c-129 -134 -238 -244 -244 -245 -5 -1 -65 54 -132 121
-105 105 -126 121 -141 112 -9 -6 -18 -22 -20 -35 -2 -19 24 -49 137 -156 77
-73 148 -133 158 -133 11 0 123 108 276 264 201 207 257 270 257 290 0 22 -5
26 -28 26 -24 0 -66 -39 -263 -244z"/>
</g>
</svg>
