<?xml version="1.0" standalone="no"?>
<!DOCTYPE svg PUBLIC "-//W3C//DTD SVG 20010904//EN"
 "http://www.w3.org/TR/2001/REC-SVG-20010904/DTD/svg10.dtd">
<svg version="1.0" xmlns="http://www.w3.org/2000/svg"
 width="213.000000pt" height="174.000000pt" viewBox="0 0 213.000000 174.000000"
 preserveAspectRatio="xMidYMid meet">
<metadata>
Created by potrace 1.16, written by Peter Selinger 2001-2019
</metadata>
<g transform="translate(0.000000,174.000000) scale(0.100000,-0.100000)"
fill="#000000" stroke="none">
<path d="M551 1665 c-113 -41 -210 -80 -216 -87 -13 -13 -289 -479 -319 -536
-21 -40 -20 -65 2 -85 36 -32 325 -217 340 -217 8 0 35 20 59 45 l43 45 0
-404 c0 -390 1 -406 19 -416 13 -6 215 -10 586 -10 371 0 573 4 586 10 18 10
19 26 19 418 l0 407 44 -47 c24 -27 50 -48 58 -48 18 0 328 196 346 218 6 9
12 24 12 35 0 25 -328 585 -349 596 -9 5 -107 41 -218 80 l-202 70 -51 -34
c-151 -101 -377 -94 -519 16 -13 11 -26 19 -30 18 -3 0 -98 -34 -210 -74z
m250 -152 c70 -93 145 -133 253 -133 88 0 155 22 210 71 53 47 71 77 100 170
l21 67 190 -67 189 -67 88 -149 c144 -244 241 -415 237 -419 -2 -2 -72 -48
-156 -103 l-152 -99 -55 55 -55 56 -3 115 c-2 94 -6 115 -18 115 -13 0 -15
-68 -18 -543 l-2 -542 -565 0 -565 0 -2 543 c-3 474 -5 542 -18 542 -12 0 -16
-21 -18 -115 l-3 -115 -52 -57 -52 -58 -157 103 c-86 56 -157 107 -157 112 0
6 73 134 162 284 l163 275 184 66 185 66 26 -78 c15 -43 32 -86 40 -95z m30
132 c54 -29 156 -55 224 -55 67 0 179 25 228 50 22 12 42 19 44 16 11 -11 -30
-106 -63 -145 -49 -56 -104 -83 -185 -89 -142 -10 -230 54 -284 209 -8 22 -13
39 -11 39 2 0 23 -11 47 -25z"/>
</g>
</svg>
