<?xml version="1.0" standalone="no"?>
<!DOCTYPE svg PUBLIC "-//W3C//DTD SVG 20010904//EN"
 "http://www.w3.org/TR/2001/REC-SVG-20010904/DTD/svg10.dtd">
<svg version="1.0" xmlns="http://www.w3.org/2000/svg"
 width="213.000000pt" height="173.000000pt" viewBox="0 0 213.000000 173.000000"
 preserveAspectRatio="xMidYMid meet">
<metadata>
Created by potrace 1.16, written by Peter Selinger 2001-2019
</metadata>
<g transform="translate(0.000000,173.000000) scale(0.100000,-0.100000)"
fill="#000000" stroke="none">
<path d="M473 1716 c-96 -31 -187 -119 -223 -214 -18 -46 -21 -72 -18 -137 8
-132 65 -224 180 -286 60 -32 68 -34 163 -34 89 0 106 3 150 27 69 36 133 102
164 168 36 76 37 209 2 287 -28 63 -112 146 -178 175 -60 27 -180 34 -240 14z
m223 -60 c203 -94 237 -369 62 -506 -110 -88 -275 -83 -382 11 -157 139 -125
389 63 486 82 43 177 46 257 9z"/>
<path d="M1445 1717 c-93 -31 -175 -100 -214 -180 -119 -245 63 -511 338 -495
130 8 234 78 289 196 36 77 39 212 5 284 -30 66 -105 143 -170 175 -66 32
-183 41 -248 20z m220 -61 c236 -111 233 -444 -4 -549 -95 -42 -233 -18 -316
55 -125 110 -138 290 -28 418 81 95 237 129 348 76z"/>
<path d="M390 970 c-182 -39 -349 -215 -379 -400 -16 -94 -14 -543 1 -558 9
-9 257 -12 1054 -12 908 0 1043 2 1054 15 9 11 11 80 8 282 -4 235 -7 276 -25
330 -30 91 -64 143 -142 215 -119 110 -203 138 -416 138 -219 0 -307 -30 -418
-142 l-68 -69 -27 32 c-67 80 -142 130 -236 156 -62 17 -343 26 -406 13z m424
-68 c32 -12 82 -39 112 -62 58 -43 118 -122 105 -136 -5 -5 -19 -36 -32 -69
-22 -56 -23 -77 -27 -322 l-4 -263 -460 0 -459 0 3 273 c4 255 5 275 26 327
49 118 145 211 265 256 58 22 73 24 237 21 150 -3 183 -6 234 -25z m1000 -11
c87 -42 183 -136 218 -211 41 -88 48 -145 48 -395 l0 -235 -465 0 -465 0 0
246 c0 251 -8 323 -46 395 -12 25 -11 30 15 65 59 81 145 142 236 165 17 4
111 7 210 6 l181 -2 68 -34z m-715 -588 l1 -253 -40 0 -40 0 0 238 c0 181 4
252 15 296 22 84 27 87 47 26 14 -46 17 -98 17 -307z"/>
</g>
</svg>
