<?xml version="1.0" standalone="no"?>
<!DOCTYPE svg PUBLIC "-//W3C//DTD SVG 20010904//EN"
 "http://www.w3.org/TR/2001/REC-SVG-20010904/DTD/svg10.dtd">
<svg version="1.0" xmlns="http://www.w3.org/2000/svg"
 width="244.000000pt" height="178.000000pt" viewBox="0 0 244.000000 178.000000"
 preserveAspectRatio="xMidYMid meet">
<metadata>
Created by potrace 1.16, written by Peter Selinger 2001-2019
</metadata>
<g transform="translate(0.000000,178.000000) scale(0.100000,-0.100000)"
fill="#000000" stroke="none">
<path d="M490 1767 c0 -9 9 -33 20 -54 10 -21 28 -81 38 -133 l19 -95 -57 -52
c-31 -28 -83 -91 -115 -138 -32 -48 -77 -100 -99 -116 -53 -39 -137 -63 -192
-55 -93 12 -104 -12 -95 -204 4 -80 12 -154 18 -165 19 -35 49 -56 89 -62 21
-4 77 -32 128 -65 120 -78 289 -161 373 -184 38 -9 69 -18 70 -19 10 -6 43
-259 43 -332 l0 -93 119 0 c83 0 122 4 129 12 8 10 63 220 87 333 4 19 9 20
147 13 133 -7 443 -2 478 8 11 3 35 -25 75 -88 64 -100 69 -120 50 -235 l-7
-43 131 0 c114 0 131 2 139 18 16 30 24 120 30 337 6 192 9 213 28 240 63 89
114 241 114 340 0 58 8 65 76 65 39 0 52 -16 68 -77 15 -59 40 -65 44 -11 8
96 -75 162 -162 128 -24 -9 -26 -7 -31 28 -37 220 -185 396 -403 481 l-67 26
-440 0 -440 0 -30 45 c-62 92 -161 144 -302 156 -63 6 -73 5 -73 -9z m160 -53
c115 -34 174 -92 230 -227 15 -36 25 -48 37 -45 19 4 20 15 8 61 l-7 28 428
-3 c417 -3 431 -4 489 -26 152 -57 273 -179 336 -337 21 -53 23 -76 23 -200 0
-128 -2 -146 -26 -207 -15 -37 -43 -92 -62 -123 l-36 -55 0 -132 c0 -120 -14
-330 -26 -386 -4 -21 -9 -22 -94 -22 -50 0 -90 3 -90 6 0 3 5 24 11 48 15 60
1 103 -67 211 -55 87 -94 175 -94 214 0 27 -27 48 -43 32 -9 -9 -8 -26 5 -74
9 -34 14 -64 11 -67 -3 -3 -149 -5 -325 -5 -274 0 -321 -2 -327 -15 -5 -8 -21
-69 -36 -135 -15 -66 -34 -141 -42 -168 l-14 -47 -79 0 -80 0 0 56 c0 62 -36
318 -49 349 -6 15 -28 26 -79 39 -90 23 -265 107 -372 179 l-84 57 -2 117 c-2
107 -10 156 -39 226 -5 13 -2 17 13 17 44 0 125 36 168 73 25 22 67 72 94 111
57 84 150 177 157 158 11 -29 70 -97 101 -115 27 -16 35 -17 48 -6 13 11 8 18
-34 55 -60 52 -86 110 -112 242 -10 53 -21 105 -25 115 -9 22 13 22 85 1z
m-551 -660 c32 -41 51 -119 51 -213 0 -98 -5 -112 -37 -100 -42 15 -51 46 -56
191 -2 76 -2 140 1 143 10 10 21 5 41 -21z"/>
<path d="M542 1128 c-18 -18 -14 -46 9 -58 26 -14 49 3 49 35 0 32 -35 46 -58
23z"/>
</g>
</svg>
