<?xml version="1.0" standalone="no"?>
<!DOCTYPE svg PUBLIC "-//W3C//DTD SVG 20010904//EN"
 "http://www.w3.org/TR/2001/REC-SVG-20010904/DTD/svg10.dtd">
<svg version="1.0" xmlns="http://www.w3.org/2000/svg"
 width="232.000000pt" height="172.000000pt" viewBox="0 0 232.000000 172.000000"
 preserveAspectRatio="xMidYMid meet">
<metadata>
Created by potrace 1.16, written by Peter Selinger 2001-2019
</metadata>
<g transform="translate(0.000000,172.000000) scale(0.100000,-0.100000)"
fill="#000000" stroke="none">
<path d="M1300 1713 c-30 -9 -55 -50 -410 -666 -34 -59 -65 -105 -70 -102 -5
3 -36 52 -69 109 -34 58 -68 112 -77 120 -27 28 -62 20 -90 -22 -14 -20 -140
-251 -280 -512 -141 -261 -267 -494 -281 -518 -28 -48 -25 -85 7 -102 30 -16
2238 -14 2257 2 8 7 19 23 24 36 10 27 6 35 -316 582 -194 330 -242 409 -280
455 -17 22 -94 155 -170 295 -187 347 -184 342 -245 323z m77 -153 c28 -47 94
-167 147 -268 80 -149 96 -185 86 -197 -7 -8 -17 -15 -23 -15 -5 0 -31 -15
-57 -34 l-48 -35 -74 75 c-76 79 -112 104 -149 104 -13 0 -51 -29 -99 -75
l-77 -75 -51 13 -51 13 45 83 c102 192 291 507 299 499 1 -2 25 -41 52 -88z
m-60 -467 c14 -16 48 -55 76 -88 27 -33 55 -63 61 -67 16 -11 46 1 91 36 21
17 57 39 79 49 39 17 40 17 63 -5 13 -12 50 -67 82 -123 32 -55 151 -257 264
-450 113 -192 202 -353 198 -358 -4 -4 -209 -6 -456 -5 l-449 3 -89 150 c-49
83 -154 260 -233 394 l-144 243 36 59 c35 58 36 59 80 59 25 0 61 -7 80 -15
44 -18 50 -14 127 76 66 79 92 86 134 42z m-590 -122 c56 -97 257 -436 388
-656 39 -66 86 -146 104 -177 l32 -58 -586 0 -586 0 54 103 c29 56 122 230
206 387 84 157 173 323 198 370 25 47 57 105 71 129 l26 44 18 -23 c10 -13 44
-66 75 -119z"/>
</g>
</svg>
