<?xml version="1.0" standalone="no"?>
<!DOCTYPE svg PUBLIC "-//W3C//DTD SVG 20010904//EN"
 "http://www.w3.org/TR/2001/REC-SVG-20010904/DTD/svg10.dtd">
<svg version="1.0" xmlns="http://www.w3.org/2000/svg"
 width="126.000000pt" height="201.000000pt" viewBox="0 0 126.000000 201.000000"
 preserveAspectRatio="xMidYMid meet">
<metadata>
Created by potrace 1.16, written by Peter Selinger 2001-2019
</metadata>
<g transform="translate(0.000000,201.000000) scale(0.100000,-0.100000)"
fill="#000000" stroke="none">
<path d="M492 1991 c-128 -32 -236 -93 -327 -185 -120 -120 -165 -230 -165
-398 l0 -88 193 2 192 3 11 65 c16 101 22 117 55 154 41 47 103 70 177 64 79
-6 130 -34 167 -93 27 -43 30 -57 29 -124 -1 -91 -27 -162 -97 -268 -63 -93
-129 -165 -453 -500 l-274 -281 0 -171 0 -171 628 2 627 3 3 169 c2 129 -1
171 -10 178 -7 4 -163 8 -345 8 -183 0 -333 3 -333 6 0 3 80 90 179 192 273
286 332 358 409 502 67 125 87 205 87 350 0 105 -4 137 -24 198 -49 149 -148
265 -284 332 -141 69 -296 87 -445 51z m280 -42 c195 -40 362 -200 413 -395
34 -131 10 -305 -60 -446 -77 -152 -143 -234 -462 -566 -129 -134 -193 -207
-189 -217 5 -13 57 -15 371 -15 l365 0 0 -130 0 -130 -582 0 -583 0 3 137 3
138 193 195 c406 411 511 532 577 662 107 212 57 412 -115 463 -60 18 -135 19
-187 3 -90 -26 -169 -134 -169 -231 l0 -48 -152 3 -152 3 3 58 c6 138 52 239
156 342 78 78 193 143 300 169 73 17 195 20 267 5z"/>
</g>
</svg>
