<?xml version="1.0" standalone="no"?>
<!DOCTYPE svg PUBLIC "-//W3C//DTD SVG 20010904//EN"
 "http://www.w3.org/TR/2001/REC-SVG-20010904/DTD/svg10.dtd">
<svg version="1.0" xmlns="http://www.w3.org/2000/svg"
 width="198.000000pt" height="194.000000pt" viewBox="0 0 198.000000 194.000000"
 preserveAspectRatio="xMidYMid meet">
<metadata>
Created by potrace 1.16, written by Peter Selinger 2001-2019
</metadata>
<g transform="translate(0.000000,194.000000) scale(0.100000,-0.100000)"
fill="#000000" stroke="none">
<path d="M1215 1899 c-843 -256 -1090 -335 -1126 -361 -21 -15 -49 -47 -61
-70 l-23 -43 0 -635 c0 -630 0 -635 21 -675 27 -50 48 -69 104 -94 44 -20 62
-21 805 -21 479 0 773 4 796 10 61 17 102 52 132 109 26 53 27 59 27 222 l0
168 43 3 42 3 3 249 c2 175 -1 253 -9 262 -6 8 -27 14 -45 14 l-34 0 0 180 c0
197 -7 229 -58 283 -40 43 -80 60 -152 66 l-65 6 -12 60 c-43 201 -45 206 -75
241 -68 77 -124 81 -313 23z m219 -39 c14 -5 33 -21 42 -35 16 -24 69 -243 61
-251 -2 -2 -260 -3 -573 -2 l-569 3 355 107 c195 59 414 125 485 147 142 43
161 46 199 31z m314 -383 c60 -33 72 -77 72 -269 l0 -168 -147 0 c-82 0 -165
-5 -185 -10 -53 -15 -118 -68 -153 -125 -27 -43 -30 -57 -30 -124 0 -88 19
-135 77 -193 68 -68 84 -73 271 -76 l167 -4 0 -146 c0 -169 -8 -207 -51 -248
l-30 -29 -794 0 -795 0 -32 33 -33 32 -3 625 c-3 704 -6 670 71 706 40 18 72
19 802 16 713 -2 762 -3 793 -20z m162 -702 l0 -195 -177 0 c-98 0 -195 5
-216 11 -50 14 -113 71 -128 117 -32 98 4 192 93 236 50 25 58 26 240 26 l188
0 0 -195z"/>
<path d="M892 1248 c-7 -7 -12 -26 -12 -43 0 -28 -4 -33 -41 -44 -49 -15 -117
-74 -136 -118 -19 -47 -16 -118 7 -162 28 -56 74 -88 165 -116 130 -40 172
-75 182 -153 11 -80 -48 -136 -142 -136 -63 0 -109 25 -150 82 -36 49 -68 53
-73 9 -6 -50 38 -102 117 -139 67 -32 70 -34 73 -72 6 -74 68 -72 68 3 0 34 3
37 60 64 85 39 115 86 115 178 0 59 -4 73 -30 111 -35 49 -82 79 -175 109
-122 40 -160 78 -160 160 0 57 47 104 113 114 78 12 126 -12 173 -86 37 -60
86 -48 70 16 -10 38 -75 106 -123 127 -38 17 -43 23 -43 51 0 33 -15 57 -35
57 -6 0 -16 -5 -23 -12z"/>
<path d="M1523 850 c-37 -15 -54 -69 -37 -115 10 -24 60 -46 89 -39 32 8 65
49 65 81 0 29 -51 83 -77 82 -10 0 -28 -4 -40 -9z"/>
</g>
</svg>
