<?xml version="1.0" standalone="no"?>
<!DOCTYPE svg PUBLIC "-//W3C//DTD SVG 20010904//EN"
 "http://www.w3.org/TR/2001/REC-SVG-20010904/DTD/svg10.dtd">
<svg version="1.0" xmlns="http://www.w3.org/2000/svg"
 width="227.000000pt" height="220.000000pt" viewBox="0 0 227.000000 220.000000"
 preserveAspectRatio="xMidYMid meet">
<metadata>
Created by potrace 1.16, written by Peter Selinger 2001-2019
</metadata>
<g transform="translate(0.000000,220.000000) scale(0.100000,-0.100000)"
fill="#000000" stroke="none">
<path d="M1087 2182 c-9 -9 -82 -155 -162 -322 -81 -168 -155 -313 -165 -324
-15 -16 -75 -26 -362 -62 -188 -24 -346 -43 -351 -44 -4 0 -16 -9 -27 -20 -45
-45 -37 -56 241 -336 l261 -262 -4 -44 c-2 -24 -33 -195 -68 -382 l-64 -338
27 -24 c16 -13 36 -24 45 -24 9 0 82 37 162 81 258 144 488 259 517 259 36 0
132 -46 391 -189 301 -166 278 -155 312 -141 19 8 33 22 37 38 4 15 -18 154
-53 341 -32 174 -60 342 -62 375 l-4 58 256 257 c272 272 281 286 237 330 -21
21 -50 26 -426 71 -137 17 -265 35 -283 41 -31 10 -43 30 -193 332 -88 177
-165 327 -171 334 -15 19 -72 16 -91 -5z m232 -354 c106 -213 164 -319 182
-331 20 -14 102 -28 368 -61 188 -23 346 -47 352 -53 6 -6 8 -20 5 -30 -3 -11
-112 -125 -242 -253 -130 -129 -242 -243 -250 -254 -23 -33 -17 -84 46 -424
33 -178 60 -335 60 -348 0 -14 -6 -27 -14 -30 -8 -3 -96 41 -197 97 -333 185
-444 239 -488 239 -43 0 -211 -82 -521 -254 -85 -47 -157 -86 -160 -86 -3 0
-11 4 -19 9 -14 9 -5 64 85 540 23 116 33 197 29 218 -5 27 -54 81 -261 285
-235 232 -272 276 -245 293 14 8 174 31 431 60 255 30 277 35 312 73 14 15 90
162 169 327 78 165 150 306 158 313 12 10 18 9 30 -2 8 -8 84 -156 170 -328z"/>
<path d="M834 1306 c-51 -23 -100 -73 -124 -128 -18 -42 -21 -65 -18 -119 8
-110 27 -137 238 -335 105 -99 197 -180 205 -182 8 -2 99 78 203 178 228 218
246 244 241 359 -3 65 -9 85 -34 126 -85 137 -255 155 -370 40 l-42 -42 -26
32 c-39 49 -119 85 -186 85 -31 -1 -70 -7 -87 -14z m176 -46 c21 -11 56 -40
77 -65 20 -25 42 -45 48 -45 6 0 28 20 48 45 106 126 266 112 339 -30 29 -55
29 -137 1 -191 -12 -22 -102 -119 -203 -217 l-182 -178 -166 160 c-92 87 -177
170 -189 183 -85 91 -63 271 40 333 53 32 131 34 187 5z"/>
</g>
</svg>
