<?xml version="1.0" standalone="no"?>
<!DOCTYPE svg PUBLIC "-//W3C//DTD SVG 20010904//EN"
 "http://www.w3.org/TR/2001/REC-SVG-20010904/DTD/svg10.dtd">
<svg version="1.0" xmlns="http://www.w3.org/2000/svg"
 width="194.000000pt" height="160.000000pt" viewBox="0 0 194.000000 160.000000"
 preserveAspectRatio="xMidYMid meet">
<metadata>
Created by potrace 1.16, written by Peter Selinger 2001-2019
</metadata>
<g transform="translate(0.000000,160.000000) scale(0.100000,-0.100000)"
fill="#000000" stroke="none">
<path d="M129 1584 c-17 -21 -24 -213 -10 -288 12 -63 65 -188 87 -207 20 -16
17 -29 -5 -29 -36 0 -29 -29 29 -117 114 -172 249 -275 454 -347 17 -6 11 -13
-40 -47 -172 -116 -294 -156 -572 -185 -42 -4 -65 -11 -69 -21 -8 -21 79 -144
152 -212 35 -33 94 -76 130 -96 l66 -37 57 60 c99 106 176 125 372 93 349 -58
597 17 745 224 69 95 102 193 135 391 16 94 36 189 45 210 34 82 99 124 193
124 68 0 57 26 -66 150 -117 119 -153 140 -234 140 -111 -1 -192 -65 -325
-261 -49 -71 -90 -129 -93 -129 -3 1 -21 26 -40 57 -47 74 -128 147 -209 187
-36 18 -141 56 -233 84 -201 62 -299 106 -441 201 -59 39 -109 71 -111 71 -2
0 -9 -7 -17 -16z m108 -91 c111 -76 293 -157 478 -213 97 -29 193 -65 223 -83
106 -63 218 -207 253 -324 11 -41 31 -55 44 -34 3 6 -3 35 -14 66 l-20 55 57
82 c180 257 224 299 322 306 83 6 127 -18 223 -122 42 -47 77 -87 77 -90 0 -3
-16 -6 -36 -6 -81 0 -150 -62 -183 -165 -11 -33 -27 -114 -37 -180 -32 -229
-93 -367 -205 -470 -147 -134 -361 -174 -651 -124 -182 31 -265 11 -370 -89
l-59 -56 -32 19 c-69 39 -141 101 -198 172 -32 41 -57 79 -54 84 4 5 25 9 48
9 62 0 213 26 293 51 89 27 162 65 266 135 l83 57 61 -12 c80 -14 86 -14 82 6
-2 11 -30 23 -96 40 -240 60 -403 166 -516 337 -53 80 -54 86 -17 86 39 0 40
18 2 54 -35 34 -77 116 -96 187 -21 79 -20 269 2 269 1 0 33 -21 70 -47z"/>
<path d="M1624 1215 c-8 -21 2 -45 19 -45 21 0 38 25 31 44 -8 20 -43 21 -50
1z"/>
</g>
</svg>
