<?xml version="1.0" standalone="no"?>
<!DOCTYPE svg PUBLIC "-//W3C//DTD SVG 20010904//EN"
 "http://www.w3.org/TR/2001/REC-SVG-20010904/DTD/svg10.dtd">
<svg version="1.0" xmlns="http://www.w3.org/2000/svg"
 width="173.000000pt" height="175.000000pt" viewBox="0 0 173.000000 175.000000"
 preserveAspectRatio="xMidYMid meet">
<metadata>
Created by potrace 1.16, written by Peter Selinger 2001-2019
</metadata>
<g transform="translate(0.000000,175.000000) scale(0.100000,-0.100000)"
fill="#000000" stroke="none">
<path d="M730 1738 c-93 -13 -234 -62 -314 -110 -147 -87 -295 -261 -356 -421
-89 -230 -80 -498 25 -708 163 -325 479 -515 825 -496 213 12 387 88 544 236
181 172 276 395 276 647 0 531 -466 928 -1000 852z m340 -89 c276 -71 490
-285 567 -569 25 -90 24 -309 -1 -400 -78 -285 -291 -502 -571 -581 -104 -30
-276 -32 -380 -5 -284 74 -506 288 -585 568 -30 103 -37 260 -16 369 86 456
529 734 986 618z"/>
<path d="M842 1288 c-8 -8 -12 -67 -12 -200 l0 -188 -184 0 c-194 0 -212 -4
-204 -47 3 -16 21 -18 193 -23 l190 -5 5 -195 5 -195 24 -3 c13 -2 28 2 32 10
5 7 9 97 9 201 l0 187 183 0 c129 0 187 4 195 12 16 16 15 23 -4 42 -13 13
-45 16 -195 16 l-179 0 0 188 c0 186 -4 212 -35 212 -6 0 -16 -5 -23 -12z"/>
</g>
</svg>
