<?xml version="1.0" standalone="no"?>
<!DOCTYPE svg PUBLIC "-//W3C//DTD SVG 20010904//EN"
 "http://www.w3.org/TR/2001/REC-SVG-20010904/DTD/svg10.dtd">
<svg version="1.0" xmlns="http://www.w3.org/2000/svg"
 width="179.000000pt" height="210.000000pt" viewBox="0 0 179.000000 210.000000"
 preserveAspectRatio="xMidYMid meet">
<metadata>
Created by potrace 1.16, written by Peter Selinger 2001-2019
</metadata>
<g transform="translate(0.000000,210.000000) scale(0.100000,-0.100000)"
fill="#000000" stroke="none">
<path d="M752 2089 c-314 -52 -580 -285 -688 -601 -48 -141 -59 -221 -58 -423
1 -213 20 -334 74 -474 109 -281 344 -498 615 -567 101 -26 303 -24 407 4 322
87 572 360 655 714 25 105 27 129 26 333 -1 203 -3 228 -27 320 -82 317 -295
559 -578 655 -139 48 -289 62 -426 39z m353 -64 c253 -69 469 -268 570 -525
51 -130 60 -197 59 -445 0 -217 -2 -235 -27 -330 -84 -313 -285 -536 -576
-639 -80 -28 -96 -30 -226 -31 -151 0 -204 9 -317 56 -207 85 -389 283 -471
514 -51 144 -62 223 -62 455 1 248 15 328 85 477 124 264 339 431 630 487 52
10 276 -3 335 -19z"/>
<path d="M530 1362 c-28 -8 -40 -36 -40 -93 0 -48 4 -60 22 -73 29 -20 41 -20
68 2 19 15 23 28 22 76 -1 72 -25 102 -72 88z"/>
<path d="M1218 1362 c-35 -7 -50 -134 -19 -165 14 -14 69 -13 83 1 6 6 13 34
16 61 7 73 -26 115 -80 103z"/>
<path d="M823 740 c-149 -27 -292 -148 -281 -238 3 -25 6 -23 41 30 73 108
159 157 293 165 157 10 279 -51 340 -170 14 -26 29 -45 34 -42 17 10 11 35
-21 96 -23 43 -45 68 -83 93 -91 59 -215 85 -323 66z"/>
</g>
</svg>
