<?xml version="1.0" standalone="no"?>
<!DOCTYPE svg PUBLIC "-//W3C//DTD SVG 20010904//EN"
 "http://www.w3.org/TR/2001/REC-SVG-20010904/DTD/svg10.dtd">
<svg version="1.0" xmlns="http://www.w3.org/2000/svg"
 width="180.000000pt" height="149.000000pt" viewBox="0 0 180.000000 149.000000"
 preserveAspectRatio="xMidYMid meet">
<metadata>
Created by potrace 1.16, written by Peter Selinger 2001-2019
</metadata>
<g transform="translate(0.000000,149.000000) scale(0.100000,-0.100000)"
fill="#000000" stroke="none">
<path d="M222 1267 c-122 -122 -222 -227 -222 -233 0 -6 100 -110 221 -232
183 -184 224 -220 236 -210 12 10 -20 46 -189 215 l-203 203 865 2 c857 3 865
3 865 23 0 20 -7 20 -858 20 -471 0 -857 2 -857 5 0 3 84 88 186 190 102 102
189 192 194 201 7 11 5 20 -3 28 -10 8 -66 -43 -235 -212z"/>
<path d="M1320 862 c0 -9 83 -100 185 -202 l185 -185 -832 -5 c-783 -5 -833
-6 -836 -22 -3 -17 42 -18 837 -18 463 0 841 -1 841 -3 0 -2 -86 -88 -190
-193 -138 -137 -190 -195 -188 -209 2 -11 6 -20 10 -20 15 0 439 429 436 440
-6 23 -413 435 -430 435 -11 0 -18 -7 -18 -18z"/>
</g>
</svg>
