<?xml version="1.0" standalone="no"?>
<!DOCTYPE svg PUBLIC "-//W3C//DTD SVG 20010904//EN"
 "http://www.w3.org/TR/2001/REC-SVG-20010904/DTD/svg10.dtd">
<svg version="1.0" xmlns="http://www.w3.org/2000/svg"
 width="107.000000pt" height="224.000000pt" viewBox="0 0 107.000000 224.000000"
 preserveAspectRatio="xMidYMid meet">
<metadata>
Created by potrace 1.16, written by Peter Selinger 2001-2019
</metadata>
<g transform="translate(0.000000,224.000000) scale(0.100000,-0.100000)"
fill="#000000" stroke="none">
<path d="M377 2234 c-4 -4 -7 -22 -7 -41 0 -31 -2 -33 -34 -33 -33 0 -62 -20
-49 -33 3 -4 26 -7 50 -7 41 0 43 -1 43 -29 0 -16 3 -36 6 -45 5 -13 -1 -16
-27 -16 -19 0 -40 -4 -48 -9 -23 -15 -2 -31 39 -31 34 0 41 -4 46 -26 8 -32
-2 -42 -46 -46 -23 -2 -35 -8 -35 -18 0 -11 13 -16 48 -18 l47 -3 0 -273 0
-273 -47 -7 c-68 -9 -144 -47 -180 -91 -56 -68 -71 -181 -38 -276 43 -119 38
-178 -20 -251 -92 -116 -131 -225 -122 -338 16 -190 132 -313 335 -355 93 -19
305 -19 394 -1 149 32 264 118 308 231 19 47 24 80 24 155 1 118 -18 178 -85
267 -27 35 -56 77 -64 93 -21 40 -19 105 6 175 30 85 35 162 15 220 -33 98
-92 145 -210 169 l-61 13 -3 209 c-2 115 0 237 3 272 l7 62 42 0 c24 0 46 3
49 7 13 13 -16 33 -49 33 -32 0 -34 2 -34 35 0 35 0 35 43 35 24 0 47 3 50 7
14 13 -17 33 -51 33 -35 0 -35 0 -28 38 3 20 6 42 6 47 0 6 19 9 46 6 40 -3
45 -1 42 15 -2 14 -15 20 -43 24 -37 5 -39 7 -40 40 l0 35 -161 3 c-88 1 -163
-1 -167 -4z m288 -61 c-2 -16 -9 -80 -15 -143 -6 -63 -13 -127 -16 -142 l-6
-28 -92 0 -92 0 -13 123 c-6 67 -14 143 -18 170 l-6 47 131 0 131 0 -4 -27z
m-145 -758 l0 -405 -23 0 c-13 0 -28 -5 -35 -12 -9 -9 -12 81 -12 405 l0 417
35 0 35 0 0 -405z m110 -5 l0 -410 -27 6 c-16 4 -31 9 -35 13 -3 3 -10 185
-14 404 l-7 397 42 0 41 0 0 -410z m-220 -284 c0 -131 -3 -166 -14 -176 -8 -6
-22 -31 -32 -55 -45 -119 43 -248 170 -248 159 0 250 183 151 301 -24 29 -25
34 -25 187 l0 158 51 -6 c175 -21 234 -138 174 -347 -37 -132 -32 -163 45
-270 81 -113 95 -152 95 -275 0 -117 -18 -168 -84 -234 -86 -86 -201 -121
-404 -121 -326 0 -483 106 -495 335 -6 105 19 185 84 270 91 120 101 168 58
312 -19 64 -24 101 -20 137 6 54 44 126 79 149 32 21 107 46 140 47 l27 0 0
-164z m196 -165 c31 -14 47 -30 64 -66 51 -104 -17 -205 -137 -205 -44 0 -58
5 -87 30 -63 56 -71 139 -19 201 49 58 109 72 179 40z"/>
<path d="M377 424 c-4 -4 -7 -13 -7 -21 0 -11 32 -13 168 -11 141 3 167 5 167
18 0 13 -26 15 -161 18 -88 1 -163 -1 -167 -4z"/>
</g>
</svg>
