<?xml version="1.0" standalone="no"?>
<!DOCTYPE svg PUBLIC "-//W3C//DTD SVG 20010904//EN"
 "http://www.w3.org/TR/2001/REC-SVG-20010904/DTD/svg10.dtd">
<svg version="1.0" xmlns="http://www.w3.org/2000/svg"
 width="319.000000pt" height="482.000000pt" viewBox="0 0 319.000000 482.000000"
 preserveAspectRatio="xMidYMid meet">
<metadata>
Created by potrace 1.16, written by Peter Selinger 2001-2019
</metadata>
<g transform="translate(0.000000,482.000000) scale(0.100000,-0.100000)"
fill="#000000" stroke="none">
<path d="M1103 4813 c383 -2 1011 -2 1395 0 383 1 69 2 -698 2 -767 0 -1081
-1 -697 -2z"/>
<path d="M1474 4141 c-50 -30 -58 -64 -51 -217 l6 -134 -218 0 c-209 0 -220
-1 -262 -23 -29 -16 -54 -40 -74 -72 l-30 -48 0 -811 c0 -446 3 -823 7 -838
11 -38 54 -86 99 -108 37 -19 63 -20 681 -20 603 0 646 2 683 19 22 10 48 28
58 39 46 51 46 51 46 897 1 783 0 801 -20 845 -48 107 -67 114 -324 120 l-210
5 4 142 c5 210 -8 223 -231 223 -112 0 -138 -3 -164 -19z m335 -55 c22 -24 23
-30 16 -113 -11 -151 -34 -304 -46 -319 -16 -19 -252 -20 -267 -1 -19 24 -59
348 -48 393 4 13 15 33 26 44 18 18 34 20 158 20 134 0 139 -1 161 -24z m-359
-400 c22 -86 42 -96 193 -96 161 0 175 8 204 120 l9 35 199 0 c232 0 253 -6
293 -85 l22 -44 0 -802 0 -801 -23 -34 c-45 -67 -16 -64 -717 -64 l-635 0 -36
23 c-73 44 -69 -1 -69 884 0 745 2 795 19 833 38 85 73 95 326 92 l200 -2 15
-59z"/>
<path d="M1542 3351 c-186 -64 -241 -307 -101 -449 41 -41 70 -57 134 -70 57
-12 137 -2 183 22 42 21 89 71 115 120 33 62 31 174 -5 242 -36 68 -95 119
-159 138 -67 20 -101 20 -167 -3z m149 -47 c70 -21 132 -81 149 -144 24 -88
-8 -195 -72 -243 -90 -67 -193 -60 -286 18 -119 101 -86 298 63 366 50 23 76
23 146 3z"/>
<path d="M1496 2749 c-217 -32 -373 -220 -364 -441 l3 -73 479 -3 c366 -2 482
1 493 10 18 15 11 117 -14 201 -73 249 -275 353 -597 306z m346 -71 c79 -37
143 -99 177 -172 30 -63 51 -145 51 -196 l0 -30 -450 0 -450 0 0 33 c0 45 25
139 51 189 49 95 154 176 259 197 25 5 104 9 175 8 118 -2 135 -4 187 -29z"/>
<path d="M5 1425 c0 -440 1 -619 2 -397 2 222 2 582 0 800 -1 218 -2 37 -2
-403z"/>
<path d="M4 270 c0 -151 2 -213 3 -138 2 76 2 200 0 275 -1 76 -3 14 -3 -137z"/>
</g>
</svg>
