<?xml version="1.0" standalone="no"?>
<!DOCTYPE svg PUBLIC "-//W3C//DTD SVG 20010904//EN"
 "http://www.w3.org/TR/2001/REC-SVG-20010904/DTD/svg10.dtd">
<svg version="1.0" xmlns="http://www.w3.org/2000/svg"
 width="118.000000pt" height="170.000000pt" viewBox="0 0 118.000000 170.000000"
 preserveAspectRatio="xMidYMid meet">
<metadata>
Created by potrace 1.16, written by Peter Selinger 2001-2019
</metadata>
<g transform="translate(0.000000,170.000000) scale(0.100000,-0.100000)"
fill="#000000" stroke="none">
<path d="M2 1463 l3 -238 149 -3 c113 -2 151 1 158 10 4 7 8 43 8 81 l0 67
231 0 230 0 -6 -22 c-9 -29 -265 -734 -390 -1072 -52 -143 -95 -265 -95 -273
0 -11 35 -13 186 -11 l186 3 55 140 c30 77 147 396 259 708 l204 568 0 139 0
140 -590 0 -590 0 2 -237z m1138 92 l0 -106 -104 -292 c-179 -500 -312 -867
-362 -994 l-47 -123 -139 0 c-92 0 -138 4 -138 11 0 6 70 200 156 432 235 633
332 909 327 924 -4 11 -59 13 -277 11 l-271 -3 -3 -77 -3 -78 -119 0 -120 0 0
200 0 200 550 0 550 0 0 -105z"/>
</g>
</svg>
