<?xml version="1.0" standalone="no"?>
<!DOCTYPE svg PUBLIC "-//W3C//DTD SVG 20010904//EN"
 "http://www.w3.org/TR/2001/REC-SVG-20010904/DTD/svg10.dtd">
<svg version="1.0" xmlns="http://www.w3.org/2000/svg"
 width="211.000000pt" height="136.000000pt" viewBox="0 0 211.000000 136.000000"
 preserveAspectRatio="xMidYMid meet">
<metadata>
Created by potrace 1.16, written by Peter Selinger 2001-2019
</metadata>
<g transform="translate(0.000000,136.000000) scale(0.100000,-0.100000)"
fill="#000000" stroke="none">
<path d="M535 1345 c-237 -52 -421 -217 -502 -454 -21 -60 -28 -100 -31 -192
-5 -139 9 -205 69 -329 34 -69 58 -101 128 -170 93 -92 162 -134 276 -170 161
-49 329 -34 489 45 l88 43 50 -29 c130 -77 317 -107 468 -75 41 8 115 35 165
60 234 116 375 344 375 603 0 109 -23 202 -72 302 -34 69 -60 104 -133 177
-75 76 -104 98 -175 132 -111 53 -226 77 -341 69 -97 -6 -218 -42 -290 -86
l-46 -28 -89 44 c-139 68 -290 89 -429 58z m271 -50 c57 -13 150 -51 183 -73
12 -8 1 -25 -53 -83 -77 -83 -147 -215 -166 -313 -16 -81 -14 -239 5 -311 26
-101 88 -215 160 -292 36 -39 65 -73 65 -76 0 -10 -141 -68 -205 -83 -91 -21
-235 -14 -322 16 -174 60 -324 205 -388 374 -130 346 73 743 428 836 87 23
210 25 293 5z m778 -5 c131 -33 244 -105 334 -213 52 -63 116 -192 131 -265
16 -76 14 -218 -4 -287 -52 -203 -217 -381 -416 -446 -62 -20 -94 -24 -199
-24 -135 0 -204 17 -298 71 l-42 25 48 47 c230 225 268 590 89 859 -26 39 -67
89 -91 111 l-45 41 32 20 c127 77 306 101 461 61z m-476 -164 c71 -75 125
-162 153 -248 32 -97 34 -292 5 -378 -40 -118 -120 -240 -192 -295 l-32 -25
-66 72 c-90 97 -143 203 -164 331 -14 88 -14 106 0 194 22 129 76 239 165 334
36 38 69 69 73 69 4 0 30 -24 58 -54z"/>
</g>
</svg>
