<?xml version="1.0" standalone="no"?>
<!DOCTYPE svg PUBLIC "-//W3C//DTD SVG 20010904//EN"
 "http://www.w3.org/TR/2001/REC-SVG-20010904/DTD/svg10.dtd">
<svg version="1.0" xmlns="http://www.w3.org/2000/svg"
 width="151.000000pt" height="173.000000pt" viewBox="0 0 151.000000 173.000000"
 preserveAspectRatio="xMidYMid meet">
<metadata>
Created by potrace 1.16, written by Peter Selinger 2001-2019
</metadata>
<g transform="translate(0.000000,173.000000) scale(0.100000,-0.100000)"
fill="#000000" stroke="none">
<path d="M690 1723 c-95 -16 -173 -55 -243 -122 -98 -94 -137 -188 -137 -328
0 -184 102 -346 263 -418 l49 -21 -76 -12 c-260 -40 -467 -221 -521 -455 -8
-35 -16 -121 -17 -191 l-3 -128 28 -24 28 -24 700 0 700 0 24 25 c24 23 25 30
25 148 0 189 -30 288 -124 413 -95 126 -240 208 -421 236 l-72 11 61 30 c190
95 293 320 241 522 -32 120 -117 230 -224 288 -78 43 -198 64 -281 50z m129
-53 c132 -22 243 -108 304 -238 28 -59 32 -78 32 -152 0 -104 -20 -168 -79
-248 -82 -111 -202 -167 -340 -160 -150 8 -271 89 -339 227 -30 62 -32 72 -32
176 0 104 2 114 32 176 56 115 173 201 297 219 28 4 53 8 56 9 3 0 34 -4 69
-9z m200 -910 c204 -50 354 -182 416 -365 22 -66 40 -297 25 -325 -11 -20 -20
-20 -699 -20 -601 0 -690 2 -701 15 -14 17 -7 203 11 285 19 84 77 188 142
254 96 95 212 149 383 176 94 15 326 4 423 -20z"/>
</g>
</svg>
