<?xml version="1.0" standalone="no"?>
<!DOCTYPE svg PUBLIC "-//W3C//DTD SVG 20010904//EN"
 "http://www.w3.org/TR/2001/REC-SVG-20010904/DTD/svg10.dtd">
<svg version="1.0" xmlns="http://www.w3.org/2000/svg"
 width="218.000000pt" height="186.000000pt" viewBox="0 0 218.000000 186.000000"
 preserveAspectRatio="xMidYMid meet">
<metadata>
Created by potrace 1.16, written by Peter Selinger 2001-2019
</metadata>
<g transform="translate(0.000000,186.000000) scale(0.100000,-0.100000)"
fill="#000000" stroke="none">
<path d="M291 1838 c-84 -41 -141 -168 -141 -314 0 -101 13 -167 52 -261 l30
-73 -21 -60 c-12 -33 -21 -83 -21 -110 l0 -50 -85 0 c-84 0 -86 0 -96 -27 -14
-36 4 -164 35 -248 126 -334 395 -573 751 -666 80 -21 112 -24 290 -24 208 0
237 4 389 52 281 88 490 258 609 498 71 143 116 341 88 393 -11 20 -20 22 -96
22 -47 0 -85 2 -85 5 0 3 7 22 15 42 21 49 19 106 -6 162 l-20 48 31 49 c40
63 70 161 77 250 11 134 -33 231 -123 274 -127 62 -288 -9 -450 -200 -47 -56
-85 -90 -119 -107 -80 -41 -131 -88 -162 -151 -26 -54 -28 -65 -28 -187 0 -71
4 -142 9 -157 l8 -28 -121 0 c-76 0 -121 4 -121 10 0 6 17 45 39 88 70 140 83
269 37 365 -14 29 -31 59 -38 68 -31 37 -102 78 -146 85 -41 6 -58 18 -134 88
-177 165 -331 222 -447 164z m191 -45 c71 -27 174 -102 243 -174 44 -47 72
-69 88 -69 50 0 116 -32 156 -75 90 -97 89 -219 -3 -399 l-51 -101 -66 -3 -66
-3 -53 93 c-29 51 -75 125 -101 165 -27 40 -49 76 -49 81 0 6 -7 12 -15 16
-10 3 -20 -5 -30 -25 -17 -32 -12 -51 11 -47 10 2 45 -46 100 -137 l86 -140
-234 -3 c-128 -1 -238 0 -245 2 -18 7 -17 98 1 141 10 24 22 35 35 35 28 0 26
10 -9 67 -60 96 -98 258 -84 358 25 187 140 275 286 218z m1481 -49 c61 -40
81 -96 74 -208 -8 -145 -57 -251 -135 -294 -56 -31 -57 -57 -2 -48 37 6 40 4
56 -26 34 -66 12 -181 -39 -193 -12 -3 -116 -4 -230 -3 l-209 3 23 29 c12 16
71 110 131 209 98 164 123 217 100 217 -17 0 -50 -49 -172 -253 l-125 -208
-80 3 c-78 3 -80 4 -95 33 -19 38 -20 241 -2 303 18 58 74 112 150 142 54 22
72 37 135 110 95 111 172 172 250 199 73 24 115 21 170 -15z m167 -829 c21
-25 -11 -163 -67 -300 -137 -328 -501 -554 -924 -572 -513 -22 -932 259 -1064
713 -24 84 -32 154 -18 167 3 4 469 7 1033 7 903 0 1029 -2 1040 -15z"/>
</g>
</svg>
