<?xml version="1.0" standalone="no"?>
<!DOCTYPE svg PUBLIC "-//W3C//DTD SVG 20010904//EN"
 "http://www.w3.org/TR/2001/REC-SVG-20010904/DTD/svg10.dtd">
<svg version="1.0" xmlns="http://www.w3.org/2000/svg"
 width="148.000000pt" height="146.000000pt" viewBox="0 0 148.000000 146.000000"
 preserveAspectRatio="xMidYMid meet">
<metadata>
Created by potrace 1.16, written by Peter Selinger 2001-2019
</metadata>
<g transform="translate(0.000000,146.000000) scale(0.100000,-0.100000)"
fill="#000000" stroke="none">
<path d="M542 1440 c-125 -33 -225 -92 -328 -195 -78 -78 -98 -104 -137 -185
-55 -115 -77 -209 -77 -328 0 -317 210 -600 518 -699 114 -37 278 -43 392 -14
270 67 474 266 546 531 24 88 24 271 1 360 -70 263 -271 463 -532 530 -105 27
-280 27 -383 0z m372 -50 c238 -61 427 -249 492 -490 23 -86 23 -252 0 -340
-59 -217 -234 -402 -451 -476 -103 -35 -246 -43 -355 -20 -168 35 -350 159
-438 299 -224 356 -102 794 276 986 121 61 328 79 476 41z"/>
<path d="M826 792 c-121 -136 -223 -247 -227 -247 -4 0 -51 47 -104 105 -53
58 -104 105 -113 105 -40 0 -19 -39 83 -149 109 -118 119 -126 147 -118 9 2
118 118 243 258 218 245 246 284 205 291 -9 2 -107 -101 -234 -245z"/>
</g>
</svg>
