<?xml version="1.0" standalone="no"?>
<!DOCTYPE svg PUBLIC "-//W3C//DTD SVG 20010904//EN"
 "http://www.w3.org/TR/2001/REC-SVG-20010904/DTD/svg10.dtd">
<svg version="1.0" xmlns="http://www.w3.org/2000/svg"
 width="245.000000pt" height="243.000000pt" viewBox="0 0 245.000000 243.000000"
 preserveAspectRatio="xMidYMid meet">
<metadata>
Created by potrace 1.16, written by Peter Selinger 2001-2019
</metadata>
<g transform="translate(0.000000,243.000000) scale(0.100000,-0.100000)"
fill="#000000" stroke="none">
<path d="M980 2415 c-346 -77 -604 -312 -690 -630 -6 -22 -15 -99 -20 -172 -5
-72 -15 -146 -23 -165 -8 -18 -58 -107 -112 -197 -118 -199 -138 -242 -130
-281 13 -57 58 -86 168 -105 l37 -6 0 -148 c0 -175 13 -229 72 -296 67 -76
107 -89 301 -95 132 -5 170 -9 177 -20 6 -8 10 -74 10 -146 0 -133 6 -154 41
-154 37 0 41 23 34 177 l-8 148 -32 32 -33 33 -144 0 c-175 0 -227 13 -281 68
-56 57 -67 106 -67 297 0 118 -3 165 -12 173 -7 5 -46 12 -85 14 -75 5 -103
18 -103 47 0 9 52 105 115 214 62 108 121 217 130 242 8 25 15 76 15 114 0 91
25 229 55 302 93 229 323 416 587 476 129 29 421 19 486 -16 10 -6 -1 -17 -36
-39 -65 -42 -159 -142 -204 -217 -76 -126 -108 -276 -89 -413 39 -280 251
-511 521 -568 88 -19 241 -14 308 9 24 9 42 11 42 5 0 -20 -61 -124 -122 -208
-76 -105 -105 -163 -118 -231 -6 -28 -10 -183 -10 -344 0 -250 2 -294 15 -305
12 -10 21 -10 40 -2 l25 12 0 314 c0 252 3 322 15 356 8 23 49 90 91 148 69
97 164 268 164 297 0 6 25 29 55 50 69 47 156 140 195 208 17 29 42 88 57 132
22 67 27 99 27 195 1 101 -2 126 -28 203 -105 322 -432 518 -754 453 -71 -14
-86 -15 -109 -3 -16 8 -57 22 -93 32 -90 24 -388 30 -480 10z m939 -120 c107
-26 188 -72 272 -155 187 -184 232 -447 116 -680 -43 -88 -159 -204 -247 -247
-234 -116 -492 -73 -677 112 -232 232 -230 581 6 816 144 143 337 199 530 154z"/>
<path d="M1716 2076 c-85 -32 -143 -101 -152 -182 -6 -47 -5 -52 15 -59 27 -8
48 8 56 44 29 135 181 175 268 71 69 -81 37 -176 -81 -241 -53 -29 -72 -62
-72 -128 0 -47 17 -81 40 -81 22 0 40 34 40 76 0 42 2 46 53 78 64 42 92 70
112 118 19 46 20 128 2 171 -46 109 -178 171 -281 133z"/>
<path d="M1761 1396 c-7 -8 -11 -25 -9 -38 2 -18 9 -23 32 -23 36 0 56 27 40
53 -14 22 -48 27 -63 8z"/>
</g>
</svg>
