<?xml version="1.0" standalone="no"?>
<!DOCTYPE svg PUBLIC "-//W3C//DTD SVG 20010904//EN"
 "http://www.w3.org/TR/2001/REC-SVG-20010904/DTD/svg10.dtd">
<svg version="1.0" xmlns="http://www.w3.org/2000/svg"
 width="170.000000pt" height="224.000000pt" viewBox="0 0 170.000000 224.000000"
 preserveAspectRatio="xMidYMid meet">
<metadata>
Created by potrace 1.16, written by Peter Selinger 2001-2019
</metadata>
<g transform="translate(0.000000,224.000000) scale(0.100000,-0.100000)"
fill="#000000" stroke="none">
<path d="M295 2231 c-27 -6 -30 -9 -27 -41 14 -140 125 -291 266 -362 74 -37
200 -61 277 -53 l56 7 -5 -30 c-4 -29 -4 -29 -85 -35 -149 -11 -270 -53 -396
-137 -159 -107 -275 -259 -339 -446 -34 -98 -45 -186 -40 -317 4 -104 10 -136
38 -219 102 -304 354 -525 665 -583 347 -66 721 120 898 446 65 119 90 216 94
374 7 201 -29 339 -126 488 -135 207 -330 338 -570 384 l-92 18 6 35 c11 66
76 181 134 239 31 31 70 66 86 78 23 16 27 24 18 33 -7 8 -22 10 -39 6 -41
-11 -156 -132 -191 -203 l-30 -61 -13 41 c-34 117 -134 238 -241 292 -91 47
-245 67 -344 46z m231 -55 c150 -40 272 -160 312 -308 l10 -37 -45 -7 c-95
-14 -252 34 -332 101 -77 66 -162 211 -147 252 7 18 134 17 202 -1z m322 -548
c-2 -35 0 -43 16 -46 24 -5 36 14 36 57 l0 34 57 -7 c99 -12 236 -64 332 -127
427 -282 491 -878 132 -1239 -132 -132 -269 -204 -453 -236 -346 -60 -706 140
-854 475 -91 204 -85 469 16 676 128 266 399 450 668 454 l53 1 -3 -42z"/>
<path d="M1160 596 c-27 -33 18 -72 48 -42 13 13 14 20 6 34 -15 23 -38 26
-54 8z"/>
<path d="M954 406 c-10 -25 0 -51 20 -54 27 -6 48 25 35 49 -12 22 -47 25 -55
5z"/>
<path d="M1202 378 c-17 -17 -15 -55 4 -62 25 -10 33 -7 44 15 9 16 8 25 -6
40 -20 22 -26 23 -42 7z"/>
</g>
</svg>
