<?xml version="1.0" standalone="no"?>
<!DOCTYPE svg PUBLIC "-//W3C//DTD SVG 20010904//EN"
 "http://www.w3.org/TR/2001/REC-SVG-20010904/DTD/svg10.dtd">
<svg version="1.0" xmlns="http://www.w3.org/2000/svg"
 width="191.000000pt" height="194.000000pt" viewBox="0 0 191.000000 194.000000"
 preserveAspectRatio="xMidYMid meet">
<metadata>
Created by potrace 1.16, written by Peter Selinger 2001-2019
</metadata>
<g transform="translate(0.000000,194.000000) scale(0.100000,-0.100000)"
fill="#000000" stroke="none">
<path d="M397 1934 c-4 -4 -7 -47 -7 -95 l0 -88 -147 -3 c-134 -3 -151 -5
-179 -25 -67 -48 -64 -11 -64 -851 l0 -759 22 -33 c13 -18 36 -43 51 -54 28
-21 32 -21 882 -21 l853 0 39 31 c22 18 43 47 51 69 10 29 12 203 10 791 -3
746 -3 753 -24 781 -11 15 -36 38 -54 51 -30 20 -44 22 -171 22 l-138 0 -3 93
c-3 87 -4 92 -26 95 -29 4 -34 -11 -36 -106 l-1 -77 -502 -3 -502 -2 -3 92
c-3 85 -5 93 -23 96 -12 2 -24 0 -28 -4z m-7 -311 c-2 -98 -3 -95 28 -91 27 3
27 4 30 81 l3 77 504 0 504 0 3 -77 c3 -76 4 -78 28 -78 24 0 25 2 28 78 l3
77 135 0 136 0 29 -29 29 -29 0 -146 0 -146 -895 0 -895 0 0 146 0 146 29 29
29 29 137 0 136 0 -1 -67z m1460 -917 l0 -585 -24 -28 -24 -28 -842 -3 -841
-2 -30 29 -29 29 0 586 0 586 895 0 895 0 0 -584z"/>
<path d="M608 1005 c-70 -47 -98 -71 -98 -85 0 -38 29 -34 100 14 l70 46 2
-348 3 -347 25 0 25 0 0 390 c0 338 -2 390 -15 393 -8 1 -59 -27 -112 -63z"/>
<path d="M944 1055 c-4 -8 -4 -22 0 -30 4 -13 35 -15 190 -15 l184 0 -134
-346 c-74 -191 -134 -352 -134 -359 0 -18 24 -35 37 -27 12 8 42 81 198 485
59 153 104 285 101 293 -8 22 -434 21 -442 -1z"/>
</g>
</svg>
