<?xml version="1.0" standalone="no"?>
<!DOCTYPE svg PUBLIC "-//W3C//DTD SVG 20010904//EN"
 "http://www.w3.org/TR/2001/REC-SVG-20010904/DTD/svg10.dtd">
<svg version="1.0" xmlns="http://www.w3.org/2000/svg"
 width="184.000000pt" height="179.000000pt" viewBox="0 0 184.000000 179.000000"
 preserveAspectRatio="xMidYMid meet">
<metadata>
Created by potrace 1.16, written by Peter Selinger 2001-2019
</metadata>
<g transform="translate(0.000000,179.000000) scale(0.100000,-0.100000)"
fill="#000000" stroke="none">
<path d="M800 1783 c-281 -47 -526 -239 -612 -481 -18 -49 -20 -78 -19 -203
l2 -146 -28 -6 c-40 -8 -79 -41 -111 -95 -23 -40 -27 -58 -27 -122 0 -62 5
-85 29 -133 28 -59 72 -97 109 -97 10 0 29 12 42 26 23 25 25 25 31 8 51 -149
99 -228 196 -325 61 -62 94 -86 170 -123 129 -64 199 -80 338 -80 201 0 359
60 497 187 82 76 175 212 203 300 11 35 13 36 33 22 50 -35 112 -3 153 80 23
48 28 70 27 134 -1 120 -49 201 -130 217 l-28 5 3 129 c3 93 -1 146 -12 192
-60 238 -261 425 -533 494 -75 19 -119 24 -202 23 -58 -1 -117 -4 -131 -6z
m476 -515 c72 -76 130 -151 209 -267 110 -163 118 -186 112 -296 -17 -276
-209 -525 -471 -612 -113 -37 -285 -39 -396 -5 -119 38 -207 89 -285 167 -119
119 -190 274 -202 441 -5 76 -4 83 16 93 16 9 21 21 21 50 0 54 36 166 72 227
l30 51 142 6 c246 11 447 58 606 141 47 24 90 45 95 45 6 1 29 -18 51 -41z
m-1110 -389 c3 -6 10 -63 15 -127 5 -63 11 -123 14 -134 4 -12 1 -18 -8 -18
-8 0 -21 -10 -29 -21 -12 -18 -17 -20 -35 -11 -25 14 -62 85 -70 135 -8 49 22
131 58 162 34 28 44 30 55 14z m1551 -4 c56 -40 70 -194 23 -269 -23 -38 -38
-43 -69 -24 -18 11 -19 22 -15 137 7 181 11 191 61 156z"/>
<path d="M565 815 c-14 -13 -25 -33 -25 -45 0 -26 43 -70 68 -70 26 0 62 42
62 73 0 30 -35 67 -62 67 -11 0 -30 -11 -43 -25z m55 -45 c0 -11 -4 -20 -9
-20 -14 0 -23 18 -16 30 10 17 25 11 25 -10z"/>
<path d="M1200 820 c-27 -27 -25 -66 5 -95 29 -30 58 -32 85 -5 41 41 12 120
-45 120 -14 0 -34 -9 -45 -20z m56 -41 c10 -17 -13 -36 -27 -22 -12 12 -4 33
11 33 5 0 12 -5 16 -11z"/>
<path d="M744 405 c-10 -26 4 -43 57 -71 95 -48 226 -40 287 17 50 46 13 73
-54 40 -63 -30 -146 -29 -208 4 -54 29 -74 31 -82 10z"/>
</g>
</svg>
