<?xml version="1.0" standalone="no"?>
<!DOCTYPE svg PUBLIC "-//W3C//DTD SVG 20010904//EN"
 "http://www.w3.org/TR/2001/REC-SVG-20010904/DTD/svg10.dtd">
<svg version="1.0" xmlns="http://www.w3.org/2000/svg"
 width="204.000000pt" height="212.000000pt" viewBox="0 0 204.000000 212.000000"
 preserveAspectRatio="xMidYMid meet">
<metadata>
Created by potrace 1.16, written by Peter Selinger 2001-2019
</metadata>
<g transform="translate(0.000000,212.000000) scale(0.100000,-0.100000)"
fill="#000000" stroke="none">
<path d="M582 2109 c-289 -48 -508 -262 -568 -556 -12 -56 -15 -110 -12 -197
8 -191 58 -322 209 -547 93 -140 102 -170 88 -294 -13 -113 -31 -186 -75 -299
-40 -103 -40 -106 -15 -106 15 0 28 22 59 102 51 132 74 237 76 348 l1 88 52
22 c62 26 143 109 187 191 16 29 30 55 30 56 1 1 24 -4 51 -12 67 -21 95 -20
95 4 0 15 -10 21 -42 26 -125 21 -205 117 -196 238 6 78 43 117 115 124 57 6
136 -23 174 -63 31 -33 49 -30 90 14 69 72 109 155 124 257 7 54 17 65 53 65
41 0 172 49 228 85 l55 35 21 -47 c27 -60 35 -168 18 -238 -7 -29 -10 -68 -6
-87 9 -48 70 -147 138 -223 32 -36 58 -70 58 -75 0 -17 -45 -40 -91 -46 -69
-9 -77 -16 -61 -56 27 -66 27 -64 -35 -92 -102 -46 -108 -50 -111 -78 -4 -31
31 -62 89 -80 45 -13 47 -18 19 -43 -15 -13 -20 -31 -20 -67 0 -110 -47 -137
-206 -118 -213 25 -222 25 -233 -1 -5 -13 -22 -113 -37 -221 -22 -154 -25
-201 -16 -210 7 -7 15 -8 21 -2 8 9 61 338 61 381 0 12 5 25 10 28 6 4 67 -1
137 -10 226 -31 303 3 303 133 0 39 5 53 25 72 41 38 30 60 -50 98 l-70 34 85
41 c83 41 85 43 84 77 0 19 -4 43 -8 53 -6 13 -4 17 10 17 36 0 95 21 115 41
37 37 25 77 -47 154 -37 40 -80 100 -100 142 l-36 71 18 76 c20 88 13 150 -30
257 -22 55 -24 67 -14 105 38 141 -148 292 -412 334 -77 12 -333 11 -408 -1z
m473 -53 c192 -53 328 -168 310 -262 -3 -18 -17 -47 -31 -64 -35 -41 -153 -97
-244 -116 -41 -8 -80 -20 -86 -27 -6 -7 -17 -44 -23 -84 -15 -85 -57 -177 -99
-217 l-30 -28 -34 26 c-93 71 -218 76 -286 13 -83 -77 -73 -225 20 -324 l30
-31 -28 -54 c-35 -65 -138 -171 -181 -186 l-32 -11 -79 117 c-107 159 -145
231 -184 342 -31 90 -32 103 -32 235 0 155 14 226 65 329 94 189 249 305 469
352 91 19 392 12 475 -10z"/>
<path d="M1830 987 c-115 -36 -165 -57 -165 -67 0 -8 7 -16 15 -17 8 -2 92 21
185 50 121 37 170 57 170 67 0 26 -36 20 -205 -33z"/>
<path d="M1673 714 c-3 -9 -1 -19 5 -23 21 -13 325 -32 336 -21 21 21 -14 32
-125 41 -63 5 -135 11 -162 14 -38 5 -49 3 -54 -11z"/>
<path d="M1630 516 c0 -17 271 -184 288 -178 31 10 1 37 -122 111 -133 81
-166 94 -166 67z"/>
</g>
</svg>
