<?xml version="1.0" standalone="no"?>
<!DOCTYPE svg PUBLIC "-//W3C//DTD SVG 20010904//EN"
 "http://www.w3.org/TR/2001/REC-SVG-20010904/DTD/svg10.dtd">
<svg version="1.0" xmlns="http://www.w3.org/2000/svg"
 width="206.000000pt" height="129.000000pt" viewBox="0 0 206.000000 129.000000"
 preserveAspectRatio="xMidYMid meet">
<metadata>
Created by potrace 1.16, written by Peter Selinger 2001-2019
</metadata>
<g transform="translate(0.000000,129.000000) scale(0.100000,-0.100000)"
fill="#000000" stroke="none">
<path d="M538 1279 c-134 -18 -265 -86 -364 -191 -124 -131 -174 -258 -174
-443 0 -129 15 -199 66 -302 62 -125 191 -243 329 -300 174 -73 409 -52 576
52 l59 36 67 -40 c100 -58 180 -82 303 -88 127 -6 210 11 320 65 148 73 281
241 325 412 24 93 17 281 -14 370 -55 159 -179 300 -324 369 -103 49 -169 65
-277 65 -127 0 -240 -33 -351 -105 l-47 -29 -53 35 c-120 79 -286 115 -441 94z
m245 -54 c56 -14 165 -63 200 -90 17 -12 16 -15 -18 -51 -227 -245 -229 -622
-5 -876 l40 -46 -36 -22 c-109 -68 -215 -100 -331 -100 -99 0 -164 15 -258 60
-97 47 -179 118 -238 208 -67 100 -90 175 -95 312 -7 197 37 309 173 446 83
84 161 131 261 159 67 18 236 18 307 0z m797 0 c201 -53 370 -226 425 -435 20
-74 18 -229 -3 -310 -66 -252 -308 -439 -569 -440 -97 0 -163 15 -258 59 -113
53 -113 54 -54 126 100 120 154 268 153 420 -2 159 -59 314 -156 421 -50 54
-51 57 -33 71 31 24 141 74 193 88 65 18 234 18 302 0z m-406 -318 c42 -90 56
-154 56 -265 0 -148 -45 -272 -142 -392 l-52 -64 -47 53 c-56 62 -110 161
-135 246 -21 70 -23 222 -5 299 20 84 75 188 131 250 l54 59 53 -57 c29 -32
67 -88 87 -129z"/>
</g>
</svg>
