<?xml version="1.0" standalone="no"?>
<!DOCTYPE svg PUBLIC "-//W3C//DTD SVG 20010904//EN"
 "http://www.w3.org/TR/2001/REC-SVG-20010904/DTD/svg10.dtd">
<svg version="1.0" xmlns="http://www.w3.org/2000/svg"
 width="172.000000pt" height="196.000000pt" viewBox="0 0 172.000000 196.000000"
 preserveAspectRatio="xMidYMid meet">
<metadata>
Created by potrace 1.16, written by Peter Selinger 2001-2019
</metadata>
<g transform="translate(0.000000,196.000000) scale(0.100000,-0.100000)"
fill="#000000" stroke="none">
<path d="M880 1944 c-92 -19 -233 -93 -307 -159 -34 -31 -95 -97 -134 -148
-40 -51 -98 -119 -130 -152 -139 -144 -222 -291 -280 -495 -21 -75 -24 -105
-24 -255 0 -197 11 -252 77 -385 55 -110 169 -228 273 -282 110 -57 188 -71
357 -66 129 4 151 8 225 36 249 93 513 357 658 656 94 195 131 360 122 551 -7
142 -30 235 -85 349 -120 244 -318 367 -592 365 -52 0 -124 -7 -160 -15z m334
-50 c154 -40 298 -161 373 -314 60 -123 74 -183 80 -350 4 -122 2 -160 -16
-238 -79 -360 -362 -738 -656 -878 -111 -53 -183 -68 -325 -67 -107 0 -137 4
-205 26 -393 129 -539 628 -319 1096 52 111 114 200 209 301 39 41 95 105 123
142 118 151 243 241 384 278 94 24 265 26 352 4z"/>
<path d="M1027 1723 c-16 -15 -5 -35 28 -49 48 -20 75 -18 75 5 0 14 -13 24
-47 35 -54 19 -48 18 -56 9z"/>
<path d="M610 1402 c0 -19 84 -57 101 -46 20 12 7 36 -26 50 -47 19 -75 18
-75 -4z"/>
<path d="M1235 1231 c-10 -18 10 -36 55 -50 43 -13 60 -9 60 15 0 24 -102 55
-115 35z"/>
<path d="M304 939 c-8 -14 3 -24 45 -38 50 -16 71 -14 71 8 0 31 -99 57 -116
30z"/>
<path d="M1016 701 c-11 -17 2 -30 44 -42 40 -12 70 -7 70 11 0 21 -103 49
-114 31z"/>
<path d="M487 393 c-23 -22 32 -63 84 -63 36 0 22 37 -21 54 -45 18 -54 19
-63 9z"/>
</g>
</svg>
