<?xml version="1.0" standalone="no"?>
<!DOCTYPE svg PUBLIC "-//W3C//DTD SVG 20010904//EN"
 "http://www.w3.org/TR/2001/REC-SVG-20010904/DTD/svg10.dtd">
<svg version="1.0" xmlns="http://www.w3.org/2000/svg"
 width="234.000000pt" height="226.000000pt" viewBox="0 0 234.000000 226.000000"
 preserveAspectRatio="xMidYMid meet">
<metadata>
Created by potrace 1.16, written by Peter Selinger 2001-2019
</metadata>
<g transform="translate(0.000000,226.000000) scale(0.100000,-0.100000)"
fill="#000000" stroke="none">
<path d="M1132 2248 c-5 -7 -68 -139 -140 -293 -196 -423 -191 -414 -227 -420
-16 -3 -181 -23 -365 -45 -364 -45 -363 -44 -385 -66 -35 -36 -20 -65 93 -175
88 -86 440 -418 450 -425 1 -1 -16 -107 -38 -235 -22 -129 -52 -305 -67 -391
-27 -153 -27 -157 -9 -177 11 -12 28 -21 39 -21 11 0 171 84 355 187 l335 187
61 -34 c34 -18 183 -102 333 -186 149 -85 281 -154 292 -154 36 0 64 37 57 74
-4 17 -36 191 -72 386 l-65 355 178 170 c405 386 405 386 365 435 -17 21 -45
26 -364 66 -190 23 -360 44 -378 46 l-33 3 -164 350 c-90 193 -171 356 -180
363 -9 6 -27 12 -39 12 -12 0 -26 -6 -32 -12z m89 -115 c22 -49 97 -207 166
-353 68 -146 128 -268 132 -273 7 -7 138 -25 536 -72 211 -26 245 -34 245 -59
0 -9 -266 -266 -493 -476 l-70 -66 22 -129 c29 -163 110 -602 118 -632 3 -15
0 -25 -10 -28 -8 -4 -159 76 -352 184 l-338 190 -31 -16 c-17 -8 -171 -94
-342 -189 -171 -96 -316 -174 -323 -174 -6 0 -11 7 -11 16 0 9 27 167 59 352
33 186 62 357 66 382 l7 46 -281 264 c-267 250 -304 292 -269 305 7 2 87 13
178 25 91 11 259 31 374 45 114 14 212 28 217 30 4 3 19 29 32 58 14 28 75
160 137 292 62 132 125 268 140 303 16 34 33 62 39 62 5 0 29 -39 52 -87z"/>
<path d="M1089 1487 c-96 -36 -156 -103 -179 -198 -24 -98 13 -205 97 -278 54
-48 108 -64 181 -55 76 9 119 28 166 72 107 102 115 255 20 379 -54 71 -199
112 -285 80z m170 -41 c53 -27 106 -83 127 -132 21 -50 18 -137 -7 -189 -26
-55 -94 -118 -146 -133 -46 -13 -115 -6 -165 19 -96 48 -152 187 -116 290 30
87 89 142 170 158 69 14 86 12 137 -13z"/>
<path d="M1010 869 c-100 -15 -189 -58 -247 -121 -51 -54 -67 -113 -67 -253
-1 -109 1 -130 14 -130 12 0 16 23 20 125 6 137 17 173 70 234 76 86 170 116
370 116 200 0 294 -30 370 -116 53 -61 64 -97 70 -234 4 -102 8 -125 20 -125
13 0 15 21 15 130 0 122 -2 133 -28 187 -67 136 -214 199 -457 197 -52 -1
-120 -5 -150 -10z"/>
</g>
</svg>
