<?xml version="1.0" standalone="no"?>
<!DOCTYPE svg PUBLIC "-//W3C//DTD SVG 20010904//EN"
 "http://www.w3.org/TR/2001/REC-SVG-20010904/DTD/svg10.dtd">
<svg version="1.0" xmlns="http://www.w3.org/2000/svg"
 width="116.000000pt" height="174.000000pt" viewBox="0 0 116.000000 174.000000"
 preserveAspectRatio="xMidYMid meet">
<metadata>
Created by potrace 1.16, written by Peter Selinger 2001-2019
</metadata>
<g transform="translate(0.000000,174.000000) scale(0.100000,-0.100000)"
fill="#000000" stroke="none">
<path d="M436 1724 c-150 -36 -289 -148 -364 -292 -95 -183 -95 -352 2 -547
87 -174 495 -877 513 -882 6 -2 26 24 45 59 19 35 72 128 119 208 171 289 361
641 381 702 28 88 35 234 14 322 -35 150 -153 305 -283 374 -126 66 -293 88
-427 56z m269 -39 c201 -51 350 -202 401 -405 21 -81 14 -220 -14 -300 -11
-30 -62 -131 -114 -225 -179 -320 -320 -570 -355 -628 l-35 -58 -27 43 c-47
74 -402 699 -448 788 -91 176 -94 332 -12 499 71 145 206 254 352 286 84 18
180 18 252 0z"/>
<path d="M525 1431 c-91 -25 -161 -84 -195 -163 -31 -72 -25 -176 14 -242 91
-155 321 -178 442 -44 49 55 67 101 67 178 1 72 -21 133 -67 187 -53 62 -184
105 -261 84z m142 -56 c94 -39 146 -116 146 -215 1 -237 -331 -311 -437 -98
-59 118 -11 253 109 309 49 23 133 24 182 4z"/>
</g>
</svg>
