<?xml version="1.0" standalone="no"?>
<!DOCTYPE svg PUBLIC "-//W3C//DTD SVG 20010904//EN"
 "http://www.w3.org/TR/2001/REC-SVG-20010904/DTD/svg10.dtd">
<svg version="1.0" xmlns="http://www.w3.org/2000/svg"
 width="126.000000pt" height="214.000000pt" viewBox="0 0 126.000000 214.000000"
 preserveAspectRatio="xMidYMid meet">
<metadata>
Created by potrace 1.16, written by Peter Selinger 2001-2019
</metadata>
<g transform="translate(0.000000,214.000000) scale(0.100000,-0.100000)"
fill="#000000" stroke="none">
<path d="M562 2129 c-60 -10 -135 -45 -206 -97 -162 -119 -297 -403 -342 -720
-22 -161 -14 -464 16 -607 71 -332 221 -571 419 -668 62 -30 72 -32 176 -32
106 0 113 1 185 36 208 99 357 342 427 694 25 127 25 519 0 652 -41 217 -117
405 -216 535 -82 108 -201 186 -316 207 -65 12 -69 12 -143 0z m201 -59 c274
-103 457 -507 457 -1010 0 -276 -58 -535 -161 -716 -61 -109 -173 -220 -264
-265 -64 -31 -77 -34 -165 -34 -86 0 -101 3 -160 31 -154 74 -274 234 -355
477 -56 169 -69 264 -70 502 0 221 8 290 51 452 115 433 391 666 667 563z"/>
</g>
</svg>
