<?xml version="1.0" standalone="no"?>
<!DOCTYPE svg PUBLIC "-//W3C//DTD SVG 20010904//EN"
 "http://www.w3.org/TR/2001/REC-SVG-20010904/DTD/svg10.dtd">
<svg version="1.0" xmlns="http://www.w3.org/2000/svg"
 width="190.000000pt" height="192.000000pt" viewBox="0 0 190.000000 192.000000"
 preserveAspectRatio="xMidYMid meet">
<metadata>
Created by potrace 1.16, written by Peter Selinger 2001-2019
</metadata>
<g transform="translate(0.000000,192.000000) scale(0.100000,-0.100000)"
fill="#000000" stroke="none">
<path d="M561 1904 c-92 -33 -171 -95 -221 -174 -71 -112 -80 -279 -23 -403
78 -166 279 -272 455 -239 86 16 180 63 232 117 194 199 124 557 -131 678 -61
28 -79 32 -168 34 -72 2 -113 -2 -144 -13z m227 -38 c227 -61 347 -328 243
-540 -119 -242 -471 -263 -636 -38 -134 183 -74 446 125 547 90 45 175 55 268
31z"/>
<path d="M1340 1337 c-91 -26 -165 -90 -203 -176 -25 -57 -27 -160 -3 -215 9
-21 16 -40 16 -42 0 -2 -16 7 -35 20 -92 63 -274 92 -510 83 -167 -7 -231 -25
-342 -100 -129 -86 -219 -215 -249 -355 -15 -74 -20 -517 -6 -540 7 -10 203
-12 948 -10 l939 3 3 184 c3 243 -15 309 -115 406 -84 82 -187 115 -363 115
l-125 0 -17 40 c-19 46 -18 46 25 23 51 -27 179 -23 242 7 63 31 121 89 148
149 32 69 30 179 -5 246 -68 130 -217 199 -348 162z m175 -61 c122 -56 187
-201 140 -312 -53 -128 -186 -192 -317 -152 -49 15 -123 78 -149 129 -104 205
117 433 326 335z m-591 -331 c126 -24 233 -89 288 -174 15 -25 28 -50 28 -56
0 -6 -17 -17 -37 -24 -91 -33 -182 -110 -222 -189 -40 -78 -52 -144 -57 -302
l-5 -155 -434 -3 -435 -2 0 233 c0 177 4 247 15 292 46 175 201 332 376 379
75 20 381 21 483 1z m738 -323 c81 -39 139 -102 169 -181 18 -47 23 -83 27
-229 l5 -172 -447 0 -446 0 0 118 c0 219 33 326 127 412 87 79 127 90 328 87
171 -2 171 -2 237 -35z"/>
</g>
</svg>
