<?xml version="1.0" standalone="no"?>
<!DOCTYPE svg PUBLIC "-//W3C//DTD SVG 20010904//EN"
 "http://www.w3.org/TR/2001/REC-SVG-20010904/DTD/svg10.dtd">
<svg version="1.0" xmlns="http://www.w3.org/2000/svg"
 width="180.000000pt" height="172.000000pt" viewBox="0 0 180.000000 172.000000"
 preserveAspectRatio="xMidYMid meet">
<metadata>
Created by potrace 1.16, written by Peter Selinger 2001-2019
</metadata>
<g transform="translate(0.000000,172.000000) scale(0.100000,-0.100000)"
fill="#000000" stroke="none">
<path d="M143 1699 c-49 -24 -98 -76 -122 -128 -14 -32 -16 -109 -16 -706 0
-741 -3 -701 65 -779 18 -20 52 -47 74 -59 l41 -22 720 0 c661 0 723 1 751 17
52 29 94 68 117 112 l22 41 0 685 0 685 -22 41 c-28 53 -91 107 -142 122 -27
9 -237 12 -742 12 -694 0 -705 0 -746 -21z m1492 -38 c51 -23 101 -80 115
-130 7 -27 10 -252 8 -693 -3 -632 -4 -654 -23 -687 -11 -19 -37 -48 -58 -65
l-39 -31 -706 -3 c-389 -2 -722 0 -740 3 -41 8 -97 56 -125 109 l-22 41 0 660
c0 657 0 660 22 700 26 49 57 79 103 99 30 13 132 15 730 15 651 1 698 -1 735
-18z"/>
<path d="M1090 906 l-322 -375 -185 177 c-101 97 -189 177 -196 177 -38 0 0
-47 177 -218 108 -103 200 -187 205 -187 14 0 663 759 665 777 0 9 -4 18 -11
20 -6 2 -156 -165 -333 -371z"/>
</g>
</svg>
