<?xml version="1.0" standalone="no"?>
<!DOCTYPE svg PUBLIC "-//W3C//DTD SVG 20010904//EN"
 "http://www.w3.org/TR/2001/REC-SVG-20010904/DTD/svg10.dtd">
<svg version="1.0" xmlns="http://www.w3.org/2000/svg"
 width="134.000000pt" height="179.000000pt" viewBox="0 0 134.000000 179.000000"
 preserveAspectRatio="xMidYMid meet">
<metadata>
Created by potrace 1.16, written by Peter Selinger 2001-2019
</metadata>
<g transform="translate(0.000000,179.000000) scale(0.100000,-0.100000)"
fill="#000000" stroke="none">
<path d="M475 1776 c-16 -7 -45 -26 -64 -42 -30 -25 -42 -28 -105 -29 -95 0
-153 -33 -197 -111 -17 -29 -36 -54 -43 -54 -7 0 -23 -12 -37 -26 -32 -34 -33
-100 -2 -142 l22 -30 -10 -616 c-10 -683 -12 -666 53 -706 32 -19 49 -20 416
-20 423 0 424 0 462 63 16 25 20 50 20 118 l0 86 75 6 c91 8 158 39 207 97 62
72 68 108 68 414 0 168 -4 286 -11 311 -15 52 -82 119 -134 134 -22 6 -82 11
-132 11 l-93 0 0 66 c0 51 5 73 21 96 44 61 34 173 -22 241 -40 49 -103 77
-171 77 -40 0 -59 5 -69 17 -40 47 -184 70 -254 39z m180 -45 c22 -10 46 -25
54 -34 10 -12 29 -17 69 -17 105 0 183 -62 198 -156 7 -48 -15 -104 -49 -127
-18 -11 -105 -16 -434 -21 l-411 -8 -17 25 c-9 15 -15 40 -13 59 2 26 10 37
37 50 21 11 40 31 51 55 20 45 70 90 108 99 15 3 32 7 38 9 6 2 32 -1 59 -6
47 -9 49 -8 81 26 59 64 149 83 229 46z m275 -496 l0 -105 -397 0 c-219 0
-408 -3 -420 -6 -23 -6 -23 -5 -23 100 l0 106 368 3 c202 1 391 3 420 5 l52 2
0 -105z m290 -68 c19 -12 43 -38 54 -57 19 -32 21 -54 24 -293 2 -166 -1 -277
-8 -313 -23 -110 -105 -177 -232 -189 l-68 -7 0 51 0 51 38 0 c53 1 118 33
142 72 19 31 20 50 20 301 l0 268 -25 24 c-22 23 -32 25 -107 25 l-83 0 -3 45
-2 45 108 0 c97 0 113 -3 142 -23z m-286 -339 c3 -145 7 -368 8 -497 l1 -234
-32 -29 -31 -28 -366 0 c-385 0 -411 3 -428 47 -9 22 -8 579 0 815 l7 178 291
3 c160 1 348 3 417 5 l126 2 7 -262z m200 216 c14 -13 16 -51 16 -262 0 -227
-2 -250 -20 -279 -20 -33 -79 -57 -123 -51 -22 3 -22 4 -27 301 -3 164 -3 301
-1 303 2 2 35 4 72 4 48 0 72 -5 83 -16z"/>
<path d="M705 918 c-3 -7 -4 -155 -3 -328 3 -272 5 -315 18 -315 13 0 15 43
15 324 0 251 -3 325 -12 328 -7 3 -15 -1 -18 -9z"/>
<path d="M287 903 c-9 -8 -9 -627 -1 -636 3 -3 12 -3 20 0 20 8 21 615 1 632
-8 6 -17 8 -20 4z"/>
</g>
</svg>
