<?xml version="1.0" standalone="no"?>
<!DOCTYPE svg PUBLIC "-//W3C//DTD SVG 20010904//EN"
 "http://www.w3.org/TR/2001/REC-SVG-20010904/DTD/svg10.dtd">
<svg version="1.0" xmlns="http://www.w3.org/2000/svg"
 width="179.000000pt" height="164.000000pt" viewBox="0 0 179.000000 164.000000"
 preserveAspectRatio="xMidYMid meet">
<metadata>
Created by potrace 1.16, written by Peter Selinger 2001-2019
</metadata>
<g transform="translate(0.000000,164.000000) scale(0.100000,-0.100000)"
fill="#000000" stroke="none">
<path d="M1365 1623 c-100 -36 -169 -111 -200 -217 -26 -91 -5 -206 63 -330
l28 -52 -161 -12 c-182 -13 -361 -43 -435 -72 -119 -47 -180 -116 -180 -204 0
-85 39 -147 130 -208 104 -71 129 -108 106 -163 -33 -79 -191 -154 -551 -261
-82 -25 -154 -49 -160 -55 -6 -6 -3 -15 7 -25 15 -15 26 -13 144 21 400 116
580 208 615 312 24 75 -9 131 -126 211 -137 93 -153 202 -43 282 78 57 239 91
522 110 140 10 161 9 174 -4 9 -9 14 -17 11 -19 -2 -2 -51 -11 -109 -20 -188
-29 -290 -71 -314 -129 -31 -73 12 -110 212 -182 67 -24 148 -59 182 -77 73
-38 142 -111 158 -167 28 -91 6 -211 -52 -287 -30 -38 -33 -60 -10 -69 20 -8
57 33 91 102 22 45 28 73 31 148 4 82 1 98 -20 146 -50 109 -164 188 -369 257
-118 39 -174 70 -174 96 0 45 133 94 317 116 l96 12 34 -39 c87 -101 86 -100
105 -88 30 19 145 167 197 255 130 219 139 393 25 522 -81 92 -229 131 -344
90z m217 -61 c96 -44 152 -130 153 -237 0 -85 -21 -152 -83 -263 -45 -81 -165
-243 -180 -241 -9 0 -76 85 -129 164 -129 192 -165 342 -109 452 66 131 216
185 348 125z"/>
<path d="M1434 1439 c-94 -27 -126 -155 -54 -224 23 -22 41 -29 85 -33 53 -4
56 -3 95 36 35 35 40 45 40 86 0 26 -7 60 -15 76 -25 48 -95 75 -151 59z m95
-75 c54 -69 -12 -159 -94 -128 -19 8 -45 55 -45 84 0 33 44 70 84 70 25 0 40
-7 55 -26z"/>
<path d="M697 758 c-6 -16 18 -76 40 -100 21 -24 53 -23 53 1 0 10 -7 24 -15
31 -8 7 -19 27 -23 44 -9 33 -46 49 -55 24z"/>
<path d="M942 528 c-19 -19 -15 -24 39 -59 63 -40 81 -67 79 -116 -3 -58 -1
-63 20 -63 41 0 43 104 2 159 -17 25 -106 91 -121 91 -4 0 -12 -5 -19 -12z"/>
<path d="M898 113 c-72 -54 -78 -61 -71 -80 9 -24 39 -14 107 37 69 53 73 59
54 78 -17 17 -20 16 -90 -35z"/>
</g>
</svg>
