<?xml version="1.0" standalone="no"?>
<!DOCTYPE svg PUBLIC "-//W3C//DTD SVG 20010904//EN"
 "http://www.w3.org/TR/2001/REC-SVG-20010904/DTD/svg10.dtd">
<svg version="1.0" xmlns="http://www.w3.org/2000/svg"
 width="207.000000pt" height="173.000000pt" viewBox="0 0 207.000000 173.000000"
 preserveAspectRatio="xMidYMid meet">
<metadata>
Created by potrace 1.16, written by Peter Selinger 2001-2019
</metadata>
<g transform="translate(0.000000,173.000000) scale(0.100000,-0.100000)"
fill="#000000" stroke="none">
<path d="M731 1715 c-51 -16 -107 -66 -127 -112 -8 -18 -14 -62 -14 -98 l0
-65 -237 0 c-212 0 -243 -3 -280 -19 -76 -35 -73 -7 -73 -668 0 -549 2 -591
19 -628 10 -23 33 -53 50 -68 70 -58 58 -58 987 -55 847 3 849 3 889 25 46 24
75 54 101 103 18 33 19 68 19 622 0 577 0 587 -21 614 -51 69 -51 69 -320 72
l-244 3 0 47 c0 101 -39 175 -113 215 -40 21 -53 22 -317 24 -213 2 -285 -1
-319 -12z m589 -35 c41 -11 94 -61 109 -103 6 -16 11 -53 11 -83 l0 -54 -411
0 -412 0 6 65 c9 99 40 144 114 171 46 16 527 20 583 4z m657 -300 c48 -29 55
-68 51 -276 -3 -177 -4 -181 -30 -221 -17 -25 -45 -49 -75 -64 -47 -24 -54
-24 -380 -27 l-332 -3 -3 78 -3 78 -172 3 -173 2 0 -80 0 -81 -337 3 c-326 3
-339 4 -379 25 -52 28 -90 72 -104 121 -11 41 -12 352 -1 392 4 14 22 35 40
47 l34 23 916 0 c890 0 917 -1 948 -20z m-807 -610 l0 -140 -140 0 -140 0 0
140 0 140 140 0 140 0 0 -140z m-1041 12 c46 -20 69 -22 387 -25 l339 -3 3
-82 3 -82 172 2 172 3 3 82 3 82 340 1 c375 0 384 2 447 63 l33 32 -3 -346 -3
-346 -25 -36 c-13 -20 -43 -46 -65 -59 l-40 -23 -855 0 c-470 0 -867 3 -882 7
-35 10 -85 53 -106 92 -15 27 -17 72 -20 376 l-3 345 25 -31 c14 -17 47 -41
75 -52z"/>
</g>
</svg>
