<?xml version="1.0" standalone="no"?>
<!DOCTYPE svg PUBLIC "-//W3C//DTD SVG 20010904//EN"
 "http://www.w3.org/TR/2001/REC-SVG-20010904/DTD/svg10.dtd">
<svg version="1.0" xmlns="http://www.w3.org/2000/svg"
 width="214.000000pt" height="209.000000pt" viewBox="0 0 214.000000 209.000000"
 preserveAspectRatio="xMidYMid meet">
<metadata>
Created by potrace 1.16, written by Peter Selinger 2001-2019
</metadata>
<g transform="translate(0.000000,209.000000) scale(0.100000,-0.100000)"
fill="#000000" stroke="none">
<path d="M1687 2083 c-2 -5 -10 -25 -17 -46 -15 -48 -60 -101 -100 -117 -42
-17 -38 -36 13 -58 53 -24 75 -49 91 -104 17 -56 50 -66 60 -17 9 47 51 97
102 122 24 11 44 27 44 34 0 7 -20 23 -46 34 -47 22 -86 66 -99 109 -12 41
-37 63 -48 43z m61 -224 l-38 -36 -38 37 -39 36 35 39 34 40 42 -40 41 -40
-37 -36z"/>
<path d="M271 2021 c-6 -11 -11 -26 -11 -34 0 -23 -45 -61 -87 -73 -27 -7 -39
-17 -41 -32 -3 -17 4 -23 37 -32 42 -11 91 -59 91 -90 0 -61 44 -70 59 -12 12
41 49 81 96 103 35 16 45 46 18 55 -55 17 -87 41 -107 83 -24 51 -40 61 -55
32z m49 -169 l-28 -28 -25 31 -25 32 25 25 25 25 28 -29 28 -28 -28 -28z"/>
<path d="M942 1776 c-62 -141 -112 -260 -112 -266 0 -6 -13 -34 -30 -63 -58
-104 -59 -214 -2 -320 31 -58 74 -97 145 -134 43 -22 65 -27 132 -27 95 -1
149 20 219 84 68 62 99 136 100 232 0 68 -4 85 -37 151 -20 41 -37 79 -37 85
0 9 -199 456 -219 492 -4 8 -17 16 -28 18 -17 3 -35 -33 -131 -252z m237 -51
c43 -93 78 -171 77 -172 -1 -1 -25 9 -54 24 -71 35 -175 36 -247 3 -27 -13
-54 -26 -60 -29 -5 -2 -5 2 1 10 6 8 49 99 94 203 83 187 84 189 97 160 8 -16
49 -105 92 -199z m7 -194 c54 -24 111 -76 137 -125 31 -58 31 -184 0 -242 -27
-50 -92 -110 -147 -135 -54 -24 -148 -25 -202 0 -131 59 -202 211 -160 338 51
154 223 229 372 164z"/>
<path d="M1982 1574 c-27 -19 -28 -55 -3 -78 38 -34 90 8 72 57 -5 13 -17 27
-26 31 -21 8 -17 9 -43 -10z"/>
<path d="M351 1493 c-65 -23 -136 -98 -155 -164 -20 -67 -20 -94 1 -160 36
-111 159 -191 266 -174 131 22 214 110 225 240 9 115 -68 226 -179 259 -64 20
-101 19 -158 -1z m176 -57 c73 -34 106 -87 111 -175 5 -86 -24 -143 -91 -185
-90 -55 -192 -42 -261 34 -96 107 -62 270 69 331 54 25 110 23 172 -5z"/>
<path d="M1620 1497 c-57 -18 -135 -103 -154 -166 -20 -67 -20 -84 -1 -147 33
-112 127 -185 238 -185 269 0 356 365 115 485 -57 28 -133 33 -198 13z m166
-47 c71 -27 124 -110 124 -195 0 -204 -243 -288 -367 -127 -128 167 44 395
243 322z"/>
<path d="M330 929 c-171 -30 -294 -157 -321 -329 -5 -36 -8 -137 -7 -225 l3
-160 268 -3 267 -2 0 -93 c0 -50 4 -98 8 -105 7 -10 120 -12 533 -10 l524 3 3
102 3 103 262 2 262 3 0 215 0 216 -33 66 c-42 85 -105 148 -190 190 -66 33
-68 33 -212 33 -164 0 -202 -11 -277 -79 l-40 -36 -45 20 c-152 67 -395 67
-534 -1 l-44 -21 -37 33 c-66 57 -132 81 -241 84 -53 2 -122 0 -152 -6z m1490
-45 c82 -19 137 -51 189 -110 71 -81 84 -131 89 -341 l4 -183 -245 0 -244 0
-6 117 c-11 191 -41 277 -133 373 l-54 57 23 20 c78 73 236 101 377 67z
m-1233 -9 c27 -8 69 -29 92 -46 l43 -30 -44 -47 c-24 -26 -54 -63 -66 -83 -33
-55 -61 -179 -69 -306 l-6 -113 -250 0 -250 0 6 178 c5 145 9 188 26 231 42
111 111 177 220 212 71 23 227 25 298 4z m723 -76 c91 -44 157 -101 193 -166
45 -84 56 -157 57 -383 l2 -204 -487 -2 -487 -2 4 236 c6 285 16 326 103 421
100 107 198 141 400 138 138 -2 141 -2 215 -38z"/>
</g>
</svg>
