<?xml version="1.0" standalone="no"?>
<!DOCTYPE svg PUBLIC "-//W3C//DTD SVG 20010904//EN"
 "http://www.w3.org/TR/2001/REC-SVG-20010904/DTD/svg10.dtd">
<svg version="1.0" xmlns="http://www.w3.org/2000/svg"
 width="176.000000pt" height="184.000000pt" viewBox="0 0 176.000000 184.000000"
 preserveAspectRatio="xMidYMid meet">
<metadata>
Created by potrace 1.16, written by Peter Selinger 2001-2019
</metadata>
<g transform="translate(0.000000,184.000000) scale(0.100000,-0.100000)"
fill="#000000" stroke="none">
<path d="M355 1815 c-21 -20 -25 -34 -25 -85 l0 -60 -112 0 c-127 0 -162 -13
-198 -72 -20 -32 -20 -48 -18 -768 l3 -735 22 -31 c48 -67 10 -64 861 -64
l769 0 34 23 c72 48 69 9 69 817 0 706 -1 726 -20 758 -36 59 -71 72 -197 72
l-113 0 0 60 c0 51 -4 65 -25 85 -13 14 -34 25 -45 25 -11 0 -32 -11 -45 -25
-21 -20 -25 -34 -25 -85 l0 -60 -412 0 -413 0 0 66 c0 57 -3 68 -24 85 -31 26
-57 24 -86 -6z m64 -29 c8 -9 11 -59 9 -152 -3 -127 -5 -139 -22 -142 -10 -2
-22 2 -27 10 -14 21 -11 272 3 286 16 16 23 15 37 -2z m960 0 c8 -9 11 -59 9
-152 -3 -127 -5 -139 -22 -142 -10 -2 -22 2 -27 10 -14 21 -11 272 3 286 16
16 23 15 37 -2z m-1049 -220 c0 -76 24 -116 70 -116 46 0 70 40 70 116 l0 64
410 0 410 0 0 -64 c0 -49 5 -69 21 -90 25 -32 64 -34 96 -4 20 18 23 31 23 90
l0 68 105 0 c172 0 185 -15 185 -205 l0 -125 -841 0 -841 0 4 136 3 136 33 29
c32 28 35 29 142 29 l110 0 0 -64z m1390 -882 l0 -576 -34 -34 -34 -34 -771 0
-771 0 -32 29 -33 29 -3 581 -2 581 840 0 840 0 0 -576z"/>
<path d="M1006 674 l-249 -256 -111 111 c-100 100 -146 131 -146 100 0 -14
241 -259 255 -259 17 0 537 539 530 550 -3 5 -12 10 -18 10 -7 0 -124 -115
-261 -256z"/>
</g>
</svg>
