<?xml version="1.0" standalone="no"?>
<!DOCTYPE svg PUBLIC "-//W3C//DTD SVG 20010904//EN"
 "http://www.w3.org/TR/2001/REC-SVG-20010904/DTD/svg10.dtd">
<svg version="1.0" xmlns="http://www.w3.org/2000/svg"
 width="176.000000pt" height="154.000000pt" viewBox="0 0 176.000000 154.000000"
 preserveAspectRatio="xMidYMid meet">
<metadata>
Created by potrace 1.16, written by Peter Selinger 2001-2019
</metadata>
<g transform="translate(0.000000,154.000000) scale(0.100000,-0.100000)"
fill="#000000" stroke="none">
<path d="M341 1524 c-291 -78 -420 -378 -289 -668 30 -67 55 -95 422 -463 214
-216 397 -393 406 -393 9 0 190 174 402 388 360 362 387 392 421 462 107 221
46 482 -143 608 -141 95 -318 107 -467 32 -53 -26 -131 -96 -195 -174 l-24
-28 -28 40 c-39 57 -124 136 -174 161 -97 50 -226 63 -331 35z m202 -29 c37
-8 90 -26 118 -42 52 -28 153 -128 185 -182 10 -17 24 -31 30 -31 6 0 30 25
53 55 63 83 119 133 191 168 61 30 71 32 175 32 139 -1 199 -22 285 -102 161
-148 184 -401 55 -588 -19 -27 -197 -212 -395 -410 l-360 -360 -379 380 c-360
361 -380 384 -417 459 -36 73 -39 87 -42 183 -4 89 -1 113 18 166 55 150 175
250 330 276 77 12 77 12 153 -4z"/>
</g>
</svg>
