<?xml version="1.0" standalone="no"?>
<!DOCTYPE svg PUBLIC "-//W3C//DTD SVG 20010904//EN"
 "http://www.w3.org/TR/2001/REC-SVG-20010904/DTD/svg10.dtd">
<svg version="1.0" xmlns="http://www.w3.org/2000/svg"
 width="202.000000pt" height="152.000000pt" viewBox="0 0 202.000000 152.000000"
 preserveAspectRatio="xMidYMid meet">
<metadata>
Created by potrace 1.16, written by Peter Selinger 2001-2019
</metadata>
<g transform="translate(0.000000,152.000000) scale(0.100000,-0.100000)"
fill="#000000" stroke="none">
<path d="M434 1500 c-72 -29 -137 -89 -173 -162 -27 -53 -31 -72 -31 -142 0
-69 4 -90 29 -141 30 -62 81 -118 140 -153 l34 -21 -29 -6 c-163 -37 -283
-120 -347 -242 -49 -94 -57 -153 -57 -410 0 -213 1 -223 19 -223 19 0 20 11
23 258 3 241 5 261 27 315 31 80 124 177 205 217 109 54 164 60 556 60 l355 0
-53 -31 c-62 -35 -121 -93 -156 -154 -49 -82 -56 -137 -56 -413 0 -236 1 -253
18 -250 16 3 17 27 22 278 5 272 5 276 32 332 55 118 169 204 303 229 36 7
113 9 190 6 187 -8 284 -45 379 -146 54 -58 91 -132 106 -211 5 -29 10 -151
10 -272 0 -204 1 -219 18 -216 16 3 17 23 15 253 -1 279 -8 316 -78 421 -60
91 -179 168 -302 195 l-52 12 37 19 c57 30 128 106 154 162 32 72 32 190 -1
263 -69 155 -263 233 -428 171 -65 -24 -147 -99 -176 -160 -71 -150 -24 -317
117 -420 l39 -28 -319 0 c-308 0 -318 1 -284 17 57 28 126 106 150 170 29 78
25 186 -10 258 -30 62 -94 125 -157 155 -69 33 -198 38 -269 10z m193 -24
c140 -37 222 -142 223 -281 0 -91 -29 -154 -100 -218 -186 -168 -479 -40 -484
211 -2 139 82 250 217 287 67 18 81 18 144 1z m959 -16 c64 -28 118 -83 149
-151 24 -54 27 -71 23 -129 -8 -113 -65 -196 -170 -252 -65 -34 -184 -32 -254
4 -177 93 -215 327 -74 468 37 37 92 67 145 81 42 11 133 1 181 -21z"/>
<path d="M237 433 c-4 -3 -7 -102 -7 -220 0 -206 1 -213 20 -213 19 0 20 7 20
220 0 177 -3 220 -13 220 -8 0 -17 -3 -20 -7z"/>
<path d="M1754 427 c-2 -7 -3 -105 -2 -217 3 -186 5 -205 21 -208 16 -3 17 12
17 217 0 192 -2 221 -15 221 -9 0 -18 -6 -21 -13z"/>
</g>
</svg>
