<?xml version="1.0" standalone="no"?>
<!DOCTYPE svg PUBLIC "-//W3C//DTD SVG 20010904//EN"
 "http://www.w3.org/TR/2001/REC-SVG-20010904/DTD/svg10.dtd">
<svg version="1.0" xmlns="http://www.w3.org/2000/svg"
 width="158.000000pt" height="69.000000pt" viewBox="0 0 158.000000 69.000000"
 preserveAspectRatio="xMidYMid meet">
<metadata>
Created by potrace 1.16, written by Peter Selinger 2001-2019
</metadata>
<g transform="translate(0.000000,69.000000) scale(0.100000,-0.100000)"
fill="#000000" stroke="none">
<path d="M1205 677 c-6 -14 46 -68 221 -228 45 -41 82 -76 83 -79 1 -3 -339
-4 -754 -2 -752 2 -755 2 -755 -18 0 -20 4 -20 750 -20 413 0 750 -1 750 -3 0
-2 -67 -70 -150 -152 -82 -82 -150 -155 -150 -162 0 -37 51 3 210 162 l174
174 -29 32 c-44 45 -325 303 -336 307 -5 2 -11 -3 -14 -11z"/>
</g>
</svg>
