<?xml version="1.0" standalone="no"?>
<!DOCTYPE svg PUBLIC "-//W3C//DTD SVG 20010904//EN"
 "http://www.w3.org/TR/2001/REC-SVG-20010904/DTD/svg10.dtd">
<svg version="1.0" xmlns="http://www.w3.org/2000/svg"
 width="199.000000pt" height="200.000000pt" viewBox="0 0 199.000000 200.000000"
 preserveAspectRatio="xMidYMid meet">
<metadata>
Created by potrace 1.16, written by Peter Selinger 2001-2019
</metadata>
<g transform="translate(0.000000,200.000000) scale(0.100000,-0.100000)"
fill="#000000" stroke="none">
<path d="M875 1989 c-280 -35 -541 -193 -694 -418 -123 -180 -176 -358 -174
-581 1 -111 6 -153 27 -235 87 -335 337 -603 661 -708 560 -183 1157 170 1277
753 26 126 21 336 -11 455 -26 97 -97 248 -155 329 -50 70 -180 198 -246 243
-132 90 -296 147 -468 163 -118 11 -118 11 -217 -1z m368 -68 c338 -89 605
-367 684 -713 22 -98 23 -317 1 -414 -108 -476 -563 -802 -1038 -745 -325 40
-616 254 -756 557 -63 136 -77 208 -78 394 -1 188 13 256 84 408 129 274 382
471 678 527 108 20 322 13 425 -14z"/>
<path d="M977 1783 c-9 -8 -9 -116 -1 -137 3 -9 12 -16 20 -16 11 0 14 18 14
80 0 60 -3 80 -13 80 -8 0 -17 -3 -20 -7z"/>
<path d="M580 1667 c0 -17 48 -87 60 -87 22 0 20 24 -4 61 -25 38 -56 52 -56
26z"/>
<path d="M981 1466 c-9 -11 -11 -66 -9 -195 3 -177 3 -180 -19 -190 -36 -17
-56 -56 -50 -100 5 -38 3 -40 -119 -162 -68 -68 -124 -129 -124 -136 0 -37 34
-14 154 105 102 103 134 129 146 122 39 -25 100 -3 126 45 24 44 10 92 -35
122 l-33 22 2 179 c1 143 -2 181 -13 191 -11 9 -17 8 -26 -3z m50 -426 c29
-16 25 -65 -6 -86 -51 -33 -104 21 -71 71 17 27 45 32 77 15z"/>
<path d="M305 1400 c-7 -12 72 -70 97 -70 32 0 19 28 -25 55 -47 27 -62 30
-72 15z"/>
<path d="M191 1007 c-18 -22 -2 -27 89 -27 91 0 107 5 89 27 -8 9 -36 13 -89
13 -53 0 -81 -4 -89 -13z"/>
<path d="M352 648 c-50 -29 -69 -58 -36 -58 24 0 104 50 104 65 0 25 -15 24
-68 -7z"/>
<path d="M606 386 c-28 -38 -34 -66 -12 -66 17 0 66 63 66 84 0 27 -26 18 -54
-18z"/>
<path d="M977 363 c-13 -13 -8 -140 6 -152 22 -18 27 -2 27 81 0 58 -3 78 -13
78 -8 0 -17 -3 -20 -7z"/>
</g>
</svg>
