<?xml version="1.0" standalone="no"?>
<!DOCTYPE svg PUBLIC "-//W3C//DTD SVG 20010904//EN"
 "http://www.w3.org/TR/2001/REC-SVG-20010904/DTD/svg10.dtd">
<svg version="1.0" xmlns="http://www.w3.org/2000/svg"
 width="137.000000pt" height="209.000000pt" viewBox="0 0 137.000000 209.000000"
 preserveAspectRatio="xMidYMid meet">
<metadata>
Created by potrace 1.16, written by Peter Selinger 2001-2019
</metadata>
<g transform="translate(0.000000,209.000000) scale(0.100000,-0.100000)"
fill="#000000" stroke="none">
<path d="M610 2084 c-141 -24 -225 -57 -326 -130 -118 -84 -222 -237 -258
-379 -54 -219 -18 -383 169 -760 151 -304 461 -815 497 -815 10 0 56 63 126
172 305 482 464 792 533 1043 31 113 24 296 -15 405 -80 223 -256 386 -483
444 -61 16 -200 27 -243 20z m224 -64 c120 -30 209 -82 302 -175 161 -159 223
-364 178 -583 -40 -196 -235 -592 -474 -967 -46 -72 -98 -154 -116 -183 l-32
-53 -48 73 c-316 487 -532 910 -580 1138 -69 325 139 667 456 748 73 19 81 20
161 21 46 1 106 -7 153 -19z"/>
<path d="M570 1702 c-67 -25 -162 -124 -184 -189 -71 -215 75 -424 296 -425
135 0 243 64 300 179 33 68 33 197 0 264 -33 67 -83 121 -143 154 -46 25 -67
29 -139 32 -62 2 -97 -2 -130 -15z m226 -47 c18 -7 53 -32 77 -54 142 -132
108 -365 -65 -442 -116 -51 -251 -22 -332 73 -181 212 61 532 320 423z"/>
</g>
</svg>
