<?xml version="1.0" standalone="no"?>
<!DOCTYPE svg PUBLIC "-//W3C//DTD SVG 20010904//EN"
 "http://www.w3.org/TR/2001/REC-SVG-20010904/DTD/svg10.dtd">
<svg version="1.0" xmlns="http://www.w3.org/2000/svg"
 width="195.000000pt" height="200.000000pt" viewBox="0 0 195.000000 200.000000"
 preserveAspectRatio="xMidYMid meet">
<metadata>
Created by potrace 1.16, written by Peter Selinger 2001-2019
</metadata>
<g transform="translate(0.000000,200.000000) scale(0.100000,-0.100000)"
fill="#000000" stroke="none">
<path d="M1077 1983 c-8 -10 -18 -35 -22 -55 l-7 -38 -97 0 c-228 0 -464 -89
-637 -237 -70 -60 -149 -157 -202 -248 -52 -89 -117 -254 -104 -267 6 -6 34
-1 72 12 86 29 220 30 308 2 72 -23 138 -65 147 -93 8 -25 18 -24 81 6 30 14
89 30 131 36 94 12 209 9 206 -7 -1 -6 -34 -199 -73 -430 -39 -230 -75 -436
-81 -456 -14 -55 -59 -88 -121 -88 -44 0 -54 4 -84 34 -32 32 -34 38 -34 100
0 36 -5 77 -12 91 -17 37 -55 30 -86 -15 -21 -31 -23 -44 -20 -105 10 -149 91
-225 243 -225 114 0 208 70 233 172 6 24 43 238 83 476 62 366 75 432 89 432
51 0 228 -81 283 -130 41 -35 45 -36 94 -10 119 61 328 37 442 -51 38 -30 44
-15 38 85 -18 266 -152 535 -347 693 -99 81 -288 172 -408 198 -24 5 -32 11
-28 22 17 43 17 65 2 88 -20 30 -65 34 -89 8z m-121 -136 c-190 -122 -335
-360 -393 -648 l-17 -86 -40 27 c-65 43 -132 62 -241 67 -91 4 -149 -2 -198
-22 -16 -7 -16 -4 3 44 135 344 394 554 760 616 41 7 91 13 110 13 31 1 33 -1
16 -11z m202 -51 c89 -84 176 -241 211 -378 25 -96 43 -296 35 -377 l-7 -60
-31 24 c-47 36 -160 83 -266 112 -80 21 -116 25 -230 25 -123 -1 -172 -7 -266
-37 -21 -6 -21 -5 -13 42 50 265 159 475 320 616 111 97 171 106 247 33z m162
-13 c145 -59 241 -124 341 -229 137 -146 227 -345 246 -547 3 -41 2 -68 -3
-65 -104 50 -178 68 -281 68 -56 0 -98 -6 -132 -19 l-48 -18 -6 181 c-4 142
-10 200 -27 266 -38 146 -107 277 -194 368 l-41 43 30 -7 c17 -3 68 -22 115
-41z m-287 -703 c-22 -154 -147 -869 -158 -907 -16 -54 -63 -105 -113 -124
-36 -14 -130 -13 -167 1 -90 34 -144 166 -103 255 13 29 28 33 28 8 3 -123 6
-143 26 -170 47 -64 160 -84 224 -40 52 34 68 72 94 228 14 79 48 281 76 449
29 168 54 309 57 313 8 13 38 2 36 -13z"/>
</g>
</svg>
