<?xml version="1.0" standalone="no"?>
<!DOCTYPE svg PUBLIC "-//W3C//DTD SVG 20010904//EN"
 "http://www.w3.org/TR/2001/REC-SVG-20010904/DTD/svg10.dtd">
<svg version="1.0" xmlns="http://www.w3.org/2000/svg"
 width="253.000000pt" height="178.000000pt" viewBox="0 0 253.000000 178.000000"
 preserveAspectRatio="xMidYMid meet">
<metadata>
Created by potrace 1.16, written by Peter Selinger 2001-2019
</metadata>
<g transform="translate(0.000000,178.000000) scale(0.100000,-0.100000)"
fill="#000000" stroke="none">
<path d="M575 1766 c-156 -38 -288 -163 -336 -318 -13 -41 -24 -129 -34 -267
-8 -113 -24 -294 -36 -401 -11 -107 -19 -226 -18 -265 l1 -70 -46 -49 c-56
-60 -82 -127 -97 -251 -12 -99 -7 -145 14 -145 9 0 16 36 24 121 14 141 39
205 105 264 40 37 119 78 168 89 21 5 30 -2 58 -39 74 -101 177 -148 328 -149
96 -1 103 0 176 37 57 28 91 54 132 98 l55 61 63 -30 c96 -46 94 -43 66 -88
-37 -59 -57 -120 -68 -214 -14 -115 -13 -140 5 -147 9 -3 18 -4 20 -2 2 2 8
54 14 114 6 61 17 131 26 157 23 67 85 132 158 167 102 49 108 49 136 -4 30
-56 113 -134 178 -166 42 -21 62 -24 158 -24 95 0 116 3 157 23 65 33 127 89
168 156 39 62 37 61 126 21 137 -61 189 -156 209 -377 5 -46 11 -68 20 -68 22
0 25 27 15 125 -23 220 -110 327 -317 391 -68 21 -96 35 -122 63 -39 41 -41
39 74 64 102 23 183 55 196 79 8 15 5 89 -10 287 -32 399 -35 413 -81 507 -89
181 -253 273 -464 261 -158 -8 -284 -77 -364 -197 -74 -110 -83 -155 -113
-605 -20 -281 -23 -255 41 -288 30 -15 97 -38 149 -50 l93 -23 -26 -31 c-28
-33 -44 -41 -151 -72 -38 -11 -92 -34 -118 -51 -26 -16 -49 -30 -51 -30 -1 0
-6 71 -9 158 -4 86 -14 211 -22 277 -8 66 -20 199 -26 295 -6 96 -17 203 -25
238 -51 228 -245 384 -473 381 -42 0 -99 -6 -126 -13z m254 -45 c84 -26 140
-61 199 -125 92 -102 115 -178 132 -440 6 -99 18 -232 26 -295 8 -64 17 -181
21 -260 l6 -143 -39 20 c-21 10 -76 31 -121 46 -86 29 -128 62 -138 112 -3 13
-7 36 -10 50 -5 21 4 37 50 86 95 102 119 170 130 373 7 148 5 155 -61 173
-59 17 -103 50 -140 107 -64 96 -53 91 -104 44 -95 -90 -226 -156 -350 -179
-36 -6 -75 -13 -87 -16 -22 -4 -23 -8 -23 -118 0 -182 39 -303 127 -397 44
-47 45 -50 41 -100 -7 -73 -39 -100 -163 -142 -55 -18 -108 -37 -117 -41 -16
-7 -18 -1 -18 68 0 41 9 153 20 248 10 95 26 268 34 383 9 116 22 233 31 261
29 97 119 209 205 254 97 51 243 64 349 31z m1184 -19 c83 -38 174 -122 211
-196 15 -29 33 -89 41 -132 17 -96 59 -619 51 -633 -8 -12 -147 -58 -201 -66
-22 -4 -48 -9 -57 -12 -14 -3 -18 2 -18 23 0 19 15 43 49 79 88 93 115 174
125 382 6 103 4 123 -9 137 -9 9 -24 16 -34 16 -78 0 -192 86 -251 189 -19 33
-40 61 -46 61 -6 0 -28 -27 -48 -60 -20 -32 -57 -76 -81 -96 -43 -35 -185
-104 -215 -104 -8 0 -32 -5 -52 -11 l-38 -10 0 -83 c0 -109 24 -245 56 -312
14 -29 45 -75 69 -102 34 -37 45 -58 45 -82 l0 -32 -42 7 c-53 9 -192 54 -213
69 -12 9 -13 24 -5 96 5 47 14 179 20 295 16 296 40 382 136 485 87 93 189
131 339 126 88 -2 108 -6 168 -34z m-76 -310 c49 -61 96 -93 172 -119 l66 -22
-3 -103 c-1 -57 -7 -127 -12 -157 -40 -220 -221 -342 -418 -282 -166 50 -261
213 -262 447 l0 81 51 11 c117 27 248 111 310 197 l33 46 14 -28 c8 -15 30
-47 49 -71z m-1083 3 c40 -61 108 -111 164 -121 l35 -7 -7 -119 c-14 -233 -69
-344 -208 -418 -56 -30 -72 -34 -138 -34 -90 0 -147 22 -214 85 -82 75 -122
188 -128 363 l-3 89 75 16 c130 28 262 91 345 165 22 19 40 35 41 36 1 0 18
-25 38 -55z m981 -739 c66 0 99 5 123 18 19 10 35 16 36 14 2 -2 8 -25 15 -52
16 -66 43 -102 98 -129 l44 -23 -44 -60 c-50 -68 -119 -117 -190 -135 -72 -18
-182 -7 -242 23 -50 26 -131 103 -155 148 -11 21 -11 26 5 35 63 37 83 55 103
95 12 24 22 59 22 77 l0 32 48 -22 c37 -17 65 -21 137 -21z m-1220 8 c67 -19
120 -17 185 6 71 25 70 25 70 -10 0 -35 29 -97 56 -121 11 -9 37 -26 58 -36
l39 -20 -47 -47 c-27 -27 -76 -61 -114 -79 -60 -28 -77 -31 -162 -32 -88 0
-101 3 -161 32 -59 29 -149 108 -149 130 0 5 18 16 40 26 54 25 91 76 98 133
4 37 8 44 21 38 9 -4 38 -13 66 -20z"/>
<path d="M1656 1168 c-21 -29 -20 -41 3 -62 17 -16 20 -16 35 -1 19 19 20 38
6 66 -14 25 -25 24 -44 -3z"/>
<path d="M1962 1178 c-31 -31 0 -105 33 -78 25 21 14 90 -15 90 -3 0 -11 -5
-18 -12z"/>
<path d="M1727 906 c-3 -8 6 -24 20 -37 47 -45 173 -22 173 31 0 25 -15 25
-47 0 -14 -11 -36 -20 -48 -20 -12 0 -34 9 -48 20 -30 24 -43 25 -50 6z"/>
<path d="M528 1164 c-14 -30 -1 -59 27 -59 10 0 23 8 28 17 14 21 -6 68 -28
68 -8 0 -21 -12 -27 -26z"/>
<path d="M835 1170 c-15 -17 -16 -24 -7 -45 16 -34 50 -33 58 2 12 48 -21 76
-51 43z"/>
<path d="M607 913 c-15 -14 -5 -34 26 -54 56 -35 167 -8 167 41 0 25 -15 25
-47 0 -14 -11 -34 -20 -44 -20 -23 0 -69 21 -69 32 0 10 -24 11 -33 1z"/>
</g>
</svg>
