<?xml version="1.0" standalone="no"?>
<!DOCTYPE svg PUBLIC "-//W3C//DTD SVG 20010904//EN"
 "http://www.w3.org/TR/2001/REC-SVG-20010904/DTD/svg10.dtd">
<svg version="1.0" xmlns="http://www.w3.org/2000/svg"
 width="172.000000pt" height="217.000000pt" viewBox="0 0 172.000000 217.000000"
 preserveAspectRatio="xMidYMid meet">
<metadata>
Created by potrace 1.16, written by Peter Selinger 2001-2019
</metadata>
<g transform="translate(0.000000,217.000000) scale(0.100000,-0.100000)"
fill="#000000" stroke="none">
<path d="M894 2159 c-17 -5 -37 -16 -44 -24 -11 -13 1 -15 99 -15 118 0 132 8
65 36 -37 16 -74 17 -120 3z"/>
<path d="M472 1431 c-2 -498 8 -466 -103 -310 -78 111 -114 144 -170 159 -76
21 -150 -26 -185 -115 l-17 -46 44 -102 c72 -167 303 -629 353 -704 136 -207
354 -313 641 -313 324 0 564 175 657 482 21 71 22 88 26 630 3 521 2 560 -15
595 -18 37 -18 26 -23 -547 -6 -558 -7 -588 -27 -661 -32 -114 -75 -191 -153
-273 -124 -130 -257 -181 -475 -180 -153 0 -230 17 -353 76 -105 49 -209 148
-272 258 -46 79 -240 474 -317 644 l-44 99 17 39 c23 52 58 78 103 78 56 0 95
-31 157 -127 83 -127 157 -194 314 -287 74 -44 154 -97 176 -118 58 -53 125
-185 148 -290 5 -20 10 -25 26 -21 25 7 25 6 -5 100 -45 143 -124 249 -233
312 -31 19 -90 53 -131 77 -41 25 -86 44 -102 44 l-29 0 -3 468 -2 467 -3
-434z"/>
</g>
</svg>
