<?xml version="1.0" standalone="no"?>
<!DOCTYPE svg PUBLIC "-//W3C//DTD SVG 20010904//EN"
 "http://www.w3.org/TR/2001/REC-SVG-20010904/DTD/svg10.dtd">
<svg version="1.0" xmlns="http://www.w3.org/2000/svg"
 width="128.000000pt" height="198.000000pt" viewBox="0 0 128.000000 198.000000"
 preserveAspectRatio="xMidYMid meet">
<metadata>
Created by potrace 1.16, written by Peter Selinger 2001-2019
</metadata>
<g transform="translate(0.000000,198.000000) scale(0.100000,-0.100000)"
fill="#000000" stroke="none">
<path d="M323 1950 c-67 -33 -110 -76 -145 -143 -19 -35 -23 -58 -23 -137 0
-81 4 -102 25 -145 26 -53 102 -135 126 -135 27 0 14 37 -23 67 -52 41 -86
113 -91 190 -8 118 49 217 153 269 50 24 64 26 134 22 118 -7 196 -60 244
-167 15 -34 18 -60 15 -115 -5 -84 -25 -131 -85 -195 -24 -25 -43 -49 -43 -53
0 -37 76 14 118 79 45 70 66 158 53 227 -14 76 -52 147 -102 189 -67 58 -104
71 -204 75 -84 3 -94 1 -152 -28z"/>
<path d="M430 1773 c-20 -7 -59 -44 -73 -68 -9 -14 -13 -162 -17 -495 l-5
-475 -24 65 c-55 147 -86 180 -174 180 -118 0 -166 -95 -118 -231 36 -101 162
-394 196 -455 107 -191 285 -294 508 -294 59 0 127 6 160 15 168 44 301 165
366 335 25 63 26 74 29 352 3 281 3 289 -18 318 -43 60 -117 77 -177 40 l-33
-20 0 23 c0 77 -120 124 -197 78 l-31 -20 -12 30 c-20 48 -55 69 -114 69 -30
0 -61 -6 -74 -16 l-22 -15 0 243 c0 225 -2 245 -20 276 -34 55 -99 84 -150 65z
m81 -50 c15 -9 32 -24 36 -32 4 -9 10 -196 13 -416 5 -370 6 -400 23 -403 15
-3 17 8 17 123 l0 127 30 29 c25 25 36 30 71 27 32 -2 47 -10 63 -31 18 -25
22 -46 26 -175 4 -122 8 -147 20 -147 12 0 16 22 20 122 4 106 8 125 26 143
28 29 87 37 118 16 35 -22 46 -73 46 -209 0 -107 2 -118 18 -115 14 3 18 18
22 107 5 97 6 104 33 127 37 31 78 31 116 -2 l31 -26 0 -253 c0 -146 -5 -277
-11 -307 -18 -87 -68 -177 -134 -244 -101 -102 -208 -144 -364 -144 -173 1
-275 41 -386 154 -82 83 -106 126 -215 386 -97 231 -109 292 -67 334 20 20 36
26 70 26 69 0 88 -22 147 -172 55 -138 71 -165 89 -154 8 5 11 161 11 526 0
305 4 529 10 544 9 24 52 55 78 56 8 0 27 -8 43 -17z"/>
</g>
</svg>
