<?xml version="1.0" standalone="no"?>
<!DOCTYPE svg PUBLIC "-//W3C//DTD SVG 20010904//EN"
 "http://www.w3.org/TR/2001/REC-SVG-20010904/DTD/svg10.dtd">
<svg version="1.0" xmlns="http://www.w3.org/2000/svg"
 width="175.000000pt" height="204.000000pt" viewBox="0 0 175.000000 204.000000"
 preserveAspectRatio="xMidYMid meet">
<metadata>
Created by potrace 1.16, written by Peter Selinger 2001-2019
</metadata>
<g transform="translate(0.000000,204.000000) scale(0.100000,-0.100000)"
fill="#000000" stroke="none">
<path d="M773 2025 c-136 -30 -279 -130 -354 -246 -70 -110 -81 -159 -90 -419
-4 -129 -15 -322 -23 -429 -15 -175 -15 -200 -1 -254 8 -32 19 -66 24 -75 8
-13 -5 -20 -78 -44 -149 -48 -183 -82 -222 -223 -30 -108 -34 -328 -6 -333 15
-3 17 7 17 95 0 104 26 246 56 309 10 22 36 48 62 65 42 27 341 131 413 144
33 6 35 4 63 -50 50 -96 152 -165 246 -165 85 0 187 72 236 165 16 30 34 55
41 55 24 0 338 -102 398 -129 34 -16 71 -40 83 -56 41 -52 64 -149 69 -297 5
-127 7 -138 24 -138 18 0 19 9 19 113 0 117 -21 225 -59 312 -26 58 -85 99
-188 131 -46 15 -83 28 -83 30 0 3 7 21 15 41 32 77 34 138 9 378 -15 142 -24
293 -24 396 0 141 -3 177 -21 235 -57 183 -198 325 -376 377 -80 24 -179 28
-250 12z m228 -41 c158 -47 285 -159 346 -305 25 -60 27 -78 34 -294 5 -126
10 -241 12 -255 30 -193 39 -402 19 -465 -22 -73 -17 -72 -146 -35 l-116 33
-20 54 c-32 85 -27 112 26 168 54 56 99 147 115 230 6 33 9 116 7 185 -3 111
-6 130 -28 169 -14 25 -50 65 -80 89 -87 70 -167 151 -180 183 -7 16 -15 29
-19 29 -3 -1 -22 -26 -41 -56 -54 -86 -138 -135 -373 -219 l-79 -28 4 -201 c4
-201 4 -201 35 -267 17 -38 53 -90 83 -120 50 -52 52 -55 46 -98 -3 -25 -14
-61 -24 -80 -16 -33 -24 -37 -127 -68 -60 -18 -115 -32 -121 -33 -6 0 -19 27
-29 60 -16 51 -17 79 -11 197 4 76 12 163 17 193 5 30 11 159 15 285 6 250 14
300 66 397 37 70 145 176 216 212 110 56 247 71 353 40z m20 -346 c30 -29 85
-80 122 -113 83 -73 96 -104 96 -235 1 -244 -63 -377 -218 -452 -122 -59 -271
-39 -373 51 -49 43 -93 114 -112 182 -13 43 -16 92 -14 214 l3 157 107 38
c149 53 239 103 290 160 24 26 43 48 44 49 1 1 25 -23 55 -51z m73 -948 c14
-41 14 -47 -5 -90 -88 -200 -327 -204 -426 -7 -19 38 -19 39 4 105 12 37 23
75 23 85 0 21 2 21 70 -3 70 -24 183 -21 255 8 l50 20 7 -37 c3 -20 13 -56 22
-81z"/>
</g>
</svg>
