<?xml version="1.0" standalone="no"?>
<!DOCTYPE svg PUBLIC "-//W3C//DTD SVG 20010904//EN"
 "http://www.w3.org/TR/2001/REC-SVG-20010904/DTD/svg10.dtd">
<svg version="1.0" xmlns="http://www.w3.org/2000/svg"
 width="188.000000pt" height="197.000000pt" viewBox="0 0 188.000000 197.000000"
 preserveAspectRatio="xMidYMid meet">
<metadata>
Created by potrace 1.16, written by Peter Selinger 2001-2019
</metadata>
<g transform="translate(0.000000,197.000000) scale(0.100000,-0.100000)"
fill="#000000" stroke="none">
<path d="M390 1955 c-30 -9 -83 -29 -118 -46 -89 -43 -82 -59 30 -76 156 -22
284 -78 386 -170 l47 -42 -40 11 c-56 15 -179 4 -247 -22 -70 -26 -148 -94
-200 -174 -36 -57 -88 -195 -88 -237 0 -32 33 -22 75 22 54 55 185 142 271
178 70 30 155 54 231 66 l41 6 -38 -73 c-107 -207 -205 -573 -244 -920 -7 -59
-15 -110 -17 -111 -2 -2 -29 -14 -60 -26 -125 -49 -331 -195 -394 -277 -52
-68 -106 -64 926 -64 922 0 929 0 929 20 0 18 -7 20 -83 20 l-84 0 -77 74
c-205 198 -444 302 -717 313 l-127 6 -5 51 c-26 224 -17 473 24 661 20 89 78
307 85 314 7 8 95 -51 148 -100 96 -88 191 -219 237 -330 45 -109 63 -104 85
26 19 107 7 219 -30 301 -30 64 -105 143 -163 169 -23 11 -43 23 -43 28 0 11
175 8 250 -4 36 -5 103 -23 150 -39 47 -15 89 -25 94 -20 13 13 -51 117 -110
175 -132 132 -311 160 -482 74 -32 -16 -78 -47 -102 -69 -24 -22 -44 -40 -45
-40 -1 0 -5 23 -8 50 -7 62 -59 161 -104 200 -69 61 -129 83 -233 87 -62 2
-114 -2 -150 -12z m256 -42 c67 -23 154 -110 178 -178 19 -57 33 -185 20 -185
-5 0 -19 16 -32 34 -89 131 -273 246 -445 277 -39 7 -64 16 -59 21 5 5 36 18
68 28 76 24 203 26 270 3z m729 -193 c46 -22 185 -149 185 -168 0 -5 -37 2
-82 15 -113 32 -269 41 -361 19 -38 -9 -92 -16 -122 -16 -30 0 -65 -4 -79 -10
-36 -13 -32 0 15 54 45 51 107 91 184 119 71 25 193 19 260 -13z m-674 -130
c39 -11 100 -49 106 -65 2 -6 -32 -16 -77 -23 -105 -17 -198 -46 -285 -90 -75
-37 -166 -96 -203 -132 -13 -12 -26 -20 -28 -17 -9 9 56 140 95 192 45 60 103
102 174 126 58 20 162 24 218 9z m438 -89 c69 -36 135 -104 165 -170 30 -68
44 -190 28 -256 l-9 -40 -12 29 c-18 44 -111 183 -170 253 -55 66 -155 147
-208 170 -67 28 -35 43 82 39 60 -2 91 -8 124 -25z m-289 -41 c0 -12 -16 -75
-35 -142 -73 -250 -94 -484 -72 -780 l8 -107 -38 -6 c-21 -4 -71 -14 -111 -24
-40 -10 -74 -16 -75 -14 -10 10 39 323 79 503 56 247 192 590 235 590 5 0 9
-9 9 -20z m295 -1104 c167 -50 321 -137 441 -251 l69 -64 -800 -1 -799 0 44
46 c53 54 190 149 278 193 75 38 219 87 293 100 30 6 128 8 219 7 144 -3 177
-7 255 -30z"/>
</g>
</svg>
