<?xml version="1.0" standalone="no"?>
<!DOCTYPE svg PUBLIC "-//W3C//DTD SVG 20010904//EN"
 "http://www.w3.org/TR/2001/REC-SVG-20010904/DTD/svg10.dtd">
<svg version="1.0" xmlns="http://www.w3.org/2000/svg"
 width="175.000000pt" height="175.000000pt" viewBox="0 0 175.000000 175.000000"
 preserveAspectRatio="xMidYMid meet">
<metadata>
Created by potrace 1.16, written by Peter Selinger 2001-2019
</metadata>
<g transform="translate(0.000000,175.000000) scale(0.100000,-0.100000)"
fill="#000000" stroke="none">
<path d="M765 1740 c-143 -20 -248 -59 -365 -135 -459 -296 -536 -942 -158
-1335 278 -290 727 -353 1071 -149 206 123 353 317 408 544 33 134 31 317 -5
440 -92 310 -323 535 -631 614 -94 24 -236 33 -320 21z m314 -59 c448 -118
715 -569 601 -1014 -93 -365 -432 -627 -811 -627 -212 0 -426 89 -579 240
-176 174 -257 379 -247 625 10 235 93 414 266 577 120 114 282 193 446 218 84
13 237 4 324 -19z"/>
<path d="M811 1150 c-123 -26 -221 -147 -221 -275 0 -109 85 -225 189 -260
108 -36 243 1 312 84 88 108 76 285 -28 383 -59 56 -166 85 -252 68z m170 -61
c47 -24 106 -93 119 -138 23 -83 1 -181 -53 -240 -33 -35 -116 -71 -166 -71
-95 0 -180 51 -223 134 -33 64 -31 157 5 218 66 113 204 156 318 97z"/>
</g>
</svg>
