<?xml version="1.0" standalone="no"?>
<!DOCTYPE svg PUBLIC "-//W3C//DTD SVG 20010904//EN"
 "http://www.w3.org/TR/2001/REC-SVG-20010904/DTD/svg10.dtd">
<svg version="1.0" xmlns="http://www.w3.org/2000/svg"
 width="167.000000pt" height="166.000000pt" viewBox="0 0 167.000000 166.000000"
 preserveAspectRatio="xMidYMid meet">
<metadata>
Created by potrace 1.16, written by Peter Selinger 2001-2019
</metadata>
<g transform="translate(0.000000,166.000000) scale(0.100000,-0.100000)"
fill="#000000" stroke="none">
<path d="M740 1654 c-14 -2 -52 -9 -85 -15 -247 -44 -494 -248 -591 -487 -47
-118 -59 -180 -58 -317 0 -235 67 -403 228 -572 174 -183 361 -263 610 -263
228 0 406 72 570 229 290 277 338 715 116 1055 -146 223 -390 361 -660 371
-58 2 -116 2 -130 -1z m270 -70 c154 -31 334 -144 436 -272 58 -73 129 -217
150 -307 25 -100 22 -267 -5 -370 -63 -242 -234 -437 -463 -529 -111 -45 -206
-60 -333 -53 -121 7 -195 26 -300 78 -293 144 -474 471 -435 786 13 104 54
231 101 310 44 74 159 195 232 245 176 120 388 158 617 112z"/>
<path d="M569 1254 c-21 -25 -107 -78 -161 -99 -50 -18 -65 -37 -44 -54 25
-21 116 15 204 81 40 30 52 45 50 61 -4 27 -30 33 -49 11z"/>
<path d="M1050 1255 c-11 -13 -6 -22 28 -54 49 -46 153 -100 202 -103 29 -3
35 0 35 16 0 14 -17 26 -68 46 -37 16 -92 46 -122 69 -30 23 -56 41 -58 41 -3
0 -10 -7 -17 -15z"/>
<path d="M475 965 c-16 -15 -25 -36 -25 -55 0 -19 9 -40 25 -55 49 -50 135
-15 135 55 0 41 -39 80 -80 80 -19 0 -40 -9 -55 -25z"/>
<path d="M1092 967 c-45 -48 -10 -137 53 -137 30 0 85 49 85 75 0 24 -27 72
-45 79 -34 13 -72 6 -93 -17z"/>
<path d="M742 585 c-93 -26 -158 -72 -198 -141 -43 -74 -5 -107 40 -35 112
178 390 178 502 0 41 -65 81 -43 49 26 -56 116 -250 190 -393 150z"/>
</g>
</svg>
