<?xml version="1.0" standalone="no"?>
<!DOCTYPE svg PUBLIC "-//W3C//DTD SVG 20010904//EN"
 "http://www.w3.org/TR/2001/REC-SVG-20010904/DTD/svg10.dtd">
<svg version="1.0" xmlns="http://www.w3.org/2000/svg"
 width="168.000000pt" height="231.000000pt" viewBox="0 0 168.000000 231.000000"
 preserveAspectRatio="xMidYMid meet">
<metadata>
Created by potrace 1.16, written by Peter Selinger 2001-2019
</metadata>
<g transform="translate(0.000000,231.000000) scale(0.100000,-0.100000)"
fill="#000000" stroke="none">
<path d="M961 2275 c-65 -74 -106 -184 -127 -340 l-6 -50 -13 41 c-17 57 -72
157 -111 201 -30 35 -34 37 -49 22 -13 -13 -15 -21 -6 -37 19 -36 43 -203 36
-251 -16 -111 -68 -176 -250 -315 -250 -191 -380 -361 -420 -552 -47 -220 33
-458 205 -618 98 -90 247 -167 383 -197 31 -7 57 -16 57 -20 0 -4 -11 -21 -25
-37 -29 -34 -31 -45 -11 -61 12 -10 22 -2 55 42 l41 54 46 -10 45 -11 -6 -55
c-6 -61 4 -87 29 -78 12 5 16 21 16 72 0 64 0 65 28 65 15 0 36 3 48 6 16 4
26 -5 52 -45 21 -34 38 -51 52 -51 29 0 25 28 -10 70 l-30 34 87 23 c356 93
593 370 596 697 1 155 -48 286 -161 427 -64 82 -136 147 -289 263 -114 87
-171 144 -205 208 -22 40 -23 54 -23 223 0 144 4 191 18 238 26 86 3 104 -52
42z m-16 -282 c0 -172 1 -180 27 -235 36 -77 93 -136 228 -236 198 -147 317
-276 375 -407 125 -282 11 -609 -275 -787 -74 -46 -172 -89 -239 -103 -34 -7
-34 -7 20 37 299 242 331 739 69 1053 -177 212 -224 287 -254 402 -28 108 -17
279 25 396 12 31 22 57 23 57 0 0 1 -80 1 -177z m-185 -50 c12 -32 24 -83 27
-113 10 -106 -60 -258 -188 -409 -95 -112 -140 -174 -174 -242 -67 -132 -100
-336 -76 -475 26 -144 119 -314 232 -418 34 -32 60 -59 58 -61 -6 -6 -171 50
-219 75 -68 34 -161 103 -203 150 -177 195 -215 468 -97 695 72 140 163 235
361 376 195 140 253 231 247 391 -2 48 0 88 3 88 3 0 16 -26 29 -57z m146
-383 c21 -38 66 -101 101 -142 163 -189 218 -282 254 -434 38 -160 14 -361
-62 -504 -64 -123 -208 -243 -318 -265 l-34 -7 6 108 c12 207 11 1034 -2 1047
-31 31 -34 -10 -39 -578 -3 -311 -8 -568 -12 -570 -4 -3 -39 11 -78 30 -80 41
-189 147 -239 236 -86 148 -114 346 -74 513 27 113 89 238 160 323 137 162
174 213 211 285 21 43 42 99 46 124 l7 47 18 -72 c10 -40 35 -104 55 -141z"/>
</g>
</svg>
