<?xml version="1.0" standalone="no"?>
<!DOCTYPE svg PUBLIC "-//W3C//DTD SVG 20010904//EN"
 "http://www.w3.org/TR/2001/REC-SVG-20010904/DTD/svg10.dtd">
<svg version="1.0" xmlns="http://www.w3.org/2000/svg"
 width="179.000000pt" height="210.000000pt" viewBox="0 0 179.000000 210.000000"
 preserveAspectRatio="xMidYMid meet">
<metadata>
Created by potrace 1.16, written by Peter Selinger 2001-2019
</metadata>
<g transform="translate(0.000000,210.000000) scale(0.100000,-0.100000)"
fill="#000000" stroke="none">
<path d="M788 2081 c-31 -10 -72 -28 -91 -40 -54 -33 -126 -116 -155 -179 -24
-51 -27 -71 -30 -189 l-4 -133 -66 -1 c-205 -2 -279 -25 -309 -96 -7 -19 -21
-114 -29 -211 -8 -97 -21 -233 -29 -302 -84 -734 -79 -671 -61 -732 22 -76 70
-136 135 -170 l53 -28 692 0 691 0 50 24 c62 29 97 66 126 131 28 64 28 117
-5 410 -14 127 -37 352 -50 500 -37 396 -33 371 -68 410 -39 45 -78 55 -225
55 l-123 0 0 88 c0 181 -32 280 -117 365 -102 102 -255 141 -385 98z m238 -85
c66 -30 120 -85 153 -155 23 -50 26 -71 29 -183 l4 -128 -317 0 -317 0 4 118
c6 144 30 214 93 278 101 100 227 125 351 70z m-516 -625 c0 -95 11 -118 50
-106 18 6 20 14 20 101 l0 94 315 0 315 0 0 -89 c0 -68 4 -93 16 -105 18 -19
20 -19 45 -6 17 9 19 22 19 105 l0 95 108 -1 c59 -1 120 -4 136 -8 58 -12 63
-32 91 -326 14 -148 39 -402 57 -563 28 -255 30 -299 19 -340 -15 -59 -31 -84
-78 -119 l-36 -28 -666 -3 c-455 -2 -678 0 -703 8 -81 23 -137 103 -138 193 0
26 14 166 31 310 16 144 43 389 58 544 19 188 32 288 42 299 23 28 50 33 177
33 l122 1 0 -89z"/>
<path d="M1017 799 l-235 -241 -114 117 c-97 100 -117 117 -136 111 -17 -6
-22 -15 -22 -39 0 -28 17 -49 123 -155 74 -74 130 -122 142 -122 24 0 535 507
535 531 0 20 -20 39 -41 39 -10 0 -123 -108 -252 -241z"/>
</g>
</svg>
