<?xml version="1.0" standalone="no"?>
<!DOCTYPE svg PUBLIC "-//W3C//DTD SVG 20010904//EN"
 "http://www.w3.org/TR/2001/REC-SVG-20010904/DTD/svg10.dtd">
<svg version="1.0" xmlns="http://www.w3.org/2000/svg"
 width="198.000000pt" height="116.000000pt" viewBox="0 0 198.000000 116.000000"
 preserveAspectRatio="xMidYMid meet">
<metadata>
Created by potrace 1.16, written by Peter Selinger 2001-2019
</metadata>
<g transform="translate(0.000000,116.000000) scale(0.100000,-0.100000)"
fill="#000000" stroke="none">
<path d="M105 1149 c-102 -59 -131 -167 -70 -260 63 -97 227 -91 284 11 44 79
22 179 -51 233 -33 24 -132 34 -163 16z m138 -69 c56 -44 56 -136 0 -180 -40
-31 -107 -27 -143 9 -52 51 -52 111 0 162 36 36 103 40 143 9z"/>
<path d="M905 1141 c-98 -61 -122 -178 -52 -257 40 -46 76 -64 132 -64 116 0
196 104 166 216 -11 39 -56 91 -98 113 -34 17 -114 13 -148 -8z m147 -61 c87
-67 42 -200 -66 -200 -50 0 -87 24 -106 70 -17 41 0 101 37 129 34 28 101 28
135 1z"/>
<path d="M1720 1138 c-59 -41 -75 -72 -75 -148 0 -74 14 -103 68 -144 42 -31
132 -33 181 -4 112 65 110 233 -2 296 -54 30 -128 30 -172 0z m152 -58 c87
-68 42 -200 -67 -200 -105 0 -145 134 -61 202 29 24 97 23 128 -2z"/>
<path d="M1771 339 c-39 -8 -76 -34 -105 -73 -16 -21 -21 -42 -21 -94 0 -79
23 -120 85 -152 164 -84 323 119 209 264 -37 46 -104 68 -168 55z m73 -63 c42
-18 76 -61 76 -98 0 -89 -95 -146 -170 -101 -34 20 -50 52 -50 101 0 46 22 80
64 98 39 17 40 17 80 0z"/>
<path d="M104 330 c-37 -15 -83 -70 -95 -112 -29 -108 54 -218 163 -218 82 0
146 50 168 130 21 76 -27 174 -97 201 -30 11 -111 11 -139 -1z m146 -75 c75
-68 27 -195 -72 -195 -46 0 -83 22 -104 61 -20 39 -18 71 9 110 38 57 118 68
167 24z"/>
<path d="M920 333 c-107 -44 -139 -184 -63 -274 97 -115 287 -52 300 99 5 56
-25 124 -70 156 -28 20 -135 33 -167 19z m130 -72 c37 -26 51 -60 46 -106 -14
-118 -183 -129 -217 -14 -11 37 -11 46 7 78 22 42 78 74 114 66 14 -3 36 -14
50 -24z"/>
</g>
</svg>
