<?xml version="1.0" standalone="no"?>
<!DOCTYPE svg PUBLIC "-//W3C//DTD SVG 20010904//EN"
 "http://www.w3.org/TR/2001/REC-SVG-20010904/DTD/svg10.dtd">
<svg version="1.0" xmlns="http://www.w3.org/2000/svg"
 width="235.000000pt" height="212.000000pt" viewBox="0 0 235.000000 212.000000"
 preserveAspectRatio="xMidYMid meet">
<metadata>
Created by potrace 1.16, written by Peter Selinger 2001-2019
</metadata>
<g transform="translate(0.000000,212.000000) scale(0.100000,-0.100000)"
fill="#000000" stroke="none">
<path d="M662 2109 c-145 -18 -276 -83 -377 -184 -120 -120 -173 -251 -182
-450 -3 -70 -1 -144 6 -178 11 -58 10 -59 -19 -88 -41 -41 -54 -97 -41 -170
18 -105 67 -173 133 -186 16 -3 31 -11 33 -17 2 -6 11 -38 21 -70 23 -75 99
-193 175 -269 l59 -59 0 -62 0 -61 -77 -29 c-135 -49 -247 -113 -323 -183 -38
-36 -70 -71 -70 -78 0 -33 26 -24 78 28 78 75 165 129 288 177 58 22 106 40
108 40 2 0 11 -21 21 -47 24 -63 84 -126 148 -154 43 -20 69 -24 152 -24 89 0
107 3 163 29 71 33 133 96 154 156 l13 38 123 -53 c135 -58 202 -99 277 -169
47 -45 75 -53 75 -22 0 8 -28 39 -62 70 -65 58 -198 132 -335 186 l-83 32 0
57 1 56 74 68 c44 40 75 62 75 54 0 -19 109 -101 198 -150 238 -128 517 -69
728 154 97 104 142 217 151 384 11 207 -40 350 -171 480 -91 90 -178 145 -281
178 -90 28 -298 31 -357 5 l-36 -16 -11 45 c-17 65 -63 151 -109 204 -38 43
-140 119 -264 196 -119 75 -284 105 -456 82z m196 -39 c122 -16 192 -46 334
-143 136 -94 184 -142 223 -222 50 -102 68 -278 42 -405 -10 -47 -15 -54 -32
-52 -25 5 -31 15 -39 64 -8 47 -40 112 -103 211 -26 40 -59 98 -75 130 -32 63
-50 71 -72 29 -37 -71 -161 -154 -282 -187 -91 -25 -301 -31 -405 -11 -118 22
-133 21 -161 -13 -22 -26 -56 -118 -73 -193 -4 -21 -11 -28 -30 -28 -32 0 -40
39 -39 195 1 203 48 329 169 450 98 98 210 153 350 174 85 12 101 12 193 1z
m458 -682 c8 -15 22 -63 32 -105 l18 -78 52 -5 c78 -8 97 -32 96 -118 -1 -114
-48 -186 -125 -194 -32 -3 -34 -6 -40 -48 -23 -157 -163 -337 -323 -416 l-80
-39 -140 0 c-137 0 -143 1 -206 31 -161 77 -306 256 -340 420 -11 51 -11 52
-53 57 -75 10 -117 81 -117 198 0 47 4 61 25 81 25 25 63 38 111 38 19 0 24 7
29 38 16 102 48 191 75 207 6 4 54 -1 106 -11 116 -20 334 -15 429 11 92 25
183 74 244 131 l55 51 69 -111 c38 -61 75 -123 83 -138z m581 159 c91 -31 192
-99 266 -176 193 -202 194 -582 3 -789 -115 -123 -260 -198 -407 -209 -129
-10 -236 29 -392 141 -43 31 -82 56 -87 56 -5 0 4 20 21 44 39 59 77 146 85
196 5 31 11 40 27 40 63 0 131 92 143 193 9 76 -2 121 -38 162 -25 29 -29 40
-23 63 4 15 11 83 14 152 l6 124 55 18 c79 26 230 19 327 -15z m-1171 -1207
c101 -13 218 1 292 35 30 14 56 25 58 25 2 0 4 -30 4 -67 -1 -112 -44 -178
-150 -227 -35 -16 -65 -20 -135 -20 -107 0 -163 21 -214 79 -47 54 -61 94 -61
174 l0 70 63 -30 c40 -18 93 -33 143 -39z"/>
<path d="M525 1164 c-22 -22 -17 -93 8 -108 15 -9 22 -7 38 13 23 28 24 59 3
89 -18 26 -27 27 -49 6z"/>
<path d="M1022 1168 c-18 -18 -15 -93 4 -109 36 -29 76 38 52 88 -15 31 -37
40 -56 21z"/>
<path d="M621 706 c-29 -35 116 -83 215 -73 64 7 144 40 144 61 0 25 -18 28
-59 7 -79 -41 -159 -37 -272 13 -9 4 -21 1 -28 -8z"/>
<path d="M1709 1465 c-3 -3 -4 -18 -1 -35 3 -22 10 -30 24 -30 16 0 19 6 16
32 -3 30 -25 48 -39 33z"/>
<path d="M1720 1196 l0 -144 -30 -30 c-38 -38 -38 -66 0 -104 25 -24 36 -29
58 -24 37 9 62 42 62 80 0 30 4 33 101 76 99 44 121 62 102 81 -6 6 -49 -9
-118 -41 -60 -28 -115 -48 -122 -46 -10 4 -13 40 -13 151 0 138 -1 145 -20
145 -19 0 -20 -7 -20 -144z m49 -215 c8 -14 6 -23 -9 -36 -31 -28 -71 1 -56
40 8 21 53 19 65 -4z"/>
<path d="M2172 958 c2 -13 10 -23 18 -23 8 0 16 10 18 23 3 17 -2 22 -18 22
-16 0 -21 -5 -18 -22z"/>
<path d="M1717 523 c-13 -12 -7 -61 7 -66 20 -8 26 2 26 40 0 31 -16 44 -33
26z"/>
</g>
</svg>
