<?xml version="1.0" standalone="no"?>
<!DOCTYPE svg PUBLIC "-//W3C//DTD SVG 20010904//EN"
 "http://www.w3.org/TR/2001/REC-SVG-20010904/DTD/svg10.dtd">
<svg version="1.0" xmlns="http://www.w3.org/2000/svg"
 width="172.000000pt" height="173.000000pt" viewBox="0 0 172.000000 173.000000"
 preserveAspectRatio="xMidYMid meet">
<metadata>
Created by potrace 1.16, written by Peter Selinger 2001-2019
</metadata>
<g transform="translate(0.000000,173.000000) scale(0.100000,-0.100000)"
fill="#000000" stroke="none">
<path d="M672 1714 c-198 -43 -406 -184 -522 -354 -187 -275 -199 -646 -29
-933 50 -84 158 -201 245 -263 176 -126 401 -180 627 -151 224 30 447 174 581
376 290 436 127 1028 -349 1262 -120 58 -215 79 -365 78 -69 -1 -153 -7 -188
-15z m371 -40 c149 -33 331 -142 431 -259 263 -307 272 -764 20 -1069 -109
-132 -244 -222 -404 -269 -539 -159 -1082 274 -1047 835 7 114 12 139 42 229
71 208 216 370 420 469 177 87 345 107 538 64z"/>
<path d="M314 1125 c-17 -44 52 -140 124 -171 56 -24 139 -22 196 6 52 25 101
82 111 132 13 56 -11 52 -40 -7 -77 -158 -285 -151 -357 12 -20 47 -26 51 -34
28z"/>
<path d="M968 1135 c-12 -13 16 -86 48 -123 111 -130 338 -84 384 78 17 58
-11 71 -30 15 -57 -172 -305 -179 -363 -10 -13 37 -27 52 -39 40z"/>
<path d="M731 560 c-57 -21 -68 -27 -119 -74 -38 -35 -76 -101 -67 -116 12
-20 33 -9 59 30 74 112 235 159 373 109 45 -16 72 -36 121 -87 42 -44 66 -62
73 -55 23 23 -42 114 -111 158 -91 57 -227 72 -329 35z"/>
</g>
</svg>
