<?xml version="1.0" standalone="no"?>
<!DOCTYPE svg PUBLIC "-//W3C//DTD SVG 20010904//EN"
 "http://www.w3.org/TR/2001/REC-SVG-20010904/DTD/svg10.dtd">
<svg version="1.0" xmlns="http://www.w3.org/2000/svg"
 width="125.000000pt" height="163.000000pt" viewBox="0 0 125.000000 163.000000"
 preserveAspectRatio="xMidYMid meet">
<metadata>
Created by potrace 1.16, written by Peter Selinger 2001-2019
</metadata>
<g transform="translate(0.000000,163.000000) scale(0.100000,-0.100000)"
fill="#000000" stroke="none">
<path d="M728 1618 c-25 -21 -662 -908 -704 -981 -21 -37 -24 -54 -24 -152 0
-84 4 -116 16 -133 l15 -22 345 0 344 0 0 -153 c0 -106 4 -157 12 -165 8 -8
55 -12 143 -12 173 0 165 -9 165 183 l0 147 86 0 c127 0 124 -4 124 148 0 86
-4 132 -12 140 -8 8 -46 12 -105 12 l-93 0 0 478 c0 416 -2 480 -16 500 -14
21 -22 22 -148 22 -91 0 -137 -4 -148 -12z m272 -516 c0 -366 3 -491 12 -500
8 -8 47 -12 110 -12 l98 0 0 -110 0 -110 -98 0 c-63 0 -102 -4 -110 -12 -8 -8
-12 -59 -12 -165 l0 -153 -125 0 -125 0 0 153 c0 106 -4 157 -12 165 -9 9
-102 12 -355 12 l-343 0 0 113 c0 105 2 115 27 152 42 64 332 469 515 723
l169 232 124 0 125 0 0 -488z"/>
<path d="M714 1195 c-93 -120 -414 -587 -409 -595 10 -16 407 -13 428 3 16 11
17 39 15 322 l-3 309 -31 -39z m3 -562 c-2 -2 -83 -2 -179 -1 l-174 3 175 249
176 249 3 -248 c1 -136 1 -250 -1 -252z"/>
</g>
</svg>
