<?xml version="1.0" standalone="no"?>
<!DOCTYPE svg PUBLIC "-//W3C//DTD SVG 20010904//EN"
 "http://www.w3.org/TR/2001/REC-SVG-20010904/DTD/svg10.dtd">
<svg version="1.0" xmlns="http://www.w3.org/2000/svg"
 width="211.000000pt" height="108.000000pt" viewBox="0 0 211.000000 108.000000"
 preserveAspectRatio="xMidYMid meet">
<metadata>
Created by potrace 1.16, written by Peter Selinger 2001-2019
</metadata>
<g transform="translate(0.000000,108.000000) scale(0.100000,-0.100000)"
fill="#000000" stroke="none">
<path d="M419 1065 c-228 -46 -399 -247 -416 -490 -17 -260 160 -501 413 -561
130 -31 295 -6 410 61 189 110 301 373 250 589 -35 148 -150 297 -277 360
-108 52 -248 67 -380 41z m200 -35 c106 -14 189 -51 263 -119 106 -97 158
-213 158 -354 0 -153 -51 -276 -156 -377 -110 -106 -248 -150 -407 -130 -139
17 -240 75 -324 186 -62 81 -91 152 -102 249 -26 229 100 440 310 519 39 15
91 26 164 35 6 0 48 -4 94 -9z"/>
<path d="M1505 1026 c-79 -19 -141 -54 -206 -114 -69 -63 -103 -117 -131 -205
-27 -86 -26 -223 2 -309 142 -423 734 -439 910 -23 22 53 25 74 25 185 0 125
0 125 -39 205 -102 208 -334 316 -561 261z m212 -40 c93 -20 163 -59 227 -126
168 -176 168 -431 -1 -611 -157 -168 -449 -178 -616 -20 -85 80 -137 203 -137
325 0 213 125 375 333 431 66 17 116 18 194 1z"/>
</g>
</svg>
