<?xml version="1.0" standalone="no"?>
<!DOCTYPE svg PUBLIC "-//W3C//DTD SVG 20010904//EN"
 "http://www.w3.org/TR/2001/REC-SVG-20010904/DTD/svg10.dtd">
<svg version="1.0" xmlns="http://www.w3.org/2000/svg"
 width="128.000000pt" height="97.000000pt" viewBox="0 0 128.000000 97.000000"
 preserveAspectRatio="xMidYMid meet">
<metadata>
Created by potrace 1.16, written by Peter Selinger 2001-2019
</metadata>
<g transform="translate(0.000000,97.000000) scale(0.100000,-0.100000)"
fill="#000000" stroke="none">
<path d="M790 949 c0 -16 57 -79 200 -220 110 -108 200 -200 200 -203 0 -3
-267 -7 -592 -8 -585 -3 -593 -3 -593 -23 0 -20 7 -20 588 -20 323 0 587 -2
587 -5 0 -3 -97 -102 -215 -220 -118 -118 -215 -221 -215 -228 0 -7 7 -15 16
-19 11 -4 86 64 265 243 137 137 249 253 249 257 0 12 -460 461 -476 465 -9 2
-14 -5 -14 -19z"/>
</g>
</svg>
