<?xml version="1.0" standalone="no"?>
<!DOCTYPE svg PUBLIC "-//W3C//DTD SVG 20010904//EN"
 "http://www.w3.org/TR/2001/REC-SVG-20010904/DTD/svg10.dtd">
<svg version="1.0" xmlns="http://www.w3.org/2000/svg"
 width="151.000000pt" height="126.000000pt" viewBox="0 0 151.000000 126.000000"
 preserveAspectRatio="xMidYMid meet">
<metadata>
Created by potrace 1.16, written by Peter Selinger 2001-2019
</metadata>
<g transform="translate(0.000000,126.000000) scale(0.100000,-0.100000)"
fill="#000000" stroke="none">
<path d="M227 1246 c-91 -34 -145 -87 -194 -191 l-28 -60 0 -380 0 -380 27
-50 c34 -65 100 -128 163 -157 l50 -23 565 -3 c382 -2 577 0 602 8 20 5 50 26
67 45 l31 36 0 258 c0 252 -1 259 -23 292 -31 47 -81 62 -188 57 -98 -5 -150
-28 -212 -98 l-37 -40 -213 2 -212 3 -6 225 c-3 124 -10 239 -16 256 -28 82
-86 149 -162 186 -57 28 -159 34 -214 14z m200 -65 c50 -25 105 -87 123 -138
8 -25 15 -118 19 -271 6 -216 7 -235 25 -248 16 -11 67 -14 249 -14 l229 0 58
59 c66 67 100 81 198 81 66 0 115 -18 126 -45 3 -9 6 -124 6 -255 0 -238 0
-239 -24 -267 l-24 -28 -569 0 c-426 0 -578 3 -609 13 -52 15 -128 81 -157
136 -22 40 -22 49 -22 411 l0 370 26 55 c31 66 93 129 151 153 54 22 139 17
195 -12z"/>
</g>
</svg>
