<?xml version="1.0" standalone="no"?>
<!DOCTYPE svg PUBLIC "-//W3C//DTD SVG 20010904//EN"
 "http://www.w3.org/TR/2001/REC-SVG-20010904/DTD/svg10.dtd">
<svg version="1.0" xmlns="http://www.w3.org/2000/svg"
 width="176.000000pt" height="239.000000pt" viewBox="0 0 176.000000 239.000000"
 preserveAspectRatio="xMidYMid meet">
<metadata>
Created by potrace 1.16, written by Peter Selinger 2001-2019
</metadata>
<g transform="translate(0.000000,239.000000) scale(0.100000,-0.100000)"
fill="#000000" stroke="none">
<path d="M830 2371 c-53 -28 -80 -74 -80 -138 0 -51 1 -53 20 -41 12 8 20 24
20 40 0 74 54 122 130 115 34 -4 51 -12 72 -36 27 -30 36 -74 20 -96 -4 -5
-48 -10 -98 -10 -90 0 -93 -1 -147 -38 -89 -61 -127 -134 -127 -242 0 -92 24
-151 87 -212 90 -89 202 -105 319 -48 194 95 204 386 19 504 -40 25 -43 29
-24 34 19 5 21 11 17 57 -10 107 -129 164 -228 111z m186 -220 c52 -24 111
-93 128 -151 7 -25 12 -47 11 -48 -2 -2 -38 2 -80 9 -54 8 -87 20 -115 40 -22
16 -44 29 -49 29 -6 0 -22 -15 -36 -34 -31 -41 -69 -56 -143 -56 l-54 0 7 38
c14 78 67 142 147 177 46 20 135 18 184 -4z m-64 -200 c18 -11 67 -24 108 -31
105 -16 100 -12 89 -62 -20 -88 -92 -157 -187 -179 -121 -28 -249 59 -276 187
l-7 32 80 3 c72 4 83 7 118 36 21 18 39 32 40 32 1 1 17 -8 35 -18z"/>
<path d="M591 1555 c-57 -30 -139 -75 -181 -100 -85 -50 -145 -65 -256 -65
-85 0 -114 -11 -137 -50 -29 -48 -22 -97 18 -137 l35 -35 142 4 143 3 160 74
c88 40 166 75 173 78 9 4 12 -18 12 -88 l0 -94 -150 -177 -149 -177 37 -29
c20 -16 60 -41 88 -55 l52 -26 -19 -88 c-23 -103 -30 -114 -171 -268 -110
-119 -128 -153 -114 -208 8 -33 49 -75 81 -83 59 -15 94 9 230 156 71 78 138
154 148 170 10 16 42 84 71 151 l53 121 45 3 46 3 7 -285 c7 -282 8 -285 32
-313 30 -37 78 -47 126 -27 60 25 64 41 71 247 4 102 9 235 12 297 l6 112 32
7 c78 17 207 90 206 117 -1 7 -66 89 -145 182 l-145 170 0 80 0 79 73 -71 c39
-39 83 -76 96 -83 13 -7 92 -34 175 -62 103 -33 159 -47 178 -43 29 7 72 51
83 85 9 27 -11 82 -38 108 -18 17 -163 72 -189 72 -4 0 -33 10 -64 21 -47 18
-82 45 -193 150 l-136 129 -220 0 -220 0 -104 -55z m519 -204 l0 -219 27 -34
c15 -18 79 -93 141 -166 127 -149 125 -138 37 -182 -125 -62 -406 -89 -592
-56 -96 16 -201 53 -241 84 l-23 18 141 164 141 165 -6 223 -6 222 191 0 190
0 0 -219z m-419 115 l2 -89 -139 -65 c-211 -98 -223 -101 -350 -102 -98 0
-115 3 -138 21 -33 26 -34 62 -1 94 22 22 33 25 107 25 142 1 134 -2 498 199
8 5 16 8 17 7 1 -1 3 -41 4 -90z m604 -67 c84 -79 115 -96 266 -143 64 -20
124 -45 133 -55 25 -27 17 -79 -15 -103 l-25 -19 -160 53 -159 53 -92 92 -93
92 0 82 0 83 37 -35 c21 -18 69 -64 108 -100z m-566 -750 c45 -7 81 -15 81
-18 0 -3 -26 -63 -58 -133 -56 -124 -60 -131 -186 -267 -130 -140 -174 -174
-204 -154 -33 20 -55 60 -48 88 4 14 60 84 125 154 66 71 123 137 129 147 5
11 15 44 21 74 23 107 32 132 46 126 7 -2 50 -10 94 -17z m421 -265 c-6 -148
-13 -279 -16 -291 -10 -48 -88 -62 -121 -22 -7 9 -14 113 -18 292 l-8 277 44
1 c24 0 62 4 84 8 22 4 41 7 43 6 1 -1 -2 -123 -8 -271z"/>
</g>
</svg>
