<?xml version="1.0" standalone="no"?>
<!DOCTYPE svg PUBLIC "-//W3C//DTD SVG 20010904//EN"
 "http://www.w3.org/TR/2001/REC-SVG-20010904/DTD/svg10.dtd">
<svg version="1.0" xmlns="http://www.w3.org/2000/svg"
 width="164.000000pt" height="260.000000pt" viewBox="0 0 164.000000 260.000000"
 preserveAspectRatio="xMidYMid meet">
<metadata>
Created by potrace 1.16, written by Peter Selinger 2001-2019
</metadata>
<g transform="translate(0.000000,260.000000) scale(0.100000,-0.100000)"
fill="#000000" stroke="none">
<path d="M252 2588 c-8 -8 -12 -54 -12 -140 l0 -128 -120 -218 -120 -218 0
-930 c0 -710 3 -933 12 -942 17 -17 1599 -17 1616 0 9 9 12 231 12 940 l0 927
-116 203 c-64 112 -123 212 -130 223 -10 14 -14 56 -14 145 0 85 -4 130 -12
138 -17 17 -1099 17 -1116 0z m1068 -143 l0 -95 -506 2 -506 3 -3 93 -3 92
509 0 509 0 0 -95z m-10 -160 c0 -2 -48 -90 -106 -195 l-106 -190 -509 0 -509
0 42 78 c24 42 72 130 108 194 l65 118 508 0 c279 0 507 -2 507 -5z m136 -195
c42 -74 85 -147 96 -162 l19 -28 -196 0 -196 0 25 43 c77 134 156 281 156 290
0 20 17 -6 96 -143z m-356 -530 l0 -280 -515 0 -515 0 0 280 0 280 515 0 515
0 0 -280z m487 -612 l3 -888 -214 0 -214 0 -1 880 c-1 484 1 885 4 890 4 7 82
9 213 8 l207 -3 2 -887z m-487 60 l0 -213 -515 3 -515 2 0 210 0 210 515 0
515 0 0 -212z m0 -608 l0 -340 -515 0 -515 0 0 340 0 340 515 0 515 0 0 -340z"/>
</g>
</svg>
