<?xml version="1.0" standalone="no"?>
<!DOCTYPE svg PUBLIC "-//W3C//DTD SVG 20010904//EN"
 "http://www.w3.org/TR/2001/REC-SVG-20010904/DTD/svg10.dtd">
<svg version="1.0" xmlns="http://www.w3.org/2000/svg"
 width="131.000000pt" height="93.000000pt" viewBox="0 0 131.000000 93.000000"
 preserveAspectRatio="xMidYMid meet">
<metadata>
Created by potrace 1.16, written by Peter Selinger 2001-2019
</metadata>
<g transform="translate(0.000000,93.000000) scale(0.100000,-0.100000)"
fill="#000000" stroke="none">
<path d="M228 703 c-126 -126 -228 -233 -228 -238 0 -6 103 -113 229 -239 199
-199 232 -228 245 -217 9 8 16 19 16 25 0 6 -88 99 -195 206 l-195 195 602 5
c580 5 603 6 606 24 2 10 -2 22 -10 27 -7 5 -278 9 -603 9 l-590 0 194 194
c190 190 216 225 171 234 -8 1 -115 -98 -242 -225z"/>
</g>
</svg>
