<?xml version="1.0" standalone="no"?>
<!DOCTYPE svg PUBLIC "-//W3C//DTD SVG 20010904//EN"
 "http://www.w3.org/TR/2001/REC-SVG-20010904/DTD/svg10.dtd">
<svg version="1.0" xmlns="http://www.w3.org/2000/svg"
 width="154.000000pt" height="174.000000pt" viewBox="0 0 154.000000 174.000000"
 preserveAspectRatio="xMidYMid meet">
<metadata>
Created by potrace 1.16, written by Peter Selinger 2001-2019
</metadata>
<g transform="translate(0.000000,174.000000) scale(0.100000,-0.100000)"
fill="#000000" stroke="none">
<path d="M80 1728 c-48 -26 -68 -71 -75 -171 -3 -50 -5 -401 -3 -779 3 -675 3
-687 24 -715 11 -15 37 -36 58 -47 66 -33 106 -16 456 190 173 102 443 260
600 351 358 208 355 206 381 259 27 57 20 103 -24 149 -19 21 -232 149 -532
321 -275 157 -560 323 -634 367 -143 86 -199 102 -251 75z m150 -71 c41 -24
145 -84 230 -133 172 -100 443 -257 770 -445 118 -68 225 -133 238 -146 28
-28 29 -81 2 -116 -11 -14 -88 -65 -172 -113 -139 -80 -296 -172 -895 -526
-112 -65 -218 -122 -238 -125 -53 -9 -91 12 -110 60 -16 38 -16 104 -10 772 4
480 10 740 17 758 11 28 49 56 78 57 9 0 49 -19 90 -43z"/>
</g>
</svg>
