<?xml version="1.0" standalone="no"?>
<!DOCTYPE svg PUBLIC "-//W3C//DTD SVG 20010904//EN"
 "http://www.w3.org/TR/2001/REC-SVG-20010904/DTD/svg10.dtd">
<svg version="1.0" xmlns="http://www.w3.org/2000/svg"
 width="211.000000pt" height="136.000000pt" viewBox="0 0 211.000000 136.000000"
 preserveAspectRatio="xMidYMid meet">
<metadata>
Created by potrace 1.16, written by Peter Selinger 2001-2019
</metadata>
<g transform="translate(0.000000,136.000000) scale(0.100000,-0.100000)"
fill="#000000" stroke="none">
<path d="M409 1336 c-149 -52 -257 -169 -298 -321 -25 -93 -111 -640 -111
-704 0 -174 107 -299 265 -309 148 -10 258 70 315 226 27 73 93 141 158 160
54 16 580 17 633 0 66 -19 118 -73 161 -165 70 -152 162 -223 288 -223 112 0
211 64 261 168 38 79 36 153 -16 482 -25 162 -53 322 -61 355 -43 166 -171
298 -329 339 -50 14 -146 16 -630 16 l-570 0 -66 -24z m1272 -36 c78 -27 123
-56 181 -117 89 -96 100 -131 164 -542 32 -206 45 -314 41 -356 -14 -189 -193
-300 -355 -219 -60 30 -103 84 -152 192 -39 85 -96 142 -167 166 -69 24 -608
23 -677 0 -74 -25 -141 -95 -177 -184 -37 -92 -67 -132 -125 -166 -133 -78
-308 -13 -358 134 -25 72 -19 149 34 468 63 375 84 439 176 525 56 52 97 78
156 99 49 17 93 19 626 19 551 1 575 0 633 -19z"/>
<path d="M1479 1111 c-63 -63 -20 -181 66 -181 47 0 88 22 103 55 36 79 -9
155 -93 155 -38 0 -52 -5 -76 -29z m125 -33 c9 -12 16 -31 16 -42 0 -28 -39
-66 -67 -66 -52 0 -82 72 -46 112 23 26 78 24 97 -4z"/>
<path d="M502 1067 c-6 -7 -12 -40 -14 -72 l-3 -60 -65 -3 c-35 -2 -70 -8 -77
-14 -8 -7 -13 -36 -13 -83 0 -47 5 -76 13 -83 7 -6 42 -12 77 -14 l65 -3 3
-65 c2 -35 8 -70 14 -77 14 -17 138 -17 161 0 12 9 17 31 19 82 l3 70 68 5
c80 6 87 13 87 91 0 76 -11 88 -90 91 l-65 3 -5 60 c-3 33 -9 66 -13 73 -11
17 -151 17 -165 -1z m138 -86 c0 -75 18 -91 103 -91 l58 0 -3 -47 -3 -48 -61
-5 c-82 -7 -92 -17 -96 -98 l-3 -67 -50 0 -50 0 -3 60 c-4 79 -18 93 -96 97
l-61 3 -3 53 -3 52 60 0 c81 0 101 19 101 95 l0 55 55 0 55 0 0 -59z"/>
<path d="M1291 924 c-36 -26 -54 -79 -41 -120 37 -110 191 -93 207 23 5 39 2
46 -30 78 -28 28 -43 35 -74 35 -21 0 -49 -7 -62 -16z m108 -50 c12 -15 21
-32 21 -39 0 -7 -9 -24 -21 -39 -38 -48 -109 -24 -109 37 0 65 70 91 109 41z"/>
<path d="M1679 911 c-67 -67 -16 -181 81 -181 49 0 100 55 100 108 0 61 -43
102 -105 102 -38 0 -52 -5 -76 -29z m125 -33 c22 -31 20 -58 -6 -85 -27 -29
-55 -29 -85 -1 -44 41 -18 108 42 108 24 0 39 -7 49 -22z"/>
<path d="M1514 741 c-61 -26 -86 -124 -43 -170 70 -75 189 -31 189 70 0 72
-81 127 -146 100z m89 -64 c24 -27 18 -66 -14 -90 -68 -50 -139 50 -72 102 30
24 58 20 86 -12z"/>
</g>
</svg>
