<?xml version="1.0" standalone="no"?>
<!DOCTYPE svg PUBLIC "-//W3C//DTD SVG 20010904//EN"
 "http://www.w3.org/TR/2001/REC-SVG-20010904/DTD/svg10.dtd">
<svg version="1.0" xmlns="http://www.w3.org/2000/svg"
 width="181.000000pt" height="131.000000pt" viewBox="0 0 181.000000 131.000000"
 preserveAspectRatio="xMidYMid meet">
<metadata>
Created by potrace 1.16, written by Peter Selinger 2001-2019
</metadata>
<g transform="translate(0.000000,131.000000) scale(0.100000,-0.100000)"
fill="#000000" stroke="none">
<path d="M1146 821 c-270 -270 -496 -491 -501 -491 -5 0 -113 103 -240 230
-171 170 -237 230 -255 230 -34 0 -150 -118 -150 -153 0 -21 61 -87 303 -331
280 -284 305 -306 337 -306 32 0 71 36 593 558 307 306 563 567 568 580 12 30
-6 64 -63 119 -86 83 -36 119 -592 -436z m572 397 c23 -23 42 -49 42 -58 0 -8
-249 -264 -554 -569 -463 -463 -557 -552 -574 -547 -28 9 -582 575 -582 596 0
20 80 100 100 100 8 0 116 -101 240 -224 124 -124 232 -225 240 -226 8 -2 23
-2 34 -1 10 0 229 214 500 486 264 267 488 486 497 485 9 0 35 -19 57 -42z"/>
</g>
</svg>
