<?xml version="1.0" standalone="no"?>
<!DOCTYPE svg PUBLIC "-//W3C//DTD SVG 20010904//EN"
 "http://www.w3.org/TR/2001/REC-SVG-20010904/DTD/svg10.dtd">
<svg version="1.0" xmlns="http://www.w3.org/2000/svg"
 width="255.000000pt" height="445.000000pt" viewBox="0 0 255.000000 445.000000"
 preserveAspectRatio="xMidYMid meet">
<metadata>
Created by potrace 1.16, written by Peter Selinger 2001-2019
</metadata>
<g transform="translate(0.000000,445.000000) scale(0.100000,-0.100000)"
fill="#000000" stroke="none">
<path d="M5 2225 c0 -1227 1 -1730 2 -1118 2 611 2 1615 0 2230 -1 615 -2 115
-2 -1112z"/>
<path d="M1490 3896 c-255 -129 -449 -196 -663 -231 -48 -8 -92 -17 -97 -20
-15 -9 -2 -567 17 -699 42 -308 159 -525 385 -713 145 -122 349 -252 457 -293
47 -18 48 -18 105 5 71 29 215 114 326 194 244 174 395 373 459 601 44 159 60
310 65 605 3 154 2 285 -2 291 -4 7 -34 17 -67 24 -243 48 -504 142 -706 255
-55 30 -107 55 -117 54 -9 0 -82 -33 -162 -73z m311 -50 c79 -41 179 -88 222
-105 93 -37 289 -95 372 -111 33 -6 71 -13 84 -16 l23 -5 -5 -282 c-7 -404
-42 -588 -147 -771 -112 -195 -370 -420 -625 -543 l-95 -46 -80 41 c-290 148
-548 381 -655 592 -88 175 -115 332 -122 712 l-5 296 48 7 c213 30 458 115
729 253 55 28 103 51 106 51 3 1 71 -32 150 -73z"/>
<path d="M1814 3059 l-284 -283 -143 141 c-134 134 -197 179 -197 141 0 -16
308 -323 333 -332 15 -5 83 58 313 286 164 163 293 299 292 307 -2 8 -9 16
-16 19 -8 2 -138 -120 -298 -279z"/>
</g>
</svg>
