<?xml version="1.0" standalone="no"?>
<!DOCTYPE svg PUBLIC "-//W3C//DTD SVG 20010904//EN"
 "http://www.w3.org/TR/2001/REC-SVG-20010904/DTD/svg10.dtd">
<svg version="1.0" xmlns="http://www.w3.org/2000/svg"
 width="211.000000pt" height="115.000000pt" viewBox="0 0 211.000000 115.000000"
 preserveAspectRatio="xMidYMid meet">
<metadata>
Created by potrace 1.16, written by Peter Selinger 2001-2019
</metadata>
<g transform="translate(0.000000,115.000000) scale(0.100000,-0.100000)"
fill="#000000" stroke="none">
<path d="M980 1119 c-41 -16 -133 -50 -205 -75 -71 -25 -138 -53 -147 -61 -11
-10 -18 -34 -20 -71 l-3 -56 -110 -44 c-378 -150 -453 -190 -481 -259 -36 -85
-5 -169 83 -233 117 -84 552 -281 684 -310 35 -8 96 -11 160 -8 121 6 149 16
509 176 355 158 552 251 588 279 53 40 74 80 69 135 -9 102 -78 147 -399 257
-188 64 -193 67 -198 96 -5 28 -19 37 -180 117 -205 102 -227 106 -350 57z
m316 -85 c87 -42 162 -81 166 -88 4 -6 8 -84 8 -173 0 -154 -1 -163 -22 -186
-29 -31 -386 -177 -431 -176 -19 0 -100 34 -197 82 -138 69 -166 86 -170 107
-3 14 -3 99 0 190 l5 164 210 77 c116 43 224 78 241 78 19 1 92 -28 190 -75z
m400 -225 c98 -33 212 -76 251 -95 144 -69 162 -164 44 -238 -44 -28 -548
-259 -762 -350 -279 -118 -372 -117 -665 5 -125 52 -365 172 -431 216 -86 57
-113 125 -78 193 29 56 58 71 407 214 76 31 139 56 140 56 2 0 2 -51 0 -114
-3 -113 -3 -115 25 -144 41 -45 338 -182 392 -182 63 0 433 153 466 192 24 28
25 35 25 169 0 76 2 139 4 139 1 0 84 -27 182 -61z"/>
<path d="M674 939 c-3 -6 -2 -14 2 -19 21 -19 322 -153 354 -157 28 -4 74 10
215 68 191 77 217 91 198 110 -9 9 -60 -8 -203 -66 l-191 -77 -47 17 c-25 10
-101 44 -169 77 -128 60 -147 66 -159 47z"/>
<path d="M1036 722 c-7 -12 -10 -242 -3 -249 4 -3 13 -3 22 1 13 5 15 24 13
127 -2 82 -7 124 -15 126 -6 2 -14 0 -17 -5z"/>
</g>
</svg>
