<?xml version="1.0" standalone="no"?>
<!DOCTYPE svg PUBLIC "-//W3C//DTD SVG 20010904//EN"
 "http://www.w3.org/TR/2001/REC-SVG-20010904/DTD/svg10.dtd">
<svg version="1.0" xmlns="http://www.w3.org/2000/svg"
 width="209.000000pt" height="164.000000pt" viewBox="0 0 209.000000 164.000000"
 preserveAspectRatio="xMidYMid meet">
<metadata>
Created by potrace 1.16, written by Peter Selinger 2001-2019
</metadata>
<g transform="translate(0.000000,164.000000) scale(0.100000,-0.100000)"
fill="#000000" stroke="none">
<path d="M937 1626 c-213 -76 -279 -343 -126 -510 165 -181 476 -112 541 118
43 157 -33 317 -183 385 -53 24 -173 28 -232 7z m216 -64 c116 -52 178 -185
143 -306 -57 -197 -316 -251 -449 -95 -46 53 -72 134 -63 192 29 182 206 281
369 209z"/>
<path d="M269 1243 c-170 -87 -170 -329 0 -415 62 -32 149 -38 204 -15 123 52
180 201 123 322 -28 60 -56 87 -116 114 -66 30 -143 28 -211 -6z m200 -54 c82
-45 113 -148 71 -233 -26 -54 -61 -82 -122 -95 -108 -25 -218 63 -218 173 0
134 151 221 269 155z"/>
<path d="M1599 1243 c-170 -87 -170 -329 0 -415 127 -65 269 -18 327 107 97
207 -121 412 -327 308z m207 -58 c114 -67 107 -253 -12 -310 -121 -57 -264 29
-264 160 0 137 154 221 276 150z"/>
<path d="M830 894 c-79 -21 -137 -58 -208 -132 l-62 -65 -39 11 c-59 18 -268
15 -324 -4 -64 -22 -139 -91 -168 -156 -21 -48 -24 -70 -27 -225 -3 -151 -2
-174 12 -179 9 -3 23 -1 31 6 12 10 15 42 15 163 0 89 5 166 12 191 18 60 92
131 159 150 88 27 299 15 299 -16 0 -5 -7 -30 -15 -56 -13 -38 -15 -96 -13
-312 3 -257 4 -265 23 -265 19 0 20 8 25 270 l5 271 33 66 c46 94 110 161 190
200 l67 33 205 0 c204 0 205 0 262 -28 69 -34 155 -124 195 -204 l28 -58 5
-267 c5 -274 9 -298 45 -284 15 5 16 33 13 278 -3 256 -4 276 -25 320 l-22 47
37 11 c20 5 81 10 134 10 123 0 190 -23 243 -82 61 -67 68 -94 74 -278 6 -156
7 -165 26 -165 19 0 20 7 20 180 0 176 -1 181 -27 230 -32 60 -77 105 -138
137 -40 20 -61 23 -188 26 -82 2 -156 -1 -173 -7 -28 -10 -33 -7 -102 63 -73
73 -129 107 -209 126 -67 15 -353 11 -418 -6z"/>
</g>
</svg>
