<?xml version="1.0" standalone="no"?>
<!DOCTYPE svg PUBLIC "-//W3C//DTD SVG 20010904//EN"
 "http://www.w3.org/TR/2001/REC-SVG-20010904/DTD/svg10.dtd">
<svg version="1.0" xmlns="http://www.w3.org/2000/svg"
 width="213.000000pt" height="172.000000pt" viewBox="0 0 213.000000 172.000000"
 preserveAspectRatio="xMidYMid meet">
<metadata>
Created by potrace 1.16, written by Peter Selinger 2001-2019
</metadata>
<g transform="translate(0.000000,172.000000) scale(0.100000,-0.100000)"
fill="#000000" stroke="none">
<path d="M1855 1643 c-288 -103 -1164 -418 -1534 -552 -167 -60 -309 -115
-315 -121 -7 -7 -7 -16 -1 -26 6 -9 120 -62 255 -118 135 -57 292 -123 350
-147 l105 -45 3 -306 c2 -269 4 -307 19 -319 14 -12 34 5 172 149 l157 162
172 -160 c95 -88 179 -160 187 -160 20 0 23 6 200 435 86 209 195 472 242 585
166 400 264 653 261 674 -5 37 -53 28 -273 -51z m125 -17 c-19 -17 -769 -592
-1039 -796 -189 -143 -205 -153 -230 -143 -102 40 -618 257 -624 263 -4 4 77
37 180 75 304 109 1180 424 1283 461 52 18 169 60 260 93 180 64 191 68 170
47z m59 -58 c-118 -300 -611 -1493 -621 -1503 -4 -5 -58 44 -430 392 l-207
193 187 142 c236 179 629 480 882 676 107 83 198 151 202 151 4 1 -2 -23 -13
-51z m-1071 -1161 l63 -57 -132 -140 c-73 -77 -134 -140 -136 -140 -2 0 -3
120 -3 267 l0 266 73 -69 c39 -38 100 -95 135 -127z"/>
</g>
</svg>
