<?xml version="1.0" standalone="no"?>
<!DOCTYPE svg PUBLIC "-//W3C//DTD SVG 20010904//EN"
 "http://www.w3.org/TR/2001/REC-SVG-20010904/DTD/svg10.dtd">
<svg version="1.0" xmlns="http://www.w3.org/2000/svg"
 width="207.000000pt" height="150.000000pt" viewBox="0 0 207.000000 150.000000"
 preserveAspectRatio="xMidYMid meet">
<metadata>
Created by potrace 1.16, written by Peter Selinger 2001-2019
</metadata>
<g transform="translate(0.000000,150.000000) scale(0.100000,-0.100000)"
fill="#000000" stroke="none">
<path d="M1620 1480 c0 -19 8 -20 184 -22 l184 -3 -391 -398 -392 -398 -44 1
c-41 0 -49 5 -125 79 -44 43 -91 84 -103 90 -30 15 -99 14 -131 -3 -32 -17
-802 -789 -802 -804 0 -40 59 13 424 377 l402 401 43 0 c41 0 48 -5 132 -87
86 -83 90 -86 142 -91 36 -3 63 1 84 11 16 9 200 189 408 401 208 212 380 386
384 386 3 0 6 -78 6 -172 0 -166 1 -173 20 -173 19 0 20 8 23 199 2 138 -1
203 -9 212 -9 11 -56 14 -225 14 -207 0 -214 -1 -214 -20z"/>
</g>
</svg>
