<?xml version="1.0" standalone="no"?>
<!DOCTYPE svg PUBLIC "-//W3C//DTD SVG 20010904//EN"
 "http://www.w3.org/TR/2001/REC-SVG-20010904/DTD/svg10.dtd">
<svg version="1.0" xmlns="http://www.w3.org/2000/svg"
 width="247.000000pt" height="218.000000pt" viewBox="0 0 247.000000 218.000000"
 preserveAspectRatio="xMidYMid meet">
<metadata>
Created by potrace 1.16, written by Peter Selinger 2001-2019
</metadata>
<g transform="translate(0.000000,218.000000) scale(0.100000,-0.100000)"
fill="#000000" stroke="none">
<path d="M314 2170 c-109 -22 -225 -113 -280 -220 l-29 -55 0 -525 0 -525 26
-55 c67 -140 223 -240 376 -240 l43 0 2 -272 c3 -243 5 -273 19 -273 9 0 141
121 294 270 l278 270 561 5 561 5 67 32 c90 42 160 110 201 192 l32 66 0 520
0 520 -27 58 c-31 66 -115 155 -176 186 -99 51 -104 51 -1037 50 -478 -1 -889
-5 -911 -9z m1856 -62 c100 -31 176 -96 219 -188 l26 -55 0 -500 0 -500 -26
-56 c-35 -75 -96 -134 -177 -172 l-67 -32 -563 -3 -562 -3 -260 -255 -260
-256 -2 253 -3 254 -82 7 c-141 13 -243 65 -302 154 -62 95 -62 92 -59 630 l3
489 28 53 c58 110 149 177 259 191 92 11 1789 2 1828 -11z"/>
<path d="M562 1707 c-20 -23 -254 -677 -248 -692 7 -18 30 -19 43 -2 5 6 17
32 26 57 9 25 26 71 37 103 l21 57 147 0 147 0 39 -102 c44 -114 57 -134 81
-124 12 4 16 14 12 34 -10 59 -264 677 -279 680 -8 2 -20 -3 -26 -11z m83
-247 c31 -80 59 -151 62 -157 4 -10 -24 -13 -120 -13 l-125 0 54 148 c30 81
56 153 59 161 3 8 7 12 9 10 2 -2 30 -69 61 -149z"/>
<path d="M1041 1706 c-9 -11 16 -47 127 -182 l139 -169 -126 -148 c-151 -178
-146 -170 -138 -191 6 -14 31 -16 215 -16 174 0 212 3 222 15 10 12 10 18 0
30 -11 13 -39 15 -182 13 -92 -2 -168 -2 -168 0 0 2 54 66 120 142 66 77 120
146 120 155 0 8 -54 79 -120 157 -66 79 -120 145 -120 148 0 3 79 5 175 5 182
0 213 7 185 40 -18 21 -431 23 -449 1z"/>
<path d="M1910 1627 l0 -63 -95 4 c-120 5 -147 -1 -143 -31 3 -19 10 -22 56
-25 l52 -3 0 -38 c0 -59 27 -134 72 -201 l41 -62 -24 -19 c-13 -11 -61 -40
-106 -65 -80 -44 -100 -68 -68 -80 15 -6 114 45 193 98 l42 29 43 -29 c82 -56
187 -106 199 -94 19 19 2 37 -78 80 -44 24 -90 51 -103 61 l-25 19 26 34 c48
64 80 140 86 205 l5 63 42 0 c51 0 75 21 54 46 -11 13 -31 15 -116 12 l-103
-3 0 63 c0 60 -1 62 -25 62 -24 0 -25 -2 -25 -63z m117 -173 c-6 -57 -40 -138
-77 -184 -20 -25 -20 -25 -36 -5 -32 39 -75 143 -81 194 l-6 51 103 0 103 0
-6 -56z"/>
</g>
</svg>
