<?xml version="1.0" standalone="no"?>
<!DOCTYPE svg PUBLIC "-//W3C//DTD SVG 20010904//EN"
 "http://www.w3.org/TR/2001/REC-SVG-20010904/DTD/svg10.dtd">
<svg version="1.0" xmlns="http://www.w3.org/2000/svg"
 width="229.000000pt" height="202.000000pt" viewBox="0 0 229.000000 202.000000"
 preserveAspectRatio="xMidYMid meet">
<metadata>
Created by potrace 1.16, written by Peter Selinger 2001-2019
</metadata>
<g transform="translate(0.000000,202.000000) scale(0.100000,-0.100000)"
fill="#000000" stroke="none">
<path d="M620 1976 c-206 -71 -244 -96 -339 -230 -66 -94 -190 -291 -246 -389
l-38 -69 24 -23 c45 -43 373 -266 389 -263 8 2 33 38 55 80 22 43 42 78 45 78
3 0 4 -251 3 -557 -2 -307 1 -563 5 -570 15 -24 324 -36 737 -29 215 4 417 10
450 14 l60 7 3 575 3 575 47 -85 c35 -63 53 -85 68 -84 21 1 393 260 400 279
5 13 -120 225 -234 398 -85 128 -138 186 -201 221 -62 33 -304 116 -341 116
-14 0 -67 -9 -117 -20 -175 -38 -375 -36 -517 6 -75 22 -120 16 -256 -30z
m515 -40 c148 0 205 3 259 17 38 10 71 15 74 13 2 -3 -5 -32 -16 -65 -38 -112
-108 -189 -208 -227 -61 -23 -183 -16 -242 15 -88 45 -169 154 -187 252 l-7
37 69 -21 c58 -18 95 -21 258 -21z m681 -64 c82 -42 160 -142 334 -428 l89
-146 -172 -122 c-95 -66 -174 -120 -176 -119 -2 1 -32 52 -65 115 -36 66 -67
113 -76 113 -13 0 -15 -78 -18 -611 l-2 -612 -148 -8 c-192 -11 -732 -11 -894
0 l-128 8 0 608 c0 412 -3 611 -10 615 -18 11 -35 -11 -94 -125 l-57 -110 -62
44 c-34 24 -111 78 -172 121 -60 42 -109 82 -107 88 7 22 136 232 216 352 94
139 137 185 203 218 63 32 270 100 281 93 5 -3 12 -21 15 -40 17 -106 111
-227 215 -278 59 -30 76 -33 152 -33 76 0 93 3 152 33 106 52 193 166 213 277
4 22 9 43 11 47 5 8 244 -71 300 -100z"/>
</g>
</svg>
