<?xml version="1.0" standalone="no"?>
<!DOCTYPE svg PUBLIC "-//W3C//DTD SVG 20010904//EN"
 "http://www.w3.org/TR/2001/REC-SVG-20010904/DTD/svg10.dtd">
<svg version="1.0" xmlns="http://www.w3.org/2000/svg"
 width="235.000000pt" height="99.000000pt" viewBox="0 0 235.000000 99.000000"
 preserveAspectRatio="xMidYMid meet">
<metadata>
Created by potrace 1.16, written by Peter Selinger 2001-2019
</metadata>
<g transform="translate(0.000000,99.000000) scale(0.100000,-0.100000)"
fill="#000000" stroke="none">
<path d="M697 975 c-21 -7 -75 -35 -120 -61 -118 -69 -135 -76 -182 -82 -84
-9 -240 49 -319 119 -38 33 -71 35 -71 5 0 -26 114 -104 202 -138 142 -55 232
-47 355 29 107 67 168 93 215 93 53 0 78 -11 178 -77 163 -107 285 -107 450 0
155 100 222 101 357 9 101 -69 147 -86 233 -85 91 0 165 24 255 81 71 44 100
71 100 93 0 32 -24 26 -80 -17 -65 -50 -144 -89 -217 -105 -79 -18 -141 0
-254 71 -173 109 -248 106 -447 -19 -131 -82 -223 -78 -363 15 -120 79 -206
100 -292 69z"/>
<path d="M10 585 c-16 -20 10 -50 92 -106 92 -63 150 -82 249 -83 93 -1 82 -5
296 109 45 24 89 39 120 42 52 5 80 -7 221 -95 124 -76 256 -80 367 -11 129
83 160 99 202 105 62 9 103 -6 211 -75 153 -98 255 -106 406 -31 104 51 178
106 174 128 -5 27 -38 26 -66 -1 -73 -68 -211 -127 -296 -127 -57 1 -102 19
-197 80 -167 107 -242 105 -424 -10 -44 -28 -96 -55 -115 -60 -87 -24 -170 -1
-293 82 -124 84 -207 87 -346 11 -182 -99 -180 -98 -262 -98 -67 0 -84 4 -150
37 -42 21 -96 55 -121 78 -25 22 -48 40 -51 40 -2 0 -10 -7 -17 -15z"/>
<path d="M3 183 c-9 -24 59 -82 160 -134 74 -39 90 -43 167 -47 102 -5 132 4
268 82 156 89 208 88 352 -4 108 -69 139 -80 232 -80 77 0 142 21 211 69 74
51 147 81 197 81 51 0 94 -18 198 -83 135 -84 253 -89 395 -19 88 43 167 104
167 128 0 31 -30 23 -91 -23 -83 -63 -159 -96 -234 -101 -78 -5 -126 8 -205
58 -95 60 -145 81 -205 87 -70 7 -129 -12 -246 -82 -166 -98 -237 -95 -404 20
-73 49 -146 70 -219 62 -48 -6 -89 -24 -245 -108 -59 -31 -71 -34 -150 -34
-76 0 -94 4 -153 32 -37 17 -87 50 -111 72 -47 44 -74 51 -84 24z"/>
</g>
</svg>
