<?xml version="1.0" standalone="no"?>
<!DOCTYPE svg PUBLIC "-//W3C//DTD SVG 20010904//EN"
 "http://www.w3.org/TR/2001/REC-SVG-20010904/DTD/svg10.dtd">
<svg version="1.0" xmlns="http://www.w3.org/2000/svg"
 width="178.000000pt" height="186.000000pt" viewBox="0 0 178.000000 186.000000"
 preserveAspectRatio="xMidYMid meet">
<metadata>
Created by potrace 1.16, written by Peter Selinger 2001-2019
</metadata>
<g transform="translate(0.000000,186.000000) scale(0.100000,-0.100000)"
fill="#000000" stroke="none">
<path d="M615 1684 c-137 -95 -332 -231 -432 -301 -101 -69 -183 -131 -183
-137 1 -27 19 -35 90 -38 l75 -3 3 -447 2 -448 -74 0 c-41 0 -78 -5 -81 -10
-4 -6 -9 -70 -12 -143 -5 -110 -3 -134 9 -145 12 -9 204 -12 889 -10 l874 3 3
85 c1 47 -1 112 -5 145 l-8 60 -73 3 -72 3 0 454 0 455 68 0 c65 0 92 10 92
35 0 22 -864 615 -895 614 -11 0 -132 -79 -270 -175z m443 -8 c316 -215 397
-271 490 -336 l93 -65 -375 -3 c-207 -1 -545 -1 -752 0 l-376 3 374 257 c205
142 374 258 376 258 2 0 79 -51 170 -114z m-628 -921 l0 -455 -100 0 -100 0 0
455 0 455 100 0 100 0 0 -455z m310 0 l0 -455 -118 0 -119 0 -6 122 c-4 66 -7
271 -7 455 l0 333 125 0 125 0 0 -455z m257 313 c-4 -79 -7 -284 -7 -455 l0
-313 -100 0 -100 0 0 455 0 455 107 0 106 0 -6 -142z m303 -313 l0 -455 -126
0 c-111 0 -125 2 -120 16 3 9 6 213 6 455 l0 439 120 0 120 0 0 -455z m260 0
l0 -455 -100 0 -100 0 0 455 0 455 100 0 100 0 0 -455z m-313 -515 l462 0 3
-85 3 -85 -822 0 -823 0 0 88 0 88 358 -3 c196 -2 565 -4 819 -3z"/>
</g>
</svg>
