<?xml version="1.0" standalone="no"?>
<!DOCTYPE svg PUBLIC "-//W3C//DTD SVG 20010904//EN"
 "http://www.w3.org/TR/2001/REC-SVG-20010904/DTD/svg10.dtd">
<svg version="1.0" xmlns="http://www.w3.org/2000/svg"
 width="175.000000pt" height="180.000000pt" viewBox="0 0 175.000000 180.000000"
 preserveAspectRatio="xMidYMid meet">
<metadata>
Created by potrace 1.16, written by Peter Selinger 2001-2019
</metadata>
<g transform="translate(0.000000,180.000000) scale(0.100000,-0.100000)"
fill="#000000" stroke="none">
<path d="M980 1778 c-63 -32 -90 -87 -90 -188 -1 -44 -8 -95 -18 -125 -37
-106 -271 -404 -370 -472 l-62 -42 -33 19 c-28 17 -50 20 -180 20 -156 0 -195
-9 -217 -49 -6 -13 -10 -171 -10 -441 l0 -422 29 -29 29 -29 165 0 c150 0 167
2 190 20 14 11 28 28 31 38 5 16 18 14 139 -28 l132 -45 397 0 c387 0 397 0
425 21 63 47 86 143 52 211 -17 31 -17 32 13 44 72 29 105 147 62 220 l-20 33
42 41 c64 62 78 139 38 217 -8 15 -23 32 -34 38 -20 11 -19 12 12 50 60 75 48
196 -26 251 -30 24 -36 24 -288 27 -142 2 -258 5 -258 8 0 3 13 43 29 88 33
93 71 259 71 309 0 97 -67 207 -138 227 -52 14 -62 13 -112 -12z m128 -48 c93
-57 95 -208 7 -466 -55 -162 -75 -148 220 -145 261 3 289 -1 332 -41 45 -42
42 -126 -6 -177 l-29 -31 -115 0 c-91 0 -117 -3 -127 -15 -22 -27 1 -33 128
-37 l124 -3 29 -33 c33 -37 39 -94 14 -142 -28 -54 -47 -60 -186 -60 -100 0
-129 -3 -139 -15 -17 -20 -7 -23 111 -28 67 -3 103 -9 121 -21 58 -38 62 -130
8 -178 -30 -27 -33 -28 -154 -28 -131 0 -156 -4 -156 -25 0 -10 28 -14 111
-17 107 -3 112 -4 135 -31 53 -62 18 -164 -64 -187 -49 -13 -628 -13 -712 1
-36 5 -120 28 -187 51 l-123 40 0 383 0 383 52 30 c68 38 132 105 257 266 138
178 161 227 175 368 7 62 18 123 26 135 29 45 94 55 148 23z m-718 -806 c11
-12 14 -105 14 -422 1 -375 0 -408 -17 -425 -25 -25 -301 -26 -329 0 -17 15
-18 42 -18 424 0 357 2 410 16 423 23 23 315 24 334 0z"/>
</g>
</svg>
