<?xml version="1.0" standalone="no"?>
<!DOCTYPE svg PUBLIC "-//W3C//DTD SVG 20010904//EN"
 "http://www.w3.org/TR/2001/REC-SVG-20010904/DTD/svg10.dtd">
<svg version="1.0" xmlns="http://www.w3.org/2000/svg"
 width="81.000000pt" height="136.000000pt" viewBox="0 0 81.000000 136.000000"
 preserveAspectRatio="xMidYMid meet">
<metadata>
Created by potrace 1.16, written by Peter Selinger 2001-2019
</metadata>
<g transform="translate(0.000000,136.000000) scale(0.100000,-0.100000)"
fill="#000000" stroke="none">
<path d="M365 1353 c-103 -15 -199 -64 -256 -132 -45 -55 -89 -150 -101 -223
-17 -99 -17 -99 104 -96 l101 3 14 58 c17 76 36 110 78 142 63 49 161 46 220
-6 95 -84 84 -248 -28 -394 -17 -22 -136 -146 -264 -276 l-234 -236 3 -94 3
-94 400 0 400 0 0 100 0 100 -238 0 c-130 0 -237 2 -237 4 0 5 51 61 196 217
157 168 189 208 228 289 74 151 74 310 2 453 -50 98 -124 150 -254 177 -67 15
-82 16 -137 8z m176 -54 c170 -58 267 -269 215 -465 -35 -131 -71 -177 -452
-586 l-72 -78 269 0 269 0 0 -65 0 -65 -365 0 -365 0 0 67 0 66 228 231 c317
321 369 401 360 551 -9 141 -90 225 -217 225 -115 0 -196 -76 -225 -212 -6
-27 -8 -28 -77 -28 l-70 0 6 38 c29 172 124 284 275 327 60 16 162 14 221 -6z"/>
</g>
</svg>
