<?xml version="1.0" standalone="no"?>
<!DOCTYPE svg PUBLIC "-//W3C//DTD SVG 20010904//EN"
 "http://www.w3.org/TR/2001/REC-SVG-20010904/DTD/svg10.dtd">
<svg version="1.0" xmlns="http://www.w3.org/2000/svg"
 width="717.000000pt" height="977.000000pt" viewBox="0 0 717.000000 977.000000"
 preserveAspectRatio="xMidYMid meet">
<metadata>
Created by potrace 1.16, written by Peter Selinger 2001-2019
</metadata>
<g transform="translate(0.000000,977.000000) scale(0.100000,-0.100000)"
fill="#000000" stroke="none">
<path d="M1835 9760 c-3 -5 -21 -10 -40 -10 -19 0 -37 -4 -40 -10 -3 -5 -22
-10 -41 -10 -19 0 -34 -4 -34 -10 0 -5 -9 -10 -20 -10 -11 0 -28 -4 -38 -9
-15 -9 -60 -22 -87 -26 -20 -3 -63 -24 -70 -34 -3 -6 -25 -20 -49 -31 -23 -10
-49 -26 -56 -35 -7 -8 -17 -15 -22 -15 -16 0 -208 -194 -208 -210 0 -8 -9 -21
-20 -28 -11 -7 -20 -18 -20 -26 0 -7 -9 -21 -20 -31 -11 -10 -20 -23 -20 -30
0 -7 -9 -20 -20 -30 -11 -10 -20 -26 -20 -35 0 -9 -8 -32 -17 -51 -10 -19 -16
-41 -15 -51 2 -9 -2 -19 -8 -23 -5 -3 -10 -26 -10 -51 0 -24 -4 -44 -10 -44
-14 0 -14 -357 0 -365 6 -3 10 -30 10 -60 0 -30 5 -57 11 -61 6 -3 9 -17 6
-30 -2 -13 1 -32 8 -41 7 -9 10 -25 7 -35 -2 -10 1 -18 7 -18 6 0 11 -9 11
-20 0 -11 5 -20 10 -20 6 0 10 -11 10 -24 0 -13 7 -29 15 -36 9 -7 24 -32 35
-54 21 -47 229 -255 275 -276 17 -8 39 -22 50 -31 11 -9 35 -22 53 -30 17 -8
32 -17 32 -21 0 -5 9 -8 20 -8 11 0 20 -4 20 -10 0 -5 9 -10 20 -10 11 0 20
-4 20 -10 0 -5 9 -10 19 -10 11 0 21 -3 23 -7 6 -15 89 -52 102 -47 8 3 17 1
21 -5 3 -6 26 -11 50 -11 24 0 47 -4 50 -10 8 -12 322 -14 329 -1 3 4 38 11
78 15 40 4 77 11 82 16 6 6 20 10 32 10 13 0 26 5 29 10 3 6 14 10 24 10 23 0
75 26 91 45 7 8 18 15 24 15 7 0 25 14 41 30 16 17 34 30 40 30 14 0 225 212
225 226 0 6 9 19 20 29 11 10 20 24 20 30 0 7 7 18 15 25 14 11 60 100 57 107
-1 2 7 19 18 38 14 25 20 54 20 100 0 35 5 67 10 70 6 3 10 26 10 50 0 24 5
47 10 50 6 4 10 60 10 135 0 75 -4 131 -10 135 -5 3 -10 26 -10 51 0 24 -4 44
-10 44 -6 0 -10 28 -10 64 0 36 -5 68 -11 71 -6 4 -8 14 -4 22 3 9 -1 23 -9
32 -8 9 -14 18 -14 21 3 12 -38 86 -54 101 -10 9 -18 22 -18 28 0 7 -22 34
-50 61 -27 27 -50 53 -50 58 0 13 -80 92 -92 92 -5 0 -27 18 -48 40 -21 22
-44 40 -51 40 -6 0 -19 8 -28 18 -9 10 -43 30 -76 46 -33 15 -68 31 -77 37
-10 5 -27 9 -37 9 -11 0 -23 5 -26 10 -3 6 -22 10 -41 10 -19 0 -34 5 -34 10
0 6 -20 10 -44 10 -25 0 -48 5 -51 10 -4 6 -70 10 -165 10 -95 0 -161 -4 -165
-10z m290 -59 c3 -5 41 -13 85 -17 44 -3 83 -11 86 -15 3 -5 16 -9 30 -9 13 0
24 -4 24 -10 0 -5 9 -10 20 -10 11 0 20 -4 20 -8 0 -5 16 -14 35 -22 20 -8 43
-22 52 -32 9 -10 21 -18 28 -18 6 0 29 -18 50 -40 21 -22 44 -40 49 -40 14 0
146 -132 146 -145 0 -6 14 -24 30 -40 17 -16 30 -34 30 -40 0 -7 9 -20 20 -30
11 -10 20 -24 20 -31 0 -8 9 -19 20 -26 11 -7 20 -21 20 -30 0 -10 5 -18 10
-18 6 0 10 -13 10 -30 0 -16 5 -30 10 -30 6 0 10 -28 10 -64 0 -36 4 -67 10
-71 5 -3 8 -22 6 -43 -2 -20 1 -43 7 -50 10 -13 10 -179 -1 -196 -3 -6 -5 -25
-3 -42 1 -18 -2 -35 -8 -39 -6 -3 -11 -37 -11 -74 0 -63 -16 -121 -32 -121 -5
0 -8 -9 -8 -20 0 -11 -4 -20 -10 -20 -5 0 -10 -9 -10 -20 0 -11 -4 -20 -10
-20 -5 0 -10 -8 -10 -18 0 -10 -9 -24 -20 -32 -11 -8 -20 -20 -20 -27 0 -7
-18 -29 -40 -49 -22 -20 -38 -39 -35 -42 7 -8 -146 -162 -161 -162 -6 0 -21
-11 -34 -25 -13 -14 -29 -25 -37 -25 -7 0 -18 -9 -25 -20 -7 -11 -21 -20 -30
-20 -10 0 -18 -4 -18 -10 0 -5 -9 -10 -20 -10 -11 0 -20 -4 -20 -10 0 -5 -9
-10 -20 -10 -11 0 -20 -4 -20 -10 0 -5 -11 -10 -24 -10 -14 0 -28 -4 -31 -10
-3 -5 -21 -10 -40 -10 -19 0 -37 -4 -40 -10 -3 -5 -26 -10 -51 -10 -24 0 -44
-4 -44 -10 0 -6 -46 -10 -119 -10 -69 0 -122 4 -126 10 -3 6 -26 10 -51 10
-24 0 -44 5 -44 10 0 6 -8 10 -18 10 -19 0 -261 118 -288 141 -17 14 -47 33
-74 45 -8 4 -27 20 -42 36 -14 15 -31 28 -38 28 -13 0 -120 108 -120 121 0 4
-11 19 -25 33 -14 14 -25 32 -25 41 0 8 -4 15 -10 15 -5 0 -10 8 -10 18 0 10
-9 24 -20 32 -11 8 -20 22 -20 32 0 10 -4 18 -10 18 -5 0 -10 11 -10 24 0 14
-5 28 -10 31 -5 3 -10 17 -10 30 0 13 -5 27 -10 30 -5 3 -10 22 -10 41 0 19
-4 34 -10 34 -5 0 -10 24 -10 54 0 30 -4 58 -10 61 -6 4 -10 58 -10 130 0 72
4 126 10 130 6 3 10 26 10 50 0 24 5 47 10 50 6 3 10 17 10 31 0 13 5 24 10
24 6 0 10 9 10 20 0 11 5 20 10 20 6 0 10 9 10 20 0 11 5 20 10 20 6 0 10 7
10 16 0 9 8 24 18 33 9 9 24 30 32 46 8 17 27 45 44 63 16 17 26 32 21 32 -5
0 20 29 55 65 35 36 69 65 75 65 6 0 24 14 40 30 16 17 34 30 40 30 7 0 20 9
30 20 10 11 24 20 32 20 7 0 13 5 13 10 0 6 9 10 20 10 11 0 20 5 20 10 0 6 9
10 20 10 11 0 20 5 20 10 0 6 9 10 20 10 11 0 35 9 55 20 20 11 44 20 55 20
10 0 21 4 24 9 3 5 37 12 76 16 38 4 70 11 70 16 0 12 247 12 255 0z"/>
<path d="M1090 7554 c-58 -30 -111 -54 -117 -54 -7 0 -13 -4 -13 -10 0 -5 -8
-10 -18 -10 -10 0 -24 -9 -32 -20 -8 -11 -21 -20 -30 -20 -9 0 -22 -9 -30 -20
-8 -11 -19 -20 -25 -20 -6 0 -29 -18 -50 -40 -21 -22 -44 -40 -50 -40 -13 0
-185 -172 -185 -186 0 -6 -14 -23 -30 -39 -17 -16 -30 -35 -30 -42 0 -7 -9
-18 -20 -25 -11 -7 -20 -21 -20 -30 0 -10 -4 -18 -10 -18 -5 0 -10 -9 -10 -20
0 -11 -4 -20 -10 -20 -5 0 -10 -9 -10 -20 0 -11 -3 -20 -7 -20 -11 0 -33 -50
-33 -71 0 -10 -5 -21 -11 -25 -6 -3 -9 -15 -6 -25 3 -10 -1 -23 -9 -30 -8 -7
-12 -22 -9 -40 3 -15 1 -31 -5 -34 -5 -3 -10 -22 -10 -41 0 -19 -4 -34 -10
-34 -5 0 -10 -24 -10 -54 0 -30 -4 -58 -10 -61 -6 -3 -10 -40 -10 -81 0 -43
-4 -74 -10 -74 -6 0 -10 -35 -10 -85 0 -50 -4 -85 -10 -85 -6 0 -10 -31 -10
-74 0 -41 -5 -78 -10 -81 -6 -3 -10 -40 -10 -81 0 -43 -4 -74 -10 -74 -6 0
-10 -31 -10 -74 0 -41 -5 -78 -10 -81 -6 -3 -10 -37 -10 -75 0 -38 -4 -72 -10
-75 -5 -3 -10 -35 -10 -70 0 -35 -5 -67 -10 -70 -6 -3 -10 -37 -10 -75 0 -38
-5 -72 -10 -75 -6 -4 -10 -33 -9 -64 1 -32 -2 -64 -6 -71 -5 -8 -7 -37 -6 -66
1 -29 -2 -55 -8 -59 -6 -3 -11 -35 -11 -71 0 -36 -4 -64 -10 -64 -5 0 -10 -24
-10 -54 0 -30 -4 -58 -10 -61 -5 -3 -10 -31 -10 -61 0 -30 -4 -54 -10 -54 -6
0 -10 -35 -10 -85 0 -50 -4 -85 -10 -85 -6 0 -10 -75 -10 -205 0 -113 3 -205
8 -205 4 0 13 -15 21 -32 15 -37 109 -138 127 -138 6 0 17 -7 24 -15 29 -35
71 -45 195 -45 124 0 166 10 195 45 7 8 17 15 22 15 13 0 38 26 38 41 0 6 8
19 18 28 9 9 28 39 42 66 28 58 58 95 77 95 7 0 13 5 13 11 0 6 5 9 10 7 7 -2
10 -558 10 -1680 0 -1114 3 -1679 10 -1683 6 -4 10 -69 10 -166 0 -99 4 -159
10 -159 6 0 10 -11 10 -24 0 -14 4 -28 10 -31 5 -3 10 -14 10 -24 0 -22 47
-116 65 -131 8 -7 15 -18 15 -24 0 -14 69 -83 102 -101 86 -48 125 -65 149
-65 15 0 31 -5 34 -10 8 -13 262 -13 270 0 3 6 26 10 51 10 24 0 44 3 44 8 0
4 17 15 38 25 20 10 48 24 61 31 30 18 111 97 111 110 0 5 7 18 17 28 19 21
40 56 49 81 3 9 10 17 15 17 5 0 9 9 9 20 0 11 5 20 10 20 6 0 10 7 10 16 0
18 23 44 40 44 17 0 40 -26 40 -44 0 -9 5 -16 10 -16 6 0 10 -8 10 -18 0 -60
151 -244 211 -257 15 -3 35 -15 45 -26 9 -10 28 -19 41 -19 12 0 23 -4 23 -10
0 -6 65 -10 175 -10 110 0 175 4 175 10 0 6 15 10 34 10 19 0 38 5 41 10 3 6
16 10 28 11 12 0 36 9 52 20 17 10 37 22 45 25 23 10 100 87 100 99 0 6 11 22
25 35 38 35 55 77 55 132 0 26 5 48 10 48 6 0 10 80 10 220 0 140 4 220 10
220 7 0 10 283 10 829 0 543 3 832 10 836 7 4 10 440 10 1276 0 898 3 1269 11
1269 6 0 9 19 8 50 -3 60 4 70 30 39 13 -15 20 -39 21 -66 0 -24 5 -43 10 -43
6 0 10 -20 10 -44 0 -25 5 -48 10 -51 6 -3 10 -21 10 -40 0 -19 5 -37 10 -40
6 -3 10 -26 10 -51 0 -24 5 -44 10 -44 6 0 10 -20 10 -44 0 -25 5 -48 10 -51
6 -3 10 -21 10 -40 0 -19 5 -37 10 -40 6 -3 10 -26 10 -51 0 -24 5 -44 10 -44
6 0 10 -15 10 -34 0 -19 5 -38 10 -41 6 -3 10 -21 10 -40 0 -19 5 -37 10 -40
6 -3 10 -21 10 -40 0 -19 5 -37 11 -40 5 -4 9 -17 8 -28 -2 -12 2 -31 8 -42 6
-11 8 -25 6 -32 -2 -6 1 -14 6 -18 6 -3 11 -17 11 -30 0 -13 5 -27 10 -30 6
-3 10 -14 10 -25 0 -20 40 -103 53 -108 4 -2 7 -10 7 -18 0 -25 84 -100 143
-128 57 -28 61 -28 205 -24 132 4 152 7 192 29 25 13 47 27 48 32 2 4 10 7 18
7 19 0 84 65 84 85 0 8 5 15 10 15 6 0 10 6 10 13 0 8 9 22 20 32 11 10 19 26
18 35 -2 9 2 23 9 31 6 8 12 19 12 24 1 14 171 19 185 5 5 -5 38 -10 73 -10
35 0 63 -4 63 -10 0 -6 35 -10 84 -10 47 0 88 -4 91 -10 8 -14 482 -14 490 0
3 6 17 10 30 10 13 0 27 5 30 10 3 6 21 10 40 10 19 0 37 5 40 10 3 6 17 10
31 10 13 0 24 5 24 10 0 6 9 10 20 10 11 0 20 5 20 10 0 6 11 10 24 10 14 0
28 5 31 10 4 6 80 10 196 10 119 0 189 4 189 10 0 6 14 10 30 10 17 0 38 4 48
9 15 9 60 22 87 26 22 3 62 24 74 39 7 9 19 16 26 16 6 0 20 9 30 20 10 11 23
20 29 20 6 0 53 42 104 93 90 90 162 201 162 248 0 10 4 21 10 24 6 3 10 37
10 75 0 38 4 72 10 75 13 8 13 242 0 250 -6 3 -10 31 -10 61 0 30 -4 54 -10
54 -5 0 -10 18 -10 39 0 22 -4 41 -8 43 -4 2 -20 28 -36 58 -15 30 -34 66 -41
79 -18 32 -127 141 -141 141 -6 0 -17 7 -24 15 -16 19 -68 45 -92 45 -10 0
-18 5 -18 10 0 6 -13 10 -30 10 -16 0 -30 5 -30 10 0 6 -11 10 -24 10 -14 0
-28 5 -31 10 -3 6 -21 10 -40 10 -19 0 -37 5 -40 10 -4 6 -65 10 -150 10 -85
0 -146 -4 -150 -10 -3 -5 -30 -10 -60 -10 -30 0 -57 -4 -60 -10 -3 -5 -17 -10
-31 -10 -13 0 -24 -4 -24 -10 0 -5 -13 -10 -30 -10 -16 0 -30 -4 -30 -8 0 -5
-16 -14 -35 -22 -20 -8 -43 -22 -52 -32 -9 -10 -21 -18 -27 -18 -15 0 -136
-122 -136 -136 0 -6 -9 -19 -20 -29 -11 -10 -20 -22 -20 -26 0 -16 -35 -89
-42 -89 -5 0 -8 -9 -8 -20 0 -11 -4 -20 -10 -20 -5 0 -10 -9 -10 -20 0 -11 -4
-20 -10 -20 -5 0 -10 -15 -10 -34 0 -19 -4 -38 -10 -41 -5 -3 -10 -17 -10 -30
0 -13 -4 -27 -10 -30 -6 -4 -10 -57 -10 -126 0 -73 4 -119 10 -119 6 0 10 -13
10 -30 0 -16 5 -30 10 -30 6 0 10 -13 10 -30 0 -16 5 -30 10 -30 6 0 10 -10
11 -22 0 -13 14 -45 30 -73 15 -27 32 -59 38 -70 5 -12 16 -27 25 -34 9 -7 16
-19 16 -25 0 -13 181 -196 194 -196 5 0 18 -7 28 -17 10 -9 28 -21 39 -27 12
-6 22 -15 22 -21 0 -14 -54 -43 -80 -44 -12 -1 -25 -5 -28 -11 -3 -5 -22 -10
-41 -10 -19 0 -34 -4 -34 -10 0 -5 -13 -10 -30 -10 -16 0 -30 -4 -30 -10 0 -6
-77 -10 -210 -10 -133 0 -210 4 -210 10 0 6 -35 10 -84 10 -47 0 -88 5 -91 10
-3 6 -33 10 -65 10 -32 0 -62 5 -65 10 -4 6 -53 10 -114 10 -115 0 -140 10
-133 52 2 10 -2 18 -7 18 -6 0 -11 14 -11 30 0 17 -4 30 -10 30 -5 0 -10 11
-10 24 0 14 -4 28 -10 31 -5 3 -10 21 -10 40 0 19 -4 37 -10 40 -5 3 -10 26
-10 51 0 24 -4 44 -10 44 -5 0 -10 18 -10 40 0 22 -4 40 -10 40 -5 0 -10 15
-10 34 0 19 -4 38 -10 41 -5 3 -10 22 -10 41 0 19 -4 34 -10 34 -5 0 -10 23
-10 50 0 28 -4 50 -10 50 -5 0 -10 15 -10 34 0 19 -5 38 -11 41 -6 4 -9 24 -8
44 2 20 -1 43 -6 51 -5 8 -8 27 -6 42 1 16 -2 28 -8 28 -6 0 -11 19 -11 44 0
25 -4 48 -10 51 -5 3 -10 21 -10 40 0 19 -4 37 -10 40 -5 3 -10 26 -10 51 0
24 -4 44 -10 44 -5 0 -10 20 -10 44 0 25 -4 48 -10 51 -5 3 -10 26 -10 50 0
24 -5 47 -10 50 -6 3 -10 22 -10 41 0 19 -4 34 -10 34 -5 0 -10 20 -10 44 0
25 -4 48 -10 51 -5 3 -10 26 -10 50 0 24 -4 47 -10 50 -5 3 -10 26 -10 51 0
24 -4 44 -10 44 -5 0 -10 15 -10 34 0 19 -4 38 -10 41 -5 3 -8 24 -6 45 2 22
0 43 -5 46 -5 3 -9 25 -9 50 0 24 -4 44 -10 44 -5 0 -10 18 -10 40 0 22 -4 40
-10 40 -5 0 -10 15 -10 34 0 19 -4 38 -10 41 -5 3 -10 21 -10 40 0 19 -4 37
-10 40 -5 3 -10 26 -10 51 0 24 -4 44 -10 44 -5 0 -10 15 -10 34 0 19 -4 38
-10 41 -5 3 -10 17 -10 30 0 13 -4 27 -10 30 -5 3 -10 17 -10 31 0 13 -4 24
-10 24 -5 0 -10 9 -10 20 0 11 -4 20 -10 20 -5 0 -10 14 -10 30 0 17 -5 30
-11 30 -5 0 -9 8 -7 18 3 20 -75 184 -97 202 -8 7 -15 18 -15 24 0 7 -13 25
-30 41 -16 16 -30 34 -30 40 0 14 -212 225 -226 225 -7 0 -17 7 -24 15 -7 9
-33 25 -56 35 -24 11 -46 24 -49 30 -6 9 -34 23 -122 61 -18 8 -33 17 -33 21
0 5 -9 8 -20 8 -11 0 -20 5 -20 10 0 6 -13 10 -30 10 -16 0 -30 3 -30 8 0 11
-57 34 -77 30 -22 -4 -29 -34 -12 -54 14 -17 91 -54 112 -54 17 0 141 -62 145
-72 2 -5 11 -8 21 -8 9 0 23 -9 31 -20 8 -11 21 -20 28 -20 8 0 27 -13 42 -30
15 -16 32 -30 37 -30 5 0 20 -11 33 -25 13 -14 28 -25 34 -25 15 0 168 -154
161 -162 -3 -3 8 -17 25 -31 16 -14 30 -33 30 -41 0 -9 5 -16 10 -16 6 0 10
-9 10 -20 0 -11 5 -20 10 -20 6 0 10 -9 10 -20 0 -11 5 -20 10 -20 6 0 10 -9
10 -19 0 -10 6 -21 14 -24 16 -7 46 -63 46 -88 0 -10 4 -21 10 -24 6 -3 10
-17 10 -30 0 -13 5 -27 11 -30 6 -4 8 -13 5 -20 -2 -7 1 -21 8 -31 7 -9 11
-26 8 -36 -2 -10 1 -18 7 -18 6 0 11 -13 11 -30 0 -16 5 -30 10 -30 6 0 10
-15 10 -34 0 -19 5 -38 10 -41 6 -3 10 -21 10 -40 0 -19 5 -37 10 -40 6 -3 10
-22 10 -41 0 -19 5 -34 10 -34 6 0 10 -18 10 -40 0 -22 5 -40 10 -40 6 0 10
-15 10 -34 0 -19 5 -38 10 -41 6 -3 10 -26 10 -51 0 -24 5 -44 10 -44 6 0 10
-20 10 -44 0 -25 5 -48 10 -51 6 -3 10 -21 10 -40 0 -19 5 -37 10 -40 6 -3 10
-26 10 -50 0 -24 4 -46 8 -49 5 -3 7 -21 6 -40 -2 -20 1 -38 6 -41 6 -4 10
-26 10 -50 0 -24 5 -47 10 -50 6 -3 10 -21 10 -40 0 -19 5 -37 10 -40 6 -3 10
-26 10 -51 0 -24 5 -44 10 -44 6 0 10 -20 10 -44 0 -25 5 -48 10 -51 6 -3 10
-26 10 -51 0 -24 5 -44 10 -44 6 0 10 -18 10 -40 0 -22 5 -40 10 -40 6 0 10
-20 10 -44 0 -25 5 -48 10 -51 6 -3 10 -21 10 -40 0 -19 5 -37 10 -40 6 -3 10
-26 10 -51 0 -24 5 -44 10 -44 6 0 10 -15 10 -34 0 -19 5 -38 11 -42 7 -4 9
-22 6 -45 -3 -24 0 -42 7 -48 7 -6 11 -24 8 -41 -3 -18 0 -30 7 -30 6 0 11
-17 11 -40 0 -22 5 -40 10 -40 6 0 10 -15 10 -34 0 -19 5 -38 10 -41 6 -3 10
-26 10 -51 0 -24 5 -44 10 -44 6 0 10 -18 10 -40 0 -22 5 -40 10 -40 6 0 10
-11 10 -24 0 -14 5 -28 10 -31 6 -3 10 -17 10 -30 0 -13 5 -27 10 -30 6 -3 10
-16 10 -29 0 -12 5 -27 12 -34 9 -9 9 -15 0 -24 -7 -7 -12 -22 -12 -33 0 -12
-9 -30 -20 -40 -11 -10 -20 -23 -20 -29 0 -36 -163 -156 -212 -156 -10 0 -18
-4 -18 -10 0 -6 -35 -10 -85 -10 -50 0 -85 4 -85 10 0 6 -9 10 -20 10 -11 0
-20 5 -20 10 0 6 -11 10 -24 10 -13 0 -30 7 -37 16 -7 9 -24 20 -36 25 -13 5
-27 19 -32 32 -5 12 -16 29 -25 36 -9 7 -16 20 -16 27 0 8 -4 14 -10 14 -5 0
-10 9 -10 20 0 11 -4 20 -10 20 -5 0 -10 14 -10 30 0 17 -4 30 -10 30 -5 0
-10 14 -10 30 0 17 -4 30 -10 30 -5 0 -10 11 -10 24 0 14 -4 28 -10 31 -5 3
-10 21 -10 40 0 19 -4 37 -10 40 -5 3 -10 22 -10 41 0 19 -4 34 -10 34 -5 0
-10 15 -10 34 0 19 -5 38 -10 41 -6 3 -8 19 -5 35 3 16 1 32 -5 35 -5 3 -10
26 -10 50 0 24 -4 47 -10 50 -5 3 -10 22 -10 41 0 19 -4 34 -10 34 -5 0 -10
20 -10 44 0 25 -4 48 -10 51 -5 3 -10 26 -10 51 0 24 -4 44 -10 44 -5 0 -10
18 -10 40 0 22 -4 40 -10 40 -5 0 -10 20 -10 44 0 25 -4 48 -10 51 -5 3 -10
26 -10 51 0 24 -4 44 -10 44 -5 0 -10 8 -10 18 0 9 -10 22 -22 27 -37 16 -51
60 -49 151 1 49 -2 85 -8 89 -7 4 -11 58 -11 144 0 75 -4 141 -10 147 -5 5
-10 45 -12 89 -3 78 -4 80 -28 80 -25 0 -25 -1 -28 -99 -2 -59 1 -103 8 -110
6 -6 10 -66 10 -148 0 -85 4 -138 10 -138 6 0 10 -38 10 -95 0 -57 -4 -95 -10
-95 -6 0 -10 -28 -10 -64 0 -36 -4 -68 -10 -71 -7 -4 -10 -440 -10 -1276 0
-839 -3 -1269 -10 -1269 -7 0 -10 -283 -10 -829 0 -543 -3 -832 -10 -836 -6
-4 -10 -88 -10 -220 0 -132 -4 -216 -10 -220 -6 -3 -10 -26 -10 -51 0 -24 -4
-44 -10 -44 -5 0 -10 -9 -10 -19 0 -10 -7 -21 -15 -25 -8 -3 -15 -11 -15 -18
0 -20 -125 -148 -144 -148 -9 0 -16 -4 -16 -10 0 -5 -9 -10 -20 -10 -11 0 -20
-3 -20 -8 0 -4 -15 -14 -32 -22 -25 -12 -74 -15 -210 -15 -169 0 -177 1 -200
23 -14 12 -27 22 -31 22 -9 0 -177 167 -177 176 0 3 -9 17 -20 31 -11 14 -17
29 -15 34 3 4 -4 24 -15 44 -11 19 -20 45 -20 56 0 12 -8 23 -20 26 -20 5 -20
14 -20 879 0 571 -3 875 -10 879 -14 8 -14 452 0 460 6 4 10 82 10 200 0 118
-4 196 -10 200 -13 8 -13 68 1 82 5 5 9 32 7 59 -3 45 -5 49 -28 49 -22 0 -25
-5 -28 -37 -2 -21 -7 -38 -13 -38 -5 0 -9 -34 -9 -75 0 -43 4 -75 10 -75 6 0
10 -62 10 -165 0 -103 -4 -165 -10 -165 -6 0 -10 -95 -10 -265 0 -171 4 -265
10 -265 7 0 9 -289 8 -862 l-3 -862 -23 -12 c-21 -10 -43 -40 -51 -69 -8 -30
-42 -93 -56 -105 -8 -7 -15 -19 -15 -26 0 -8 -9 -19 -20 -26 -11 -7 -20 -19
-20 -26 0 -14 -64 -82 -78 -82 -5 0 -15 -7 -22 -15 -20 -24 -71 -45 -127 -52
-29 -3 -56 -10 -59 -14 -7 -12 -191 -12 -198 0 -3 5 -26 12 -50 15 -24 4 -52
16 -61 26 -10 11 -23 20 -29 20 -15 0 -136 122 -136 136 0 6 -9 19 -20 29 -11
10 -20 24 -20 32 0 7 -4 13 -10 13 -5 0 -10 14 -10 30 0 17 -4 30 -10 30 -5 0
-10 14 -10 30 0 17 -4 30 -10 30 -6 0 -10 60 -10 159 0 96 -4 162 -10 166 -7
4 -10 580 -10 1696 0 1119 -3 1689 -10 1689 -5 0 -10 11 -10 24 0 14 5 28 10
31 6 4 10 57 10 125 0 68 4 121 10 125 6 4 10 63 10 146 0 86 4 139 10 139 6
0 10 55 10 145 0 90 4 145 10 145 6 0 10 32 10 75 0 43 4 75 10 75 6 0 10 55
10 145 0 90 4 145 10 145 6 0 10 35 10 84 0 47 5 88 10 91 6 3 10 28 10 56 0
48 -1 49 -30 49 -28 0 -30 -3 -30 -35 0 -19 -4 -35 -10 -35 -6 0 -10 -35 -10
-84 0 -47 -4 -88 -10 -91 -6 -4 -10 -63 -10 -146 0 -86 -4 -139 -10 -139 -6 0
-10 -31 -10 -74 0 -41 -4 -78 -10 -81 -6 -4 -10 -63 -10 -145 0 -82 -4 -141
-10 -145 -6 -4 -10 -63 -10 -146 0 -86 -4 -139 -10 -139 -6 0 -10 -48 -10
-125 0 -71 -4 -125 -9 -125 -6 0 -11 -17 -13 -37 -2 -28 -9 -41 -25 -48 -13
-5 -23 -13 -23 -17 0 -5 -9 -8 -20 -8 -13 0 -20 -7 -20 -18 0 -10 -9 -24 -20
-32 -11 -8 -20 -22 -20 -32 0 -10 -3 -18 -8 -18 -4 0 -13 -15 -21 -32 -16 -37
-69 -98 -86 -98 -6 0 -24 -13 -40 -30 -28 -29 -31 -30 -127 -30 -59 0 -98 4
-98 10 0 6 -8 10 -18 10 -10 0 -24 9 -32 20 -8 11 -20 20 -28 20 -17 0 -78 62
-87 89 -3 11 -11 21 -16 21 -5 0 -9 9 -9 20 0 11 -4 20 -10 20 -5 0 -10 19
-10 43 0 24 -6 49 -12 55 -10 10 -10 17 0 32 7 12 12 56 12 110 0 53 4 90 10
90 6 0 10 35 10 84 0 50 4 88 11 91 6 4 9 27 8 51 -2 24 2 49 7 54 6 6 9 32 6
59 -2 30 0 51 7 55 6 4 11 35 11 72 0 36 4 64 10 64 6 0 10 28 10 64 0 36 4
68 10 71 5 3 10 35 10 71 0 36 4 64 10 64 6 0 10 32 10 75 0 43 4 75 10 75 6
0 10 28 10 64 0 36 4 68 10 71 5 3 10 40 10 81 0 43 4 74 10 74 6 0 10 31 10
74 0 41 4 78 10 81 5 3 10 40 10 81 0 43 4 74 10 74 6 0 10 31 10 74 0 41 5
78 10 81 6 3 10 42 10 85 0 43 4 81 9 85 5 3 9 35 9 70 -1 36 2 68 6 72 3 3 6
30 6 59 0 29 5 56 10 59 6 3 10 21 10 40 0 19 5 37 10 40 6 3 10 22 10 41 0
19 5 34 10 34 6 0 10 14 10 30 0 17 5 30 10 30 6 0 10 8 10 17 0 23 67 158 85
173 8 7 15 18 15 24 0 7 11 23 25 36 14 13 25 28 25 33 0 12 204 217 216 217
6 0 25 16 44 35 19 19 39 35 45 35 6 0 22 12 36 26 13 14 43 34 66 45 23 10
44 23 48 28 8 14 104 58 141 66 38 7 74 46 74 80 0 37 -29 31 -150 -31z m4840
-1904 c0 -5 15 -10 34 -10 19 0 38 -4 41 -10 3 -5 17 -10 30 -10 13 0 27 -4
30 -10 3 -5 14 -10 24 -10 10 0 40 -11 67 -25 27 -14 52 -25 57 -25 14 0 177
-170 177 -185 0 -8 3 -15 8 -15 6 0 45 -75 46 -92 1 -3 4 -10 9 -14 4 -4 7
-18 7 -30 0 -13 5 -26 10 -29 6 -3 10 -35 10 -71 0 -36 4 -64 10 -64 6 0 10
-31 10 -74 0 -41 -4 -78 -10 -81 -5 -3 -10 -39 -10 -80 0 -41 -5 -77 -11 -80
-5 -4 -8 -12 -6 -18 5 -15 -17 -59 -37 -76 -9 -8 -16 -20 -16 -28 0 -8 -13
-28 -30 -43 -16 -15 -30 -33 -30 -39 0 -13 -81 -90 -96 -91 -5 0 -23 -13 -39
-30 -16 -16 -34 -30 -40 -30 -6 0 -17 -9 -25 -20 -8 -11 -21 -20 -30 -20 -9 0
-22 -9 -30 -20 -8 -11 -24 -20 -37 -20 -12 0 -25 -4 -28 -10 -3 -5 -17 -10
-30 -10 -13 0 -27 -4 -30 -10 -3 -5 -21 -10 -40 -10 -19 0 -36 -4 -40 -9 -3
-6 -74 -10 -161 -10 -162 0 -194 7 -194 41 0 11 -7 18 -18 18 -10 0 -24 9 -32
20 -8 11 -19 20 -25 20 -16 0 -235 218 -235 233 0 7 -9 19 -20 27 -11 8 -20
22 -20 31 0 10 -3 19 -7 21 -13 5 -53 89 -48 98 3 5 -4 25 -15 45 -11 19 -20
44 -20 55 0 10 -4 22 -10 25 -5 3 -10 44 -10 91 0 49 4 84 10 84 6 0 10 11 10
24 0 14 5 28 10 31 6 3 10 17 10 30 0 13 5 27 11 30 6 4 8 13 5 20 -5 15 58
148 80 166 8 6 14 15 14 20 0 12 162 179 174 179 6 0 42 16 80 35 39 19 78 35
87 35 10 0 21 5 24 10 3 6 31 10 61 10 30 0 54 5 54 10 0 6 45 10 115 10 70 0
115 -4 115 -10z"/>
<path d="M6370 4104 c0 -29 21 -54 44 -54 9 0 16 -4 16 -9 0 -5 10 -13 22 -17
12 -4 39 -24 59 -45 21 -22 42 -39 47 -39 13 0 192 -182 192 -195 0 -6 9 -17
20 -25 11 -8 20 -22 20 -32 0 -10 5 -18 10 -18 6 0 10 -9 10 -20 0 -11 5 -20
10 -20 6 0 10 -11 10 -24 0 -14 5 -28 10 -31 6 -3 10 -17 10 -30 0 -13 5 -27
10 -30 6 -3 10 -17 10 -30 0 -13 4 -26 9 -30 6 -3 8 -23 5 -45 -3 -24 -1 -40
6 -40 5 0 10 -15 10 -34 0 -19 5 -38 10 -41 6 -3 10 -26 10 -50 0 -24 5 -47
10 -50 6 -3 10 -26 10 -51 0 -24 5 -44 10 -44 6 0 10 -20 10 -44 0 -25 5 -48
10 -51 6 -3 10 -31 10 -61 0 -30 5 -54 10 -54 6 0 10 -22 10 -50 0 -27 5 -50
10 -50 6 0 10 -24 10 -54 0 -30 5 -58 10 -61 6 -3 10 -31 10 -61 0 -30 5 -54
10 -54 6 0 10 -24 10 -54 0 -30 5 -58 10 -61 6 -3 10 -35 10 -71 0 -39 4 -64
11 -64 6 0 9 -19 8 -48 -1 -26 1 -54 5 -61 13 -20 9 -180 -4 -196 -7 -8 -9
-15 -4 -15 4 0 -14 -22 -41 -50 -49 -49 -50 -50 -112 -50 -35 0 -73 6 -85 13
-35 20 -88 75 -88 92 0 8 -3 15 -8 15 -4 0 -15 18 -25 40 -10 24 -27 44 -41
50 -35 13 -41 28 -37 91 1 34 -2 60 -8 63 -7 5 -11 49 -11 116 0 62 -4 111
-10 115 -6 4 -10 60 -10 136 0 76 -4 129 -10 129 -5 0 -11 39 -12 88 -3 85 -3
87 -28 87 -25 0 -25 -1 -28 -99 -2 -59 1 -103 8 -110 6 -6 10 -63 10 -137 0
-75 4 -130 10 -134 6 -4 10 -53 10 -115 0 -62 4 -111 10 -115 6 -3 10 -24 10
-45 0 -21 -4 -42 -10 -45 -5 -3 -10 -17 -10 -30 0 -13 -4 -27 -10 -30 -7 -4
-10 -252 -10 -711 0 -463 -3 -704 -10 -704 -6 0 -10 -66 -10 -178 0 -166 -1
-180 -20 -197 -11 -10 -20 -28 -20 -39 0 -21 -96 -126 -115 -126 -6 0 -32 -11
-59 -25 -52 -26 -158 -36 -171 -15 -3 5 -15 10 -26 10 -22 0 -54 16 -86 44
-12 10 -33 24 -45 30 -13 6 -25 20 -27 31 -2 11 -10 24 -17 30 -18 13 -64 103
-64 126 0 9 -9 19 -20 22 -20 5 -20 14 -20 606 0 394 -3 601 -10 601 -5 0 -10
20 -10 45 0 25 5 45 10 45 6 0 10 23 10 51 0 49 -1 50 -27 47 -20 -2 -28 -9
-28 -23 0 -11 -4 -26 -8 -33 -10 -15 -12 -156 -3 -171 4 -5 7 -265 7 -577 l0
-567 -24 -26 c-13 -14 -30 -41 -38 -58 -8 -18 -17 -33 -21 -33 -5 0 -8 -9 -8
-20 0 -11 -4 -20 -10 -20 -5 0 -10 -9 -10 -20 0 -11 -4 -20 -10 -20 -5 0 -10
-7 -10 -15 0 -21 -49 -63 -82 -70 -16 -4 -28 -11 -28 -16 0 -5 -11 -9 -24 -9
-14 0 -28 -4 -31 -10 -8 -13 -112 -13 -120 0 -3 5 -19 10 -34 10 -15 0 -41 7
-57 15 -44 22 -142 126 -169 180 l-25 48 0 1038 c0 681 -3 1040 -10 1044 -6 4
-10 160 -10 436 0 279 -3 429 -10 429 -5 0 -10 13 -10 28 0 51 -27 89 -82 116
-29 14 -57 26 -63 26 -17 0 -65 24 -65 33 0 4 -9 7 -20 7 -11 0 -20 5 -20 10
0 6 -13 10 -29 10 -16 0 -31 3 -33 8 -5 12 -88 52 -108 52 -11 0 -21 4 -24 9
-3 4 -25 11 -48 15 -49 8 -98 27 -98 38 0 5 -13 8 -30 8 -16 0 -30 5 -30 10 0
6 -9 10 -20 10 -11 0 -20 5 -20 10 0 6 -11 10 -24 10 -14 0 -28 5 -31 10 -3 6
-15 10 -25 10 -11 0 -35 9 -55 20 -20 11 -43 20 -52 20 -8 0 -24 9 -34 21 -21
25 -62 22 -67 -4 -5 -25 46 -77 75 -77 13 0 23 -4 23 -10 0 -5 9 -10 20 -10
11 0 20 -3 20 -7 0 -11 50 -33 71 -33 10 0 21 -4 24 -10 3 -5 16 -10 28 -10
12 0 35 -7 51 -15 15 -8 37 -15 47 -15 10 0 21 -4 24 -10 3 -5 17 -10 31 -10
13 0 24 -4 24 -10 0 -5 9 -10 20 -10 11 0 20 -4 20 -10 0 -5 14 -10 30 -10 17
0 30 -3 30 -7 0 -11 50 -33 71 -33 10 0 21 -4 24 -10 3 -5 14 -10 25 -10 10 0
44 -13 75 -30 31 -16 65 -30 75 -30 10 0 23 -7 30 -15 7 -8 17 -15 22 -15 23
0 58 -50 58 -85 0 -19 5 -35 10 -35 7 0 10 -150 10 -430 0 -280 3 -430 10
-430 7 0 10 -359 10 -1058 0 -1046 0 -1058 20 -1072 11 -8 20 -22 20 -32 0
-10 5 -18 10 -18 6 0 10 -7 10 -15 0 -21 115 -135 135 -135 8 0 15 -4 15 -10
0 -5 20 -10 44 -10 25 0 48 -4 51 -10 8 -13 195 -13 195 0 0 6 8 10 18 10 25
0 108 43 138 71 13 13 36 48 51 78 15 31 34 64 42 75 9 10 16 28 16 39 0 13 7
23 18 25 12 2 17 -3 17 -17 0 -12 5 -21 10 -21 6 0 10 -9 10 -20 0 -11 5 -20
10 -20 6 0 10 -8 10 -18 0 -10 9 -24 20 -32 11 -8 20 -19 20 -25 0 -14 62 -75
76 -75 6 0 19 -9 29 -20 10 -11 24 -20 32 -20 7 0 13 -4 13 -10 0 -5 14 -10
30 -10 17 0 30 -4 30 -10 0 -6 42 -10 105 -10 63 0 105 4 105 10 0 6 9 10 20
10 11 0 20 5 20 10 0 6 9 10 20 10 11 0 20 5 20 10 0 6 6 10 13 10 8 0 22 9
32 20 10 11 23 20 30 20 15 0 55 42 55 58 0 7 5 12 10 12 6 0 10 9 10 20 0 11
5 20 10 20 6 0 10 9 10 20 0 11 5 20 10 20 6 0 10 66 10 179 0 109 4 182 10
186 7 4 10 250 10 706 0 594 2 703 14 715 8 8 18 14 23 14 10 0 33 -48 33 -70
0 -8 28 -44 63 -78 l63 -62 120 0 c75 0 124 4 131 11 6 6 22 17 35 23 12 6 25
20 27 31 2 11 12 27 22 36 17 15 19 32 19 158 0 87 -4 141 -10 141 -5 0 -10
24 -10 54 0 30 -4 58 -10 61 -5 3 -10 35 -10 71 0 39 -4 64 -11 64 -6 0 -9 19
-8 50 2 28 -2 55 -8 61 -5 5 -8 32 -5 58 2 30 0 51 -7 55 -6 4 -11 29 -11 56
0 27 -4 52 -10 55 -5 3 -10 26 -10 50 0 24 -4 47 -10 50 -5 3 -10 31 -10 61 0
30 -4 54 -10 54 -5 0 -10 20 -10 44 0 25 -4 48 -10 51 -5 3 -10 26 -10 51 0
24 -4 44 -10 44 -5 0 -10 23 -10 50 0 28 -4 50 -10 50 -5 0 -10 15 -10 34 0
19 -4 38 -10 41 -5 3 -10 26 -10 51 0 24 -4 44 -10 44 -5 0 -10 18 -10 40 0
22 -4 40 -10 40 -5 0 -10 11 -10 24 0 14 -5 28 -10 31 -6 4 -8 10 -5 15 3 5 1
11 -5 15 -5 3 -10 16 -10 29 0 13 -9 31 -20 41 -11 10 -20 23 -20 30 0 7 -9
20 -20 30 -11 10 -20 23 -20 29 0 14 -122 136 -136 136 -6 0 -23 14 -39 30
-16 17 -34 30 -40 30 -6 0 -22 11 -35 25 -13 14 -29 25 -36 25 -6 0 -17 7 -24
15 -16 19 -68 45 -92 45 -13 0 -18 -7 -18 -26z"/>
<path d="M134 235 c-10 -25 4 -45 30 -45 14 0 28 -4 31 -10 8 -13 98 -13 111
0 5 5 105 11 234 12 l225 3 0 25 0 25 -247 3 c-163 1 -248 -1 -248 -8 0 -5 -9
-10 -20 -10 -11 0 -20 5 -20 10 0 17 -90 12 -96 -5z"/>
<path d="M3186 231 c-25 -27 -17 -55 17 -59 15 -2 27 1 27 7 0 6 9 11 20 11
11 0 20 -4 20 -10 0 -13 147 -13 155 0 8 14 725 14 725 0 0 -6 32 -10 75 -10
43 0 75 4 75 10 0 6 23 10 50 10 49 0 50 1 50 30 l0 30 -64 0 c-36 0 -68 -4
-71 -10 -8 -13 -72 -13 -80 0 -8 14 -792 14 -800 0 -3 -5 -21 -10 -40 -10 -19
0 -37 5 -40 10 -3 6 -28 10 -54 10 -35 0 -53 -5 -65 -19z"/>
</g>
</svg>
