<?xml version="1.0" standalone="no"?>
<!DOCTYPE svg PUBLIC "-//W3C//DTD SVG 20010904//EN"
 "http://www.w3.org/TR/2001/REC-SVG-20010904/DTD/svg10.dtd">
<svg version="1.0" xmlns="http://www.w3.org/2000/svg"
 width="208.000000pt" height="207.000000pt" viewBox="0 0 208.000000 207.000000"
 preserveAspectRatio="xMidYMid meet">
<metadata>
Created by potrace 1.16, written by Peter Selinger 2001-2019
</metadata>
<g transform="translate(0.000000,207.000000) scale(0.100000,-0.100000)"
fill="#000000" stroke="none">
<path d="M824 2050 c-531 -115 -888 -622 -813 -1156 22 -157 105 -355 202
-481 100 -131 261 -260 402 -324 218 -99 518 -116 743 -43 170 56 291 131 422
264 206 208 300 441 300 739 -1 459 -298 853 -745 987 -78 23 -112 27 -255 30
-137 3 -181 0 -256 -16z m386 -30 c364 -58 673 -324 783 -675 39 -124 51 -220
44 -358 -7 -143 -30 -243 -85 -361 -56 -119 -113 -198 -216 -301 -335 -332
-854 -379 -1251 -112 -90 60 -210 182 -271 273 -231 347 -228 767 9 1119 130
193 375 355 616 405 98 21 271 25 371 10z"/>
<path d="M1025 1917 c-4 -8 -5 -45 -3 -83 2 -53 6 -69 18 -69 12 0 15 15 15
79 0 55 -4 81 -12 83 -7 3 -15 -2 -18 -10z"/>
<path d="M591 1811 c-11 -7 -6 -21 24 -70 36 -57 56 -73 69 -52 6 10 -62 131
-73 131 -3 0 -12 -4 -20 -9z"/>
<path d="M1458 1803 c-30 -35 -69 -104 -63 -113 14 -22 36 -7 70 50 33 54 38
80 16 80 -4 0 -15 -8 -23 -17z"/>
<path d="M1027 1584 c-4 -4 -7 -104 -7 -223 l0 -216 -30 -17 c-36 -20 -63 -77
-54 -113 14 -57 94 -92 146 -64 16 9 24 7 41 -9 12 -11 66 -48 120 -82 71 -46
101 -60 109 -52 17 17 -2 34 -117 108 l-103 66 5 37 c6 46 -18 97 -52 113
l-25 11 -2 220 c-3 208 -8 244 -31 221z m53 -504 c11 -11 20 -29 20 -40 0 -25
-34 -60 -58 -60 -30 0 -62 29 -62 57 0 57 61 82 100 43z"/>
<path d="M263 1484 c-7 -19 -3 -23 68 -63 46 -25 59 -29 68 -18 13 17 -1 30
-71 70 -55 32 -57 32 -65 11z"/>
<path d="M1738 1464 c-55 -34 -70 -55 -48 -69 16 -10 131 66 128 83 -5 26 -21
23 -80 -14z"/>
<path d="M190 1051 c-22 -4 -35 -12 -35 -21 0 -23 143 -28 151 -5 4 9 4 18 2
20 -8 8 -81 11 -118 6z"/>
<path d="M1807 1052 c-20 -3 -27 -8 -25 -20 3 -13 17 -18 66 -20 65 -3 103 11
83 31 -10 10 -74 14 -124 9z"/>
<path d="M318 644 c-57 -35 -75 -64 -40 -64 25 0 134 70 129 84 -7 21 -32 16
-89 -20z"/>
<path d="M1680 665 c0 -16 102 -85 125 -85 33 0 12 36 -39 68 -58 35 -86 40
-86 17z"/>
<path d="M616 339 c-35 -59 -38 -79 -12 -79 13 0 86 111 86 131 0 5 -8 9 -19
9 -12 0 -31 -21 -55 -61z"/>
<path d="M1396 391 c-9 -13 64 -131 80 -131 27 0 24 22 -11 80 -34 56 -56 72
-69 51z"/>
<path d="M1027 314 c-4 -4 -7 -43 -7 -86 0 -72 2 -78 20 -78 20 0 21 5 18 82
-3 75 -12 100 -31 82z"/>
</g>
</svg>
