<?xml version="1.0" standalone="no"?>
<!DOCTYPE svg PUBLIC "-//W3C//DTD SVG 20010904//EN"
 "http://www.w3.org/TR/2001/REC-SVG-20010904/DTD/svg10.dtd">
<svg version="1.0" xmlns="http://www.w3.org/2000/svg"
 width="227.000000pt" height="231.000000pt" viewBox="0 0 227.000000 231.000000"
 preserveAspectRatio="xMidYMid meet">
<metadata>
Created by potrace 1.16, written by Peter Selinger 2001-2019
</metadata>
<g transform="translate(0.000000,231.000000) scale(0.100000,-0.100000)"
fill="#000000" stroke="none">
<path d="M798 2295 c-61 -20 -118 -84 -143 -162 -11 -32 -20 -59 -20 -60 -1
-2 -39 5 -86 13 -196 37 -326 -19 -400 -174 -33 -69 -37 -195 -10 -281 l20
-65 -50 -87 c-80 -138 -102 -211 -107 -360 -5 -142 14 -241 67 -355 32 -68 56
-87 103 -82 30 3 30 2 63 -98 66 -202 133 -292 262 -356 62 -30 74 -33 157
-32 l90 2 104 -70 c249 -167 324 -166 578 7 96 65 100 67 147 62 106 -13 228
33 313 118 56 56 104 146 148 282 27 81 28 83 60 83 44 0 72 23 102 82 68 134
88 362 46 519 -21 77 -63 170 -108 238 l-23 36 20 70 c43 154 15 288 -81 387
-80 82 -163 103 -306 77 -32 -5 -67 -12 -76 -15 -13 -4 -20 7 -32 49 -21 71
-66 131 -118 158 -65 34 -141 31 -272 -10 l-108 -34 -104 33 c-126 39 -174 44
-236 25z m217 -115 c95 -38 139 -38 250 1 71 25 100 30 147 27 92 -7 118 -40
158 -204 6 -23 16 -44 24 -47 7 -3 32 3 56 14 55 25 171 43 218 34 80 -15 159
-78 181 -144 17 -52 13 -142 -9 -213 -11 -34 -20 -75 -20 -90 0 -15 27 -76 59
-135 79 -144 95 -201 95 -333 -1 -110 -19 -202 -55 -272 -21 -41 -25 -43 -64
-28 -45 17 -59 0 -99 -127 -75 -234 -117 -297 -236 -352 -46 -21 -68 -25 -137
-24 l-81 2 -101 -65 c-194 -123 -238 -139 -319 -118 -67 18 -117 45 -228 125
l-80 57 -95 -1 c-84 -1 -99 2 -145 25 -69 36 -109 72 -139 122 -30 51 -88 210
-105 289 -17 73 -29 84 -79 68 -21 -6 -41 -11 -43 -11 -10 0 -48 98 -63 162
-18 75 -19 216 -4 290 12 56 45 128 111 241 43 75 44 82 14 187 -18 63 -20
139 -5 193 19 69 94 134 176 151 43 10 175 -10 228 -33 28 -12 47 -16 58 -10
9 5 28 48 42 96 20 64 36 96 60 120 30 30 38 33 94 33 44 0 81 -8 136 -30z"/>
<path d="M515 1843 c-49 -25 -71 -51 -100 -114 -50 -113 -44 -204 21 -301 l36
-53 -16 -91 c-53 -298 32 -586 217 -734 69 -55 169 -110 201 -110 12 0 44 -21
71 -46 123 -115 243 -113 378 6 25 22 55 40 67 40 30 0 123 51 192 105 108 85
184 206 224 360 23 87 24 329 2 415 l-14 55 38 58 c53 84 66 150 44 230 -37
133 -103 197 -204 197 -58 0 -144 -29 -177 -60 l-22 -20 -44 19 c-83 37 -159
51 -274 51 -130 0 -205 -12 -292 -47 l-62 -25 -34 26 c-70 54 -189 72 -252 39z
m1222 -101 c25 -14 56 -98 55 -153 -1 -47 -29 -111 -71 -163 -17 -22 -29 -46
-27 -53 33 -85 41 -137 41 -258 -1 -184 -24 -268 -113 -399 -44 -66 -111 -126
-179 -160 -53 -27 -98 -20 -194 29 -48 25 -100 45 -116 45 -15 0 -61 -17 -103
-39 -127 -65 -142 -68 -206 -35 -84 42 -175 131 -217 211 -56 107 -71 177 -71
338 -1 119 2 151 22 213 l23 73 -35 40 c-20 21 -42 55 -51 75 -30 73 -13 199
33 235 51 40 178 16 221 -41 27 -37 38 -37 104 -1 137 77 407 80 562 6 30 -14
59 -25 66 -25 7 0 28 14 45 31 54 52 146 66 211 31z m-509 -1233 c50 -29 53
-32 38 -48 -9 -10 -39 -31 -67 -46 -65 -35 -123 -31 -177 12 -19 16 -37 33
-39 39 -4 13 126 72 162 73 17 0 54 -13 83 -30z"/>
<path d="M810 1248 c-21 -23 -21 -58 2 -85 16 -20 92 -16 111 5 22 24 21 65
-1 85 -27 25 -87 22 -112 -5z"/>
<path d="M1356 1245 c-31 -28 -33 -45 -8 -74 42 -51 132 -24 132 39 0 61 -73
82 -124 35z"/>
<path d="M926 938 c-9 -12 -16 -30 -16 -40 0 -22 162 -182 202 -199 42 -17 80
5 173 103 79 82 91 111 57 141 -16 15 -46 17 -210 17 -186 0 -191 -1 -206 -22z
m314 -68 c0 -3 -20 -26 -45 -50 -36 -35 -48 -42 -64 -34 -21 10 -101 81 -101
90 0 3 47 4 105 3 58 -2 105 -6 105 -9z"/>
</g>
</svg>
