<?xml version="1.0" standalone="no"?>
<!DOCTYPE svg PUBLIC "-//W3C//DTD SVG 20010904//EN"
 "http://www.w3.org/TR/2001/REC-SVG-20010904/DTD/svg10.dtd">
<svg version="1.0" xmlns="http://www.w3.org/2000/svg"
 width="132.000000pt" height="150.000000pt" viewBox="0 0 132.000000 150.000000"
 preserveAspectRatio="xMidYMid meet">
<metadata>
Created by potrace 1.16, written by Peter Selinger 2001-2019
</metadata>
<g transform="translate(0.000000,150.000000) scale(0.100000,-0.100000)"
fill="#000000" stroke="none">
<path d="M10 1481 c-7 -13 -10 -257 -10 -728 0 -625 2 -711 16 -731 l15 -22
633 0 c522 0 636 2 645 14 8 9 10 213 9 747 l-3 734 -647 3 c-632 2 -647 2
-658 -17z m1260 -726 l0 -705 -610 0 -610 0 0 705 0 705 610 0 610 -1 0 -704z"/>
<path d="M643 754 c-197 -201 -358 -373 -358 -382 0 -43 43 -10 225 175 513
521 531 540 524 556 -3 10 -12 17 -19 17 -7 0 -174 -165 -372 -366z"/>
</g>
</svg>
