<?xml version="1.0" standalone="no"?>
<!DOCTYPE svg PUBLIC "-//W3C//DTD SVG 20010904//EN"
 "http://www.w3.org/TR/2001/REC-SVG-20010904/DTD/svg10.dtd">
<svg version="1.0" xmlns="http://www.w3.org/2000/svg"
 width="194.000000pt" height="244.000000pt" viewBox="0 0 194.000000 244.000000"
 preserveAspectRatio="xMidYMid meet">
<metadata>
Created by potrace 1.16, written by Peter Selinger 2001-2019
</metadata>
<g transform="translate(0.000000,244.000000) scale(0.100000,-0.100000)"
fill="#000000" stroke="none">
<path d="M58 2424 c-61 -33 -58 34 -58 -1204 0 -1242 -3 -1172 60 -1205 42
-22 1762 -23 1815 -1 69 29 65 -30 65 1043 l0 968 -208 208 -207 207 -720 0
c-617 -1 -724 -3 -747 -16z m1437 -205 c0 -235 -17 -219 226 -219 l179 0 0
-955 0 -956 -25 -24 -24 -25 -881 0 -881 0 -24 25 -25 24 0 1131 0 1131 25 24
24 25 703 0 703 0 0 -181z m214 -177 c-103 -2 -156 1 -165 9 -11 9 -14 47 -14
168 l0 156 165 -165 165 -165 -151 -3z"/>
<path d="M315 2009 c-4 -6 -3 -15 2 -20 5 -5 180 -8 424 -7 360 3 414 5 414
18 0 13 -54 15 -417 18 -294 1 -419 -1 -423 -9z"/>
<path d="M1074 1669 c-4 -7 57 -75 145 -163 l151 -151 -150 -150 c-82 -82
-150 -153 -150 -158 0 -4 7 -10 16 -14 11 -4 59 37 165 143 l149 149 149 -149
c136 -136 171 -161 171 -123 0 7 -65 77 -145 157 l-145 145 151 151 c138 138
164 174 126 174 -6 0 -78 -66 -159 -147 l-148 -148 -148 148 c-81 81 -153 147
-159 147 -7 0 -15 -5 -19 -11z"/>
<path d="M315 1599 c-4 -6 -3 -15 2 -20 5 -5 128 -8 294 -7 245 3 284 5 284
18 0 13 -40 15 -287 18 -201 2 -289 -1 -293 -9z"/>
<path d="M315 1179 c-4 -6 -3 -15 2 -20 5 -5 128 -8 294 -7 245 3 284 5 284
18 0 13 -40 15 -287 18 -201 2 -289 -1 -293 -9z"/>
<path d="M315 769 c-4 -6 -3 -15 2 -20 5 -5 241 -8 579 -7 498 3 569 5 569 18
0 13 -71 15 -572 18 -406 1 -574 -1 -578 -9z"/>
<path d="M315 359 c-4 -6 -3 -15 2 -20 5 -5 180 -8 424 -7 360 3 414 5 414 18
0 13 -54 15 -417 18 -294 1 -419 -1 -423 -9z"/>
</g>
</svg>
