<?xml version="1.0" standalone="no"?>
<!DOCTYPE svg PUBLIC "-//W3C//DTD SVG 20010904//EN"
 "http://www.w3.org/TR/2001/REC-SVG-20010904/DTD/svg10.dtd">
<svg version="1.0" xmlns="http://www.w3.org/2000/svg"
 width="209.000000pt" height="224.000000pt" viewBox="0 0 209.000000 224.000000"
 preserveAspectRatio="xMidYMid meet">
<metadata>
Created by potrace 1.16, written by Peter Selinger 2001-2019
</metadata>
<g transform="translate(0.000000,224.000000) scale(0.100000,-0.100000)"
fill="#000000" stroke="none">
<path d="M938 2221 c-121 -40 -246 -152 -307 -276 -65 -131 -115 -393 -128
-660 -5 -123 -4 -151 11 -189 21 -55 92 -121 148 -138 21 -6 36 -14 33 -16 -3
-3 -76 -31 -163 -62 l-157 -56 -6 25 c-4 15 -7 53 -8 86 -3 131 -89 219 -172
175 -25 -14 -24 -38 7 -188 23 -108 25 -127 12 -136 -28 -21 -46 -62 -53 -121
-4 -33 -20 -100 -36 -150 -29 -88 -119 -444 -119 -471 0 -20 29 -17 37 2 3 9
27 104 53 211 l46 193 18 -58 c30 -103 86 -162 150 -162 25 0 25 0 28 -107 2
-88 6 -108 18 -108 12 0 16 20 18 108 l3 107 34 0 35 0 0 -97 c0 -101 8 -129
31 -121 11 4 13 29 10 116 -2 95 -1 112 12 112 9 0 25 12 37 28 17 21 21 36
17 69 -3 30 0 46 10 55 26 21 34 57 20 86 -11 23 -10 32 8 64 18 34 19 38 3
70 -11 24 -13 39 -6 51 5 10 8 34 6 54 -4 46 -39 73 -103 81 l-48 5 159 58
c87 32 164 58 169 58 6 1 19 -15 30 -35 48 -90 160 -147 290 -147 69 -1 89 3
146 30 76 35 132 81 149 123 7 16 16 30 20 30 14 0 272 -100 347 -135 131 -60
195 -141 234 -293 23 -90 62 -352 54 -360 -3 -3 -73 -8 -155 -10 l-149 -4 -3
142 c-2 101 -7 145 -15 147 -18 6 -21 -22 -27 -220 -4 -162 -3 -178 12 -175
11 2 18 15 20 36 l3 32 129 0 128 0 9 -37 c13 -54 38 -51 37 4 -1 42 0 43 33
43 37 0 36 -2 23 71 -5 30 -17 101 -25 159 -43 277 -91 379 -218 461 -54 35
-273 128 -339 144 -38 10 -35 21 6 29 52 10 123 63 154 115 27 45 27 49 26
206 -3 342 -71 635 -183 787 -58 77 -117 116 -193 127 -29 4 -71 16 -93 25
-61 28 -205 31 -277 7z m252 -42 c30 -11 79 -24 107 -29 189 -30 301 -268 342
-730 26 -286 7 -355 -115 -418 -35 -18 -134 -30 -169 -21 l-32 9 -7 87 -6 86
36 46 c19 25 49 76 66 112 25 53 37 68 61 75 53 16 72 54 72 144 0 90 -11 108
-81 140 -67 29 -131 100 -175 196 -28 58 -45 84 -57 84 -10 0 -38 -20 -62 -45
-97 -98 -265 -178 -432 -205 -53 -9 -78 -17 -78 -26 0 -9 11 -14 30 -14 l30 0
0 -118 c0 -171 35 -282 115 -365 30 -31 31 -34 27 -110 -4 -79 -4 -79 -38 -93
-39 -17 -98 -10 -159 17 -52 23 -67 36 -99 83 -23 34 -26 48 -26 125 0 289 69
634 154 764 65 101 165 183 259 212 65 21 173 18 237 -6z m73 -343 c25 -49 58
-93 99 -132 l61 -58 -6 -106 c-3 -69 -13 -127 -26 -165 -63 -178 -220 -289
-364 -256 -65 14 -148 68 -187 122 -56 78 -73 140 -78 291 l-4 137 43 11 c161
40 289 103 368 181 25 25 48 46 51 47 3 1 22 -31 43 -72z m231 -228 c26 -36
21 -121 -8 -155 -13 -15 -27 -26 -29 -23 -9 8 5 200 14 200 4 0 15 -10 23 -22z
m-215 -570 c1 -49 5 -59 27 -77 15 -12 33 -21 41 -21 19 0 -5 -45 -44 -82 -77
-74 -221 -102 -329 -65 -58 20 -127 75 -150 118 -14 27 -13 29 6 29 12 0 32
11 45 25 22 21 25 33 25 91 0 59 2 65 18 59 61 -27 123 -44 158 -45 52 0 135
25 166 49 23 19 23 19 30 -2 3 -12 6 -48 7 -79z m-995 12 c27 -32 32 -53 40
-166 l6 -72 -33 -5 c-17 -2 -33 -4 -34 -3 -4 4 -53 247 -53 262 0 26 47 15 74
-16z m155 -290 c46 -5 89 -15 97 -21 16 -13 19 -55 4 -64 -5 -3 -49 -8 -97
-11 -89 -5 -111 -13 -98 -34 5 -8 33 -11 84 -10 104 4 109 3 121 -20 8 -14 8
-26 0 -40 -10 -18 -21 -20 -106 -20 -76 0 -96 -3 -101 -15 -9 -25 1 -28 91
-26 80 2 86 1 101 -23 13 -19 14 -29 5 -45 -6 -12 -16 -21 -23 -22 -7 0 -48
-1 -92 -2 -64 -2 -80 -5 -80 -17 0 -11 17 -16 70 -20 80 -6 95 -13 95 -43 0
-46 -13 -52 -125 -55 l-105 -4 -34 34 c-37 37 -66 116 -66 179 0 71 23 239 34
255 23 31 96 39 225 24z"/>
</g>
</svg>
