<?xml version="1.0" standalone="no"?>
<!DOCTYPE svg PUBLIC "-//W3C//DTD SVG 20010904//EN"
 "http://www.w3.org/TR/2001/REC-SVG-20010904/DTD/svg10.dtd">
<svg version="1.0" xmlns="http://www.w3.org/2000/svg"
 width="199.000000pt" height="183.000000pt" viewBox="0 0 199.000000 183.000000"
 preserveAspectRatio="xMidYMid meet">
<metadata>
Created by potrace 1.16, written by Peter Selinger 2001-2019
</metadata>
<g transform="translate(0.000000,183.000000) scale(0.100000,-0.100000)"
fill="#000000" stroke="none">
<path d="M689 1807 c-56 -37 -79 -95 -79 -204 l0 -93 -217 0 c-240 -1 -294 -8
-337 -48 -57 -54 -56 -38 -56 -712 0 -688 -2 -664 66 -716 l37 -29 877 -3 876
-2 44 23 c30 16 51 37 67 67 l23 43 0 620 c0 607 0 622 -21 663 -12 26 -36 53
-57 66 -36 22 -44 23 -278 23 l-242 0 -4 111 c-3 103 -5 113 -31 147 -50 66
-55 67 -360 67 -268 0 -275 -1 -308 -23z m602 -40 c44 -29 58 -71 58 -174 l1
-83 -350 0 -350 0 0 85 c0 102 16 147 62 175 31 19 50 20 289 20 250 0 257 -1
290 -23z m608 -333 c46 -39 53 -77 49 -284 -4 -217 -14 -249 -95 -301 l-47
-29 -323 0 c-283 0 -322 2 -317 15 10 25 -6 85 -27 106 -17 17 -34 19 -144 19
-151 0 -165 -8 -165 -90 l0 -51 -334 3 -334 3 -39 31 c-73 59 -78 76 -81 289
-4 212 2 250 49 289 l31 26 873 0 873 0 31 -26z m-779 -638 c3 -73 1 -124 -5
-133 -8 -11 -37 -13 -125 -11 l-115 3 -3 119 c-1 66 0 126 2 133 4 11 32 13
123 11 l118 -3 5 -119z m828 -398 l-3 -276 -25 -27 c-54 -58 -8 -55 -925 -55
-932 0 -896 -2 -935 62 -19 32 -20 50 -20 402 l0 370 33 -32 c59 -57 92 -65
297 -67 102 -1 247 -3 323 -3 l137 -2 0 -60 c0 -92 13 -100 166 -100 155 0
166 7 172 104 l4 66 320 0 c353 0 358 1 422 65 l31 31 3 -101 c2 -55 2 -225 0
-377z"/>
</g>
</svg>
