<?xml version="1.0" standalone="no"?>
<!DOCTYPE svg PUBLIC "-//W3C//DTD SVG 20010904//EN"
 "http://www.w3.org/TR/2001/REC-SVG-20010904/DTD/svg10.dtd">
<svg version="1.0" xmlns="http://www.w3.org/2000/svg"
 width="214.000000pt" height="205.000000pt" viewBox="0 0 214.000000 205.000000"
 preserveAspectRatio="xMidYMid meet">
<metadata>
Created by potrace 1.16, written by Peter Selinger 2001-2019
</metadata>
<g transform="translate(0.000000,205.000000) scale(0.100000,-0.100000)"
fill="#000000" stroke="none">
<path d="M448 2034 c-40 -21 -58 -64 -58 -134 l0 -60 -102 0 c-124 0 -167 -11
-215 -53 -76 -67 -73 -22 -73 -857 0 -453 4 -759 10 -780 13 -49 66 -109 114
-131 39 -18 87 -19 946 -19 854 0 907 1 945 19 51 23 101 79 114 128 7 25 11
293 11 783 0 835 3 790 -73 857 -48 42 -91 53 -214 53 l-103 0 0 60 c0 100
-42 150 -125 150 -80 0 -125 -54 -125 -149 l0 -61 -429 0 -429 0 -4 71 c-4 67
-6 73 -41 105 -30 28 -45 34 -79 34 -24 -1 -55 -7 -70 -16z m117 -59 c24 -23
25 -28 25 -167 -1 -97 -5 -148 -13 -159 -20 -26 -55 -40 -82 -33 -48 12 -55
36 -55 193 0 135 1 146 22 168 29 31 72 30 103 -2z m1112 3 c22 -21 23 -28 23
-168 0 -158 -7 -182 -55 -194 -29 -7 -79 15 -89 39 -3 9 -6 79 -6 154 0 125 2
141 21 165 26 33 73 35 106 4z m-1287 -271 c5 -73 7 -81 37 -108 43 -38 77
-45 127 -28 61 21 86 65 86 150 l0 69 430 0 430 0 0 -67 c0 -82 23 -127 77
-149 50 -21 99 -10 140 31 32 32 33 36 33 110 l0 77 119 -3 c129 -4 150 -12
195 -73 19 -24 21 -45 24 -172 l3 -144 -1020 0 -1021 0 0 128 c0 113 3 133 23
172 35 70 85 91 212 88 l100 -3 5 -78z m1700 -939 c0 -547 -2 -586 -19 -624
-10 -23 -34 -52 -52 -65 l-34 -24 -905 -2 -905 -3 -40 23 c-26 14 -48 37 -62
67 l-23 44 0 583 0 583 1020 0 1020 0 0 -582z"/>
<path d="M727 1073 c-12 -11 -8 -753 3 -754 6 -1 16 -2 23 -3 9 -1 13 73 17
325 l5 325 136 -220 c101 -164 140 -221 155 -221 14 0 54 56 154 217 74 119
137 219 140 221 3 3 4 -138 2 -312 -2 -276 -1 -320 13 -331 12 -10 18 -10 30
0 13 11 15 65 15 374 0 198 -4 367 -9 374 -21 34 -49 1 -183 -213 -75 -121
-142 -229 -150 -239 -13 -18 -26 -1 -162 222 -141 232 -164 260 -189 235z"/>
</g>
</svg>
