<?xml version="1.0" standalone="no"?>
<!DOCTYPE svg PUBLIC "-//W3C//DTD SVG 20010904//EN"
 "http://www.w3.org/TR/2001/REC-SVG-20010904/DTD/svg10.dtd">
<svg version="1.0" xmlns="http://www.w3.org/2000/svg"
 width="214.000000pt" height="214.000000pt" viewBox="0 0 214.000000 214.000000"
 preserveAspectRatio="xMidYMid meet">
<metadata>
Created by potrace 1.16, written by Peter Selinger 2001-2019
</metadata>
<g transform="translate(0.000000,214.000000) scale(0.100000,-0.100000)"
fill="#000000" stroke="none">
<path d="M950 2133 c-153 -20 -286 -82 -382 -177 -119 -117 -155 -233 -143
-453 6 -104 4 -125 -10 -147 -44 -67 -38 -193 15 -301 30 -63 68 -95 113 -95
23 0 26 -6 42 -77 20 -90 44 -149 86 -211 31 -46 31 -46 20 -119 -10 -68 -14
-75 -57 -115 -59 -55 -64 -58 -267 -134 -186 -70 -234 -95 -285 -145 -40 -39
-86 -125 -78 -145 10 -26 25 -14 53 42 45 93 101 129 324 211 85 30 160 60
166 65 16 13 16 13 49 -155 15 -75 32 -144 39 -154 18 -25 49 -12 165 71 58
42 108 76 111 76 4 0 39 -31 78 -70 38 -38 77 -70 86 -70 9 0 37 23 63 51 26
28 59 60 75 71 l27 20 121 -81 c67 -45 127 -81 134 -81 25 0 36 29 63 174 16
80 31 148 33 151 7 6 323 -119 374 -149 54 -32 123 -109 133 -150 5 -17 16
-32 25 -34 44 -9 -6 112 -72 171 -51 46 -101 71 -293 146 -86 34 -171 72 -189
84 -51 35 -106 120 -114 177 -6 43 -4 53 19 82 40 53 84 157 98 231 10 53 16
67 31 67 25 0 68 23 94 52 29 31 49 80 63 156 14 77 5 142 -25 185 -18 27 -20
38 -12 58 6 13 11 89 11 169 1 136 -1 149 -25 200 -31 67 -78 116 -119 125
-16 4 -30 11 -30 17 0 5 -25 35 -55 67 -58 61 -129 103 -216 127 -54 15 -273
26 -339 17z m303 -49 c123 -28 196 -74 262 -164 24 -32 44 -50 57 -50 31 0 94
-72 112 -128 30 -88 15 -362 -19 -362 -6 0 -24 -11 -38 -24 l-25 -23 -7 61
c-17 166 -52 265 -116 335 -16 18 -27 37 -23 42 3 6 3 17 0 25 -5 12 -17 9
-68 -20 -158 -88 -335 -122 -578 -112 -117 5 -161 3 -180 -7 -22 -11 -29 -29
-57 -156 -17 -79 -34 -145 -36 -147 -2 -3 -18 3 -34 13 -27 15 -31 24 -37 76
-9 92 -7 210 5 269 39 184 222 340 445 377 87 15 260 12 337 -5z m224 -423
c49 -72 58 -101 76 -240 13 -99 13 -101 -8 -101 -11 0 -32 16 -48 35 -79 99
-236 99 -312 -1 -26 -34 -26 -34 -107 -34 l-81 0 -34 39 c-86 102 -267 88
-320 -24 -13 -28 -22 -35 -46 -35 -25 0 -29 3 -24 22 4 13 18 81 33 153 15 71
32 136 38 144 8 11 40 12 161 6 220 -10 378 14 520 80 45 20 77 29 90 25 11
-4 39 -35 62 -69z m-587 -293 c57 -39 75 -72 75 -138 0 -66 -18 -99 -75 -137
-89 -61 -222 9 -237 125 -6 48 30 119 76 149 46 31 116 31 161 1z m527 4 c50
-27 76 -68 81 -127 16 -197 -253 -243 -310 -54 -20 68 21 156 86 185 42 18
105 17 143 -4z m-903 -64 c15 -18 31 -39 37 -46 5 -7 20 -10 32 -7 21 6 24 1
35 -55 40 -191 279 -230 369 -60 18 33 24 57 21 93 l-3 47 70 0 70 0 1 -54 c1
-144 149 -237 279 -177 73 33 115 102 115 186 0 33 4 45 15 45 8 0 15 -4 15
-10 0 -22 29 -8 59 30 59 74 96 47 95 -69 -2 -143 -61 -240 -139 -225 l-31 5
-17 -88 c-64 -336 -368 -520 -644 -388 -142 67 -233 191 -272 369 -10 46 -21
89 -25 94 -4 6 -22 8 -41 5 -29 -5 -39 -1 -64 24 -37 37 -64 126 -65 214 -1
101 37 130 88 67z m910 -765 c4 -27 7 -56 7 -67 0 -39 -69 -131 -161 -215 -52
-47 -117 -109 -145 -138 l-51 -52 -59 60 c-33 33 -91 86 -128 117 -41 34 -89
87 -118 131 -50 73 -50 74 -43 135 4 33 8 62 9 64 2 2 31 -15 64 -38 115 -78
236 -105 363 -81 70 14 183 69 219 107 12 13 26 24 29 24 4 0 10 -21 14 -47z
m90 -150 l37 -42 -26 -133 c-36 -189 -26 -176 -98 -125 -87 62 -136 95 -147
99 -6 2 23 37 63 78 39 42 83 97 97 123 14 26 28 46 31 45 3 -2 22 -22 43 -45z
m-686 -145 l50 -47 -105 -76 c-57 -43 -106 -75 -109 -72 -3 2 -18 71 -33 151
l-29 147 41 39 41 38 47 -67 c25 -36 69 -87 97 -113z"/>
<path d="M935 829 c-15 -24 17 -29 151 -27 116 3 139 6 139 18 0 12 -24 15
-142 18 -96 2 -144 -1 -148 -9z"/>
</g>
</svg>
