<?xml version="1.0" standalone="no"?>
<!DOCTYPE svg PUBLIC "-//W3C//DTD SVG 20010904//EN"
 "http://www.w3.org/TR/2001/REC-SVG-20010904/DTD/svg10.dtd">
<svg version="1.0" xmlns="http://www.w3.org/2000/svg"
 width="236.000000pt" height="196.000000pt" viewBox="0 0 236.000000 196.000000"
 preserveAspectRatio="xMidYMid meet">
<metadata>
Created by potrace 1.16, written by Peter Selinger 2001-2019
</metadata>
<g transform="translate(0.000000,196.000000) scale(0.100000,-0.100000)"
fill="#000000" stroke="none">
<path d="M662 1915 c-183 -46 -234 -69 -293 -132 -56 -58 -369 -463 -369 -476
0 -20 10 -31 175 -181 88 -80 168 -146 178 -146 11 0 48 23 83 51 l64 51 0
-529 c0 -398 3 -532 12 -541 9 -9 171 -12 668 -12 360 0 661 4 667 8 10 6 13
131 13 546 l1 537 61 -55 c34 -31 69 -56 79 -56 15 0 152 115 314 262 45 41
49 48 40 72 -13 33 -356 466 -398 502 -52 44 -122 70 -294 109 l-162 37 -73
-37 c-165 -81 -380 -77 -520 11 -20 13 -46 24 -55 24 -10 -1 -96 -20 -191 -45z
m186 -42 c7 -97 98 -220 197 -265 39 -18 68 -23 130 -23 71 0 88 4 147 33 102
50 175 148 193 260 4 23 10 40 15 37 4 -2 70 -19 146 -36 173 -38 219 -58 276
-117 35 -36 233 -283 360 -449 6 -7 -41 -56 -147 -150 -86 -76 -159 -139 -164
-141 -4 -1 -38 29 -75 68 -55 56 -67 75 -65 97 3 30 -6 53 -22 53 -5 0 -10
-236 -11 -597 l-3 -598 -642 -3 -643 -2 -2 597 c-3 524 -5 598 -18 598 -11 0
-16 -13 -18 -47 -3 -44 -7 -51 -70 -108 -37 -33 -70 -60 -75 -60 -4 0 -77 64
-162 142 -98 89 -151 146 -146 152 4 6 72 94 151 196 155 201 229 283 275 307
29 16 355 102 365 97 3 -1 7 -20 8 -41z m80 7 c148 -72 356 -72 504 0 23 11
43 20 45 20 2 0 1 -12 -3 -27 -22 -94 -86 -178 -168 -221 -43 -22 -64 -27
-131 -27 -70 0 -87 4 -133 29 -76 43 -131 117 -151 205 -5 23 -8 41 -7 41 1 0
21 -9 44 -20z"/>
</g>
</svg>
