<?xml version="1.0" standalone="no"?>
<!DOCTYPE svg PUBLIC "-//W3C//DTD SVG 20010904//EN"
 "http://www.w3.org/TR/2001/REC-SVG-20010904/DTD/svg10.dtd">
<svg version="1.0" xmlns="http://www.w3.org/2000/svg"
 width="188.000000pt" height="205.000000pt" viewBox="0 0 188.000000 205.000000"
 preserveAspectRatio="xMidYMid meet">
<metadata>
Created by potrace 1.16, written by Peter Selinger 2001-2019
</metadata>
<g transform="translate(0.000000,205.000000) scale(0.100000,-0.100000)"
fill="#000000" stroke="none">
<path d="M788 2036 c-10 -7 -18 -18 -18 -23 0 -6 -29 -25 -65 -43 -121 -61
-214 -179 -250 -315 -8 -33 -15 -74 -15 -91 0 -25 -5 -33 -24 -38 -13 -3 -31
-17 -41 -32 -16 -25 -16 -27 6 -50 16 -17 33 -24 61 -24 30 0 38 -4 38 -18 0
-9 -10 -22 -22 -27 -48 -21 -61 -98 -33 -192 17 -58 49 -103 73 -103 12 0 24
-21 40 -74 13 -41 41 -100 63 -133 33 -50 38 -66 39 -114 l0 -56 -202 -68
c-233 -78 -264 -92 -320 -143 -93 -84 -118 -159 -118 -354 0 -129 1 -138 19
-138 18 0 19 11 23 157 4 147 6 162 30 208 25 49 94 121 136 144 32 17 433
153 438 149 2 -3 14 -24 27 -49 26 -49 95 -102 155 -119 48 -13 166 -13 214 0
75 21 156 94 181 163 4 11 402 -120 454 -149 55 -32 118 -105 138 -162 12 -33
19 -92 22 -195 5 -139 7 -147 26 -147 19 0 20 4 14 147 -3 91 -12 168 -21 200
-20 64 -83 145 -143 184 -26 16 -144 61 -263 100 l-216 72 4 64 c4 51 12 76
38 121 19 31 44 86 56 122 17 55 26 69 50 78 54 20 99 190 66 252 -17 31 -80
63 -90 46 -16 -24 -8 -46 16 -46 38 0 50 -23 42 -86 -9 -77 -38 -132 -73 -136
-24 -3 -28 -9 -39 -60 -28 -120 -112 -236 -209 -286 -41 -21 -68 -27 -147 -30
-92 -4 -101 -3 -160 26 -112 53 -194 160 -229 299 -11 44 -16 52 -38 55 -33 4
-60 57 -68 133 -6 62 5 85 43 85 21 0 24 5 24 40 l0 40 468 0 469 0 21 23 c12
13 22 28 22 33 0 14 -43 54 -58 54 -8 0 -12 17 -12 45 0 57 -32 156 -72 217
-41 66 -146 161 -202 184 -25 10 -46 22 -46 27 0 4 -9 16 -20 27 -18 18 -33
20 -152 20 -95 -1 -138 -4 -150 -14z m269 -30 c2 -2 -6 -59 -17 -127 -24 -148
-24 -159 -6 -159 22 0 24 8 42 126 9 60 17 111 19 112 8 9 108 -55 150 -94 52
-51 106 -132 125 -189 8 -22 16 -71 19 -110 5 -63 8 -70 30 -75 14 -3 26 -11
29 -18 3 -9 -111 -12 -518 -12 -413 0 -521 3 -518 13 3 6 18 14 34 17 28 5 29
8 36 72 9 91 32 156 79 228 45 66 89 105 165 143 l52 26 13 -115 c9 -81 17
-118 26 -121 27 -10 31 12 18 97 -7 47 -15 108 -19 137 l-7 52 33 4 c34 5 209
0 215 -7z m137 -1278 c-8 -77 -27 -113 -82 -155 -113 -86 -310 -66 -395 40
-26 32 -32 48 -35 104 l-5 67 29 -19 c82 -54 104 -60 224 -60 110 0 118 1 183
33 37 18 67 37 67 43 0 5 5 9 10 9 7 0 9 -21 4 -62z"/>
</g>
</svg>
