<?xml version="1.0" standalone="no"?>
<!DOCTYPE svg PUBLIC "-//W3C//DTD SVG 20010904//EN"
 "http://www.w3.org/TR/2001/REC-SVG-20010904/DTD/svg10.dtd">
<svg version="1.0" xmlns="http://www.w3.org/2000/svg"
 width="190.000000pt" height="159.000000pt" viewBox="0 0 190.000000 159.000000"
 preserveAspectRatio="xMidYMid meet">
<metadata>
Created by potrace 1.16, written by Peter Selinger 2001-2019
</metadata>
<g transform="translate(0.000000,159.000000) scale(0.100000,-0.100000)"
fill="#000000" stroke="none">
<path d="M494 1580 c-107 -21 -215 -109 -255 -206 l-23 -56 -103 -48 c-95 -45
-126 -70 -109 -88 4 -3 51 -21 104 -38 95 -30 97 -32 110 -70 7 -21 25 -54 39
-72 23 -30 25 -40 19 -87 -8 -69 9 -192 38 -277 46 -131 169 -279 291 -348 63
-35 177 -76 238 -85 26 -4 47 -10 47 -14 0 -4 -30 -36 -67 -73 l-68 -66 -113
-5 c-62 -2 -116 -7 -119 -10 -3 -4 -3 -13 1 -22 5 -13 34 -15 228 -13 203 3
223 5 226 20 3 14 -4 18 -31 18 -19 0 -55 3 -81 6 l-48 7 67 67 67 67 75 7
c103 10 214 46 301 101 41 25 76 45 78 45 2 0 30 -17 62 -39 71 -48 119 -72
200 -100 77 -26 193 -47 215 -38 46 17 18 49 -456 526 l-474 476 -27 99 c-15
54 -36 115 -46 137 -72 141 -223 211 -386 179z m206 -61 c95 -42 143 -111 190
-274 l31 -110 462 -462 c254 -254 459 -464 456 -467 -9 -10 -137 23 -206 52
-75 32 -132 65 -201 118 l-43 33 -122 -1 c-67 0 -153 5 -190 11 -228 39 -361
175 -385 396 -5 44 -11 60 -22 60 -25 0 -24 -77 1 -162 70 -236 245 -343 566
-346 67 0 120 -4 117 -8 -11 -18 -135 -79 -204 -100 -59 -18 -97 -23 -175 -23
-198 2 -343 60 -471 188 -135 134 -184 257 -184 459 0 92 -3 117 -16 128 -70
58 -82 245 -23 360 75 149 265 216 419 148z m-498 -304 c-3 -29 -9 -45 -17
-45 -34 0 -115 25 -112 34 3 10 101 55 122 56 6 0 9 -19 7 -45z"/>
<path d="M450 1279 c-17 -31 2 -69 34 -69 31 0 48 22 44 57 -2 23 -8 29 -35
31 -24 2 -34 -2 -43 -19z"/>
</g>
</svg>
