<?xml version="1.0" standalone="no"?>
<!DOCTYPE svg PUBLIC "-//W3C//DTD SVG 20010904//EN"
 "http://www.w3.org/TR/2001/REC-SVG-20010904/DTD/svg10.dtd">
<svg version="1.0" xmlns="http://www.w3.org/2000/svg"
 width="258.000000pt" height="260.000000pt" viewBox="0 0 258.000000 260.000000"
 preserveAspectRatio="xMidYMid meet">
<metadata>
Created by potrace 1.16, written by Peter Selinger 2001-2019
</metadata>
<g transform="translate(0.000000,260.000000) scale(0.100000,-0.100000)"
fill="#000000" stroke="none">
<path d="M155 2589 c-48 -14 -106 -68 -131 -123 l-24 -51 0 -678 c0 -546 3
-684 13 -710 22 -52 68 -98 122 -123 l50 -24 473 0 472 0 0 -427 c0 -236 4
-434 9 -441 5 -8 17 -12 27 -10 18 3 19 22 22 441 l2 437 100 0 100 0 0 -441
0 -440 23 3 22 3 3 437 2 437 483 3 482 3 48 28 c55 32 102 92 117 148 7 25
10 271 8 701 -3 661 -3 663 -25 704 -25 48 -83 101 -129 120 -28 12 -222 14
-1136 13 -607 0 -1116 -5 -1133 -10z m2250 -58 c47 -22 89 -64 104 -104 7 -19
11 -246 11 -687 0 -441 -4 -668 -11 -687 -14 -39 -57 -82 -99 -101 -31 -14
-157 -16 -1110 -18 -659 -2 -1089 1 -1112 7 -49 13 -97 54 -119 104 -17 37
-19 81 -19 685 0 414 4 658 10 682 14 50 55 97 105 119 38 18 94 19 1120 19
1030 0 1082 -1 1120 -19z"/>
<path d="M427 2223 c-4 -3 -7 -219 -7 -480 0 -414 2 -474 15 -479 36 -14 45
14 45 136 l0 117 88 85 c48 47 142 134 210 193 67 59 122 113 122 120 0 7 -6
18 -14 24 -10 8 -20 6 -42 -11 -47 -37 -349 -310 -352 -319 -13 -34 -17 28
-19 297 -2 168 -5 310 -8 315 -7 11 -29 12 -38 2z"/>
<path d="M1375 1951 c-44 -11 -76 -29 -112 -64 l-33 -31 0 41 c0 41 -22 65
-42 45 -12 -12 -10 -664 2 -676 5 -5 16 -6 24 -3 14 6 16 35 16 221 0 119 5
238 11 267 37 173 291 203 370 42 23 -46 24 -59 27 -280 2 -187 6 -234 18
-243 11 -10 17 -10 29 0 12 10 15 48 15 224 0 282 18 343 114 387 116 53 242
-7 276 -130 5 -20 10 -133 10 -252 0 -180 3 -219 15 -229 12 -10 18 -10 30 0
12 10 15 48 15 221 0 114 -5 232 -11 261 -23 113 -86 178 -191 200 -104 22
-224 -26 -265 -107 l-18 -35 -35 47 c-20 27 -54 57 -81 71 -49 25 -135 36
-184 23z"/>
<path d="M590 1599 c-10 -18 0 -32 87 -126 54 -58 121 -131 149 -161 36 -40
55 -54 67 -49 40 15 15 49 -225 305 -27 28 -54 52 -58 52 -5 0 -14 -9 -20 -21z"/>
</g>
</svg>
