<?xml version="1.0" standalone="no"?>
<!DOCTYPE svg PUBLIC "-//W3C//DTD SVG 20010904//EN"
 "http://www.w3.org/TR/2001/REC-SVG-20010904/DTD/svg10.dtd">
<svg version="1.0" xmlns="http://www.w3.org/2000/svg"
 width="204.000000pt" height="193.000000pt" viewBox="0 0 204.000000 193.000000"
 preserveAspectRatio="xMidYMid meet">
<metadata>
Created by potrace 1.16, written by Peter Selinger 2001-2019
</metadata>
<g transform="translate(0.000000,193.000000) scale(0.100000,-0.100000)"
fill="#000000" stroke="none">
<path d="M722 1862 c-28 -37 -59 -75 -69 -84 -10 -9 -70 -32 -134 -52 -209
-65 -227 -91 -318 -466 -118 -485 -193 -871 -190 -977 1 -38 -1 -91 -5 -118
l-8 -51 38 -16 c83 -35 232 -50 252 -25 5 6 14 35 20 63 6 28 27 74 47 103 19
29 38 71 41 92 9 55 20 48 27 -16 3 -30 17 -80 31 -111 19 -40 26 -73 26 -115
0 -95 -35 -89 545 -89 584 0 547 -6 545 94 -2 44 4 74 20 109 12 27 27 76 34
110 l13 62 16 -56 c9 -30 28 -72 42 -93 14 -20 30 -58 36 -84 21 -86 20 -85
113 -79 44 3 106 13 136 23 l55 19 0 105 c0 163 -39 386 -155 895 -120 529
-133 550 -363 623 l-122 39 -63 82 -63 81 -249 0 -248 0 -50 -68z m478 0 c0
-16 -168 -251 -180 -252 -11 0 -180 236 -180 252 0 4 81 8 180 8 99 0 180 -4
180 -8z m98 -59 c19 -25 36 -51 38 -57 7 -19 -61 -102 -111 -136 -45 -31 -146
-80 -165 -80 -22 0 -7 35 35 82 51 57 155 209 155 227 0 21 15 10 48 -36z
m-469 -34 c24 -38 70 -102 102 -142 87 -107 80 -115 -47 -57 -68 31 -133 84
-164 136 l-21 33 38 51 c20 27 40 50 43 50 3 -1 25 -32 49 -71z m-137 -117
c54 -70 144 -132 233 -162 l65 -22 0 -634 0 -634 -239 0 -239 0 -19 47 c-16
43 -18 78 -16 323 1 151 6 356 12 455 8 156 8 182 -5 195 -14 13 -17 13 -30
-4 -8 -11 -14 -36 -14 -55 0 -20 -5 -142 -10 -271 -10 -222 -13 -245 -52 -407
-48 -201 -63 -233 -110 -233 -51 1 -190 28 -201 39 -19 19 74 500 189 971 62
252 86 315 136 353 28 22 152 69 233 90 11 2 20 5 21 6 0 0 21 -25 46 -57z
m819 22 c190 -60 201 -79 304 -524 72 -312 152 -710 161 -799 7 -79 17 -70
-100 -91 -103 -17 -129 -14 -149 19 -9 16 -36 101 -58 188 -40 152 -42 169
-60 452 -10 161 -22 298 -28 304 -5 5 -17 7 -27 3 -15 -6 -16 -18 -10 -119 40
-678 41 -731 22 -807 -29 -113 -7 -105 -280 -102 l-236 3 2 636 3 636 40 12
c107 31 215 105 262 180 15 24 31 44 34 45 3 0 57 -16 120 -36z m-1326 -1467
c44 -7 79 -17 77 -22 -1 -6 -5 -25 -8 -42 -5 -25 -11 -33 -28 -33 -32 0 -159
29 -166 37 -4 5 -3 23 2 41 10 36 7 36 123 19z m1798 -19 c2 -18 3 -36 1 -40
-5 -8 -134 -38 -164 -38 -20 0 -34 23 -42 66 -3 16 8 20 77 30 126 18 122 18
128 -18z m-993 -93 l0 -45 -227 2 c-210 3 -228 4 -227 21 1 9 2 28 3 42 l1 25
225 0 225 0 0 -45z m520 0 l0 -45 -230 0 -230 0 0 45 0 45 230 0 230 0 0 -45z"/>
<path d="M616 631 c-3 -5 -19 -64 -36 -132 -25 -102 -28 -126 -17 -137 27 -26
42 -2 66 106 36 161 37 172 13 172 -12 0 -23 -4 -26 -9z"/>
<path d="M1385 629 c-4 -5 4 -52 18 -102 14 -51 29 -110 34 -132 7 -30 14 -40
28 -40 29 0 30 37 5 136 -33 133 -40 149 -60 149 -10 0 -22 -5 -25 -11z"/>
</g>
</svg>
