<?xml version="1.0" standalone="no"?>
<!DOCTYPE svg PUBLIC "-//W3C//DTD SVG 20010904//EN"
 "http://www.w3.org/TR/2001/REC-SVG-20010904/DTD/svg10.dtd">
<svg version="1.0" xmlns="http://www.w3.org/2000/svg"
 width="251.000000pt" height="170.000000pt" viewBox="0 0 251.000000 170.000000"
 preserveAspectRatio="xMidYMid meet">
<metadata>
Created by potrace 1.16, written by Peter Selinger 2001-2019
</metadata>
<g transform="translate(0.000000,170.000000) scale(0.100000,-0.100000)"
fill="#000000" stroke="none">
<path d="M1153 1686 c-108 -35 -187 -108 -224 -205 -31 -84 -24 -216 16 -289
34 -63 85 -111 157 -149 47 -24 64 -27 148 -28 85 0 101 3 150 29 74 38 144
113 170 184 18 46 21 73 18 142 -3 73 -9 94 -38 148 -58 109 -156 170 -283
178 -45 2 -88 -1 -114 -10z m219 -99 c161 -83 196 -288 71 -413 -57 -58 -108
-78 -193 -78 -84 0 -134 20 -189 75 -167 167 -50 449 186 449 50 0 73 -6 125
-33z"/>
<path d="M384 1564 c-55 -20 -118 -75 -152 -132 -24 -42 -27 -57 -27 -137 0
-73 4 -98 22 -131 34 -64 71 -103 127 -132 43 -22 63 -27 126 -26 88 1 130 16
190 70 148 134 123 371 -49 467 -65 37 -170 46 -237 21z m211 -94 c113 -70
127 -242 26 -333 -137 -124 -345 -28 -342 157 1 89 49 161 131 195 40 17 144
7 185 -19z"/>
<path d="M1929 1566 c-59 -21 -106 -54 -139 -99 -108 -146 -58 -350 105 -435
67 -35 166 -36 243 -2 178 77 219 324 78 466 -78 77 -191 105 -287 70z m177
-85 c78 -36 135 -142 120 -225 -19 -100 -129 -185 -223 -172 -216 29 -264 307
-68 397 51 24 119 24 171 0z"/>
<path d="M1098 940 c-205 -35 -363 -175 -414 -365 -19 -68 -19 -469 -1 -505 7
-13 28 -35 46 -47 l34 -23 481 0 c530 0 523 -1 570 63 19 26 21 45 24 220 3
146 0 210 -12 267 -42 201 -185 342 -391 385 -74 16 -257 18 -337 5z m375 -91
c145 -49 233 -143 273 -292 9 -36 14 -112 14 -244 0 -224 -1 -227 -92 -238
-29 -3 -243 -5 -475 -3 -329 2 -425 6 -435 16 -17 17 -24 345 -9 427 34 183
169 314 362 350 99 19 281 11 362 -16z"/>
<path d="M1935 940 c-69 -10 -168 -44 -185 -65 -6 -8 -10 -24 -8 -37 4 -28 37
-35 70 -14 51 32 137 48 237 44 136 -7 197 -32 282 -117 94 -94 104 -127 104
-348 -1 -139 -4 -176 -15 -188 -12 -11 -62 -16 -238 -21 -123 -4 -225 -11
-228 -16 -3 -5 -3 -20 0 -34 l6 -24 221 0 c246 0 274 6 309 62 20 31 21 45 18
233 l-3 200 -32 67 c-42 88 -108 158 -191 201 -104 54 -226 74 -347 57z"/>
<path d="M330 926 c-148 -41 -264 -147 -311 -283 -16 -48 -19 -84 -19 -247 0
-282 -7 -276 317 -276 209 0 253 7 253 38 0 39 -15 42 -252 42 -208 0 -229 2
-236 18 -4 9 -7 94 -7 187 0 218 10 252 104 346 93 93 147 113 306 114 117 0
123 -1 188 -33 55 -27 71 -31 82 -22 41 34 -2 79 -102 110 -76 23 -249 26
-323 6z"/>
</g>
</svg>
