<?xml version="1.0" standalone="no"?>
<!DOCTYPE svg PUBLIC "-//W3C//DTD SVG 20010904//EN"
 "http://www.w3.org/TR/2001/REC-SVG-20010904/DTD/svg10.dtd">
<svg version="1.0" xmlns="http://www.w3.org/2000/svg"
 width="205.000000pt" height="210.000000pt" viewBox="0 0 205.000000 210.000000"
 preserveAspectRatio="xMidYMid meet">
<metadata>
Created by potrace 1.16, written by Peter Selinger 2001-2019
</metadata>
<g transform="translate(0.000000,210.000000) scale(0.100000,-0.100000)"
fill="#000000" stroke="none">
<path d="M1010 1955 c0 -134 1 -146 18 -143 15 3 17 18 17 143 0 125 -2 140
-17 143 -17 3 -18 -9 -18 -143z"/>
<path d="M490 1920 c0 -20 124 -240 135 -240 27 0 22 19 -37 132 -44 84 -67
118 -80 118 -10 0 -18 -4 -18 -10z"/>
<path d="M1478 1814 c-37 -64 -65 -120 -62 -125 14 -23 35 -1 91 99 69 120 74
134 53 139 -10 2 -37 -34 -82 -113z"/>
<path d="M885 1714 c-187 -41 -368 -183 -453 -355 -156 -315 -46 -698 249
-872 109 -64 205 -90 339 -90 132 0 207 16 309 68 175 89 302 250 346 438 19
79 19 212 0 302 -8 39 -33 108 -56 155 -78 158 -248 300 -414 344 -89 24 -236
29 -320 10z m328 -53 c198 -70 338 -206 405 -393 34 -95 42 -262 18 -359 -52
-205 -208 -376 -407 -445 -348 -120 -735 95 -815 453 -19 88 -15 247 10 324
71 225 265 398 496 443 58 11 236 -3 293 -23z"/>
<path d="M560 1301 c-24 -7 -25 -11 -24 -77 0 -103 20 -160 73 -215 75 -77
162 -87 254 -29 56 35 97 103 106 173 l6 52 48 3 47 3 0 -37 c0 -120 106 -234
217 -234 38 0 108 31 140 62 44 43 74 118 80 204 8 107 14 104 -189 104 l-170
0 -32 -32 c-30 -30 -38 -33 -97 -33 -58 0 -66 3 -91 30 l-26 30 -159 2 c-87 1
-169 -2 -183 -6z m345 -57 c49 -53 24 -160 -52 -223 -126 -104 -283 12 -283
209 l0 40 155 0 c156 0 156 0 180 -26z m562 -43 c-7 -80 -31 -135 -81 -178
-62 -56 -140 -55 -203 0 -72 64 -94 161 -47 216 l26 31 155 0 156 0 -6 -69z"/>
<path d="M815 790 c-14 -23 56 -85 124 -108 53 -18 140 -14 191 9 49 22 100
65 100 85 0 27 -23 25 -53 -4 -85 -83 -215 -82 -313 1 -35 30 -40 31 -49 17z"/>
<path d="M114 1519 c-10 -17 14 -34 129 -85 82 -36 110 -45 119 -36 8 8 8 15
3 21 -9 7 -233 111 -241 111 -1 0 -6 -5 -10 -11z"/>
<path d="M1803 1475 c-108 -51 -130 -69 -99 -81 18 -7 231 99 231 116 0 24
-18 19 -132 -35z"/>
<path d="M67 1013 c-58 -3 -67 -6 -67 -23 0 -19 6 -19 128 -14 126 7 150 12
138 33 -7 11 -48 11 -199 4z"/>
<path d="M1785 1009 c-14 -21 11 -28 138 -35 115 -6 127 -5 127 10 0 22 -6 23
-142 31 -81 4 -118 2 -123 -6z"/>
<path d="M279 553 c-95 -72 -127 -110 -89 -107 22 1 220 155 220 171 0 26 -28
12 -131 -64z"/>
<path d="M1640 617 c0 -7 50 -50 111 -96 97 -72 113 -81 126 -68 12 12 0 24
-95 95 -105 79 -142 97 -142 69z"/>
<path d="M686 358 c-35 -55 -108 -228 -102 -243 3 -9 11 -13 17 -9 13 8 119
229 119 249 0 25 -19 26 -34 3z"/>
<path d="M1324 359 c-3 -6 21 -67 55 -137 56 -112 63 -124 77 -110 14 14 9 28
-45 137 -59 117 -72 133 -87 110z"/>
<path d="M1002 143 c3 -122 5 -138 21 -141 15 -3 17 9 17 137 0 135 -1 141
-20 141 -20 0 -20 -5 -18 -137z"/>
</g>
</svg>
