<?xml version="1.0" standalone="no"?>
<!DOCTYPE svg PUBLIC "-//W3C//DTD SVG 20010904//EN"
 "http://www.w3.org/TR/2001/REC-SVG-20010904/DTD/svg10.dtd">
<svg version="1.0" xmlns="http://www.w3.org/2000/svg"
 width="170.000000pt" height="189.000000pt" viewBox="0 0 170.000000 189.000000"
 preserveAspectRatio="xMidYMid meet">
<metadata>
Created by potrace 1.16, written by Peter Selinger 2001-2019
</metadata>
<g transform="translate(0.000000,189.000000) scale(0.100000,-0.100000)"
fill="#000000" stroke="none">
<path d="M7 1883 c-4 -3 -7 -426 -7 -939 0 -840 2 -932 16 -938 24 -9 1657 -7
1672 2 10 7 12 202 10 943 l-3 934 -841 3 c-462 1 -844 -1 -847 -5z m303 -938
l0 -905 -135 0 -135 0 0 205 0 205 75 0 c68 0 75 2 75 20 0 18 -7 20 -75 20
l-75 0 0 155 0 155 75 0 c68 0 75 2 75 20 0 18 -7 20 -75 20 l-75 0 0 160 0
159 73 3 c64 3 72 5 72 23 0 18 -8 20 -72 23 l-73 3 0 149 0 150 69 0 c46 0
72 5 80 14 21 25 -12 38 -84 34 l-65 -3 0 148 0 147 135 0 135 0 0 -905z
m1030 465 l0 -435 -492 0 -493 0 -3 438 -2 437 495 -2 495 -3 0 -435z m320
291 l0 -149 -63 3 c-69 4 -93 -4 -84 -29 5 -13 21 -16 77 -16 l70 0 0 -153 0
-153 -72 0 c-67 1 -73 -1 -73 -19 0 -18 8 -20 73 -23 l72 -3 0 -159 0 -160
-76 0 c-66 0 -75 -2 -72 -17 3 -15 16 -19 76 -21 l72 -3 0 -154 0 -154 -72 -3
c-60 -2 -73 -6 -76 -20 -3 -16 6 -18 72 -18 l76 0 0 -205 0 -205 -135 0 -135
0 0 905 0 905 135 0 135 0 0 -149z m-318 -1212 c2 -242 1 -443 -1 -445 -2 -2
-226 -4 -498 -4 l-493 0 0 445 0 445 495 0 495 0 2 -441z"/>
</g>
</svg>
