<?xml version="1.0" standalone="no"?>
<!DOCTYPE svg PUBLIC "-//W3C//DTD SVG 20010904//EN"
 "http://www.w3.org/TR/2001/REC-SVG-20010904/DTD/svg10.dtd">
<svg version="1.0" xmlns="http://www.w3.org/2000/svg"
 width="184.000000pt" height="222.000000pt" viewBox="0 0 184.000000 222.000000"
 preserveAspectRatio="xMidYMid meet">
<metadata>
Created by potrace 1.16, written by Peter Selinger 2001-2019
</metadata>
<g transform="translate(0.000000,222.000000) scale(0.100000,-0.100000)"
fill="#000000" stroke="none">
<path d="M725 2210 c-251 -40 -449 -201 -521 -425 -35 -105 -44 -284 -20 -394
l16 -74 -25 -23 c-33 -31 -45 -64 -45 -128 0 -110 54 -195 137 -215 42 -11 46
-15 74 -78 45 -101 113 -196 190 -267 l71 -64 -13 -42 c-7 -23 -23 -48 -35
-56 -12 -8 -78 -32 -147 -53 -69 -20 -151 -53 -182 -72 -108 -64 -207 -193
-222 -287 -5 -29 -3 -34 12 -31 10 2 22 15 25 29 30 109 128 219 243 274 40
19 88 37 107 41 19 4 68 18 108 31 l74 24 56 -51 c32 -29 83 -65 116 -80 150
-71 346 -35 472 86 l47 44 121 -36 c67 -19 146 -48 178 -64 109 -55 213 -175
233 -267 5 -24 12 -32 23 -30 39 8 -6 130 -78 211 -78 87 -181 146 -322 182
-34 9 -84 26 -109 36 -38 17 -48 27 -58 58 -6 21 -11 44 -11 50 0 6 32 41 70
77 77 73 149 174 182 256 28 69 35 78 65 78 85 0 156 99 155 217 -1 65 -10 92
-47 133 l-23 25 20 75 c32 116 29 271 -6 375 -15 44 -41 101 -57 127 -64 100
-176 175 -277 185 -38 4 -74 17 -111 39 -117 69 -337 107 -486 84z m250 -45
c92 -16 160 -41 235 -86 28 -17 66 -29 101 -32 95 -9 187 -71 257 -173 60 -88
90 -238 73 -364 -21 -156 -69 -242 -86 -153 -17 96 -77 177 -189 257 -74 52
-127 110 -156 166 l-21 42 -60 -57 c-110 -105 -255 -153 -494 -162 -77 -3
-157 -9 -177 -14 -75 -19 -129 -91 -164 -217 -15 -55 -19 -60 -38 -53 -27 10
-45 99 -46 228 -1 279 132 489 370 583 119 47 254 59 395 35z m372 -590 c108
-80 147 -134 169 -231 l16 -74 47 6 c44 6 50 4 69 -21 17 -21 22 -41 22 -87 0
-102 -49 -169 -132 -182 l-43 -7 -52 -108 c-79 -165 -199 -285 -342 -341 -133
-52 -286 -44 -421 22 -122 59 -259 219 -315 369 -17 46 -45 69 -84 69 -10 0
-31 10 -46 22 -62 48 -85 171 -45 236 20 33 22 34 70 27 l49 -7 11 44 c33 127
61 183 111 221 23 16 52 21 185 28 158 8 260 24 342 53 68 24 157 75 187 106
l28 29 44 -55 c25 -30 83 -83 130 -119z m-127 -1127 c0 -41 -52 -93 -138 -135
-71 -36 -82 -38 -166 -38 -104 1 -158 20 -233 81 -66 54 -74 71 -60 122 8 32
16 42 27 38 8 -3 49 -17 90 -32 69 -24 85 -26 195 -22 105 4 128 8 190 34 l70
30 12 -25 c7 -14 12 -38 13 -53z"/>
<path d="M650 1301 c-15 -29 -12 -87 6 -105 20 -21 31 -20 44 3 22 42 6 121
-25 121 -8 0 -19 -9 -25 -19z"/>
<path d="M1152 1308 c-18 -18 -15 -103 4 -118 26 -22 49 11 47 67 -2 55 -25
77 -51 51z"/>
<path d="M715 850 c-10 -16 11 -36 59 -59 35 -17 62 -21 149 -21 115 0 158 11
191 49 14 15 16 25 9 32 -8 8 -22 3 -50 -15 -21 -14 -59 -29 -83 -32 -65 -9
-184 10 -219 35 -32 23 -47 26 -56 11z"/>
</g>
</svg>
