<?xml version="1.0" standalone="no"?>
<!DOCTYPE svg PUBLIC "-//W3C//DTD SVG 20010904//EN"
 "http://www.w3.org/TR/2001/REC-SVG-20010904/DTD/svg10.dtd">
<svg version="1.0" xmlns="http://www.w3.org/2000/svg"
 width="193.000000pt" height="243.000000pt" viewBox="0 0 193.000000 243.000000"
 preserveAspectRatio="xMidYMid meet">
<metadata>
Created by potrace 1.16, written by Peter Selinger 2001-2019
</metadata>
<g transform="translate(0.000000,243.000000) scale(0.100000,-0.100000)"
fill="#000000" stroke="none">
<path d="M396 2415 c-59 -21 -108 -65 -139 -126 -25 -48 -28 -62 -24 -122 6
-90 42 -149 117 -194 47 -28 63 -33 120 -33 82 0 132 22 187 82 44 48 63 97
63 162 0 166 -169 287 -324 231z m159 -44 c157 -72 166 -288 16 -368 -127 -67
-281 12 -297 153 -19 158 140 280 281 215z"/>
<path d="M1350 2241 c-72 -22 -139 -81 -166 -147 -17 -40 -18 -123 -3 -175 35
-114 172 -183 294 -149 56 16 132 81 156 135 24 53 24 147 0 200 -48 106 -176
168 -281 136z m156 -58 c22 -11 53 -39 69 -62 27 -38 30 -51 30 -116 0 -65 -3
-78 -30 -116 -90 -127 -276 -114 -346 24 -30 58 -23 149 15 207 55 83 170 111
262 63z"/>
<path d="M220 1867 c-93 -26 -147 -75 -192 -173 -22 -47 -23 -61 -26 -358 -3
-268 -1 -315 13 -352 21 -55 73 -101 130 -115 l45 -11 2 -422 c3 -366 5 -421
18 -421 13 0 15 91 15 755 0 664 -2 755 -15 755 -13 0 -15 -43 -18 -312 -2
-241 -5 -313 -15 -313 -6 0 -31 9 -54 19 -30 14 -48 31 -63 61 -20 40 -21 52
-18 348 3 298 4 308 27 359 27 61 82 115 137 134 29 10 101 14 279 14 228 0
242 -1 281 -22 48 -26 100 -82 122 -132 9 -22 17 -83 21 -156 5 -97 9 -120 21
-120 13 0 15 20 14 125 0 103 -4 133 -21 171 -28 63 -77 116 -137 147 -51 27
-52 27 -286 29 -165 2 -248 -1 -280 -10z"/>
<path d="M1179 1680 c-52 -27 -103 -91 -133 -165 -32 -81 -37 -118 -14 -123
13 -2 20 8 28 40 21 79 68 164 107 194 l38 29 180 3 c99 2 194 1 212 -3 69
-13 124 -83 166 -210 36 -111 127 -466 127 -497 0 -43 -32 -73 -78 -73 -23 0
-44 4 -49 8 -4 5 -33 108 -64 230 -48 193 -58 222 -75 222 -11 0 -18 -6 -18
-15 1 -8 43 -177 93 -374 50 -198 91 -363 91 -367 0 -4 -19 -9 -42 -11 -30 -2
-43 -8 -43 -18 0 -21 120 -28 128 -7 3 8 -10 75 -29 148 -18 74 -34 137 -34
140 0 3 11 4 24 2 68 -13 136 45 136 116 0 39 -87 383 -131 516 -35 107 -85
179 -148 212 -42 22 -54 23 -240 23 -174 -1 -200 -3 -232 -20z"/>
<path d="M725 1497 c-3 -7 -5 -47 -3 -88 2 -58 6 -74 18 -74 12 0 15 16 15 84
0 59 -4 86 -12 88 -7 3 -15 -2 -18 -10z"/>
<path d="M878 1340 c-75 -23 -118 -84 -118 -168 0 -90 72 -162 162 -162 129 0
208 127 152 245 -30 65 -127 107 -196 85z m112 -55 c38 -20 60 -63 60 -116 0
-35 -6 -47 -40 -81 -39 -39 -42 -40 -92 -36 -162 16 -157 246 5 248 21 0 51
-7 67 -15z"/>
<path d="M1145 1183 c-21 -87 -40 -164 -42 -170 -5 -13 24 -30 34 -20 10 11
83 328 77 338 -18 30 -33 -2 -69 -148z"/>
<path d="M1329 1007 c-91 -61 -90 -181 3 -251 85 -62 228 16 228 126 0 81 -68
148 -150 148 -32 0 -58 -7 -81 -23z m157 -51 c94 -94 -29 -234 -141 -160 -84
55 -37 194 67 194 32 0 47 -7 74 -34z"/>
<path d="M760 944 c-46 -20 -77 -50 -103 -99 -19 -35 -22 -59 -25 -209 -5
-209 6 -247 74 -278 l44 -19 0 -164 c0 -159 1 -165 20 -165 20 0 20 5 18 343
-3 296 -5 342 -18 342 -13 0 -15 -25 -18 -152 -3 -156 -5 -163 -42 -143 -30
16 -40 67 -40 215 0 165 13 218 66 264 42 38 74 44 215 39 100 -3 118 -6 147
-26 62 -45 72 -81 72 -267 0 -126 -4 -173 -15 -194 -12 -24 -33 -41 -51 -41
-2 0 -4 67 -4 149 0 83 -4 152 -8 155 -30 18 -32 -13 -30 -350 3 -293 5 -339
18 -339 13 0 16 27 20 167 l5 168 35 19 c36 19 58 60 80 147 13 53 47 103 90
132 31 21 44 23 112 20 120 -5 160 -45 197 -199 12 -52 25 -102 27 -111 4 -14
-1 -18 -24 -18 -29 0 -30 2 -47 78 -19 84 -29 102 -47 84 -8 -8 -5 -41 16
-134 30 -141 30 -139 14 -133 -32 12 -39 -10 -36 -116 3 -90 5 -104 21 -107
15 -3 17 6 17 87 0 89 0 91 24 91 24 0 39 20 32 42 -3 7 -7 25 -10 40 -6 27
-5 28 34 28 28 0 43 5 47 16 6 17 -16 126 -49 231 -34 113 -100 162 -218 163
-87 0 -127 -13 -171 -56 l-37 -36 -4 110 c-3 104 -5 113 -33 153 -16 23 -50
53 -74 66 -40 21 -57 23 -175 23 -94 -1 -141 -5 -166 -16z"/>
<path d="M455 908 c-3 -7 -4 -211 -3 -453 3 -383 5 -440 18 -440 13 0 15 57
15 449 0 351 -3 450 -12 453 -7 3 -15 -1 -18 -9z"/>
<path d="M1261 478 c-19 -55 -63 -267 -58 -282 4 -9 15 -16 26 -16 18 0 20 -8
23 -87 2 -70 6 -88 18 -88 12 0 15 19 15 110 0 108 0 110 -23 109 -16 0 -21 4
-18 15 23 80 56 242 51 251 -10 17 -25 11 -34 -12z"/>
<path d="M915 398 c-3 -7 -4 -99 -3 -203 3 -161 5 -190 18 -190 13 0 15 29 15
199 0 151 -3 200 -12 203 -7 3 -15 -1 -18 -9z"/>
<path d="M1395 218 c-3 -8 -4 -59 -3 -114 2 -80 6 -99 18 -99 12 0 15 19 15
109 0 79 -4 111 -12 113 -7 3 -15 -2 -18 -9z"/>
</g>
</svg>
