<?xml version="1.0" standalone="no"?>
<!DOCTYPE svg PUBLIC "-//W3C//DTD SVG 20010904//EN"
 "http://www.w3.org/TR/2001/REC-SVG-20010904/DTD/svg10.dtd">
<svg version="1.0" xmlns="http://www.w3.org/2000/svg"
 width="188.000000pt" height="197.000000pt" viewBox="0 0 188.000000 197.000000"
 preserveAspectRatio="xMidYMid meet">
<metadata>
Created by potrace 1.16, written by Peter Selinger 2001-2019
</metadata>
<g transform="translate(0.000000,197.000000) scale(0.100000,-0.100000)"
fill="#000000" stroke="none">
<path d="M1364 1947 c-22 -19 -28 -34 -32 -80 l-4 -57 -389 0 -389 0 0 50 c0
64 -30 100 -83 100 -54 0 -80 -28 -87 -91 l-5 -54 -158 -5 -159 -5 -29 -33
-29 -32 0 -841 0 -841 29 -29 30 -29 881 2 882 3 29 33 29 32 0 835 0 834 -31
36 -31 35 -148 0 -148 0 -6 53 c-8 59 -11 67 -46 90 -34 24 -74 21 -106 -6z
m96 -47 c6 -12 9 -65 8 -127 -3 -105 -4 -108 -26 -111 -13 -2 -32 4 -43 14
-16 15 -19 31 -19 111 0 52 5 103 10 114 14 25 56 25 70 -1z m-960 -16 c13
-32 13 -165 1 -197 -12 -30 -46 -41 -66 -20 -19 19 -22 212 -3 231 21 21 58
14 68 -14z m-123 -159 c1 -22 2 -48 2 -57 3 -57 101 -79 146 -33 21 20 25 34
25 80 l0 55 390 0 390 0 0 -34 c0 -93 68 -149 145 -120 25 10 45 58 45 109 l0
45 129 0 c123 0 131 -1 158 -24 28 -24 28 -25 31 -165 l4 -141 -903 0 -902 0
5 142 c5 139 6 142 33 165 26 23 33 23 163 21 l137 -3 2 -40z m579 -335 l884
0 0 -644 c0 -636 0 -644 -21 -670 l-20 -26 -857 0 c-471 0 -862 4 -868 8 -33
21 -34 50 -34 697 0 586 1 647 16 641 9 -3 414 -6 900 -6z"/>
<path d="M1364 1023 c-27 -31 -85 -96 -129 -143 -44 -47 -149 -161 -234 -253
l-154 -168 -162 161 c-126 126 -163 158 -173 148 -7 -7 -12 -17 -12 -23 0 -13
332 -345 346 -345 12 0 113 104 309 319 262 287 285 315 283 335 -5 36 -26 27
-74 -31z"/>
</g>
</svg>
