<?xml version="1.0" standalone="no"?>
<!DOCTYPE svg PUBLIC "-//W3C//DTD SVG 20010904//EN"
 "http://www.w3.org/TR/2001/REC-SVG-20010904/DTD/svg10.dtd">
<svg version="1.0" xmlns="http://www.w3.org/2000/svg"
 width="193.000000pt" height="195.000000pt" viewBox="0 0 193.000000 195.000000"
 preserveAspectRatio="xMidYMid meet">
<metadata>
Created by potrace 1.16, written by Peter Selinger 2001-2019
</metadata>
<g transform="translate(0.000000,195.000000) scale(0.100000,-0.100000)"
fill="#000000" stroke="none">
<path d="M955 1938 c-3 -8 -4 -88 -3 -178 3 -139 5 -165 18 -165 13 0 15 26
15 174 0 131 -3 175 -12 178 -7 3 -15 -2 -18 -9z"/>
<path d="M265 1649 c-8 -12 222 -249 241 -249 38 0 16 32 -92 141 -115 116
-136 130 -149 108z"/>
<path d="M1511 1544 c-61 -63 -111 -120 -111 -125 0 -5 8 -13 17 -16 13 -5 45
23 130 113 62 65 113 125 113 131 0 36 -47 3 -149 -103z"/>
<path d="M835 1466 c-221 -55 -385 -266 -385 -497 0 -244 192 -467 439 -509
161 -27 345 38 457 163 258 288 123 744 -251 843 -61 17 -193 17 -260 0z m269
-46 c133 -42 257 -158 306 -287 65 -173 16 -377 -121 -506 -97 -91 -211 -132
-353 -125 -80 3 -100 8 -167 41 -190 91 -304 303 -271 500 49 284 334 461 606
377z"/>
<path d="M5 980 c-15 -25 13 -30 169 -30 89 0 165 3 169 6 3 3 3 12 0 20 -4
11 -38 14 -168 14 -99 0 -166 -4 -170 -10z"/>
<path d="M1587 976 c-3 -8 -3 -17 0 -20 4 -3 82 -6 175 -6 161 0 168 1 168 20
0 19 -7 20 -169 20 -136 0 -170 -3 -174 -14z"/>
<path d="M387 422 c-107 -108 -138 -152 -104 -152 7 0 66 54 131 120 101 101
117 122 106 135 -7 8 -13 15 -14 15 -1 0 -54 -53 -119 -118z"/>
<path d="M1413 533 c-7 -3 -13 -10 -13 -16 0 -7 54 -66 119 -131 108 -108 141
-130 141 -93 0 19 -233 245 -247 240z"/>
<path d="M963 343 c-20 -7 -18 -329 1 -336 8 -3 17 -3 20 0 9 9 7 331 -1 336
-5 2 -14 2 -20 0z"/>
</g>
</svg>
