<?xml version="1.0" standalone="no"?>
<!DOCTYPE svg PUBLIC "-//W3C//DTD SVG 20010904//EN"
 "http://www.w3.org/TR/2001/REC-SVG-20010904/DTD/svg10.dtd">
<svg version="1.0" xmlns="http://www.w3.org/2000/svg"
 width="197.000000pt" height="246.000000pt" viewBox="0 0 197.000000 246.000000"
 preserveAspectRatio="xMidYMid meet">
<metadata>
Created by potrace 1.16, written by Peter Selinger 2001-2019
</metadata>
<g transform="translate(0.000000,246.000000) scale(0.100000,-0.100000)"
fill="#000000" stroke="none">
<path d="M805 2446 c-79 -20 -146 -59 -203 -120 -63 -66 -101 -144 -115 -236
l-11 -67 -102 -17 c-229 -37 -339 -106 -291 -180 28 -42 149 -93 277 -117 63
-12 121 -23 128 -25 8 -2 12 -28 12 -82 0 -145 45 -259 141 -354 114 -114 284
-162 451 -127 209 44 367 240 368 455 0 34 3 75 6 91 6 29 7 29 98 41 115 14
207 42 268 81 132 84 18 180 -263 221 l-86 13 -7 61 c-8 80 -63 192 -125 254
-51 50 -131 95 -202 111 -60 14 -283 12 -344 -3z m405 -59 c73 -35 131 -86
169 -146 33 -54 61 -139 61 -183 l0 -29 -122 8 c-155 10 -617 7 -721 -4 l-79
-9 7 55 c14 117 103 249 200 296 80 38 125 45 280 42 139 -3 154 -5 205 -30z
m200 -397 c278 -27 473 -93 430 -146 -38 -45 -228 -104 -337 -104 l-43 0 0 39
0 39 -77 9 c-104 11 -776 8 -833 -3 -44 -9 -45 -10 -48 -52 -4 -50 -7 -50
-129 -27 -155 29 -273 87 -258 126 9 24 107 65 198 83 82 17 310 43 437 50
124 6 537 -3 660 -14z m-15 -205 l30 -6 -6 -152 c-4 -116 -10 -163 -24 -197
-88 -213 -288 -317 -517 -269 -153 32 -292 168 -328 321 -5 24 -10 100 -10
170 l0 127 33 6 c17 3 57 7 87 9 81 5 700 -2 735 -9z"/>
<path d="M600 1030 c-244 -28 -434 -159 -531 -365 -57 -122 -69 -200 -69 -443
0 -115 3 -212 7 -215 3 -4 12 -2 20 4 10 9 13 58 13 218 0 243 11 308 71 431
55 112 151 209 259 262 l75 36 3 -203 2 -203 -60 -123 -61 -123 3 -150 c3
-126 5 -151 18 -151 12 0 16 26 20 150 l5 151 52 107 52 107 504 0 504 0 51
-109 52 -108 0 -140 c0 -105 3 -143 13 -152 8 -6 17 -8 20 -4 4 3 7 74 7 157
l0 151 -60 124 -60 123 0 194 c0 127 4 194 10 194 21 0 116 -53 171 -96 90
-69 162 -176 203 -299 22 -68 35 -218 36 -397 0 -81 4 -149 9 -152 5 -3 14 1
21 9 10 12 11 66 7 228 -6 242 -21 318 -84 440 -52 101 -173 222 -272 271
-145 73 -182 78 -581 82 -195 1 -389 -1 -430 -6z m50 -249 l0 -209 -80 -4 -80
-3 0 202 0 201 38 10 c20 5 56 10 80 11 l42 1 0 -209z m610 -3 l0 -213 -282 2
-283 2 -3 211 -2 210 285 0 285 0 0 -212z m193 197 c15 -7 17 -26 17 -212 0
-183 -2 -204 -16 -199 -9 3 -47 6 -85 6 l-69 0 0 211 0 212 68 -6 c37 -3 75
-9 85 -12z"/>
</g>
</svg>
