<?xml version="1.0" standalone="no"?>
<!DOCTYPE svg PUBLIC "-//W3C//DTD SVG 20010904//EN"
 "http://www.w3.org/TR/2001/REC-SVG-20010904/DTD/svg10.dtd">
<svg version="1.0" xmlns="http://www.w3.org/2000/svg"
 width="216.000000pt" height="188.000000pt" viewBox="0 0 216.000000 188.000000"
 preserveAspectRatio="xMidYMid meet">
<metadata>
Created by potrace 1.16, written by Peter Selinger 2001-2019
</metadata>
<g transform="translate(0.000000,188.000000) scale(0.100000,-0.100000)"
fill="#000000" stroke="none">
<path d="M462 1866 c-106 -27 -201 -83 -287 -170 -123 -124 -175 -248 -175
-416 0 -104 18 -180 67 -280 49 -101 152 -204 253 -253 78 -38 174 -67 222
-67 l28 0 0 -315 0 -315 -217 -2 c-210 -3 -218 -4 -218 -23 0 -20 7 -20 970
-20 963 0 970 0 970 20 0 19 -8 20 -142 23 l-143 3 0 429 0 430 151 0 151 0
34 34 35 35 -3 335 -3 336 -28 27 -27 28 -324 0 c-347 0 -362 -2 -385 -52 -7
-16 -11 -133 -11 -354 l0 -331 29 -29 29 -29 151 0 151 0 0 -430 0 -430 -560
0 -560 0 0 314 0 313 59 6 c73 8 174 44 240 86 79 51 175 160 214 243 46 98
59 155 59 268 -1 255 -165 486 -405 570 -78 28 -246 36 -325 16z m303 -58
c164 -54 299 -189 357 -356 33 -96 33 -258 0 -354 -63 -182 -214 -318 -403
-363 -96 -22 -99 -21 -99 24 0 37 6 45 105 137 101 93 128 134 88 134 -10 0
-57 -39 -105 -86 l-88 -85 -2 223 c-3 215 -4 223 -23 223 -19 0 -20 -8 -23
-187 l-2 -187 -82 84 c-44 47 -87 85 -94 85 -35 0 -17 -29 75 -129 l101 -109
0 -72 0 -72 -42 7 c-221 34 -393 180 -464 395 -27 83 -25 244 5 330 102 291
414 452 696 358z m1327 -165 c17 -15 18 -39 18 -338 0 -236 -3 -324 -12 -333
-9 -9 -96 -12 -329 -12 -317 0 -318 0 -333 22 -14 19 -16 68 -16 328 0 260 2
309 16 328 15 22 16 22 326 22 276 0 314 -2 330 -17z"/>
<path d="M1642 1488 c-8 -8 -12 -67 -12 -191 l0 -178 23 3 c20 3 22 9 25 81
l3 77 94 0 94 0 3 -77 c3 -72 5 -78 26 -81 l22 -3 0 179 c0 137 -3 182 -13
191 -25 20 -37 -9 -37 -91 l0 -78 -95 0 -95 0 0 79 c0 82 -14 113 -38 89z"/>
</g>
</svg>
