<?xml version="1.0" standalone="no"?>
<!DOCTYPE svg PUBLIC "-//W3C//DTD SVG 20010904//EN"
 "http://www.w3.org/TR/2001/REC-SVG-20010904/DTD/svg10.dtd">
<svg version="1.0" xmlns="http://www.w3.org/2000/svg"
 width="180.000000pt" height="173.000000pt" viewBox="0 0 180.000000 173.000000"
 preserveAspectRatio="xMidYMid meet">
<metadata>
Created by potrace 1.16, written by Peter Selinger 2001-2019
</metadata>
<g transform="translate(0.000000,173.000000) scale(0.100000,-0.100000)"
fill="#000000" stroke="none">
<path d="M783 1700 c-73 -37 -122 -89 -166 -180 -30 -60 -32 -71 -31 -165 0
-55 6 -112 12 -127 14 -34 10 -35 -31 -4 -151 113 -332 117 -473 10 -109 -83
-122 -308 -24 -425 54 -66 177 -120 307 -134 l59 -7 -71 -72 c-114 -113 -163
-248 -131 -357 31 -108 113 -194 210 -220 62 -17 153 -6 216 26 98 49 194 169
235 290 5 16 10 10 25 -32 55 -158 232 -297 375 -296 146 1 271 115 291 266
13 92 -64 265 -156 351 l-45 42 94 16 c229 39 331 154 319 358 -4 60 -10 87
-31 123 -97 165 -345 199 -523 72 -26 -19 -49 -33 -50 -32 -2 1 2 23 7 47 6
25 9 92 7 150 -4 117 -20 158 -85 231 -60 66 -114 92 -202 97 -70 3 -81 1
-138 -28z m241 -49 c27 -14 63 -44 79 -66 53 -74 61 -101 61 -225 1 -103 -2
-121 -25 -170 -14 -30 -47 -82 -74 -115 -26 -33 -49 -61 -49 -62 -1 -1 -27 5
-59 14 -52 13 -63 13 -114 -2 -64 -19 -50 -27 -130 76 -88 114 -109 290 -49
407 83 163 220 218 360 143z m-616 -396 c74 -22 191 -105 272 -192 38 -42 70
-80 70 -84 0 -5 -11 -25 -25 -45 -28 -41 -45 -94 -45 -140 0 -28 -4 -32 -52
-48 -70 -24 -221 -32 -299 -17 -186 37 -268 119 -277 276 -3 70 -1 86 20 124
30 56 82 99 150 122 65 23 119 24 186 4z m1201 -16 c93 -41 144 -116 145 -214
1 -141 -59 -229 -189 -275 -61 -22 -86 -25 -195 -24 -96 0 -139 5 -185 20
l-60 20 -5 59 c-6 62 -19 95 -53 132 l-20 22 44 57 c49 64 138 139 209 178
107 58 215 67 309 25z m-633 -268 c100 -46 136 -180 70 -266 -37 -48 -74 -65
-144 -65 -94 0 -159 56 -169 144 -16 143 116 245 243 187z m-252 -291 c26 -39
74 -71 129 -84 25 -6 27 -10 27 -57 0 -71 -27 -195 -58 -259 -32 -69 -117
-159 -179 -190 -61 -31 -162 -38 -214 -16 -52 22 -95 61 -127 115 -22 38 -27
58 -27 117 0 61 5 80 38 146 57 117 153 196 302 249 71 25 79 24 109 -21z
m488 14 c121 -44 200 -103 258 -195 37 -57 70 -151 70 -199 0 -88 -62 -184
-146 -225 -119 -58 -291 12 -385 158 -45 69 -65 127 -79 224 -14 105 -7 130
44 144 29 8 56 27 91 64 28 29 55 54 62 54 6 1 45 -11 85 -25z"/>
</g>
</svg>
