<?xml version="1.0" standalone="no"?>
<!DOCTYPE svg PUBLIC "-//W3C//DTD SVG 20010904//EN"
 "http://www.w3.org/TR/2001/REC-SVG-20010904/DTD/svg10.dtd">
<svg version="1.0" xmlns="http://www.w3.org/2000/svg"
 width="134.000000pt" height="217.000000pt" viewBox="0 0 134.000000 217.000000"
 preserveAspectRatio="xMidYMid meet">
<metadata>
Created by potrace 1.16, written by Peter Selinger 2001-2019
</metadata>
<g transform="translate(0.000000,217.000000) scale(0.100000,-0.100000)"
fill="#000000" stroke="none">
<path d="M652 2158 c-8 -8 -12 -55 -12 -145 0 -151 10 -136 -103 -148 -72 -8
-187 -39 -236 -64 -125 -64 -226 -179 -268 -306 l-26 -80 -4 -455 c-2 -300 0
-469 7 -495 27 -100 71 -175 159 -269 73 -78 156 -130 255 -163 73 -23 96 -26
236 -26 140 -1 163 2 241 26 184 57 336 197 406 373 l28 69 2 450 c3 490 1
514 -54 631 -35 76 -156 198 -238 241 -67 35 -119 49 -245 67 l-85 12 -3 134
c-1 78 -7 139 -14 147 -13 16 -30 17 -46 1z m-14 -453 c-5 -104 -5 -106 -38
-138 -53 -52 -60 -79 -60 -249 0 -164 5 -180 57 -207 31 -16 119 -14 153 4 51
26 60 58 60 215 0 162 -8 189 -69 242 l-41 35 0 103 0 103 68 -6 c154 -15 262
-59 356 -148 72 -67 119 -147 141 -241 16 -72 20 -457 6 -779 -7 -174 -7 -176
-43 -250 -62 -129 -190 -237 -341 -289 -82 -28 -100 -30 -226 -30 -113 0 -149
4 -202 21 -106 35 -157 67 -240 148 -61 60 -86 95 -116 157 l-38 79 -3 400
c-3 435 3 528 44 631 29 72 122 180 188 219 77 45 211 82 305 84 l44 1 -5
-105z m83 -194 c24 -19 24 -22 22 -172 -2 -133 -4 -155 -19 -166 -27 -20 -81
-16 -104 7 -18 18 -20 33 -20 158 0 143 4 158 45 180 29 16 50 14 76 -7z"/>
</g>
</svg>
