<?xml version="1.0" standalone="no"?>
<!DOCTYPE svg PUBLIC "-//W3C//DTD SVG 20010904//EN"
 "http://www.w3.org/TR/2001/REC-SVG-20010904/DTD/svg10.dtd">
<svg version="1.0" xmlns="http://www.w3.org/2000/svg"
 width="162.000000pt" height="219.000000pt" viewBox="0 0 162.000000 219.000000"
 preserveAspectRatio="xMidYMid meet">
<metadata>
Created by potrace 1.16, written by Peter Selinger 2001-2019
</metadata>
<g transform="translate(0.000000,219.000000) scale(0.100000,-0.100000)"
fill="#000000" stroke="none">
<path d="M950 2183 c-66 -11 -158 -50 -224 -94 -109 -73 -184 -173 -228 -304
-42 -128 -26 -308 37 -422 13 -24 21 -43 17 -43 -4 0 -37 -7 -73 -14 -137 -29
-269 -123 -322 -229 -29 -57 -56 -168 -57 -232 0 -29 -14 -62 -50 -125 -51
-86 -61 -130 -37 -161 16 -21 51 -39 75 -39 16 0 20 -10 26 -72 4 -40 16 -92
27 -115 41 -84 136 -139 225 -131 l39 3 5 -100 c4 -80 8 -100 20 -100 13 0 15
20 15 120 l0 120 -80 5 c-141 9 -190 58 -208 207 -11 96 -20 117 -49 107 -21
-6 -68 20 -68 39 0 6 25 55 55 107 50 87 55 100 55 156 0 210 151 373 373 403
l60 8 58 -57 c87 -85 244 -160 338 -160 49 0 56 -7 87 -74 48 -104 44 -265 -9
-371 -11 -22 -47 -79 -80 -128 l-60 -88 3 -147 c3 -188 9 -236 34 -240 17 -4
18 4 11 180 l-7 184 71 108 c88 134 113 207 113 331 0 67 -5 105 -21 150 -37
102 -37 95 2 95 57 0 176 46 249 96 108 73 187 183 224 309 23 80 23 230 0
310 -72 246 -301 418 -551 413 -38 0 -81 -3 -95 -5z m264 -64 c84 -29 142 -65
206 -129 99 -99 150 -225 150 -370 0 -147 -50 -269 -152 -370 -103 -102 -224
-150 -376 -150 -241 0 -445 159 -506 396 -61 234 58 486 278 594 45 22 106 44
136 49 75 13 192 4 264 -20z"/>
<path d="M983 1863 l-48 -98 -95 -15 c-71 -11 -96 -19 -98 -31 -1 -9 27 -48
64 -88 l68 -73 -12 -102 c-15 -139 -11 -142 100 -78 l84 48 93 -49 c62 -33 96
-46 103 -39 6 6 5 43 -6 112 l-15 103 65 72 c35 40 64 80 64 89 0 21 -30 32
-112 41 -36 4 -70 10 -76 14 -5 3 -30 46 -54 96 -26 52 -51 91 -61 93 -12 3
-29 -22 -64 -95z m103 -50 c19 -42 37 -79 39 -81 2 -2 42 -9 90 -16 l85 -11
-61 -68 -62 -68 14 -90 c8 -49 14 -89 13 -89 -2 0 -37 19 -79 41 -86 47 -80
47 -184 -17 l-44 -27 7 64 c4 35 10 76 13 90 4 22 -6 38 -56 91 -34 36 -61 68
-61 70 0 3 29 8 65 12 83 8 112 19 120 46 11 34 56 130 61 130 2 0 20 -35 40
-77z"/>
<path d="M693 800 c-18 -11 -33 -27 -33 -35 0 -26 28 -28 56 -6 37 29 70 26
105 -8 52 -52 36 -141 -31 -176 -16 -8 -42 -15 -58 -15 -38 0 -58 -22 -37 -40
25 -21 115 4 153 41 30 30 52 82 52 124 -1 38 -38 103 -69 119 -41 22 -99 20
-138 -4z"/>
</g>
</svg>
