<?xml version="1.0" standalone="no"?>
<!DOCTYPE svg PUBLIC "-//W3C//DTD SVG 20010904//EN"
 "http://www.w3.org/TR/2001/REC-SVG-20010904/DTD/svg10.dtd">
<svg version="1.0" xmlns="http://www.w3.org/2000/svg"
 width="189.000000pt" height="189.000000pt" viewBox="0 0 189.000000 189.000000"
 preserveAspectRatio="xMidYMid meet">
<metadata>
Created by potrace 1.16, written by Peter Selinger 2001-2019
</metadata>
<g transform="translate(0.000000,189.000000) scale(0.100000,-0.100000)"
fill="#000000" stroke="none">
<path d="M825 1884 c-425 -67 -743 -367 -814 -768 -14 -77 -14 -265 0 -342 63
-358 324 -641 685 -746 68 -20 102 -23 244 -23 126 0 180 4 228 18 356 98 611
351 697 692 30 118 34 301 9 421 -88 430 -459 737 -904 749 -63 2 -128 1 -145
-1z m336 -63 c333 -86 583 -334 665 -659 29 -114 33 -289 9 -402 -68 -324
-305 -579 -635 -685 -114 -37 -305 -46 -431 -20 -314 63 -575 288 -680 584
-41 118 -52 201 -47 352 4 117 9 146 38 233 113 336 394 567 755 620 65 10
252 -3 326 -23z"/>
<path d="M1125 980 l-310 -310 -171 171 c-148 147 -172 168 -183 155 -11 -13
12 -41 165 -196 97 -99 182 -180 188 -180 19 0 659 647 652 659 -4 6 -13 11
-19 11 -7 0 -152 -139 -322 -310z"/>
</g>
</svg>
