<?xml version="1.0" standalone="no"?>
<!DOCTYPE svg PUBLIC "-//W3C//DTD SVG 20010904//EN"
 "http://www.w3.org/TR/2001/REC-SVG-20010904/DTD/svg10.dtd">
<svg version="1.0" xmlns="http://www.w3.org/2000/svg"
 width="141.000000pt" height="227.000000pt" viewBox="0 0 141.000000 227.000000"
 preserveAspectRatio="xMidYMid meet">
<metadata>
Created by potrace 1.16, written by Peter Selinger 2001-2019
</metadata>
<g transform="translate(0.000000,227.000000) scale(0.100000,-0.100000)"
fill="#000000" stroke="none">
<path d="M1057 2256 c-46 -17 -99 -57 -125 -93 -11 -16 -40 -66 -64 -113 -45
-86 -607 -1110 -723 -1317 l-63 -111 -36 -239 c-20 -131 -39 -271 -42 -310 -6
-65 -5 -73 10 -73 18 0 199 143 381 301 l101 87 219 398 c120 220 303 555 408
746 165 304 191 347 207 338 9 -5 23 -24 31 -42 12 -30 11 -36 -35 -121 -26
-49 -101 -183 -167 -299 -114 -200 -132 -243 -99 -243 13 0 58 76 281 473 85
151 90 189 34 250 -32 36 -34 42 -25 73 15 52 11 120 -9 164 -44 97 -191 165
-284 131z m152 -62 c84 -42 123 -121 101 -203 -6 -23 -13 -41 -16 -41 -4 0
-80 39 -171 86 l-165 86 29 30 c69 74 133 86 222 42z m-108 -200 c90 -48 166
-88 168 -90 3 -3 -658 -1217 -758 -1392 -19 -34 -40 -61 -46 -60 -39 11 -325
172 -322 182 3 6 94 173 204 372 109 198 286 521 393 717 107 196 196 356 196
357 1 0 75 -39 165 -86z m-811 -1505 l151 -81 -23 -25 c-43 -46 -276 -233
-290 -233 -8 0 -25 11 -38 25 -22 24 -22 26 -11 117 17 139 43 278 52 278 4 0
75 -37 159 -81z m-200 -377 c0 -9 -32 -42 -41 -42 -5 0 -6 7 -4 15 3 8 7 22
10 30 4 13 35 11 35 -3z"/>
</g>
</svg>
