<?xml version="1.0" standalone="no"?>
<!DOCTYPE svg PUBLIC "-//W3C//DTD SVG 20010904//EN"
 "http://www.w3.org/TR/2001/REC-SVG-20010904/DTD/svg10.dtd">
<svg version="1.0" xmlns="http://www.w3.org/2000/svg"
 width="209.000000pt" height="215.000000pt" viewBox="0 0 209.000000 215.000000"
 preserveAspectRatio="xMidYMid meet">
<metadata>
Created by potrace 1.16, written by Peter Selinger 2001-2019
</metadata>
<g transform="translate(0.000000,215.000000) scale(0.100000,-0.100000)"
fill="#000000" stroke="none">
<path d="M1150 2143 c-20 -8 -462 -329 -512 -372 -22 -19 -54 -63 -74 -104
-20 -38 -79 -149 -131 -246 -128 -235 -278 -539 -341 -687 -89 -208 -108 -324
-67 -404 66 -127 378 -248 800 -311 147 -21 404 -26 501 -8 138 25 438 129
474 164 23 24 -2 43 -38 28 -245 -101 -361 -136 -515 -154 -215 -25 -565 23
-862 118 -198 63 -316 142 -331 221 -18 92 42 263 211 607 57 116 154 305 217
420 62 116 122 230 133 254 21 47 28 53 393 319 126 92 160 112 189 112 25 0
79 -24 191 -86 86 -48 165 -96 175 -106 23 -26 22 -65 -4 -132 -25 -67 -58
-96 -110 -96 l-38 0 15 28 c7 15 14 35 14 45 0 27 -28 75 -50 87 -11 6 -23 22
-26 36 -5 18 -12 24 -28 22 -31 -4 -22 -45 20 -88 36 -38 42 -65 20 -95 -12
-17 -20 -18 -72 -9 l-59 9 3 42 c4 48 -12 86 -35 81 -13 -2 -16 -17 -17 -70
-1 -56 -5 -71 -26 -93 -36 -40 -84 -56 -154 -55 -84 2 -86 2 -86 -15 0 -22 33
-35 93 -35 74 0 140 25 177 66 l30 34 99 -20 c124 -25 147 -25 196 0 48 25 45
25 45 -4 0 -14 -11 -37 -24 -53 -44 -52 -246 -133 -333 -133 -19 0 -59 9 -91
20 -132 47 -172 44 -225 -19 -50 -60 -67 -143 -67 -335 0 -313 -42 -442 -163
-504 -47 -24 -60 -48 -33 -58 37 -14 114 50 240 199 55 65 151 141 214 169 98
44 222 44 372 -2 l63 -19 45 39 c97 86 241 126 415 116 82 -4 99 -3 104 10 11
29 -14 35 -133 36 -181 2 -301 -33 -403 -114 l-43 -35 -62 20 c-47 16 -89 21
-186 21 -115 1 -129 -1 -182 -26 -74 -34 -121 -67 -182 -125 -27 -27 -46 -40
-43 -30 19 52 29 172 23 282 -9 189 17 297 87 349 l27 20 83 -26 c112 -36 132
-38 212 -23 94 18 171 48 243 95 86 55 110 110 77 173 -12 23 -12 33 -1 65 24
68 28 117 13 154 -13 31 -36 47 -191 133 -173 96 -232 117 -276 98z"/>
<path d="M1640 388 c-46 -38 -144 -78 -218 -87 -117 -15 -268 11 -374 65 -27
14 -53 22 -58 19 -35 -22 25 -63 156 -107 58 -19 89 -23 199 -23 109 1 139 4
190 23 78 29 165 89 165 113 0 25 -28 24 -60 -3z"/>
</g>
</svg>
