<?xml version="1.0" standalone="no"?>
<!DOCTYPE svg PUBLIC "-//W3C//DTD SVG 20010904//EN"
 "http://www.w3.org/TR/2001/REC-SVG-20010904/DTD/svg10.dtd">
<svg version="1.0" xmlns="http://www.w3.org/2000/svg"
 width="205.000000pt" height="208.000000pt" viewBox="0 0 205.000000 208.000000"
 preserveAspectRatio="xMidYMid meet">
<metadata>
Created by potrace 1.16, written by Peter Selinger 2001-2019
</metadata>
<g transform="translate(0.000000,208.000000) scale(0.100000,-0.100000)"
fill="#000000" stroke="none">
<path d="M1008 2063 c-3 -10 -53 -192 -113 -404 l-108 -386 -358 -102 c-198
-57 -375 -107 -395 -112 -39 -11 -45 -41 -9 -48 37 -6 757 -210 762 -214 2 -3
53 -181 112 -396 60 -215 111 -394 114 -397 18 -18 36 16 62 117 16 63 63 240
105 393 70 252 79 280 101 288 13 5 168 50 344 99 176 49 344 96 373 105 60
17 68 39 20 52 -18 5 -196 55 -395 112 l-361 102 -18 67 c-142 528 -203 736
-216 739 -9 2 -18 -5 -20 -15z m123 -468 c50 -187 97 -345 103 -351 6 -7 167
-56 358 -110 191 -54 346 -99 344 -101 -1 -2 -108 -32 -237 -68 -283 -78 -469
-132 -474 -137 -2 -2 -47 -164 -101 -361 -53 -196 -98 -356 -99 -355 -2 2 -46
161 -99 353 -54 193 -102 355 -109 362 -7 6 -167 54 -356 107 -190 53 -346 97
-347 99 -1 1 154 47 344 101 191 55 352 104 358 110 6 6 56 172 110 369 64
234 101 352 106 340 4 -10 48 -171 99 -358z"/>
</g>
</svg>
