<?xml version="1.0" standalone="no"?>
<!DOCTYPE svg PUBLIC "-//W3C//DTD SVG 20010904//EN"
 "http://www.w3.org/TR/2001/REC-SVG-20010904/DTD/svg10.dtd">
<svg version="1.0" xmlns="http://www.w3.org/2000/svg"
 width="228.000000pt" height="233.000000pt" viewBox="0 0 228.000000 233.000000"
 preserveAspectRatio="xMidYMid meet">
<metadata>
Created by potrace 1.16, written by Peter Selinger 2001-2019
</metadata>
<g transform="translate(0.000000,233.000000) scale(0.100000,-0.100000)"
fill="#000000" stroke="none">
<path d="M894 2316 c-269 -61 -502 -254 -611 -506 -64 -149 -88 -301 -72 -458
21 -207 103 -381 255 -542 36 -38 61 -70 57 -73 -4 -2 -57 -21 -118 -40 -124
-41 -252 -72 -337 -82 -62 -7 -73 -14 -63 -45 14 -44 175 -18 451 71 120 38
201 59 232 59 65 0 153 -22 312 -77 131 -46 139 -47 262 -49 101 -1 132 -5
156 -20 38 -22 55 -52 50 -90 -2 -24 -10 -31 -43 -42 -74 -24 -155 -25 -336
-2 -98 12 -194 20 -215 18 -34 -3 -39 -6 -39 -27 0 -24 3 -25 135 -43 302 -41
390 -37 660 29 170 41 255 47 275 19 33 -45 -13 -79 -225 -167 -259 -107 -499
-179 -599 -179 -41 0 -108 16 -237 55 -278 86 -289 88 -404 88 -80 -1 -140 -9
-250 -33 -80 -17 -155 -38 -168 -46 -25 -17 -28 -36 -7 -54 12 -10 45 -5 167
26 247 61 313 55 733 -72 144 -43 204 -42 385 4 221 56 615 222 658 277 49 62
16 159 -64 185 -48 16 -88 11 -331 -45 -20 -5 -23 -1 -23 25 0 41 -23 83 -60
112 l-31 25 66 38 c36 22 93 63 126 93 l59 54 73 -67 c85 -80 149 -125 174
-125 33 0 86 41 190 144 63 63 110 120 122 147 39 86 20 173 -53 237 -63 55
-149 64 -231 25 -52 -25 -61 -10 -41 69 39 151 30 344 -23 504 -46 136 -104
227 -216 339 -114 114 -196 166 -345 216 -88 30 -106 33 -245 36 -101 2 -170
-2 -211 -11z m406 -86 c41 -12 115 -42 165 -68 115 -59 248 -188 312 -302 95
-170 131 -360 103 -540 -16 -101 -28 -130 -53 -130 -73 0 -166 -62 -194 -127
-19 -46 -16 -118 7 -162 l19 -39 -53 -50 c-63 -60 -144 -113 -218 -144 -44
-18 -72 -22 -163 -22 -106 0 -114 1 -230 46 -150 57 -258 82 -336 76 -32 -2
-59 -1 -59 3 0 4 -31 38 -69 76 -165 165 -251 369 -251 596 0 387 263 718 635
801 98 22 284 15 385 -14z m567 -1121 c15 -5 40 -22 56 -37 l27 -26 28 27 c59
56 147 55 196 -4 58 -69 45 -126 -55 -233 -38 -41 -92 -94 -120 -117 l-49 -41
-38 28 c-68 51 -179 168 -202 213 -29 57 -23 111 16 152 40 42 93 56 141 38z"/>
<path d="M710 1724 c-84 -36 -144 -142 -90 -159 16 -5 32 6 73 49 48 51 57 56
96 56 54 0 77 -12 122 -62 31 -36 38 -39 57 -29 12 6 22 20 22 31 0 27 -55 87
-101 111 -46 23 -129 25 -179 3z"/>
<path d="M1306 1728 c-46 -13 -126 -86 -126 -116 0 -12 10 -26 21 -33 19 -9
27 -6 63 29 47 45 75 62 106 62 40 0 90 -32 121 -76 32 -46 49 -54 69 -29 26
32 -22 110 -89 144 -47 25 -116 32 -165 19z"/>
<path d="M687 1213 c-19 -19 -3 -54 46 -100 162 -153 435 -173 634 -45 66 42
117 97 110 117 -13 31 -37 28 -85 -12 -110 -92 -187 -117 -336 -111 -87 3
-110 8 -167 35 -36 17 -88 51 -114 77 -45 43 -73 55 -88 39z"/>
</g>
</svg>
