<?xml version="1.0" standalone="no"?>
<!DOCTYPE svg PUBLIC "-//W3C//DTD SVG 20010904//EN"
 "http://www.w3.org/TR/2001/REC-SVG-20010904/DTD/svg10.dtd">
<svg version="1.0" xmlns="http://www.w3.org/2000/svg"
 width="166.000000pt" height="195.000000pt" viewBox="0 0 166.000000 195.000000"
 preserveAspectRatio="xMidYMid meet">
<metadata>
Created by potrace 1.16, written by Peter Selinger 2001-2019
</metadata>
<g transform="translate(0.000000,195.000000) scale(0.100000,-0.100000)"
fill="#000000" stroke="none">
<path d="M715 1937 c-58 -19 -114 -57 -163 -111 -65 -71 -84 -123 -90 -243
l-4 -103 -154 0 c-85 0 -154 -2 -154 -4 0 -2 -34 -270 -75 -597 -81 -638 -81
-639 -36 -728 11 -20 38 -54 61 -75 82 -74 47 -71 709 -74 658 -3 659 -3 743
61 64 49 108 140 108 223 0 35 -27 281 -59 546 -33 266 -63 512 -67 548 -11
105 -2 100 -173 100 l-149 0 -4 98 c-4 118 -33 186 -108 262 -75 74 -144 104
-254 107 -56 2 -107 -2 -131 -10z m256 -59 c121 -56 188 -162 197 -309 l5 -89
-337 0 -336 0 0 73 c0 127 41 216 132 290 88 71 229 86 339 35z m-511 -552 c0
-104 -2 -115 -19 -121 -10 -3 -24 -19 -31 -36 -11 -27 -10 -34 7 -57 11 -15
32 -31 47 -36 65 -24 117 78 62 122 -25 19 -26 24 -26 131 l0 111 335 0 335 0
0 -114 c0 -107 -1 -115 -21 -121 -23 -8 -42 -49 -34 -76 10 -32 56 -61 85 -54
63 16 83 86 35 123 -24 19 -25 24 -25 131 l0 111 135 0 c131 0 135 -1 140 -22
2 -13 20 -156 40 -318 19 -162 50 -412 67 -555 19 -155 29 -274 25 -296 -13
-65 -67 -139 -125 -172 l-53 -30 -603 0 -602 -1 -47 23 c-59 29 -111 88 -127
146 -8 28 -11 75 -7 122 4 69 118 986 132 1071 l6 32 134 0 135 0 0 -114z m44
-175 c-3 -29 -5 -32 -26 -29 -15 2 -24 11 -26 25 -3 18 1 21 25 19 15 -2 28
-8 27 -15z m710 1 c-2 -30 -5 -33 -26 -30 -15 2 -24 11 -26 25 -3 18 1 22 25
20 15 -1 28 -8 27 -15z"/>
</g>
</svg>
