<?xml version="1.0" standalone="no"?>
<!DOCTYPE svg PUBLIC "-//W3C//DTD SVG 20010904//EN"
 "http://www.w3.org/TR/2001/REC-SVG-20010904/DTD/svg10.dtd">
<svg version="1.0" xmlns="http://www.w3.org/2000/svg"
 width="256.000000pt" height="151.000000pt" viewBox="0 0 256.000000 151.000000"
 preserveAspectRatio="xMidYMid meet">
<metadata>
Created by potrace 1.16, written by Peter Selinger 2001-2019
</metadata>
<g transform="translate(0.000000,151.000000) scale(0.100000,-0.100000)"
fill="#000000" stroke="none">
<path d="M604 1496 c-78 -18 -168 -54 -242 -97 -73 -44 -207 -178 -251 -251
-265 -451 -27 -1007 484 -1129 74 -17 108 -20 195 -16 168 9 283 50 423 151
l73 52 54 -44 c65 -51 192 -114 275 -137 164 -44 365 -26 513 45 259 124 413
354 429 640 24 441 -314 800 -752 800 -169 0 -313 -47 -452 -147 l-73 -52 -53
39 c-74 57 -170 105 -257 130 -97 28 -279 36 -366 16z m300 -71 c81 -17 235
-90 289 -137 l38 -33 -37 -50 c-121 -166 -173 -419 -126 -615 26 -105 56 -175
116 -264 l47 -70 -32 -25 c-118 -96 -259 -150 -410 -158 -125 -7 -221 14 -342
75 -169 84 -303 249 -353 432 -24 88 -24 262 0 350 40 148 143 294 272 386
150 107 353 148 538 109z m1068 -4 c232 -59 409 -226 485 -456 23 -69 27 -97
27 -210 1 -118 -2 -138 -28 -219 -109 -331 -446 -524 -790 -451 -82 17 -235
90 -291 138 l-40 35 41 58 c55 78 76 122 109 224 24 73 28 102 29 205 1 173
-39 303 -137 448 l-45 67 61 44 c84 59 156 94 241 116 97 26 240 26 338 1z
m-642 -282 c159 -246 154 -553 -13 -786 -36 -51 -41 -49 -99 48 -67 115 -91
204 -92 344 -1 129 14 204 60 305 28 62 85 150 97 150 4 0 25 -27 47 -61z"/>
</g>
</svg>
