<?xml version="1.0" standalone="no"?>
<!DOCTYPE svg PUBLIC "-//W3C//DTD SVG 20010904//EN"
 "http://www.w3.org/TR/2001/REC-SVG-20010904/DTD/svg10.dtd">
<svg version="1.0" xmlns="http://www.w3.org/2000/svg"
 width="272.000000pt" height="261.000000pt" viewBox="0 0 272.000000 261.000000"
 preserveAspectRatio="xMidYMid meet">
<metadata>
Created by potrace 1.16, written by Peter Selinger 2001-2019
</metadata>
<g transform="translate(0.000000,261.000000) scale(0.100000,-0.100000)"
fill="#000000" stroke="none">
<path d="M1307 2594 c-23 -12 -53 -66 -152 -267 -67 -139 -148 -308 -180 -377
-31 -69 -63 -131 -69 -138 -17 -18 -140 -36 -486 -72 -162 -16 -310 -33 -329
-36 -70 -12 -111 -86 -80 -147 6 -12 148 -157 316 -322 l306 -300 -82 -400
c-88 -424 -91 -457 -50 -501 46 -49 72 -41 472 156 202 99 377 180 389 180 13
0 181 -79 375 -174 193 -96 369 -180 391 -186 69 -21 132 25 132 96 0 14 -25
156 -55 317 -30 161 -63 342 -74 402 l-20 110 288 290 c159 160 296 301 305
315 9 13 16 36 16 50 0 38 -36 89 -74 105 -18 8 -145 26 -282 40 -394 41 -523
57 -539 69 -7 6 -93 175 -189 376 -134 277 -184 373 -211 398 -39 36 -73 40
-118 16z m75 -61 c27 -33 58 -94 219 -432 88 -185 166 -342 174 -350 15 -16
62 -22 515 -71 162 -18 310 -39 328 -46 64 -26 55 -38 -268 -360 -279 -278
-300 -302 -300 -334 0 -31 33 -220 124 -705 26 -136 23 -165 -14 -165 -18 0
-157 65 -570 269 -113 56 -217 101 -232 101 -15 0 -191 -82 -398 -185 -204
-102 -379 -185 -390 -185 -47 0 -45 28 30 385 103 490 102 484 82 517 -10 14
-121 127 -247 250 -366 355 -386 378 -351 407 15 12 18 13 506 66 252 28 330
40 349 53 15 11 66 107 141 267 183 392 258 535 279 535 4 0 15 -8 23 -17z"/>
</g>
</svg>
