<?xml version="1.0" standalone="no"?>
<!DOCTYPE svg PUBLIC "-//W3C//DTD SVG 20010904//EN"
 "http://www.w3.org/TR/2001/REC-SVG-20010904/DTD/svg10.dtd">
<svg version="1.0" xmlns="http://www.w3.org/2000/svg"
 width="196.000000pt" height="196.000000pt" viewBox="0 0 196.000000 196.000000"
 preserveAspectRatio="xMidYMid meet">
<metadata>
Created by potrace 1.16, written by Peter Selinger 2001-2019
</metadata>
<g transform="translate(0.000000,196.000000) scale(0.100000,-0.100000)"
fill="#000000" stroke="none">
<path d="M767 1945 c-226 -43 -423 -188 -517 -379 -50 -102 -69 -175 -76 -296
-6 -88 -10 -101 -52 -180 -110 -207 -122 -233 -122 -261 0 -48 35 -75 109 -82
34 -4 66 -9 71 -12 4 -3 3 -21 -3 -40 -19 -64 17 -111 106 -139 15 -5 12 -11
-22 -44 -37 -35 -41 -44 -41 -86 0 -47 18 -94 49 -130 37 -42 71 -51 216 -56
l140 -5 3 -107 c2 -73 7 -110 16 -117 9 -8 133 -10 417 -9 l404 3 5 320 5 320
42 55 c101 130 161 294 170 460 20 381 -191 677 -553 775 -83 23 -270 28 -367
10z m348 -69 c81 -22 209 -86 268 -135 237 -198 308 -557 167 -856 -20 -44
-58 -108 -84 -143 -26 -35 -51 -75 -57 -88 -5 -14 -9 -153 -9 -310 l0 -284
-355 0 -355 0 0 97 c0 136 4 133 -177 133 -161 0 -190 8 -223 63 -35 57 -23
115 30 142 55 28 36 89 -35 112 -40 13 -58 49 -45 94 14 46 12 86 -3 96 -6 4
-46 10 -87 13 -74 5 -75 5 -73 32 1 15 36 90 78 168 l77 140 8 107 c13 165 35
237 106 345 103 154 267 256 469 289 70 11 229 3 300 -15z"/>
<path d="M1793 714 c-3 -9 -2 -23 3 -30 5 -7 21 -30 37 -52 73 -103 86 -240
33 -359 -16 -34 -39 -72 -52 -84 -28 -26 -31 -64 -6 -74 24 -9 77 53 115 135
60 132 45 298 -40 420 -41 58 -77 76 -90 44z"/>
<path d="M1667 573 c-13 -13 -7 -44 16 -74 16 -23 22 -44 22 -84 0 -40 -6 -61
-22 -84 -47 -62 -13 -99 39 -44 35 37 48 73 48 134 0 56 -27 119 -62 143 -25
18 -32 19 -41 9z"/>
</g>
</svg>
