<?xml version="1.0" standalone="no"?>
<!DOCTYPE svg PUBLIC "-//W3C//DTD SVG 20010904//EN"
 "http://www.w3.org/TR/2001/REC-SVG-20010904/DTD/svg10.dtd">
<svg version="1.0" xmlns="http://www.w3.org/2000/svg"
 width="202.000000pt" height="187.000000pt" viewBox="0 0 202.000000 187.000000"
 preserveAspectRatio="xMidYMid meet">
<metadata>
Created by potrace 1.16, written by Peter Selinger 2001-2019
</metadata>
<g transform="translate(0.000000,187.000000) scale(0.100000,-0.100000)"
fill="#000000" stroke="none">
<path d="M746 1860 c-62 -19 -92 -66 -126 -197 -9 -36 -15 -43 -35 -43 -38 0
-116 -29 -153 -57 -64 -48 -89 -98 -164 -325 -70 -213 -73 -220 -105 -233 -59
-25 -102 -66 -130 -123 -27 -56 -28 -61 -31 -262 -2 -181 -1 -209 15 -240 22
-42 70 -76 122 -85 l39 -6 4 -110 c3 -108 3 -109 36 -141 31 -32 36 -33 126
-36 l94 -4 37 34 c42 38 53 82 51 195 l-1 63 483 0 482 0 0 -99 c0 -86 3 -102
23 -132 32 -47 61 -59 150 -59 139 0 171 36 172 192 l0 97 37 6 c49 9 97 42
122 85 19 32 21 51 21 235 0 189 -1 203 -24 252 -25 57 -86 119 -131 134 -24
9 -36 32 -108 217 -45 114 -96 232 -114 262 -44 72 -103 116 -179 132 l-60 12
-25 82 c-48 160 -58 164 -366 163 -128 0 -246 -5 -262 -9z m518 -45 c17 -8 37
-24 43 -34 12 -19 43 -128 43 -150 0 -8 -100 -11 -346 -11 l-347 0 7 46 c10
74 40 133 78 149 49 21 477 21 522 0z m217 -250 c55 -20 103 -66 135 -128 24
-47 164 -393 164 -406 0 -3 -31 -5 -69 -3 l-68 4 -49 161 c-51 167 -69 206
-117 241 -28 20 -40 21 -458 24 -545 3 -502 19 -585 -216 -25 -70 -52 -146
-60 -169 l-16 -41 -59 -4 c-32 -1 -59 0 -59 3 0 4 30 94 66 200 67 199 105
274 152 305 61 40 92 43 543 43 369 1 443 -1 480 -14z m-38 -161 c45 -22 58
-45 105 -204 22 -74 44 -143 47 -152 7 -17 -25 -18 -592 -18 l-600 0 56 158
c31 86 62 167 70 180 27 49 47 51 478 52 350 0 407 -2 436 -16z m348 -424 c73
-14 119 -47 154 -111 30 -54 30 -55 33 -239 3 -204 -3 -231 -61 -274 -28 -21
-37 -21 -890 -24 -591 -2 -874 0 -899 8 -20 6 -48 25 -63 42 l-26 31 3 206 c3
178 6 211 22 241 38 73 85 106 165 120 71 12 1499 12 1562 0z m-1311 -796 c-6
-134 -15 -144 -127 -144 -69 0 -77 2 -104 29 -28 28 -29 33 -29 125 l0 96 133
0 132 0 -5 -106z m1318 4 c-5 -95 -7 -103 -32 -125 -23 -20 -38 -23 -102 -23
-70 0 -78 2 -105 29 -28 28 -29 33 -29 125 l0 96 136 0 137 0 -5 -102z"/>
<path d="M295 806 c-64 -28 -113 -116 -102 -183 9 -51 49 -107 92 -128 58 -27
146 -17 186 21 49 46 62 79 57 146 -5 68 -26 102 -84 135 -44 26 -103 29 -149
9z m162 -70 c27 -29 33 -44 33 -81 0 -87 -47 -135 -133 -135 -52 0 -93 27
-113 76 -18 44 -18 68 3 111 24 52 67 75 127 70 42 -4 55 -10 83 -41z"/>
<path d="M1570 801 c-56 -29 -92 -89 -92 -149 1 -58 17 -95 61 -136 26 -25 42
-30 91 -34 70 -5 110 9 145 50 95 113 17 288 -127 288 -24 0 -59 -8 -78 -19z
m146 -40 c34 -21 64 -75 64 -116 0 -54 -44 -109 -100 -125 -124 -36 -217 122
-128 218 43 45 111 55 164 23z"/>
<path d="M792 563 c3 -17 21 -18 213 -18 192 0 210 1 213 18 3 16 -12 17 -213
17 -201 0 -216 -1 -213 -17z"/>
</g>
</svg>
