<?xml version="1.0" standalone="no"?>
<!DOCTYPE svg PUBLIC "-//W3C//DTD SVG 20010904//EN"
 "http://www.w3.org/TR/2001/REC-SVG-20010904/DTD/svg10.dtd">
<svg version="1.0" xmlns="http://www.w3.org/2000/svg"
 width="190.000000pt" height="161.000000pt" viewBox="0 0 190.000000 161.000000"
 preserveAspectRatio="xMidYMid meet">
<metadata>
Created by potrace 1.16, written by Peter Selinger 2001-2019
</metadata>
<g transform="translate(0.000000,161.000000) scale(0.100000,-0.100000)"
fill="#000000" stroke="none">
<path d="M631 1575 c-17 -20 -45 -64 -63 -98 -54 -106 -39 -191 38 -223 29
-12 34 -19 34 -49 0 -32 -3 -35 -28 -35 -47 0 -52 -13 -52 -152 l0 -128 -158
0 c-178 0 -211 -9 -247 -71 -19 -32 -20 -57 -25 -399 l-5 -364 -51 3 c-58 3
-87 -17 -64 -44 11 -13 128 -15 940 -15 824 0 929 2 940 15 19 23 2 33 -62 37
l-58 3 0 350 c0 344 0 352 -22 395 -13 25 -38 55 -57 67 -31 21 -46 23 -187
24 -85 1 -159 2 -165 3 -8 1 -11 40 -10 124 2 138 -3 152 -55 152 -33 0 -34 1
-34 40 0 29 4 40 15 40 45 0 95 63 95 119 0 68 -85 231 -120 231 -22 0 -97
-82 -116 -129 -30 -71 -11 -168 40 -208 19 -16 26 -30 26 -57 0 -31 -3 -36
-24 -36 -13 0 -28 -6 -34 -13 -7 -8 -13 -67 -14 -138 -2 -68 -6 -123 -10 -121
-5 1 -79 2 -165 2 l-158 0 3 115 c4 135 -3 155 -53 155 -33 0 -35 2 -35 35 0
28 5 37 23 44 13 5 36 24 50 41 38 45 37 111 -3 196 -31 63 -74 124 -90 124
-4 0 -22 -16 -39 -35z m89 -133 c31 -81 26 -113 -21 -138 -36 -18 -73 -10 -99
23 -24 31 -20 55 28 146 l37 68 17 -23 c10 -13 27 -47 38 -76z m542 33 c36
-67 43 -110 23 -141 -19 -29 -54 -45 -82 -38 -43 12 -67 97 -42 147 24 46 54
87 64 84 6 -2 22 -25 37 -52z m-542 -471 l0 -115 -52 3 c-29 2 -52 6 -50 11 1
4 2 54 2 112 l0 105 50 0 50 0 0 -116z m550 4 l0 -113 -51 1 -50 2 -2 111 -2
111 53 0 52 0 0 -112z m406 -202 l34 -34 0 -104 0 -103 -51 4 c-66 4 -127 -12
-186 -49 -38 -25 -58 -30 -105 -30 -49 0 -71 7 -134 40 -61 32 -86 40 -129 40
-44 0 -69 -8 -130 -40 -90 -47 -165 -54 -225 -20 -102 56 -122 63 -182 57 -41
-4 -76 -15 -122 -41 -72 -40 -139 -48 -201 -22 -58 24 -67 50 -63 171 3 106 3
107 36 136 l32 29 696 0 696 0 34 -34z m-984 -325 c97 -61 199 -61 296 -1 85
52 157 50 245 -8 77 -51 185 -48 272 7 48 30 132 47 179 35 l26 -6 0 -229 0
-228 -765 -1 -765 0 0 215 0 215 23 -15 c66 -43 186 -37 261 12 81 53 147 54
228 4z"/>
</g>
</svg>
