<?xml version="1.0" standalone="no"?>
<!DOCTYPE svg PUBLIC "-//W3C//DTD SVG 20010904//EN"
 "http://www.w3.org/TR/2001/REC-SVG-20010904/DTD/svg10.dtd">
<svg version="1.0" xmlns="http://www.w3.org/2000/svg"
 width="184.000000pt" height="153.000000pt" viewBox="0 0 184.000000 153.000000"
 preserveAspectRatio="xMidYMid meet">
<metadata>
Created by potrace 1.16, written by Peter Selinger 2001-2019
</metadata>
<g transform="translate(0.000000,153.000000) scale(0.100000,-0.100000)"
fill="#000000" stroke="none">
<path d="M1066 1514 c-3 -9 -6 -105 -6 -215 l0 -199 -179 0 c-285 0 -389 -22
-531 -114 -234 -151 -332 -371 -347 -771 -6 -182 -1 -215 37 -215 13 0 22 9
26 28 43 197 138 371 265 486 108 97 190 116 512 116 l217 0 0 -199 c0 -169 2
-201 16 -212 22 -18 29 -13 250 180 266 230 514 463 514 482 0 18 -71 82 -477
432 -142 123 -260 217 -271 217 -11 0 -23 -7 -26 -16z m289 -265 c99 -84 235
-202 302 -261 l122 -107 -172 -159 c-159 -147 -481 -432 -489 -432 -1 0 -2 81
0 180 2 123 -1 187 -9 201 -11 22 -11 22 -274 15 -382 -9 -437 -26 -581 -179
-82 -87 -143 -178 -172 -259 -9 -27 -19 -48 -23 -48 -8 0 -1 94 17 223 36 263
151 441 350 544 122 63 135 65 417 72 214 5 259 9 267 21 5 8 10 100 10 204
l0 190 28 -26 c15 -13 108 -94 207 -179z"/>
</g>
</svg>
