<?xml version="1.0" standalone="no"?>
<!DOCTYPE svg PUBLIC "-//W3C//DTD SVG 20010904//EN"
 "http://www.w3.org/TR/2001/REC-SVG-20010904/DTD/svg10.dtd">
<svg version="1.0" xmlns="http://www.w3.org/2000/svg"
 width="184.000000pt" height="209.000000pt" viewBox="0 0 184.000000 209.000000"
 preserveAspectRatio="xMidYMid meet">
<metadata>
Created by potrace 1.16, written by Peter Selinger 2001-2019
</metadata>
<g transform="translate(0.000000,209.000000) scale(0.100000,-0.100000)"
fill="#000000" stroke="none">
<path d="M680 2074 c-189 -51 -320 -226 -320 -427 0 -137 54 -261 151 -352 87
-80 145 -100 294 -100 114 0 123 2 188 32 95 45 178 127 224 221 33 66 38 85
41 166 3 74 0 103 -18 155 -80 239 -320 369 -560 305z m280 -95 c77 -37 141
-97 181 -171 33 -60 34 -67 34 -168 0 -93 -3 -112 -26 -161 -36 -75 -86 -130
-156 -166 -221 -117 -468 -19 -540 215 -21 70 -18 187 7 254 35 94 121 175
228 215 24 8 70 12 127 10 73 -2 101 -7 145 -28z"/>
<path d="M410 1125 c-156 -38 -263 -122 -347 -272 -51 -92 -63 -164 -63 -390
0 -178 2 -201 20 -230 35 -58 25 -57 523 -57 420 -1 460 0 468 16 12 23 2 45
-24 52 -12 3 -213 6 -447 6 -234 0 -431 4 -438 8 -23 15 -32 75 -32 212 1 246
26 332 134 447 85 91 177 136 294 141 55 2 118 -2 171 -12 105 -20 167 -20
272 0 222 42 371 -5 497 -159 29 -36 66 -34 70 5 2 20 -10 40 -57 90 -102 109
-223 158 -391 158 -47 0 -107 -7 -134 -15 -62 -19 -181 -19 -266 0 -80 18
-177 18 -250 0z"/>
<path d="M1339 748 c-76 -27 -123 -60 -173 -121 -57 -69 -79 -130 -84 -228 -7
-133 28 -221 122 -307 76 -70 122 -86 251 -86 100 -1 115 1 165 26 213 105
285 378 151 571 -98 140 -276 200 -432 145z m225 -78 c150 -57 237 -226 191
-372 -25 -82 -79 -147 -154 -185 -55 -29 -72 -33 -140 -33 -67 0 -87 4 -139
31 -70 34 -105 71 -139 146 -33 71 -39 137 -19 204 50 174 235 270 400 209z"/>
<path d="M1491 396 l-87 -86 -34 35 c-38 39 -74 44 -94 13 -9 -15 -1 -28 49
-78 33 -33 67 -60 77 -60 9 0 65 48 123 108 109 111 126 143 77 150 -18 3 -44
-17 -111 -82z"/>
</g>
</svg>
