<?xml version="1.0" standalone="no"?>
<!DOCTYPE svg PUBLIC "-//W3C//DTD SVG 20010904//EN"
 "http://www.w3.org/TR/2001/REC-SVG-20010904/DTD/svg10.dtd">
<svg version="1.0" xmlns="http://www.w3.org/2000/svg"
 width="125.000000pt" height="168.000000pt" viewBox="0 0 125.000000 168.000000"
 preserveAspectRatio="xMidYMid meet">
<metadata>
Created by potrace 1.16, written by Peter Selinger 2001-2019
</metadata>
<g transform="translate(0.000000,168.000000) scale(0.100000,-0.100000)"
fill="#000000" stroke="none">
<path d="M69 1657 c-72 -48 -69 -10 -69 -807 0 -455 4 -728 10 -752 6 -20 26
-50 46 -67 l35 -31 538 0 c531 0 539 0 565 21 58 46 56 13 56 816 0 696 -1
740 -18 772 -10 19 -34 43 -53 53 -31 17 -69 18 -555 18 l-521 0 -34 -23z
m1090 -32 c16 -8 33 -27 40 -42 8 -21 11 -222 9 -761 l-3 -734 -28 -24 -28
-24 -520 0 -521 0 -28 28 c-21 22 -30 42 -35 83 -3 30 -4 361 -2 736 4 621 6
685 21 708 10 14 27 30 39 35 12 5 248 9 525 9 421 1 508 -1 531 -14z"/>
<path d="M600 1330 c0 -24 -4 -30 -20 -30 -61 0 -120 -62 -120 -126 0 -54 43
-108 101 -125 l39 -12 0 -104 c0 -56 -3 -103 -7 -103 -22 0 -77 45 -86 70 -8
21 -18 30 -34 30 -27 0 -29 -18 -8 -60 20 -38 60 -68 101 -76 27 -5 34 -11 34
-30 0 -19 5 -24 25 -24 20 0 25 5 25 25 0 19 5 25 20 25 64 0 120 62 120 131
0 59 -31 100 -95 125 l-45 17 0 98 c0 84 2 99 16 99 20 0 74 -54 74 -74 0 -9
8 -16 20 -16 24 0 25 18 6 65 -15 35 -59 65 -96 65 -16 0 -20 6 -20 30 0 25
-4 30 -25 30 -21 0 -25 -5 -25 -30z m0 -159 c0 -84 -1 -89 -20 -84 -37 10 -70
50 -70 86 0 36 13 58 45 75 41 23 45 16 45 -77z m129 -207 c24 -31 26 -43 10
-78 -10 -21 -62 -56 -83 -56 -3 0 -6 43 -6 95 l0 96 29 -16 c16 -8 39 -27 50
-41z"/>
<path d="M253 514 c-3 -8 -1 -20 4 -25 5 -5 152 -8 369 -7 351 3 359 3 359 23
0 20 -8 20 -363 23 -323 2 -363 1 -369 -14z"/>
<path d="M260 260 c0 -20 4 -20 243 -18 207 3 242 5 242 18 0 13 -35 15 -242
18 -239 2 -243 2 -243 -18z"/>
</g>
</svg>
