<?xml version="1.0" standalone="no"?>
<!DOCTYPE svg PUBLIC "-//W3C//DTD SVG 20010904//EN"
 "http://www.w3.org/TR/2001/REC-SVG-20010904/DTD/svg10.dtd">
<svg version="1.0" xmlns="http://www.w3.org/2000/svg"
 width="231.000000pt" height="200.000000pt" viewBox="0 0 231.000000 200.000000"
 preserveAspectRatio="xMidYMid meet">
<metadata>
Created by potrace 1.16, written by Peter Selinger 2001-2019
</metadata>
<g transform="translate(0.000000,200.000000) scale(0.100000,-0.100000)"
fill="#000000" stroke="none">
<path d="M1040 1984 c-44 -16 -140 -79 -140 -92 -1 -4 -16 -24 -35 -45 l-33
-38 -54 28 c-76 40 -179 40 -260 0 -110 -54 -188 -175 -188 -291 0 -46 -3 -54
-25 -64 -43 -20 -174 -153 -225 -229 -59 -89 -80 -153 -80 -247 0 -81 21 -136
66 -177 40 -36 90 -51 182 -51 l78 0 11 -75 c15 -105 76 -226 144 -287 28 -26
62 -49 75 -52 l24 -6 -3 -177 -2 -176 25 0 c25 0 25 0 37 140 6 77 12 152 12
166 1 24 6 27 62 38 34 7 67 15 75 18 11 4 14 -13 15 -88 1 -52 4 -134 8 -184
6 -88 7 -90 31 -90 l25 0 3 183 c1 100 6 182 10 182 5 0 19 -11 32 -25 73 -77
186 -119 306 -113 115 6 197 47 268 135 28 34 53 62 56 62 3 0 13 -6 23 -13
15 -11 19 -35 24 -132 3 -68 1 -148 -5 -187 -13 -80 -8 -97 24 -97 35 0 41 25
49 206 l8 159 76 -2 c65 -2 76 -5 79 -20 1 -10 6 -90 10 -178 l7 -160 25 0 25
0 0 198 0 197 30 19 c85 51 156 168 171 281 6 47 11 54 48 77 57 35 94 71 122
119 102 173 53 398 -115 519 -42 31 -44 36 -47 84 -8 158 -124 316 -263 357
-75 23 -171 15 -246 -20 l-59 -27 -60 63 c-34 35 -86 77 -116 93 -49 26 -66
30 -160 32 -77 2 -117 -1 -150 -13z m253 -72 c43 -19 123 -92 189 -171 l28
-33 32 21 c81 51 122 65 193 65 86 0 130 -21 198 -93 68 -73 90 -128 91 -226
l1 -80 45 -23 c98 -51 158 -143 167 -255 11 -129 -50 -240 -158 -289 -53 -24
-55 -26 -63 -121 -12 -148 -137 -271 -276 -272 -54 0 -109 21 -193 73 -28 17
-29 16 -48 -8 -11 -14 -38 -49 -62 -79 -28 -37 -61 -64 -101 -85 -53 -28 -69
-31 -145 -31 -71 0 -95 4 -135 24 -48 24 -118 87 -162 147 l-22 29 -43 -31
c-83 -59 -178 -71 -256 -33 -55 26 -88 66 -132 158 -30 65 -36 87 -39 165 -5
115 -12 122 -90 94 -50 -18 -65 -19 -116 -10 -68 13 -92 31 -118 90 -45 101
13 244 156 387 126 126 158 140 311 140 113 0 125 -2 200 -33 104 -43 212
-116 248 -168 18 -25 31 -60 34 -87 5 -41 2 -49 -25 -77 -26 -25 -38 -30 -79
-30 -59 0 -96 21 -154 89 -47 54 -83 67 -92 32 -9 -37 72 -129 148 -168 42
-22 58 -25 113 -20 98 8 151 57 160 146 4 43 0 62 -27 116 -42 84 -97 132
-235 200 -164 81 -269 101 -385 74 -24 -5 -48 -6 -52 -2 -15 15 13 104 45 146
61 80 161 128 238 113 21 -4 60 -22 89 -41 61 -42 82 -43 106 -10 56 79 98
126 130 146 83 52 198 60 286 21z"/>
<path d="M325 1240 c-22 -24 -13 -66 16 -75 28 -9 69 20 69 48 0 47 -52 64
-85 27z"/>
</g>
</svg>
