<?xml version="1.0" standalone="no"?>
<!DOCTYPE svg PUBLIC "-//W3C//DTD SVG 20010904//EN"
 "http://www.w3.org/TR/2001/REC-SVG-20010904/DTD/svg10.dtd">
<svg version="1.0" xmlns="http://www.w3.org/2000/svg"
 width="198.000000pt" height="296.000000pt" viewBox="0 0 198.000000 296.000000"
 preserveAspectRatio="xMidYMid meet">
<metadata>
Created by potrace 1.16, written by Peter Selinger 2001-2019
</metadata>
<g transform="translate(0.000000,296.000000) scale(0.100000,-0.100000)"
fill="#000000" stroke="none">
<path d="M345 2937 c-91 -43 -130 -112 -129 -227 0 -81 38 -158 101 -204 23
-17 42 -33 43 -36 0 -3 -76 -4 -168 -2 -136 2 -171 0 -181 -11 -8 -10 -11 -72
-9 -213 l3 -199 42 -3 43 -3 0 -538 c0 -404 3 -540 12 -549 9 -9 205 -12 823
-12 445 0 815 4 821 8 9 5 13 156 16 547 l5 540 39 5 39 5 3 199 c2 138 -1
203 -9 212 -9 11 -49 14 -182 14 l-170 0 41 30 c155 112 145 349 -18 433 -136
70 -276 0 -435 -216 -45 -62 -52 -67 -75 -60 -32 10 -129 10 -156 0 -17 -6
-28 3 -67 56 -68 93 -169 191 -224 218 -70 34 -146 36 -208 6z m193 -51 c26
-14 72 -51 103 -83 63 -65 139 -160 139 -173 0 -5 -11 -26 -25 -46 -14 -21
-28 -55 -32 -77 l-6 -39 -126 4 c-143 4 -189 19 -259 83 -53 48 -76 106 -70
184 5 71 39 129 89 154 51 25 130 22 187 -7z m959 7 c70 -33 108 -135 89 -238
-10 -49 -67 -110 -140 -148 -57 -29 -69 -32 -187 -35 l-126 -4 -12 48 c-7 26
-21 60 -32 75 -10 15 -19 31 -19 37 0 17 96 136 153 190 31 29 76 62 99 72 53
24 128 25 175 3z m-501 -290 c45 -20 74 -55 81 -97 l6 -36 -162 0 -161 0 6 28
c26 110 123 154 230 105z m-276 -348 l0 -175 -340 0 -340 0 0 170 0 170 338 3
c185 1 338 3 340 5 1 1 2 -77 2 -173z m360 -545 l0 -720 -160 0 -160 0 0 715
0 714 158 4 c86 1 158 4 160 5 1 1 2 -322 2 -718z m728 543 l-3 -168 -337 -3
-337 -2 -3 170 -3 170 343 0 342 0 -2 -167z m-1088 -738 l0 -525 -295 0 -295
0 1 517 c0 285 3 521 5 525 3 5 135 8 295 8 l289 0 0 -525z m1000 0 l0 -525
-295 0 -295 0 0 525 0 525 295 0 295 0 0 -525z"/>
<path d="M1960 25 c0 -14 5 -25 10 -25 6 0 10 11 10 25 0 14 -4 25 -10 25 -5
0 -10 -11 -10 -25z"/>
</g>
</svg>
