<?xml version="1.0" standalone="no"?>
<!DOCTYPE svg PUBLIC "-//W3C//DTD SVG 20010904//EN"
 "http://www.w3.org/TR/2001/REC-SVG-20010904/DTD/svg10.dtd">
<svg version="1.0" xmlns="http://www.w3.org/2000/svg"
 width="191.000000pt" height="190.000000pt" viewBox="0 0 191.000000 190.000000"
 preserveAspectRatio="xMidYMid meet">
<metadata>
Created by potrace 1.16, written by Peter Selinger 2001-2019
</metadata>
<g transform="translate(0.000000,190.000000) scale(0.100000,-0.100000)"
fill="#000000" stroke="none">
<path d="M825 1890 c-399 -62 -710 -352 -801 -745 -29 -121 -25 -310 9 -436
89 -336 335 -581 687 -685 99 -29 374 -26 485 4 330 92 587 350 677 683 19 71
23 108 22 239 0 187 -18 264 -94 415 -130 261 -370 450 -648 511 -86 19 -260
26 -337 14z m355 -85 c315 -84 561 -332 642 -648 30 -115 30 -298 0 -419 -78
-320 -322 -566 -643 -648 -405 -105 -832 90 -1021 465 -99 195 -116 461 -44
673 62 183 178 337 332 443 75 51 228 119 316 139 105 24 317 22 418 -5z"/>
<path d="M555 1165 c-37 -36 -35 -97 4 -136 35 -34 59 -36 94 -9 32 26 44 79
27 121 -23 54 -84 66 -125 24z"/>
<path d="M1272 1183 c-19 -7 -42 -58 -42 -93 0 -37 47 -90 80 -90 12 0 35 13
51 29 71 72 3 191 -89 154z"/>
<path d="M824 721 c-74 -21 -140 -59 -194 -110 -43 -41 -49 -61 -25 -81 13
-11 23 -5 64 33 113 106 273 143 412 97 76 -26 101 -42 161 -98 40 -38 49 -43
63 -32 25 21 17 45 -29 88 -116 107 -295 148 -452 103z"/>
</g>
</svg>
