<?xml version="1.0" standalone="no"?>
<!DOCTYPE svg PUBLIC "-//W3C//DTD SVG 20010904//EN"
 "http://www.w3.org/TR/2001/REC-SVG-20010904/DTD/svg10.dtd">
<svg version="1.0" xmlns="http://www.w3.org/2000/svg"
 width="216.000000pt" height="216.000000pt" viewBox="0 0 216.000000 216.000000"
 preserveAspectRatio="xMidYMid meet">
<metadata>
Created by potrace 1.16, written by Peter Selinger 2001-2019
</metadata>
<g transform="translate(0.000000,216.000000) scale(0.100000,-0.100000)"
fill="#000000" stroke="none">
<path d="M990 2154 c-14 -2 -58 -9 -98 -15 -371 -55 -711 -348 -840 -725 -61
-178 -68 -429 -18 -612 104 -377 397 -668 774 -770 87 -23 115 -26 267 -25
151 0 181 3 268 26 112 30 256 95 348 158 82 55 224 197 276 274 140 209 202
425 190 669 -13 264 -111 494 -291 684 -96 101 -182 164 -311 227 -176 87
-409 131 -565 109z m351 -83 c364 -99 640 -375 736 -736 23 -88 26 -119 26
-255 0 -134 -3 -168 -25 -250 -33 -121 -73 -211 -145 -319 -115 -172 -296
-317 -481 -387 -139 -52 -228 -67 -387 -67 -172 1 -289 28 -440 102 -120 58
-198 115 -291 213 -84 89 -132 160 -190 281 -112 238 -124 529 -30 778 124
329 428 591 762 653 114 22 363 15 465 -13z"/>
<path d="M457 1113 c-13 -12 -7 -41 9 -47 9 -3 287 -6 619 -6 523 0 604 2 615
15 10 12 10 18 0 30 -11 13 -93 15 -625 15 -336 0 -615 -3 -618 -7z"/>
</g>
</svg>
