<?xml version="1.0" standalone="no"?>
<!DOCTYPE svg PUBLIC "-//W3C//DTD SVG 20010904//EN"
 "http://www.w3.org/TR/2001/REC-SVG-20010904/DTD/svg10.dtd">
<svg version="1.0" xmlns="http://www.w3.org/2000/svg"
 width="135.000000pt" height="158.000000pt" viewBox="0 0 135.000000 158.000000"
 preserveAspectRatio="xMidYMid meet">
<metadata>
Created by potrace 1.16, written by Peter Selinger 2001-2019
</metadata>
<g transform="translate(0.000000,158.000000) scale(0.100000,-0.100000)"
fill="#000000" stroke="none">
<path d="M5 1568 c-3 -7 -4 -362 -3 -788 l3 -775 659 -3 c478 -1 663 1 672 9
19 16 21 1538 2 1557 -18 18 -1327 17 -1333 0z m1295 -778 l0 -740 -220 0
-220 0 -2 218 -3 217 -185 0 -185 0 -3 -217 -2 -218 -220 0 -220 0 0 740 0
740 630 0 630 0 0 -740z m-490 -540 l0 -200 -140 0 -140 0 0 200 0 200 140 0
140 0 0 -200z"/>
<path d="M236 1334 c-20 -20 -23 -203 -4 -222 13 -13 153 -17 182 -6 13 5 16
25 16 113 0 70 -4 111 -12 119 -19 19 -163 16 -182 -4z m144 -109 l0 -75 -55
0 -55 0 0 75 0 75 55 0 55 0 0 -75z"/>
<path d="M582 1342 c-9 -6 -12 -38 -10 -123 l3 -114 88 -3 c57 -2 94 1 103 9
16 13 20 194 4 219 -11 17 -166 27 -188 12z m148 -117 l0 -75 -60 0 -60 0 0
75 0 75 60 0 60 0 0 -75z"/>
<path d="M922 1338 c-16 -16 -16 -210 0 -226 16 -16 170 -16 186 0 8 8 12 48
12 115 0 91 -2 103 -19 113 -27 14 -164 13 -179 -2z m148 -113 l0 -75 -57 0
-58 0 3 75 4 75 54 0 54 0 0 -75z"/>
<path d="M232 908 c-14 -14 -17 -195 -4 -216 6 -9 34 -12 103 -10 l94 3 0 115
0 115 -90 3 c-62 2 -94 -1 -103 -10z m148 -108 l0 -80 -55 0 -55 0 0 80 0 80
55 0 55 0 0 -80z"/>
<path d="M574 907 c-2 -7 -3 -60 -2 -118 l3 -104 94 -3 c69 -2 97 1 103 10 13
21 10 202 -4 216 -17 17 -187 16 -194 -1z m156 -107 l0 -80 -60 0 -60 0 0 80
0 80 60 0 60 0 0 -80z"/>
<path d="M921 906 c-8 -9 -11 -50 -9 -117 l3 -104 100 0 100 0 3 104 c2 67 -1
108 -9 117 -8 10 -36 14 -94 14 -58 0 -86 -4 -94 -14z m149 -106 l0 -80 -55 0
-55 0 0 80 0 80 55 0 55 0 0 -80z"/>
</g>
</svg>
