<?xml version="1.0" standalone="no"?>
<!DOCTYPE svg PUBLIC "-//W3C//DTD SVG 20010904//EN"
 "http://www.w3.org/TR/2001/REC-SVG-20010904/DTD/svg10.dtd">
<svg version="1.0" xmlns="http://www.w3.org/2000/svg"
 width="152.000000pt" height="224.000000pt" viewBox="0 0 152.000000 224.000000"
 preserveAspectRatio="xMidYMid meet">
<metadata>
Created by potrace 1.16, written by Peter Selinger 2001-2019
</metadata>
<g transform="translate(0.000000,224.000000) scale(0.100000,-0.100000)"
fill="#000000" stroke="none">
<path d="M103 2203 c-19 -47 -13 -193 14 -323 15 -71 16 -94 6 -140 -35 -171
3 -328 104 -426 l46 -45 -56 -117 c-83 -177 -186 -441 -202 -518 -52 -245 25
-421 250 -574 l80 -55 450 -3 c285 -2 476 1 520 8 83 13 150 50 179 99 26 45
26 117 0 162 -27 47 -111 89 -180 89 l-52 0 10 43 c16 68 4 212 -26 303 -30
92 -137 361 -190 478 l-36 78 41 47 c23 25 50 63 60 83 46 90 61 221 38 343
-9 51 -8 74 12 165 26 124 31 273 10 313 -35 66 -174 8 -326 -135 -51 -47 -51
-47 -95 -36 -26 6 -95 8 -163 4 l-118 -5 -77 64 c-94 79 -196 135 -246 135
-33 0 -39 -4 -53 -37z m144 -37 c46 -24 87 -55 185 -138 41 -35 46 -36 83 -28
53 12 199 12 253 0 l43 -10 80 68 c88 75 168 127 218 142 29 8 33 6 41 -16 6
-14 10 -47 10 -73 0 -52 -25 -210 -44 -274 -9 -33 -9 -52 2 -92 9 -32 12 -85
9 -150 -4 -122 -30 -188 -105 -268 l-50 -52 45 -100 c51 -114 147 -352 189
-470 26 -71 29 -93 29 -200 0 -112 -2 -124 -29 -180 -19 -38 -56 -87 -102
-133 -74 -74 -94 -86 -94 -53 0 10 -11 39 -25 65 -24 46 -25 53 -25 242 0 187
-1 194 -20 194 -19 0 -20 -7 -20 -206 0 -202 0 -206 25 -242 30 -44 32 -91 6
-123 -18 -23 -26 -24 -155 -27 l-136 -4 0 301 c0 294 0 301 -20 301 -20 0 -20
-7 -20 -301 l0 -301 -136 4 c-129 3 -137 4 -155 27 -26 32 -24 79 6 123 25 36
25 40 25 242 0 199 -1 206 -20 206 -19 0 -20 -7 -20 -197 -1 -193 -1 -199 -25
-238 -14 -22 -25 -53 -25 -68 l0 -28 -31 18 c-53 31 -129 120 -162 190 -41 88
-50 218 -22 321 23 84 96 269 170 432 31 69 62 138 68 153 9 22 16 27 32 22
68 -22 87 6 23 34 -152 66 -227 245 -187 447 8 38 13 74 12 79 -1 6 -11 59
-22 119 -23 118 -27 236 -11 266 12 22 24 19 107 -24z m1171 -1873 c38 -28 65
-86 57 -123 -9 -43 -48 -85 -97 -106 -34 -14 -80 -18 -215 -22 -95 -2 -173 0
-173 4 0 5 17 19 38 31 62 35 139 110 184 180 l42 65 69 -5 c46 -3 78 -11 95
-24z"/>
<path d="M411 1666 c-31 -37 9 -103 47 -80 36 23 23 94 -18 94 -10 0 -23 -6
-29 -14z"/>
<path d="M808 1655 c-23 -51 32 -101 70 -63 15 15 15 61 0 76 -21 21 -57 14
-70 -13z"/>
<path d="M577 1514 c-15 -16 -6 -55 18 -76 34 -30 33 -70 -2 -96 -23 -17 -26
-23 -15 -34 10 -10 18 -10 40 3 24 13 30 13 54 0 22 -13 30 -13 40 -3 10 10 7
17 -20 38 -38 31 -41 60 -7 76 14 6 25 15 25 20 0 4 1 11 2 16 1 4 -11 10 -28
13 l-29 7 33 1 c26 1 33 5 30 19 -3 14 -16 18 -69 20 -35 2 -68 0 -72 -4z"/>
</g>
</svg>
