<?xml version="1.0" standalone="no"?>
<!DOCTYPE svg PUBLIC "-//W3C//DTD SVG 20010904//EN"
 "http://www.w3.org/TR/2001/REC-SVG-20010904/DTD/svg10.dtd">
<svg version="1.0" xmlns="http://www.w3.org/2000/svg"
 width="140.000000pt" height="243.000000pt" viewBox="0 0 140.000000 243.000000"
 preserveAspectRatio="xMidYMid meet">
<metadata>
Created by potrace 1.16, written by Peter Selinger 2001-2019
</metadata>
<g transform="translate(0.000000,243.000000) scale(0.100000,-0.100000)"
fill="#000000" stroke="none">
<path d="M599 2412 c-112 -37 -198 -125 -235 -240 -47 -149 37 -337 185 -409
49 -25 67 -28 151 -28 89 0 99 2 158 34 74 40 124 94 161 171 21 46 26 69 25
141 0 110 -29 173 -114 252 -93 87 -218 116 -331 79z m227 -57 c63 -28 116
-80 151 -148 39 -75 39 -179 0 -259 -30 -62 -83 -115 -149 -150 -35 -19 -59
-23 -128 -23 -73 0 -92 4 -136 27 -60 32 -118 93 -147 157 -31 65 -29 178 2
243 76 158 250 224 407 153z"/>
<path d="M472 1669 c-97 -17 -175 -70 -231 -158 -31 -47 -112 -255 -201 -511
-50 -143 -50 -182 0 -232 24 -23 37 -28 78 -28 70 0 97 29 152 160 101 242 99
239 100 200 0 -19 -7 -247 -17 -505 -16 -463 -16 -471 3 -510 52 -108 202
-115 264 -13 24 40 27 59 44 343 14 228 20 265 37 265 21 0 29 -57 44 -304 17
-287 23 -311 85 -354 63 -42 163 -22 205 41 30 46 33 84 24 288 -15 352 -28
763 -25 766 2 2 31 -63 66 -144 74 -175 91 -206 125 -221 36 -17 96 -15 123 4
30 20 52 66 52 105 0 38 -147 460 -200 576 -48 103 -104 164 -188 205 l-66 33
-211 2 c-115 1 -234 -2 -263 -8z m516 -58 c61 -28 138 -107 171 -176 12 -26
41 -101 65 -168 156 -434 153 -421 111 -462 -29 -30 -74 -33 -104 -7 -11 9
-63 117 -115 242 -65 153 -100 226 -112 229 -19 3 -18 -18 10 -779 8 -201 10
-347 4 -367 -13 -47 -61 -83 -110 -83 -32 0 -47 7 -73 33 -39 39 -40 46 -55
337 -13 240 -17 274 -40 295 -27 24 -72 16 -88 -17 -8 -16 -18 -124 -27 -275
-9 -136 -20 -265 -25 -285 -14 -51 -61 -88 -112 -88 -32 0 -47 7 -74 34 -34
34 -34 35 -34 122 0 49 7 251 15 449 19 473 19 625 1 625 -8 0 -52 -91 -111
-230 -60 -144 -105 -236 -118 -245 -51 -35 -127 2 -127 63 0 24 121 371 189
539 55 139 135 211 261 234 25 4 135 7 245 5 185 -2 204 -4 253 -25z"/>
</g>
</svg>
