<?xml version="1.0" standalone="no"?>
<!DOCTYPE svg PUBLIC "-//W3C//DTD SVG 20010904//EN"
 "http://www.w3.org/TR/2001/REC-SVG-20010904/DTD/svg10.dtd">
<svg version="1.0" xmlns="http://www.w3.org/2000/svg"
 width="113.000000pt" height="239.000000pt" viewBox="0 0 113.000000 239.000000"
 preserveAspectRatio="xMidYMid meet">
<metadata>
Created by potrace 1.16, written by Peter Selinger 2001-2019
</metadata>
<g transform="translate(0.000000,239.000000) scale(0.100000,-0.100000)"
fill="#000000" stroke="none">
<path d="M460 2373 c-63 -23 -151 -113 -173 -177 -49 -144 20 -308 158 -372
76 -36 173 -34 253 6 112 56 167 145 166 270 0 64 -4 83 -29 129 -36 66 -102
125 -162 145 -58 20 -154 19 -213 -1z m220 -53 c44 -23 107 -90 126 -136 21
-50 18 -140 -6 -190 -30 -61 -98 -120 -161 -138 -65 -20 -83 -20 -145 -1 -104
31 -176 128 -177 240 -1 185 198 309 363 225z"/>
<path d="M290 1719 c-103 -20 -202 -94 -249 -187 -35 -68 -42 -152 -39 -417
l3 -250 28 -57 c33 -67 87 -111 158 -129 l49 -13 0 -328 c0 -320 0 -328 20
-328 19 0 20 10 22 662 2 365 0 671 -5 680 -4 10 -14 15 -22 12 -13 -5 -15
-53 -15 -331 l0 -324 -23 6 c-81 25 -139 79 -158 149 -6 24 -9 143 -7 315 l3
276 27 50 c59 112 142 162 292 177 126 12 426 3 488 -16 61 -18 128 -65 162
-114 51 -74 56 -111 56 -404 0 -287 -4 -314 -53 -366 -27 -29 -89 -62 -117
-62 -20 0 -20 5 -20 320 0 314 0 320 -20 320 -20 0 -20 -5 -18 -677 3 -595 5
-678 18 -678 13 0 15 45 18 330 l2 331 43 11 c71 20 129 64 162 124 l30 54 0
300 0 300 -28 60 c-53 113 -147 185 -268 205 -76 12 -475 12 -539 -1z"/>
<path d="M551 717 c-8 -11 -11 -109 -9 -363 3 -341 3 -349 23 -349 20 0 20 7
20 359 0 359 -3 390 -34 353z"/>
</g>
</svg>
