<?xml version="1.0" standalone="no"?>
<!DOCTYPE svg PUBLIC "-//W3C//DTD SVG 20010904//EN"
 "http://www.w3.org/TR/2001/REC-SVG-20010904/DTD/svg10.dtd">
<svg version="1.0" xmlns="http://www.w3.org/2000/svg"
 width="141.000000pt" height="227.000000pt" viewBox="0 0 141.000000 227.000000"
 preserveAspectRatio="xMidYMid meet">
<metadata>
Created by potrace 1.16, written by Peter Selinger 2001-2019
</metadata>
<g transform="translate(0.000000,227.000000) scale(0.100000,-0.100000)"
fill="#000000" stroke="none">
<path d="M609 2268 c-1 -2 -3 -56 -5 -120 -6 -210 -61 -401 -189 -663 -40 -82
-116 -220 -168 -305 -51 -85 -122 -200 -156 -256 -77 -126 -95 -184 -89 -285
6 -102 39 -169 121 -246 72 -67 156 -111 280 -147 48 -14 96 -30 107 -36 26
-14 45 -53 60 -125 15 -67 30 -91 55 -81 19 7 16 48 -11 143 -24 86 -59 117
-161 142 -180 45 -306 129 -362 243 -58 115 -35 248 67 405 71 107 231 376
295 495 135 249 214 539 205 753 -3 74 -5 80 -25 83 -13 2 -23 2 -24 0z"/>
<path d="M1170 915 c-10 -12 -10 -18 0 -30 7 -8 18 -15 24 -15 25 0 96 -72
120 -123 39 -82 51 -172 32 -247 -29 -114 -115 -201 -212 -216 -54 -8 -74 -28
-52 -51 14 -13 24 -13 69 -4 261 56 345 405 153 629 -55 65 -109 88 -134 57z"/>
<path d="M716 544 c-79 -29 -150 -106 -123 -133 18 -18 32 -13 55 19 73 99
264 101 371 4 52 -47 75 -54 85 -28 10 27 -79 107 -147 133 -68 25 -180 27
-241 5z"/>
</g>
</svg>
