<?xml version="1.0" standalone="no"?>
<!DOCTYPE svg PUBLIC "-//W3C//DTD SVG 20010904//EN"
 "http://www.w3.org/TR/2001/REC-SVG-20010904/DTD/svg10.dtd">
<svg version="1.0" xmlns="http://www.w3.org/2000/svg"
 width="195.000000pt" height="212.000000pt" viewBox="0 0 195.000000 212.000000"
 preserveAspectRatio="xMidYMid meet">
<metadata>
Created by potrace 1.16, written by Peter Selinger 2001-2019
</metadata>
<g transform="translate(0.000000,212.000000) scale(0.100000,-0.100000)"
fill="#000000" stroke="none">
<path d="M1290 2098 c-204 -64 -340 -256 -340 -478 0 -139 44 -244 145 -346
97 -98 207 -144 345 -144 94 1 144 12 228 53 135 65 236 202 268 361 14 68 15
90 4 150 -37 209 -170 361 -363 412 -77 20 -209 17 -287 -8z m242 -49 c89 -19
155 -55 217 -116 133 -134 166 -317 87 -488 -34 -74 -136 -177 -210 -211 -231
-106 -496 4 -585 242 -59 156 -21 329 97 451 103 106 251 152 394 122z"/>
<path d="M283 1180 c-62 -13 -115 -43 -167 -97 -99 -100 -137 -237 -102 -368
27 -104 76 -170 167 -228 68 -42 120 -57 201 -57 148 0 275 81 342 220 28 60
31 73 31 165 0 89 -3 106 -28 157 -36 74 -108 149 -177 184 -45 23 -70 28
-140 30 -47 2 -104 -1 -127 -6z m234 -84 c29 -14 69 -42 89 -63 125 -125 118
-336 -14 -454 -94 -83 -187 -105 -303 -69 -61 18 -81 30 -129 78 -72 73 -94
130 -88 240 5 111 55 197 146 254 89 55 208 61 299 14z"/>
<path d="M1133 515 c-66 -33 -127 -101 -143 -160 -16 -56 -9 -159 14 -203 64
-124 224 -181 348 -125 103 47 157 132 158 246 0 81 -18 128 -68 180 -54 56
-105 79 -187 84 -61 4 -77 1 -122 -22z m205 -64 c123 -63 148 -209 54 -313
-44 -48 -85 -68 -144 -68 -120 1 -224 118 -203 229 8 44 37 101 63 124 11 10
42 27 68 38 56 22 106 19 162 -10z"/>
</g>
</svg>
