<?xml version="1.0" standalone="no"?>
<!DOCTYPE svg PUBLIC "-//W3C//DTD SVG 20010904//EN"
 "http://www.w3.org/TR/2001/REC-SVG-20010904/DTD/svg10.dtd">
<svg version="1.0" xmlns="http://www.w3.org/2000/svg"
 width="212.000000pt" height="200.000000pt" viewBox="0 0 212.000000 200.000000"
 preserveAspectRatio="xMidYMid meet">
<metadata>
Created by potrace 1.16, written by Peter Selinger 2001-2019
</metadata>
<g transform="translate(0.000000,200.000000) scale(0.100000,-0.100000)"
fill="#000000" stroke="none">
<path d="M890 1990 c-231 -27 -445 -134 -605 -301 -128 -134 -205 -271 -253
-449 -21 -81 -25 -117 -26 -245 -1 -126 3 -164 23 -240 90 -351 347 -613 706
-721 82 -25 105 -28 265 -28 191 -1 244 8 384 66 114 47 200 103 297 195 96
92 128 138 110 156 -8 8 -33 -13 -92 -76 -134 -144 -304 -243 -494 -285 -107
-23 -329 -21 -427 6 -290 79 -509 253 -633 505 -121 246 -131 528 -26 783 171
416 603 656 1042 579 460 -80 788 -469 789 -935 l0 -74 -50 49 c-47 47 -51 48
-67 32 -17 -16 -14 -21 52 -82 39 -36 77 -65 85 -65 18 0 150 130 150 148 0
26 -36 10 -82 -35 l-48 -47 0 104 c-1 250 -95 474 -279 663 -165 170 -370 269
-613 297 -92 11 -114 11 -208 0z"/>
<path d="M982 1563 c-5 -10 -10 -117 -10 -238 0 -161 -4 -221 -12 -223 -7 -3
-26 -16 -42 -31 -36 -32 -47 -87 -25 -130 l15 -30 -154 -146 c-142 -136 -180
-185 -141 -185 7 0 83 67 168 149 l155 148 50 -4 c60 -6 88 6 114 50 29 48 26
95 -10 139 -17 20 -39 40 -50 43 -19 6 -20 18 -22 237 -2 167 -6 232 -15 235
-6 2 -16 -4 -21 -14z m68 -523 c33 -33 30 -75 -6 -107 -31 -28 -54 -29 -88 -2
-52 41 -23 129 44 129 17 0 39 -9 50 -20z"/>
</g>
</svg>
