<?xml version="1.0" standalone="no"?>
<!DOCTYPE svg PUBLIC "-//W3C//DTD SVG 20010904//EN"
 "http://www.w3.org/TR/2001/REC-SVG-20010904/DTD/svg10.dtd">
<svg version="1.0" xmlns="http://www.w3.org/2000/svg"
 width="227.000000pt" height="167.000000pt" viewBox="0 0 227.000000 167.000000"
 preserveAspectRatio="xMidYMid meet">
<metadata>
Created by potrace 1.16, written by Peter Selinger 2001-2019
</metadata>
<g transform="translate(0.000000,167.000000) scale(0.100000,-0.100000)"
fill="#000000" stroke="none">
<path d="M793 1659 c-274 -24 -559 -131 -622 -233 -22 -35 -23 -43 -19 -224 4
-168 7 -196 32 -277 15 -49 51 -139 81 -199 30 -60 55 -110 55 -111 0 -1 -19
-8 -42 -15 -64 -19 -172 -76 -213 -111 -128 -113 -67 -262 147 -358 302 -137
972 -172 1389 -72 253 60 416 159 451 273 9 31 8 45 -6 82 -30 79 -118 140
-260 181 -31 9 -56 19 -56 22 0 2 16 33 35 68 35 63 36 63 66 53 48 -17 147
-5 212 24 71 33 154 111 193 180 27 49 29 61 29 158 0 122 -14 159 -88 227
-62 57 -136 80 -214 66 -50 -9 -59 -9 -67 6 -5 9 -32 39 -61 67 -78 77 -217
137 -389 169 -178 33 -445 43 -653 24z m453 -50 c288 -28 511 -106 598 -209
37 -44 34 -75 -13 -121 l-39 -39 -65 39 c-206 126 -473 176 -797 151 -261 -20
-420 -55 -569 -126 -51 -24 -97 -44 -101 -44 -4 0 -22 13 -39 29 -25 23 -31
37 -31 69 0 34 6 45 40 75 89 81 291 151 504 176 105 12 387 12 512 0z m156
-249 c102 -21 200 -56 274 -97 67 -38 70 -46 21 -70 -240 -116 -823 -135
-1196 -38 -78 20 -191 64 -191 75 0 12 130 67 225 94 78 23 213 46 340 60 102
11 428 -4 527 -24z m718 -38 c26 -17 57 -47 75 -76 26 -43 30 -61 34 -132 3
-72 0 -90 -22 -138 -32 -70 -97 -135 -173 -172 -48 -24 -72 -29 -131 -29 -39
0 -74 3 -77 6 -3 3 5 39 19 80 47 136 58 193 64 334 l6 140 35 12 c48 17 116
7 170 -25z m-260 -179 c-26 -217 -104 -422 -210 -550 -100 -120 -246 -212
-405 -252 -309 -79 -552 -27 -752 162 -175 167 -282 398 -300 652 l-6 89 28
-18 c101 -66 210 -107 361 -135 154 -29 300 -42 487 -42 353 -1 612 56 762
169 22 17 41 29 43 27 2 -2 -2 -47 -8 -102z m-1436 -638 c233 -230 498 -294
843 -204 152 40 291 122 378 223 l47 53 59 -15 c90 -22 200 -81 226 -121 32
-48 31 -113 -2 -157 -72 -94 -252 -167 -520 -211 -138 -22 -649 -26 -815 -5
-206 26 -374 78 -489 152 -72 47 -101 89 -101 147 0 35 7 50 35 82 41 45 194
124 256 130 3 1 41 -33 83 -74z"/>
</g>
</svg>
