<?xml version="1.0" standalone="no"?>
<!DOCTYPE svg PUBLIC "-//W3C//DTD SVG 20010904//EN"
 "http://www.w3.org/TR/2001/REC-SVG-20010904/DTD/svg10.dtd">
<svg version="1.0" xmlns="http://www.w3.org/2000/svg"
 width="178.000000pt" height="143.000000pt" viewBox="0 0 178.000000 143.000000"
 preserveAspectRatio="xMidYMid meet">
<metadata>
Created by potrace 1.16, written by Peter Selinger 2001-2019
</metadata>
<g transform="translate(0.000000,143.000000) scale(0.100000,-0.100000)"
fill="#000000" stroke="none">
<path d="M55 1416 c-17 -7 -36 -25 -43 -40 -9 -20 -12 -184 -12 -671 l0 -644
24 -28 24 -28 574 3 c315 1 695 5 843 8 l270 5 23 25 22 25 0 649 0 649 -24
28 -24 28 -824 2 c-666 2 -829 0 -853 -11z m1041 -243 l-1 -208 -527 -3 -528
-2 0 184 c0 102 4 196 10 210 l10 26 518 0 519 0 -1 -207z m632 195 c9 -9 12
-69 12 -210 l0 -198 -300 0 -300 0 0 210 0 210 288 0 c211 0 291 -3 300 -12z
m-1148 -653 l0 -205 -270 0 -270 0 0 205 0 205 270 0 270 0 0 -205z m1160 5
l0 -200 -302 0 c-167 0 -418 -1 -558 -3 l-255 -2 -3 203 -2 202 560 0 560 0 0
-200z m-12 -646 c-10 -10 -88 -14 -301 -16 l-287 -3 0 207 0 208 298 2 297 3
3 -194 c2 -148 -1 -198 -10 -207z m-630 189 l-3 -208 -510 -6 c-450 -6 -512
-5 -527 9 -16 13 -18 37 -18 214 l0 198 530 0 530 0 -2 -207z"/>
</g>
</svg>
