<?xml version="1.0" standalone="no"?>
<!DOCTYPE svg PUBLIC "-//W3C//DTD SVG 20010904//EN"
 "http://www.w3.org/TR/2001/REC-SVG-20010904/DTD/svg10.dtd">
<svg version="1.0" xmlns="http://www.w3.org/2000/svg"
 width="204.000000pt" height="216.000000pt" viewBox="0 0 204.000000 216.000000"
 preserveAspectRatio="xMidYMid meet">
<metadata>
Created by potrace 1.16, written by Peter Selinger 2001-2019
</metadata>
<g transform="translate(0.000000,216.000000) scale(0.100000,-0.100000)"
fill="#000000" stroke="none">
<path d="M1431 2144 c-319 -86 -434 -468 -207 -695 201 -201 590 -176 747 48
55 79 72 146 67 261 -3 81 -8 107 -31 154 -57 116 -160 198 -292 233 -73 19
-212 18 -284 -1z m224 -34 c228 -33 382 -227 344 -434 -36 -203 -199 -322
-434 -318 -269 3 -452 196 -413 437 25 158 171 292 341 314 87 12 84 12 162 1z"/>
<path d="M513 1649 c-69 -12 -177 -53 -235 -90 -76 -49 -162 -149 -208 -241
-54 -110 -73 -206 -67 -328 7 -122 25 -186 93 -329 83 -171 86 -185 93 -436 5
-186 8 -220 21 -220 13 0 15 28 18 185 3 238 -8 301 -89 472 -81 172 -103 263
-96 393 17 306 223 527 523 559 127 14 286 -35 381 -118 103 -90 178 -254 193
-419 l8 -98 92 -161 c50 -88 89 -163 85 -166 -3 -3 -43 -8 -89 -10 l-83 -4 -6
-107 c-10 -174 -32 -220 -119 -246 -29 -8 -87 -15 -129 -15 -97 0 -99 -3 -99
-139 0 -108 5 -131 26 -131 11 0 14 22 15 100 1 55 2 105 3 112 1 7 30 12 81
14 190 5 247 67 262 282 l6 92 51 0 c66 0 122 16 130 37 4 11 -28 77 -90 185
l-97 169 -8 92 c-13 139 -47 238 -119 342 -119 172 -332 260 -547 224z"/>
<path d="M1460 1188 c-65 -45 -86 -121 -52 -188 53 -107 210 -107 265 0 22 43
18 111 -10 149 -45 61 -143 79 -203 39z m124 -28 c14 -5 35 -24 46 -42 64
-102 -75 -214 -160 -129 -40 40 -48 76 -24 120 29 54 80 73 138 51z"/>
</g>
</svg>
