<?xml version="1.0" standalone="no"?>
<!DOCTYPE svg PUBLIC "-//W3C//DTD SVG 20010904//EN"
 "http://www.w3.org/TR/2001/REC-SVG-20010904/DTD/svg10.dtd">
<svg version="1.0" xmlns="http://www.w3.org/2000/svg"
 width="215.000000pt" height="160.000000pt" viewBox="0 0 215.000000 160.000000"
 preserveAspectRatio="xMidYMid meet">
<metadata>
Created by potrace 1.16, written by Peter Selinger 2001-2019
</metadata>
<g transform="translate(0.000000,160.000000) scale(0.100000,-0.100000)"
fill="#000000" stroke="none">
<path d="M82 1583 c-18 -9 -43 -30 -55 -47 l-22 -31 0 -705 0 -705 22 -31 c48
-68 -11 -64 1050 -64 914 0 960 1 993 19 19 10 45 36 57 57 l23 39 0 683 c0
660 -1 684 -20 721 -11 22 -35 48 -53 60 -34 21 -36 21 -998 21 -868 0 -967
-2 -997 -17z m1968 -38 c51 -26 60 -58 60 -215 l0 -140 -1035 0 -1035 0 0 140
c0 155 9 188 58 214 41 23 1909 23 1952 1z m60 -910 c0 -555 1 -549 -60 -580
-42 -22 -1892 -23 -1945 -1 -66 28 -65 19 -65 581 l0 505 1035 0 1035 0 0
-505z"/>
<path d="M660 791 c-85 -44 -120 -160 -85 -278 40 -135 215 -163 294 -48 43
63 43 202 0 272 -41 66 -139 92 -209 54z m137 -47 c37 -23 57 -73 57 -144 0
-76 -20 -122 -64 -145 -69 -35 -146 -3 -171 72 -16 49 -6 149 18 182 41 56
105 69 160 35z"/>
<path d="M240 780 c0 -16 8 -19 58 -22 l57 -3 3 -177 2 -178 25 0 25 0 0 180
0 180 55 0 c48 0 55 2 55 20 0 19 -7 20 -140 20 -132 0 -140 -1 -140 -20z"/>
<path d="M980 600 l0 -203 83 5 c152 8 212 63 212 198 0 136 -58 191 -207 198
l-88 4 0 -202z m169 142 c51 -25 72 -60 77 -128 9 -104 -39 -162 -142 -171
l-59 -5 2 153 c1 85 2 157 2 162 2 14 86 7 120 -11z"/>
<path d="M1436 768 c-16 -37 -126 -357 -126 -365 0 -2 10 -3 21 -1 15 2 27 18
41 56 l20 53 81 -3 80 -3 17 -50 c12 -37 22 -51 38 -53 12 -2 22 1 22 7 0 13
-118 349 -131 374 -16 29 -48 21 -63 -15z m70 -128 l30 -90 -63 0 c-35 0 -63
3 -63 7 0 13 55 173 60 173 3 0 19 -41 36 -90z"/>
<path d="M1690 680 c58 -116 60 -122 60 -200 0 -79 0 -80 25 -80 25 0 25 1 25
85 0 83 1 88 55 195 30 60 55 112 55 115 0 3 -10 5 -23 5 -20 0 -30 -15 -68
-97 l-45 -98 -47 98 c-40 85 -49 97 -72 97 -25 0 -25 0 35 -120z"/>
</g>
</svg>
