<?xml version="1.0" standalone="no"?>
<!DOCTYPE svg PUBLIC "-//W3C//DTD SVG 20010904//EN"
 "http://www.w3.org/TR/2001/REC-SVG-20010904/DTD/svg10.dtd">
<svg version="1.0" xmlns="http://www.w3.org/2000/svg"
 width="199.000000pt" height="174.000000pt" viewBox="0 0 199.000000 174.000000"
 preserveAspectRatio="xMidYMid meet">
<metadata>
Created by potrace 1.16, written by Peter Selinger 2001-2019
</metadata>
<g transform="translate(0.000000,174.000000) scale(0.100000,-0.100000)"
fill="#000000" stroke="none">
<path d="M149 1435 c-84 -174 -149 -318 -149 -334 0 -47 27 -122 59 -162 l31
-38 0 -450 0 -451 905 0 905 0 0 43 c0 23 1 227 2 452 l3 410 32 49 c34 51 59
142 48 176 -4 12 -71 153 -150 315 l-144 295 -696 0 -697 0 -149 -305z m409
242 c-2 -8 -37 -129 -78 -270 l-74 -257 -164 0 -163 0 7 23 c4 12 62 133 130
270 l124 247 111 0 c87 0 110 -3 107 -13z m272 -4 c0 -10 -10 -132 -22 -270
l-22 -253 -158 0 c-87 0 -158 4 -158 8 0 7 114 407 146 515 5 15 19 17 110 17
92 0 104 -2 104 -17z m264 -5 c6 -28 56 -477 56 -501 0 -15 -15 -17 -155 -17
l-155 0 5 38 c5 37 45 472 45 492 0 6 37 10 100 10 95 0 100 -1 104 -22z m276
17 c0 -4 87 -291 156 -517 5 -17 -7 -18 -155 -18 -89 0 -161 3 -161 8 0 4 -14
122 -30 262 -16 140 -30 258 -30 263 0 4 50 7 110 7 61 0 110 -2 110 -5z m411
-260 c71 -146 129 -267 129 -270 0 -3 -72 -5 -159 -5 l-159 0 -11 33 c-43 140
-151 496 -151 501 0 3 50 6 111 6 l111 0 129 -265z m-1391 -353 c0 -30 -43
-105 -73 -126 -22 -16 -44 -21 -90 -21 -75 0 -120 27 -148 89 -36 78 -40 76
146 76 152 0 165 -1 165 -18z m380 -19 c-31 -135 -202 -179 -283 -72 -14 19
-28 51 -32 72 l-7 37 165 0 165 0 -8 -37z m385 5 c-17 -80 -67 -128 -142 -135
-88 -9 -152 39 -172 126 l-9 41 165 0 165 0 -7 -32z m385 5 c0 -14 -11 -45
-24 -68 -73 -123 -269 -85 -293 58 l-6 37 162 0 161 0 0 -27z m385 -5 c-19
-89 -91 -144 -178 -135 -60 5 -95 30 -124 87 -42 82 -45 80 143 80 l166 0 -7
-32z m-1038 -165 c89 -52 214 -31 275 47 l24 31 46 -44 c52 -51 115 -72 184
-61 48 7 115 46 140 82 l15 22 26 -30 c51 -61 160 -92 231 -67 l22 8 0 -410 0
-411 -280 0 -280 0 -2 313 -3 312 -290 0 -290 0 -3 -312 -2 -313 -280 0 -280
0 0 411 c0 386 1 410 18 405 88 -26 156 -11 218 49 l44 42 44 -43 c89 -85 224
-81 303 10 l38 44 17 -28 c9 -16 38 -41 65 -57z m343 -548 l0 -285 -235 0
-235 0 0 285 0 285 235 0 235 0 0 -285z"/>
</g>
</svg>
