<?xml version="1.0" standalone="no"?>
<!DOCTYPE svg PUBLIC "-//W3C//DTD SVG 20010904//EN"
 "http://www.w3.org/TR/2001/REC-SVG-20010904/DTD/svg10.dtd">
<svg version="1.0" xmlns="http://www.w3.org/2000/svg"
 width="212.000000pt" height="157.000000pt" viewBox="0 0 212.000000 157.000000"
 preserveAspectRatio="xMidYMid meet">
<metadata>
Created by potrace 1.16, written by Peter Selinger 2001-2019
</metadata>
<g transform="translate(0.000000,157.000000) scale(0.100000,-0.100000)"
fill="#000000" stroke="none">
<path d="M64 1538 c-66 -59 -64 -30 -64 -751 l0 -653 22 -44 c14 -26 37 -53
58 -65 34 -20 50 -20 980 -20 935 0 945 0 980 21 19 11 45 35 57 54 l23 33 0
676 c0 657 -1 677 -20 709 -11 18 -34 41 -52 52 -32 20 -53 20 -990 20 l-957
0 -37 -32z m1955 -23 c62 -32 61 -19 61 -725 0 -573 -2 -646 -16 -676 -32 -68
24 -64 -1010 -64 l-936 0 -34 34 -34 34 0 670 c0 669 0 669 21 696 12 15 31
32 43 36 11 5 439 9 949 9 794 1 932 -1 956 -14z"/>
<path d="M917 1263 c-4 -3 -7 -107 -7 -230 l0 -223 -259 0 c-211 0 -260 -3
-264 -14 -13 -32 15 -36 270 -36 l253 0 0 -229 c0 -184 3 -230 14 -234 13 -5
646 477 646 493 0 4 -69 59 -152 122 -84 63 -225 169 -312 236 -153 117 -174
130 -189 115z m325 -272 l268 -202 -236 -182 c-129 -100 -255 -197 -279 -215
l-44 -33 2 425 c1 285 5 422 12 417 5 -5 130 -99 277 -210z"/>
</g>
</svg>
