<?xml version="1.0" standalone="no"?>
<!DOCTYPE svg PUBLIC "-//W3C//DTD SVG 20010904//EN"
 "http://www.w3.org/TR/2001/REC-SVG-20010904/DTD/svg10.dtd">
<svg version="1.0" xmlns="http://www.w3.org/2000/svg"
 width="230.000000pt" height="176.000000pt" viewBox="0 0 230.000000 176.000000"
 preserveAspectRatio="xMidYMid meet">
<metadata>
Created by potrace 1.16, written by Peter Selinger 2001-2019
</metadata>
<g transform="translate(0.000000,176.000000) scale(0.100000,-0.100000)"
fill="#000000" stroke="none">
<path d="M24 1739 c-18 -20 -19 -43 -22 -318 -4 -414 14 -554 97 -728 76 -157
202 -311 323 -394 209 -142 427 -125 636 51 40 33 72 56 72 51 0 -4 22 -42 48
-82 242 -369 598 -425 869 -136 105 113 183 252 225 405 20 71 22 106 26 439
3 355 3 362 -17 382 -24 24 -63 26 -181 10 -146 -19 -407 -28 -551 -19 -78 5
-143 11 -145 13 -2 2 -8 72 -12 155 -7 126 -11 154 -27 171 -23 26 -71 27
-225 4 -162 -25 -710 -25 -885 0 -162 23 -207 22 -231 -4z m306 -45 c183 -23
553 -23 740 0 243 31 256 32 269 8 18 -33 27 -554 12 -682 -32 -275 -191 -554
-393 -692 -74 -50 -108 -64 -190 -78 -143 -25 -280 31 -424 174 -177 175 -265
360 -294 611 -13 119 -13 625 0 661 10 26 12 27 78 21 37 -3 128 -13 202 -23z
m1928 -629 c2 -259 -1 -336 -14 -405 -31 -167 -109 -321 -221 -440 -124 -132
-238 -185 -380 -178 -70 4 -93 10 -159 43 -99 48 -211 157 -281 273 l-51 83
45 67 c60 89 109 188 148 297 29 79 36 90 58 93 18 2 38 -8 67 -34 28 -26 44
-34 51 -27 26 26 -53 103 -105 103 l-33 0 8 48 c4 26 8 123 8 215 l1 168 53
-8 c85 -13 491 -6 597 10 52 8 120 14 150 13 l55 -1 3 -320z"/>
<path d="M328 1286 c-47 -17 -88 -43 -88 -57 0 -19 26 -19 65 1 71 36 151 23
204 -34 14 -14 30 -26 37 -26 57 0 -36 100 -109 118 -56 15 -63 14 -109 -2z"/>
<path d="M945 1282 c-38 -18 -95 -73 -95 -92 0 -22 25 -21 44 2 52 63 127 78
192 38 33 -21 64 -21 64 0 0 19 -75 60 -120 65 -32 4 -56 0 -85 -13z"/>
<path d="M405 729 c-19 -30 111 -102 219 -120 121 -20 253 6 332 66 31 24 47
65 24 65 -5 0 -30 -16 -55 -35 -61 -46 -112 -60 -220 -60 -103 1 -171 20 -234
66 -44 31 -56 35 -66 18z"/>
<path d="M1873 941 c-56 -26 -109 -111 -69 -111 7 0 25 15 40 34 31 41 82 61
119 47 15 -6 38 -28 52 -50 17 -27 30 -39 40 -35 20 8 19 23 -5 61 -40 66
-108 86 -177 54z"/>
<path d="M1526 460 c-56 -22 -106 -65 -106 -92 0 -27 22 -22 55 12 77 80 248
78 393 -7 31 -18 47 -22 55 -14 15 15 -7 38 -65 67 -108 55 -243 69 -332 34z"/>
</g>
</svg>
