<?xml version="1.0" standalone="no"?>
<!DOCTYPE svg PUBLIC "-//W3C//DTD SVG 20010904//EN"
 "http://www.w3.org/TR/2001/REC-SVG-20010904/DTD/svg10.dtd">
<svg version="1.0" xmlns="http://www.w3.org/2000/svg"
 width="167.000000pt" height="228.000000pt" viewBox="0 0 167.000000 228.000000"
 preserveAspectRatio="xMidYMid meet">
<metadata>
Created by potrace 1.16, written by Peter Selinger 2001-2019
</metadata>
<g transform="translate(0.000000,228.000000) scale(0.100000,-0.100000)"
fill="#000000" stroke="none">
<path d="M109 2260 c-48 -25 -86 -71 -99 -120 -7 -26 -10 -343 -8 -972 3 -846
5 -936 20 -963 42 -77 103 -105 228 -105 l90 0 0 -39 c0 -67 20 -69 93 -13
l64 50 63 -49 c35 -27 70 -49 77 -49 9 0 13 15 13 50 l0 49 448 3 448 3 43 28
c28 19 49 43 62 72 19 42 19 74 17 1003 l-3 960 -31 39 c-62 77 -15 73 -794
73 -665 -1 -697 -2 -731 -20z m181 -915 l0 -905 -81 0 c-79 0 -149 -19 -149
-41 0 -5 -4 -9 -10 -9 -7 0 -9 296 -7 873 l2 874 28 36 c38 50 60 61 142 68
39 3 71 6 73 7 1 1 2 -405 2 -903z m1268 875 c18 -11 41 -34 52 -52 19 -32 20
-52 20 -875 l0 -843 -527 -1 c-291 0 -583 -3 -650 -5 l-123 -4 0 900 0 900
598 0 c578 0 598 -1 630 -20z m-1218 -1946 l0 -136 -99 4 c-107 3 -132 13
-175 71 -29 39 -26 109 5 143 38 42 76 53 177 54 l92 0 0 -136z m278 -41 c1
-95 0 -173 -4 -173 -3 0 -28 18 -54 40 -26 22 -53 40 -59 40 -7 0 -33 -16 -58
-35 -25 -19 -49 -35 -53 -35 -4 0 -8 77 -9 170 l-2 171 118 -3 118 -3 3 -172z
m1010 83 c-3 -84 -6 -97 -28 -121 -52 -56 -44 -55 -510 -55 l-430 0 -1 115
c-1 63 -2 121 -3 128 -1 6 -1 15 1 20 2 4 223 7 490 7 l485 0 -4 -94z"/>
<path d="M835 1678 c-2 -7 -54 -167 -115 -355 -60 -188 -113 -349 -116 -358
-5 -13 -2 -16 17 -13 20 3 28 17 59 118 l36 115 221 3 221 2 42 -115 c45 -119
65 -151 76 -121 4 10 -16 76 -46 154 -29 75 -86 225 -126 332 -41 107 -79 207
-85 223 -11 26 -13 27 -96 27 -58 0 -85 -4 -88 -12z m226 -237 c43 -112 79
-205 79 -207 0 -2 -92 -4 -203 -4 l-204 0 66 210 66 211 59 -3 58 -3 79 -204z"/>
</g>
</svg>
