<?xml version="1.0" standalone="no"?>
<!DOCTYPE svg PUBLIC "-//W3C//DTD SVG 20010904//EN"
 "http://www.w3.org/TR/2001/REC-SVG-20010904/DTD/svg10.dtd">
<svg version="1.0" xmlns="http://www.w3.org/2000/svg"
 width="189.000000pt" height="153.000000pt" viewBox="0 0 189.000000 153.000000"
 preserveAspectRatio="xMidYMid meet">
<metadata>
Created by potrace 1.16, written by Peter Selinger 2001-2019
</metadata>
<g transform="translate(0.000000,153.000000) scale(0.100000,-0.100000)"
fill="#000000" stroke="none">
<path d="M1145 1518 c-11 -6 -143 -133 -293 -282 -150 -149 -277 -271 -282
-271 -6 0 -31 45 -58 100 -69 145 -115 227 -136 239 -25 15 -53 -22 -126 -169
-119 -240 -191 -530 -160 -644 26 -99 103 -163 211 -179 l54 -7 3 -96 3 -96
-48 -7 c-84 -11 -116 -17 -212 -36 -51 -10 -95 -21 -98 -24 -3 -3 -3 -12 0
-19 5 -12 23 -11 119 8 117 24 143 28 281 44 426 52 1025 27 1386 -58 81 -18
101 -18 101 4 0 12 -27 20 -127 41 l-23 4 0 433 0 433 58 -53 c54 -51 72 -59
79 -37 2 5 -47 59 -109 120 -172 166 -588 559 -596 561 -4 1 -16 -3 -27 -9z
m383 -377 l172 -164 0 -449 0 -448 -42 6 c-24 3 -67 10 -95 14 -29 5 -93 12
-143 16 l-90 7 -2 246 -3 246 -159 3 c-121 2 -161 -1 -168 -10 -4 -7 -8 -115
-8 -240 l0 -228 -162 -1 c-90 0 -173 -2 -185 -3 -23 -3 -23 -2 -23 141 0 109
4 151 15 173 27 51 28 109 6 230 -12 63 -21 150 -21 195 l0 80 272 266 273
267 95 -92 c52 -50 173 -165 268 -255z m-1073 -46 c99 -203 149 -363 162 -515
4 -54 1 -73 -17 -113 -52 -110 -184 -153 -332 -107 -70 21 -108 53 -132 112
-51 120 36 452 187 716 49 88 41 93 132 -93z m845 -741 l0 -227 -92 7 c-50 3
-111 6 -135 6 l-43 0 0 220 0 220 135 0 135 0 0 -226z m-722 -219 c-2 -2 -45
-6 -95 -10 l-93 -7 0 95 0 94 51 6 c27 4 69 17 92 29 l42 23 3 -114 c1 -62 1
-115 0 -116z"/>
</g>
</svg>
