<?xml version="1.0" standalone="no"?>
<!DOCTYPE svg PUBLIC "-//W3C//DTD SVG 20010904//EN"
 "http://www.w3.org/TR/2001/REC-SVG-20010904/DTD/svg10.dtd">
<svg version="1.0" xmlns="http://www.w3.org/2000/svg"
 width="108.000000pt" height="313.000000pt" viewBox="0 0 108.000000 313.000000"
 preserveAspectRatio="xMidYMid meet">
<metadata>
Created by potrace 1.16, written by Peter Selinger 2001-2019
</metadata>
<g transform="translate(0.000000,313.000000) scale(0.100000,-0.100000)"
fill="#000000" stroke="none">
<path d="M380 3107 c-84 -29 -147 -66 -204 -121 -99 -97 -171 -250 -164 -352
2 -27 7 -49 12 -49 5 0 16 35 23 79 37 222 213 398 427 429 253 36 491 -130
551 -385 24 -102 20 -250 -10 -352 -46 -160 -92 -235 -262 -429 -64 -73 -148
-173 -189 -223 -102 -129 -161 -165 -266 -165 -139 0 -243 100 -257 245 -4 45
-10 61 -21 61 -12 0 -15 -13 -13 -62 3 -108 61 -201 157 -251 42 -21 65 -26
131 -26 68 -1 88 3 138 27 65 33 107 78 439 479 209 252 264 571 143 826 -62
130 -184 234 -324 276 -82 24 -230 21 -311 -7z"/>
<path d="M415 2880 c-108 -42 -174 -132 -183 -249 -8 -119 8 -150 132 -257 33
-28 36 -36 36 -83 0 -92 -37 -135 -146 -171 -73 -25 -94 -48 -94 -105 0 -81
56 -132 155 -142 82 -9 119 16 277 185 237 254 262 299 262 477 0 91 -4 120
-23 167 -32 81 -98 152 -167 177 -72 27 -180 27 -249 1z m252 -41 c50 -24 98
-76 127 -138 18 -39 21 -65 21 -166 0 -101 -4 -127 -21 -165 -32 -69 -99 -151
-257 -314 l-143 -149 -68 5 c-64 4 -71 7 -102 41 -56 61 -43 103 40 131 118
38 164 89 174 186 6 66 -16 111 -81 159 -68 52 -91 96 -90 176 1 92 33 154
109 211 73 56 202 66 291 23z"/>
<path d="M94 346 c-3 -7 -4 -87 -2 -176 3 -146 5 -163 21 -166 15 -2 17 8 17
87 0 82 2 92 25 114 25 26 42 30 61 17 24 -16 34 -55 34 -135 0 -68 3 -84 15
-84 12 0 15 19 15 107 0 93 -3 109 -20 128 -26 28 -69 28 -104 1 l-26 -20 0
70 c0 57 -3 71 -15 71 -9 0 -18 -6 -21 -14z"/>
<path d="M368 231 c-31 -28 -33 -33 -33 -100 0 -63 3 -73 26 -97 16 -15 41
-28 66 -31 35 -5 45 -1 74 25 29 26 32 32 17 37 -11 4 -28 -1 -44 -14 -15 -12
-33 -21 -41 -21 -21 0 -63 46 -63 70 0 18 6 20 81 20 l82 0 -6 47 c-10 90 -93
123 -159 64z m102 -21 c11 -11 20 -29 20 -40 0 -18 -7 -20 -60 -20 -68 0 -78
15 -38 57 26 28 52 29 78 3z"/>
<path d="M606 239 c-14 -11 -26 -27 -26 -35 0 -21 33 -17 48 6 22 35 73 19 86
-27 6 -19 2 -22 -43 -28 -67 -9 -101 -36 -101 -81 0 -67 69 -96 124 -53 l26
20 0 -20 c0 -15 6 -21 21 -21 15 0 19 4 15 16 -3 9 -6 56 -6 105 0 82 -2 92
-25 114 -30 31 -82 33 -119 4z m106 -144 c-4 -37 -16 -51 -48 -59 -31 -8 -54
8 -54 39 0 34 35 55 85 52 16 -2 19 -8 17 -32z"/>
<path d="M810 130 c0 -123 1 -130 20 -130 18 0 20 7 20 88 0 95 13 128 52 134
13 2 24 11 26 21 5 25 -36 22 -65 -5 l-23 -21 0 21 c0 13 -6 22 -15 22 -13 0
-15 -21 -15 -130z"/>
</g>
</svg>
