<?xml version="1.0" standalone="no"?>
<!DOCTYPE svg PUBLIC "-//W3C//DTD SVG 20010904//EN"
 "http://www.w3.org/TR/2001/REC-SVG-20010904/DTD/svg10.dtd">
<svg version="1.0" xmlns="http://www.w3.org/2000/svg"
 width="144.000000pt" height="145.000000pt" viewBox="0 0 144.000000 145.000000"
 preserveAspectRatio="xMidYMid meet">
<metadata>
Created by potrace 1.16, written by Peter Selinger 2001-2019
</metadata>
<g transform="translate(0.000000,145.000000) scale(0.100000,-0.100000)"
fill="#000000" stroke="none">
<path d="M575 1440 c-223 -45 -420 -203 -515 -414 -44 -96 -60 -176 -60 -301
0 -204 65 -361 210 -505 98 -97 164 -139 287 -183 83 -30 96 -32 228 -31 123
0 149 3 217 26 219 73 391 239 466 450 32 91 37 210 10 216 -19 4 -19 3 -38
-117 -35 -214 -214 -417 -438 -494 -173 -59 -348 -46 -520 38 -74 37 -109 62
-170 123 -137 137 -193 263 -200 452 -5 138 11 216 64 322 121 241 344 378
613 378 237 -1 428 -103 560 -301 34 -50 60 -93 58 -95 -1 -2 -37 11 -79 28
-41 17 -83 28 -92 25 -26 -10 -18 -37 15 -49 17 -6 71 -30 121 -54 49 -24 93
-44 97 -44 5 0 14 59 21 131 12 112 11 132 -1 139 -23 15 -38 -10 -40 -67 -2
-29 -5 -53 -8 -53 -3 0 -21 25 -38 54 -94 154 -266 279 -446 321 -66 16 -254
19 -322 5z"/>
</g>
</svg>
