<?xml version="1.0" standalone="no"?>
<!DOCTYPE svg PUBLIC "-//W3C//DTD SVG 20010904//EN"
 "http://www.w3.org/TR/2001/REC-SVG-20010904/DTD/svg10.dtd">
<svg version="1.0" xmlns="http://www.w3.org/2000/svg"
 width="210.000000pt" height="126.000000pt" viewBox="0 0 210.000000 126.000000"
 preserveAspectRatio="xMidYMid meet">
<metadata>
Created by potrace 1.16, written by Peter Selinger 2001-2019
</metadata>
<g transform="translate(0.000000,126.000000) scale(0.100000,-0.100000)"
fill="#000000" stroke="none">
<path d="M1785 1245 c-67 -15 -208 -65 -429 -155 -83 -33 -157 -60 -165 -60
-8 0 -151 46 -317 102 l-301 103 -69 -18 c-106 -29 -178 -60 -182 -79 -3 -17
134 -113 355 -249 40 -24 73 -46 73 -49 0 -3 -84 -40 -185 -84 l-185 -79 -135
57 -134 57 -51 -26 c-28 -14 -54 -33 -57 -42 -10 -27 32 -92 133 -205 120
-135 146 -147 268 -130 95 14 225 47 381 96 60 19 110 34 111 33 1 -1 -14
-112 -33 -246 -43 -304 -49 -291 99 -241 55 19 112 44 126 55 16 12 81 132
179 332 126 258 156 313 173 313 27 0 374 132 476 180 93 45 157 108 175 172
22 82 -11 124 -123 159 -69 22 -100 23 -183 4z m213 -55 c56 -24 70 -47 58
-96 -10 -39 -85 -113 -146 -144 -54 -27 -445 -180 -460 -180 -4 0 -7 8 -6 18
0 9 -6 17 -14 17 -10 0 -73 -118 -181 -335 -91 -184 -175 -342 -185 -351 -20
-17 -184 -82 -191 -75 -3 3 47 365 76 546 9 56 6 80 -10 80 -13 0 -29 -45 -29
-79 0 -27 -4 -29 -152 -74 -282 -87 -398 -108 -462 -87 -48 16 -256 241 -256
277 0 5 17 17 38 25 38 15 39 14 162 -39 68 -29 131 -53 139 -53 8 0 208 83
445 184 492 211 837 349 940 377 87 23 162 20 234 -11z m-1141 -92 c237 -81
303 -108 263 -108 -5 0 -79 -30 -164 -66 l-155 -65 -217 137 -218 138 84 27
c47 15 96 28 110 28 14 1 148 -40 297 -91z"/>
</g>
</svg>
