<?xml version="1.0" standalone="no"?>
<!DOCTYPE svg PUBLIC "-//W3C//DTD SVG 20010904//EN"
 "http://www.w3.org/TR/2001/REC-SVG-20010904/DTD/svg10.dtd">
<svg version="1.0" xmlns="http://www.w3.org/2000/svg"
 width="113.000000pt" height="177.000000pt" viewBox="0 0 113.000000 177.000000"
 preserveAspectRatio="xMidYMid meet">
<metadata>
Created by potrace 1.16, written by Peter Selinger 2001-2019
</metadata>
<g transform="translate(0.000000,177.000000) scale(0.100000,-0.100000)"
fill="#000000" stroke="none">
<path d="M560 1753 c-56 -39 -80 -96 -80 -192 l0 -50 -56 34 c-97 59 -196 57
-247 -5 -73 -86 -26 -209 101 -269 l49 -23 -60 -32 c-133 -69 -166 -189 -75
-273 31 -28 94 -44 138 -34 44 10 112 44 129 65 22 26 26 19 23 -42 -2 -33 1
-77 7 -100 14 -51 60 -100 100 -108 l31 -6 0 -192 0 -191 -42 75 c-55 100
-169 214 -260 258 -79 39 -190 64 -262 60 -49 -3 -51 -4 -49 -31 1 -16 19 -63
39 -105 56 -115 176 -232 304 -295 53 -26 135 -57 182 -69 l87 -21 3 -101 c2
-82 6 -101 18 -101 12 0 16 19 18 101 l3 100 58 12 c163 34 321 172 357 313
20 75 13 82 -65 77 -45 -4 -83 -14 -121 -33 -65 -33 -169 -133 -199 -193 -12
-23 -24 -42 -26 -42 -3 0 -5 86 -5 190 0 162 2 190 15 190 8 0 33 16 54 35 46
41 66 107 59 186 -5 51 1 60 23 33 17 -21 96 -60 138 -68 108 -20 205 86 171
188 -14 43 -97 120 -146 136 l-36 12 53 29 c67 36 126 100 135 145 9 47 -19
118 -57 145 -62 44 -151 33 -241 -29 l-43 -29 -1 76 c-1 89 -27 152 -74 176
-40 20 -119 19 -150 -2z m129 -39 c13 -9 29 -32 37 -50 19 -46 17 -158 -4
-218 l-18 -49 -69 0 -69 0 -18 49 c-25 71 -24 189 2 232 31 51 94 67 139 36z
m-324 -190 c38 -15 139 -104 156 -136 7 -12 3 -27 -13 -51 -13 -19 -28 -43
-33 -52 -10 -17 -15 -17 -85 -1 -79 17 -158 61 -184 101 -9 13 -16 42 -16 64
0 77 84 113 175 75z m686 -13 c86 -87 -25 -210 -213 -237 -39 -5 -48 -3 -48 8
0 9 -11 32 -25 52 -25 37 -25 37 -6 64 57 80 153 142 219 142 35 0 49 -6 73
-29z m-335 -195 c44 -44 46 -92 7 -136 -53 -59 -153 -48 -189 21 -36 71 18
149 103 149 38 0 50 -5 79 -34z m-236 -109 c0 -7 12 -29 26 -50 l25 -38 -31
-39 c-58 -74 -147 -130 -205 -130 -42 0 -85 28 -101 66 -19 45 -2 88 52 133
63 51 234 94 234 58z m487 -28 c96 -46 136 -117 103 -180 -14 -25 -62 -49 -97
-49 -59 1 -162 68 -214 141 l-19 28 25 37 c14 20 25 44 25 52 0 24 104 7 177
-29z m-251 -124 c10 -22 19 -78 21 -125 4 -77 3 -88 -19 -120 -44 -64 -127
-63 -169 2 -17 29 -20 45 -16 123 2 50 10 106 19 125 15 35 15 35 81 35 l67 0
16 -40z m-494 -397 c87 -26 189 -97 251 -173 49 -61 122 -196 116 -213 -3 -6
-23 -5 -54 3 -199 52 -362 170 -443 322 -45 86 -44 96 16 88 26 -3 77 -15 114
-27z m813 -115 c-11 -47 -56 -115 -107 -164 -53 -50 -156 -107 -214 -116 l-36
-6 36 71 c66 132 200 237 305 241 20 1 22 -2 16 -26z"/>
</g>
</svg>
