<?xml version="1.0" standalone="no"?>
<!DOCTYPE svg PUBLIC "-//W3C//DTD SVG 20010904//EN"
 "http://www.w3.org/TR/2001/REC-SVG-20010904/DTD/svg10.dtd">
<svg version="1.0" xmlns="http://www.w3.org/2000/svg"
 width="195.000000pt" height="180.000000pt" viewBox="0 0 195.000000 180.000000"
 preserveAspectRatio="xMidYMid meet">
<metadata>
Created by potrace 1.16, written by Peter Selinger 2001-2019
</metadata>
<g transform="translate(0.000000,180.000000) scale(0.100000,-0.100000)"
fill="#000000" stroke="none">
<path d="M1103 1789 c-10 -10 -9 -16 3 -31 14 -15 15 -22 3 -50 -19 -48 -203
-228 -274 -267 -33 -19 -109 -65 -170 -104 -60 -39 -182 -115 -270 -170 -87
-55 -212 -135 -277 -178 l-118 -79 0 -421 c0 -269 4 -427 10 -440 6 -10 25
-26 42 -35 41 -21 112 -16 463 31 143 19 296 40 340 45 44 5 291 36 548 69
489 63 514 69 536 118 7 16 11 163 11 444 0 481 4 455 -89 547 -88 86 -164
140 -259 183 -48 22 -94 43 -102 48 -8 4 -34 44 -56 90 -50 99 -90 143 -163
177 -63 30 -160 43 -178 23z m162 -60 c23 -10 55 -33 72 -51 33 -34 150 -260
160 -308 9 -48 -20 -85 -94 -122 -61 -30 -77 -33 -174 -36 -122 -5 -199 12
-249 54 -94 80 -77 172 56 290 82 74 109 111 119 167 7 36 9 38 39 32 17 -4
49 -15 71 -26z m330 -315 c90 -45 218 -145 275 -216 37 -47 40 -53 23 -60 -21
-8 -235 -35 -623 -78 -151 -17 -419 -49 -595 -70 -406 -50 -569 -69 -574 -64
-2 2 44 34 102 71 185 119 467 296 571 359 l101 61 6 -54 c15 -132 143 -200
359 -191 88 4 115 9 168 33 115 52 154 122 118 210 -8 19 -13 35 -11 35 3 0
39 -16 80 -36z m315 -438 l0 -124 -37 -6 c-70 -11 -436 -55 -748 -91 -171 -19
-362 -42 -425 -50 -168 -22 -622 -75 -642 -75 -16 0 -18 13 -18 124 l0 124 68
6 c93 10 348 40 732 86 179 21 393 46 475 56 83 9 247 29 365 45 118 15 218
28 223 28 4 1 7 -55 7 -123z m0 -294 l0 -128 -427 -52 c-236 -29 -646 -80
-913 -113 -267 -32 -495 -61 -507 -64 -23 -5 -23 -5 -23 129 l0 134 53 6 c313
35 1608 190 1717 205 36 5 73 9 83 10 15 1 17 -11 17 -127z m-17 -403 c-17
-16 -154 -40 -358 -64 -54 -6 -450 -56 -1020 -130 -409 -53 -428 -55 -455 -30
-18 16 -20 31 -20 127 l0 108 28 0 c27 0 236 25 1037 125 204 26 467 58 585
73 l215 27 3 -109 c2 -95 0 -112 -15 -127z"/>
</g>
</svg>
