<?xml version="1.0" standalone="no"?>
<!DOCTYPE svg PUBLIC "-//W3C//DTD SVG 20010904//EN"
 "http://www.w3.org/TR/2001/REC-SVG-20010904/DTD/svg10.dtd">
<svg version="1.0" xmlns="http://www.w3.org/2000/svg"
 width="216.000000pt" height="234.000000pt" viewBox="0 0 216.000000 234.000000"
 preserveAspectRatio="xMidYMid meet">
<metadata>
Created by potrace 1.16, written by Peter Selinger 2001-2019
</metadata>
<g transform="translate(0.000000,234.000000) scale(0.100000,-0.100000)"
fill="#000000" stroke="none">
<path d="M1068 2323 c-38 -43 -61 -109 -66 -184 -4 -68 -1 -83 22 -130 14 -30
40 -73 58 -96 56 -76 50 -170 -19 -275 -14 -22 -15 -30 -5 -40 16 -16 42 13
78 87 44 91 30 191 -37 277 -58 73 -72 150 -44 245 8 28 24 62 36 77 32 41 10
77 -23 39z"/>
<path d="M742 2237 c-53 -56 -68 -168 -32 -242 10 -22 34 -59 51 -83 26 -34
34 -54 37 -101 4 -59 -9 -99 -55 -173 -15 -22 -15 -30 -5 -40 31 -30 102 108
102 197 0 64 -15 101 -74 185 -44 62 -46 128 -7 204 38 75 29 102 -17 53z"/>
<path d="M1353 2213 c-24 -42 -28 -58 -28 -130 0 -76 2 -84 33 -125 91 -119
94 -194 14 -320 -14 -22 -14 -30 -4 -40 16 -16 42 13 79 90 21 45 25 64 21
121 -3 56 -9 76 -33 111 -73 103 -76 111 -73 176 3 47 10 72 31 103 15 23 25
46 22 51 -13 21 -35 8 -62 -37z"/>
<path d="M975 1420 c-177 -16 -327 -81 -432 -187 -58 -60 -64 -63 -139 -78
-163 -34 -248 -88 -328 -210 -15 -22 -38 -55 -51 -74 -33 -45 -32 -85 6 -206
112 -361 332 -554 729 -641 70 -16 128 -19 325 -19 215 0 251 2 344 23 370 83
589 279 700 625 43 136 39 208 -17 249 -10 7 -30 34 -45 59 -48 85 -135 145
-257 178 -41 12 -85 21 -99 21 -16 0 -49 24 -100 73 -42 39 -104 87 -138 105
-123 65 -323 98 -498 82z m293 -56 c146 -30 239 -80 335 -180 51 -53 55 -55
144 -73 164 -34 269 -110 293 -213 11 -45 11 -53 -7 -76 -58 -79 -321 -152
-653 -182 -148 -13 -463 -13 -610 0 -370 34 -660 128 -660 214 0 77 60 161
150 210 29 16 92 36 148 47 96 19 97 19 147 74 85 92 188 149 330 180 85 19
289 18 383 -1z m-1163 -584 c60 -62 278 -133 509 -166 154 -21 588 -30 768
-15 173 15 382 52 490 88 114 38 178 79 205 131 20 40 22 42 32 23 17 -31 13
-83 -9 -119 -102 -167 -837 -274 -1425 -206 -215 25 -467 92 -547 146 -74 51
-106 126 -76 181 11 22 12 22 19 -7 5 -16 20 -41 34 -56z m21 -165 c77 -52
307 -111 556 -141 185 -23 582 -23 783 0 254 29 480 86 582 146 l34 20 -7 -22
c-32 -106 -113 -235 -200 -320 -190 -186 -456 -267 -839 -255 -462 14 -747
162 -900 466 -29 58 -57 131 -50 131 2 0 21 -11 41 -25z"/>
<path d="M1345 1010 c-39 -76 -116 -138 -201 -163 -63 -18 -67 -43 -6 -40 45
2 105 32 163 80 38 33 89 109 89 135 0 28 -28 21 -45 -12z"/>
<path d="M1581 831 c-24 -33 -74 -59 -134 -69 -27 -5 -42 -13 -42 -22 0 -20
43 -24 95 -10 48 13 130 83 130 111 0 28 -26 23 -49 -10z"/>
</g>
</svg>
