<?xml version="1.0" standalone="no"?>
<!DOCTYPE svg PUBLIC "-//W3C//DTD SVG 20010904//EN"
 "http://www.w3.org/TR/2001/REC-SVG-20010904/DTD/svg10.dtd">
<svg version="1.0" xmlns="http://www.w3.org/2000/svg"
 width="262.000000pt" height="156.000000pt" viewBox="0 0 262.000000 156.000000"
 preserveAspectRatio="xMidYMid meet">
<metadata>
Created by potrace 1.16, written by Peter Selinger 2001-2019
</metadata>
<g transform="translate(0.000000,156.000000) scale(0.100000,-0.100000)"
fill="#000000" stroke="none">
<path d="M589 1545 c-103 -33 -198 -126 -240 -235 -16 -40 -23 -86 -27 -168
-8 -194 26 -300 132 -410 53 -55 62 -71 56 -88 -11 -29 -52 -60 -108 -80 -208
-75 -297 -129 -350 -210 -41 -61 -54 -127 -50 -249 2 -81 6 -100 18 -100 12 0
16 23 20 130 5 119 7 134 33 177 46 80 131 136 284 192 40 14 90 35 112 46 38
19 81 66 81 89 0 15 8 14 64 -5 58 -20 176 -15 224 8 30 16 31 15 40 -12 15
-41 65 -74 186 -119 123 -46 181 -77 238 -129 65 -59 80 -99 92 -250 12 -159
29 -172 34 -26 4 124 -10 190 -54 254 -19 27 -34 52 -34 55 0 8 91 50 195 90
55 21 105 41 111 46 6 5 15 -4 23 -26 13 -37 57 -76 106 -95 48 -19 164 -14
228 10 51 19 127 84 127 109 0 11 162 -49 257 -96 79 -38 145 -101 170 -161
10 -23 18 -85 22 -162 5 -102 9 -125 21 -125 13 0 15 20 14 125 -1 106 -4 133
-23 175 -51 114 -112 160 -328 245 l-148 58 -3 51 c-3 50 -1 54 46 106 90 98
118 197 110 389 -4 82 -11 126 -27 168 -31 80 -105 159 -189 200 -61 30 -74
33 -162 33 -116 0 -164 -19 -245 -96 -94 -89 -130 -200 -120 -370 11 -173 32
-235 111 -320 44 -46 45 -49 42 -106 l-3 -58 -110 -42 c-60 -23 -145 -60 -187
-82 l-78 -40 -55 34 c-31 18 -107 52 -170 75 -112 41 -165 74 -165 104 0 8 26
41 58 73 65 65 107 141 122 222 13 71 13 237 -1 303 -25 120 -104 219 -217
275 -46 22 -72 28 -146 30 -60 2 -107 -2 -137 -12z m264 -53 c91 -40 163 -125
192 -227 25 -85 17 -298 -14 -377 -29 -76 -106 -159 -179 -195 -49 -24 -69
-28 -142 -28 -70 0 -93 4 -130 24 -108 57 -175 142 -206 261 -23 91 -16 273
15 352 71 183 284 270 464 190z m1185 -6 c67 -34 124 -93 159 -164 27 -55 28
-63 28 -207 0 -184 -13 -229 -87 -310 -73 -81 -124 -107 -214 -113 -43 -3 -92
0 -117 8 -93 25 -191 129 -222 233 -25 84 -30 251 -11 327 30 115 101 200 203
241 71 29 189 22 261 -15z m-234 -826 c61 -22 143 -19 214 8 l52 20 0 -58 c0
-37 4 -60 12 -62 24 -8 -20 -56 -78 -84 -104 -51 -234 -33 -287 38 -13 18 -17
33 -12 45 9 21 11 33 13 87 2 32 5 37 20 31 9 -5 39 -16 66 -25z"/>
</g>
</svg>
