<?xml version="1.0" standalone="no"?>
<!DOCTYPE svg PUBLIC "-//W3C//DTD SVG 20010904//EN"
 "http://www.w3.org/TR/2001/REC-SVG-20010904/DTD/svg10.dtd">
<svg version="1.0" xmlns="http://www.w3.org/2000/svg"
 width="217.000000pt" height="160.000000pt" viewBox="0 0 217.000000 160.000000"
 preserveAspectRatio="xMidYMid meet">
<metadata>
Created by potrace 1.16, written by Peter Selinger 2001-2019
</metadata>
<g transform="translate(0.000000,160.000000) scale(0.100000,-0.100000)"
fill="#000000" stroke="none">
<path d="M175 1595 c-5 -2 -22 -6 -38 -9 -15 -4 -45 -22 -67 -42 -73 -66 -71
-41 -68 -764 3 -728 0 -694 81 -748 l41 -27 943 -3 c909 -2 946 -2 987 17 50
22 89 69 105 126 7 27 11 240 11 651 0 676 0 681 -62 741 -69 66 -14 63 -1015
62 -499 0 -912 -2 -918 -4z m1872 -65 c57 -34 73 -83 73 -215 l0 -115 -1035 0
-1035 0 0 124 c0 111 2 126 23 157 49 73 -15 69 1017 69 901 0 926 -1 957 -20z
m73 -510 l0 -140 -1035 0 -1035 0 0 135 0 135 1033 3 c567 1 1033 3 1035 5 1
1 2 -61 2 -138z m-16 -893 c-10 -21 -33 -47 -53 -60 l-36 -22 -935 0 -935 0
-33 23 c-62 45 -62 46 -62 421 l0 341 1033 2 1032 3 3 -335 c2 -296 1 -339
-14 -373z"/>
<path d="M1706 676 c-3 -14 -15 -27 -25 -31 -11 -3 -34 -22 -50 -41 -66 -75
-28 -160 83 -189 33 -8 67 -22 78 -31 27 -25 23 -69 -8 -93 -41 -32 -77 -27
-113 15 -26 29 -37 35 -57 30 l-25 -7 23 -41 c14 -25 38 -49 61 -61 22 -11 37
-26 37 -37 0 -38 32 -33 44 7 4 11 17 24 29 27 12 3 36 19 52 36 26 27 30 39
30 86 0 50 -3 59 -32 84 -20 18 -52 32 -87 40 -63 13 -86 30 -86 65 0 28 43
65 77 65 24 0 73 -40 73 -60 0 -10 36 -5 49 6 14 12 -33 76 -69 94 -26 13 -40
27 -40 40 0 30 -36 26 -44 -4z"/>
<path d="M302 388 c-8 -8 -9 -15 -1 -25 17 -20 622 -19 639 2 6 8 9 19 5 25
-9 15 -627 14 -643 -2z"/>
</g>
</svg>
