<?xml version="1.0" standalone="no"?>
<!DOCTYPE svg PUBLIC "-//W3C//DTD SVG 20010904//EN"
 "http://www.w3.org/TR/2001/REC-SVG-20010904/DTD/svg10.dtd">
<svg version="1.0" xmlns="http://www.w3.org/2000/svg"
 width="236.000000pt" height="252.000000pt" viewBox="0 0 236.000000 252.000000"
 preserveAspectRatio="xMidYMid meet">
<metadata>
Created by potrace 1.16, written by Peter Selinger 2001-2019
</metadata>
<g transform="translate(0.000000,252.000000) scale(0.100000,-0.100000)"
fill="#000000" stroke="none">
<path d="M610 2497 c-69 -46 -75 -69 -76 -287 -1 -257 -25 -367 -122 -554 -60
-116 -130 -210 -285 -379 l-127 -139 0 -352 c0 -382 3 -413 57 -523 54 -110
161 -202 281 -242 60 -21 79 -21 795 -21 l734 0 44 23 c24 13 58 43 74 66 28
40 30 49 30 134 0 51 -4 104 -9 120 -6 21 -5 27 6 27 28 0 97 60 120 102 28
54 31 181 5 242 -10 21 -17 39 -17 41 0 1 19 14 43 29 23 15 53 43 67 63 22
33 25 47 25 132 0 82 -3 102 -22 134 -13 21 -23 40 -23 42 0 3 17 13 38 24 77
39 112 104 112 203 -1 106 -52 184 -138 208 -24 6 -259 10 -651 10 -580 0
-613 1 -606 18 69 163 115 349 115 466 0 177 -96 337 -242 406 -82 39 -177 42
-228 7z m203 -67 c67 -34 135 -105 171 -180 29 -61 31 -72 30 -175 0 -126 -20
-216 -85 -379 -22 -55 -39 -112 -37 -126 l3 -25 652 -5 c641 -5 652 -5 680
-26 69 -51 94 -144 58 -214 -18 -35 -70 -76 -108 -85 -16 -4 -139 -8 -274 -9
-218 -1 -247 -3 -256 -18 -8 -12 -7 -21 2 -32 12 -14 44 -16 228 -16 234 0
248 -3 296 -59 64 -77 31 -207 -67 -258 -26 -14 -70 -17 -266 -20 -192 -2
-237 -5 -244 -17 -7 -9 -5 -20 3 -30 11 -14 43 -16 210 -16 229 0 246 -5 276
-84 33 -85 -2 -182 -79 -220 -34 -17 -71 -20 -255 -25 l-216 -6 0 -25 0 -25
170 -5 c185 -5 203 -10 235 -63 43 -71 16 -167 -60 -211 -34 -21 -50 -21 -669
-24 -737 -2 -804 1 -907 52 -120 60 -210 178 -234 307 -6 29 -10 197 -10 375
l0 323 124 136 c143 158 217 256 280 375 100 189 142 385 131 612 -7 150 3
194 48 217 33 17 117 8 170 -19z"/>
</g>
</svg>
