<?xml version="1.0" standalone="no"?>
<!DOCTYPE svg PUBLIC "-//W3C//DTD SVG 20010904//EN"
 "http://www.w3.org/TR/2001/REC-SVG-20010904/DTD/svg10.dtd">
<svg version="1.0" xmlns="http://www.w3.org/2000/svg"
 width="190.000000pt" height="109.000000pt" viewBox="0 0 190.000000 109.000000"
 preserveAspectRatio="xMidYMid meet">
<metadata>
Created by potrace 1.16, written by Peter Selinger 2001-2019
</metadata>
<g transform="translate(0.000000,109.000000) scale(0.100000,-0.100000)"
fill="#000000" stroke="none">
<path d="M20 1070 c-19 -19 -20 -33 -20 -533 0 -386 3 -516 12 -525 14 -14
175 -17 196 -3 10 6 14 40 15 125 l2 116 815 0 815 0 3 -120 c2 -112 4 -120
22 -120 19 0 20 8 20 253 0 282 -4 301 -69 344 l-34 23 -478 0 -477 0 -7 53
c-13 92 -69 169 -147 201 -57 24 -299 22 -353 -3 -40 -18 -95 -66 -95 -82 0
-5 -4 -9 -9 -9 -5 0 -10 59 -10 132 -2 165 -4 168 -108 168 -60 0 -77 -4 -93
-20z m158 -522 l2 -498 -70 0 -70 0 0 494 c0 386 3 495 13 500 6 2 37 4 67 3
l55 -2 3 -497z m490 297 c71 -30 111 -85 122 -167 l6 -48 -278 0 -278 0 0 38
c1 73 62 163 126 182 52 15 261 12 302 -5z m1126 -265 c49 -18 66 -63 66 -177
l0 -103 -820 0 -819 0 1 138 c0 75 3 140 5 145 6 11 1537 9 1567 -3z"/>
</g>
</svg>
