<?xml version="1.0" standalone="no"?>
<!DOCTYPE svg PUBLIC "-//W3C//DTD SVG 20010904//EN"
 "http://www.w3.org/TR/2001/REC-SVG-20010904/DTD/svg10.dtd">
<svg version="1.0" xmlns="http://www.w3.org/2000/svg"
 width="194.000000pt" height="155.000000pt" viewBox="0 0 194.000000 155.000000"
 preserveAspectRatio="xMidYMid meet">
<metadata>
Created by potrace 1.16, written by Peter Selinger 2001-2019
</metadata>
<g transform="translate(0.000000,155.000000) scale(0.100000,-0.100000)"
fill="#000000" stroke="none">
<path d="M65 1536 c-58 -25 -66 -59 -63 -260 3 -179 3 -179 29 -198 14 -11 50
-22 82 -25 l56 -6 3 -499 3 -500 28 -24 28 -24 735 0 736 0 29 29 29 29 0 495
0 494 67 6 c57 4 71 9 91 32 23 27 23 31 20 211 l-3 184 -33 32 -32 33 -888 2
c-717 2 -893 0 -917 -11z m1807 -53 c16 -14 18 -34 18 -194 0 -177 0 -179 -22
-184 -13 -3 -426 -4 -918 -3 l-895 3 -3 179 c-2 156 0 181 14 197 16 18 53 19
902 19 810 0 887 -1 904 -17z m-152 -918 c0 -472 -1 -486 -20 -505 -20 -20
-33 -20 -734 -20 -636 0 -716 2 -730 16 -14 14 -16 73 -16 505 l0 489 750 0
750 0 0 -485z"/>
</g>
</svg>
