<?xml version="1.0" standalone="no"?>
<!DOCTYPE svg PUBLIC "-//W3C//DTD SVG 20010904//EN"
 "http://www.w3.org/TR/2001/REC-SVG-20010904/DTD/svg10.dtd">
<svg version="1.0" xmlns="http://www.w3.org/2000/svg"
 width="193.000000pt" height="190.000000pt" viewBox="0 0 193.000000 190.000000"
 preserveAspectRatio="xMidYMid meet">
<metadata>
Created by potrace 1.16, written by Peter Selinger 2001-2019
</metadata>
<g transform="translate(0.000000,190.000000) scale(0.100000,-0.100000)"
fill="#000000" stroke="none">
<path d="M950 1426 l0 -476 485 0 c422 0 486 2 491 15 11 27 -17 214 -42 293
-80 245 -265 454 -499 563 -106 50 -191 70 -317 76 l-118 6 0 -477z m278 403
c339 -86 613 -407 648 -759 l7 -70 -442 0 -441 0 0 431 0 432 75 -7 c41 -4
110 -16 153 -27z"/>
<path d="M757 1740 c-186 -22 -376 -117 -509 -253 -115 -119 -189 -254 -229
-423 -30 -128 -24 -322 16 -444 66 -204 187 -367 353 -474 151 -98 298 -141
482 -140 383 2 699 233 825 605 27 80 51 219 42 243 -6 15 -47 16 -439 16
l-433 -1 -2 438 c-2 413 -3 438 -20 439 -10 1 -49 -2 -86 -6z m63 -480 l0
-440 435 0 435 0 0 -22 c0 -47 -41 -192 -75 -265 -47 -101 -110 -187 -196
-267 -414 -383 -1088 -237 -1310 284 -48 113 -63 191 -62 330 0 105 4 139 27
213 104 347 375 571 734 606 9 1 12 -93 12 -439z"/>
</g>
</svg>
