<?xml version="1.0" standalone="no"?>
<!DOCTYPE svg PUBLIC "-//W3C//DTD SVG 20010904//EN"
 "http://www.w3.org/TR/2001/REC-SVG-20010904/DTD/svg10.dtd">
<svg version="1.0" xmlns="http://www.w3.org/2000/svg"
 width="153.000000pt" height="205.000000pt" viewBox="0 0 153.000000 205.000000"
 preserveAspectRatio="xMidYMid meet">
<metadata>
Created by potrace 1.16, written by Peter Selinger 2001-2019
</metadata>
<g transform="translate(0.000000,205.000000) scale(0.100000,-0.100000)"
fill="#000000" stroke="none">
<path d="M660 2041 c0 -5 7 -38 16 -72 11 -42 15 -88 12 -135 -9 -139 -84
-249 -305 -446 -299 -268 -394 -443 -380 -707 11 -234 115 -422 300 -544 172
-114 298 -144 540 -128 174 11 243 29 359 93 157 87 262 211 307 363 41 138
25 238 -75 463 -27 61 -53 138 -62 188 -9 47 -21 84 -28 84 -6 0 -32 -19 -58
-41 -36 -32 -59 -67 -97 -145 -27 -57 -55 -106 -60 -110 -6 -3 -18 0 -26 9
-13 13 -11 29 17 143 43 175 49 284 21 394 -40 158 -116 293 -241 424 -103
108 -240 203 -240 167z m208 -185 c82 -85 142 -172 188 -271 73 -158 82 -295
34 -493 -16 -68 -30 -139 -30 -158 0 -43 31 -76 68 -72 24 3 34 17 82 115 30
62 69 126 85 143 l30 31 17 -72 c10 -40 34 -108 54 -153 72 -162 94 -235 94
-317 0 -246 -173 -451 -454 -538 -37 -11 -71 -21 -73 -21 -3 0 14 18 39 39 73
64 138 212 138 311 0 57 -28 150 -63 210 -18 30 -86 109 -153 175 -140 141
-167 185 -172 290 -3 53 1 83 17 125 35 91 2 89 -101 -8 -233 -217 -348 -599
-262 -866 33 -103 109 -211 175 -249 21 -12 39 -25 39 -29 0 -13 -141 32 -208
66 -149 75 -245 171 -312 311 -43 89 -62 184 -62 300 1 117 19 192 67 284 69
130 125 193 353 400 232 209 302 363 255 560 -6 24 -5 24 40 -9 26 -18 77 -65
115 -104z m-153 -758 c0 -134 24 -180 170 -323 177 -173 224 -263 212 -407
-11 -131 -83 -246 -185 -294 -119 -58 -262 -27 -364 78 -222 228 -166 680 124
994 22 24 41 44 42 44 0 0 1 -42 1 -92z"/>
</g>
</svg>
