<?xml version="1.0" standalone="no"?>
<!DOCTYPE svg PUBLIC "-//W3C//DTD SVG 20010904//EN"
 "http://www.w3.org/TR/2001/REC-SVG-20010904/DTD/svg10.dtd">
<svg version="1.0" xmlns="http://www.w3.org/2000/svg"
 width="127.000000pt" height="216.000000pt" viewBox="0 0 127.000000 216.000000"
 preserveAspectRatio="xMidYMid meet">
<metadata>
Created by potrace 1.16, written by Peter Selinger 2001-2019
</metadata>
<g transform="translate(0.000000,216.000000) scale(0.100000,-0.100000)"
fill="#000000" stroke="none">
<path d="M475 2144 c-177 -39 -337 -158 -408 -305 -44 -89 -69 -183 -65 -241
l3 -43 190 0 190 0 26 78 c32 96 65 132 139 154 69 20 158 8 225 -31 94 -55
129 -182 84 -301 -19 -51 -42 -80 -159 -200 -154 -159 -186 -198 -224 -273
-54 -107 -96 -361 -66 -397 10 -12 42 -15 180 -15 122 0 170 3 177 12 6 7 13
49 16 94 11 149 28 176 217 364 146 145 171 174 203 240 70 144 85 285 47 435
-53 206 -199 355 -410 415 -100 29 -269 35 -365 14z m339 -50 c260 -67 428
-297 413 -564 -6 -101 -34 -193 -84 -270 -19 -30 -102 -120 -183 -200 -102
-100 -156 -161 -173 -195 -27 -55 -47 -143 -47 -212 l0 -43 -150 0 c-174 0
-159 -16 -135 140 30 201 62 258 250 450 172 176 204 226 213 335 6 80 -9 136
-53 196 -92 127 -335 146 -433 34 -29 -32 -72 -129 -72 -160 0 -13 -26 -15
-160 -15 -183 0 -170 -9 -145 99 45 188 187 340 375 400 103 33 268 35 384 5z"/>
<path d="M500 408 c-157 -81 -156 -309 3 -389 61 -32 161 -24 219 17 176 123
94 394 -119 394 -41 0 -72 -7 -103 -22z m173 -32 c74 -30 120 -124 97 -198
-18 -61 -44 -93 -96 -118 -135 -66 -283 56 -244 201 28 102 143 157 243 115z"/>
</g>
</svg>
