<?xml version="1.0" standalone="no"?>
<!DOCTYPE svg PUBLIC "-//W3C//DTD SVG 20010904//EN"
 "http://www.w3.org/TR/2001/REC-SVG-20010904/DTD/svg10.dtd">
<svg version="1.0" xmlns="http://www.w3.org/2000/svg"
 width="217.000000pt" height="157.000000pt" viewBox="0 0 217.000000 157.000000"
 preserveAspectRatio="xMidYMid meet">
<metadata>
Created by potrace 1.16, written by Peter Selinger 2001-2019
</metadata>
<g transform="translate(0.000000,157.000000) scale(0.100000,-0.100000)"
fill="#000000" stroke="none">
<path d="M6 1554 c-3 -9 -6 -75 -6 -148 0 -202 30 -270 131 -300 l44 -13 5
-539 c4 -470 7 -539 20 -539 13 0 15 68 18 543 l2 542 28 0 c38 0 85 32 113
76 23 37 24 50 27 217 3 169 3 179 -15 175 -16 -3 -18 -18 -23 -168 -6 -186
-14 -212 -80 -249 -21 -12 -40 -21 -44 -21 -3 0 -7 98 -8 218 -3 185 -5 217
-18 217 -13 0 -15 -31 -18 -212 -3 -237 -2 -234 -69 -193 -59 35 -67 66 -71
248 -3 125 -7 162 -17 162 -7 0 -16 -7 -19 -16z"/>
<path d="M2065 1536 c-45 -20 -81 -65 -100 -123 -14 -43 -16 -86 -13 -260 l3
-208 30 -60 c32 -63 80 -105 121 -105 l24 0 2 -382 c3 -333 5 -383 18 -383 13
0 15 92 18 754 1 549 -1 758 -9 767 -14 17 -55 17 -94 0z m65 -371 c0 -334 -1
-345 -19 -345 -30 0 -77 45 -97 92 -14 35 -19 78 -22 228 -4 200 5 270 40 316
19 23 68 52 91 54 4 0 7 -155 7 -345z"/>
<path d="M1018 1520 c-235 -40 -451 -207 -564 -435 -59 -120 -78 -215 -72
-365 4 -101 9 -126 39 -205 125 -327 428 -532 759 -512 118 7 192 27 296 78
195 96 346 282 400 494 24 95 25 286 0 374 -61 223 -206 400 -409 500 -149 73
-296 96 -449 71z m215 -40 c145 -21 277 -85 388 -187 154 -143 230 -315 230
-523 1 -184 -47 -323 -160 -463 -71 -87 -155 -152 -263 -201 -386 -177 -830
27 -979 451 -30 84 -36 236 -15 343 33 166 134 323 277 432 142 107 233 140
439 156 8 1 46 -3 83 -8z"/>
<path d="M988 1217 c-241 -82 -376 -329 -313 -572 23 -86 50 -138 106 -199
237 -260 634 -199 787 121 36 77 37 80 37 198 0 114 -2 124 -31 185 -43 91
-102 160 -176 209 -125 82 -276 103 -410 58z m223 -26 c129 -21 252 -118 317
-249 35 -73 37 -81 37 -176 0 -96 -2 -105 -37 -178 -49 -104 -112 -169 -207
-216 -73 -36 -78 -37 -186 -37 -108 0 -113 1 -187 38 -267 132 -328 471 -123
686 61 65 126 104 206 125 64 18 105 19 180 7z"/>
</g>
</svg>
