<?xml version="1.0" standalone="no"?>
<!DOCTYPE svg PUBLIC "-//W3C//DTD SVG 20010904//EN"
 "http://www.w3.org/TR/2001/REC-SVG-20010904/DTD/svg10.dtd">
<svg version="1.0" xmlns="http://www.w3.org/2000/svg"
 width="178.000000pt" height="160.000000pt" viewBox="0 0 178.000000 160.000000"
 preserveAspectRatio="xMidYMid meet">
<metadata>
Created by potrace 1.16, written by Peter Selinger 2001-2019
</metadata>
<g transform="translate(0.000000,160.000000) scale(0.100000,-0.100000)"
fill="#000000" stroke="none">
<path d="M1457 1594 c-12 -12 -8 -1553 3 -1575 10 -17 23 -19 154 -19 109 0
146 3 155 14 8 10 10 226 9 797 l-3 784 -156 3 c-85 1 -158 -1 -162 -4z m273
-787 c0 -409 -2 -746 -4 -748 -2 -2 -54 -3 -115 -1 l-111 3 0 745 0 744 115 0
115 0 0 -743z"/>
<path d="M983 1273 c-18 -7 -19 -1243 -1 -1261 17 -17 279 -17 296 0 9 9 12
164 12 634 0 558 -2 622 -16 628 -19 7 -273 7 -291 -1z m257 -635 l0 -583
-110 0 -110 0 0 583 0 582 110 0 110 0 0 -582z"/>
<path d="M498 959 c-17 -9 -18 -43 -18 -472 0 -347 3 -466 12 -475 15 -15 275
-17 298 -2 22 14 25 924 3 946 -17 17 -267 20 -295 3z m252 -469 l0 -430 -110
0 -110 0 0 430 0 430 110 0 110 0 0 -430z"/>
<path d="M7 683 c-4 -3 -7 -154 -7 -334 0 -314 1 -329 19 -339 28 -15 274 -13
289 2 17 17 17 649 0 666 -13 13 -289 18 -301 5z m263 -333 l0 -290 -110 0
-110 0 0 290 0 290 110 0 110 0 0 -290z"/>
</g>
</svg>
