<?xml version="1.0" standalone="no"?>
<!DOCTYPE svg PUBLIC "-//W3C//DTD SVG 20010904//EN"
 "http://www.w3.org/TR/2001/REC-SVG-20010904/DTD/svg10.dtd">
<svg version="1.0" xmlns="http://www.w3.org/2000/svg"
 width="180.000000pt" height="184.000000pt" viewBox="0 0 180.000000 184.000000"
 preserveAspectRatio="xMidYMid meet">
<metadata>
Created by potrace 1.16, written by Peter Selinger 2001-2019
</metadata>
<g transform="translate(0.000000,184.000000) scale(0.100000,-0.100000)"
fill="#000000" stroke="none">
<path d="M440 1398 c-239 -242 -436 -449 -438 -459 -6 -34 30 -21 80 28 l48
47 0 -490 c0 -463 1 -492 18 -507 17 -16 84 -17 754 -17 699 0 736 1 751 18
15 17 17 67 17 507 l0 489 49 -48 c48 -47 81 -57 81 -24 0 23 -883 898 -905
897 -13 0 -181 -163 -455 -441z m829 25 l361 -367 -2 -506 -3 -505 -232 -3
-233 -2 0 374 0 375 -22 15 c-33 24 -459 24 -482 0 -14 -13 -16 -63 -16 -390
l0 -374 -229 0 c-199 0 -230 2 -235 16 -3 9 -6 239 -6 511 l0 496 362 364
c199 200 365 363 369 363 4 0 169 -165 368 -367z m-162 -657 c1 -1 3 -164 3
-362 l1 -359 -216 -3 -215 -2 0 363 c0 200 2 366 4 368 4 4 419 0 423 -5z"/>
</g>
</svg>
