<?xml version="1.0" standalone="no"?>
<!DOCTYPE svg PUBLIC "-//W3C//DTD SVG 20010904//EN"
 "http://www.w3.org/TR/2001/REC-SVG-20010904/DTD/svg10.dtd">
<svg version="1.0" xmlns="http://www.w3.org/2000/svg"
 width="189.000000pt" height="187.000000pt" viewBox="0 0 189.000000 187.000000"
 preserveAspectRatio="xMidYMid meet">
<metadata>
Created by potrace 1.16, written by Peter Selinger 2001-2019
</metadata>
<g transform="translate(0.000000,187.000000) scale(0.100000,-0.100000)"
fill="#000000" stroke="none">
<path d="M467 1396 c-461 -468 -494 -506 -438 -506 10 0 219 205 471 461 l453
460 450 -456 c283 -287 456 -455 466 -453 50 10 21 43 -440 504 -255 255 -471
464 -480 464 -8 0 -225 -213 -482 -474z"/>
<path d="M1683 998 c-4 -7 -8 -222 -8 -478 l0 -465 -237 -3 -238 -2 0 317 c0
175 -4 324 -8 331 -7 9 -62 12 -243 10 l-234 -3 -3 -327 -2 -328 -240 0 -240
0 0 464 c0 424 -1 464 -17 470 -9 4 -20 3 -25 -2 -4 -4 -7 -226 -6 -493 l3
-484 759 -3 c552 -1 763 1 772 9 19 16 21 968 2 987 -15 15 -25 15 -35 0z
m-543 -643 l0 -305 -190 0 -190 0 0 305 0 305 190 0 190 0 0 -305z"/>
</g>
</svg>
