<?xml version="1.0" standalone="no"?>
<!DOCTYPE svg PUBLIC "-//W3C//DTD SVG 20010904//EN"
 "http://www.w3.org/TR/2001/REC-SVG-20010904/DTD/svg10.dtd">
<svg version="1.0" xmlns="http://www.w3.org/2000/svg"
 width="204.000000pt" height="208.000000pt" viewBox="0 0 204.000000 208.000000"
 preserveAspectRatio="xMidYMid meet">
<metadata>
Created by potrace 1.16, written by Peter Selinger 2001-2019
</metadata>
<g transform="translate(0.000000,208.000000) scale(0.100000,-0.100000)"
fill="#000000" stroke="none">
<path d="M843 2066 c-205 -39 -382 -134 -534 -285 -133 -133 -224 -295 -277
-490 -22 -84 -25 -116 -25 -256 0 -140 4 -172 27 -260 27 -105 93 -253 148
-333 97 -142 287 -296 442 -361 150 -62 214 -75 396 -75 142 -1 177 2 255 22
292 76 526 264 659 529 73 144 106 289 106 466 0 486 -315 903 -775 1027 -103
28 -317 36 -422 16z m317 -56 c377 -59 684 -345 792 -738 29 -106 32 -384 4
-482 -54 -196 -143 -348 -274 -471 -137 -128 -323 -220 -505 -249 -104 -17
-289 -8 -392 19 -336 88 -601 356 -692 698 -23 85 -26 118 -26 248 0 129 4
163 25 245 49 183 141 342 270 466 144 139 314 228 503 263 69 12 217 13 295
1z"/>
<path d="M654 1456 c-47 -21 -74 -61 -74 -113 0 -82 48 -133 125 -133 26 0 45
9 71 33 31 28 37 41 41 83 5 61 -21 108 -72 130 -42 17 -51 17 -91 0z m85 -72
c27 -34 27 -64 1 -92 -40 -43 -100 -16 -100 45 0 37 29 73 59 73 11 0 29 -12
40 -26z"/>
<path d="M1275 1428 c-29 -27 -38 -43 -42 -79 -13 -110 91 -185 177 -127 98
67 64 222 -52 235 -42 5 -49 2 -83 -29z m109 -44 c27 -27 31 -63 9 -92 -26
-35 -56 -39 -82 -11 -55 59 17 160 73 103z"/>
<path d="M487 883 c-15 -14 -6 -58 25 -122 60 -126 200 -238 357 -285 88 -26
252 -22 350 9 93 30 185 88 241 153 85 100 132 233 84 240 -16 2 -26 -11 -54
-75 -80 -182 -250 -286 -465 -285 -215 1 -409 129 -476 312 -20 57 -41 74 -62
53z"/>
</g>
</svg>
