<?xml version="1.0" standalone="yes"?>
<svg xmlns="http://www.w3.org/2000/svg" width="1004" height="1024">
<path style="stroke:#000000; fill:none;" d="M488 16.4637C540.188 11.8969 595.509 23.2077 645 38.2793C697.454 54.253 746.642 80.8549 790 114.349C881.346 184.915 951.697 289.251 976.332 403C985.888 447.127 988.114 493.116 987.015 538C986.129 574.158 983.965 610.722 975.105 646C955.8 722.862 914.783 795.473 861.83 854C827.645 891.783 786.373 923.092 742 947.86C689.219 977.322 629.548 1000.07 569 1005.83C483.777 1013.94 395.13 1006.09 316 972.127C261.057 948.549 210.218 914.286 167 872.961C95.6797 804.763 43.0056 711.535 24.6111 614C18.187 579.937 18 545.56 18 511C18 474.626 18.8171 438.57 27.2361 403C58.3874 271.387 141.205 154.446 257 84.0031C305.102 54.7407 360.23 31.7912 416 22.4352C440.043 18.4017 463.863 18.576 488 16.4637M343 317.714C399.728 316.558 401.56 412.899 344 412.921C286.985 412.943 286.88 318.859 343 317.714M657 321.504C692.589 316.657 712.702 355.756 703.377 386C698.016 403.388 682.454 414.485 665 416.557C612.153 422.83 606.235 328.418 657 321.504M248 602C260.252 636.251 277.077 670.137 302.09 697C394.379 796.116 556.186 813.21 667 735.279C713.373 702.667 734.758 658.511 758 609"/>
</svg>
