<?xml version="1.0" standalone="no"?>
<!DOCTYPE svg PUBLIC "-//W3C//DTD SVG 20010904//EN"
 "http://www.w3.org/TR/2001/REC-SVG-20010904/DTD/svg10.dtd">
<svg version="1.0" xmlns="http://www.w3.org/2000/svg"
 width="188.000000pt" height="196.000000pt" viewBox="0 0 188.000000 196.000000"
 preserveAspectRatio="xMidYMid meet">
<metadata>
Created by potrace 1.16, written by Peter Selinger 2001-2019
</metadata>
<g transform="translate(0.000000,196.000000) scale(0.100000,-0.100000)"
fill="#000000" stroke="none">
<path d="M356 1938 c-11 -15 -16 -46 -16 -95 l0 -73 -121 0 c-141 0 -168 -10
-199 -76 -20 -40 -20 -58 -18 -815 3 -753 4 -775 23 -808 11 -18 36 -42 55
-52 33 -18 74 -19 860 -19 920 0 869 -4 917 69 l23 34 -2 798 -3 797 -25 27
c-41 45 -79 55 -200 55 l-110 0 0 71 c0 89 -10 109 -55 109 -49 0 -65 -28 -65
-112 l0 -67 -162 -3 c-90 -2 -305 -4 -478 -3 l-315 0 -5 80 c-3 44 -9 86 -13
93 -14 21 -74 15 -91 -10z m62 -189 c-3 -138 -5 -164 -18 -164 -13 0 -15 26
-18 159 -2 111 1 163 9 173 24 28 29 -6 27 -168z m1080 0 c-3 -138 -5 -164
-18 -164 -13 0 -15 26 -18 164 -2 124 1 166 10 172 7 5 16 5 21 0 4 -4 6 -81
5 -172z m-78 -88 c0 -70 3 -83 22 -101 28 -25 52 -26 78 0 17 17 20 33 20 100
l0 80 110 0 c178 0 190 -13 190 -210 l0 -130 -687 0 c-379 -1 -782 -1 -898 -1
l-210 0 -3 123 c-4 195 6 208 180 208 l118 0 0 -75 c0 -82 18 -115 62 -115 44
0 58 27 58 111 l0 78 138 3 c75 2 291 4 480 6 l342 3 0 -80z m420 -926 l0
-625 -29 -32 -29 -33 -826 -3 c-738 -2 -830 -1 -857 13 -60 31 -59 25 -59 695
l0 610 900 0 900 0 0 -625z"/>
<path d="M310 985 c0 -24 1 -25 75 -25 l75 0 0 -250 0 -250 30 0 30 0 0 250 0
249 78 3 c69 3 77 5 77 23 0 19 -8 20 -182 23 l-183 2 0 -25z"/>
<path d="M754 995 c-4 -8 -4 -104 -2 -212 3 -186 5 -201 27 -239 66 -116 256
-118 320 -4 20 35 21 52 21 255 l0 216 -22 -3 c-23 -3 -23 -5 -28 -213 -3
-144 -9 -217 -18 -232 -18 -32 -64 -53 -117 -53 -38 0 -52 6 -83 34 l-37 34
-3 216 -3 216 -25 0 c-13 0 -27 -7 -30 -15z"/>
<path d="M1244 997 c-2 -7 -3 -129 -2 -272 l3 -260 153 -3 152 -3 0 26 0 25
-125 0 -125 0 0 105 0 105 93 0 c93 0 121 9 110 36 -4 11 -29 14 -104 14
l-100 0 3 91 3 91 115 1 115 2 3 27 3 27 -146 0 c-105 0 -147 -3 -151 -12z"/>
</g>
</svg>
