<?xml version="1.0" standalone="no"?>
<!DOCTYPE svg PUBLIC "-//W3C//DTD SVG 20010904//EN"
 "http://www.w3.org/TR/2001/REC-SVG-20010904/DTD/svg10.dtd">
<svg version="1.0" xmlns="http://www.w3.org/2000/svg"
 width="139.000000pt" height="150.000000pt" viewBox="0 0 139.000000 150.000000"
 preserveAspectRatio="xMidYMid meet">
<metadata>
Created by potrace 1.16, written by Peter Selinger 2001-2019
</metadata>
<g transform="translate(0.000000,150.000000) scale(0.100000,-0.100000)"
fill="#000000" stroke="none">
<path d="M19 1483 c-23 -27 -19 -687 4 -813 65 -349 221 -556 487 -646 43 -15
84 -19 185 -19 138 0 184 10 291 62 210 103 352 347 394 675 13 110 13 713 0
739 -15 27 -55 24 -141 -12 -180 -74 -379 -105 -614 -96 -178 7 -307 32 -454
88 -117 44 -133 46 -152 22z m226 -106 c146 -46 275 -60 499 -54 226 5 337 25
498 90 48 19 90 32 93 29 10 -10 5 -552 -6 -650 -37 -342 -154 -562 -357 -670
-288 -154 -639 -46 -789 243 -108 208 -143 451 -128 880 l7 203 52 -23 c28
-12 87 -34 131 -48z"/>
<path d="M325 1056 c-38 -16 -85 -71 -85 -98 0 -61 94 -128 179 -128 122 1
208 97 157 175 -37 57 -175 84 -251 51z m159 -51 c61 -12 73 -65 24 -95 -71
-43 -208 -14 -208 45 0 27 25 45 80 55 34 7 51 6 104 -5z"/>
<path d="M883 1058 c-17 -6 -43 -22 -57 -37 -73 -76 -15 -173 112 -188 100
-11 202 48 202 119 0 43 -31 85 -76 104 -38 16 -134 17 -181 2z m183 -71 c33
-29 28 -49 -18 -77 -84 -51 -232 1 -190 67 13 20 54 32 119 32 51 1 67 -3 89
-22z"/>
<path d="M372 568 c-40 -40 45 -201 142 -267 59 -41 147 -65 210 -57 70 8 168
58 212 109 41 47 94 151 94 184 0 41 -34 47 -103 20 -152 -60 -312 -63 -452
-8 -92 36 -87 35 -103 19z m138 -91 c45 -17 79 -20 180 -21 124 0 145 4 264
50 32 12 -30 -91 -82 -136 -131 -116 -305 -87 -414 70 -42 59 -47 76 -20 65 9
-4 42 -16 72 -28z"/>
</g>
</svg>
