<?xml version="1.0" standalone="no"?>
<!DOCTYPE svg PUBLIC "-//W3C//DTD SVG 20010904//EN"
 "http://www.w3.org/TR/2001/REC-SVG-20010904/DTD/svg10.dtd">
<svg version="1.0" xmlns="http://www.w3.org/2000/svg"
 width="228.000000pt" height="145.000000pt" viewBox="0 0 228.000000 145.000000"
 preserveAspectRatio="xMidYMid meet">
<metadata>
Created by potrace 1.16, written by Peter Selinger 2001-2019
</metadata>
<g transform="translate(0.000000,145.000000) scale(0.100000,-0.100000)"
fill="#000000" stroke="none">
<path d="M91 1433 c-18 -9 -45 -34 -60 -56 l-26 -41 -3 -585 c-2 -398 0 -598
8 -623 14 -48 55 -97 97 -114 27 -12 211 -14 1034 -14 l1002 0 41 24 c24 14
52 42 66 68 l25 43 0 585 c0 322 -3 597 -7 612 -11 38 -57 88 -95 104 -27 12
-211 14 -1040 14 -916 0 -1011 -2 -1042 -17z m2062 -55 c14 -11 -43 -59 -434
-363 -247 -192 -468 -360 -491 -372 -54 -30 -120 -30 -175 0 -23 12 -236 173
-474 357 -533 414 -477 367 -459 380 24 16 2011 14 2033 -2z m58 -648 c0 -325
-3 -586 -8 -591 -9 -9 -753 565 -753 579 1 4 136 113 302 242 166 129 335 263
377 296 42 34 77 60 79 59 1 -1 3 -264 3 -585z m-1751 282 c201 -157 366 -288
367 -291 3 -10 -748 -593 -755 -586 -8 8 -15 1143 -7 1163 3 8 10 10 17 6 7
-5 177 -136 378 -292z m519 -397 c67 -45 79 -50 141 -53 85 -5 123 7 201 64
33 25 67 43 74 40 7 -2 159 -118 337 -257 177 -139 347 -271 375 -293 43 -33
49 -42 35 -48 -25 -10 -1995 -9 -2010 1 -10 6 98 95 370 309 210 165 388 297
393 294 6 -4 43 -29 84 -57z"/>
</g>
</svg>
