<?xml version="1.0" standalone="no"?>
<!DOCTYPE svg PUBLIC "-//W3C//DTD SVG 20010904//EN"
 "http://www.w3.org/TR/2001/REC-SVG-20010904/DTD/svg10.dtd">
<svg version="1.0" xmlns="http://www.w3.org/2000/svg"
 width="217.000000pt" height="200.000000pt" viewBox="0 0 217.000000 200.000000"
 preserveAspectRatio="xMidYMid meet">
<metadata>
Created by potrace 1.16, written by Peter Selinger 2001-2019
</metadata>
<g transform="translate(0.000000,200.000000) scale(0.100000,-0.100000)"
fill="#000000" stroke="none">
<path d="M381 1984 c-132 -35 -264 -141 -321 -257 -57 -118 -62 -165 -58 -642
l4 -430 25 -67 c55 -142 138 -234 270 -296 l78 -37 1 -106 c0 -97 2 -107 23
-127 28 -26 64 -28 97 -5 22 15 187 153 248 207 23 21 35 21 520 26 481 6 499
7 564 28 137 46 256 157 310 289 23 58 23 62 26 523 3 331 0 481 -8 520 -38
174 -197 335 -370 374 -99 23 -1326 23 -1409 0z m1398 -39 c166 -39 300 -174
342 -345 11 -42 14 -153 14 -485 0 -385 -2 -436 -19 -490 -44 -149 -141 -251
-292 -307 -57 -21 -75 -22 -560 -28 l-502 -5 -43 -35 c-24 -19 -91 -74 -147
-123 -73 -62 -110 -87 -125 -85 -21 3 -22 9 -25 125 l-3 122 -49 16 c-116 39
-230 141 -281 252 -46 99 -51 162 -47 614 4 398 5 416 26 473 44 119 116 202
222 260 100 54 96 54 785 55 538 1 650 -2 704 -14z"/>
<path d="M447 1406 c-3 -8 -3 -17 0 -20 4 -3 294 -6 645 -6 604 0 639 1 636
18 -3 16 -43 17 -640 20 -539 2 -637 0 -641 -12z"/>
<path d="M450 1045 c-10 -12 -10 -16 1 -20 8 -3 232 -4 499 -3 423 3 485 5
485 18 0 13 -62 15 -486 18 -422 2 -488 0 -499 -13z"/>
<path d="M446 742 c-18 -30 13 -32 355 -30 318 3 344 4 347 21 3 16 -19 17
-347 17 -192 0 -352 -4 -355 -8z"/>
</g>
</svg>
