<?xml version="1.0" standalone="no"?>
<!DOCTYPE svg PUBLIC "-//W3C//DTD SVG 20010904//EN"
 "http://www.w3.org/TR/2001/REC-SVG-20010904/DTD/svg10.dtd">
<svg version="1.0" xmlns="http://www.w3.org/2000/svg"
 width="163.000000pt" height="220.000000pt" viewBox="0 0 163.000000 220.000000"
 preserveAspectRatio="xMidYMid meet">
<metadata>
Created by potrace 1.16, written by Peter Selinger 2001-2019
</metadata>
<g transform="translate(0.000000,220.000000) scale(0.100000,-0.100000)"
fill="#000000" stroke="none">
<path d="M883 2186 c-72 -23 -125 -68 -165 -141 -34 -60 -32 -172 4 -240 51
-98 129 -145 238 -145 106 0 194 53 243 145 33 62 31 183 -4 250 -32 61 -92
109 -161 130 -61 18 -99 18 -155 1z m166 -80 c73 -38 119 -128 107 -209 -19
-128 -161 -203 -282 -148 -61 28 -114 110 -114 175 0 70 49 148 112 179 41 21
140 22 177 3z"/>
<path d="M525 1611 c-56 -10 -117 -26 -138 -36 -44 -20 -272 -272 -294 -324
-32 -76 27 -171 107 -171 60 0 79 14 180 126 91 102 94 104 137 104 24 0 42
-3 40 -8 -5 -7 -45 -176 -127 -542 -32 -142 -47 -189 -63 -203 -12 -10 -85
-55 -164 -99 -79 -44 -154 -93 -168 -109 -77 -92 -16 -229 103 -229 39 0 73
15 231 102 102 56 200 112 217 125 64 47 82 86 134 281 l11 43 97 -92 97 -91
66 -193 c36 -105 75 -208 87 -227 41 -66 133 -88 200 -46 37 22 71 85 72 129
0 36 -126 405 -156 456 -13 23 -63 77 -111 120 -48 43 -102 92 -120 108 l-33
30 25 110 c14 61 27 121 30 133 6 23 7 23 51 -18 81 -74 115 -84 312 -88 189
-4 219 1 251 47 46 64 31 153 -31 191 -28 17 -52 20 -153 21 -66 1 -133 4
-150 8 -23 5 -52 34 -122 121 -119 148 -171 195 -236 216 -80 24 -262 27 -382
5z m341 -71 c68 -15 86 -32 205 -178 60 -74 119 -142 131 -151 17 -11 59 -17
169 -21 159 -5 179 -12 179 -60 0 -49 -14 -52 -202 -48 l-174 3 -49 32 c-28
18 -70 52 -95 77 -54 56 -84 60 -99 14 -5 -18 -26 -107 -46 -197 l-37 -163 29
-30 c15 -16 72 -69 127 -116 54 -48 109 -105 122 -127 32 -56 144 -387 144
-428 0 -62 -77 -95 -120 -51 -10 10 -51 112 -91 227 l-72 207 -139 132 c-113
107 -143 130 -156 122 -10 -7 -28 -61 -48 -147 -37 -150 -49 -179 -91 -218
-33 -31 -391 -229 -413 -229 -56 0 -81 78 -37 117 12 11 87 59 167 106 80 47
155 96 167 109 17 18 39 101 104 383 103 453 103 453 88 471 -16 19 -140 19
-178 0 -15 -8 -71 -62 -125 -120 -54 -58 -105 -106 -114 -106 -24 0 -52 30
-52 56 0 15 37 65 104 141 122 140 155 170 199 178 192 36 292 40 403 15z"/>
</g>
</svg>
