<?xml version="1.0" standalone="no"?>
<!DOCTYPE svg PUBLIC "-//W3C//DTD SVG 20010904//EN"
 "http://www.w3.org/TR/2001/REC-SVG-20010904/DTD/svg10.dtd">
<svg version="1.0" xmlns="http://www.w3.org/2000/svg"
 width="121.000000pt" height="180.000000pt" viewBox="0 0 121.000000 180.000000"
 preserveAspectRatio="xMidYMid meet">
<metadata>
Created by potrace 1.16, written by Peter Selinger 2001-2019
</metadata>
<g transform="translate(0.000000,180.000000) scale(0.100000,-0.100000)"
fill="#000000" stroke="none">
<path d="M456 1784 c-153 -37 -317 -169 -389 -314 -54 -109 -70 -185 -65 -300
8 -152 62 -279 169 -394 l38 -42 -88 -292 c-69 -227 -86 -295 -77 -307 10 -13
23 -11 114 14 l104 29 65 -89 c36 -49 69 -89 73 -89 16 0 30 36 110 290 46
146 86 268 90 273 3 4 44 -98 89 -225 119 -332 121 -338 134 -338 7 0 40 40
75 89 l63 88 102 -28 c86 -24 104 -27 115 -15 12 12 0 57 -77 298 -50 157 -91
289 -91 295 0 5 12 20 26 34 46 43 114 156 140 231 74 220 16 468 -150 633
-81 80 -178 136 -277 160 -79 18 -215 18 -293 -1z m266 -35 c77 -16 187 -72
250 -129 74 -66 125 -146 161 -250 83 -239 -5 -507 -210 -643 -104 -69 -177
-91 -303 -91 -207 0 -363 79 -474 241 -158 232 -131 520 68 718 138 136 322
192 508 154z m-408 -1084 c35 -20 105 -46 154 -58 l90 -22 -77 -240 c-43 -132
-79 -246 -82 -254 -3 -8 -26 14 -59 58 -35 46 -61 71 -74 71 -11 0 -53 -9 -94
-21 -40 -11 -76 -19 -78 -16 -4 3 148 517 153 517 1 0 31 -16 67 -35z m741
-233 c43 -134 76 -245 73 -247 -2 -2 -40 5 -84 17 -45 12 -88 18 -98 15 -9 -4
-37 -36 -63 -71 -26 -36 -50 -62 -54 -58 -6 7 -179 485 -179 495 0 2 21 7 48
11 65 9 157 41 217 75 34 20 52 25 56 17 4 -6 41 -120 84 -254z"/>
<path d="M583 1578 c-5 -7 -29 -58 -53 -113 -24 -55 -47 -104 -51 -109 -4 -4
-57 -16 -118 -26 -60 -10 -115 -21 -120 -25 -22 -13 -10 -34 69 -123 l80 -90
-18 -117 c-26 -159 -26 -159 122 -93 l114 50 103 -46 c101 -46 133 -54 143
-38 3 5 -3 62 -13 127 l-18 118 76 84 c42 47 79 90 83 97 14 26 -13 38 -128
57 -65 10 -121 24 -123 30 -2 6 -27 60 -57 120 -51 105 -70 125 -91 97z m71
-158 c21 -47 46 -92 56 -101 11 -10 57 -22 114 -29 53 -8 96 -16 96 -19 0 -3
-32 -41 -70 -84 -39 -43 -70 -85 -70 -95 0 -9 7 -57 14 -107 8 -49 13 -91 12
-91 0 -1 -45 19 -99 43 l-98 44 -101 -45 c-56 -25 -103 -45 -104 -43 -1 1 4
36 11 77 24 132 23 135 -56 225 l-70 79 93 13 c51 7 102 17 113 22 14 6 36 45
65 110 24 56 46 98 50 94 4 -4 23 -46 44 -93z"/>
</g>
</svg>
