<?xml version="1.0" standalone="no"?>
<!DOCTYPE svg PUBLIC "-//W3C//DTD SVG 20010904//EN"
 "http://www.w3.org/TR/2001/REC-SVG-20010904/DTD/svg10.dtd">
<svg version="1.0" xmlns="http://www.w3.org/2000/svg"
 width="203.000000pt" height="133.000000pt" viewBox="0 0 203.000000 133.000000"
 preserveAspectRatio="xMidYMid meet">
<metadata>
Created by potrace 1.16, written by Peter Selinger 2001-2019
</metadata>
<g transform="translate(0.000000,133.000000) scale(0.100000,-0.100000)"
fill="#000000" stroke="none">
<path d="M113 1306 c-36 -17 -60 -38 -80 -67 l-28 -43 -3 -518 c-2 -495 -2
-519 17 -555 10 -21 32 -50 48 -65 63 -60 24 -58 945 -58 794 0 845 1 883 19
53 24 111 90 125 140 7 28 10 199 8 529 l-3 489 -30 49 c-20 31 -47 58 -75 74
l-45 25 -855 3 -855 2 -52 -24z m1782 -65 c16 -9 38 -32 50 -51 19 -34 20 -50
20 -525 0 -486 0 -490 -22 -525 -12 -19 -37 -44 -55 -55 -32 -20 -51 -20 -880
-20 -843 0 -847 0 -875 21 -15 11 -38 36 -51 54 l-22 33 0 489 c0 522 1 529
50 573 22 20 40 20 864 25 462 3 852 3 866 1 14 -2 38 -11 55 -20z"/>
<path d="M324 845 c-4 -8 -1 -22 6 -30 19 -23 1331 -23 1350 0 7 8 10 22 6 30
-5 13 -87 15 -681 15 -594 0 -676 -2 -681 -15z"/>
<path d="M493 523 c-17 -6 -17 -40 -1 -49 7 -5 238 -9 514 -11 417 -2 505 0
520 12 15 11 17 17 8 32 -11 17 -41 18 -520 20 -280 1 -515 -1 -521 -4z"/>
</g>
</svg>
