<?xml version="1.0" standalone="no"?>
<!DOCTYPE svg PUBLIC "-//W3C//DTD SVG 20010904//EN"
 "http://www.w3.org/TR/2001/REC-SVG-20010904/DTD/svg10.dtd">
<svg version="1.0" xmlns="http://www.w3.org/2000/svg"
 width="166.000000pt" height="212.000000pt" viewBox="0 0 166.000000 212.000000"
 preserveAspectRatio="xMidYMid meet">
<metadata>
Created by potrace 1.16, written by Peter Selinger 2001-2019
</metadata>
<g transform="translate(0.000000,212.000000) scale(0.100000,-0.100000)"
fill="#000000" stroke="none">
<path d="M980 2101 c-95 -31 -163 -72 -231 -140 -172 -173 -207 -441 -85 -644
32 -53 56 -71 56 -42 0 10 -16 49 -35 89 -19 39 -40 98 -46 131 -20 109 6 249
65 349 40 68 137 153 222 193 67 32 87 37 174 41 120 6 206 -17 299 -79 213
-142 281 -411 163 -644 -75 -148 -287 -276 -438 -263 l-40 3 29 93 c16 52 34
95 41 96 133 35 197 80 243 170 22 42 27 65 27 131 1 68 -3 89 -27 137 -110
225 -436 220 -548 -8 -19 -39 -24 -65 -24 -129 0 -71 4 -86 32 -138 l31 -58
-45 -110 c-37 -88 -49 -108 -62 -103 -9 4 -37 9 -63 12 -38 3 -57 -1 -92 -22
l-45 -26 -28 26 c-24 22 -35 25 -72 21 -23 -3 -55 -14 -70 -25 -24 -17 -30
-18 -52 -6 -41 22 -92 17 -135 -14 -66 -48 -121 -172 -184 -418 -48 -183 -54
-489 -10 -489 13 0 14 21 11 140 -4 159 9 242 64 436 62 215 125 319 194 319
15 0 36 -6 46 -14 18 -13 17 -17 -20 -105 -29 -70 -35 -95 -27 -103 17 -17 26
-5 67 97 42 104 67 133 117 141 31 5 38 3 53 -20 16 -25 16 -29 -14 -111 -35
-98 -38 -118 -14 -113 10 2 28 35 49 92 46 124 87 161 170 154 53 -4 54 -22 6
-151 -23 -64 -36 -111 -31 -119 14 -22 34 10 74 117 163 442 250 595 339 595
41 0 60 -21 59 -65 -1 -18 -73 -251 -162 -518 -89 -267 -161 -490 -161 -496 0
-32 50 1 163 108 132 126 184 161 241 161 46 0 80 -41 72 -85 -9 -42 -38 -81
-188 -243 -153 -166 -258 -254 -416 -349 -63 -37 -116 -71 -119 -76 -3 -5 -1
-13 5 -19 17 -17 169 71 307 178 109 85 369 353 419 433 64 101 25 201 -79
201 -68 0 -137 -41 -244 -145 l-100 -97 14 44 c8 24 42 129 78 233 l64 190 84
6 c459 36 674 573 362 901 -72 74 -135 114 -228 144 -94 30 -222 32 -305 5z
m226 -266 c61 -18 116 -62 152 -123 23 -40 27 -58 27 -122 -1 -88 -21 -136
-83 -192 -47 -43 -66 -53 -109 -62 l-31 -7 24 76 c32 102 32 164 -1 198 -28
27 -61 37 -102 29 -35 -7 -111 -84 -143 -144 -14 -27 -28 -48 -31 -48 -12 0
-41 78 -46 126 -10 90 38 189 114 235 80 50 145 59 229 34z"/>
</g>
</svg>
