<?xml version="1.0" standalone="no"?>
<!DOCTYPE svg PUBLIC "-//W3C//DTD SVG 20010904//EN"
 "http://www.w3.org/TR/2001/REC-SVG-20010904/DTD/svg10.dtd">
<svg version="1.0" xmlns="http://www.w3.org/2000/svg"
 width="154.000000pt" height="182.000000pt" viewBox="0 0 154.000000 182.000000"
 preserveAspectRatio="xMidYMid meet">
<metadata>
Created by potrace 1.16, written by Peter Selinger 2001-2019
</metadata>
<g transform="translate(0.000000,182.000000) scale(0.100000,-0.100000)"
fill="#000000" stroke="none">
<path d="M685 1814 c-127 -27 -209 -69 -286 -146 -71 -70 -115 -158 -130 -262
-8 -55 -15 -76 -26 -76 -8 0 -30 -15 -49 -34 l-34 -34 0 -114 c0 -125 7 -146
60 -173 16 -8 53 -15 82 -15 l53 -1 38 -79 c26 -55 55 -97 92 -134 50 -49 55
-58 55 -97 l0 -44 -82 -29 c-329 -116 -457 -258 -458 -504 0 -65 2 -73 18 -70
14 3 18 19 23 95 11 149 67 249 182 321 102 64 314 152 326 134 3 -5 53 -66
110 -135 85 -102 107 -124 119 -115 11 9 75 88 208 257 6 7 226 -80 280 -110
148 -83 234 -232 234 -406 0 -37 3 -44 18 -41 44 8 16 203 -44 304 -69 117
-160 181 -372 259 l-117 43 0 43 c0 38 5 47 61 103 41 41 72 85 95 133 l34 71
63 4 c54 3 67 8 95 36 31 32 32 34 35 135 3 118 -12 162 -65 187 -28 14 -32
20 -38 77 -15 139 -129 295 -265 361 -97 48 -235 72 -315 56z m230 -66 c166
-54 295 -206 306 -362 4 -47 3 -49 -23 -52 -23 -2 -29 2 -34 24 -23 92 -124
216 -213 261 -229 116 -487 10 -578 -235 -14 -37 -24 -50 -42 -52 -23 -4 -24
-3 -19 61 22 271 321 447 603 355z m-81 -133 c120 -25 214 -105 273 -231 27
-57 28 -64 28 -234 0 -163 -2 -179 -24 -228 -16 -36 -33 -57 -50 -64 -14 -6
-85 -12 -157 -15 -124 -5 -133 -5 -161 17 -49 36 -103 7 -103 -55 0 -43 22
-65 66 -65 28 0 38 6 52 30 l17 30 101 0 c56 0 117 3 135 6 l34 7 -30 -32
c-16 -18 -59 -46 -95 -64 -60 -30 -72 -32 -165 -32 -89 0 -105 3 -151 27 -70
37 -157 133 -185 205 -32 82 -40 324 -14 420 39 145 144 248 285 279 71 16 64
16 144 -1z m-503 -325 c18 0 19 -9 19 -145 l0 -145 -50 0 c-41 0 -56 5 -76 25
-25 25 -26 30 -22 124 2 79 7 103 22 119 18 21 50 32 74 26 8 -2 22 -4 33 -4z
m974 -21 c15 -15 20 -36 23 -95 6 -102 -9 -149 -50 -163 -17 -6 -46 -11 -64
-11 l-34 0 0 149 0 148 53 -5 c32 -2 59 -11 72 -23z m-580 -464 c0 -30 -39
-27 -43 3 -3 20 0 23 20 20 15 -2 23 -10 23 -23z m215 -183 c0 -57 0 -58 -86
-164 l-86 -107 -89 109 c-85 105 -89 111 -89 159 l0 49 48 -15 c90 -27 191
-19 300 26 1 1 2 -25 2 -57z"/>
</g>
</svg>
