<?xml version="1.0" standalone="no"?>
<!DOCTYPE svg PUBLIC "-//W3C//DTD SVG 20010904//EN"
 "http://www.w3.org/TR/2001/REC-SVG-20010904/DTD/svg10.dtd">
<svg version="1.0" xmlns="http://www.w3.org/2000/svg"
 width="162.000000pt" height="205.000000pt" viewBox="0 0 162.000000 205.000000"
 preserveAspectRatio="xMidYMid meet">
<metadata>
Created by potrace 1.16, written by Peter Selinger 2001-2019
</metadata>
<g transform="translate(0.000000,205.000000) scale(0.100000,-0.100000)"
fill="#000000" stroke="none">
<path d="M505 2025 c-36 -35 -34 -85 5 -128 l30 -35 0 -239 c0 -175 -4 -252
-14 -284 -7 -24 -128 -276 -267 -559 l-254 -514 0 -66 c0 -56 4 -73 28 -108
15 -23 46 -52 70 -64 l42 -23 643 -3 c434 -2 656 1 683 8 46 13 103 60 126
104 10 18 16 55 16 89 0 57 -9 77 -264 589 l-264 529 -3 275 -3 275 31 29 c37
34 41 84 9 124 l-20 26 -285 0 -285 0 -24 -25z m579 -31 c24 -23 19 -43 -14
-62 -17 -9 -33 -26 -36 -38 -3 -12 -4 -145 -2 -296 l3 -275 118 -237 c64 -131
117 -239 117 -241 0 -2 -24 -9 -52 -16 -92 -23 -197 -14 -373 31 -183 46 -303
59 -395 41 -34 -7 -68 -15 -76 -18 -8 -3 33 91 91 208 69 141 109 234 116 271
6 33 9 160 7 296 l-3 238 -35 31 c-31 28 -33 33 -22 57 l12 26 264 0 c227 0
267 -2 280 -16z m-268 -1175 c195 -50 303 -59 405 -35 39 10 72 16 74 14 2 -1
65 -127 140 -278 133 -267 137 -277 133 -328 -5 -61 -29 -99 -79 -124 -31 -17
-85 -18 -682 -18 -697 0 -675 -2 -724 52 -26 28 -44 92 -37 127 3 14 67 151
142 303 l136 277 45 20 c65 27 74 29 187 30 88 1 122 -4 260 -40z"/>
</g>
</svg>
