<?xml version="1.0" standalone="no"?>
<!DOCTYPE svg PUBLIC "-//W3C//DTD SVG 20010904//EN"
 "http://www.w3.org/TR/2001/REC-SVG-20010904/DTD/svg10.dtd">
<svg version="1.0" xmlns="http://www.w3.org/2000/svg"
 width="65.000000pt" height="189.000000pt" viewBox="0 0 65.000000 189.000000"
 preserveAspectRatio="xMidYMid meet">
<metadata>
Created by potrace 1.16, written by Peter Selinger 2001-2019
</metadata>
<g transform="translate(0.000000,189.000000) scale(0.100000,-0.100000)"
fill="#000000" stroke="none">
<path d="M233 1876 c-89 -29 -167 -99 -205 -184 -17 -36 -22 -68 -22 -137 -1
-83 2 -96 32 -157 57 -116 160 -182 287 -182 90 0 162 33 229 104 70 74 90
127 90 230 1 98 -25 168 -87 237 -75 82 -221 123 -324 89z m206 -70 c56 -29
106 -83 133 -144 26 -57 22 -177 -7 -237 -83 -170 -314 -207 -435 -69 -127
145 -85 369 85 453 60 30 161 28 224 -3z"/>
<path d="M230 1005 c-60 -19 -124 -75 -158 -139 l-27 -51 0 -405 c0 -398 0
-405 20 -405 20 0 20 8 25 395 l5 395 29 53 c101 182 369 149 425 -53 7 -26
11 -174 11 -418 l0 -378 23 3 22 3 0 405 0 405 -25 49 c-64 126 -209 184 -350
141z"/>
</g>
</svg>
