<?xml version="1.0" standalone="no"?>
<!DOCTYPE svg PUBLIC "-//W3C//DTD SVG 20010904//EN"
 "http://www.w3.org/TR/2001/REC-SVG-20010904/DTD/svg10.dtd">
<svg version="1.0" xmlns="http://www.w3.org/2000/svg"
 width="119.000000pt" height="197.000000pt" viewBox="0 0 119.000000 197.000000"
 preserveAspectRatio="xMidYMid meet">
<metadata>
Created by potrace 1.16, written by Peter Selinger 2001-2019
</metadata>
<g transform="translate(0.000000,197.000000) scale(0.100000,-0.100000)"
fill="#000000" stroke="none">
<path d="M123 1962 c-36 -3 -43 -7 -43 -25 -1 -91 -24 -653 -51 -1223 -18
-375 -29 -689 -26 -698 6 -14 32 -16 216 -16 167 0 212 3 224 14 15 15 19 42
102 691 29 226 54 403 57 395 3 -8 13 -78 22 -155 9 -77 38 -315 66 -530 40
-318 53 -392 67 -402 12 -10 72 -13 214 -13 162 0 199 3 209 15 12 15 4 275
-30 1010 -6 110 -14 364 -20 565 -8 267 -14 366 -23 372 -11 8 -897 8 -984 0z
m277 -116 l0 -65 -135 -3 -135 -3 0 68 0 67 135 0 135 0 0 -64z m350 -1 l0
-65 -150 0 -150 0 0 65 0 65 150 0 150 0 0 -65z m320 -6 c0 -69 -1 -71 -22
-65 -13 3 -74 6 -135 6 l-113 0 0 65 0 65 135 0 135 0 0 -71z m-770 -152 c0
-104 -76 -197 -160 -197 -19 0 -20 6 -20 98 0 145 -5 138 95 134 l85 -3 0 -32z
m275 -124 c0 -161 1 -168 20 -168 19 0 20 7 20 165 l0 165 116 0 117 0 4 -70
c8 -122 61 -192 169 -222 48 -13 59 -20 59 -37 0 -55 47 -1113 55 -1243 l6
-93 -175 0 c-97 0 -176 1 -176 3 0 1 -29 227 -64 502 -36 275 -68 534 -71 575
-8 82 -25 120 -55 120 -11 0 -26 -10 -34 -22 -8 -14 -30 -157 -55 -358 -23
-184 -56 -444 -73 -577 l-32 -243 -178 0 -179 0 6 83 c7 109 21 393 40 827 21
468 20 458 53 466 62 13 94 27 124 52 44 37 78 115 78 179 l0 52 113 4 c61 1
112 4 112 5 0 1 0 -73 0 -165z m499 40 c3 -64 4 -118 2 -121 -12 -12 -80 12
-110 38 -41 36 -53 67 -59 143 l-4 57 82 0 82 0 7 -117z"/>
</g>
</svg>
