<?xml version="1.0" standalone="no"?>
<!DOCTYPE svg PUBLIC "-//W3C//DTD SVG 20010904//EN"
 "http://www.w3.org/TR/2001/REC-SVG-20010904/DTD/svg10.dtd">
<svg version="1.0" xmlns="http://www.w3.org/2000/svg"
 width="184.000000pt" height="177.000000pt" viewBox="0 0 184.000000 177.000000"
 preserveAspectRatio="xMidYMid meet">
<metadata>
Created by potrace 1.16, written by Peter Selinger 2001-2019
</metadata>
<g transform="translate(0.000000,177.000000) scale(0.100000,-0.100000)"
fill="#000000" stroke="none">
<path d="M917 1764 c-4 -4 -7 -114 -7 -244 l0 -237 -270 -252 -270 -252 0
-369 0 -370 -183 -2 c-154 -3 -182 -5 -182 -18 0 -13 108 -15 915 -15 863 0
915 1 918 17 3 17 -11 18 -177 18 l-181 0 0 369 0 368 -202 194 c-112 107
-231 221 -265 253 l-63 59 0 59 0 58 138 1 c168 1 244 10 250 27 2 8 -21 38
-52 68 l-55 54 23 15 c33 22 80 91 73 109 -3 8 -24 17 -49 20 -38 5 -246 15
-305 16 -16 0 -22 7 -25 27 -3 26 -18 39 -31 27z m352 -111 c3 -2 -20 -28 -50
-59 l-54 -55 30 -22 c16 -12 41 -32 55 -44 l25 -22 -90 -1 c-49 -1 -123 -2
-163 -3 l-72 -2 0 112 0 111 158 -5 c86 -3 159 -7 161 -10z m-79 -657 l250
-238 0 -359 0 -359 -170 0 -170 0 -2 268 -3 267 -170 0 -170 0 -3 -267 -2
-268 -170 0 -170 0 0 359 0 359 258 241 c141 132 260 239 265 238 4 -1 120
-109 257 -241z m-130 -706 l0 -250 -135 0 -135 0 0 250 0 250 135 0 135 0 0
-250z"/>
</g>
</svg>
