<?xml version="1.0" standalone="no"?>
<!DOCTYPE svg PUBLIC "-//W3C//DTD SVG 20010904//EN"
 "http://www.w3.org/TR/2001/REC-SVG-20010904/DTD/svg10.dtd">
<svg version="1.0" xmlns="http://www.w3.org/2000/svg"
 width="343.000000pt" height="362.000000pt" viewBox="0 0 343.000000 362.000000"
 preserveAspectRatio="xMidYMid meet">
<metadata>
Created by potrace 1.16, written by Peter Selinger 2001-2019
</metadata>
<g transform="translate(0.000000,362.000000) scale(0.100000,-0.100000)"
fill="#000000" stroke="none">
<path d="M2380 3605 c-139 -31 -288 -132 -358 -243 -95 -147 -110 -327 -43
-497 37 -95 53 -122 117 -187 96 -99 226 -158 364 -165 249 -13 471 135 560
372 28 74 37 208 20 288 -29 143 -151 308 -276 374 -120 63 -264 85 -384 58z
m278 -77 c122 -45 216 -128 273 -240 103 -203 61 -422 -111 -582 -74 -68 -144
-103 -250 -123 -69 -14 -94 -15 -154 -5 -262 44 -454 298 -416 550 16 102 76
217 150 285 67 63 181 124 256 137 70 13 187 2 252 -22z"/>
<path d="M2085 2360 c-234 -50 -419 -209 -491 -420 -27 -80 -50 -236 -40 -275
4 -14 21 -34 39 -45 31 -19 54 -20 907 -20 702 1 878 3 892 14 44 33 46 119 7
265 -58 219 -215 388 -423 458 l-81 27 -385 2 c-212 2 -403 -1 -425 -6z m808
-75 c111 -23 206 -75 272 -147 121 -134 171 -243 182 -390 l6 -78 -861 0
c-729 0 -861 2 -865 14 -9 23 13 153 38 228 49 146 131 242 266 313 130 68
169 73 554 74 260 1 356 -3 408 -14z"/>
<path d="M333 3 c185 -2 489 -2 675 0 185 1 33 2 -338 2 -371 0 -523 -1 -337
-2z"/>
<path d="M2098 3 c7 -3 16 -2 19 1 4 3 -2 6 -13 5 -11 0 -14 -3 -6 -6z"/>
</g>
</svg>
