<?xml version="1.0" standalone="no"?>
<!DOCTYPE svg PUBLIC "-//W3C//DTD SVG 20010904//EN"
 "http://www.w3.org/TR/2001/REC-SVG-20010904/DTD/svg10.dtd">
<svg version="1.0" xmlns="http://www.w3.org/2000/svg"
 width="219.000000pt" height="200.000000pt" viewBox="0 0 219.000000 200.000000"
 preserveAspectRatio="xMidYMid meet">
<metadata>
Created by potrace 1.16, written by Peter Selinger 2001-2019
</metadata>
<g transform="translate(0.000000,200.000000) scale(0.100000,-0.100000)"
fill="#000000" stroke="none">
<path d="M845 1830 c-132 -93 -375 -266 -540 -383 -182 -129 -301 -220 -304
-232 -5 -27 26 -45 76 -45 l43 0 0 -573 c0 -432 3 -576 12 -585 9 -9 237 -12
963 -12 726 0 954 3 963 12 9 9 12 153 12 585 l0 573 48 0 c50 0 72 12 72 41
0 19 -153 132 -625 461 -137 96 -296 207 -353 246 -56 40 -108 75 -115 78 -7
2 -120 -72 -252 -166z m346 53 c52 -36 198 -138 324 -226 127 -88 319 -223
428 -301 l197 -141 -52 -5 -53 -5 -3 -582 -2 -583 -358 0 -357 0 2 169 c1 102
-2 182 -9 205 -15 49 -71 112 -122 138 -51 26 -146 29 -192 5 -45 -23 -101
-90 -113 -134 -6 -21 -11 -116 -11 -210 l0 -173 -355 0 -355 0 -2 583 -3 582
-54 5 -54 5 264 187 c145 103 378 268 518 368 140 99 258 180 261 180 3 0 49
-30 101 -67z m4 -1387 c71 -54 75 -69 75 -273 l0 -183 -180 0 -180 0 0 170 c0
210 12 249 95 302 46 29 141 21 190 -16z"/>
<path d="M377 989 c-15 -9 -17 -27 -17 -143 0 -102 3 -136 14 -145 9 -8 59
-11 152 -9 l139 3 0 150 0 150 -135 2 c-74 1 -143 -3 -153 -8z m253 -143 l0
-114 -115 -1 -115 -1 0 109 0 110 38 4 c20 2 72 4 115 5 l77 2 0 -114z"/>
<path d="M952 992 c-9 -7 -12 -44 -10 -153 l3 -144 145 0 145 0 3 153 3 152
-138 0 c-76 0 -144 -4 -151 -8z m248 -144 l0 -113 -109 -3 -110 -3 -3 110 -3
110 30 4 c17 2 67 5 113 5 l82 2 0 -112z"/>
<path d="M1514 987 c-2 -7 -3 -76 -2 -152 l3 -140 145 0 145 0 3 153 3 152
-146 0 c-110 0 -147 -3 -151 -13z m256 -141 l0 -116 -110 0 -110 0 0 113 0
112 110 3 110 4 0 -116z"/>
</g>
</svg>
