<?xml version="1.0" standalone="no"?>
<!DOCTYPE svg PUBLIC "-//W3C//DTD SVG 20010904//EN"
 "http://www.w3.org/TR/2001/REC-SVG-20010904/DTD/svg10.dtd">
<svg version="1.0" xmlns="http://www.w3.org/2000/svg"
 width="149.000000pt" height="152.000000pt" viewBox="0 0 149.000000 152.000000"
 preserveAspectRatio="xMidYMid meet">
<metadata>
Created by potrace 1.16, written by Peter Selinger 2001-2019
</metadata>
<g transform="translate(0.000000,152.000000) scale(0.100000,-0.100000)"
fill="#000000" stroke="none">
<path d="M533 1513 c-49 -10 -53 -31 -53 -270 l0 -223 -214 0 c-201 0 -215 -1
-240 -21 l-26 -20 0 -224 0 -224 26 -20 c25 -20 39 -21 240 -21 l214 0 0 -210
c0 -138 4 -218 12 -235 18 -40 62 -47 275 -43 258 4 237 -19 241 268 l4 219
220 3 c217 3 220 3 239 27 17 21 19 41 19 236 0 195 -2 215 -19 236 -19 24
-23 24 -243 29 l-223 5 0 222 c0 292 23 267 -248 269 -111 1 -212 0 -224 -3z
m420 -51 c14 -16 17 -52 19 -248 l3 -229 225 -2 c215 -3 226 -4 243 -24 15
-19 17 -45 17 -203 0 -148 -3 -186 -16 -204 -15 -22 -19 -22 -233 -22 -155 0
-220 -3 -229 -12 -9 -9 -12 -72 -12 -223 0 -174 -3 -214 -16 -233 -15 -21 -20
-22 -213 -22 -172 0 -200 2 -212 17 -11 12 -15 69 -18 237 -2 152 -7 223 -15
228 -6 4 -106 8 -223 8 -179 0 -214 2 -227 16 -24 23 -24 395 0 418 13 14 49
16 235 16 166 0 221 3 224 13 3 6 6 112 8 235 2 208 3 225 21 238 16 11 62 14
211 14 172 0 194 -2 208 -18z"/>
</g>
</svg>
