<?xml version="1.0" standalone="no"?>
<!DOCTYPE svg PUBLIC "-//W3C//DTD SVG 20010904//EN"
 "http://www.w3.org/TR/2001/REC-SVG-20010904/DTD/svg10.dtd">
<svg version="1.0" xmlns="http://www.w3.org/2000/svg"
 width="172.000000pt" height="251.000000pt" viewBox="0 0 172.000000 251.000000"
 preserveAspectRatio="xMidYMid meet">
<metadata>
Created by potrace 1.16, written by Peter Selinger 2001-2019
</metadata>
<g transform="translate(0.000000,251.000000) scale(0.100000,-0.100000)"
fill="#000000" stroke="none">
<path d="M632 2501 c-51 -13 -107 -56 -128 -98 -18 -36 -19 -67 -19 -569 l0
-530 -75 125 c-66 111 -80 129 -120 149 -141 71 -312 -46 -284 -196 12 -60
309 -756 351 -819 21 -32 74 -95 117 -141 l80 -83 -2 -147 c-1 -115 2 -151 14
-169 l14 -23 451 0 c291 0 457 4 470 10 18 10 19 23 19 180 l0 168 46 54 c61
72 120 195 139 293 13 66 15 148 13 466 l-3 386 -29 37 c-38 51 -104 80 -165
73 -25 -2 -53 -7 -61 -11 -10 -4 -21 5 -35 31 -28 52 -85 83 -155 83 -30 0
-68 -7 -85 -16 -16 -8 -31 -12 -32 -7 -31 89 -151 137 -245 98 -17 -7 -18 9
-18 244 0 205 -3 259 -16 289 -17 42 -57 88 -94 107 -34 18 -108 26 -148 16z
m144 -102 c13 -12 28 -39 34 -58 6 -21 10 -221 10 -492 0 -492 0 -496 49 -469
20 10 21 19 21 184 l0 174 31 26 c42 36 89 35 131 -3 l33 -29 10 -179 c9 -159
12 -178 28 -181 40 -8 47 14 47 145 0 124 0 125 29 154 34 34 92 40 130 13 40
-29 51 -73 51 -209 0 -107 2 -127 16 -132 38 -14 49 10 54 115 3 55 7 102 10
105 49 40 84 46 130 22 61 -32 62 -37 57 -463 -4 -422 -6 -434 -66 -557 -17
-33 -52 -84 -78 -114 l-48 -55 -5 -158 -5 -158 -408 -3 -407 -2 0 121 c0 67
-3 136 -6 154 -5 22 -37 64 -105 136 -116 124 -127 144 -310 579 -131 311
-144 357 -120 404 18 32 71 61 113 61 59 0 93 -39 203 -239 91 -164 102 -181
125 -178 l25 2 3 622 2 622 35 35 c50 50 130 53 181 5z"/>
</g>
</svg>
