<?xml version="1.0" standalone="no"?>
<!DOCTYPE svg PUBLIC "-//W3C//DTD SVG 20010904//EN"
 "http://www.w3.org/TR/2001/REC-SVG-20010904/DTD/svg10.dtd">
<svg version="1.0" xmlns="http://www.w3.org/2000/svg"
 width="158.000000pt" height="296.000000pt" viewBox="0 0 158.000000 296.000000"
 preserveAspectRatio="xMidYMid meet">
<metadata>
Created by potrace 1.16, written by Peter Selinger 2001-2019
</metadata>
<g transform="translate(0.000000,296.000000) scale(0.100000,-0.100000)"
fill="#000000" stroke="none">
<path d="M626 2945 c-90 -32 -132 -104 -145 -251 -6 -68 -16 -119 -35 -163
-27 -66 -32 -106 -17 -130 6 -9 -1 -22 -24 -42 -18 -16 -40 -46 -48 -67 -20
-50 -167 -798 -167 -849 0 -26 6 -46 18 -56 26 -24 94 -22 116 2 9 10 46 127
81 258 83 308 79 298 93 242 9 -34 8 -48 -2 -64 -21 -33 -56 -134 -72 -209
-13 -62 -64 -439 -64 -473 0 -25 40 -53 74 -53 41 0 35 31 72 -380 37 -419 48
-402 -264 -410 -257 -6 -244 3 -240 -174 l3 -121 785 0 785 0 3 121 c2 110 1
123 -18 147 l-21 27 -153 0 c-85 0 -167 5 -184 11 -25 8 -38 24 -61 72 -28 58
-44 128 -157 679 -4 23 -2 28 13 28 33 0 63 29 63 60 0 16 -18 129 -41 252
-27 148 -37 224 -30 226 26 9 151 114 192 163 114 133 116 180 16 329 -67 99
-172 223 -210 247 l-40 25 28 22 28 22 -37 104 c-25 69 -40 133 -45 190 -11
122 -40 168 -131 209 -52 24 -109 26 -164 6z m169 -65 c41 -25 65 -70 65 -120
0 -34 -6 -47 -30 -70 -17 -16 -28 -34 -25 -42 9 -23 -33 -67 -76 -79 -99 -30
-189 57 -189 184 0 31 30 97 54 116 51 43 142 48 201 11z m132 -393 c8 -38
-12 -57 -60 -57 -28 0 -48 7 -63 21 -26 24 -54 19 -54 -9 0 -22 25 -47 58 -56
12 -4 22 -12 22 -17 0 -12 -123 -209 -131 -209 -6 0 -129 204 -129 214 0 2 14
9 30 16 31 13 60 45 60 66 0 25 -33 24 -60 -1 -20 -19 -36 -25 -72 -25 -26 0
-49 4 -53 10 -3 5 6 37 20 71 14 34 25 69 25 78 0 10 13 2 38 -21 44 -43 78
-58 134 -58 65 0 125 34 156 90 l26 47 24 -66 c13 -36 26 -78 29 -94z m-328
-272 c56 -93 84 -130 97 -130 13 0 44 39 101 125 46 69 84 129 86 134 6 17 57
-4 98 -41 82 -74 239 -304 239 -350 0 -26 -40 -85 -98 -147 -52 -53 -139 -126
-152 -126 -5 0 -14 16 -20 35 -11 34 -11 35 72 132 46 54 89 106 97 116 12 15
6 25 -58 93 -40 41 -76 86 -81 99 -6 15 -18 25 -29 25 -20 0 -19 5 -91 -238
l-22 -73 -140 3 -140 3 -46 153 c-44 149 -60 178 -84 154 -8 -8 -7 -28 5 -72
9 -33 17 -68 17 -78 0 -10 -31 -133 -69 -273 -38 -140 -74 -273 -80 -296 -9
-33 -17 -43 -32 -43 -11 0 -22 7 -26 15 -7 20 142 782 164 837 17 42 65 80 96
76 10 -2 48 -54 96 -133z m440 -265 c-10 -14 -42 -52 -72 -85 l-55 -60 -12 26
c-10 22 -7 41 20 130 18 57 35 108 38 113 2 5 26 -16 52 -45 l48 -54 -19 -25z
m-166 -187 c14 -32 33 -83 41 -113 23 -78 97 -491 90 -501 -6 -11 -581 -12
-587 -1 -7 12 41 370 63 466 11 48 32 115 46 147 l27 59 147 0 147 0 26 -57z
m-223 -1022 c0 -191 3 -369 6 -395 l7 -46 -62 0 c-33 0 -61 2 -61 5 0 2 9 19
20 37 26 42 25 66 -5 399 -14 151 -25 291 -25 312 l0 37 60 0 60 0 0 -349z
m104 332 c16 -57 191 -658 206 -708 l18 -60 -121 -3 c-67 -1 -125 2 -130 7
-20 20 -26 107 -27 392 0 337 4 389 31 389 10 0 20 -8 23 -17z m199 -115 c90
-466 110 -542 165 -650 2 -5 -16 -8 -41 -8 l-44 0 -53 183 c-29 100 -79 272
-111 382 -32 110 -59 206 -59 213 0 8 18 12 58 12 l59 0 26 -132z m565 -720
c8 -8 12 -45 12 -100 l0 -88 -740 0 -740 0 0 88 c0 55 4 92 12 100 17 17 1439
17 1456 0z"/>
</g>
</svg>
