<?xml version="1.0" standalone="no"?>
<!DOCTYPE svg PUBLIC "-//W3C//DTD SVG 20010904//EN"
 "http://www.w3.org/TR/2001/REC-SVG-20010904/DTD/svg10.dtd">
<svg version="1.0" xmlns="http://www.w3.org/2000/svg"
 width="204.000000pt" height="176.000000pt" viewBox="0 0 204.000000 176.000000"
 preserveAspectRatio="xMidYMid meet">
<metadata>
Created by potrace 1.16, written by Peter Selinger 2001-2019
</metadata>
<g transform="translate(0.000000,176.000000) scale(0.100000,-0.100000)"
fill="#000000" stroke="none">
<path d="M140 1748 c-50 -14 -97 -53 -120 -99 -20 -38 -20 -55 -18 -618 l3
-579 30 -44 c46 -66 99 -88 210 -88 146 0 135 12 135 -155 0 -215 1 -215 225
6 l141 138 574 3 c631 3 601 0 662 65 59 62 58 51 58 660 l0 558 -24 52 c-19
39 -35 58 -73 80 l-48 28 -860 2 c-552 1 -873 -2 -895 -9z m1780 -54 c19 -11
45 -38 57 -60 l23 -39 0 -556 0 -556 -23 -43 c-15 -28 -37 -51 -62 -64 -39
-20 -57 -21 -617 -26 l-576 -5 -149 -145 -148 -145 -5 142 c-3 78 -9 145 -13
150 -5 4 -66 10 -135 13 -72 3 -137 11 -149 18 -24 13 -66 66 -77 96 -4 11 -6
266 -6 568 0 583 1 589 48 631 52 47 46 46 947 44 838 -2 851 -2 885 -23z"/>
<path d="M594 1130 c-36 -14 -64 -59 -64 -102 0 -32 7 -47 34 -74 44 -44 99
-47 145 -8 95 80 1 231 -115 184z m92 -43 c66 -57 1 -162 -81 -131 -18 7 -45
55 -45 79 0 23 54 75 79 75 11 0 32 -11 47 -23z"/>
<path d="M974 1130 c-36 -14 -64 -59 -64 -102 0 -50 13 -74 50 -93 64 -33 130
-11 156 51 38 91 -51 181 -142 144z m99 -52 c38 -45 1 -128 -58 -128 -35 0
-75 42 -75 77 1 72 87 105 133 51z"/>
<path d="M1333 1121 c-88 -55 -49 -201 54 -201 70 0 113 43 113 115 0 79 -98
130 -167 86z m109 -41 c25 -26 29 -36 24 -63 -12 -62 -70 -85 -120 -46 -35 28
-36 80 -1 114 32 33 60 31 97 -5z"/>
</g>
</svg>
