<?xml version="1.0" standalone="no"?>
<!DOCTYPE svg PUBLIC "-//W3C//DTD SVG 20010904//EN"
 "http://www.w3.org/TR/2001/REC-SVG-20010904/DTD/svg10.dtd">
<svg version="1.0" xmlns="http://www.w3.org/2000/svg"
 width="154.000000pt" height="249.000000pt" viewBox="0 0 154.000000 249.000000"
 preserveAspectRatio="xMidYMid meet">
<metadata>
Created by potrace 1.16, written by Peter Selinger 2001-2019
</metadata>
<g transform="translate(0.000000,249.000000) scale(0.100000,-0.100000)"
fill="#000000" stroke="none">
<path d="M686 2475 c-57 -20 -107 -65 -141 -126 -25 -46 -29 -65 -29 -125 l1
-71 -43 24 c-124 70 -293 15 -354 -114 -28 -59 -31 -151 -6 -208 33 -77 117
-145 199 -160 l36 -7 -33 -32 c-56 -53 -80 -111 -80 -191 0 -81 20 -128 81
-187 50 -49 103 -70 176 -69 96 0 174 46 239 141 16 24 17 6 17 -355 l1 -380
-39 70 c-82 145 -195 257 -327 320 -91 44 -238 71 -321 59 l-58 -9 3 -50 c2
-28 15 -84 28 -125 90 -272 329 -445 626 -453 l88 -2 2 -210 c3 -194 4 -210
21 -210 16 0 18 15 20 198 l2 197 95 4 c113 5 189 24 288 73 183 90 353 328
356 498 l1 60 -98 3 c-160 5 -293 -42 -424 -147 -66 -53 -151 -160 -191 -241
l-27 -55 -3 384 c-2 350 1 424 16 381 10 -29 95 -110 138 -131 30 -14 64 -21
102 -21 232 0 348 271 187 436 l-43 44 36 7 c80 15 154 72 195 149 28 54 30
165 3 216 -25 49 -74 98 -121 123 -60 32 -165 30 -230 -4 l-50 -25 0 75 c0 89
-19 135 -77 192 -65 63 -174 86 -262 54z m179 -52 c44 -22 74 -53 97 -97 17
-33 20 -53 16 -112 -4 -63 -11 -83 -56 -165 -45 -83 -53 -93 -74 -89 -37 7
-131 6 -153 -2 -22 -8 -29 3 -98 142 -43 88 -45 173 -5 241 56 96 174 131 273
82z m-419 -282 c52 -24 106 -78 155 -154 l37 -60 -23 -31 c-13 -17 -28 -50
-34 -73 -11 -40 -15 -44 -64 -59 -135 -41 -244 -27 -312 40 -80 81 -85 199
-12 283 62 70 168 93 253 54z m845 -4 c156 -83 140 -313 -27 -383 -44 -18
-139 -18 -223 1 l-67 16 -12 46 c-7 25 -22 58 -32 73 -11 16 -20 31 -20 34 0
16 95 148 123 172 79 67 179 82 258 41z m-437 -235 c64 -37 86 -140 44 -202
-51 -75 -118 -96 -191 -61 -74 36 -109 130 -73 199 44 84 138 111 220 64z
m-270 -197 c10 -40 76 -101 124 -116 l44 -13 -7 -45 c-24 -158 -134 -281 -254
-281 -111 0 -211 101 -211 213 0 115 79 200 228 248 73 23 69 23 76 -6z m538
-31 c83 -43 139 -124 140 -204 0 -71 -17 -113 -66 -158 -71 -65 -147 -78 -232
-38 -84 39 -148 140 -161 256 l-5 45 54 25 c42 20 59 36 83 76 l30 51 65 -20
c36 -11 77 -26 92 -33z m-864 -669 c201 -48 385 -227 462 -451 32 -91 35 -88
-79 -81 -176 11 -320 74 -424 187 -83 90 -140 203 -162 323 l-7 37 73 0 c41 0
102 -7 137 -15z m1242 -11 c0 -3 -7 -34 -16 -67 -58 -224 -239 -406 -459 -462
-64 -16 -225 -21 -225 -6 0 29 45 146 79 204 100 170 229 271 405 317 67 18
216 27 216 14z"/>
</g>
</svg>
