<?xml version="1.0" standalone="no"?>
<!DOCTYPE svg PUBLIC "-//W3C//DTD SVG 20010904//EN"
 "http://www.w3.org/TR/2001/REC-SVG-20010904/DTD/svg10.dtd">
<svg version="1.0" xmlns="http://www.w3.org/2000/svg"
 width="157.000000pt" height="209.000000pt" viewBox="0 0 157.000000 209.000000"
 preserveAspectRatio="xMidYMid meet">
<metadata>
Created by potrace 1.16, written by Peter Selinger 2001-2019
</metadata>
<g transform="translate(0.000000,209.000000) scale(0.100000,-0.100000)"
fill="#000000" stroke="none">
<path d="M90 2068 c-24 -13 -53 -36 -64 -51 -21 -28 -21 -35 -21 -972 l0 -944
21 -28 c12 -15 36 -37 55 -48 33 -19 55 -20 743 -23 652 -2 710 -1 727 14 18
16 19 56 19 1026 0 995 0 1008 -20 1028 -20 20 -33 20 -718 20 l-698 0 -44
-22z m1420 -933 l0 -894 -708 -3 c-389 -2 -715 -7 -725 -12 -16 -8 -17 37 -17
860 1 702 3 874 14 893 29 51 12 50 749 51 l687 0 0 -895z m0 -1015 l0 -60
-690 0 c-587 0 -695 2 -719 15 -49 25 -55 67 -13 89 23 13 126 15 725 16 l697
0 0 -60z"/>
<path d="M748 1753 c-18 -4 -19 -9 -138 -318 -44 -115 -78 -215 -75 -222 6
-17 51 -17 62 -1 4 7 20 44 34 83 l27 70 112 0 113 0 17 -51 c30 -87 48 -114
76 -114 13 0 27 6 30 13 7 18 -184 519 -204 535 -16 12 -24 13 -54 5z m45
-143 c9 -25 27 -75 41 -112 l25 -68 -89 0 -89 0 31 83 c17 45 36 99 42 119 12
43 16 41 39 -22z"/>
<path d="M304 945 c-4 -8 -4 -22 0 -30 5 -13 67 -15 480 -15 428 0 474 2 480
16 17 43 8 44 -486 44 -407 0 -469 -2 -474 -15z"/>
<path d="M303 664 c-3 -9 -2 -24 4 -33 9 -14 59 -16 459 -19 247 -1 459 0 470
3 27 6 38 33 23 51 -9 12 -95 14 -481 14 -425 0 -469 -2 -475 -16z"/>
</g>
</svg>
