<?xml version="1.0" standalone="no"?>
<!DOCTYPE svg PUBLIC "-//W3C//DTD SVG 20010904//EN"
 "http://www.w3.org/TR/2001/REC-SVG-20010904/DTD/svg10.dtd">
<svg version="1.0" xmlns="http://www.w3.org/2000/svg"
 width="214.000000pt" height="183.000000pt" viewBox="0 0 214.000000 183.000000"
 preserveAspectRatio="xMidYMid meet">
<metadata>
Created by potrace 1.16, written by Peter Selinger 2001-2019
</metadata>
<g transform="translate(0.000000,183.000000) scale(0.100000,-0.100000)"
fill="#000000" stroke="none">
<path d="M583 1811 c-61 -23 -94 -45 -145 -98 -95 -98 -121 -255 -64 -381 36
-79 113 -152 194 -183 83 -33 189 -31 264 4 75 34 151 106 185 176 25 49 28
68 28 151 0 84 -3 102 -28 151 -34 69 -100 132 -175 167 -77 35 -186 40 -259
13z m241 -71 c24 -12 65 -43 89 -69 170 -182 37 -484 -213 -484 -115 0 -218
61 -264 156 -51 106 -41 219 27 309 35 45 121 104 166 112 52 9 150 -3 195
-24z"/>
<path d="M1247 1482 c-15 -16 -17 -49 -17 -259 0 -205 2 -242 15 -253 10 -8
19 -10 25 -4 5 5 11 115 12 244 l3 235 400 0 400 0 1 -442 1 -443 -322 0
c-284 0 -324 -2 -336 -16 -11 -14 -10 -18 6 -30 15 -11 82 -14 345 -14 304 0
328 1 343 18 15 17 17 65 17 478 0 400 -2 462 -16 482 l-15 22 -423 0 c-397 0
-424 -1 -439 -18z"/>
<path d="M438 1014 c-131 -31 -262 -125 -343 -244 -86 -126 -90 -149 -90 -480
0 -278 0 -285 20 -285 19 0 20 9 26 270 7 290 13 329 65 426 64 120 220 234
353 259 86 16 387 13 454 -5 139 -36 245 -130 303 -265 17 -40 19 -80 24 -365
l5 -320 25 0 25 0 3 290 c1 181 -2 310 -9 343 -37 181 -206 347 -388 382 -80
15 -404 11 -473 -6z"/>
<path d="M315 517 c-3 -7 -4 -125 -3 -262 l3 -250 25 0 25 0 3 249 c2 252 -1
276 -35 276 -7 0 -16 -6 -18 -13z"/>
</g>
</svg>
