<?xml version="1.0" standalone="no"?>
<!DOCTYPE svg PUBLIC "-//W3C//DTD SVG 20010904//EN"
 "http://www.w3.org/TR/2001/REC-SVG-20010904/DTD/svg10.dtd">
<svg version="1.0" xmlns="http://www.w3.org/2000/svg"
 width="201.000000pt" height="151.000000pt" viewBox="0 0 201.000000 151.000000"
 preserveAspectRatio="xMidYMid meet">
<metadata>
Created by potrace 1.16, written by Peter Selinger 2001-2019
</metadata>
<g transform="translate(0.000000,151.000000) scale(0.100000,-0.100000)"
fill="#000000" stroke="none">
<path d="M94 1496 c-17 -8 -44 -31 -60 -52 l-29 -37 0 -653 c0 -643 0 -653 21
-681 11 -15 40 -38 65 -51 l44 -22 887 2 c882 3 887 3 915 24 15 11 38 36 51
54 l22 33 0 641 c0 728 4 690 -80 734 l-44 22 -881 0 c-719 -1 -886 -3 -911
-14z m1816 -41 c63 -33 60 3 60 -695 0 -612 -1 -636 -20 -667 -12 -21 -32 -36
-57 -43 -27 -8 -296 -10 -910 -8 l-873 3 -32 33 -33 32 0 644 0 644 25 27 c14
15 34 31 45 35 11 5 413 9 893 9 756 1 877 -1 902 -14z"/>
<path d="M160 1165 c0 -13 99 -15 835 -15 736 0 835 2 835 15 0 13 -99 15
-835 15 -736 0 -835 -2 -835 -15z"/>
<path d="M172 978 c-7 -7 -12 -40 -12 -80 0 -79 6 -85 90 -86 82 -1 90 6 90
86 0 40 -5 73 -12 80 -7 7 -40 12 -78 12 -38 0 -71 -5 -78 -12z m138 -78 l0
-50 -60 0 -60 0 0 50 0 50 60 0 60 0 0 -50z"/>
<path d="M461 976 c-7 -9 -11 -41 -9 -83 l3 -68 67 -5 c109 -8 112 -6 116 74
4 89 -2 96 -93 96 -50 0 -76 -4 -84 -14z m139 -76 l0 -50 -55 0 -55 0 0 50 0
50 55 0 55 0 0 -50z"/>
<path d="M751 976 c-7 -9 -11 -41 -9 -83 l3 -68 84 -3 c61 -2 87 1 92 10 13
20 11 132 -3 146 -18 18 -152 16 -167 -2z m139 -76 l0 -50 -60 0 -60 0 0 50 0
50 60 0 60 0 0 -50z"/>
<path d="M1041 976 c-7 -9 -11 -41 -9 -83 l3 -68 79 -3 c44 -2 83 1 88 6 5 5
10 39 11 76 2 50 -2 69 -13 76 -24 16 -146 12 -159 -4z m139 -76 l0 -51 -57 3
c-55 3 -57 4 -56 31 3 72 -1 67 58 67 l55 0 0 -50z"/>
<path d="M1330 969 c-13 -23 -11 -105 2 -131 12 -25 163 -27 172 -2 11 28 6
130 -6 142 -7 7 -41 12 -85 12 -63 0 -74 -3 -83 -21z m140 -69 l0 -50 -55 0
-55 0 0 50 0 50 55 0 55 0 0 -50z"/>
<path d="M1621 976 c-7 -9 -11 -41 -9 -83 l3 -68 78 -3 c50 -2 84 1 93 9 17
14 19 111 4 140 -9 16 -22 19 -84 19 -51 0 -77 -4 -85 -14z m139 -76 l0 -50
-55 0 -55 0 0 50 0 50 55 0 55 0 0 -50z"/>
<path d="M912 690 c-21 -9 -23 -14 -20 -87 l3 -78 85 0 85 0 3 78 c3 75 2 77
-23 87 -32 12 -102 12 -133 0z m118 -86 l0 -55 -51 3 -52 3 1 48 c0 26 1 49 1
52 1 3 24 5 51 5 l50 0 0 -56z"/>
<path d="M1215 691 l-30 -6 0 -80 0 -80 85 0 85 0 3 75 c2 62 0 77 -14 87 -19
13 -77 15 -129 4z m113 -82 l-3 -51 -52 -2 -53 -3 0 53 0 54 56 0 55 0 -3 -51z"/>
<path d="M1492 690 c-21 -9 -23 -14 -20 -87 l3 -78 85 0 85 0 3 79 c2 57 -1
82 -10 87 -17 11 -117 10 -146 -1z m118 -86 l0 -55 -52 3 -53 3 -3 53 -3 52
55 0 56 0 0 -56z"/>
<path d="M317 684 c-4 -4 -7 -42 -7 -85 0 -90 -4 -87 104 -79 l71 5 0 80 0 80
-80 3 c-45 1 -84 0 -88 -4z m133 -80 l0 -55 -51 3 -52 3 1 48 c0 26 1 49 1 52
1 3 24 5 51 5 l50 0 0 -56z"/>
<path d="M601 671 c-12 -22 -14 -93 -5 -129 6 -22 10 -23 93 -20 l86 3 0 80 0
80 -82 3 c-73 2 -83 1 -92 -17z m139 -66 l0 -55 -55 0 -55 0 0 55 0 55 55 0
55 0 0 -55z"/>
<path d="M170 390 c-7 -4 -10 -37 -8 -91 l3 -84 76 -3 c98 -4 109 5 109 93 0
85 -11 95 -100 93 -38 0 -74 -4 -80 -8z m138 -87 l3 -53 -60 0 -61 0 0 48 c0
27 3 51 6 54 3 3 29 5 57 4 l52 -1 3 -52z"/>
<path d="M462 388 c-13 -13 -16 -136 -4 -155 12 -19 1032 -19 1043 -1 5 7 9
43 9 80 0 56 -3 69 -19 78 -30 15 -1013 14 -1029 -2z m1006 -80 l-3 -53 -485
0 -485 0 -3 39 c-6 71 -43 66 493 66 l486 0 -3 -52z"/>
<path d="M1623 393 c-9 -3 -13 -30 -13 -83 0 -68 3 -81 19 -90 25 -13 112 -13
145 0 25 9 26 13 26 83 0 43 -5 78 -12 85 -12 12 -139 16 -165 5z m137 -87 l0
-56 -55 0 -55 0 0 53 0 54 55 2 55 2 0 -55z"/>
</g>
</svg>
