<?xml version="1.0" standalone="no"?>
<!DOCTYPE svg PUBLIC "-//W3C//DTD SVG 20010904//EN"
 "http://www.w3.org/TR/2001/REC-SVG-20010904/DTD/svg10.dtd">
<svg version="1.0" xmlns="http://www.w3.org/2000/svg"
 width="142.000000pt" height="205.000000pt" viewBox="0 0 142.000000 205.000000"
 preserveAspectRatio="xMidYMid meet">
<metadata>
Created by potrace 1.16, written by Peter Selinger 2001-2019
</metadata>
<g transform="translate(0.000000,205.000000) scale(0.100000,-0.100000)"
fill="#000000" stroke="none">
<path d="M550 2034 c-255 -54 -429 -218 -521 -489 -32 -93 -34 -289 -5 -375
35 -102 96 -204 185 -307 48 -56 102 -129 120 -162 33 -62 61 -168 61 -232 0
-20 7 -42 15 -49 12 -10 15 -38 15 -130 0 -109 2 -121 28 -171 24 -45 37 -59
87 -84 54 -28 66 -30 169 -30 131 0 172 12 233 68 55 51 73 108 73 238 0 77 3
98 15 103 10 4 15 20 15 53 0 69 25 173 54 231 14 27 50 80 81 118 152 186
204 275 230 399 34 162 0 332 -103 510 -140 240 -460 372 -752 309z m280 -38
c141 -25 282 -102 365 -198 127 -147 203 -379 175 -535 -24 -141 -71 -227
-223 -414 -101 -124 -147 -236 -147 -354 l0 -45 -100 0 -100 0 0 128 c0 134
16 428 26 475 4 17 17 33 37 43 47 24 95 73 107 110 22 65 -39 124 -96 94 -33
-18 -55 -55 -74 -125 l-17 -60 -71 -3 -71 -3 -17 62 c-18 66 -75 139 -108 139
-26 0 -66 -46 -66 -75 0 -54 47 -112 111 -139 34 -14 37 -19 43 -68 8 -64 26
-417 26 -510 l0 -68 -99 0 -98 0 -6 68 c-12 135 -64 239 -192 382 -195 219
-242 444 -144 689 81 202 228 339 419 390 129 34 201 38 320 17z m-281 -762
c20 -26 44 -94 36 -102 -8 -9 -66 41 -81 70 -29 55 7 81 45 32z m381 -1 c0
-18 -13 -38 -40 -65 -23 -21 -45 -38 -50 -38 -11 0 7 67 28 103 22 37 62 38
62 0z m-154 -215 c-3 -29 -9 -169 -12 -310 l-7 -258 -44 0 -43 0 0 133 c0 137
-17 439 -26 470 -5 15 3 17 67 17 l72 0 -7 -52z m184 -688 l0 -70 -250 0 -250
0 0 70 0 70 250 0 250 0 0 -70z m0 -130 c0 -53 -62 -121 -128 -141 -52 -15
-239 -8 -276 11 -39 20 -84 78 -92 118 l-6 32 251 0 c246 0 251 0 251 -20z"/>
</g>
</svg>
