<?xml version="1.0" standalone="no"?>
<!DOCTYPE svg PUBLIC "-//W3C//DTD SVG 20010904//EN"
 "http://www.w3.org/TR/2001/REC-SVG-20010904/DTD/svg10.dtd">
<svg version="1.0" xmlns="http://www.w3.org/2000/svg"
 width="196.000000pt" height="211.000000pt" viewBox="0 0 196.000000 211.000000"
 preserveAspectRatio="xMidYMid meet">
<metadata>
Created by potrace 1.16, written by Peter Selinger 2001-2019
</metadata>
<g transform="translate(0.000000,211.000000) scale(0.100000,-0.100000)"
fill="#000000" stroke="none">
<path d="M1260 2099 c-25 -5 -82 -27 -129 -49 -203 -97 -331 -307 -331 -540 1
-292 184 -530 460 -594 126 -30 280 -10 393 51 69 37 172 135 218 207 l38 58
-5 -53 c-42 -425 -85 -618 -181 -810 -56 -114 -154 -218 -248 -264 -54 -27
-70 -30 -160 -30 -93 0 -105 2 -167 33 -86 42 -148 111 -201 224 -30 62 -47
88 -60 88 -33 0 -29 -30 17 -124 58 -119 123 -189 221 -237 68 -33 74 -34 190
-34 116 0 122 1 186 33 233 117 357 367 430 867 27 185 39 635 19 728 -20 100
-74 193 -164 282 -88 88 -164 134 -262 159 -66 17 -190 19 -264 5z m222 -50
c200 -41 376 -217 417 -417 26 -124 6 -273 -50 -388 -161 -326 -600 -387 -850
-118 -97 105 -141 222 -142 379 -1 107 16 181 58 265 103 203 349 324 567 279z"/>
<path d="M192 1960 c-162 -110 -192 -135 -192 -155 0 -14 5 -25 10 -25 6 0 91
54 190 120 99 66 182 120 185 120 3 0 6 -453 7 -1007 l3 -1008 23 -3 22 -3 -2
1043 -3 1043 -25 3 c-19 2 -76 -32 -218 -128z"/>
</g>
</svg>
