<?xml version="1.0" standalone="no"?>
<!DOCTYPE svg PUBLIC "-//W3C//DTD SVG 20010904//EN"
 "http://www.w3.org/TR/2001/REC-SVG-20010904/DTD/svg10.dtd">
<svg version="1.0" xmlns="http://www.w3.org/2000/svg"
 width="158.000000pt" height="207.000000pt" viewBox="0 0 158.000000 207.000000"
 preserveAspectRatio="xMidYMid meet">
<metadata>
Created by potrace 1.16, written by Peter Selinger 2001-2019
</metadata>
<g transform="translate(0.000000,207.000000) scale(0.100000,-0.100000)"
fill="#000000" stroke="none">
<path d="M683 2055 c-77 -21 -130 -51 -188 -106 -223 -211 -161 -576 121 -706
53 -24 71 -27 169 -28 108 0 113 1 187 38 130 64 218 181 239 321 47 297 -241
558 -528 481z m236 -74 c108 -41 197 -143 227 -261 14 -54 14 -75 5 -133 -6
-38 -21 -87 -32 -110 -32 -61 -112 -140 -176 -173 -53 -26 -67 -29 -158 -29
-95 0 -103 2 -163 34 -159 86 -233 256 -187 426 57 210 280 324 484 246z"/>
<path d="M600 1074 c-318 -39 -529 -196 -585 -437 -12 -53 -15 -123 -13 -349
l3 -283 25 0 25 0 6 295 c4 188 11 310 19 335 38 124 143 245 265 304 179 87
533 105 775 40 200 -54 342 -191 379 -367 6 -31 11 -162 11 -321 0 -233 2
-270 16 -282 11 -9 20 -10 32 -2 15 9 17 40 17 299 0 314 -5 344 -62 459 -40
78 -154 185 -243 228 -129 62 -217 78 -440 82 -107 2 -211 1 -230 -1z"/>
</g>
</svg>
