<?xml version="1.0" standalone="no"?>
<!DOCTYPE svg PUBLIC "-//W3C//DTD SVG 20010904//EN"
 "http://www.w3.org/TR/2001/REC-SVG-20010904/DTD/svg10.dtd">
<svg version="1.0" xmlns="http://www.w3.org/2000/svg"
 width="222.000000pt" height="172.000000pt" viewBox="0 0 222.000000 172.000000"
 preserveAspectRatio="xMidYMid meet">
<metadata>
Created by potrace 1.16, written by Peter Selinger 2001-2019
</metadata>
<g transform="translate(0.000000,172.000000) scale(0.100000,-0.100000)"
fill="#000000" stroke="none">
<path d="M503 1701 c-66 -24 -100 -48 -157 -112 -114 -127 -120 -321 -12 -467
94 -129 268 -180 416 -123 80 30 162 107 202 189 30 61 33 74 33 162 0 82 -4
103 -27 152 -37 81 -105 149 -181 184 -82 37 -196 44 -274 15z m250 -49 c92
-41 157 -120 183 -224 38 -147 -36 -304 -178 -380 -64 -34 -203 -33 -272 1
-194 96 -247 362 -103 518 76 82 154 115 259 109 37 -3 87 -13 111 -24z"/>
<path d="M1473 1700 c-93 -33 -166 -102 -212 -199 -22 -48 -26 -69 -26 -151 0
-85 3 -101 29 -155 64 -130 180 -207 321 -213 115 -5 179 20 266 107 83 83
111 150 111 261 0 122 -51 224 -150 300 -89 69 -230 90 -339 50z m234 -41 c69
-27 145 -94 181 -164 24 -44 27 -62 27 -145 0 -84 -3 -101 -27 -145 -55 -103
-157 -174 -263 -183 -133 -10 -252 58 -312 179 -46 89 -52 157 -24 250 19 61
31 81 79 129 97 96 217 124 339 79z"/>
<path d="M510 913 c-214 -28 -357 -124 -439 -295 -56 -117 -64 -171 -65 -408
-1 -199 0 -205 19 -205 19 0 20 9 26 225 5 206 7 232 31 301 77 232 247 340
538 342 131 1 211 -16 307 -64 74 -37 169 -132 206 -204 52 -104 60 -146 66
-380 6 -211 7 -220 26 -220 19 0 20 6 19 200 -2 233 -14 298 -74 414 l-40 75
48 44 c101 94 231 136 422 136 258 0 421 -87 514 -274 51 -104 65 -195 66
-417 0 -176 1 -183 20 -183 19 0 20 7 20 203 0 233 -11 300 -66 414 -72 151
-234 268 -404 294 -93 14 -283 6 -365 -16 -89 -23 -177 -69 -234 -123 l-51
-48 -42 43 c-47 47 -145 103 -228 128 -55 16 -250 28 -320 18z"/>
</g>
</svg>
