<?xml version="1.0" standalone="no"?>
<!DOCTYPE svg PUBLIC "-//W3C//DTD SVG 20010904//EN"
 "http://www.w3.org/TR/2001/REC-SVG-20010904/DTD/svg10.dtd">
<svg version="1.0" xmlns="http://www.w3.org/2000/svg"
 width="173.000000pt" height="206.000000pt" viewBox="0 0 173.000000 206.000000"
 preserveAspectRatio="xMidYMid meet">
<metadata>
Created by potrace 1.16, written by Peter Selinger 2001-2019
</metadata>
<g transform="translate(0.000000,206.000000) scale(0.100000,-0.100000)"
fill="#000000" stroke="none">
<path d="M55 2048 c-11 -6 -28 -20 -37 -32 -16 -20 -18 -87 -18 -988 l0 -966
26 -31 26 -31 810 0 810 0 29 29 29 29 0 779 0 778 -227 222 -228 222 -600 0
c-418 0 -606 -3 -620 -11z m1195 -203 c0 -193 5 -216 59 -254 27 -19 43 -21
205 -21 l176 0 0 -739 c0 -732 0 -739 -21 -765 l-20 -26 -782 0 -781 0 -23 22
-23 21 0 944 0 944 25 24 24 25 581 0 580 0 0 -175z m233 -52 l177 -178 -157
3 c-213 4 -203 -6 -203 199 0 84 1 153 3 153 1 0 82 -80 180 -177z"/>
<path d="M1180 1391 c-96 -6 -105 -8 -105 -26 0 -18 7 -20 86 -20 85 0 86 0
70 -20 -9 -11 -51 -64 -94 -118 -171 -213 -269 -276 -486 -311 -116 -18 -184
-51 -245 -116 -76 -81 -116 -191 -116 -314 0 -70 9 -96 31 -96 17 0 19 8 19
88 0 102 19 176 61 244 55 85 130 127 275 152 218 38 340 116 487 311 33 44
75 97 93 117 l33 37 3 -87 c2 -71 6 -87 20 -90 14 -3 17 12 23 103 8 115 -1
157 -32 153 -10 -1 -65 -4 -123 -7z"/>
<path d="M1017 713 c-14 -13 -6 -26 58 -92 l64 -67 -64 -64 c-67 -66 -77 -86
-49 -97 11 -4 37 15 83 61 l67 66 64 -65 c66 -67 86 -77 97 -49 4 11 -15 37
-61 83 l-66 67 65 64 c67 66 77 86 49 97 -11 4 -37 -15 -83 -61 l-67 -66 -64
65 c-62 62 -79 73 -93 58z"/>
</g>
</svg>
