<?xml version="1.0" standalone="no"?>
<!DOCTYPE svg PUBLIC "-//W3C//DTD SVG 20010904//EN"
 "http://www.w3.org/TR/2001/REC-SVG-20010904/DTD/svg10.dtd">
<svg version="1.0" xmlns="http://www.w3.org/2000/svg"
 width="221.000000pt" height="248.000000pt" viewBox="0 0 221.000000 248.000000"
 preserveAspectRatio="xMidYMid meet">
<metadata>
Created by potrace 1.16, written by Peter Selinger 2001-2019
</metadata>
<g transform="translate(0.000000,248.000000) scale(0.100000,-0.100000)"
fill="#000000" stroke="none">
<path d="M553 2468 c-6 -7 -15 -40 -21 -72 -24 -122 -91 -219 -181 -266 -22
-11 -71 -27 -108 -36 -70 -16 -93 -28 -93 -48 1 -26 20 -38 84 -51 165 -35
263 -138 297 -313 8 -42 18 -66 30 -73 35 -18 53 4 72 90 13 57 29 97 58 139
59 90 127 131 279 169 30 7 35 13 35 38 0 28 -3 30 -70 46 -99 23 -138 41
-195 95 -56 52 -92 121 -110 209 -14 67 -24 85 -50 85 -10 0 -22 -6 -27 -12z
m51 -214 c25 -62 104 -146 171 -180 30 -16 55 -31 55 -34 0 -3 -20 -14 -43
-24 -57 -27 -148 -120 -178 -183 -13 -29 -26 -52 -29 -52 -3 0 -16 23 -29 52
-30 63 -121 156 -178 183 -23 10 -43 21 -43 24 0 3 25 18 55 34 67 34 146 118
171 180 11 25 21 46 24 46 3 0 13 -21 24 -46z"/>
<path d="M1610 2244 c-88 -24 -137 -59 -285 -205 -126 -125 -144 -139 -175
-139 -88 0 -250 -123 -250 -189 0 -21 61 -87 323 -349 198 -197 330 -322 342
-322 32 0 120 100 144 166 65 172 23 344 -120 498 -81 87 -184 159 -252 178
-26 7 -47 15 -47 19 0 14 208 207 250 232 212 124 489 18 570 -217 20 -58 20
-81 20 -969 0 -607 3 -915 10 -928 12 -21 40 -25 58 -7 9 9 12 227 12 918 0
974 1 953 -52 1067 -30 66 -149 183 -219 216 -104 49 -221 60 -329 31z m-304
-429 c109 -32 258 -166 315 -281 61 -123 50 -287 -25 -379 l-25 -30 -223 222
c-123 122 -256 252 -295 289 -40 37 -73 73 -73 80 0 21 82 84 130 99 60 18
135 18 196 0z"/>
<path d="M724 1188 c-170 -168 -190 -199 -135 -206 20 -3 53 26 182 154 88 88
159 167 159 176 0 10 -9 22 -21 29 -19 10 -36 -5 -185 -153z"/>
<path d="M777 882 c-231 -231 -278 -283 -275 -303 8 -58 35 -37 319 247 154
154 279 286 279 294 0 18 -19 40 -35 40 -5 0 -135 -125 -288 -278z"/>
<path d="M1081 846 c-119 -120 -162 -169 -157 -181 3 -9 6 -19 6 -21 0 -2 10
-4 23 -4 15 0 69 47 181 159 128 129 157 162 154 182 -7 55 -38 35 -207 -135z"/>
<path d="M192 646 c-148 -149 -163 -166 -153 -185 7 -12 19 -21 29 -21 9 0 91
74 181 164 168 168 187 197 131 204 -21 2 -54 -26 -188 -162z"/>
<path d="M566 321 c-137 -137 -167 -172 -164 -192 7 -54 37 -35 209 137 93 93
169 176 169 184 0 18 -19 40 -35 40 -5 0 -86 -76 -179 -169z"/>
<path d="M151 256 c-158 -158 -176 -187 -121 -194 21 -2 51 24 173 146 81 82
147 155 147 163 0 17 -19 39 -35 39 -5 0 -79 -69 -164 -154z"/>
</g>
</svg>
