<?xml version="1.0" standalone="no"?>
<!DOCTYPE svg PUBLIC "-//W3C//DTD SVG 20010904//EN"
 "http://www.w3.org/TR/2001/REC-SVG-20010904/DTD/svg10.dtd">
<svg version="1.0" xmlns="http://www.w3.org/2000/svg"
 width="114.000000pt" height="234.000000pt" viewBox="0 0 114.000000 234.000000"
 preserveAspectRatio="xMidYMid meet">
<metadata>
Created by potrace 1.16, written by Peter Selinger 2001-2019
</metadata>
<g transform="translate(0.000000,234.000000) scale(0.100000,-0.100000)"
fill="#000000" stroke="none">
<path d="M421 2325 c-240 -67 -421 -302 -421 -545 1 -216 116 -412 307 -520
43 -24 80 -46 83 -48 3 -2 7 -265 10 -584 l5 -580 28 -24 28 -24 267 2 267 3
3 114 c2 75 -1 118 -9 127 -9 11 -41 14 -130 14 l-119 0 0 80 0 80 113 0 c75
0 119 4 130 13 15 11 17 28 15 132 l-3 120 -128 3 -127 3 2 262 3 262 75 40
c101 53 215 167 258 255 125 258 57 551 -168 721 -99 74 -180 101 -320 105
-81 3 -131 -1 -169 -11z m284 -40 c145 -38 267 -139 335 -278 80 -163 79 -320
-1 -480 -45 -87 -153 -193 -244 -236 -38 -18 -76 -40 -82 -49 -10 -12 -13 -87
-13 -294 0 -264 1 -278 19 -288 11 -5 69 -10 130 -10 l111 0 0 -90 0 -90 -114
0 c-147 0 -146 1 -146 -129 0 -62 4 -101 12 -109 8 -8 52 -12 130 -12 l118 0
0 -90 0 -90 -240 0 c-227 0 -241 1 -260 20 -20 20 -20 33 -20 579 0 327 -4
570 -9 585 -7 16 -34 37 -83 62 -88 46 -204 156 -240 229 -59 115 -79 248 -55
361 42 196 201 364 389 410 74 17 193 17 263 -1z"/>
<path d="M492 2005 c-137 -43 -202 -203 -138 -340 79 -170 321 -182 420 -21
24 39 31 63 34 117 4 59 0 77 -23 124 -31 64 -74 101 -141 121 -57 17 -95 17
-152 -1z m164 -44 c103 -47 150 -180 98 -282 -21 -41 -90 -97 -129 -105 -66
-12 -133 1 -173 33 -79 64 -104 138 -77 228 34 117 168 177 281 126z"/>
</g>
</svg>
