<?xml version="1.0" standalone="no"?>
<!DOCTYPE svg PUBLIC "-//W3C//DTD SVG 20010904//EN"
 "http://www.w3.org/TR/2001/REC-SVG-20010904/DTD/svg10.dtd">
<svg version="1.0" xmlns="http://www.w3.org/2000/svg"
 width="222.000000pt" height="226.000000pt" viewBox="0 0 222.000000 226.000000"
 preserveAspectRatio="xMidYMid meet">
<metadata>
Created by potrace 1.16, written by Peter Selinger 2001-2019
</metadata>
<g transform="translate(0.000000,226.000000) scale(0.100000,-0.100000)"
fill="#000000" stroke="none">
<path d="M2002 2249 c-31 -9 -179 -173 -757 -841 l-111 -127 -64 -188 c-35
-103 -65 -194 -68 -200 -11 -33 39 -18 194 57 125 60 176 90 197 115 16 20
182 212 370 428 499 573 457 518 457 597 0 46 -4 55 -42 97 -62 67 -105 82
-176 62z m136 -84 c60 -62 59 -102 -4 -180 l-47 -57 -91 91 -91 91 49 49 c74
75 116 76 184 6z m-166 -182 l87 -88 -62 -70 c-34 -39 -192 -220 -352 -403
l-289 -333 -89 89 -89 90 348 401 c192 220 351 401 354 401 3 0 44 -39 92 -87z
m-652 -926 c-8 -7 -260 -126 -260 -123 0 3 62 182 96 275 3 11 30 -10 86 -67
45 -45 80 -83 78 -85z"/>
<path d="M29 2071 l-29 -29 0 -982 c0 -1071 -2 -1028 56 -1050 15 -6 351 -10
855 -10 l831 0 29 29 29 30 -2 663 c-3 582 -5 663 -18 663 -13 0 -15 -81 -17
-655 -3 -654 -3 -655 -24 -672 -20 -17 -75 -18 -840 -18 -806 0 -819 0 -839
20 -20 20 -20 33 -20 989 0 908 1 970 18 990 l17 21 820 3 c772 2 820 3 823
20 3 16 -42 17 -828 17 l-832 0 -29 -29z"/>
<path d="M340 1210 l0 -530 524 0 c373 0 527 3 532 11 7 12 -163 189 -183 189
-33 0 -20 -28 43 -91 l68 -69 -454 0 -454 0 59 63 c33 34 134 137 225 229
l165 168 51 -51 c35 -35 58 -50 68 -46 25 10 20 19 -39 77 l-55 55 246 246
c177 178 245 252 241 263 -6 14 -59 16 -522 16 l-515 0 0 -530z m969 486 c-2
-2 -104 -105 -226 -229 l-222 -224 -227 228 -227 229 453 0 c249 0 451 -2 449
-4z m-484 -486 c0 -4 -100 -110 -222 -236 l-223 -229 0 464 0 465 223 -229
c122 -126 222 -231 222 -235z"/>
</g>
</svg>
