<?xml version="1.0" standalone="no"?>
<!DOCTYPE svg PUBLIC "-//W3C//DTD SVG 20010904//EN"
 "http://www.w3.org/TR/2001/REC-SVG-20010904/DTD/svg10.dtd">
<svg version="1.0" xmlns="http://www.w3.org/2000/svg"
 width="134.000000pt" height="217.000000pt" viewBox="0 0 134.000000 217.000000"
 preserveAspectRatio="xMidYMid meet">
<metadata>
Created by potrace 1.16, written by Peter Selinger 2001-2019
</metadata>
<g transform="translate(0.000000,217.000000) scale(0.100000,-0.100000)"
fill="#000000" stroke="none">
<path d="M45 2158 c-46 -27 -44 11 -45 -1071 l0 -1029 29 -29 29 -29 227 0
226 0 24 25 25 24 0 1034 c0 1004 -1 1035 -19 1058 -19 24 -21 24 -248 26
-161 2 -234 -1 -248 -9z m459 -34 c11 -4 16 -19 16 -50 l0 -43 -67 -3 c-53 -2
-68 -6 -68 -18 0 -12 15 -16 68 -18 l67 -3 0 -67 0 -67 -47 0 c-36 0 -48 -4
-48 -15 0 -11 13 -16 48 -18 l47 -3 0 -65 0 -64 -70 0 c-56 0 -70 -3 -70 -15
0 -12 14 -15 70 -15 l70 0 0 -72 0 -73 -47 0 c-36 0 -48 -4 -48 -15 0 -11 13
-16 48 -18 l47 -3 0 -64 0 -64 -67 -3 c-53 -2 -68 -6 -68 -18 0 -12 15 -16 68
-18 l67 -3 0 -64 0 -65 -44 0 c-46 0 -69 -16 -45 -31 8 -5 31 -9 52 -9 l37 0
0 -65 0 -65 -70 0 c-56 0 -70 -3 -70 -15 0 -12 14 -15 70 -15 l70 0 0 -70 0
-70 -45 0 c-38 0 -45 -3 -45 -20 0 -17 7 -20 45 -20 l45 0 0 -65 0 -64 -67 -3
c-53 -2 -68 -6 -68 -18 0 -12 15 -16 68 -18 l67 -3 0 -64 0 -64 -47 -3 c-35
-2 -48 -7 -48 -18 0 -11 12 -15 48 -15 l47 0 0 -67 0 -68 -70 0 c-56 0 -70 -3
-70 -15 0 -12 14 -15 70 -15 l70 0 0 -124 c0 -104 -3 -125 -16 -130 -9 -3
-112 -6 -229 -6 -202 0 -215 1 -225 19 -16 30 -14 2043 2 2059 13 13 421 18
452 6z"/>
<path d="M1098 2133 c-8 -10 -49 -99 -91 -198 l-77 -180 0 -790 c0 -512 4
-803 10 -827 23 -83 101 -138 195 -138 99 0 171 56 195 150 7 32 10 279 8 830
l-3 785 -79 175 c-82 183 -98 210 -126 210 -9 0 -24 -8 -32 -17z m112 -190
c41 -91 77 -170 78 -175 2 -4 -68 -8 -156 -8 l-159 0 27 58 c15 31 49 110 76
175 27 64 51 117 54 117 3 0 39 -75 80 -167z m90 -854 l0 -629 -75 0 -75 0 0
628 c0 346 2 631 4 633 2 2 36 3 75 1 l71 -4 0 -629z m-185 1 l0 -630 -72 0
-73 0 0 630 0 630 73 0 72 0 0 -630z m183 -810 c-3 -153 -10 -171 -78 -217
-47 -33 -132 -32 -181 1 -59 40 -69 75 -69 228 l0 133 166 -3 165 -3 -3 -139z"/>
</g>
</svg>
