<?xml version="1.0" standalone="no"?>
<!DOCTYPE svg PUBLIC "-//W3C//DTD SVG 20010904//EN"
 "http://www.w3.org/TR/2001/REC-SVG-20010904/DTD/svg10.dtd">
<svg version="1.0" xmlns="http://www.w3.org/2000/svg"
 width="229.000000pt" height="173.000000pt" viewBox="0 0 229.000000 173.000000"
 preserveAspectRatio="xMidYMid meet">
<metadata>
Created by potrace 1.16, written by Peter Selinger 2001-2019
</metadata>
<g transform="translate(0.000000,173.000000) scale(0.100000,-0.100000)"
fill="#000000" stroke="none">
<path d="M1470 1721 c-76 -23 -127 -69 -162 -146 -20 -44 -23 -66 -23 -180 -1
-82 -5 -138 -13 -152 -21 -38 -15 -98 13 -132 14 -16 35 -33 45 -36 12 -4 20
-15 20 -28 1 -30 34 -103 65 -139 27 -32 32 -75 14 -125 -8 -24 -21 -35 -57
-48 -69 -26 -182 -84 -219 -111 l-33 -25 -37 19 c-21 11 -64 28 -96 38 -43 13
-69 29 -98 61 -21 23 -39 46 -39 51 0 4 34 14 75 21 102 17 158 37 186 67 l23
25 -26 107 c-36 142 -35 139 -52 282 -8 69 -24 151 -36 182 -101 270 -437 344
-633 139 -85 -89 -108 -149 -132 -344 -8 -70 -26 -171 -40 -225 -14 -53 -25
-109 -25 -124 0 -42 47 -74 137 -93 127 -27 136 -30 141 -43 6 -20 -68 -80
-125 -102 -197 -74 -290 -154 -328 -282 -22 -76 -18 -373 5 -373 13 0 16 29
21 180 4 138 10 189 23 218 37 84 135 160 268 210 l66 25 23 -24 c36 -38 135
-64 248 -64 111 0 185 18 230 56 l31 26 52 -17 c127 -41 226 -114 270 -197 20
-38 23 -62 29 -228 3 -102 7 -186 8 -187 5 -10 30 0 35 13 10 26 7 234 -5 303
-15 96 -44 153 -106 212 -42 40 -52 54 -41 61 7 5 63 34 123 64 100 49 111 52
120 37 6 -10 24 -32 41 -49 24 -26 41 -33 88 -39 122 -16 212 7 267 66 l26 27
84 -36 c184 -80 259 -142 299 -248 18 -49 23 -88 28 -234 6 -146 9 -175 22
-175 12 0 16 21 18 115 6 237 -28 362 -122 447 -49 44 -202 127 -279 152 -59
20 -67 33 -67 116 0 43 5 77 11 81 15 9 59 104 59 128 0 11 18 35 39 55 49 45
60 91 35 147 -13 29 -18 68 -18 154 -1 139 -16 180 -80 212 -22 11 -57 38 -76
60 -24 27 -48 42 -75 48 -48 11 -210 11 -245 1z m242 -41 c25 -7 43 -21 57
-46 13 -22 36 -41 63 -53 59 -26 70 -50 75 -156 5 -105 -4 -130 -37 -100 -18
17 -79 131 -94 178 -6 18 -41 23 -51 7 -20 -33 -184 -93 -286 -105 l-56 -7
-14 -46 c-30 -97 -56 -41 -46 96 8 110 44 177 116 214 47 25 64 28 145 28 50
0 107 -5 128 -10z m-937 -31 c35 -13 77 -41 114 -75 79 -73 106 -135 126 -294
22 -171 33 -234 56 -311 10 -37 17 -74 13 -82 -7 -20 -42 -34 -129 -52 -128
-27 -140 -18 -80 60 51 67 67 130 72 281 l5 132 -36 12 c-44 14 -104 82 -112
127 -10 53 -30 52 -82 -5 -54 -58 -126 -94 -223 -113 -35 -6 -77 -15 -94 -19
l-30 -6 1 -140 c1 -152 10 -190 64 -270 44 -65 41 -78 -16 -69 -77 11 -158 35
-176 52 -23 21 -23 33 7 145 13 51 33 158 44 238 21 152 39 208 88 275 84 114
254 164 388 114z m988 -226 c23 -63 87 -147 115 -151 27 -4 62 -47 62 -77 0
-30 -35 -73 -63 -77 -15 -2 -23 -11 -25 -28 -7 -67 -15 -91 -43 -134 -45 -68
-107 -101 -189 -101 -51 0 -75 6 -110 25 -56 31 -104 102 -121 175 -9 42 -16
55 -31 55 -31 0 -58 36 -58 78 0 41 18 64 58 77 22 6 52 51 52 79 0 10 13 17
38 21 73 11 188 47 237 75 28 15 52 28 56 29 3 0 13 -20 22 -46z m-950 -78
c14 -17 42 -40 62 -50 l37 -20 -4 -115 c-5 -135 -28 -206 -85 -265 -48 -49
-94 -68 -168 -68 -159 -1 -249 129 -243 348 l3 99 70 12 c116 20 236 79 269
132 7 12 11 9 21 -14 7 -16 24 -43 38 -59z m965 -536 c2 -29 7 -60 12 -69 25
-46 -67 -99 -172 -100 -130 0 -182 42 -153 126 8 25 15 54 15 65 0 19 1 19 33
2 49 -27 171 -25 217 4 19 12 37 22 40 22 3 1 6 -22 8 -50z m-1226 -5 c42 -22
160 -22 210 0 49 21 48 21 48 -15 0 -38 13 -65 53 -106 30 -32 30 -33 11 -48
-88 -66 -357 -63 -419 5 -18 20 -18 21 3 36 30 21 52 66 52 109 0 40 0 40 42
19z"/>
<path d="M215 218 c-3 -8 -4 -59 -3 -114 2 -80 6 -99 18 -99 12 0 15 19 15
109 0 79 -4 111 -12 113 -7 3 -15 -2 -18 -9z"/>
<path d="M1075 218 c-3 -8 -4 -59 -3 -114 2 -80 6 -99 18 -99 12 0 15 19 15
109 0 79 -4 111 -12 113 -7 3 -15 -2 -18 -9z"/>
<path d="M2035 218 c-3 -8 -4 -59 -3 -114 2 -80 6 -99 18 -99 12 0 15 19 15
109 0 79 -4 111 -12 113 -7 3 -15 -2 -18 -9z"/>
</g>
</svg>
