<?xml version="1.0" standalone="no"?>
<!DOCTYPE svg PUBLIC "-//W3C//DTD SVG 20010904//EN"
 "http://www.w3.org/TR/2001/REC-SVG-20010904/DTD/svg10.dtd">
<svg version="1.0" xmlns="http://www.w3.org/2000/svg"
 width="168.000000pt" height="182.000000pt" viewBox="0 0 168.000000 182.000000"
 preserveAspectRatio="xMidYMid meet">
<metadata>
Created by potrace 1.16, written by Peter Selinger 2001-2019
</metadata>
<g transform="translate(0.000000,182.000000) scale(0.100000,-0.100000)"
fill="#000000" stroke="none">
<path d="M900 1813 c-132 -22 -346 -115 -455 -198 -269 -203 -425 -480 -442
-787 -23 -420 223 -736 633 -814 106 -20 284 -14 379 11 165 45 330 156 413
277 63 92 82 218 49 327 -22 71 -21 159 1 219 10 26 48 91 84 144 103 150 135
265 109 390 -31 146 -152 293 -303 367 -118 58 -180 71 -323 70 -66 -1 -131
-4 -145 -6z m288 -49 c181 -37 342 -156 410 -304 20 -41 27 -76 30 -140 5
-110 -14 -166 -102 -299 -118 -178 -136 -252 -96 -396 42 -149 10 -258 -108
-374 -47 -47 -94 -81 -157 -113 -142 -73 -185 -83 -370 -83 -140 0 -169 3
-235 23 -260 82 -432 259 -491 508 -27 115 -23 317 9 435 129 476 663 834
1110 743z"/>
<path d="M776 1540 c-41 -13 -85 -58 -98 -101 -32 -108 66 -216 176 -195 53
10 112 70 121 124 10 63 -25 129 -85 160 -47 23 -67 26 -114 12z m122 -73 c14
-14 26 -41 29 -64 7 -55 -33 -102 -94 -110 -39 -5 -46 -2 -78 30 -27 27 -35
43 -35 70 0 38 30 83 64 98 33 14 87 2 114 -24z"/>
<path d="M1227 1476 c-51 -19 -67 -34 -89 -84 -25 -56 -17 -111 23 -157 38
-42 79 -59 133 -53 87 10 143 80 133 166 -11 97 -109 160 -200 128z m126 -76
c39 -43 38 -101 -2 -141 -82 -81 -219 18 -166 121 33 64 118 74 168 20z"/>
<path d="M406 1270 c-41 -13 -85 -58 -98 -101 -30 -103 55 -208 160 -196 82 9
137 70 137 150 0 65 -30 111 -89 138 -45 20 -66 22 -110 9z m122 -73 c14 -14
26 -41 29 -65 5 -37 2 -45 -30 -77 -25 -25 -44 -35 -66 -35 -66 0 -111 44
-111 108 0 33 32 79 64 93 33 14 87 2 114 -24z"/>
<path d="M300 823 c-8 -3 -26 -15 -38 -27 -105 -95 -42 -266 98 -266 152 0
208 201 78 280 -32 19 -103 26 -138 13z m135 -74 c78 -76 -10 -206 -111 -164
-67 28 -85 108 -39 164 41 48 99 48 150 0z"/>
<path d="M1031 717 c-56 -11 -127 -79 -137 -132 -18 -96 21 -180 100 -216 114
-52 250 18 263 135 8 66 -4 112 -39 152 -51 58 -108 77 -187 61z m81 -47 c45
-13 95 -68 104 -114 13 -74 -59 -156 -138 -156 -159 0 -196 210 -48 269 33 13
38 13 82 1z"/>
</g>
</svg>
