<?xml version="1.0" standalone="no"?>
<!DOCTYPE svg PUBLIC "-//W3C//DTD SVG 20010904//EN"
 "http://www.w3.org/TR/2001/REC-SVG-20010904/DTD/svg10.dtd">
<svg version="1.0" xmlns="http://www.w3.org/2000/svg"
 width="204.000000pt" height="181.000000pt" viewBox="0 0 204.000000 181.000000"
 preserveAspectRatio="xMidYMid meet">
<metadata>
Created by potrace 1.16, written by Peter Selinger 2001-2019
</metadata>
<g transform="translate(0.000000,181.000000) scale(0.100000,-0.100000)"
fill="#000000" stroke="none">
<path d="M125 1791 c-58 -26 -101 -80 -115 -143 -8 -37 -11 -203 -8 -563 3
-496 4 -511 24 -556 37 -80 100 -116 220 -126 l74 -6 0 -176 c0 -196 7 -221
58 -221 22 0 62 38 216 200 l190 199 540 3 c496 3 544 4 581 21 53 24 93 63
116 112 17 37 19 75 19 565 0 336 -4 539 -11 563 -13 49 -63 105 -114 128 -38
18 -89 19 -895 19 -806 0 -857 -1 -895 -19z m1785 -43 c33 -17 51 -35 68 -68
22 -44 22 -45 22 -560 0 -308 -4 -529 -10 -551 -5 -19 -22 -47 -37 -62 -61
-58 -54 -57 -641 -57 l-538 0 -110 -113 c-60 -62 -149 -154 -198 -205 -49 -50
-90 -92 -92 -92 -2 0 -5 91 -6 203 l-3 202 -100 5 c-112 6 -150 21 -187 72
l-23 33 -3 550 c-3 626 -6 599 78 643 l44 22 846 0 846 0 44 -22z"/>
<path d="M364 1419 c-3 -6 -2 -15 3 -20 5 -5 275 -8 663 -7 614 3 655 4 658
21 3 16 -33 17 -657 17 -464 0 -662 -3 -667 -11z"/>
<path d="M364 1119 c-3 -6 -2 -15 3 -20 5 -5 275 -8 663 -7 614 3 655 4 658
21 3 16 -33 17 -657 17 -464 0 -662 -3 -667 -11z"/>
<path d="M370 825 c-6 -8 -9 -19 -5 -25 9 -14 841 -14 850 0 4 6 1 17 -5 25
-18 22 -822 22 -840 0z"/>
</g>
</svg>
