<?xml version="1.0" standalone="no"?>
<!DOCTYPE svg PUBLIC "-//W3C//DTD SVG 20010904//EN"
 "http://www.w3.org/TR/2001/REC-SVG-20010904/DTD/svg10.dtd">
<svg version="1.0" xmlns="http://www.w3.org/2000/svg"
 width="132.000000pt" height="99.000000pt" viewBox="0 0 132.000000 99.000000"
 preserveAspectRatio="xMidYMid meet">
<metadata>
Created by potrace 1.16, written by Peter Selinger 2001-2019
</metadata>
<g transform="translate(0.000000,99.000000) scale(0.100000,-0.100000)"
fill="#000000" stroke="none">
<path d="M803 974 c-4 -11 56 -78 213 -235 l219 -219 -618 0 -618 0 3 -22 3
-23 613 -5 612 -5 -215 -215 c-118 -118 -215 -221 -215 -228 0 -7 7 -15 16
-19 11 -4 85 63 260 238 134 134 244 249 244 254 0 18 -477 495 -494 495 -9 0
-19 -7 -23 -16z"/>
</g>
</svg>
