<?xml version="1.0" standalone="no"?>
<!DOCTYPE svg PUBLIC "-//W3C//DTD SVG 20010904//EN"
 "http://www.w3.org/TR/2001/REC-SVG-20010904/DTD/svg10.dtd">
<svg version="1.0" xmlns="http://www.w3.org/2000/svg"
 width="208.000000pt" height="170.000000pt" viewBox="0 0 208.000000 170.000000"
 preserveAspectRatio="xMidYMid meet">
<metadata>
Created by potrace 1.16, written by Peter Selinger 2001-2019
</metadata>
<g transform="translate(0.000000,170.000000) scale(0.100000,-0.100000)"
fill="#000000" stroke="none">
<path d="M410 1678 c-5 -13 -16 -77 -26 -143 -9 -66 -32 -167 -51 -225 -99
-304 -333 -1125 -333 -1168 0 -31 22 -41 142 -67 400 -84 998 -99 1488 -39
154 19 373 61 419 80 32 14 33 16 28 57 -6 40 -219 815 -311 1132 -28 95 -49
190 -56 260 -7 61 -17 116 -22 123 -8 9 -148 12 -639 12 l-629 0 -10 -22z
m1239 -126 c6 -49 11 -96 11 -106 0 -16 -33 -17 -607 -10 -335 3 -610 8 -612
10 -2 2 2 46 9 99 l13 95 587 0 587 0 12 -88z m55 -264 c26 -86 179 -632 264
-940 l49 -177 -88 -21 c-391 -91 -1021 -114 -1519 -55 -172 21 -340 55 -340
70 0 34 225 819 306 1067 l45 138 629 0 629 0 25 -82z"/>
</g>
</svg>
