<?xml version="1.0" standalone="no"?>
<!DOCTYPE svg PUBLIC "-//W3C//DTD SVG 20010904//EN"
 "http://www.w3.org/TR/2001/REC-SVG-20010904/DTD/svg10.dtd">
<svg version="1.0" xmlns="http://www.w3.org/2000/svg"
 width="172.000000pt" height="205.000000pt" viewBox="0 0 172.000000 205.000000"
 preserveAspectRatio="xMidYMid meet">
<metadata>
Created by potrace 1.16, written by Peter Selinger 2001-2019
</metadata>
<g transform="translate(0.000000,205.000000) scale(0.100000,-0.100000)"
fill="#000000" stroke="none">
<path d="M1150 1988 c-18 -35 -34 -64 -35 -66 -1 -1 -22 6 -46 17 -67 29 -193
44 -342 39 -109 -4 -145 -9 -205 -30 -103 -37 -216 -110 -297 -193 -113 -116
-166 -222 -207 -415 -60 -284 68 -590 322 -768 36 -25 69 -49 73 -52 5 -4 -6
-36 -25 -71 -18 -35 -34 -67 -36 -70 -10 -20 212 -90 331 -104 l58 -7 -4 -57
-4 -56 -185 -5 c-156 -4 -188 -8 -212 -23 -29 -19 -56 -71 -56 -107 0 -20 3
-20 482 -18 536 3 512 0 466 68 -13 19 -39 45 -57 57 -32 22 -43 23 -217 23
l-184 0 0 38 c0 66 9 82 44 82 66 0 221 32 294 60 181 70 344 200 450 359 120
179 168 350 159 566 -11 257 -98 449 -287 628 -76 72 -211 167 -238 167 -5 0
-24 -28 -42 -62z m127 -28 c174 -114 294 -272 364 -480 28 -84 33 -111 36
-230 6 -164 -15 -275 -75 -404 -120 -255 -313 -422 -579 -502 -76 -23 -107
-27 -233 -28 -113 -1 -162 3 -220 18 -100 26 -163 53 -157 69 37 93 40 98 56
91 153 -64 345 -82 491 -45 289 73 500 278 582 566 26 92 31 272 10 364 -44
192 -171 371 -344 486 -32 21 -58 39 -58 41 0 14 46 94 55 94 5 0 38 -18 72
-40z m-399 -16 c28 -4 52 -11 52 -15 0 -5 -7 -9 -16 -9 -24 0 -131 -56 -198
-104 -59 -42 -165 -147 -198 -195 l-17 -24 -130 59 -130 59 27 29 c37 38 136
108 201 141 111 55 258 77 409 59z m178 -156 c-24 -51 -75 -157 -115 -235
l-71 -143 -165 82 c-91 46 -165 87 -165 93 0 20 132 155 195 200 125 90 276
138 337 108 l27 -13 -43 -92z m123 38 c80 -82 113 -298 76 -500 l-17 -95 -161
80 c-89 45 -163 82 -165 83 -4 4 222 466 228 466 3 0 21 -15 39 -34z m202
-175 c57 -74 94 -149 120 -241 23 -77 34 -209 25 -273 l-7 -46 -125 62 c-108
53 -124 65 -119 82 41 150 45 374 6 480 -11 32 -21 61 -21 64 0 11 76 -69 121
-128z m-1006 -38 c50 -25 92 -47 94 -49 2 -2 -8 -21 -21 -42 -35 -52 -84 -150
-109 -217 -11 -30 -23 -55 -26 -55 -4 0 -60 26 -126 57 l-119 57 6 39 c10 59
52 155 98 223 l41 62 36 -15 c20 -9 77 -36 126 -60z m309 -153 c91 -45 166
-83 166 -86 0 -5 -149 -305 -156 -312 -3 -5 -304 143 -326 160 -16 12 -14 19
16 94 34 84 113 224 126 224 4 0 82 -36 174 -80z m371 -182 c158 -79 166 -84
160 -108 -11 -45 -80 -194 -115 -247 l-34 -52 -166 85 c-91 47 -167 87 -168
89 -4 3 150 313 155 314 2 1 77 -36 168 -81z m-873 -9 l124 -60 -19 -72 c-30
-107 -30 -349 -1 -429 12 -32 17 -58 13 -58 -14 0 -122 135 -162 201 -45 77
-84 194 -93 282 -6 58 2 197 11 197 2 0 59 -27 127 -61z m323 -159 c87 -44
160 -82 162 -84 4 -4 -213 -446 -225 -458 -4 -4 -21 2 -39 13 -61 38 -103 175
-103 335 0 100 27 274 43 274 2 0 74 -36 162 -80z m885 0 c137 -69 132 -56 80
-181 -27 -66 -110 -202 -120 -197 -3 2 -58 29 -122 61 -65 32 -118 60 -118 61
0 2 27 54 59 117 32 63 65 134 72 157 6 23 16 42 21 42 4 0 62 -27 128 -60z
m-512 -185 c89 -44 161 -84 162 -89 0 -17 -175 -182 -235 -221 -114 -75 -259
-115 -312 -87 -18 10 -12 25 97 246 63 129 118 234 121 233 3 -1 78 -38 167
-82z m331 -164 l121 -59 -52 -47 c-71 -63 -173 -122 -265 -152 -62 -21 -104
-27 -203 -30 -69 -3 -143 0 -165 5 l-40 9 45 12 c120 34 283 147 375 260 28
33 53 61 57 61 4 0 61 -27 127 -59z m-41 -686 l37 -34 -437 -1 c-471 0 -474 0
-412 49 26 20 37 21 400 21 l374 0 38 -35z"/>
</g>
</svg>
