<?xml version="1.0" standalone="no"?>
<!DOCTYPE svg PUBLIC "-//W3C//DTD SVG 20010904//EN"
 "http://www.w3.org/TR/2001/REC-SVG-20010904/DTD/svg10.dtd">
<svg version="1.0" xmlns="http://www.w3.org/2000/svg"
 width="179.000000pt" height="233.000000pt" viewBox="0 0 179.000000 233.000000"
 preserveAspectRatio="xMidYMid meet">
<metadata>
Created by potrace 1.16, written by Peter Selinger 2001-2019
</metadata>
<g transform="translate(0.000000,233.000000) scale(0.100000,-0.100000)"
fill="#000000" stroke="none">
<path d="M710 2311 c-131 -28 -324 -117 -353 -162 -8 -13 6 -64 59 -214 l69
-197 -34 -70 c-32 -64 -35 -78 -39 -181 -7 -188 44 -332 159 -452 56 -59 59
-64 59 -112 l0 -50 -57 -7 c-75 -8 -209 -55 -280 -97 -78 -47 -172 -144 -211
-217 -63 -118 -74 -163 -79 -328 l-5 -151 30 -34 30 -34 819 -3 c450 -1 827 0
839 2 11 3 33 18 47 32 27 26 27 28 27 168 0 95 -5 161 -15 200 -34 131 -131
265 -250 346 -68 47 -195 97 -282 112 l-73 12 0 48 c0 43 4 52 40 88 58 58
108 138 137 221 21 59 27 98 31 195 5 130 -8 200 -50 276 l-21 37 66 190 c37
105 67 196 67 204 0 20 -26 40 -111 86 -193 104 -409 136 -619 92z m343 -45
c88 -17 187 -55 274 -104 l61 -35 -45 -126 c-25 -69 -54 -152 -65 -183 -11
-32 -23 -58 -28 -58 -4 0 -33 11 -65 25 -101 45 -177 58 -315 53 -111 -4 -137
-9 -230 -41 -57 -20 -105 -35 -106 -34 -11 11 -124 353 -120 363 6 15 138 84
211 109 126 44 297 56 428 31z m13 -496 c95 -24 199 -73 218 -103 17 -27 48
-118 42 -124 -8 -9 -123 31 -189 65 -67 35 -157 120 -157 148 0 23 -10 17 -69
-45 -87 -91 -219 -147 -388 -165 l-62 -7 15 53 c22 72 29 83 66 106 136 84
357 114 524 72z m-62 -136 c56 -53 158 -105 257 -131 l69 -17 0 -61 c0 -178
-106 -368 -248 -443 -168 -90 -348 -54 -481 95 -86 96 -141 235 -141 354 l0
58 58 6 c179 19 330 76 401 149 19 20 35 36 36 36 1 0 23 -21 49 -46z m-192
-745 c71 -16 174 -5 247 24 l61 25 0 -50 c0 -45 -10 -69 -100 -227 -54 -97
-105 -184 -113 -194 -12 -17 -23 -1 -120 168 -103 178 -107 188 -107 245 l0
58 40 -19 c21 -10 63 -24 92 -30z m-59 -299 c71 -127 135 -230 142 -230 13 0
265 428 265 450 0 16 42 12 136 -16 160 -46 279 -129 360 -251 62 -93 84 -181
84 -333 0 -122 -1 -130 -22 -144 -20 -14 -115 -16 -823 -16 -708 0 -803 2
-823 16 -21 14 -22 23 -22 127 0 200 46 324 165 443 50 51 91 81 145 107 71
35 202 76 245 76 16 0 47 -49 148 -229z"/>
<path d="M873 2203 c-8 -3 -13 -25 -13 -59 l0 -54 -49 0 c-51 0 -78 -18 -67
-45 4 -11 20 -15 60 -15 l55 0 3 -47 c3 -40 6 -48 23 -48 17 0 20 8 23 48 l3
47 48 0 c52 0 76 16 65 44 -5 12 -19 16 -60 16 l-54 0 0 49 c0 49 -14 72 -37
64z"/>
</g>
</svg>
