<?xml version="1.0" standalone="no"?>
<!DOCTYPE svg PUBLIC "-//W3C//DTD SVG 20010904//EN"
 "http://www.w3.org/TR/2001/REC-SVG-20010904/DTD/svg10.dtd">
<svg version="1.0" xmlns="http://www.w3.org/2000/svg"
 width="253.000000pt" height="296.000000pt" viewBox="0 0 253.000000 296.000000"
 preserveAspectRatio="xMidYMid meet">
<metadata>
Created by potrace 1.16, written by Peter Selinger 2001-2019
</metadata>
<g transform="translate(0.000000,296.000000) scale(0.100000,-0.100000)"
fill="#000000" stroke="none">
<path d="M1065 2936 c-189 -54 -285 -101 -404 -201 -94 -79 -141 -136 -185
-222 -46 -92 -56 -152 -56 -337 l0 -170 -49 -45 c-65 -61 -78 -105 -63 -222 6
-48 20 -107 33 -135 32 -66 96 -127 161 -150 35 -13 56 -27 64 -44 7 -14 28
-59 48 -100 41 -87 112 -184 197 -270 76 -78 77 -107 6 -212 -26 -38 -42 -51
-82 -64 -159 -54 -400 -151 -464 -187 -180 -102 -249 -224 -266 -475 l-8 -102
27 0 c24 0 26 3 26 49 0 68 26 210 50 275 27 71 69 128 127 170 53 38 335 161
458 199 44 14 87 28 95 31 12 5 19 -3 28 -28 29 -80 139 -160 265 -193 73 -18
280 -13 362 10 104 29 212 105 252 175 l26 48 117 -47 c64 -25 159 -60 211
-78 52 -17 123 -48 158 -69 84 -49 176 -142 212 -214 33 -65 69 -202 69 -264
0 -41 13 -64 38 -64 12 0 14 13 8 75 -17 183 -71 310 -181 421 -93 94 -144
119 -478 234 -59 20 -118 47 -131 59 -32 30 -63 104 -71 168 -7 50 -7 50 59
136 79 105 150 223 167 282 11 38 17 44 48 50 86 16 154 75 197 170 22 48 29
79 32 152 2 51 1 108 -2 127 -8 44 -48 93 -91 110 l-32 14 13 63 c39 185 37
305 -7 397 -12 26 -57 83 -99 127 -42 44 -97 106 -124 138 -51 61 -139 128
-223 171 -136 68 -378 87 -538 42z m355 -46 c140 -27 227 -70 313 -157 37 -37
75 -80 85 -94 9 -14 51 -59 93 -100 122 -119 142 -207 98 -429 l-22 -107 -41
-11 c-22 -6 -41 -10 -42 -9 -25 49 -126 287 -139 325 -9 29 -23 56 -31 59 -8
3 -30 -8 -50 -23 -130 -104 -165 -126 -252 -159 -51 -19 -113 -38 -136 -41
-42 -6 -43 -6 -50 26 -3 18 -6 43 -6 57 0 38 -27 38 -103 0 -130 -65 -250 -75
-377 -32 -119 41 -124 38 -133 -90 -3 -44 -11 -97 -18 -117 l-12 -37 -25 19
c-14 11 -39 20 -57 20 -31 0 -32 1 -39 53 -11 97 -7 271 9 332 33 128 121 253
241 343 149 112 362 188 536 191 32 1 103 -8 158 -19z m305 -637 c10 -41 135
-316 151 -333 12 -13 18 -12 43 3 44 26 113 22 150 -8 41 -35 55 -83 48 -172
-11 -150 -89 -251 -210 -271 -40 -7 -42 -9 -64 -72 -62 -173 -239 -394 -363
-452 -127 -60 -298 -64 -413 -10 -137 64 -248 156 -325 269 -45 66 -116 205
-126 245 -4 19 -14 29 -31 33 -14 3 -36 7 -49 10 -13 3 -49 29 -79 57 -144
139 -131 388 20 388 15 0 51 -14 81 -31 30 -17 60 -28 66 -26 17 7 54 137 62
215 4 34 7 62 8 62 1 0 26 -9 56 -21 110 -42 261 -32 385 25 l53 24 8 -52 9
-51 45 -3 c83 -5 303 85 405 167 27 22 52 38 56 35 4 -2 10 -16 14 -31z m-105
-1343 c6 -30 19 -73 31 -96 18 -39 19 -45 6 -77 -20 -46 -101 -122 -162 -152
-70 -34 -166 -48 -303 -43 -144 4 -204 28 -287 112 -69 71 -76 101 -37 155 17
23 35 64 42 91 7 28 13 50 15 50 1 0 39 -18 83 -40 111 -55 154 -63 280 -58
120 6 184 25 267 82 28 18 51 33 52 32 2 -2 7 -27 13 -56z"/>
</g>
</svg>
