<?xml version="1.0" standalone="no"?>
<!DOCTYPE svg PUBLIC "-//W3C//DTD SVG 20010904//EN"
 "http://www.w3.org/TR/2001/REC-SVG-20010904/DTD/svg10.dtd">
<svg version="1.0" xmlns="http://www.w3.org/2000/svg"
 width="180.000000pt" height="182.000000pt" viewBox="0 0 180.000000 182.000000"
 preserveAspectRatio="xMidYMid meet">
<metadata>
Created by potrace 1.16, written by Peter Selinger 2001-2019
</metadata>
<g transform="translate(0.000000,182.000000) scale(0.100000,-0.100000)"
fill="#000000" stroke="none">
<path d="M450 1616 l-445 -203 -3 -499 -2 -500 452 -207 452 -208 448 208 448
208 0 500 0 500 -217 99 c-120 55 -319 146 -442 203 -123 57 -229 103 -235
102 -6 0 -211 -92 -456 -203z m831 -12 c200 -92 382 -175 404 -185 39 -18 39
-18 15 -28 -14 -5 -88 -38 -165 -73 l-140 -65 -403 186 c-221 101 -399 188
-395 192 11 10 295 137 309 138 6 1 175 -74 375 -165z m-352 -184 c214 -99
396 -180 403 -180 26 0 -14 -21 -219 -115 l-212 -97 -143 64 c-378 170 -668
303 -668 308 0 6 420 198 436 199 7 1 188 -80 403 -179z m-438 -254 l384 -175
3 -467 c2 -372 0 -465 -10 -461 -51 21 -804 370 -810 375 -5 5 -13 884 -9 924
1 3 14 0 29 -8 16 -7 201 -92 413 -188z m1269 -258 l0 -463 -188 -87 c-103
-48 -284 -133 -402 -188 -118 -55 -222 -103 -232 -106 -17 -5 -18 18 -18 459
l0 465 227 103 c124 57 310 143 412 191 102 47 189 86 194 87 4 1 7 -207 7
-461z"/>
</g>
</svg>
