<?xml version="1.0" standalone="no"?>
<!DOCTYPE svg PUBLIC "-//W3C//DTD SVG 20010904//EN"
 "http://www.w3.org/TR/2001/REC-SVG-20010904/DTD/svg10.dtd">
<svg version="1.0" xmlns="http://www.w3.org/2000/svg"
 width="230.000000pt" height="176.000000pt" viewBox="0 0 230.000000 176.000000"
 preserveAspectRatio="xMidYMid meet">
<metadata>
Created by potrace 1.16, written by Peter Selinger 2001-2019
</metadata>
<g transform="translate(0.000000,176.000000) scale(0.100000,-0.100000)"
fill="#000000" stroke="none">
<path d="M1067 1750 c-99 -25 -182 -97 -230 -198 -27 -57 -32 -78 -32 -143 1
-65 6 -86 33 -142 37 -74 101 -137 172 -170 35 -16 66 -21 135 -22 80 0 96 3
148 29 118 60 190 175 191 306 1 66 -3 84 -32 142 -36 75 -105 143 -176 176
-52 25 -155 35 -209 22z m164 -61 c72 -18 157 -99 185 -176 18 -51 17 -151 -1
-203 -22 -61 -74 -121 -136 -155 -47 -26 -64 -30 -129 -29 -126 0 -214 55
-270 166 -85 172 18 371 211 407 45 8 76 6 140 -10z"/>
<path d="M389 1547 c-155 -43 -234 -229 -160 -375 65 -128 251 -181 377 -107
109 64 155 222 100 342 -50 106 -199 172 -317 140z m155 -59 c58 -18 120 -82
134 -141 24 -95 -25 -204 -110 -246 -148 -71 -333 46 -315 201 18 149 143 230
291 186z"/>
<path d="M1749 1546 c-130 -46 -203 -168 -184 -306 16 -119 138 -220 266 -220
150 0 269 119 269 270 0 184 -182 317 -351 256z m176 -65 c43 -19 100 -78 116
-118 24 -64 3 -170 -44 -222 -29 -31 -114 -71 -153 -71 -80 0 -165 56 -206
134 -29 57 -22 149 16 205 56 81 180 114 271 72z"/>
<path d="M1070 970 c-87 -8 -207 -45 -268 -82 l-33 -20 -68 30 c-180 80 -334
66 -505 -48 -81 -55 -150 -139 -178 -218 -22 -62 -26 -393 -5 -411 9 -7 102
-12 273 -13 l259 -3 3 -80 c1 -44 4 -90 7 -103 l5 -22 598 2 597 3 3 102 3
103 264 0 265 0 6 25 c3 13 4 104 2 202 -3 178 -3 179 -35 244 -18 36 -54 87
-80 114 -128 130 -400 182 -585 112 l-68 -26 -62 28 c-121 55 -250 74 -398 61z
m274 -66 c126 -34 237 -115 296 -219 46 -81 58 -156 66 -407 l7 -228 -555 0
-555 0 -7 208 c-8 230 0 316 38 391 68 133 224 239 400 271 69 12 238 4 310
-16z m-702 -34 c84 -32 83 -30 23 -93 -98 -104 -124 -189 -125 -404 l0 -113
-246 0 -246 0 4 173 c3 168 4 173 32 224 37 67 126 153 194 187 115 58 253 68
364 26z m1328 -12 c86 -26 137 -57 189 -113 77 -84 86 -115 86 -310 l0 -170
-245 0 -245 0 -6 145 c-4 80 -12 163 -19 185 -21 67 -69 154 -111 199 -21 24
-39 46 -39 49 0 6 80 33 120 41 48 8 206 -7 270 -26z"/>
</g>
</svg>
