<?xml version="1.0" standalone="no"?>
<!DOCTYPE svg PUBLIC "-//W3C//DTD SVG 20010904//EN"
 "http://www.w3.org/TR/2001/REC-SVG-20010904/DTD/svg10.dtd">
<svg version="1.0" xmlns="http://www.w3.org/2000/svg"
 width="159.000000pt" height="165.000000pt" viewBox="0 0 159.000000 165.000000"
 preserveAspectRatio="xMidYMid meet">
<metadata>
Created by potrace 1.16, written by Peter Selinger 2001-2019
</metadata>
<g transform="translate(0.000000,165.000000) scale(0.100000,-0.100000)"
fill="#000000" stroke="none">
<path d="M3 1553 c7 -118 27 -194 75 -293 48 -99 157 -210 260 -264 98 -50
241 -86 348 -86 l84 0 0 -214 0 -213 -58 -12 c-33 -6 -83 -23 -113 -38 -57
-28 -163 -127 -174 -162 -5 -18 -15 -21 -63 -21 -73 -1 -128 -26 -174 -79 -36
-42 -63 -113 -56 -147 3 -18 26 -19 653 -19 l650 1 3 30 c4 41 -29 114 -70
156 -39 39 -94 58 -164 58 -46 0 -51 2 -68 35 -45 82 -165 166 -272 187 l-54
11 0 182 0 183 73 12 c302 49 466 140 588 326 68 102 127 307 117 404 l-3 35
-85 -3 c-232 -7 -439 -108 -565 -274 -46 -61 -135 -231 -135 -259 0 -8 -15 22
-33 66 -89 220 -244 371 -448 439 -75 25 -237 56 -293 56 l-29 0 6 -97z m232
26 c201 -48 364 -174 457 -354 54 -105 80 -189 76 -242 -3 -37 -4 -38 -45 -41
-62 -5 -212 24 -290 55 -241 95 -369 276 -397 561 l-5 53 62 -7 c34 -3 98 -15
142 -25z m1315 -32 c0 -24 -9 -79 -20 -123 -50 -200 -170 -357 -331 -434 -87
-41 -230 -83 -333 -95 l-59 -8 6 75 c10 144 103 325 224 439 123 115 291 182
476 188 l37 1 0 -43z m-609 -1140 c73 -36 120 -76 163 -142 l37 -55 59 0 c94
0 143 -27 181 -102 38 -74 88 -68 -596 -68 -684 0 -634 -6 -596 68 36 70 93
102 180 102 60 0 60 0 90 44 92 133 197 188 347 183 63 -3 93 -9 135 -30z"/>
</g>
</svg>
