<?xml version="1.0" standalone="no"?>
<!DOCTYPE svg PUBLIC "-//W3C//DTD SVG 20010904//EN"
 "http://www.w3.org/TR/2001/REC-SVG-20010904/DTD/svg10.dtd">
<svg version="1.0" xmlns="http://www.w3.org/2000/svg"
 width="181.000000pt" height="189.000000pt" viewBox="0 0 181.000000 189.000000"
 preserveAspectRatio="xMidYMid meet">
<metadata>
Created by potrace 1.16, written by Peter Selinger 2001-2019
</metadata>
<g transform="translate(0.000000,189.000000) scale(0.100000,-0.100000)"
fill="#000000" stroke="none">
<path d="M921 1873 c-7 -14 -1 -26 28 -58 21 -23 46 -62 56 -88 25 -66 10
-130 -55 -231 -77 -123 -86 -204 -35 -306 28 -55 59 -84 80 -76 29 11 26 32
-11 87 -34 51 -36 57 -32 124 4 64 8 76 55 147 79 119 91 212 42 311 -26 53
-77 107 -100 107 -10 0 -22 -8 -28 -17z"/>
<path d="M557 1873 c-15 -14 -5 -37 32 -79 74 -84 75 -164 5 -279 -62 -101
-74 -135 -74 -205 0 -72 21 -127 64 -173 28 -30 43 -31 59 -5 8 12 3 28 -21
63 -56 85 -56 164 1 249 69 104 81 136 82 211 0 54 -5 80 -23 115 -41 79 -101
128 -125 103z"/>
<path d="M655 1010 c-350 -23 -599 -75 -640 -133 -35 -50 0 -249 69 -390 82
-168 222 -306 399 -392 121 -58 232 -85 385 -92 147 -7 241 6 367 51 224 80
394 226 490 421 55 111 75 184 82 300 5 86 4 91 -20 113 -49 46 -220 88 -457
112 -138 14 -524 20 -675 10z m670 -70 c213 -23 399 -64 425 -94 10 -13 6 -19
-21 -35 -177 -108 -1071 -135 -1506 -45 -83 17 -156 44 -167 63 -17 28 170 77
379 101 261 30 657 34 890 10z m-1221 -205 c106 -44 371 -75 708 -82 377 -8
730 23 883 76 64 23 64 24 39 -79 -60 -255 -287 -477 -574 -560 -107 -31 -304
-38 -425 -15 -307 57 -550 258 -638 526 -25 74 -42 149 -34 149 3 0 21 -7 41
-15z"/>
</g>
</svg>
