<?xml version="1.0" standalone="no"?>
<!DOCTYPE svg PUBLIC "-//W3C//DTD SVG 20010904//EN"
 "http://www.w3.org/TR/2001/REC-SVG-20010904/DTD/svg10.dtd">
<svg version="1.0" xmlns="http://www.w3.org/2000/svg"
 width="199.000000pt" height="217.000000pt" viewBox="0 0 199.000000 217.000000"
 preserveAspectRatio="xMidYMid meet">
<metadata>
Created by potrace 1.16, written by Peter Selinger 2001-2019
</metadata>
<g transform="translate(0.000000,217.000000) scale(0.100000,-0.100000)"
fill="#000000" stroke="none">
<path d="M840 2156 c-170 -47 -306 -159 -385 -317 -65 -127 -81 -212 -101
-513 -8 -126 -21 -260 -29 -299 -14 -67 -52 -159 -92 -220 -18 -28 -18 -28 7
-47 32 -25 139 -58 215 -68 l60 -8 -40 -13 c-68 -23 -187 -88 -260 -144 -147
-112 -208 -235 -209 -422 -1 -83 2 -100 15 -103 13 -2 17 13 22 96 9 126 36
216 87 284 75 98 212 192 374 252 38 15 70 25 70 24 1 -2 11 -20 21 -41 31
-60 126 -144 202 -179 88 -41 228 -50 329 -23 110 30 210 106 264 203 l23 40
66 -23 c224 -76 377 -198 431 -342 16 -41 24 -92 29 -173 6 -106 8 -115 26
-115 19 0 20 6 18 99 -5 182 -46 280 -166 391 -61 57 -187 130 -317 183 -24
10 -24 11 10 11 55 2 156 28 210 56 53 27 64 51 34 76 -55 45 -99 210 -114
423 -26 374 -43 465 -106 596 -28 57 -57 94 -118 155 -87 86 -164 132 -271
160 -71 18 -240 19 -305 1z m285 -41 c97 -25 184 -74 256 -145 143 -141 185
-273 209 -650 17 -274 41 -390 99 -482 l29 -46 -46 -20 c-62 -27 -149 -42
-238 -42 -63 0 -76 3 -103 26 -35 29 -51 76 -51 152 0 47 4 57 47 110 87 107
123 222 123 404 l0 106 -54 30 c-63 36 -111 90 -155 172 -18 33 -38 60 -45 60
-7 0 -50 -25 -96 -56 -101 -67 -155 -95 -240 -122 -67 -22 -223 -52 -269 -52
-45 0 -51 -16 -51 -124 1 -194 44 -337 130 -430 l43 -46 -5 -69 c-6 -77 -30
-129 -69 -148 -52 -27 -229 -11 -321 29 l-46 20 23 35 c60 87 90 226 100 458
19 414 78 583 255 726 127 103 316 144 475 104z m163 -528 c20 -21 57 -50 81
-65 l43 -27 -5 -110 c-11 -222 -90 -364 -245 -437 -170 -81 -385 -26 -488 125
-62 89 -77 146 -82 305 l-4 142 35 0 c52 0 185 27 263 54 85 29 149 61 234
119 l64 44 34 -56 c18 -31 50 -73 70 -94z m-472 -684 c54 -26 69 -28 174 -28
101 0 122 3 177 26 l61 26 10 -69 c13 -83 42 -131 94 -156 21 -9 38 -22 38
-28 0 -25 -79 -121 -130 -157 -196 -136 -476 -84 -602 112 -33 53 -34 61 -9
61 29 0 81 49 102 95 10 22 19 63 19 93 0 28 2 52 4 52 2 0 30 -12 62 -27z"/>
</g>
</svg>
