<?xml version="1.0" standalone="no"?>
<!DOCTYPE svg PUBLIC "-//W3C//DTD SVG 20010904//EN"
 "http://www.w3.org/TR/2001/REC-SVG-20010904/DTD/svg10.dtd">
<svg version="1.0" xmlns="http://www.w3.org/2000/svg"
 width="282.000000pt" height="252.000000pt" viewBox="0 0 282.000000 252.000000"
 preserveAspectRatio="xMidYMid meet">
<metadata>
Created by potrace 1.16, written by Peter Selinger 2001-2019
</metadata>
<g transform="translate(0.000000,252.000000) scale(0.100000,-0.100000)"
fill="#000000" stroke="none">
<path d="M1385 2506 c-134 -42 -223 -151 -246 -298 -26 -167 60 -339 269 -539
116 -112 415 -353 443 -357 13 -2 76 42 192 134 279 224 419 370 487 507 101
206 33 435 -160 534 -50 25 -65 28 -160 28 -96 0 -110 -2 -158 -28 -68 -36
-136 -98 -169 -154 -14 -24 -27 -43 -28 -41 -2 2 -24 31 -49 65 -51 70 -128
127 -201 149 -58 17 -165 17 -220 0z m250 -76 c68 -33 95 -58 157 -150 25 -36
52 -66 60 -68 11 -2 32 21 61 65 89 136 169 187 297 187 95 1 162 -27 223 -93
113 -121 115 -301 5 -465 -60 -90 -252 -276 -426 -414 -84 -67 -155 -122 -158
-122 -17 0 -327 262 -425 360 -132 130 -190 213 -221 313 -86 285 165 513 427
387z"/>
<path d="M2590 1351 c-56 -17 -95 -48 -280 -215 l-194 -175 -17 28 c-23 38
-65 69 -108 80 -20 5 -126 14 -236 20 -221 11 -257 18 -466 96 -168 63 -235
77 -359 77 -79 0 -121 -5 -170 -21 -116 -37 -166 -74 -310 -224 -74 -78 -206
-213 -294 -299 -152 -152 -178 -188 -131 -188 23 0 178 149 359 344 177 192
235 244 319 286 82 41 154 53 272 47 102 -5 125 -11 386 -106 133 -48 217 -61
429 -70 165 -6 199 -10 223 -25 78 -52 69 -157 -16 -203 -28 -16 -72 -19 -372
-23 -332 -5 -340 -5 -340 -25 0 -20 8 -20 330 -23 218 -2 343 1 368 8 50 15
106 65 129 118 14 32 69 88 219 225 109 100 214 190 231 200 18 9 52 17 76 17
115 0 166 -106 97 -201 -52 -71 -561 -571 -625 -614 -163 -109 -281 -121 -782
-81 -180 14 -358 26 -396 26 -108 0 -148 -25 -349 -224 -95 -93 -173 -175
-173 -183 0 -7 7 -16 15 -19 10 -4 68 45 177 151 174 170 228 211 292 220 22
4 190 -5 371 -19 182 -14 364 -28 405 -32 158 -12 345 33 467 112 65 42 601
573 647 641 53 79 45 176 -19 232 -50 44 -116 60 -175 42z"/>
</g>
</svg>
