<?xml version="1.0" standalone="no"?>
<!DOCTYPE svg PUBLIC "-//W3C//DTD SVG 20010904//EN"
 "http://www.w3.org/TR/2001/REC-SVG-20010904/DTD/svg10.dtd">
<svg version="1.0" xmlns="http://www.w3.org/2000/svg"
 width="171.000000pt" height="200.000000pt" viewBox="0 0 171.000000 200.000000"
 preserveAspectRatio="xMidYMid meet">
<metadata>
Created by potrace 1.16, written by Peter Selinger 2001-2019
</metadata>
<g transform="translate(0.000000,200.000000) scale(0.100000,-0.100000)"
fill="#000000" stroke="none">
<path d="M29 1971 l-29 -29 0 -944 c1 -725 3 -947 13 -959 30 -39 33 -39 847
-39 l792 0 29 29 29 29 0 733 0 733 -237 238 -237 238 -589 0 -589 0 -29 -29z
m1183 -216 c4 -270 -18 -248 251 -255 l202 -5 2 -713 c1 -621 0 -714 -13 -727
-13 -13 -116 -15 -795 -15 -519 0 -787 3 -800 10 -19 10 -19 32 -19 945 0 835
2 935 16 949 14 14 80 16 584 16 l569 0 3 -205z m408 -205 c0 -10 -344 1 -357
12 -10 8 -13 55 -13 187 l0 176 185 -185 c102 -102 185 -187 185 -190z"/>
<path d="M312 1313 c3 -17 36 -18 538 -18 469 0 535 2 535 15 0 13 -68 15
-538 18 -509 2 -538 1 -535 -15z"/>
<path d="M502 982 c-177 -2 -193 -4 -190 -20 3 -16 34 -17 408 -20 394 -2 441
1 414 28 -11 11 -314 17 -632 12z"/>
<path d="M317 644 c-4 -4 -7 -13 -7 -21 0 -11 46 -13 253 -11 216 3 252 5 252
18 0 13 -35 15 -246 18 -135 1 -248 -1 -252 -4z"/>
</g>
</svg>
