<?xml version="1.0" standalone="no"?>
<!DOCTYPE svg PUBLIC "-//W3C//DTD SVG 20010904//EN"
 "http://www.w3.org/TR/2001/REC-SVG-20010904/DTD/svg10.dtd">
<svg version="1.0" xmlns="http://www.w3.org/2000/svg"
 width="171.000000pt" height="216.000000pt" viewBox="0 0 171.000000 216.000000"
 preserveAspectRatio="xMidYMid meet">
<metadata>
Created by potrace 1.16, written by Peter Selinger 2001-2019
</metadata>
<g transform="translate(0.000000,216.000000) scale(0.100000,-0.100000)"
fill="#000000" stroke="none">
<path d="M690 2139 c-55 -25 -87 -53 -110 -99 -41 -83 -31 -171 27 -239 49
-57 99 -81 171 -81 78 0 136 30 179 93 124 184 -67 417 -267 326z m141 -29
c54 -15 116 -86 124 -143 17 -113 -66 -207 -182 -207 -83 0 -159 62 -174 144
-15 81 27 162 106 197 46 21 75 23 126 9z"/>
<path d="M598 1718 c-66 -14 -400 -187 -438 -227 -42 -44 -150 -315 -150 -375
0 -56 43 -96 103 -96 55 0 89 25 112 82 9 24 35 85 57 136 40 92 42 93 99 123
32 16 60 29 62 29 2 0 -14 -64 -35 -142 -36 -131 -39 -150 -34 -233 4 -71 -1
-125 -23 -255 l-28 -165 -90 -141 c-50 -77 -98 -155 -107 -172 -66 -129 103
-234 197 -122 37 44 216 326 237 373 11 23 24 85 30 137 7 52 13 101 16 108 2
9 28 -4 77 -37 l74 -49 12 -139 c17 -185 24 -213 60 -245 l31 -27 -108 -3
-107 -3 -3 -117 -3 -118 -317 -2 c-274 -3 -317 -5 -317 -18 0 -13 44 -15 325
-18 297 -2 326 -1 338 15 8 11 12 53 12 120 l0 103 204 0 c248 0 236 -7 236
142 l0 98 113 0 c148 0 147 -1 147 143 l0 107 162 2 c147 3 163 5 166 21 3 16
-9 17 -180 15 l-183 -3 -3 -122 -3 -123 -129 0 -129 0 -3 -118 -3 -117 -67 -3
-67 -3 35 35 c31 31 34 40 34 90 0 96 -20 359 -32 410 -13 59 -55 104 -148
160 -36 21 -79 49 -97 62 l-31 24 18 62 c10 35 24 82 30 106 l11 43 35 -30
c19 -17 46 -34 59 -37 35 -9 353 25 392 41 40 17 73 68 73 113 0 24 -9 42 -31
64 -30 30 -32 31 -102 24 -40 -3 -112 -9 -162 -12 l-90 -6 -42 86 c-47 95 -97
156 -146 179 -51 24 -108 34 -149 25z m160 -81 c28 -18 49 -48 86 -123 26 -54
54 -106 61 -114 12 -13 32 -14 174 -1 153 14 162 14 181 -4 43 -39 7 -109 -65
-125 -22 -4 -104 -14 -183 -21 -167 -14 -178 -11 -217 55 -15 26 -33 46 -39
46 -12 0 -82 -230 -88 -290 -3 -22 11 -34 106 -97 174 -114 166 -101 182 -294
20 -242 18 -305 -6 -329 -27 -27 -71 -26 -99 4 -19 20 -25 46 -40 187 -10 90
-22 171 -26 181 -3 9 -77 60 -162 115 -182 114 -208 137 -217 191 -5 37 26
182 80 366 9 31 11 53 5 59 -6 6 -47 -9 -108 -39 l-98 -49 -53 -130 c-30 -71
-61 -138 -70 -147 -19 -23 -70 -23 -94 -1 -10 9 -18 29 -18 44 0 43 108 310
138 343 25 26 381 208 427 218 29 6 101 -16 143 -45z m-255 -778 c34 -23 64
-43 66 -45 10 -8 -33 -243 -51 -278 -42 -83 -227 -355 -252 -371 -46 -30 -116
3 -116 55 0 24 100 199 181 317 28 40 35 65 58 209 19 121 29 163 39 159 7 -2
40 -23 75 -46z"/>
</g>
</svg>
