<?xml version="1.0" standalone="no"?>
<!DOCTYPE svg PUBLIC "-//W3C//DTD SVG 20010904//EN"
 "http://www.w3.org/TR/2001/REC-SVG-20010904/DTD/svg10.dtd">
<svg version="1.0" xmlns="http://www.w3.org/2000/svg"
 width="161.000000pt" height="228.000000pt" viewBox="0 0 161.000000 228.000000"
 preserveAspectRatio="xMidYMid meet">
<metadata>
Created by potrace 1.16, written by Peter Selinger 2001-2019
</metadata>
<g transform="translate(0.000000,228.000000) scale(0.100000,-0.100000)"
fill="#000000" stroke="none">
<path d="M396 2272 c-3 -5 -16 -116 -31 -248 -25 -235 -26 -239 -53 -259 -149
-109 -258 -281 -296 -467 -59 -284 58 -585 295 -763 27 -20 27 -23 49 -265 12
-135 27 -251 32 -257 15 -19 701 -19 716 0 5 6 20 122 33 257 20 209 26 247
41 258 49 36 117 99 156 146 50 60 124 201 142 274 13 48 15 50 40 45 16 -3
41 2 60 12 l33 17 -7 121 c-4 72 -12 127 -19 133 -7 7 -29 15 -49 18 -32 6
-38 4 -39 -11 0 -10 -9 15 -20 56 -39 151 -135 299 -259 399 -30 25 -58 57
-62 71 -4 14 -17 122 -27 239 -11 117 -23 217 -26 222 -8 12 -701 14 -709 2z
m678 -64 c8 -56 36 -357 36 -378 0 -14 -9 -12 -57 11 -112 54 -272 78 -398 59
-80 -12 -240 -64 -251 -81 -18 -30 -17 13 3 199 12 114 22 213 22 220 1 9 72
12 320 12 l320 0 5 -42z m-134 -369 c128 -35 238 -105 338 -214 120 -131 182
-296 182 -484 0 -127 -16 -197 -70 -306 -93 -190 -278 -334 -487 -381 -111
-24 -272 -16 -378 20 -213 72 -380 243 -452 461 -23 70 -26 96 -27 215 0 122
3 143 28 215 90 261 313 454 576 495 76 12 205 3 290 -21z m620 -619 c0 -15 3
-61 6 -102 7 -80 0 -93 -43 -82 -16 5 -18 17 -19 113 l-2 107 29 -4 c24 -4 29
-9 29 -32z m-991 -801 c90 -23 246 -25 343 -4 37 7 98 27 137 43 43 18 71 26
71 18 0 -6 -9 -97 -20 -201 -11 -105 -20 -200 -20 -212 l0 -23 -330 0 c-308 0
-330 1 -330 18 0 22 -28 323 -36 384 l-6 48 59 -26 c32 -14 91 -35 132 -45z"/>
<path d="M736 1603 c-3 -4 -6 -89 -6 -191 l0 -184 -30 -28 c-20 -19 -30 -38
-30 -57 0 -23 -19 -47 -94 -122 -86 -86 -107 -121 -72 -121 6 0 52 40 101 90
85 86 91 89 125 84 76 -12 124 78 65 124 l-25 20 0 190 c0 154 -3 191 -14 195
-8 3 -17 3 -20 0z m38 -445 c8 -14 7 -21 -6 -34 -30 -30 -75 9 -48 42 16 18
39 15 54 -8z"/>
</g>
</svg>
