<?xml version="1.0" standalone="no"?>
<!DOCTYPE svg PUBLIC "-//W3C//DTD SVG 20010904//EN"
 "http://www.w3.org/TR/2001/REC-SVG-20010904/DTD/svg10.dtd">
<svg version="1.0" xmlns="http://www.w3.org/2000/svg"
 width="180.000000pt" height="137.000000pt" viewBox="0 0 180.000000 137.000000"
 preserveAspectRatio="xMidYMid meet">
<metadata>
Created by potrace 1.16, written by Peter Selinger 2001-2019
</metadata>
<g transform="translate(0.000000,137.000000) scale(0.100000,-0.100000)"
fill="#000000" stroke="none">
<path d="M995 1290 c-131 -47 -228 -77 -240 -74 -11 3 -100 38 -198 76 -174
69 -179 70 -196 52 -10 -11 -95 -126 -191 -257 l-173 -239 44 -46 c24 -26 74
-78 111 -117 l67 -70 -17 -48 c-16 -46 -16 -49 3 -85 11 -20 34 -46 52 -57 22
-14 30 -25 27 -38 -9 -30 16 -85 53 -118 29 -25 43 -30 67 -26 28 4 33 1 51
-36 26 -54 66 -82 115 -82 38 0 39 0 38 -34 -1 -27 6 -40 30 -63 53 -47 120
-37 191 27 l40 36 61 -45 c49 -36 71 -46 101 -46 35 0 42 5 74 48 19 26 35 52
35 58 0 7 21 11 53 10 67 0 103 21 126 75 14 34 20 39 49 39 44 0 84 29 106
77 16 35 20 38 58 38 33 0 45 6 70 34 27 31 30 39 25 85 -2 28 -7 58 -11 66
-4 10 27 59 89 140 52 69 95 130 95 136 0 7 -81 119 -179 250 -208 278 -240
306 -344 311 -56 3 -83 -4 -282 -77z m350 27 c54 -27 99 -76 232 -256 80 -108
157 -208 170 -223 l25 -26 -68 -89 c-37 -48 -80 -102 -95 -119 l-26 -32 -71
62 c-193 168 -388 334 -420 356 -28 20 -50 26 -109 28 -104 6 -125 -5 -187
-102 -70 -108 -85 -120 -137 -113 -49 6 -79 31 -79 66 0 36 48 158 81 207 47
69 84 89 354 187 206 74 269 85 330 54z m-788 -59 c87 -34 159 -63 161 -64 2
-1 -21 -26 -51 -55 -42 -43 -60 -72 -90 -147 -44 -111 -47 -154 -12 -186 33
-31 90 -45 135 -33 47 12 51 16 116 113 31 46 66 86 77 90 31 10 128 7 158 -4
28 -11 58 -35 318 -260 185 -160 236 -219 226 -262 -16 -64 -56 -86 -107 -59
-11 6 -88 69 -171 140 -100 85 -155 125 -161 119 -6 -6 -6 -13 0 -18 5 -4 49
-42 98 -83 166 -138 196 -168 196 -200 0 -38 -44 -79 -87 -79 -25 0 -56 19
-145 90 -62 49 -116 90 -120 90 -25 0 6 -35 98 -113 57 -48 104 -95 104 -103
0 -9 -13 -29 -29 -45 -22 -22 -39 -29 -68 -29 -48 0 -74 14 -161 84 -74 60
-82 64 -82 41 0 -8 34 -43 75 -77 50 -42 74 -70 75 -85 0 -25 -60 -93 -82 -93
-16 0 -99 52 -116 73 -7 9 -4 30 9 71 33 97 8 166 -59 166 -20 0 -23 4 -19 21
8 31 -22 108 -49 126 -17 11 -38 14 -69 11 -44 -5 -45 -5 -45 24 0 63 -45 108
-109 108 -24 0 -28 4 -29 31 -1 38 -25 76 -58 91 -36 17 -113 -12 -188 -69
l-60 -46 -29 34 c-16 19 -61 66 -99 106 l-69 72 88 118 c49 65 126 171 172
236 46 64 87 117 92 117 4 0 79 -28 166 -62z m-57 -557 c23 -44 12 -78 -37
-118 -27 -21 -74 -60 -105 -86 -62 -53 -81 -56 -110 -16 -38 51 5 132 109 202
64 43 125 51 143 18z m130 -131 c20 -20 26 -63 14 -94 -15 -38 -228 -196 -265
-196 -24 0 -59 50 -59 83 0 40 58 112 150 184 45 35 63 43 98 43 29 0 48 -6
62 -20z m159 -136 c36 -45 28 -72 -41 -137 -90 -86 -161 -137 -190 -137 -27 0
-88 58 -88 83 0 24 30 55 130 136 115 92 151 103 189 55z m111 -155 c24 -44
-34 -153 -113 -210 -43 -31 -103 -39 -125 -17 -37 37 13 140 102 208 60 47
117 55 136 19z"/>
</g>
</svg>
