<?xml version="1.0" standalone="no"?>
<!DOCTYPE svg PUBLIC "-//W3C//DTD SVG 20010904//EN"
 "http://www.w3.org/TR/2001/REC-SVG-20010904/DTD/svg10.dtd">
<svg version="1.0" xmlns="http://www.w3.org/2000/svg"
 width="73.000000pt" height="169.000000pt" viewBox="0 0 73.000000 169.000000"
 preserveAspectRatio="xMidYMid meet">
<metadata>
Created by potrace 1.16, written by Peter Selinger 2001-2019
</metadata>
<g transform="translate(0.000000,169.000000) scale(0.100000,-0.100000)"
fill="#000000" stroke="none">
<path d="M293 1639 c-78 -38 -103 -55 -103 -70 0 -26 21 -24 88 10 31 15 67
32 79 35 l23 7 2 -288 c3 -280 4 -288 23 -288 20 0 20 7 20 320 0 277 -2 320
-15 322 -8 1 -61 -21 -117 -48z"/>
<path d="M4 849 c-3 -6 -2 -15 3 -20 5 -5 156 -8 363 -7 329 3 355 4 358 21 3
16 -19 17 -357 17 -248 0 -362 -3 -367 -11z"/>
<path d="M310 621 c-61 -20 -92 -44 -111 -84 -26 -59 -25 -87 4 -87 19 0 26 8
36 39 6 22 25 51 42 65 25 22 41 26 91 26 53 0 63 -3 89 -29 23 -24 29 -38 29
-73 0 -61 -37 -118 -183 -286 -115 -131 -146 -175 -128 -186 3 -2 87 -3 186
-3 178 2 180 2 183 25 l3 22 -156 0 -157 0 84 92 c117 129 178 205 199 253 36
79 16 166 -47 206 -37 22 -124 33 -164 20z"/>
</g>
</svg>
